# 3ds Max Wavefront OBJ Exporter v0.97b - (c)2007 guruware
# File Created: 03.08.2021 16:05:39

#
# object Group22992
#

v  37.429722 5.167391 36.371582
v  37.290653 5.147465 36.278950
v  37.286091 5.140905 36.299400
v  37.285000 5.134778 36.323402
v  37.285107 5.129410 36.349564
v  37.285519 5.125227 36.376617
v  37.286674 5.122749 36.403500
v  37.289944 5.122542 36.429165
v  37.297043 5.125085 36.452106
v  37.309231 5.130672 36.470440
v  37.326756 5.139153 36.483059
v  37.349430 5.149498 36.490021
v  37.377663 5.159671 36.492207
v  37.411835 5.167505 36.490780
v  37.450527 5.171947 36.486664
v  37.490116 5.173634 36.480282
v  37.526505 5.174230 36.471474
v  37.556999 5.175210 36.459499
v  37.580589 5.176983 36.443485
v  37.597542 5.179428 36.423229
v  37.607536 5.181568 36.399014
v  37.612286 5.183079 36.372429
v  37.614189 5.184917 36.345032
v  37.612419 5.187243 36.317959
v  37.605122 5.190228 36.292450
v  37.585949 5.191805 36.271103
v  37.549622 5.189546 36.256790
v  37.500568 5.183989 36.248577
v  37.447418 5.177136 36.244663
v  37.397392 5.170667 36.244011
v  37.355057 5.165063 36.246429
v  37.322929 5.159787 36.252533
v  37.301918 5.153937 36.263195
v  37.223381 5.119928 36.223843
v  37.216431 5.109843 36.256275
v  37.214306 5.100186 36.293694
v  37.214520 5.091268 36.333782
v  37.215668 5.084066 36.374973
v  37.217812 5.079859 36.416172
v  37.222626 5.079657 36.456448
v  37.233093 5.083981 36.492630
v  37.251923 5.092988 36.520580
v  37.279491 5.106439 36.538624
v  37.314453 5.122930 36.547691
v  37.356808 5.139431 36.549816
v  37.407852 5.152311 36.546921
v  37.466106 5.159638 36.540550
v  37.526352 5.162264 36.531364
v  37.582001 5.162677 36.518677
v  37.627724 5.162436 36.500568
v  37.661396 5.161145 36.475647
v  37.684620 5.159451 36.444687
v  37.699024 5.157836 36.408825
v  37.706776 5.156914 36.369667
v  37.709934 5.157990 36.328865
v  37.708473 5.161867 36.287968
v  37.700127 5.168920 36.248837
v  37.676662 5.177175 36.214752
v  37.625378 5.180290 36.190475
v  37.547413 5.174370 36.176994
v  37.460880 5.163517 36.171268
v  37.381432 5.153311 36.170284
v  37.315815 5.145512 36.173470
v  37.267429 5.138719 36.182339
v  37.238274 5.130042 36.198765
v  37.146694 5.072169 36.159637
v  37.135220 5.061670 36.205116
v  37.133858 5.049706 36.257931
v  37.136032 5.036685 36.313049
v  37.139778 5.025424 36.368664
v  37.143932 5.019322 36.424488
v  37.149506 5.020100 36.480545
v  37.161484 5.027435 36.530643
v  37.186573 5.040895 36.567650
v  37.226807 5.060166 36.590195
v  37.277626 5.083442 36.600719
v  37.336266 5.106500 36.602528
v  37.405010 5.124459 36.598267
v  37.483231 5.134777 36.589764
v  37.564480 5.138315 36.578045
v  37.638931 5.137371 36.561108
v  37.696522 5.132923 36.535927
v  37.738407 5.127256 36.502934
v  37.767548 5.121648 36.462791
v  37.785603 5.116731 36.416721
v  37.794991 5.113583 36.366413
v  37.797832 5.113604 36.313778
v  37.794788 5.117603 36.260765
v  37.784618 5.126469 36.209118
v  37.759109 5.139134 36.161751
v  37.700352 5.149459 36.123722
v  37.597099 5.147435 36.100277
v  37.473011 5.131580 36.090229
v  37.362305 5.115131 36.087818
v  37.276096 5.102198 36.091267
v  37.212399 5.092048 36.102760
v  37.171677 5.082091 36.125126
v  37.075718 5.015420 36.099243
v  37.049992 5.003033 36.151928
v  37.042023 4.987344 36.215778
v  37.045143 4.970249 36.285748
v  37.054527 4.954493 36.356873
v  37.062515 4.947450 36.427773
v  37.066326 4.951044 36.499329
v  37.074512 4.962410 36.562603
v  37.101894 4.980521 36.607983
v  37.157440 5.005637 36.634319
v  37.230618 5.035555 36.645866
v  37.310814 5.064444 36.647663
v  37.400154 5.086016 36.642483
v  37.499451 5.098533 36.632061
v  37.601643 5.102422 36.617695
v  37.691105 5.098104 36.595402
v  37.757496 5.089507 36.564129
v  37.806747 5.080711 36.525097
v  37.841312 5.072459 36.477768
v  37.862404 5.065490 36.423450
v  37.873238 5.061431 36.363995
v  37.874310 5.060495 36.301311
v  37.868176 5.063730 36.238174
v  37.854641 5.072783 36.176514
v  37.824986 5.087067 36.119534
v  37.759838 5.101592 36.071594
v  37.641609 5.104738 36.037666
v  37.486305 5.084019 36.021950
v  37.349514 5.062122 36.018562
v  37.249840 5.046588 36.023487
v  37.176029 5.035193 36.036755
v  37.118572 5.025459 36.061226
v  37.052998 4.960173 36.056721
v  37.007431 4.947027 36.110378
v  36.979179 4.928834 36.179226
v  36.969952 4.908223 36.257164
v  36.978809 4.888805 36.340618
v  36.988956 4.881725 36.427315
v  36.989395 4.888052 36.513184
v  36.991314 4.901410 36.586136
v  37.014076 4.921248 36.637623
v  37.077312 4.948843 36.668262
v  37.174320 4.982469 36.681511
v  37.280754 5.014668 36.683216
v  37.393764 5.037634 36.677452
v  37.514935 5.051206 36.664989
v  37.636097 5.053013 36.646290
v  37.734932 5.045336 36.619320
v  37.810123 5.035448 36.585857
v  37.865772 5.025320 36.543507
v  37.904617 5.015832 36.491253
v  37.927387 5.007713 36.430378
v  37.937557 5.002535 36.363163
v  37.934883 4.999896 36.292152
v  37.925400 5.002104 36.221176
v  37.909882 5.010979 36.151783
v  37.876442 5.025125 36.088795
v  37.804058 5.040721 36.037872
v  37.677010 5.046969 36.002064
v  37.506321 5.026506 35.984211
v  37.354382 5.004743 35.979656
v  37.245228 4.990746 35.984348
v  37.164322 4.980242 35.996391
v  37.102779 4.970904 36.019634
v  37.041359 4.911907 36.031990
v  36.990467 4.899104 36.086079
v  36.945198 4.881399 36.158497
v  36.917995 4.860559 36.240685
v  36.916698 4.839955 36.329361
v  36.925606 4.832001 36.426449
v  36.928818 4.838209 36.525291
v  36.932816 4.849438 36.604542
v  36.956848 4.866648 36.658100
v  37.021553 4.892468 36.689716
v  37.125683 4.925189 36.705673
v  37.252972 4.956698 36.709660
v  37.389729 4.978503 36.703033
v  37.532070 4.989307 36.686703
v  37.665890 4.987442 36.663757
v  37.774929 4.980903 36.638168
v  37.857460 4.972054 36.605591
v  37.916859 4.962302 36.561600
v  37.956642 4.952513 36.505070
v  37.978062 4.943421 36.438004
v  37.984398 4.936525 36.363865
v  37.980820 4.933674 36.286312
v  37.972237 4.936089 36.208057
v  37.957470 4.944160 36.131878
v  37.921398 4.956535 36.064831
v  37.841019 4.970046 36.015675
v  37.708317 4.977050 35.985317
v  37.534462 4.961422 35.970459
v  37.374512 4.943762 35.965714
v  37.253010 4.933164 35.967632
v  37.162289 4.926269 35.976563
v  37.094482 4.920670 35.996857
v  37.026096 4.863276 36.021530
v  36.970219 4.852845 36.077431
v  36.914013 4.837428 36.154232
v  36.872936 4.818455 36.239635
v  36.857891 4.798269 36.330006
v  36.861065 4.786886 36.430149
v  36.872093 4.790210 36.537056
v  36.889652 4.799513 36.619965
v  36.926285 4.812930 36.673038
v  36.996620 4.833512 36.704670
v  37.102112 4.861236 36.721901
v  37.237328 4.887962 36.728302
v  37.393101 4.906113 36.720882
v  37.550968 4.910854 36.701385
v  37.694324 4.908972 36.680252
v  37.814137 4.905322 36.659424
v  37.902786 4.899189 36.629414
v  37.962128 4.891199 36.583275
v  37.998627 4.882173 36.521240
v  38.016556 4.873391 36.447491
v  38.020676 4.866858 36.366726
v  38.017288 4.864237 36.282642
v  38.011570 4.866518 36.197643
v  38.001526 4.873523 36.114250
v  37.965824 4.882522 36.041878
v  37.878517 4.890316 35.992973
v  37.741962 4.894199 35.967850
v  37.570431 4.886890 35.960873
v  37.400242 4.875864 35.961658
v  37.263096 4.869115 35.964596
v  37.160675 4.867415 35.971161
v  37.084747 4.867464 35.988117
v  36.999111 4.804010 36.022797
v  36.937584 4.798299 36.083576
v  36.874432 4.786871 36.164303
v  36.824780 4.770543 36.251957
v  36.799938 4.751125 36.342236
v  36.798714 4.734146 36.440956
v  36.815025 4.730467 36.548386
v  36.847305 4.740870 36.632156
v  36.900738 4.754257 36.684536
v  36.984997 4.769708 36.716034
v  37.096275 4.789110 36.734966
v  37.235332 4.808531 36.742905
v  37.401329 4.820272 36.736656
v  37.564137 4.819976 36.719727
v  37.718037 4.819578 36.705032
v  37.853157 4.818802 36.690693
v  37.950954 4.815975 36.662682
v  38.007477 4.811124 36.611404
v  38.035431 4.804674 36.540615
v  38.047070 4.797913 36.458675
v  38.047920 4.792779 36.370766
v  38.045731 4.790956 36.280685
v  38.044388 4.793078 36.189682
v  38.040272 4.798004 36.098843
v  38.007828 4.800559 36.017590
v  37.915222 4.795468 35.959511
v  37.777050 4.787467 35.926186
v  37.607018 4.789457 35.930069
v  37.420219 4.792118 35.951347
v  37.263805 4.791698 35.963802
v  37.149597 4.795629 35.972584
v  37.064850 4.801822 35.988510
v  36.956070 4.724047 36.035255
v  36.890785 4.727235 36.101929
v  36.828957 4.721903 36.185940
v  36.781567 4.708544 36.273659
v  36.756779 4.691270 36.361629
v  36.756222 4.672591 36.456940
v  36.772495 4.665301 36.557426
v  36.807453 4.674367 36.637688
v  36.870369 4.688077 36.691128
v  36.968651 4.699922 36.724476
v  37.092281 4.710696 36.744843
v  37.236496 4.721991 36.753998
v  37.403500 4.724682 36.751984
v  37.569641 4.724547 36.742290
v  37.731514 4.724358 36.734264
v  37.879982 4.723822 36.724789
v  37.990265 4.722441 36.698112
v  38.043995 4.720952 36.639347
v  38.061844 4.718749 36.557941
v  38.066628 4.715763 36.467838
v  38.066200 4.713328 36.374500
v  38.066097 4.712649 36.280186
v  38.066624 4.713786 36.185097
v  38.064495 4.714363 36.088375
v  38.036644 4.707469 35.995079
v  37.936939 4.684766 35.920113
v  37.789883 4.658926 35.869209
v  37.611858 4.657176 35.876213
v  37.421047 4.675311 35.922203
v  37.252686 4.689979 35.954273
v  37.125206 4.703005 35.973576
v  37.030212 4.715077 35.994869
v  36.915894 4.623976 36.051044
v  36.849304 4.635800 36.124687
v  36.796543 4.638703 36.211655
v  36.763176 4.631796 36.297775
v  36.747097 4.619081 36.382320
v  36.746441 4.604585 36.473320
v  36.758286 4.599239 36.563499
v  36.784664 4.606699 36.637611
v  36.842918 4.618206 36.691486
v  36.946697 4.625980 36.727814
v  37.084858 4.628366 36.749233
v  37.237976 4.629591 36.758488
v  37.404034 4.628675 36.758987
v  37.570934 4.628831 36.755039
v  37.734959 4.628359 36.750519
v  37.886307 4.626875 36.741444
v  37.998840 4.626228 36.712296
v  38.053974 4.626268 36.650753
v  38.069920 4.626582 36.565578
v  38.073357 4.626795 36.472042
v  38.073406 4.626907 36.376396
v  38.073666 4.626939 36.280487
v  38.074165 4.626919 36.183884
v  38.071365 4.624184 36.084549
v  38.035042 4.611209 35.988651
v  37.921268 4.577800 35.906567
v  37.755669 4.541403 35.856228
v  37.578400 4.531947 35.860893
v  37.402557 4.546706 35.897442
v  37.238785 4.571421 35.937859
v  37.102051 4.592630 35.969589
v  36.996147 4.609668 36.001743
v  36.913601 4.523082 36.067993
v  36.852867 4.537602 36.143860
v  36.808578 4.548832 36.231190
v  36.779686 4.552804 36.316341
v  36.763294 4.548478 36.398800
v  36.758026 4.541120 36.483650
v  36.765976 4.538544 36.564705
v  36.786594 4.543001 36.633522
v  36.836365 4.549784 36.686436
v  36.939026 4.550761 36.723114
v  37.086166 4.544330 36.744061
v  37.243912 4.539724 36.751865
v  37.405972 4.538146 36.754280
v  37.569019 4.539893 36.752029
v  37.729877 4.540291 36.749142
v  37.878902 4.540101 36.740932
v  37.989803 4.540954 36.711594
v  38.043911 4.541679 36.649559
v  38.061165 4.541500 36.564941
v  38.064861 4.541388 36.471287
v  38.065903 4.541251 36.376080
v  38.066334 4.541121 36.281094
v  38.066265 4.540763 36.186169
v  38.061337 4.537286 36.090199
v  38.014969 4.522497 35.999924
v  37.885540 4.486459 35.923882
v  37.716450 4.450421 35.880852
v  37.548656 4.436398 35.879139
v  37.388336 4.447882 35.905571
v  37.239433 4.470602 35.938824
v  37.106541 4.492275 35.972874
v  36.994812 4.508713 36.012466
v  36.972404 4.452565 36.097248
v  36.919178 4.463000 36.166668
v  36.878727 4.473239 36.245235
v  36.842567 4.482026 36.325211
v  36.816422 4.485865 36.403206
v  36.801529 4.487032 36.480919
v  36.802952 4.487340 36.555115
v  36.821678 4.488425 36.619381
v  36.871956 4.487399 36.669743
v  36.977119 4.480787 36.701508
v  37.117596 4.473410 36.715836
v  37.263336 4.468934 36.722160
v  37.411209 4.470064 36.723152
v  37.558426 4.473864 36.721256
v  37.704174 4.476104 36.719425
v  37.839947 4.477509 36.712761
v  37.941624 4.478627 36.685963
v  37.992039 4.478733 36.628216
v  38.008438 4.477336 36.548679
v  38.013939 4.475043 36.461113
v  38.017185 4.473035 36.372017
v  38.018105 4.472243 36.283562
v  38.017555 4.471604 36.196499
v  38.009235 4.468042 36.110355
v  37.954327 4.454807 36.032784
v  37.827000 4.427128 35.974663
v  37.676144 4.397591 35.941223
v  37.528008 4.383647 35.936970
v  37.387028 4.389051 35.951881
v  37.256756 4.406329 35.974857
v  37.142548 4.426016 36.004261
v  37.047062 4.441499 36.043476
v  37.061790 4.415784 36.143822
v  37.019333 4.423307 36.200829
v  36.989880 4.428161 36.263657
v  36.964268 4.431991 36.327511
v  36.939518 4.436018 36.391975
v  36.920010 4.441847 36.458164
v  36.914436 4.444588 36.523346
v  36.929829 4.443909 36.580803
v  36.980515 4.440212 36.622406
v  37.072979 4.434711 36.644939
v  37.186344 4.430932 36.653324
v  37.304977 4.430634 36.655632
v  37.421955 4.434174 36.655945
v  37.537819 4.438898 36.655293
v  37.653378 4.442221 36.654343
v  37.761292 4.444276 36.648727
v  37.842052 4.444985 36.625916
v  37.883324 4.443940 36.577526
v  37.897736 4.441580 36.510956
v  37.904221 4.438445 36.438084
v  37.909340 4.435204 36.363583
v  37.912586 4.433023 36.289940
v  37.912304 4.431964 36.218632
v  37.898895 4.429745 36.151192
v  37.848160 4.420246 36.094044
v  37.751640 4.401103 36.053535
v  37.635437 4.379805 36.030956
v  37.517082 4.366372 36.025188
v  37.402172 4.366326 36.031784
v  37.295002 4.377442 36.045971
v  37.200432 4.392663 36.067352
v  37.122269 4.406049 36.099098
v  37.169979 4.401313 36.204216
v  37.140076 4.407064 36.244427
v  37.124786 4.409472 36.289864
v  37.116955 4.410401 36.336319
v  37.110626 4.411903 36.382236
v  37.104805 4.414204 36.428314
v  37.104031 4.414831 36.474255
v  37.110508 4.414503 36.517467
v  37.139744 4.413260 36.549206
v  37.202724 4.411248 36.563374
v  37.282295 4.410606 36.566856
v  37.362701 4.412432 36.567638
v  37.440033 4.416607 36.568211
v  37.517006 4.421469 36.568672
v  37.594700 4.425295 36.568230
v  37.667763 4.427741 36.563530
v  37.723038 4.428448 36.546314
v  37.752514 4.427123 36.511036
v  37.764713 4.424205 36.463043
v  37.771740 4.420370 36.410030
v  37.778324 4.416179 36.355587
v  37.783802 4.412869 36.301884
v  37.785240 4.411451 36.251209
v  37.774849 4.409707 36.205147
v  37.740177 4.404097 36.168327
v  37.677612 4.392902 36.143833
v  37.598682 4.379138 36.130962
v  37.514996 4.368814 36.127922
v  37.431740 4.366222 36.131695
v  37.351826 4.371710 36.139885
v  37.278736 4.381971 36.152897
v  37.216770 4.392676 36.173462
v  37.291096 4.394153 36.268887
v  37.273720 4.397655 36.292206
v  37.269520 4.398462 36.320042
v  37.271973 4.397888 36.349007
v  37.275768 4.397368 36.377350
v  37.279537 4.397191 36.404671
v  37.283958 4.396807 36.430592
v  37.288132 4.396813 36.454708
v  37.299934 4.397222 36.473305
v  37.334015 4.396768 36.480892
v  37.378315 4.397111 36.482235
v  37.422028 4.399237 36.482262
v  37.463581 4.402784 36.482002
v  37.504818 4.406913 36.482838
v  37.547535 4.410494 36.483036
v  37.588409 4.413087 36.480324
v  37.620232 4.413897 36.469784
v  37.638351 4.412512 36.448223
v  37.647305 4.409539 36.419083
v  37.653767 4.405846 36.387196
v  37.661011 4.402168 36.354443
v  37.667595 4.399437 36.321480
v  37.670303 4.398013 36.289898
v  37.665031 4.397130 36.262165
v  37.645782 4.394977 36.241703
v  37.610668 4.390384 36.230244
v  37.564915 4.384099 36.226261
v  37.515297 4.378413 36.227371
v  37.465244 4.375565 36.231289
v  37.415440 4.376704 36.236313
v  37.366875 4.381575 36.242626
v  37.323387 4.388245 36.252522
v  37.477180 4.393126 36.363602
# 482 vertices

vt 0.849666 0.152319 0.000000
vt 0.822441 0.143406 0.000000
vt 0.824973 0.140871 0.000000
vt 0.828386 0.138330 0.000000
vt 0.832338 0.135847 0.000000
vt 0.836541 0.133438 0.000000
vt 0.840947 0.131348 0.000000
vt 0.845566 0.130009 0.000000
vt 0.850169 0.129657 0.000000
vt 0.854480 0.130152 0.000000
vt 0.858487 0.131376 0.000000
vt 0.862262 0.133519 0.000000
vt 0.865800 0.136817 0.000000
vt 0.868973 0.141350 0.000000
vt 0.871495 0.146880 0.000000
vt 0.873090 0.152803 0.000000
vt 0.873753 0.158405 0.000000
vt 0.873625 0.163274 0.000000
vt 0.872723 0.167407 0.000000
vt 0.870964 0.171031 0.000000
vt 0.868158 0.174166 0.000000
vt 0.864490 0.176755 0.000000
vt 0.860339 0.178806 0.000000
vt 0.855850 0.180043 0.000000
vt 0.851215 0.180179 0.000000
vt 0.846497 0.178691 0.000000
vt 0.841362 0.175237 0.000000
vt 0.835761 0.170242 0.000000
vt 0.830289 0.164564 0.000000
vt 0.825672 0.158918 0.000000
vt 0.822456 0.153748 0.000000
vt 0.820992 0.149374 0.000000
vt 0.821077 0.146060 0.000000
vt 0.807259 0.138394 0.000000
vt 0.811408 0.134344 0.000000
vt 0.816754 0.130327 0.000000
vt 0.822868 0.126529 0.000000
vt 0.829336 0.122900 0.000000
vt 0.836120 0.119762 0.000000
vt 0.843313 0.117765 0.000000
vt 0.850451 0.117312 0.000000
vt 0.857026 0.118146 0.000000
vt 0.863184 0.120005 0.000000
vt 0.869113 0.123209 0.000000
vt 0.874744 0.128163 0.000000
vt 0.879791 0.135108 0.000000
vt 0.883722 0.143711 0.000000
vt 0.886107 0.152983 0.000000
vt 0.887013 0.161734 0.000000
vt 0.886647 0.169204 0.000000
vt 0.885031 0.175404 0.000000
vt 0.882203 0.180871 0.000000
vt 0.878070 0.185820 0.000000
vt 0.872673 0.190092 0.000000
vt 0.866321 0.193461 0.000000
vt 0.859307 0.195545 0.000000
vt 0.852008 0.195952 0.000000
vt 0.844624 0.194236 0.000000
vt 0.836422 0.189505 0.000000
vt 0.827169 0.181465 0.000000
vt 0.818173 0.171944 0.000000
vt 0.810800 0.162668 0.000000
vt 0.805898 0.154315 0.000000
vt 0.804004 0.147378 0.000000
vt 0.804681 0.142442 0.000000
vt 0.790044 0.131989 0.000000
vt 0.795910 0.126201 0.000000
vt 0.803770 0.120787 0.000000
vt 0.812500 0.115847 0.000000
vt 0.821549 0.111214 0.000000
vt 0.830921 0.107193 0.000000
vt 0.840823 0.104522 0.000000
vt 0.850421 0.103880 0.000000
vt 0.859024 0.105158 0.000000
vt 0.867325 0.108014 0.000000
vt 0.875558 0.112719 0.000000
vt 0.883348 0.119595 0.000000
vt 0.890281 0.129035 0.000000
vt 0.895638 0.140730 0.000000
vt 0.898874 0.153368 0.000000
vt 0.899948 0.165203 0.000000
vt 0.899000 0.174867 0.000000
vt 0.896625 0.182912 0.000000
vt 0.892883 0.190151 0.000000
vt 0.887518 0.196795 0.000000
vt 0.880427 0.202549 0.000000
vt 0.871922 0.206999 0.000000
vt 0.862460 0.209613 0.000000
vt 0.852602 0.210124 0.000000
vt 0.842589 0.208436 0.000000
vt 0.831372 0.203509 0.000000
vt 0.818123 0.193203 0.000000
vt 0.804837 0.179524 0.000000
vt 0.794287 0.166326 0.000000
vt 0.787828 0.154822 0.000000
vt 0.785560 0.145221 0.000000
vt 0.786615 0.138100 0.000000
vt 0.774088 0.124707 0.000000
vt 0.780200 0.116573 0.000000
vt 0.789455 0.109310 0.000000
vt 0.800872 0.103171 0.000000
vt 0.813119 0.097832 0.000000
vt 0.825524 0.093179 0.000000
vt 0.838174 0.089713 0.000000
vt 0.849986 0.088490 0.000000
vt 0.860252 0.089978 0.000000
vt 0.870705 0.094367 0.000000
vt 0.881434 0.101574 0.000000
vt 0.891434 0.111071 0.000000
vt 0.900193 0.123301 0.000000
vt 0.906884 0.138133 0.000000
vt 0.910864 0.154046 0.000000
vt 0.911654 0.168436 0.000000
vt 0.909996 0.179878 0.000000
vt 0.907053 0.189609 0.000000
vt 0.902617 0.198506 0.000000
vt 0.896199 0.206731 0.000000
vt 0.887586 0.213890 0.000000
vt 0.876947 0.219195 0.000000
vt 0.865109 0.222017 0.000000
vt 0.852892 0.222228 0.000000
vt 0.840626 0.220036 0.000000
vt 0.826992 0.214697 0.000000
vt 0.810555 0.203244 0.000000
vt 0.793372 0.186123 0.000000
vt 0.780066 0.169421 0.000000
vt 0.772738 0.155258 0.000000
vt 0.770382 0.143401 0.000000
vt 0.771037 0.133484 0.000000
vt 0.764596 0.119974 0.000000
vt 0.770119 0.109327 0.000000
vt 0.779054 0.099494 0.000000
vt 0.791090 0.091439 0.000000
vt 0.805502 0.085156 0.000000
vt 0.820874 0.079865 0.000000
vt 0.836102 0.075511 0.000000
vt 0.849762 0.073500 0.000000
vt 0.861244 0.074420 0.000000
vt 0.873484 0.079456 0.000000
vt 0.886745 0.089553 0.000000
vt 0.898873 0.102502 0.000000
vt 0.909291 0.117940 0.000000
vt 0.917156 0.135911 0.000000
vt 0.921514 0.154765 0.000000
vt 0.921653 0.171024 0.000000
vt 0.919700 0.184196 0.000000
vt 0.916487 0.195448 0.000000
vt 0.911584 0.205853 0.000000
vt 0.904168 0.215525 0.000000
vt 0.893941 0.223860 0.000000
vt 0.881125 0.229680 0.000000
vt 0.867087 0.232480 0.000000
vt 0.852789 0.232301 0.000000
vt 0.838704 0.229307 0.000000
vt 0.823446 0.222904 0.000000
vt 0.805479 0.210201 0.000000
vt 0.786420 0.190953 0.000000
vt 0.771323 0.171962 0.000000
vt 0.763070 0.155593 0.000000
vt 0.760623 0.141637 0.000000
vt 0.761547 0.130236 0.000000
vt 0.758141 0.116191 0.000000
vt 0.763871 0.104363 0.000000
vt 0.772818 0.092349 0.000000
vt 0.784615 0.082050 0.000000
vt 0.799290 0.074169 0.000000
vt 0.816446 0.068012 0.000000
vt 0.834261 0.063397 0.000000
vt 0.849666 0.061505 0.000000
vt 0.862440 0.062535 0.000000
vt 0.876072 0.067572 0.000000
vt 0.891288 0.078392 0.000000
vt 0.905591 0.094137 0.000000
vt 0.917563 0.112911 0.000000
vt 0.926384 0.133904 0.000000
vt 0.930793 0.155007 0.000000
vt 0.931055 0.173279 0.000000
vt 0.928978 0.188045 0.000000
vt 0.925542 0.200548 0.000000
vt 0.920033 0.212225 0.000000
vt 0.911343 0.223125 0.000000
vt 0.899260 0.232307 0.000000
vt 0.884622 0.238792 0.000000
vt 0.868623 0.241960 0.000000
vt 0.852354 0.241549 0.000000
vt 0.836607 0.237618 0.000000
vt 0.820076 0.229630 0.000000
vt 0.801465 0.215454 0.000000
vt 0.781755 0.195216 0.000000
vt 0.765784 0.174590 0.000000
vt 0.756692 0.156045 0.000000
vt 0.753994 0.140142 0.000000
vt 0.754983 0.127369 0.000000
vt 0.752576 0.112549 0.000000
vt 0.758535 0.099547 0.000000
vt 0.767761 0.085646 0.000000
vt 0.779568 0.073308 0.000000
vt 0.793941 0.063520 0.000000
vt 0.811595 0.056057 0.000000
vt 0.831625 0.051630 0.000000
vt 0.848896 0.051046 0.000000
vt 0.863282 0.053347 0.000000
vt 0.878546 0.058994 0.000000
vt 0.895356 0.069938 0.000000
vt 0.911624 0.086733 0.000000
vt 0.925350 0.108190 0.000000
vt 0.935237 0.131571 0.000000
vt 0.940374 0.154700 0.000000
vt 0.941168 0.175335 0.000000
vt 0.938942 0.191742 0.000000
vt 0.934994 0.205252 0.000000
vt 0.928409 0.218091 0.000000
vt 0.918090 0.230133 0.000000
vt 0.904224 0.240228 0.000000
vt 0.887816 0.247367 0.000000
vt 0.870015 0.251062 0.000000
vt 0.851780 0.250892 0.000000
vt 0.834162 0.246294 0.000000
vt 0.816027 0.236655 0.000000
vt 0.796763 0.220886 0.000000
vt 0.776558 0.200532 0.000000
vt 0.759662 0.178105 0.000000
vt 0.750953 0.156687 0.000000
vt 0.748564 0.138917 0.000000
vt 0.749408 0.124749 0.000000
vt 0.745614 0.107815 0.000000
vt 0.752051 0.093133 0.000000
vt 0.761863 0.077495 0.000000
vt 0.774226 0.063507 0.000000
vt 0.788852 0.052278 0.000000
vt 0.806854 0.043791 0.000000
vt 0.828112 0.039276 0.000000
vt 0.847184 0.040033 0.000000
vt 0.863605 0.043993 0.000000
vt 0.881026 0.051105 0.000000
vt 0.899713 0.062653 0.000000
vt 0.917842 0.080100 0.000000
vt 0.933597 0.103276 0.000000
vt 0.944680 0.128290 0.000000
vt 0.951330 0.153663 0.000000
vt 0.953283 0.177300 0.000000
vt 0.950962 0.195821 0.000000
vt 0.945984 0.210268 0.000000
vt 0.937415 0.224245 0.000000
vt 0.924866 0.237228 0.000000
vt 0.908973 0.247945 0.000000
vt 0.890930 0.255678 0.000000
vt 0.871550 0.260080 0.000000
vt 0.851395 0.260488 0.000000
vt 0.831522 0.255687 0.000000
vt 0.810702 0.244812 0.000000
vt 0.789640 0.227894 0.000000
vt 0.769833 0.206644 0.000000
vt 0.753289 0.181410 0.000000
vt 0.744192 0.157385 0.000000
vt 0.741224 0.137548 0.000000
vt 0.742171 0.121556 0.000000
vt 0.735952 0.101247 0.000000
vt 0.743431 0.084586 0.000000
vt 0.754630 0.067803 0.000000
vt 0.768382 0.053211 0.000000
vt 0.784215 0.041611 0.000000
vt 0.803233 0.032779 0.000000
vt 0.824856 0.027833 0.000000
vt 0.844970 0.028480 0.000000
vt 0.863556 0.033250 0.000000
vt 0.883586 0.041926 0.000000
vt 0.904712 0.054998 0.000000
vt 0.924837 0.073572 0.000000
vt 0.942429 0.097825 0.000000
vt 0.955216 0.124454 0.000000
vt 0.963135 0.152154 0.000000
vt 0.965818 0.178709 0.000000
vt 0.963465 0.199741 0.000000
vt 0.957105 0.215263 0.000000
vt 0.946041 0.230372 0.000000
vt 0.931145 0.244092 0.000000
vt 0.913533 0.255421 0.000000
vt 0.894068 0.263756 0.000000
vt 0.873234 0.268588 0.000000
vt 0.851389 0.269353 0.000000
vt 0.829120 0.264891 0.000000
vt 0.804526 0.253635 0.000000
vt 0.779770 0.235866 0.000000
vt 0.758948 0.213109 0.000000
vt 0.743700 0.185554 0.000000
vt 0.734482 0.158906 0.000000
vt 0.730957 0.136213 0.000000
vt 0.731977 0.117507 0.000000
vt 0.725274 0.094384 0.000000
vt 0.734053 0.075726 0.000000
vt 0.747119 0.058342 0.000000
vt 0.762775 0.044017 0.000000
vt 0.780314 0.032617 0.000000
vt 0.800635 0.023737 0.000000
vt 0.822574 0.018635 0.000000
vt 0.843269 0.017959 0.000000
vt 0.863482 0.021878 0.000000
vt 0.886161 0.031093 0.000000
vt 0.910147 0.046332 0.000000
vt 0.932252 0.066904 0.000000
vt 0.951283 0.092454 0.000000
vt 0.965362 0.120956 0.000000
vt 0.973684 0.150959 0.000000
vt 0.975739 0.179725 0.000000
vt 0.972277 0.202355 0.000000
vt 0.965141 0.219195 0.000000
vt 0.953083 0.235611 0.000000
vt 0.936876 0.250428 0.000000
vt 0.917939 0.262566 0.000000
vt 0.897102 0.271400 0.000000
vt 0.874858 0.276451 0.000000
vt 0.851483 0.277186 0.000000
vt 0.827103 0.273269 0.000000
vt 0.798538 0.262175 0.000000
vt 0.769888 0.243098 0.000000
vt 0.747566 0.218615 0.000000
vt 0.731993 0.190233 0.000000
vt 0.722905 0.161373 0.000000
vt 0.719418 0.135382 0.000000
vt 0.720560 0.113353 0.000000
vt 0.716158 0.088835 0.000000
vt 0.725877 0.068759 0.000000
vt 0.739945 0.050085 0.000000
vt 0.756835 0.034667 0.000000
vt 0.775982 0.022730 0.000000
vt 0.797783 0.014300 0.000000
vt 0.820659 0.009919 0.000000
vt 0.842323 0.009081 0.000000
vt 0.863743 0.011813 0.000000
vt 0.888644 0.020631 0.000000
vt 0.915570 0.037327 0.000000
vt 0.939991 0.059655 0.000000
vt 0.960568 0.086874 0.000000
vt 0.975709 0.117579 0.000000
vt 0.984331 0.150074 0.000000
vt 0.985973 0.181177 0.000000
vt 0.981918 0.205601 0.000000
vt 0.974221 0.223976 0.000000
vt 0.961342 0.241859 0.000000
vt 0.943966 0.258227 0.000000
vt 0.923564 0.271591 0.000000
vt 0.901077 0.281412 0.000000
vt 0.877032 0.287289 0.000000
vt 0.851679 0.288888 0.000000
vt 0.824426 0.285809 0.000000
vt 0.790976 0.274400 0.000000
vt 0.758934 0.252950 0.000000
vt 0.735625 0.225162 0.000000
vt 0.720757 0.194166 0.000000
vt 0.712809 0.163152 0.000000
vt 0.709746 0.134748 0.000000
vt 0.710941 0.109930 0.000000
vt 0.302773 0.747478 0.000000
vt 0.320221 0.761146 0.000000
vt 0.307587 0.781213 0.000000
vt 0.287714 0.770839 0.000000
vt 0.297907 0.803951 0.000000
vt 0.276549 0.797805 0.000000
vt 0.291266 0.827698 0.000000
vt 0.270512 0.825310 0.000000
vt 0.288456 0.851496 0.000000
vt 0.269214 0.852341 0.000000
vt 0.289754 0.875315 0.000000
vt 0.272397 0.879315 0.000000
vt 0.295417 0.897665 0.000000
vt 0.279749 0.904504 0.000000
vt 0.304819 0.916573 0.000000
vt 0.290447 0.925845 0.000000
vt 0.317570 0.931905 0.000000
vt 0.304378 0.943386 0.000000
vt 0.336775 0.945493 0.000000
vt 0.324703 0.959852 0.000000
vt 0.362236 0.956146 0.000000
vt 0.352932 0.973886 0.000000
vt 0.389863 0.962527 0.000000
vt 0.384726 0.982332 0.000000
vt 0.418441 0.964380 0.000000
vt 0.418085 0.985175 0.000000
vt 0.446850 0.962061 0.000000
vt 0.451495 0.982503 0.000000
vt 0.474303 0.955651 0.000000
vt 0.483579 0.974565 0.000000
vt 0.498760 0.945154 0.000000
vt 0.511903 0.961749 0.000000
vt 0.516904 0.931867 0.000000
vt 0.532850 0.945994 0.000000
vt 0.529914 0.915437 0.000000
vt 0.547941 0.927015 0.000000
vt 0.539746 0.893707 0.000000
vt 0.559609 0.902193 0.000000
vt 0.545736 0.868892 0.000000
vt 0.566728 0.873610 0.000000
vt 0.547822 0.843049 0.000000
vt 0.569047 0.843818 0.000000
vt 0.546005 0.817256 0.000000
vt 0.566763 0.814095 0.000000
vt 0.540207 0.792259 0.000000
vt 0.559844 0.785162 0.000000
vt 0.529888 0.768783 0.000000
vt 0.547946 0.757537 0.000000
vt 0.513929 0.748514 0.000000
vt 0.530335 0.732701 0.000000
vt 0.489893 0.730999 0.000000
vt 0.503110 0.710029 0.000000
vt 0.461808 0.718874 0.000000
vt 0.469596 0.694922 0.000000
vt 0.433182 0.713484 0.000000
vt 0.435471 0.689458 0.000000
vt 0.404680 0.714023 0.000000
vt 0.401725 0.692236 0.000000
vt 0.377922 0.720025 0.000000
vt 0.370575 0.700885 0.000000
vt 0.354778 0.730617 0.000000
vt 0.343407 0.713307 0.000000
vt 0.335785 0.744515 0.000000
vt 0.320771 0.728777 0.000000
vt 0.341246 0.777807 0.000000
vt 0.331373 0.793847 0.000000
vt 0.324129 0.811695 0.000000
vt 0.319331 0.830317 0.000000
vt 0.316675 0.849300 0.000000
vt 0.316705 0.868584 0.000000
vt 0.320232 0.886952 0.000000
vt 0.327625 0.902404 0.000000
vt 0.338737 0.914158 0.000000
vt 0.354839 0.924274 0.000000
vt 0.374983 0.932018 0.000000
vt 0.396914 0.936374 0.000000
vt 0.419050 0.937594 0.000000
vt 0.440954 0.935816 0.000000
vt 0.462178 0.930866 0.000000
vt 0.481013 0.922701 0.000000
vt 0.494868 0.912332 0.000000
vt 0.504964 0.899348 0.000000
vt 0.512624 0.882118 0.000000
vt 0.517407 0.862576 0.000000
vt 0.519356 0.842139 0.000000
vt 0.518369 0.821687 0.000000
vt 0.513951 0.802017 0.000000
vt 0.505383 0.784263 0.000000
vt 0.492516 0.769328 0.000000
vt 0.474527 0.756460 0.000000
vt 0.453172 0.747430 0.000000
vt 0.430901 0.742627 0.000000
vt 0.408563 0.741993 0.000000
vt 0.387371 0.745764 0.000000
vt 0.368819 0.753506 0.000000
vt 0.353603 0.764376 0.000000
vt 0.364487 0.796739 0.000000
vt 0.357650 0.807838 0.000000
vt 0.353276 0.820456 0.000000
vt 0.351231 0.833611 0.000000
vt 0.350839 0.846667 0.000000
vt 0.351816 0.859578 0.000000
vt 0.354448 0.871998 0.000000
vt 0.358967 0.883170 0.000000
vt 0.365758 0.891630 0.000000
vt 0.376424 0.898450 0.000000
vt 0.390336 0.903491 0.000000
vt 0.405142 0.906440 0.000000
vt 0.419898 0.907451 0.000000
vt 0.434579 0.906406 0.000000
vt 0.448830 0.903033 0.000000
vt 0.461364 0.897371 0.000000
vt 0.470586 0.890219 0.000000
vt 0.477505 0.881195 0.000000
vt 0.482915 0.869319 0.000000
vt 0.486488 0.855787 0.000000
vt 0.488357 0.841523 0.000000
vt 0.488292 0.827073 0.000000
vt 0.485542 0.813247 0.000000
vt 0.479587 0.801084 0.000000
vt 0.470836 0.791176 0.000000
vt 0.458933 0.782911 0.000000
vt 0.444373 0.777134 0.000000
vt 0.428852 0.774080 0.000000
vt 0.413263 0.773599 0.000000
vt 0.398313 0.775812 0.000000
vt 0.384848 0.780608 0.000000
vt 0.373525 0.787652 0.000000
vt 0.388763 0.816453 0.000000
vt 0.385082 0.822524 0.000000
vt 0.383306 0.829778 0.000000
vt 0.383098 0.837331 0.000000
vt 0.383765 0.844611 0.000000
vt 0.384960 0.851559 0.000000
vt 0.386650 0.858137 0.000000
vt 0.388873 0.864239 0.000000
vt 0.391891 0.869121 0.000000
vt 0.397415 0.872896 0.000000
vt 0.404969 0.875679 0.000000
vt 0.412913 0.877402 0.000000
vt 0.420833 0.878103 0.000000
vt 0.428770 0.877876 0.000000
vt 0.436653 0.876344 0.000000
vt 0.443654 0.873446 0.000000
vt 0.448864 0.869530 0.000000
vt 0.452792 0.864312 0.000000
vt 0.455879 0.857467 0.000000
vt 0.458146 0.849768 0.000000
vt 0.459792 0.841591 0.000000
vt 0.460420 0.833033 0.000000
vt 0.459281 0.824614 0.000000
vt 0.456055 0.817274 0.000000
vt 0.451076 0.811651 0.000000
vt 0.444163 0.807489 0.000000
vt 0.435561 0.805067 0.000000
vt 0.426502 0.804316 0.000000
vt 0.417698 0.804798 0.000000
vt 0.409298 0.806218 0.000000
vt 0.401358 0.808492 0.000000
vt 0.394289 0.811819 0.000000
vt 0.421870 0.842475 0.000000
# 514 texture coords

o Group22992
g Group22992
f 1/1 2/2 3/3 
f 1/1 3/3 4/4 
f 1/1 4/4 5/5 
f 1/1 5/5 6/6 
f 1/1 6/6 7/7 
f 1/1 7/7 8/8 
f 1/1 8/8 9/9 
f 1/1 9/9 10/10 
f 1/1 10/10 11/11 
f 1/1 11/11 12/12 
f 1/1 12/12 13/13 
f 1/1 13/13 14/14 
f 1/1 14/14 15/15 
f 1/1 15/15 16/16 
f 1/1 16/16 17/17 
f 1/1 17/17 18/18 
f 1/1 18/18 19/19 
f 1/1 19/19 20/20 
f 1/1 20/20 21/21 
f 1/1 21/21 22/22 
f 1/1 22/22 23/23 
f 1/1 23/23 24/24 
f 1/1 24/24 25/25 
f 1/1 25/25 26/26 
f 1/1 26/26 27/27 
f 1/1 27/27 28/28 
f 1/1 28/28 29/29 
f 1/1 29/29 30/30 
f 1/1 30/30 31/31 
f 1/1 31/31 32/32 
f 1/1 32/32 33/33 
f 1/1 33/33 2/2 
f 2/2 34/34 35/35 3/3 
f 3/3 35/35 36/36 4/4 
f 4/4 36/36 37/37 5/5 
f 5/5 37/37 38/38 6/6 
f 38/38 39/39 7/7 6/6 
f 39/39 40/40 8/8 7/7 
f 40/40 41/41 9/9 8/8 
f 9/9 41/41 42/42 10/10 
f 10/10 42/42 43/43 11/11 
f 11/11 43/43 44/44 12/12 
f 12/12 44/44 45/45 13/13 
f 13/13 45/45 46/46 14/14 
f 14/14 46/46 47/47 15/15 
f 47/47 48/48 16/16 15/15 
f 48/48 49/49 17/17 16/16 
f 49/49 50/50 18/18 17/17 
f 50/50 51/51 19/19 18/18 
f 51/51 52/52 20/20 19/19 
f 52/52 53/53 21/21 20/20 
f 53/53 54/54 22/22 21/21 
f 54/54 55/55 23/23 22/22 
f 55/55 56/56 24/24 23/23 
f 56/56 57/57 25/25 24/24 
f 25/25 57/57 58/58 26/26 
f 26/26 58/58 59/59 27/27 
f 27/27 59/59 60/60 28/28 
f 28/28 60/60 61/61 29/29 
f 61/61 62/62 30/30 29/29 
f 62/62 63/63 31/31 30/30 
f 63/63 64/64 32/32 31/31 
f 64/64 65/65 33/33 32/32 
f 33/33 65/65 34/34 2/2 
f 34/34 66/66 67/67 35/35 
f 35/35 67/67 68/68 36/36 
f 36/36 68/68 69/69 37/37 
f 37/37 69/69 70/70 38/38 
f 70/70 71/71 39/39 38/38 
f 71/71 72/72 40/40 39/39 
f 72/72 73/73 41/41 40/40 
f 41/41 73/73 74/74 42/42 
f 42/42 74/74 75/75 43/43 
f 43/43 75/75 76/76 44/44 
f 44/44 76/76 77/77 45/45 
f 45/45 77/77 78/78 46/46 
f 46/46 78/78 79/79 47/47 
f 79/79 80/80 48/48 47/47 
f 80/80 81/81 49/49 48/48 
f 81/81 82/82 50/50 49/49 
f 82/82 83/83 51/51 50/50 
f 83/83 84/84 52/52 51/51 
f 84/84 85/85 53/53 52/52 
f 85/85 86/86 54/54 53/53 
f 86/86 87/87 55/55 54/54 
f 87/87 88/88 56/56 55/55 
f 88/88 89/89 57/57 56/56 
f 57/57 89/89 90/90 58/58 
f 58/58 90/90 91/91 59/59 
f 59/59 91/91 92/92 60/60 
f 60/60 92/92 93/93 61/61 
f 93/93 94/94 62/62 61/61 
f 94/94 95/95 63/63 62/62 
f 95/95 96/96 64/64 63/63 
f 96/96 97/97 65/65 64/64 
f 65/65 97/97 66/66 34/34 
f 66/66 98/98 99/99 67/67 
f 67/67 99/99 100/100 68/68 
f 68/68 100/100 101/101 69/69 
f 69/69 101/101 102/102 70/70 
f 70/70 102/102 103/103 71/71 
f 103/103 104/104 72/72 71/71 
f 72/72 104/104 105/105 73/73 
f 73/73 105/105 106/106 74/74 
f 74/74 106/106 107/107 75/75 
f 75/75 107/107 108/108 76/76 
f 76/76 108/108 109/109 77/77 
f 77/77 109/109 110/110 78/78 
f 78/78 110/110 111/111 79/79 
f 111/111 112/112 80/80 79/79 
f 112/112 113/113 81/81 80/80 
f 113/113 114/114 82/82 81/81 
f 114/114 115/115 83/83 82/82 
f 115/115 116/116 84/84 83/83 
f 116/116 117/117 85/85 84/84 
f 117/117 118/118 86/86 85/85 
f 118/118 119/119 87/87 86/86 
f 119/119 120/120 88/88 87/87 
f 120/120 121/121 89/89 88/88 
f 89/89 121/121 122/122 90/90 
f 90/90 122/122 123/123 91/91 
f 91/91 123/123 124/124 92/92 
f 92/92 124/124 125/125 93/93 
f 125/125 126/126 94/94 93/93 
f 126/126 127/127 95/95 94/94 
f 127/127 128/128 96/96 95/95 
f 128/128 129/129 97/97 96/96 
f 129/129 98/98 66/66 97/97 
f 98/98 130/130 131/131 99/99 
f 99/99 131/131 132/132 100/100 
f 100/100 132/132 133/133 101/101 
f 101/101 133/133 134/134 102/102 
f 102/102 134/134 135/135 103/103 
f 135/135 136/136 104/104 103/103 
f 136/136 137/137 105/105 104/104 
f 105/105 137/137 138/138 106/106 
f 106/106 138/138 139/139 107/107 
f 107/107 139/139 140/140 108/108 
f 108/108 140/140 141/141 109/109 
f 109/109 141/141 142/142 110/110 
f 110/110 142/142 143/143 111/111 
f 143/143 144/144 112/112 111/111 
f 144/144 145/145 113/113 112/112 
f 145/145 146/146 114/114 113/113 
f 146/146 147/147 115/115 114/114 
f 147/147 148/148 116/116 115/115 
f 148/148 149/149 117/117 116/116 
f 149/149 150/150 118/118 117/117 
f 150/150 151/151 119/119 118/118 
f 151/151 152/152 120/120 119/119 
f 152/152 153/153 121/121 120/120 
f 121/121 153/153 154/154 122/122 
f 122/122 154/154 155/155 123/123 
f 123/123 155/155 156/156 124/124 
f 124/124 156/156 157/157 125/125 
f 125/125 157/157 158/158 126/126 
f 158/158 159/159 127/127 126/126 
f 159/159 160/160 128/128 127/127 
f 160/160 161/161 129/129 128/128 
f 129/129 161/161 130/130 98/98 
f 162/162 163/163 131/131 130/130 
f 163/163 164/164 132/132 131/131 
f 164/164 165/165 133/133 132/132 
f 133/133 165/165 166/166 134/134 
f 134/134 166/166 167/167 135/135 
f 167/167 168/168 136/136 135/135 
f 168/168 169/169 137/137 136/136 
f 137/137 169/169 170/170 138/138 
f 138/138 170/170 171/171 139/139 
f 139/139 171/171 172/172 140/140 
f 140/140 172/172 173/173 141/141 
f 141/141 173/173 174/174 142/142 
f 142/142 174/174 175/175 143/143 
f 175/175 176/176 144/144 143/143 
f 176/176 177/177 145/145 144/144 
f 177/177 178/178 146/146 145/145 
f 178/178 179/179 147/147 146/146 
f 179/179 180/180 148/148 147/147 
f 180/180 181/181 149/149 148/148 
f 181/181 182/182 150/150 149/149 
f 182/182 183/183 151/151 150/150 
f 183/183 184/184 152/152 151/151 
f 152/152 184/184 185/185 153/153 
f 153/153 185/185 186/186 154/154 
f 154/154 186/186 187/187 155/155 
f 155/155 187/187 188/188 156/156 
f 156/156 188/188 189/189 157/157 
f 157/157 189/189 190/190 158/158 
f 158/158 190/190 191/191 159/159 
f 191/191 192/192 160/160 159/159 
f 192/192 193/193 161/161 160/160 
f 193/193 162/162 130/130 161/161 
f 194/194 195/195 163/163 162/162 
f 195/195 196/196 164/164 163/163 
f 196/196 197/197 165/165 164/164 
f 197/197 198/198 166/166 165/165 
f 198/198 199/199 167/167 166/166 
f 199/199 200/200 168/168 167/167 
f 200/200 201/201 169/169 168/168 
f 169/169 201/201 202/202 170/170 
f 170/170 202/202 203/203 171/171 
f 171/171 203/203 204/204 172/172 
f 172/172 204/204 205/205 173/173 
f 173/173 205/205 206/206 174/174 
f 206/206 207/207 175/175 174/174 
f 207/207 208/208 176/176 175/175 
f 208/208 209/209 177/177 176/176 
f 209/209 210/210 178/178 177/177 
f 210/210 211/211 179/179 178/178 
f 211/211 212/212 180/180 179/179 
f 212/212 213/213 181/181 180/180 
f 213/213 214/214 182/182 181/181 
f 214/214 215/215 183/183 182/182 
f 215/215 216/216 184/184 183/183 
f 216/216 217/217 185/185 184/184 
f 185/185 217/217 218/218 186/186 
f 186/186 218/218 219/219 187/187 
f 187/187 219/219 220/220 188/188 
f 188/188 220/220 221/221 189/189 
f 189/189 221/221 222/222 190/190 
f 190/190 222/222 223/223 191/191 
f 191/191 223/223 224/224 192/192 
f 224/224 225/225 193/193 192/192 
f 225/225 194/194 162/162 193/193 
f 226/226 227/227 195/195 194/194 
f 227/227 228/228 196/196 195/195 
f 228/228 229/229 197/197 196/196 
f 229/229 230/230 198/198 197/197 
f 230/230 231/231 199/199 198/198 
f 231/231 232/232 200/200 199/199 
f 200/200 232/232 233/233 201/201 
f 201/201 233/233 234/234 202/202 
f 202/202 234/234 235/235 203/203 
f 203/203 235/235 236/236 204/204 
f 204/204 236/236 237/237 205/205 
f 205/205 237/237 238/238 206/206 
f 238/238 239/239 207/207 206/206 
f 239/239 240/240 208/208 207/207 
f 240/240 241/241 209/209 208/208 
f 241/241 242/242 210/210 209/209 
f 242/242 243/243 211/211 210/210 
f 243/243 244/244 212/212 211/211 
f 212/212 244/244 245/245 213/213 
f 213/213 245/245 246/246 214/214 
f 246/246 247/247 215/215 214/214 
f 247/247 248/248 216/216 215/215 
f 248/248 249/249 217/217 216/216 
f 217/217 249/249 250/250 218/218 
f 218/218 250/250 251/251 219/219 
f 219/219 251/251 252/252 220/220 
f 220/220 252/252 253/253 221/221 
f 221/221 253/253 254/254 222/222 
f 222/222 254/254 255/255 223/223 
f 255/255 256/256 224/224 223/223 
f 256/256 257/257 225/225 224/224 
f 257/257 226/226 194/194 225/225 
f 258/258 259/259 227/227 226/226 
f 259/259 260/260 228/228 227/227 
f 260/260 261/261 229/229 228/228 
f 261/261 262/262 230/230 229/229 
f 262/262 263/263 231/231 230/230 
f 263/263 264/264 232/232 231/231 
f 232/232 264/264 265/265 233/233 
f 233/233 265/265 266/266 234/234 
f 234/234 266/266 267/267 235/235 
f 235/235 267/267 268/268 236/236 
f 236/236 268/268 269/269 237/237 
f 237/237 269/269 270/270 238/238 
f 270/270 271/271 239/239 238/238 
f 271/271 272/272 240/240 239/239 
f 272/272 273/273 241/241 240/240 
f 273/273 274/274 242/242 241/241 
f 274/274 275/275 243/243 242/242 
f 243/243 275/275 276/276 244/244 
f 244/244 276/276 277/277 245/245 
f 245/245 277/277 278/278 246/246 
f 246/246 278/278 279/279 247/247 
f 279/279 280/280 248/248 247/247 
f 280/280 281/281 249/249 248/248 
f 281/281 282/282 250/250 249/249 
f 282/282 283/283 251/251 250/250 
f 283/283 284/284 252/252 251/251 
f 252/252 284/284 285/285 253/253 
f 253/253 285/285 286/286 254/254 
f 254/254 286/286 287/287 255/255 
f 287/287 288/288 256/256 255/255 
f 288/288 289/289 257/257 256/256 
f 289/289 258/258 226/226 257/257 
f 290/290 291/291 259/259 258/258 
f 291/291 292/292 260/260 259/259 
f 292/292 293/293 261/261 260/260 
f 293/293 294/294 262/262 261/261 
f 294/294 295/295 263/263 262/262 
f 295/295 296/296 264/264 263/263 
f 264/264 296/296 297/297 265/265 
f 265/265 297/297 298/298 266/266 
f 266/266 298/298 299/299 267/267 
f 267/267 299/299 300/300 268/268 
f 268/268 300/300 301/301 269/269 
f 301/301 302/302 270/270 269/269 
f 302/302 303/303 271/271 270/270 
f 303/303 304/304 272/272 271/271 
f 304/304 305/305 273/273 272/272 
f 305/305 306/306 274/274 273/273 
f 274/274 306/306 307/307 275/275 
f 275/275 307/307 308/308 276/276 
f 276/276 308/308 309/309 277/277 
f 277/277 309/309 310/310 278/278 
f 278/278 310/310 311/311 279/279 
f 311/311 312/312 280/280 279/279 
f 312/312 313/313 281/281 280/280 
f 313/313 314/314 282/282 281/281 
f 314/314 315/315 283/283 282/282 
f 315/315 316/316 284/284 283/283 
f 316/316 317/317 285/285 284/284 
f 317/317 318/318 286/286 285/285 
f 286/286 318/318 319/319 287/287 
f 319/319 320/320 288/288 287/287 
f 320/320 321/321 289/289 288/288 
f 321/321 290/290 258/258 289/289 
f 322/322 323/323 291/291 290/290 
f 323/323 324/324 292/292 291/291 
f 324/324 325/325 293/293 292/292 
f 325/325 326/326 294/294 293/293 
f 326/326 327/327 295/295 294/294 
f 327/327 328/328 296/296 295/295 
f 296/296 328/328 329/329 297/297 
f 297/297 329/329 330/330 298/298 
f 298/298 330/330 331/331 299/299 
f 299/299 331/331 332/332 300/300 
f 332/332 333/333 301/301 300/300 
f 333/333 334/334 302/302 301/301 
f 334/334 335/335 303/303 302/302 
f 303/303 335/335 336/336 304/304 
f 304/304 336/336 337/337 305/305 
f 305/305 337/337 338/338 306/306 
f 306/306 338/338 339/339 307/307 
f 307/307 339/339 340/340 308/308 
f 340/340 341/341 309/309 308/308 
f 341/341 342/342 310/310 309/309 
f 342/342 343/343 311/311 310/310 
f 311/311 343/343 344/344 312/312 
f 312/312 344/344 345/345 313/313 
f 345/345 346/346 314/314 313/313 
f 346/346 347/347 315/315 314/314 
f 347/347 348/348 316/316 315/315 
f 348/348 349/349 317/317 316/316 
f 349/349 350/350 318/318 317/317 
f 318/318 350/350 351/351 319/319 
f 319/319 351/351 352/352 320/320 
f 320/320 352/352 353/353 321/321 
f 321/321 353/353 322/322 290/290 
f 322/354 354/355 355/356 323/357 
f 323/357 355/356 356/358 324/359 
f 324/359 356/358 357/360 325/361 
f 325/361 357/360 358/362 326/363 
f 326/363 358/362 359/364 327/365 
f 327/365 359/364 360/366 328/367 
f 328/367 360/366 361/368 329/369 
f 361/368 362/370 330/371 329/369 
f 362/370 363/372 331/373 330/371 
f 363/372 364/374 332/375 331/373 
f 364/374 365/376 333/377 332/375 
f 365/376 366/378 334/379 333/377 
f 334/379 366/378 367/380 335/381 
f 335/381 367/380 368/382 336/383 
f 336/383 368/382 369/384 337/385 
f 337/385 369/384 370/386 338/387 
f 338/387 370/386 371/388 339/389 
f 371/388 372/390 340/391 339/389 
f 372/390 373/392 341/393 340/391 
f 373/392 374/394 342/395 341/393 
f 374/394 375/396 343/397 342/395 
f 343/397 375/396 376/398 344/399 
f 344/399 376/398 377/400 345/401 
f 377/400 378/402 346/403 345/401 
f 378/402 379/404 347/405 346/403 
f 379/404 380/406 348/407 347/405 
f 380/406 381/408 349/409 348/407 
f 381/408 382/410 350/411 349/409 
f 350/411 382/410 383/412 351/413 
f 351/413 383/412 384/414 352/415 
f 352/415 384/414 385/416 353/417 
f 353/417 385/416 354/355 322/354 
f 354/355 386/418 387/419 355/356 
f 355/356 387/419 388/420 356/358 
f 356/358 388/420 389/421 357/360 
f 357/360 389/421 390/422 358/362 
f 358/362 390/422 391/423 359/364 
f 359/364 391/423 392/424 360/366 
f 360/366 392/424 393/425 361/368 
f 393/425 394/426 362/370 361/368 
f 394/426 395/427 363/372 362/370 
f 395/427 396/428 364/374 363/372 
f 396/428 397/429 365/376 364/374 
f 397/429 398/430 366/378 365/376 
f 366/378 398/430 399/431 367/380 
f 367/380 399/431 400/432 368/382 
f 368/382 400/432 401/433 369/384 
f 369/384 401/433 402/434 370/386 
f 370/386 402/434 403/435 371/388 
f 403/435 404/436 372/390 371/388 
f 404/436 405/437 373/392 372/390 
f 405/437 406/438 374/394 373/392 
f 374/394 406/438 407/439 375/396 
f 375/396 407/439 408/440 376/398 
f 376/398 408/440 409/441 377/400 
f 409/441 410/442 378/402 377/400 
f 410/442 411/443 379/404 378/402 
f 411/443 412/444 380/406 379/404 
f 412/444 413/445 381/408 380/406 
f 413/445 414/446 382/410 381/408 
f 382/410 414/446 415/447 383/412 
f 383/412 415/447 416/448 384/414 
f 384/414 416/448 417/449 385/416 
f 385/416 417/449 386/418 354/355 
f 386/418 418/450 419/451 387/419 
f 387/419 419/451 420/452 388/420 
f 388/420 420/452 421/453 389/421 
f 389/421 421/453 422/454 390/422 
f 390/422 422/454 423/455 391/423 
f 391/423 423/455 424/456 392/424 
f 392/424 424/456 425/457 393/425 
f 425/457 426/458 394/426 393/425 
f 426/458 427/459 395/427 394/426 
f 427/459 428/460 396/428 395/427 
f 428/460 429/461 397/429 396/428 
f 429/461 430/462 398/430 397/429 
f 398/430 430/462 431/463 399/431 
f 399/431 431/463 432/464 400/432 
f 400/432 432/464 433/465 401/433 
f 401/433 433/465 434/466 402/434 
f 402/434 434/466 435/467 403/435 
f 435/467 436/468 404/436 403/435 
f 436/468 437/469 405/437 404/436 
f 437/469 438/470 406/438 405/437 
f 406/438 438/470 439/471 407/439 
f 407/439 439/471 440/472 408/440 
f 408/440 440/472 441/473 409/441 
f 441/473 442/474 410/442 409/441 
f 442/474 443/475 411/443 410/442 
f 443/475 444/476 412/444 411/443 
f 444/476 445/477 413/445 412/444 
f 413/445 445/477 446/478 414/446 
f 414/446 446/478 447/479 415/447 
f 415/447 447/479 448/480 416/448 
f 416/448 448/480 449/481 417/449 
f 417/449 449/481 418/450 386/418 
f 418/450 450/482 451/483 419/451 
f 451/483 452/484 420/452 419/451 
f 452/484 453/485 421/453 420/452 
f 453/485 454/486 422/454 421/453 
f 422/454 454/486 455/487 423/455 
f 423/455 455/487 456/488 424/456 
f 424/456 456/488 457/489 425/457 
f 457/489 458/490 426/458 425/457 
f 458/490 459/491 427/459 426/458 
f 459/491 460/492 428/460 427/459 
f 460/492 461/493 429/461 428/460 
f 461/493 462/494 430/462 429/461 
f 462/494 463/495 431/463 430/462 
f 431/463 463/495 464/496 432/464 
f 432/464 464/496 465/497 433/465 
f 433/465 465/497 466/498 434/466 
f 434/466 466/498 467/499 435/467 
f 467/499 468/500 436/468 435/467 
f 468/500 469/501 437/469 436/468 
f 437/469 469/501 470/502 438/470 
f 438/470 470/502 471/503 439/471 
f 439/471 471/503 472/504 440/472 
f 440/472 472/504 473/505 441/473 
f 473/505 474/506 442/474 441/473 
f 474/506 475/507 443/475 442/474 
f 475/507 476/508 444/476 443/475 
f 476/508 477/509 445/477 444/476 
f 445/477 477/509 478/510 446/478 
f 446/478 478/510 479/511 447/479 
f 447/479 479/511 480/512 448/480 
f 448/480 480/512 481/513 449/481 
f 449/481 481/513 450/482 418/450 
f 450/482 482/514 451/483 
f 451/483 482/514 452/484 
f 452/484 482/514 453/485 
f 453/485 482/514 454/486 
f 454/486 482/514 455/487 
f 455/487 482/514 456/488 
f 456/488 482/514 457/489 
f 457/489 482/514 458/490 
f 458/490 482/514 459/491 
f 459/491 482/514 460/492 
f 460/492 482/514 461/493 
f 461/493 482/514 462/494 
f 462/494 482/514 463/495 
f 463/495 482/514 464/496 
f 464/496 482/514 465/497 
f 465/497 482/514 466/498 
f 466/498 482/514 467/499 
f 467/499 482/514 468/500 
f 468/500 482/514 469/501 
f 469/501 482/514 470/502 
f 470/502 482/514 471/503 
f 471/503 482/514 472/504 
f 472/504 482/514 473/505 
f 473/505 482/514 474/506 
f 474/506 482/514 475/507 
f 475/507 482/514 476/508 
f 476/508 482/514 477/509 
f 477/509 482/514 478/510 
f 478/510 482/514 479/511 
f 479/511 482/514 480/512 
f 480/512 482/514 481/513 
f 481/513 482/514 450/482 
# 448 polygons - 64 triangles

