# 3ds Max Wavefront OBJ Exporter v0.97b - (c)2007 guruware
# File Created: 03.08.2021 16:03:39

#
# object Line001
#

v  36.043407 14.147931 46.318089
v  36.002346 14.240511 46.283867
v  35.919868 14.240511 46.215855
v  35.878456 14.147931 46.182064
v  35.919518 14.055351 46.216282
v  36.001995 14.055351 46.284294
v  36.363415 14.146428 45.930027
v  36.322926 14.239005 45.895107
v  36.241592 14.239000 45.825706
v  36.200748 14.146417 45.791225
v  36.241238 14.053840 45.826141
v  36.322571 14.053844 45.895542
v  36.672447 14.145000 45.579964
v  36.634022 14.237568 45.542709
v  36.556801 14.237543 45.468651
v  36.518005 14.144951 45.431847
v  36.556431 14.052383 45.469101
v  36.633652 14.052407 45.543159
v  36.959450 14.143723 45.304424
v  36.926105 14.236267 45.262291
v  36.859013 14.236198 45.178513
v  36.825264 14.143583 45.136864
v  36.858604 14.051038 45.178993
v  36.925697 14.051107 45.262775
v  37.205906 14.142696 45.141026
v  37.185940 14.235186 45.090027
v  37.145500 14.235005 44.988571
v  37.125031 14.142336 44.938118
v  37.144997 14.049846 44.989120
v  37.185436 14.050026 45.090572
v  37.383377 14.142042 45.109997
v  37.395332 14.234414 45.053413
v  37.418510 14.233999 44.940838
v  37.429729 14.141212 44.884846
v  37.417774 14.048841 44.941425
v  37.394600 14.049255 45.054005
v  37.522953 14.141641 45.201286
v  37.565762 14.233924 45.164883
v  37.650414 14.233332 45.092514
v  37.692261 14.140456 45.056549
v  37.649456 14.048173 45.092957
v  37.564800 14.048765 45.165325
v  37.657021 14.141352 45.499073
v  37.708977 14.233677 45.483223
v  37.812580 14.233167 45.452946
v  37.864227 14.140332 45.438519
v  37.812271 14.048007 45.454369
v  37.708664 14.048516 45.484646
v  37.717892 14.147266 45.913918
v  37.771595 14.239794 45.910294
v  37.879333 14.239742 45.908188
v  37.933365 14.147164 45.909702
v  37.879662 14.054636 45.913326
v  37.771923 14.054688 45.915436
v  37.678108 14.162572 46.285442
v  37.730602 14.255565 46.293213
v  37.835381 14.256644 46.318764
v  37.887665 14.164731 46.336548
v  37.835171 14.071738 46.328781
v  37.730392 14.070659 46.303226
v  37.561504 14.183035 46.583458
v  37.609154 14.276873 46.603638
v  37.702396 14.279963 46.658672
v  37.747986 14.189217 46.693527
v  37.700340 14.095378 46.673351
v  37.607098 14.092287 46.618317
v  37.397545 14.204055 46.778950
v  37.433495 14.299383 46.813103
v  37.499508 14.305942 46.900600
v  37.529572 14.217170 46.953945
v  37.493622 14.121841 46.919792
v  37.427608 14.115284 46.832294
v  37.219948 14.221296 46.855953
v  37.232151 14.318915 46.900433
v  37.243870 14.330706 47.011478
v  37.243385 14.244877 47.078041
v  37.231186 14.147258 47.033562
v  37.219467 14.135468 46.922516
v  37.032768 14.233617 46.815025
v  37.017040 14.333059 46.853428
v  36.965702 14.348966 46.950687
v  36.930088 14.265429 47.009548
v  36.945812 14.165987 46.971149
v  36.997150 14.150080 46.873886
v  36.815048 14.239074 46.604786
v  36.787537 14.338889 46.631569
v  36.707672 14.355712 46.701244
v  36.655319 14.272719 46.744133
v  36.682831 14.172903 46.717350
v  36.762695 14.156080 46.647675
v  36.608479 14.248083 46.318394
v  36.581196 14.347947 46.345253
v  36.496311 14.365142 46.407925
v  36.438709 14.282474 46.443741
v  36.465992 14.182610 46.416878
v  36.550877 14.165414 46.354206
v  36.451180 14.272106 46.101910
v  36.427155 14.371442 46.133366
v  36.340683 14.388808 46.193871
v  36.278236 14.306840 46.222923
v  36.302261 14.207505 46.191471
v  36.388733 14.190138 46.130962
v  36.356533 14.302756 45.947449
v  36.333344 14.401720 45.980568
v  36.238773 14.421520 46.027912
v  36.167389 14.342356 46.042133
v  36.190575 14.243392 46.009014
v  36.285149 14.223593 45.961670
v  36.323387 14.330824 45.839466
v  36.297985 14.431280 45.866467
v  36.193386 14.459059 45.881462
v  36.114189 14.386381 45.869461
v  36.139595 14.285924 45.842461
v  36.244194 14.258145 45.827461
v  36.337425 14.354398 45.743546
v  36.313713 14.458200 45.756344
v  36.214916 14.495488 45.730507
v  36.139835 14.428973 45.691872
v  36.163551 14.325171 45.679073
v  36.262344 14.287883 45.704910
v  36.409660 14.374832 45.612373
v  36.392838 14.480590 45.612194
v  36.308102 14.521639 45.560631
v  36.240185 14.456929 45.509243
v  36.257004 14.351171 45.509418
v  36.341743 14.310122 45.560986
v  36.556049 14.383607 45.424164
v  36.545273 14.489730 45.416252
v  36.470322 14.531384 45.352119
v  36.406147 14.466918 45.295898
v  36.416927 14.360795 45.303810
v  36.491879 14.319139 45.367943
v  36.746395 14.378839 45.224972
v  36.739944 14.484864 45.212631
v  36.674862 14.526339 45.138210
v  36.616230 14.461787 45.076134
v  36.622681 14.355762 45.088474
v  36.687763 14.314288 45.162895
v  36.943283 14.366910 45.073299
v  36.941040 14.472685 45.057743
v  36.890110 14.513325 44.972435
v  36.841423 14.448190 44.902679
v  36.843666 14.342416 44.918232
v  36.894596 14.301775 45.003544
v  37.137714 14.351042 44.974648
v  37.140305 14.456429 44.956676
v  37.109196 14.495484 44.861324
v  37.075497 14.429153 44.783943
v  37.072906 14.323768 44.801914
v  37.104015 14.284712 44.897266
v  37.319504 14.334529 44.933170
v  37.327690 14.439416 44.913967
v  37.324646 14.475970 44.812229
v  37.313419 14.407637 44.729694
v  37.305233 14.302750 44.748898
v  37.308277 14.266196 44.850636
v  37.481850 14.320159 44.949497
v  37.495872 14.424541 44.930935
v  37.528328 14.458013 44.832787
v  37.546761 14.387104 44.753204
v  37.532742 14.282722 44.771767
v  37.500286 14.249249 44.869915
v  37.626472 14.309754 45.026291
v  37.645088 14.413816 45.010223
v  37.711147 14.444930 44.929939
v  37.758591 14.371981 44.865726
v  37.739975 14.267919 44.881794
v  37.673916 14.236806 44.962078
v  37.758106 14.305391 45.180012
v  37.778744 14.409397 45.166386
v  37.864162 14.439925 45.108734
v  37.928940 14.366446 45.064713
v  37.908302 14.262441 45.078339
v  37.822884 14.231913 45.135990
v  37.871315 14.309344 45.396999
v  37.892563 14.413372 45.384548
v  37.986355 14.444197 45.342953
v  38.058899 14.370993 45.313808
v  38.037651 14.266964 45.326260
v  37.943859 14.236139 45.367855
v  37.954750 14.319704 45.635361
v  37.976555 14.423794 45.624432
v  38.075363 14.455217 45.597145
v  38.152367 14.382551 45.580791
v  38.130562 14.278461 45.591721
v  38.031754 14.247038 45.619007
v  37.997005 14.333675 45.878510
v  38.019363 14.437935 45.870625
v  38.121311 14.470371 45.861374
v  38.200905 14.398548 45.860008
v  38.178551 14.294289 45.867893
v  38.076599 14.261852 45.877144
v  37.990089 14.348577 46.114128
v  38.012325 14.453137 46.111095
v  38.113609 14.487000 46.124798
v  38.192657 14.416302 46.141533
v  38.170422 14.311740 46.144566
v  38.069138 14.277878 46.130863
v  37.927387 14.361928 46.331898
v  37.947781 14.466881 46.335358
v  38.041279 14.502377 46.376133
v  38.114388 14.432920 46.413448
v  38.093990 14.327967 46.409988
v  38.000492 14.292471 46.369213
v  37.801285 14.371591 46.525448
v  37.817238 14.476881 46.535767
v  37.893524 14.513673 46.602978
v  37.953854 14.445174 46.659874
v  37.937901 14.339884 46.649559
v  37.861614 14.303093 46.582344
v  37.601273 14.375153 46.688351
v  37.612064 14.480573 46.702595
v  37.662292 14.518052 46.790924
v  37.701725 14.450111 46.865005
v  37.690933 14.344691 46.850758
v  37.640705 14.307212 46.762432
v  37.345726 14.383656 46.776901
v  37.354195 14.489181 46.791771
v  37.371639 14.527935 46.891384
v  37.380611 14.461164 46.976131
v  37.372139 14.355639 46.961262
v  37.354698 14.316885 46.861649
v  37.070385 14.406372 46.768150
v  37.078236 14.511946 46.783016
v  37.065151 14.553201 46.881664
v  37.044216 14.488881 46.965450
v  37.036369 14.383307 46.950584
v  37.049454 14.342053 46.851936
v  36.796482 14.438190 46.679462
v  36.803429 14.543865 46.694054
v  36.767265 14.587783 46.785240
v  36.724155 14.526024 46.861835
v  36.717209 14.420348 46.847244
v  36.753372 14.376431 46.756058
v  36.553860 14.473039 46.531605
v  36.559559 14.578891 46.545456
v  36.504333 14.625526 46.625038
v  36.443417 14.566311 46.690769
v  36.437717 14.460459 46.676914
v  36.492939 14.413822 46.597336
v  36.372524 14.504331 46.350529
v  36.376453 14.610483 46.362652
v  36.302608 14.660307 46.423653
v  36.224834 14.603979 46.472534
v  36.220901 14.497827 46.460407
v  36.294746 14.448002 46.399406
v  36.278828 14.525496 46.168888
v  36.280605 14.632126 46.176918
v  36.188637 14.686001 46.202831
v  36.094891 14.633246 46.220715
v  36.093113 14.526617 46.212681
v  36.185081 14.472742 46.186771
v  36.280945 14.533262 45.997513
v  36.282986 14.640036 46.002361
v  36.191639 14.695923 45.988968
v  36.098255 14.645037 45.970726
v  36.096214 14.538263 45.965878
v  36.187561 14.482376 45.979271
v  36.347019 14.540391 45.803226
v  36.348480 14.647073 45.810394
v  36.261978 14.703653 45.783108
v  36.174019 14.653551 45.748650
v  36.172558 14.546869 45.741482
v  36.259060 14.490289 45.768768
v  36.425133 14.558771 45.593304
v  36.425285 14.665156 45.603870
v  36.339848 14.721954 45.573658
v  36.254257 14.672366 45.532883
v  36.254108 14.565981 45.522320
v  36.339546 14.509183 45.552528
v  36.514301 14.579844 45.402916
v  36.513988 14.686133 45.414352
v  36.432934 14.743930 45.374725
v  36.352188 14.695438 45.323658
v  36.352497 14.589149 45.312222
v  36.433556 14.531352 45.351849
v  36.616795 14.596291 45.250999
v  36.617500 14.702753 45.260826
v  36.547977 14.762351 45.204037
v  36.477749 14.715487 45.137424
v  36.477043 14.609024 45.127598
v  36.546566 14.549426 45.184387
v  36.731140 14.602140 45.152950
v  36.736031 14.708822 45.159088
v  36.692776 14.769691 45.079708
v  36.644638 14.723879 44.994186
v  36.639751 14.617196 44.988045
v  36.683002 14.556327 45.067429
v  36.862125 14.593656 45.111790
v  36.875225 14.699805 45.115273
v  36.874306 14.757854 45.022533
v  36.860291 14.709751 44.926311
v  36.847195 14.603601 44.922829
v  36.848110 14.545553 45.015568
v  37.043419 14.561829 45.136730
v  37.061264 14.667142 45.141079
v  37.091187 14.719982 45.052708
v  37.103260 14.667509 44.959988
v  37.085419 14.562196 44.955643
v  37.055496 14.509356 45.044014
v  37.269554 14.520175 45.211044
v  37.284187 14.626071 45.214493
v  37.321526 14.677681 45.128643
v  37.344234 14.623394 45.039337
v  37.329601 14.517497 45.035889
v  37.292263 14.465888 45.121738
v  37.492329 14.494554 45.291550
v  37.501083 14.601129 45.292820
v  37.540394 14.652467 45.207653
v  37.570953 14.597231 45.121216
v  37.562202 14.490656 45.119942
v  37.522888 14.439317 45.205109
v  37.687214 14.483314 45.380928
v  37.691151 14.590168 45.379921
v  37.738361 14.640993 45.298344
v  37.781639 14.584965 45.217773
v  37.777702 14.478110 45.218777
v  37.730488 14.427285 45.300354
v  37.840019 14.482963 45.483192
v  37.840237 14.589825 45.479595
v  37.902317 14.640534 45.407917
v  37.964176 14.584381 45.339828
v  37.963959 14.477519 45.343422
v  37.901878 14.426809 45.415104
v  37.940449 14.489758 45.599983
v  37.938511 14.596468 45.593719
v  38.019566 14.648348 45.544014
v  38.102558 14.593516 45.500572
v  38.104500 14.486807 45.506836
v  38.023445 14.434927 45.556541
v  37.986961 14.500722 45.738735
v  37.984573 14.607304 45.730808
v  38.077103 14.661765 45.715141
v  38.172024 14.609643 45.707397
v  38.174416 14.503060 45.715324
v  38.081882 14.448600 45.730991
v  37.972656 14.514794 45.922829
v  37.970333 14.621417 45.915401
v  38.060589 14.678076 45.929871
v  38.153168 14.628113 45.951763
v  38.155491 14.521490 45.959190
v  38.065235 14.464831 45.944725
v  37.902615 14.526257 46.134258
v  37.899700 14.632983 46.128735
v  37.983719 14.690634 46.162086
v  38.070656 14.641559 46.200966
v  38.073574 14.534832 46.206490
v  37.989552 14.477181 46.173138
v  37.801060 14.531129 46.327911
v  37.797260 14.637896 46.324017
v  37.873337 14.695949 46.372490
v  37.953213 14.647235 46.424858
v  37.957008 14.540468 46.428749
v  37.880936 14.482415 46.380276
v  37.674553 14.531117 46.488922
v  37.670139 14.637883 46.485767
v  37.734234 14.695960 46.549461
v  37.802746 14.647272 46.616306
v  37.807159 14.540506 46.619461
v  37.743065 14.482430 46.555767
v  37.529495 14.528131 46.606861
v  37.525074 14.634895 46.603668
v  37.570999 14.692630 46.682110
v  37.621342 14.643600 46.763744
v  37.625763 14.536836 46.766937
v  37.579838 14.479101 46.688496
v  37.371822 14.524020 46.673943
v  37.368443 14.630811 46.670269
v  37.388302 14.687902 46.759777
v  37.411537 14.638204 46.852959
v  37.414917 14.531414 46.856636
v  37.395058 14.474322 46.767128
v  37.203091 14.520397 46.684597
v  37.201916 14.627233 46.680748
v  37.190502 14.683689 46.772205
v  37.180256 14.633309 46.867516
v  37.181431 14.526474 46.871368
v  37.192844 14.470017 46.779907
v  37.010658 14.518401 46.626785
v  37.015514 14.625276 46.624355
v  36.984493 14.681882 46.709698
v  36.948616 14.631613 46.797462
v  36.943760 14.524738 46.799889
v  36.974781 14.468133 46.714550
v  36.791992 14.536817 46.522007
v  36.805676 14.642941 46.523605
v  36.772766 14.699866 46.607933
v  36.726181 14.650668 46.690655
v  36.712498 14.544543 46.689056
v  36.745407 14.487617 46.604729
v  36.571320 14.578362 46.415024
v  36.589825 14.683577 46.419006
v  36.557976 14.740268 46.503868
v  36.507618 14.691745 46.584743
v  36.489109 14.586530 46.580761
v  36.520958 14.529839 46.495899
v  36.371841 14.618725 46.309879
v  36.387066 14.724601 46.312183
v  36.349136 14.782479 46.393871
v  36.295986 14.734480 46.473251
v  36.280762 14.628604 46.470943
v  36.318691 14.570725 46.389259
v  36.209370 14.636497 46.208347
v  36.210838 14.743873 46.202137
v  36.157032 14.803427 46.273945
v  36.101757 14.755604 46.351963
v  36.100285 14.648228 46.358173
v  36.154091 14.588674 46.286366
v  36.098896 14.616563 46.115658
v  36.074142 14.719206 46.087578
v  35.992794 14.773701 46.136360
v  35.936199 14.725552 46.213223
v  35.960953 14.622909 46.241299
v  36.042301 14.568414 46.192516
v  36.037510 14.549983 46.027550
v  35.989830 14.627815 45.966751
v  35.885326 14.657116 45.982399
v  35.828503 14.608586 46.058846
v  35.876183 14.530755 46.119644
v  35.980686 14.501453 46.103996
v  36.021545 14.388963 45.913624
v  35.971889 14.446874 45.838730
v  35.865417 14.456306 45.840321
v  35.808598 14.407825 45.916805
v  35.858253 14.349915 45.991695
v  35.964725 14.340483 45.990105
v  36.001846 14.147931 46.283813
v  35.981476 14.193857 46.266838
v  35.940559 14.193857 46.233101
v  35.920017 14.147931 46.216335
v  35.940388 14.102006 46.233311
v  35.981300 14.102006 46.267052
v  35.967892 14.393715 45.914425
v  35.943256 14.422442 45.877274
v  35.890442 14.427121 45.878063
v  35.862255 14.403072 45.916004
v  35.886887 14.374345 45.953156
v  35.939705 14.369666 45.952366
v  35.960930 14.147931 46.250076
v  35.915073 14.398394 45.915215
# 440 vertices

vt 0.237371 0.738552 0.000000
vt 0.777230 0.599451 0.000000
vt 0.777158 0.614335 0.000000
vt 0.774041 0.616224 0.000000
vt 0.773227 0.599406 0.000000
vt 0.245428 0.753082 0.000000
vt 0.241452 0.752926 0.000000
vt 0.781160 0.599630 0.000000
vt 0.779855 0.614435 0.000000
vt 0.785123 0.599941 0.000000
vt 0.782731 0.616392 0.000000
vt 0.234283 0.740342 0.000000
vt 0.231037 0.742358 0.000000
vt 0.777903 0.581818 0.000000
vt 0.773890 0.581710 0.000000
vt 0.781906 0.581921 0.000000
vt 0.785913 0.582037 0.000000
vt 0.239146 0.754399 0.000000
vt 0.237518 0.757806 0.000000
vt 0.778136 0.566332 0.000000
vt 0.774106 0.566373 0.000000
vt 0.782128 0.566255 0.000000
vt 0.786143 0.566188 0.000000
vt 0.228054 0.744290 0.000000
vt 0.229096 0.724522 0.000000
vt 0.777663 0.553950 0.000000
vt 0.773595 0.554337 0.000000
vt 0.781528 0.553457 0.000000
vt 0.785534 0.552987 0.000000
vt 0.225842 0.726376 0.000000
vt 0.222587 0.728304 0.000000
vt 0.776035 0.544521 0.000000
vt 0.771929 0.545819 0.000000
vt 0.779554 0.543368 0.000000
vt 0.783639 0.542003 0.000000
vt 0.219364 0.730245 0.000000
vt 0.222211 0.711884 0.000000
vt 0.772011 0.536182 0.000000
vt 0.768663 0.538296 0.000000
vt 0.775218 0.534322 0.000000
vt 0.778549 0.532304 0.000000
vt 0.218691 0.713589 0.000000
vt 0.215178 0.715479 0.000000
vt 0.763918 0.525475 0.000000
vt 0.760972 0.527913 0.000000
vt 0.766863 0.523077 0.000000
vt 0.769808 0.520633 0.000000
vt 0.211765 0.717436 0.000000
vt 0.217741 0.701222 0.000000
vt 0.753343 0.513807 0.000000
vt 0.750708 0.516454 0.000000
vt 0.755966 0.511173 0.000000
vt 0.758579 0.508552 0.000000
vt 0.213537 0.702472 0.000000
vt 0.209333 0.704324 0.000000
vt 0.742784 0.504320 0.000000
vt 0.740363 0.507319 0.000000
vt 0.745164 0.501359 0.000000
vt 0.747630 0.498398 0.000000
vt 0.205467 0.706309 0.000000
vt 0.215962 0.693042 0.000000
vt 0.732373 0.496721 0.000000
vt 0.730217 0.500088 0.000000
vt 0.734450 0.493427 0.000000
vt 0.736637 0.490100 0.000000
vt 0.210956 0.694014 0.000000
vt 0.205869 0.695100 0.000000
vt 0.722485 0.491191 0.000000
vt 0.720757 0.494991 0.000000
vt 0.724050 0.487562 0.000000
vt 0.725790 0.483815 0.000000
vt 0.200989 0.696190 0.000000
vt 0.214602 0.685142 0.000000
vt 0.712927 0.487885 0.000000
vt 0.711980 0.492207 0.000000
vt 0.713763 0.483996 0.000000
vt 0.714696 0.479619 0.000000
vt 0.210044 0.685662 0.000000
vt 0.205191 0.685482 0.000000
vt 0.702808 0.486902 0.000000
vt 0.702919 0.491034 0.000000
vt 0.702830 0.483032 0.000000
vt 0.702755 0.478982 0.000000
vt 0.200687 0.685050 0.000000
vt 0.215041 0.671932 0.000000
vt 0.689904 0.488556 0.000000
vt 0.690579 0.492589 0.000000
vt 0.689290 0.484537 0.000000
vt 0.688686 0.480518 0.000000
vt 0.211088 0.671491 0.000000
vt 0.207073 0.670845 0.000000
vt 0.676268 0.491309 0.000000
vt 0.677158 0.495406 0.000000
vt 0.675395 0.487213 0.000000
vt 0.674534 0.483136 0.000000
vt 0.203124 0.670097 0.000000
vt 0.217910 0.656733 0.000000
vt 0.666113 0.493618 0.000000
vt 0.667147 0.497661 0.000000
vt 0.665053 0.489619 0.000000
vt 0.663941 0.485651 0.000000
vt 0.214251 0.655760 0.000000
vt 0.210463 0.654764 0.000000
vt 0.658874 0.495735 0.000000
vt 0.660291 0.499660 0.000000
vt 0.657428 0.492021 0.000000
vt 0.655917 0.488278 0.000000
vt 0.206735 0.653787 0.000000
vt 0.222379 0.643695 0.000000
vt 0.653598 0.498109 0.000000
vt 0.655762 0.501768 0.000000
vt 0.651594 0.494836 0.000000
vt 0.649533 0.491412 0.000000
vt 0.218702 0.642175 0.000000
vt 0.214901 0.640757 0.000000
vt 0.649162 0.501518 0.000000
vt 0.651967 0.504531 0.000000
vt 0.646702 0.498699 0.000000
vt 0.643921 0.495500 0.000000
vt 0.211134 0.639413 0.000000
vt 0.227779 0.632484 0.000000
vt 0.644369 0.506624 0.000000
vt 0.647408 0.509322 0.000000
vt 0.641478 0.503955 0.000000
vt 0.638479 0.501179 0.000000
vt 0.224131 0.630345 0.000000
vt 0.220240 0.628379 0.000000
vt 0.638039 0.513982 0.000000
vt 0.641122 0.516561 0.000000
vt 0.634981 0.511411 0.000000
vt 0.631867 0.508794 0.000000
vt 0.216399 0.626579 0.000000
vt 0.233872 0.623651 0.000000
vt 0.631078 0.522484 0.000000
vt 0.634332 0.524948 0.000000
vt 0.627874 0.520068 0.000000
vt 0.624698 0.517636 0.000000
vt 0.230327 0.620593 0.000000
vt 0.226304 0.617806 0.000000
vt 0.625203 0.530814 0.000000
vt 0.628695 0.533050 0.000000
vt 0.621790 0.528631 0.000000
vt 0.618360 0.526363 0.000000
vt 0.222385 0.615324 0.000000
vt 0.240397 0.617130 0.000000
vt 0.620486 0.538907 0.000000
vt 0.624273 0.540814 0.000000
vt 0.616812 0.537074 0.000000
vt 0.613072 0.535121 0.000000
vt 0.236891 0.613288 0.000000
vt 0.233315 0.609427 0.000000
vt 0.617134 0.546756 0.000000
vt 0.621224 0.548131 0.000000
vt 0.613232 0.545496 0.000000
vt 0.609012 0.544115 0.000000
vt 0.229842 0.605709 0.000000
vt 0.247531 0.611215 0.000000
vt 0.615283 0.554469 0.000000
vt 0.619618 0.555062 0.000000
vt 0.611161 0.553943 0.000000
vt 0.606955 0.553498 0.000000
vt 0.244722 0.607359 0.000000
vt 0.242285 0.602949 0.000000
vt 0.615036 0.562331 0.000000
vt 0.619235 0.562024 0.000000
vt 0.611043 0.562608 0.000000
vt 0.606966 0.562991 0.000000
vt 0.240179 0.598716 0.000000
vt 0.258633 0.605081 0.000000
vt 0.616596 0.570979 0.000000
vt 0.620575 0.570009 0.000000
vt 0.612716 0.571912 0.000000
vt 0.608804 0.572894 0.000000
vt 0.256903 0.601332 0.000000
vt 0.255311 0.597416 0.000000
vt 0.619519 0.580379 0.000000
vt 0.623331 0.579022 0.000000
vt 0.615768 0.581714 0.000000
vt 0.612006 0.583041 0.000000
vt 0.253857 0.593506 0.000000
vt 0.270968 0.600209 0.000000
vt 0.623288 0.589724 0.000000
vt 0.627002 0.588029 0.000000
vt 0.619626 0.591392 0.000000
vt 0.615907 0.593024 0.000000
vt 0.269656 0.596487 0.000000
vt 0.268355 0.592774 0.000000
vt 0.627886 0.598791 0.000000
vt 0.631478 0.596689 0.000000
vt 0.624347 0.600835 0.000000
vt 0.620704 0.602815 0.000000
vt 0.267049 0.588995 0.000000
vt 0.280304 0.597272 0.000000
vt 0.633571 0.607449 0.000000
vt 0.636842 0.604654 0.000000
vt 0.630141 0.610122 0.000000
vt 0.626381 0.612287 0.000000
vt 0.279300 0.593357 0.000000
vt 0.278140 0.589437 0.000000
vt 0.524876 0.604004 0.000000
vt 0.514939 0.608029 0.000000
vt 0.513780 0.603663 0.000000
vt 0.522891 0.600034 0.000000
vt 0.276903 0.585589 0.000000
vt 0.287071 0.596030 0.000000
vt 0.526852 0.607813 0.000000
vt 0.516281 0.612361 0.000000
vt 0.528808 0.611731 0.000000
vt 0.518201 0.616410 0.000000
vt 0.286666 0.591701 0.000000
vt 0.285765 0.587265 0.000000
vt 0.534193 0.598322 0.000000
vt 0.531569 0.594657 0.000000
vt 0.536742 0.601850 0.000000
vt 0.539415 0.605664 0.000000
vt 0.284733 0.583129 0.000000
vt 0.291809 0.596006 0.000000
vt 0.543619 0.590498 0.000000
vt 0.540338 0.587235 0.000000
vt 0.546773 0.593628 0.000000
vt 0.550007 0.596818 0.000000
vt 0.292008 0.591343 0.000000
vt 0.291865 0.586367 0.000000
vt 0.551748 0.580660 0.000000
vt 0.547925 0.578139 0.000000
vt 0.555567 0.583208 0.000000
vt 0.559227 0.585657 0.000000
vt 0.291595 0.581773 0.000000
vt 0.296352 0.596355 0.000000
vt 0.557687 0.569289 0.000000
vt 0.553467 0.567520 0.000000
vt 0.561818 0.571058 0.000000
vt 0.566014 0.572887 0.000000
vt 0.296758 0.591545 0.000000
vt 0.297529 0.586719 0.000000
vt 0.561839 0.556722 0.000000
vt 0.557413 0.555586 0.000000
vt 0.566222 0.557873 0.000000
vt 0.570669 0.559065 0.000000
vt 0.298348 0.582239 0.000000
vt 0.302893 0.597139 0.000000
vt 0.564303 0.543828 0.000000
vt 0.559682 0.543265 0.000000
vt 0.568785 0.544382 0.000000
vt 0.573389 0.544997 0.000000
vt 0.303573 0.592789 0.000000
vt 0.304606 0.588379 0.000000
vt 0.565013 0.531565 0.000000
vt 0.560250 0.531677 0.000000
vt 0.569638 0.531439 0.000000
vt 0.574358 0.531384 0.000000
vt 0.305751 0.584204 0.000000
vt 0.312337 0.599049 0.000000
vt 0.563849 0.520856 0.000000
vt 0.559092 0.522029 0.000000
vt 0.568361 0.519761 0.000000
vt 0.573137 0.518580 0.000000
vt 0.313302 0.594959 0.000000
vt 0.314348 0.590849 0.000000
vt 0.560421 0.512188 0.000000
vt 0.556105 0.514444 0.000000
vt 0.564619 0.510100 0.000000
vt 0.568862 0.507963 0.000000
vt 0.315426 0.586861 0.000000
vt 0.322760 0.601878 0.000000
vt 0.555119 0.503939 0.000000
vt 0.551006 0.506648 0.000000
vt 0.559218 0.501274 0.000000
vt 0.563333 0.498668 0.000000
vt 0.323989 0.597888 0.000000
vt 0.325215 0.593847 0.000000
vt 0.549399 0.495379 0.000000
vt 0.545387 0.498195 0.000000
vt 0.553374 0.492568 0.000000
vt 0.557340 0.489753 0.000000
vt 0.326424 0.589861 0.000000
vt 0.331905 0.605099 0.000000
vt 0.543421 0.487321 0.000000
vt 0.539602 0.490414 0.000000
vt 0.547148 0.484264 0.000000
vt 0.550906 0.481197 0.000000
vt 0.333493 0.601286 0.000000
vt 0.335062 0.597260 0.000000
vt 0.537266 0.480358 0.000000
vt 0.533783 0.483920 0.000000
vt 0.540572 0.476913 0.000000
vt 0.543988 0.473442 0.000000
vt 0.336568 0.593310 0.000000
vt 0.339651 0.608918 0.000000
vt 0.530742 0.474863 0.000000
vt 0.527913 0.479131 0.000000
vt 0.533349 0.470857 0.000000
vt 0.536214 0.466783 0.000000
vt 0.341838 0.605123 0.000000
vt 0.343879 0.601133 0.000000
vt 0.523010 0.470952 0.000000
vt 0.521241 0.475962 0.000000
vt 0.524759 0.466332 0.000000
vt 0.526745 0.461407 0.000000
vt 0.345806 0.597238 0.000000
vt 0.346097 0.613206 0.000000
vt 0.512729 0.468530 0.000000
vt 0.511803 0.473775 0.000000
vt 0.513738 0.463405 0.000000
vt 0.514808 0.458250 0.000000
vt 0.348928 0.609467 0.000000
vt 0.351595 0.605646 0.000000
vt 0.500541 0.466885 0.000000
vt 0.499913 0.472280 0.000000
vt 0.501197 0.461530 0.000000
vt 0.501890 0.456196 0.000000
vt 0.354132 0.601957 0.000000
vt 0.351341 0.617715 0.000000
vt 0.488685 0.465652 0.000000
vt 0.488281 0.471045 0.000000
vt 0.489078 0.460283 0.000000
vt 0.489451 0.454937 0.000000
vt 0.354544 0.614453 0.000000
vt 0.358001 0.611099 0.000000
vt 0.477656 0.465188 0.000000
vt 0.477713 0.470611 0.000000
vt 0.477590 0.459845 0.000000
vt 0.477523 0.454508 0.000000
vt 0.361299 0.607954 0.000000
vt 0.355729 0.622758 0.000000
vt 0.467741 0.465815 0.000000
vt 0.468558 0.471246 0.000000
vt 0.466942 0.460556 0.000000
vt 0.466187 0.455262 0.000000
vt 0.359296 0.620157 0.000000
vt 0.363195 0.617732 0.000000
vt 0.458926 0.467917 0.000000
vt 0.460888 0.473181 0.000000
vt 0.457064 0.462892 0.000000
vt 0.455318 0.457751 0.000000
vt 0.366942 0.615492 0.000000
vt 0.359686 0.629508 0.000000
vt 0.450704 0.472159 0.000000
vt 0.453959 0.476921 0.000000
vt 0.447628 0.467519 0.000000
vt 0.444687 0.462766 0.000000
vt 0.363395 0.627715 0.000000
vt 0.367278 0.626061 0.000000
vt 0.442135 0.479474 0.000000
vt 0.446209 0.483574 0.000000
vt 0.438240 0.475449 0.000000
vt 0.434274 0.471223 0.000000
vt 0.371102 0.624511 0.000000
vt 0.363008 0.637952 0.000000
vt 0.433535 0.489190 0.000000
vt 0.438015 0.492815 0.000000
vt 0.429161 0.485634 0.000000
vt 0.424553 0.481865 0.000000
vt 0.366765 0.636748 0.000000
vt 0.370616 0.635535 0.000000
vt 0.425978 0.499373 0.000000
vt 0.430820 0.502593 0.000000
vt 0.421220 0.496247 0.000000
vt 0.416339 0.493074 0.000000
vt 0.374439 0.634347 0.000000
vt 0.365304 0.647032 0.000000
vt 0.419871 0.509706 0.000000
vt 0.425048 0.512357 0.000000
vt 0.414810 0.507171 0.000000
vt 0.409613 0.504619 0.000000
vt 0.369277 0.646216 0.000000
vt 0.373289 0.645307 0.000000
vt 0.415471 0.519963 0.000000
vt 0.420977 0.521829 0.000000
vt 0.410138 0.518214 0.000000
vt 0.404653 0.516482 0.000000
vt 0.377240 0.644391 0.000000
vt 0.366776 0.656385 0.000000
vt 0.413001 0.530149 0.000000
vt 0.418765 0.530956 0.000000
vt 0.407453 0.529413 0.000000
vt 0.401793 0.528715 0.000000
vt 0.370925 0.655899 0.000000
vt 0.375118 0.655349 0.000000
vt 0.412698 0.540635 0.000000
vt 0.418507 0.540164 0.000000
vt 0.406987 0.541043 0.000000
vt 0.401374 0.541464 0.000000
vt 0.379224 0.654828 0.000000
vt 0.367585 0.665583 0.000000
vt 0.414858 0.552089 0.000000
vt 0.420557 0.550640 0.000000
vt 0.409182 0.553481 0.000000
vt 0.403545 0.554756 0.000000
vt 0.371655 0.665113 0.000000
vt 0.375750 0.665209 0.000000
vt 0.418724 0.564620 0.000000
vt 0.424384 0.562835 0.000000
vt 0.413084 0.566454 0.000000
vt 0.407471 0.568268 0.000000
vt 0.379874 0.665450 0.000000
vt 0.639535 0.705443 0.000000
vt 0.422910 0.577298 0.000000
vt 0.428385 0.575482 0.000000
vt 0.417451 0.579200 0.000000
vt 0.412048 0.581159 0.000000
vt 0.642918 0.713683 0.000000
vt 0.639224 0.715159 0.000000
vt 0.427101 0.589250 0.000000
vt 0.432436 0.587378 0.000000
vt 0.421855 0.591157 0.000000
vt 0.416604 0.593186 0.000000
vt 0.635452 0.706848 0.000000
vt 0.631363 0.708525 0.000000
vt 0.431013 0.599948 0.000000
vt 0.436265 0.598039 0.000000
vt 0.426022 0.601799 0.000000
vt 0.420875 0.603911 0.000000
vt 0.635789 0.717232 0.000000
vt 0.632409 0.719553 0.000000
vt 0.434620 0.609439 0.000000
vt 0.439899 0.607401 0.000000
vt 0.429911 0.611197 0.000000
vt 0.424688 0.613383 0.000000
vt 0.627428 0.710221 0.000000
vt 0.636951 0.696240 0.000000
vt 0.438364 0.618700 0.000000
vt 0.444085 0.616677 0.000000
vt 0.433835 0.620495 0.000000
vt 0.428200 0.623062 0.000000
vt 0.632466 0.697252 0.000000
vt 0.628061 0.698352 0.000000
vt 0.777618 0.615841 0.000000
vt 0.776182 0.617279 0.000000
vt 0.779328 0.615809 0.000000
vt 0.780663 0.617273 0.000000
vt 0.623754 0.699439 0.000000
vt 0.635211 0.685576 0.000000
vt 0.441340 0.627667 0.000000
vt 0.446284 0.628746 0.000000
vt 0.437832 0.629166 0.000000
vt 0.435091 0.633695 0.000000
vt 0.630726 0.685924 0.000000
vt 0.778466 0.617632 0.000000
vt 0.444065 0.630775 0.000000
vt 0.626139 0.686290 0.000000
vt 0.621639 0.686608 0.000000
vt 0.635452 0.674582 0.000000
vt 0.631181 0.674019 0.000000
vt 0.626552 0.673386 0.000000
vt 0.622078 0.672761 0.000000
vt 0.638100 0.663736 0.000000
vt 0.633901 0.662321 0.000000
vt 0.629651 0.660852 0.000000
vt 0.625448 0.659423 0.000000
vt 0.642702 0.652880 0.000000
vt 0.638762 0.650855 0.000000
vt 0.634780 0.648804 0.000000
vt 0.630850 0.646826 0.000000
vt 0.648722 0.642831 0.000000
vt 0.645054 0.640216 0.000000
vt 0.641345 0.637678 0.000000
vt 0.637599 0.635200 0.000000
vt 0.655674 0.634503 0.000000
vt 0.652352 0.631166 0.000000
vt 0.648785 0.627950 0.000000
vt 0.645275 0.624874 0.000000
vt 0.662679 0.628653 0.000000
vt 0.659750 0.624547 0.000000
vt 0.656763 0.620345 0.000000
vt 0.653947 0.616364 0.000000
vt 0.669073 0.624696 0.000000
vt 0.666981 0.620497 0.000000
vt 0.665163 0.616052 0.000000
vt 0.663503 0.611743 0.000000
vt 0.676846 0.621621 0.000000
vt 0.675476 0.617499 0.000000
vt 0.674176 0.613337 0.000000
vt 0.672922 0.609115 0.000000
vt 0.685503 0.619145 0.000000
vt 0.684425 0.614872 0.000000
vt 0.683269 0.610587 0.000000
vt 0.682084 0.606343 0.000000
vt 0.693996 0.617346 0.000000
vt 0.693282 0.612846 0.000000
vt 0.692359 0.608300 0.000000
vt 0.691365 0.603879 0.000000
vt 0.701802 0.616587 0.000000
vt 0.701716 0.611744 0.000000
vt 0.701221 0.606763 0.000000
vt 0.700606 0.602040 0.000000
vt 0.708593 0.617034 0.000000
vt 0.709385 0.611857 0.000000
vt 0.709736 0.606414 0.000000
vt 0.709969 0.601352 0.000000
vt 0.715138 0.618550 0.000000
vt 0.716592 0.613315 0.000000
vt 0.718247 0.608005 0.000000
vt 0.719859 0.603010 0.000000
vt 0.723508 0.621398 0.000000
vt 0.725444 0.616835 0.000000
vt 0.727673 0.612315 0.000000
vt 0.729964 0.607961 0.000000
vt 0.733041 0.626139 0.000000
vt 0.735322 0.622015 0.000000
vt 0.737631 0.617936 0.000000
vt 0.740019 0.613819 0.000000
vt 0.741845 0.631412 0.000000
vt 0.744436 0.627431 0.000000
vt 0.746984 0.623419 0.000000
vt 0.749513 0.619399 0.000000
vt 0.749450 0.636824 0.000000
vt 0.752503 0.633035 0.000000
vt 0.755459 0.629117 0.000000
vt 0.758330 0.625220 0.000000
vt 0.755417 0.642324 0.000000
vt 0.759183 0.638900 0.000000
vt 0.762812 0.635182 0.000000
vt 0.766258 0.631542 0.000000
vt 0.759608 0.647908 0.000000
vt 0.764215 0.645136 0.000000
vt 0.768779 0.641968 0.000000
vt 0.773059 0.638932 0.000000
vt 0.762566 0.654212 0.000000
vt 0.767738 0.652305 0.000000
vt 0.773152 0.650252 0.000000
vt 0.778230 0.648277 0.000000
vt 0.764984 0.663095 0.000000
vt 0.770405 0.662019 0.000000
vt 0.775877 0.661029 0.000000
vt 0.781205 0.660061 0.000000
vt 0.766500 0.674231 0.000000
vt 0.772020 0.673737 0.000000
vt 0.777402 0.673279 0.000000
vt 0.782712 0.672841 0.000000
vt 0.767003 0.685174 0.000000
vt 0.772438 0.685185 0.000000
vt 0.777904 0.685172 0.000000
vt 0.783261 0.685181 0.000000
vt 0.766425 0.695312 0.000000
vt 0.771833 0.695937 0.000000
vt 0.777306 0.696513 0.000000
vt 0.782642 0.697102 0.000000
vt 0.764750 0.704345 0.000000
vt 0.770045 0.705732 0.000000
vt 0.775443 0.707070 0.000000
vt 0.780656 0.708409 0.000000
vt 0.761974 0.712171 0.000000
vt 0.766950 0.714431 0.000000
vt 0.772068 0.716731 0.000000
vt 0.776950 0.719013 0.000000
vt 0.757939 0.719143 0.000000
vt 0.762311 0.722165 0.000000
vt 0.766785 0.725532 0.000000
vt 0.770976 0.728803 0.000000
vt 0.752008 0.726293 0.000000
vt 0.755618 0.729823 0.000000
vt 0.759135 0.733491 0.000000
vt 0.762579 0.737193 0.000000
vt 0.743878 0.733550 0.000000
vt 0.747032 0.737330 0.000000
vt 0.750158 0.741061 0.000000
vt 0.753338 0.744901 0.000000
vt 0.735010 0.740511 0.000000
vt 0.738007 0.744480 0.000000
vt 0.741110 0.748444 0.000000
vt 0.744250 0.752331 0.000000
vt 0.726182 0.746815 0.000000
vt 0.729061 0.751092 0.000000
vt 0.732244 0.755405 0.000000
vt 0.735541 0.759415 0.000000
vt 0.717780 0.752029 0.000000
vt 0.720563 0.756866 0.000000
vt 0.723996 0.761843 0.000000
vt 0.727721 0.766085 0.000000
vt 0.710061 0.756279 0.000000
vt 0.713171 0.761596 0.000000
vt 0.716872 0.767325 0.000000
vt 0.720842 0.772161 0.000000
vt 0.702711 0.761699 0.000000
vt 0.706780 0.766185 0.000000
vt 0.710367 0.771604 0.000000
vt 0.712961 0.777240 0.000000
vt 0.243910 0.754997 0.000000
vt 0.241863 0.754550 0.000000
vt 0.240334 0.755391 0.000000
vt 0.239771 0.757376 0.000000
vt 0.695567 0.770139 0.000000
vt 0.699814 0.772269 0.000000
vt 0.701747 0.775458 0.000000
vt 0.701649 0.780539 0.000000
vt 0.242052 0.756620 0.000000
vt 0.698547 0.773843 0.000000
vt 0.441495 0.629804 0.000000
vt 0.439348 0.630856 0.000000
vt 0.438308 0.633445 0.000000
vt 0.441484 0.632640 0.000000
vt 0.695904 0.773193 0.000000
vt 0.698886 0.778629 0.000000
vt 0.699631 0.775905 0.000000
vt 0.696915 0.776087 0.000000
# 596 texture coords

o Line001
g Line001
f 8/1 2/6 1/7 7/12 
f 9/2 3/3 2/4 8/5 
f 10/8 4/9 3/3 9/2 
f 11/10 5/11 4/9 10/8 
f 12/13 6/18 5/19 11/24 
f 7/12 1/7 6/18 12/13 
f 14/25 8/1 7/12 13/30 
f 15/14 9/2 8/5 14/15 
f 16/16 10/8 9/2 15/14 
f 17/17 11/10 10/8 16/16 
f 18/31 12/13 11/24 17/36 
f 13/30 7/12 12/13 18/31 
f 20/37 14/25 13/30 19/42 
f 21/20 15/14 14/15 20/21 
f 22/22 16/16 15/14 21/20 
f 23/23 17/17 16/16 22/22 
f 24/43 18/31 17/36 23/48 
f 19/42 13/30 18/31 24/43 
f 26/49 20/37 19/42 25/54 
f 27/26 21/20 20/21 26/27 
f 28/28 22/22 21/20 27/26 
f 29/29 23/23 22/22 28/28 
f 30/55 24/43 23/48 29/60 
f 25/54 19/42 24/43 30/55 
f 32/61 26/49 25/54 31/66 
f 33/32 27/26 26/27 32/33 
f 34/34 28/28 27/26 33/32 
f 35/35 29/29 28/28 34/34 
f 36/67 30/55 29/60 35/72 
f 31/66 25/54 30/55 36/67 
f 38/73 32/61 31/66 37/78 
f 39/38 33/32 32/33 38/39 
f 40/40 34/34 33/32 39/38 
f 41/41 35/35 34/34 40/40 
f 42/79 36/67 35/72 41/84 
f 37/78 31/66 36/67 42/79 
f 44/85 38/73 37/78 43/90 
f 45/44 39/38 38/39 44/45 
f 46/46 40/40 39/38 45/44 
f 47/47 41/41 40/40 46/46 
f 48/91 42/79 41/84 47/96 
f 43/90 37/78 42/79 48/91 
f 50/97 44/85 43/90 49/102 
f 51/50 45/44 44/45 50/51 
f 52/52 46/46 45/44 51/50 
f 53/53 47/47 46/46 52/52 
f 54/103 48/91 47/96 53/108 
f 49/102 43/90 48/91 54/103 
f 56/109 50/97 49/102 55/114 
f 57/56 51/50 50/51 56/57 
f 58/58 52/52 51/50 57/56 
f 59/59 53/53 52/52 58/58 
f 60/115 54/103 53/108 59/120 
f 55/114 49/102 54/103 60/115 
f 62/121 56/109 55/114 61/126 
f 63/62 57/56 56/57 62/63 
f 64/64 58/58 57/56 63/62 
f 65/65 59/59 58/58 64/64 
f 66/127 60/115 59/120 65/132 
f 61/126 55/114 60/115 66/127 
f 68/133 62/121 61/126 67/138 
f 69/68 63/62 62/63 68/69 
f 70/70 64/64 63/62 69/68 
f 71/71 65/65 64/64 70/70 
f 72/139 66/127 65/132 71/144 
f 67/138 61/126 66/127 72/139 
f 74/145 68/133 67/138 73/150 
f 75/74 69/68 68/69 74/75 
f 76/76 70/70 69/68 75/74 
f 77/77 71/71 70/70 76/76 
f 78/151 72/139 71/144 77/156 
f 73/150 67/138 72/139 78/151 
f 80/157 74/145 73/150 79/162 
f 81/80 75/74 74/75 80/81 
f 82/82 76/76 75/74 81/80 
f 83/83 77/77 76/76 82/82 
f 84/163 78/151 77/156 83/168 
f 79/162 73/150 78/151 84/163 
f 86/169 80/157 79/162 85/174 
f 87/86 81/80 80/81 86/87 
f 88/88 82/82 81/80 87/86 
f 89/89 83/83 82/82 88/88 
f 90/175 84/163 83/168 89/180 
f 85/174 79/162 84/163 90/175 
f 92/181 86/169 85/174 91/186 
f 93/92 87/86 86/87 92/93 
f 94/94 88/88 87/86 93/92 
f 95/95 89/89 88/88 94/94 
f 96/187 90/175 89/180 95/192 
f 91/186 85/174 90/175 96/187 
f 98/193 92/181 91/186 97/198 
f 99/98 93/92 92/93 98/99 
f 100/100 94/94 93/92 99/98 
f 101/101 95/95 94/94 100/100 
f 102/199 96/187 95/192 101/204 
f 97/198 91/186 96/187 102/199 
f 104/205 98/193 97/198 103/210 
f 105/104 99/98 98/99 104/105 
f 106/106 100/100 99/98 105/104 
f 107/107 101/101 100/100 106/106 
f 108/211 102/199 101/204 107/216 
f 103/210 97/198 102/199 108/211 
f 110/217 104/205 103/210 109/222 
f 111/110 105/104 104/105 110/111 
f 112/112 106/106 105/104 111/110 
f 113/113 107/107 106/106 112/112 
f 114/223 108/211 107/216 113/228 
f 109/222 103/210 108/211 114/223 
f 116/229 110/217 109/222 115/234 
f 117/116 111/110 110/111 116/117 
f 118/118 112/112 111/110 117/116 
f 119/119 113/113 112/112 118/118 
f 120/235 114/223 113/228 119/240 
f 115/234 109/222 114/223 120/235 
f 122/241 116/229 115/234 121/246 
f 123/122 117/116 116/117 122/123 
f 124/124 118/118 117/116 123/122 
f 125/125 119/119 118/118 124/124 
f 126/247 120/235 119/240 125/252 
f 121/246 115/234 120/235 126/247 
f 128/253 122/241 121/246 127/258 
f 129/128 123/122 122/123 128/129 
f 130/130 124/124 123/122 129/128 
f 131/131 125/125 124/124 130/130 
f 132/259 126/247 125/252 131/264 
f 127/258 121/246 126/247 132/259 
f 134/265 128/253 127/258 133/270 
f 135/134 129/128 128/129 134/135 
f 136/136 130/130 129/128 135/134 
f 137/137 131/131 130/130 136/136 
f 138/271 132/259 131/264 137/276 
f 133/270 127/258 132/259 138/271 
f 140/277 134/265 133/270 139/282 
f 141/140 135/134 134/135 140/141 
f 142/142 136/136 135/134 141/140 
f 143/143 137/137 136/136 142/142 
f 144/283 138/271 137/276 143/288 
f 139/282 133/270 138/271 144/283 
f 146/289 140/277 139/282 145/294 
f 147/146 141/140 140/141 146/147 
f 148/148 142/142 141/140 147/146 
f 149/149 143/143 142/142 148/148 
f 150/295 144/283 143/288 149/300 
f 145/294 139/282 144/283 150/295 
f 152/301 146/289 145/294 151/306 
f 153/152 147/146 146/147 152/153 
f 154/154 148/148 147/146 153/152 
f 155/155 149/149 148/148 154/154 
f 156/307 150/295 149/300 155/312 
f 151/306 145/294 150/295 156/307 
f 158/313 152/301 151/306 157/318 
f 159/158 153/152 152/153 158/159 
f 160/160 154/154 153/152 159/158 
f 161/161 155/155 154/154 160/160 
f 162/319 156/307 155/312 161/324 
f 157/318 151/306 156/307 162/319 
f 164/325 158/313 157/318 163/330 
f 165/164 159/158 158/159 164/165 
f 166/166 160/160 159/158 165/164 
f 167/167 161/161 160/160 166/166 
f 168/331 162/319 161/324 167/336 
f 163/330 157/318 162/319 168/331 
f 170/337 164/325 163/330 169/342 
f 171/170 165/164 164/165 170/171 
f 172/172 166/166 165/164 171/170 
f 173/173 167/167 166/166 172/172 
f 174/343 168/331 167/336 173/348 
f 169/342 163/330 168/331 174/343 
f 176/349 170/337 169/342 175/354 
f 177/176 171/170 170/171 176/177 
f 178/178 172/172 171/170 177/176 
f 179/179 173/173 172/172 178/178 
f 180/355 174/343 173/348 179/360 
f 175/354 169/342 174/343 180/355 
f 182/361 176/349 175/354 181/366 
f 183/182 177/176 176/177 182/183 
f 184/184 178/178 177/176 183/182 
f 185/185 179/179 178/178 184/184 
f 186/367 180/355 179/360 185/372 
f 181/366 175/354 180/355 186/367 
f 188/373 182/361 181/366 187/378 
f 189/188 183/182 182/183 188/189 
f 190/190 184/184 183/182 189/188 
f 191/191 185/185 184/184 190/190 
f 192/379 186/367 185/372 191/384 
f 187/378 181/366 186/367 192/379 
f 194/385 188/373 187/378 193/390 
f 195/194 189/188 188/189 194/195 
f 196/196 190/190 189/188 195/194 
f 197/197 191/191 190/190 196/196 
f 198/391 192/379 191/384 197/396 
f 193/390 187/378 192/379 198/391 
f 200/397 194/402 193/403 199/408 
f 201/200 195/201 194/202 200/203 
f 202/206 196/207 195/201 201/200 
f 203/208 197/209 196/207 202/206 
f 204/409 198/414 197/415 203/420 
f 199/408 193/403 198/414 204/409 
f 206/421 200/397 199/408 205/426 
f 207/212 201/200 200/203 206/213 
f 208/214 202/206 201/200 207/212 
f 209/215 203/208 202/206 208/214 
f 210/427 204/409 203/420 209/432 
f 205/426 199/408 204/409 210/427 
f 212/433 206/421 205/426 211/438 
f 213/218 207/212 206/213 212/219 
f 214/220 208/214 207/212 213/218 
f 215/221 209/215 208/214 214/220 
f 216/441 210/427 209/432 215/442 
f 211/438 205/426 210/427 216/441 
f 218/443 212/433 211/438 217/444 
f 219/224 213/218 212/219 218/225 
f 220/226 214/220 213/218 219/224 
f 221/227 215/221 214/220 220/226 
f 222/445 216/441 215/442 221/446 
f 217/444 211/438 216/441 222/445 
f 224/447 218/443 217/444 223/448 
f 225/230 219/224 218/225 224/231 
f 226/232 220/226 219/224 225/230 
f 227/233 221/227 220/226 226/232 
f 228/449 222/445 221/446 227/450 
f 223/448 217/444 222/445 228/449 
f 230/451 224/447 223/448 229/452 
f 231/236 225/230 224/231 230/237 
f 232/238 226/232 225/230 231/236 
f 233/239 227/233 226/232 232/238 
f 234/453 228/449 227/450 233/454 
f 229/452 223/448 228/449 234/453 
f 236/455 230/451 229/452 235/456 
f 237/242 231/236 230/237 236/243 
f 238/244 232/238 231/236 237/242 
f 239/245 233/239 232/238 238/244 
f 240/457 234/453 233/454 239/458 
f 235/456 229/452 234/453 240/457 
f 242/459 236/455 235/456 241/460 
f 243/248 237/242 236/243 242/249 
f 244/250 238/244 237/242 243/248 
f 245/251 239/245 238/244 244/250 
f 246/461 240/457 239/458 245/462 
f 241/460 235/456 240/457 246/461 
f 248/463 242/459 241/460 247/464 
f 249/254 243/248 242/249 248/255 
f 250/256 244/250 243/248 249/254 
f 251/257 245/251 244/250 250/256 
f 252/465 246/461 245/462 251/466 
f 247/464 241/460 246/461 252/465 
f 254/467 248/463 247/464 253/468 
f 255/260 249/254 248/255 254/261 
f 256/262 250/256 249/254 255/260 
f 257/263 251/257 250/256 256/262 
f 258/469 252/465 251/466 257/470 
f 253/468 247/464 252/465 258/469 
f 260/471 254/467 253/468 259/472 
f 261/266 255/260 254/261 260/267 
f 262/268 256/262 255/260 261/266 
f 263/269 257/263 256/262 262/268 
f 264/473 258/469 257/470 263/474 
f 259/472 253/468 258/469 264/473 
f 266/475 260/471 259/472 265/476 
f 267/272 261/266 260/267 266/273 
f 268/274 262/268 261/266 267/272 
f 269/275 263/269 262/268 268/274 
f 270/477 264/473 263/474 269/478 
f 265/476 259/472 264/473 270/477 
f 272/479 266/475 265/476 271/480 
f 273/278 267/272 266/273 272/279 
f 274/280 268/274 267/272 273/278 
f 275/281 269/275 268/274 274/280 
f 276/481 270/477 269/478 275/482 
f 271/480 265/476 270/477 276/481 
f 278/483 272/479 271/480 277/484 
f 279/284 273/278 272/279 278/285 
f 280/286 274/280 273/278 279/284 
f 281/287 275/281 274/280 280/286 
f 282/485 276/481 275/482 281/486 
f 277/484 271/480 276/481 282/485 
f 284/487 278/483 277/484 283/488 
f 285/290 279/284 278/285 284/291 
f 286/292 280/286 279/284 285/290 
f 287/293 281/287 280/286 286/292 
f 288/489 282/485 281/486 287/490 
f 283/488 277/484 282/485 288/489 
f 290/491 284/487 283/488 289/492 
f 291/296 285/290 284/291 290/297 
f 292/298 286/292 285/290 291/296 
f 293/299 287/293 286/292 292/298 
f 294/493 288/489 287/490 293/494 
f 289/492 283/488 288/489 294/493 
f 296/495 290/491 289/492 295/496 
f 297/302 291/296 290/297 296/303 
f 298/304 292/298 291/296 297/302 
f 299/305 293/299 292/298 298/304 
f 300/497 294/493 293/494 299/498 
f 295/496 289/492 294/493 300/497 
f 302/499 296/495 295/496 301/500 
f 303/308 297/302 296/303 302/309 
f 304/310 298/304 297/302 303/308 
f 305/311 299/305 298/304 304/310 
f 306/501 300/497 299/498 305/502 
f 301/500 295/496 300/497 306/501 
f 308/503 302/499 301/500 307/504 
f 309/314 303/308 302/309 308/315 
f 310/316 304/310 303/308 309/314 
f 311/317 305/311 304/310 310/316 
f 312/505 306/501 305/502 311/506 
f 307/504 301/500 306/501 312/505 
f 314/507 308/503 307/504 313/508 
f 315/320 309/314 308/315 314/321 
f 316/322 310/316 309/314 315/320 
f 317/323 311/317 310/316 316/322 
f 318/509 312/505 311/506 317/510 
f 313/508 307/504 312/505 318/509 
f 320/511 314/507 313/508 319/512 
f 321/326 315/320 314/321 320/327 
f 322/328 316/322 315/320 321/326 
f 323/329 317/323 316/322 322/328 
f 324/513 318/509 317/510 323/514 
f 319/512 313/508 318/509 324/513 
f 326/515 320/511 319/512 325/516 
f 327/332 321/326 320/327 326/333 
f 328/334 322/328 321/326 327/332 
f 329/335 323/329 322/328 328/334 
f 330/517 324/513 323/514 329/518 
f 325/516 319/512 324/513 330/517 
f 332/519 326/515 325/516 331/520 
f 333/338 327/332 326/333 332/339 
f 334/340 328/334 327/332 333/338 
f 335/341 329/335 328/334 334/340 
f 336/521 330/517 329/518 335/522 
f 331/520 325/516 330/517 336/521 
f 338/523 332/519 331/520 337/524 
f 339/344 333/338 332/339 338/345 
f 340/346 334/340 333/338 339/344 
f 341/347 335/341 334/340 340/346 
f 342/525 336/521 335/522 341/526 
f 337/524 331/520 336/521 342/525 
f 344/527 338/523 337/524 343/528 
f 345/350 339/344 338/345 344/351 
f 346/352 340/346 339/344 345/350 
f 347/353 341/347 340/346 346/352 
f 348/529 342/525 341/526 347/530 
f 343/528 337/524 342/525 348/529 
f 350/531 344/527 343/528 349/532 
f 351/356 345/350 344/351 350/357 
f 352/358 346/352 345/350 351/356 
f 353/359 347/353 346/352 352/358 
f 354/533 348/529 347/530 353/534 
f 349/532 343/528 348/529 354/533 
f 356/535 350/531 349/532 355/536 
f 357/362 351/356 350/357 356/363 
f 358/364 352/358 351/356 357/362 
f 359/365 353/359 352/358 358/364 
f 360/537 354/533 353/534 359/538 
f 355/536 349/532 354/533 360/537 
f 362/539 356/535 355/536 361/540 
f 363/368 357/362 356/363 362/369 
f 364/370 358/364 357/362 363/368 
f 365/371 359/365 358/364 364/370 
f 366/541 360/537 359/538 365/542 
f 361/540 355/536 360/537 366/541 
f 368/543 362/539 361/540 367/544 
f 369/374 363/368 362/369 368/375 
f 370/376 364/370 363/368 369/374 
f 371/377 365/371 364/370 370/376 
f 372/545 366/541 365/542 371/546 
f 367/544 361/540 366/541 372/545 
f 374/547 368/543 367/544 373/548 
f 375/380 369/374 368/375 374/381 
f 376/382 370/376 369/374 375/380 
f 377/383 371/377 370/376 376/382 
f 378/549 372/545 371/546 377/550 
f 373/548 367/544 372/545 378/549 
f 380/551 374/547 373/548 379/552 
f 381/386 375/380 374/381 380/387 
f 382/388 376/382 375/380 381/386 
f 383/389 377/383 376/382 382/388 
f 384/553 378/549 377/550 383/554 
f 379/552 373/548 378/549 384/553 
f 386/555 380/551 379/552 385/556 
f 387/392 381/386 380/387 386/393 
f 388/394 382/388 381/386 387/392 
f 389/395 383/389 382/388 388/394 
f 390/557 384/553 383/554 389/558 
f 385/556 379/552 384/553 390/557 
f 392/559 386/555 385/556 391/560 
f 393/398 387/392 386/393 392/399 
f 394/400 388/394 387/392 393/398 
f 395/401 389/395 388/394 394/400 
f 396/561 390/557 389/558 395/562 
f 391/560 385/556 390/557 396/561 
f 398/563 392/559 391/560 397/564 
f 399/404 393/398 392/399 398/405 
f 400/406 394/400 393/398 399/404 
f 401/407 395/401 394/400 400/406 
f 402/565 396/561 395/562 401/566 
f 397/564 391/560 396/561 402/565 
f 404/567 398/563 397/564 403/568 
f 405/410 399/404 398/405 404/411 
f 406/412 400/406 399/404 405/410 
f 407/413 401/407 400/406 406/412 
f 408/569 402/565 401/566 407/570 
f 403/568 397/564 402/565 408/569 
f 410/571 404/567 403/568 409/572 
f 411/416 405/410 404/411 410/417 
f 412/418 406/412 405/410 411/416 
f 413/419 407/413 406/412 412/418 
f 414/573 408/569 407/570 413/574 
f 409/572 403/568 408/569 414/573 
f 416/575 410/571 409/572 415/576 
f 417/422 411/416 410/417 416/423 
f 418/424 412/418 411/416 417/422 
f 419/425 413/419 412/418 418/424 
f 420/577 414/573 413/574 419/578 
f 415/576 409/572 414/573 420/577 
f 422/583 416/575 415/576 421/584 
f 423/434 417/422 416/423 422/435 
f 424/436 418/424 417/422 423/434 
f 425/437 419/425 418/424 424/436 
f 426/585 420/577 419/578 425/586 
f 421/584 415/576 420/577 426/585 
f 1/7 2/6 428/579 427/580 
f 2/4 3/3 429/428 428/429 
f 3/3 4/9 430/430 429/428 
f 4/9 5/11 431/431 430/430 
f 5/19 6/18 432/581 431/582 
f 6/18 1/7 427/580 432/581 
f 422/583 421/584 433/588 434/593 
f 423/434 422/435 434/440 435/589 
f 424/436 423/434 435/589 436/590 
f 425/437 424/436 436/590 437/591 
f 426/585 425/586 437/594 438/595 
f 421/584 426/585 438/595 433/588 
f 427/580 428/579 439/587 
f 428/429 429/428 439/439 
f 429/428 430/430 439/439 
f 430/430 431/431 439/439 
f 431/582 432/581 439/587 
f 432/581 427/580 439/587 
f 434/593 433/588 440/596 
f 435/589 434/440 440/592 
f 436/590 435/589 440/592 
f 437/591 436/590 440/592 
f 438/595 437/594 440/596 
f 433/588 438/595 440/596 
# 432 polygons - 12 triangles

