# 3ds Max Wavefront OBJ Exporter v0.97b - (c)2007 guruware
# File Created: 03.08.2021 15:08:36

#
# object 1?_??___??1
#

v  25.506655 3.720718 35.475430
v  25.492418 4.538249 35.528564
v  27.105194 3.720718 35.903755
v  27.090958 4.538249 35.956894
v  25.498997 3.718729 35.504013
v  25.484760 4.536259 35.557144
v  27.097536 3.718729 35.932343
v  27.083300 4.536259 35.985470
v  25.744600 4.575627 35.639595
v  26.140419 4.598137 35.781174
v  26.403467 4.598137 35.851658
v  26.817043 4.575627 35.926956
v  26.831282 3.720718 35.873821
v  26.417704 3.720718 35.798523
v  26.154655 3.720718 35.728039
v  25.758839 3.720718 35.586460
v  26.809387 4.573638 35.955536
v  26.395809 4.596147 35.880238
v  26.132761 4.596147 35.809753
v  25.736942 4.573638 35.668175
v  25.751179 3.718729 35.615044
v  26.146999 3.718729 35.756618
v  26.410048 3.718729 35.827103
v  26.823624 3.718729 35.902405
v  25.816288 2.243986 33.581345
v  25.912821 2.243986 33.520386
v  25.912821 2.414203 33.520386
v  25.816288 2.414203 33.581345
v  27.730644 2.243986 34.007473
v  27.783760 2.243986 34.108528
v  27.783760 2.414203 34.108528
v  27.730644 2.414203 34.007473
v  25.479563 2.243987 35.358479
v  25.431835 2.243987 35.258869
v  25.431835 2.414203 35.258869
v  25.479563 2.414203 35.358479
v  27.277946 2.243987 35.753532
v  27.186806 2.243987 35.815933
v  27.186806 2.414203 35.815933
v  27.277946 2.414203 35.753532
v  27.083836 0.273651 35.780521
v  27.098375 0.273651 35.772114
v  27.062574 4.617929 35.905727
v  27.048035 4.617929 35.914131
v  27.202040 0.273651 35.799892
v  27.210428 0.273651 35.814442
v  27.174627 4.617929 35.948051
v  27.166239 4.617929 35.933502
v  27.064455 0.273651 35.898708
v  27.056067 0.273651 35.884163
v  27.020264 4.617929 36.017773
v  27.028652 4.617929 36.032322
v  27.182659 0.273651 35.918083
v  27.168119 0.273651 35.926483
v  27.132317 4.617929 36.060101
v  27.146856 4.617929 36.051693
v  27.098375 2.414203 35.772114
v  27.083836 2.414203 35.780521
v  27.202042 2.414203 35.799889
v  27.210428 2.414203 35.814442
v  27.182659 2.414203 35.918083
v  27.168119 2.414203 35.926487
v  27.064453 2.414203 35.898712
v  27.056067 2.414203 35.884163
v  25.453833 0.273651 35.343761
v  25.468372 0.273651 35.335358
v  25.432570 4.617929 35.468967
v  25.418032 4.617929 35.477375
v  25.572037 0.273651 35.363132
v  25.580425 0.273651 35.377682
v  25.544624 4.617929 35.511295
v  25.536236 4.617929 35.496746
v  25.434450 0.273651 35.461952
v  25.426062 0.273651 35.447403
v  25.390261 4.617929 35.581017
v  25.398649 4.617929 35.595566
v  25.552654 0.273651 35.481323
v  25.538115 0.273651 35.489731
v  25.502314 4.617929 35.623344
v  25.516853 4.617929 35.614937
v  25.468372 2.414203 35.335354
v  25.453833 2.414203 35.343761
v  25.572037 2.414203 35.363132
v  25.580425 2.414203 35.377682
v  25.552654 2.414203 35.481323
v  25.538115 2.414203 35.489731
v  25.434450 2.414203 35.461952
v  25.426062 2.414203 35.447403
v  27.540884 0.273650 34.074799
v  27.555418 0.273650 34.066406
v  27.659084 0.273650 34.094181
v  27.667477 0.273650 34.108719
v  27.521498 0.273650 34.192997
v  27.513105 0.273650 34.178463
v  27.639698 0.273650 34.212383
v  27.625164 0.273650 34.220776
v  27.555418 2.374170 34.066406
v  27.540884 2.374170 34.074799
v  27.667477 2.374170 34.108719
v  27.659084 2.374170 34.094181
v  27.625164 2.374170 34.220776
v  27.639698 2.374170 34.212383
v  27.513107 2.374170 34.178463
v  27.521498 2.374170 34.192997
v  25.903711 0.273650 33.636120
v  25.918253 0.273650 33.627728
v  26.021912 0.273650 33.655502
v  26.030310 0.273650 33.670040
v  25.884333 0.273650 33.754322
v  25.875935 0.273650 33.739784
v  26.002533 0.273650 33.773705
v  25.987991 0.273650 33.782097
v  25.918253 2.374170 33.627728
v  25.903711 2.374170 33.636120
v  26.030310 2.374170 33.670040
v  26.021914 2.374170 33.655502
v  25.987991 2.374170 33.782097
v  26.002533 2.374170 33.773705
v  25.875935 2.374170 33.739784
v  25.884333 2.374170 33.754322
v  25.946566 2.243986 33.579041
v  25.854937 2.243986 33.636902
v  27.722517 2.243986 34.137318
v  27.672094 2.243986 34.041397
v  27.155869 2.243987 35.758038
v  27.242380 2.243987 35.698803
v  25.490000 2.243987 35.229252
v  25.535303 2.243987 35.323807
v  25.946566 2.353474 33.579041
v  25.854937 2.353474 33.636902
v  27.722517 2.353474 34.137318
v  27.672094 2.353474 34.041397
v  27.155869 2.353474 35.758038
v  27.242380 2.353474 35.698803
v  25.490000 2.353474 35.229252
v  25.535303 2.353474 35.323807
# 136 vertices

vt 0.897534 0.991004 0.000000
vt 0.000304 0.387536 0.000000
vt 0.000306 0.950264 0.000000
vt 0.000304 0.929337 0.000000
vt 0.000304 0.449097 0.000000
vt 0.000304 0.978358 0.000000
vt 0.417855 0.974391 0.000000
vt 0.729497 0.999696 0.000000
vt 0.647205 0.138362 0.000000
vt 0.339108 0.999696 0.000000
vt 0.644892 0.114525 0.000000
vt 0.875587 0.373603 0.000000
vt 0.828460 0.766418 0.000000
vt 0.840565 0.749957 0.000000
vt 0.848408 0.880974 0.000000
vt 0.513921 0.434515 0.000000
vt 0.567199 0.440303 0.000000
vt 0.432801 0.380262 0.000000
vt 0.446598 0.040312 0.000000
vt 0.670434 0.135441 0.000000
vt 0.875587 0.376875 0.000000
vt 0.875587 0.352688 0.000000
vt 0.668120 0.111604 0.000000
vt 0.866200 0.422586 0.000000
vt 0.875587 0.431849 0.000000
vt 0.362778 0.433583 0.000000
vt 0.644892 0.088378 0.000000
vt 0.848562 0.876938 0.000000
vt 0.848415 0.852732 0.000000
vt 0.417784 0.852686 0.000000
vt 0.417129 0.831812 0.000000
vt 0.647205 0.085454 0.000000
vt 0.644892 0.056991 0.000000
vt 0.417857 0.855961 0.000000
vt 0.644892 0.062228 0.000000
vt 0.647205 0.059912 0.000000
vt 0.417858 0.876896 0.000000
vt 0.647207 0.059304 0.000000
vt 0.377717 0.725266 0.000000
vt 0.412793 0.042194 0.000000
vt 0.466749 0.270923 0.000000
vt 0.647207 0.033762 0.000000
vt 0.647205 0.112212 0.000000
vt 0.670433 0.161589 0.000000
vt 0.644892 0.161589 0.000000
vt 0.466230 0.397790 0.000000
vt 0.670434 0.088378 0.000000
vt 0.850628 0.757738 0.000000
vt 0.647205 0.086062 0.000000
vt 0.670434 0.056991 0.000000
vt 0.897534 0.325229 0.000000
vt 0.467170 0.188999 0.000000
vt 0.377717 0.433583 0.000000
vt 0.423379 0.399129 0.000000
vt 0.417058 0.905207 0.000000
vt 0.848550 0.974476 0.000000
vt 0.668120 0.138362 0.000000
vt 0.787074 0.681514 0.000000
vt 0.787074 0.684787 0.000000
vt 0.787074 0.705702 0.000000
vt 0.787074 0.636412 0.000000
vt 0.417785 0.880176 0.000000
vt 0.514141 0.440303 0.000000
vt 0.851236 0.439053 0.000000
vt 0.727390 0.734806 0.000000
vt 0.787074 0.612225 0.000000
vt 0.392456 0.759425 0.000000
vt 0.014679 0.025208 0.000000
vt 0.677742 0.015093 0.000000
vt 0.644892 0.015093 0.000000
vt 0.846954 0.807621 0.000000
vt 0.417782 0.977671 0.000000
vt 0.052751 0.398854 0.000000
vt 0.670433 0.140678 0.000000
vt 0.759934 0.725265 0.000000
vt 0.377109 0.449097 0.000000
vt 0.466230 0.401062 0.000000
vt 0.876196 0.325229 0.000000
vt 0.875587 0.328501 0.000000
vt 0.736551 0.743737 0.000000
vt 0.360228 0.978358 0.000000
vt 0.431602 0.434125 0.000000
vt 0.417056 0.926069 0.000000
vt 0.417783 0.950181 0.000000
vt 0.417787 0.881096 0.000000
vt 0.377717 0.684787 0.000000
vt 0.677742 0.018365 0.000000
vt 0.466230 0.376875 0.000000
vt 0.875587 0.401063 0.000000
vt 0.875587 0.421978 0.000000
vt 0.466230 0.421977 0.000000
vt 0.848419 0.880212 0.000000
vt 0.377717 0.708974 0.000000
vt 0.377717 0.743736 0.000000
vt 0.848405 0.977749 0.000000
vt 0.875587 0.325229 0.000000
vt 0.020737 0.978358 0.000000
vt 0.020737 0.999696 0.000000
vt 0.050437 0.000304 0.000000
vt 0.000323 0.880869 0.000000
vt 0.417785 0.783601 0.000000
vt 0.352190 0.782772 0.000000
vt 0.466230 0.325229 0.000000
vt 0.395695 0.031966 0.000000
vt 0.647205 0.163904 0.000000
vt 0.400766 0.749698 0.000000
vt 0.847103 0.929385 0.000000
vt 0.644892 0.018365 0.000000
vt 0.875587 0.765522 0.000000
vt 0.633699 0.054023 0.000000
vt 0.638505 0.135924 0.000000
vt 0.644284 0.188946 0.000000
vt 0.638506 0.189001 0.000000
vt 0.644284 0.135979 0.000000
vt 0.848400 0.783437 0.000000
vt 0.000308 0.876985 0.000000
vt 0.041155 0.052262 0.000000
vt 0.417129 0.804475 0.000000
vt 0.670434 0.083139 0.000000
vt 0.866201 0.774107 0.000000
vt 0.708377 0.978357 0.000000
vt 0.876196 0.664036 0.000000
vt 0.876195 0.991004 0.000000
vt 0.000307 0.974474 0.000000
vt 0.847104 0.831847 0.000000
vt 0.417056 0.828574 0.000000
vt 0.744152 0.709582 0.000000
vt 0.735249 0.719311 0.000000
vt 0.702799 0.439323 0.000000
vt 0.465622 0.382099 0.000000
vt 0.423183 0.432975 0.000000
vt 0.847103 0.901858 0.000000
vt 0.787074 0.660599 0.000000
vt 0.377717 0.681515 0.000000
vt 0.750230 0.734198 0.000000
vt 0.897534 0.664036 0.000000
vt 0.009045 0.048411 0.000000
vt 0.466230 0.000304 0.000000
vt 0.659681 0.000304 0.000000
vt 0.662952 0.000304 0.000000
vt 0.000305 0.926034 0.000000
vt 0.000311 0.901795 0.000000
vt 0.846960 0.926085 0.000000
vt 0.837875 0.775079 0.000000
vt 0.000305 0.828546 0.000000
vt 0.000322 0.783380 0.000000
vt 0.847097 0.804321 0.000000
vt 0.670434 0.062228 0.000000
vt 0.000305 0.856050 0.000000
vt 0.649106 0.439873 0.000000
vt 0.639476 0.270851 0.000000
vt 0.631704 0.324542 0.000000
vt 0.631704 0.000383 0.000000
vt 0.639476 0.054074 0.000000
vt 0.625918 0.000394 0.000000
vt 0.377717 0.705702 0.000000
vt 0.828460 0.431822 0.000000
vt 0.417129 0.929307 0.000000
vt 0.668120 0.112212 0.000000
vt 0.377717 0.612225 0.000000
vt 0.466230 0.352688 0.000000
vt 0.466230 0.349416 0.000000
vt 0.466230 0.328500 0.000000
vt 0.837876 0.422586 0.000000
vt 0.360228 0.999696 0.000000
vt 0.875587 0.397790 0.000000
vt 0.670434 0.114525 0.000000
vt 0.466749 0.054002 0.000000
vt 0.034690 0.388307 0.000000
vt 0.662952 0.033154 0.000000
vt 0.000307 0.852775 0.000000
vt 0.000305 0.953539 0.000000
vt 0.659681 0.033154 0.000000
vt 0.000309 0.880260 0.000000
vt 0.000308 0.977749 0.000000
vt 0.339108 0.978358 0.000000
vt 0.000304 0.999696 0.000000
vt 0.467170 0.135926 0.000000
vt 0.668118 0.033762 0.000000
vt 0.647205 0.137754 0.000000
vt 0.644892 0.135441 0.000000
vt 0.644892 0.140678 0.000000
vt 0.377717 0.660600 0.000000
vt 0.668120 0.086062 0.000000
vt 0.670434 0.109289 0.000000
vt 0.647205 0.111604 0.000000
vt 0.048985 0.430805 0.000000
vt 0.787074 0.633140 0.000000
vt 0.875587 0.349416 0.000000
vt 0.876196 0.643603 0.000000
vt 0.567208 0.611617 0.000000
vt 0.846958 0.828548 0.000000
vt 0.417057 0.807711 0.000000
vt 0.702740 0.599016 0.000000
vt 0.649109 0.606813 0.000000
vt 0.848562 0.856005 0.000000
vt 0.460394 0.406925 0.000000
vt 0.846960 0.905158 0.000000
vt 0.848410 0.950270 0.000000
vt 0.848555 0.953543 0.000000
vt 0.377717 0.657328 0.000000
vt 0.365487 0.767258 0.000000
vt 0.014635 0.433583 0.000000
vt 0.011925 0.767258 0.000000
vt 0.787074 0.657327 0.000000
vt 0.644892 0.109289 0.000000
vt 0.897534 0.643603 0.000000
vt 0.861383 0.447480 0.000000
vt 0.466230 0.373604 0.000000
vt 0.708377 0.999696 0.000000
vt 0.567419 0.434515 0.000000
vt 0.417855 0.953457 0.000000
vt 0.417130 0.901970 0.000000
vt 0.377717 0.636413 0.000000
vt 0.377717 0.633141 0.000000
vt 0.000309 0.807618 0.000000
vt 0.000311 0.804307 0.000000
vt 0.668118 0.059304 0.000000
vt 0.387418 0.734198 0.000000
vt 0.668120 0.085454 0.000000
vt 0.670434 0.036076 0.000000
vt 0.644892 0.036076 0.000000
vt 0.000304 0.831849 0.000000
vt 0.399181 0.000304 0.000000
vt 0.668120 0.059912 0.000000
vt 0.787074 0.708974 0.000000
vt 0.422342 0.006500 0.000000
vt 0.025223 0.782772 0.000000
vt 0.466230 0.324621 0.000000
vt 0.633699 0.270902 0.000000
vt 0.378599 0.599016 0.000000
vt 0.625918 0.324531 0.000000
vt 0.432230 0.606813 0.000000
vt 0.378541 0.439323 0.000000
vt 0.432234 0.439873 0.000000
vt 0.649738 0.434125 0.000000
vt 0.703623 0.433583 0.000000
vt 0.050437 0.033890 0.000000
vt 0.668120 0.137754 0.000000
vt 0.668120 0.163904 0.000000
vt 0.386775 0.734806 0.000000
vt 0.729497 0.978357 0.000000
vt 0.644892 0.083139 0.000000
vt 0.000309 0.905106 0.000000
vt 0.024890 0.424233 0.000000
vt 0.514132 0.611617 0.000000
# 246 texture coords

o 1?_??___??1
g 1?_??___??1
f 12/230 4/232 3/229 13/41 
f 20/233 6/231 5/234 21/235 
f 13/236 3/237 7/129 24/150 
f 17/151 8/152 4/232 12/230 
f 6/153 20/154 9/110 2/155 
f 20/154 19/114 10/111 9/110 
f 19/114 18/112 11/113 10/111 
f 18/112 17/151 12/230 11/113 
f 1/53 16/82 21/235 5/234 
f 16/82 15/16 22/63 21/235 
f 15/16 14/211 23/17 22/63 
f 14/211 13/236 24/150 23/17 
f 8/194 17/195 24/150 7/129 
f 17/195 18/191 23/17 24/150 
f 18/191 19/246 22/63 23/17 
f 19/246 20/233 21/235 22/63 
f 2/155 9/110 16/168 1/138 
f 9/110 10/111 15/178 16/168 
f 10/111 11/113 14/52 15/178 
f 11/113 12/230 13/41 14/52 
f 43/71 48/192 59/126 57/193 
f 47/125 56/29 61/30 60/31 
f 55/196 52/28 63/37 62/34 
f 57/193 59/126 45/145 42/216 
f 64/101 58/118 41/217 50/146 
f 51/115 44/147 58/118 64/101 
f 60/31 61/30 53/171 46/223 
f 65/35 70/148 77/119 74/243 
f 62/34 63/37 49/116 54/149 
f 51/179 56/218 47/38 44/42 
f 26/39 29/127 124/128 121/219 
f 39/104 36/238 33/99 38/224 
f 35/117 40/40 31/18 28/169 
f 35/117 28/169 25/2 34/137 
f 31/18 40/40 37/19 30/130 
f 25/245 28/169 27/73 26/187 
f 31/18 30/130 29/197 32/54 
f 39/104 38/224 37/227 40/40 
f 35/117 34/137 33/68 36/238 
f 27/73 32/54 29/131 26/187 
f 67/198 72/143 83/83 81/55 
f 71/107 80/199 85/84 84/158 
f 79/200 76/56 87/7 86/212 
f 81/55 83/83 69/141 66/244 
f 88/85 82/213 65/142 74/100 
f 75/15 68/132 82/213 88/85 
f 84/158 85/84 77/3 70/4 
f 89/11 92/167 95/20 94/181 
f 86/212 87/7 73/124 78/172 
f 75/44 80/45 71/182 68/74 
f 99/133 102/58 95/134 92/183 
f 101/59 104/60 93/156 96/86 
f 105/139 108/87 111/170 110/70 
f 97/61 100/205 91/201 90/214 
f 103/66 98/188 89/215 94/160 
f 115/21 118/166 111/46 108/88 
f 117/89 120/90 109/91 112/77 
f 113/22 116/12 107/209 106/161 
f 119/79 114/189 105/162 110/163 
f 58/118 44/147 43/71 57/193 
f 60/31 46/223 45/145 59/126 
f 62/34 54/149 53/171 61/30 
f 64/62 50/174 49/116 63/37 
f 41/217 58/118 57/193 42/216 
f 47/125 60/31 59/126 48/192 
f 55/196 62/34 61/30 56/29 
f 51/92 64/62 63/37 52/28 
f 82/213 68/132 67/198 81/55 
f 84/158 70/4 69/141 83/83 
f 86/212 78/172 77/3 85/84 
f 88/72 74/175 73/124 87/7 
f 65/142 82/213 81/55 66/244 
f 71/107 84/158 83/83 72/143 
f 79/200 86/212 85/84 80/199 
f 75/95 88/72 87/7 76/56 
f 99/133 92/183 91/201 100/205 
f 101/59 96/86 95/134 102/58 
f 103/226 94/93 93/156 104/60 
f 89/215 98/188 97/61 90/214 
f 115/21 108/88 107/209 116/12 
f 117/89 112/77 111/46 118/166 
f 119/79 110/163 109/103 120/96 
f 105/162 114/189 113/22 106/161 
f 41/27 46/47 53/185 50/206 
f 123/51 126/207 134/190 131/78 
f 29/127 30/75 123/135 124/128 
f 25/64 26/24 121/25 122/208 
f 38/80 33/67 128/106 125/65 
f 34/120 25/64 122/208 127/109 
f 33/67 34/94 127/241 128/106 
f 37/48 38/144 125/13 126/14 
f 30/164 37/48 126/14 123/157 
f 130/5 131/76 134/202 135/204 
f 121/81 124/121 132/210 129/165 
f 126/207 125/136 133/122 134/190 
f 122/176 121/81 129/165 130/10 
f 125/136 128/1 136/123 133/122 
f 127/97 122/176 130/10 135/98 
f 128/6 127/97 135/98 136/177 
f 124/121 123/242 131/8 132/210 
f 32/54 27/73 28/169 31/18 
f 35/117 36/238 39/104 40/40 
f 130/5 129/203 132/26 131/76 
f 134/202 133/102 136/228 135/204 
f 47/38 48/33 43/222 44/42 
f 51/179 52/221 55/50 56/218 
f 71/182 72/9 67/57 68/74 
f 75/44 76/240 79/105 80/45 
f 53/185 54/23 49/186 50/206 
f 41/27 42/49 45/184 46/47 
f 77/119 78/220 73/32 74/243 
f 65/35 66/36 69/225 70/148 
f 111/170 112/173 109/108 110/70 
f 105/139 106/140 107/69 108/87 
f 95/20 96/239 93/180 94/181 
f 89/11 90/43 91/159 92/167 
# 116 polygons

#
# object 1?_??___??2
#

v  27.279642 3.720718 29.210602
v  27.274849 4.538248 29.155802
v  25.631010 3.720718 29.354839
v  25.626215 4.538248 29.300039
v  27.277063 3.718729 29.181124
v  27.272270 4.536259 29.126328
v  25.628431 3.718729 29.325359
v  25.623636 4.536259 29.270563
v  26.999899 4.575627 29.137718
v  26.579529 4.598137 29.140055
v  26.308237 4.598137 29.163790
v  25.893848 4.575627 29.234486
v  25.898643 3.720718 29.289286
v  26.313032 3.720718 29.218592
v  26.584324 3.720718 29.194857
v  27.004692 3.720718 29.192518
v  25.891270 4.573638 29.205009
v  26.305658 4.596147 29.134315
v  26.576950 4.596147 29.110580
v  26.997320 4.573638 29.108244
v  27.002113 3.718729 29.163040
v  26.581745 3.718729 29.165382
v  26.310453 3.718729 29.189116
v  25.896063 3.718729 29.259806
v  27.636497 2.243986 31.096361
v  27.566635 2.243986 31.186659
v  27.566635 2.414202 31.186659
v  27.636497 2.414202 31.096361
v  25.691847 2.243986 31.350681
v  25.607370 2.243986 31.273888
v  25.607370 2.414202 31.273888
v  25.691847 2.414202 31.350681
v  27.345100 2.243986 29.311234
v  27.424019 2.243986 29.388514
v  27.424019 2.414203 29.388514
v  27.345100 2.414203 29.311234
v  25.520058 2.243986 29.555088
v  25.584358 2.243986 29.465279
v  25.584358 2.414203 29.465279
v  25.520058 2.414203 29.555088
v  25.693230 0.273650 29.463339
v  25.682442 0.273650 29.476212
v  25.670387 4.617929 29.338411
v  25.681173 4.617929 29.325539
v  25.575529 0.273650 29.485565
v  25.562670 0.273650 29.474762
v  25.550615 4.617929 29.336962
v  25.563473 4.617929 29.347765
v  25.671021 0.273650 29.345652
v  25.683878 0.273650 29.356449
v  25.671822 4.617929 29.218651
v  25.658964 4.617929 29.207848
v  25.553318 0.273650 29.367872
v  25.564106 0.273650 29.355005
v  25.552050 4.617929 29.217201
v  25.541264 4.617929 29.230072
v  25.682444 2.414203 29.476212
v  25.693230 2.414203 29.463339
v  25.575529 2.414203 29.485565
v  25.562670 2.414203 29.474762
v  25.553318 2.414203 29.367872
v  25.564106 2.414203 29.355000
v  25.671021 2.414203 29.345646
v  25.683878 2.414203 29.356449
v  27.374313 0.273650 29.316263
v  27.363525 0.273650 29.329136
v  27.351469 4.617929 29.191336
v  27.362257 4.617929 29.178463
v  27.256611 0.273650 29.338490
v  27.243753 0.273650 29.327686
v  27.231697 4.617929 29.189886
v  27.244556 4.617929 29.200689
v  27.352102 0.273650 29.198570
v  27.364962 0.273650 29.209373
v  27.352905 4.617929 29.071575
v  27.340046 4.617929 29.060772
v  27.234402 0.273650 29.220797
v  27.245190 0.273650 29.207924
v  27.233133 4.617929 29.070126
v  27.222345 4.617929 29.082996
v  27.363525 2.414203 29.329136
v  27.374313 2.414203 29.316263
v  27.256613 2.414203 29.338490
v  27.243753 2.414203 29.327686
v  27.234402 2.414203 29.220797
v  27.245190 2.414203 29.207926
v  27.352102 2.414203 29.198570
v  27.364962 2.414203 29.209373
v  25.847137 0.273650 31.222513
v  25.836349 0.273650 31.235371
v  25.729435 0.273650 31.244724
v  25.716578 0.273650 31.233934
v  25.824926 0.273650 31.104811
v  25.837784 0.273650 31.115599
v  25.707224 0.273650 31.127022
v  25.718014 0.273650 31.114164
v  25.836349 2.374169 31.235371
v  25.847137 2.374169 31.222513
v  25.716578 2.374169 31.233936
v  25.729435 2.374169 31.244724
v  25.718014 2.374169 31.114164
v  25.707224 2.374169 31.127022
v  25.837784 2.374169 31.115599
v  25.824926 2.374169 31.104811
v  27.535612 0.273650 31.074791
v  27.524818 0.273650 31.087648
v  27.417910 0.273650 31.097002
v  27.405048 0.273650 31.086214
v  27.513395 0.273650 30.957088
v  27.526258 0.273650 30.967876
v  27.395695 0.273650 30.979300
v  27.406488 0.273650 30.966442
v  27.524818 2.374169 31.087648
v  27.535612 2.374169 31.074791
v  27.405048 2.374169 31.086214
v  27.417910 2.374169 31.097002
v  27.406488 2.374169 30.966442
v  27.395695 2.374169 30.979300
v  27.526258 2.374169 30.967876
v  27.513395 2.374169 30.957088
v  27.514864 2.243986 31.143082
v  27.581179 2.243986 31.057375
v  25.655075 2.243986 31.225887
v  25.735264 2.243986 31.298777
v  25.633230 2.243986 29.509104
v  25.572197 2.243986 29.594353
v  27.379490 2.243986 29.436235
v  27.304579 2.243986 29.362879
v  27.514864 2.353473 31.143082
v  27.581179 2.353473 31.057375
v  25.655075 2.353473 31.225887
v  25.735264 2.353473 31.298777
v  25.633230 2.353474 29.509104
v  25.572197 2.353474 29.594353
v  27.379490 2.353474 29.436235
v  27.304579 2.353474 29.362879
# 136 vertices

vt 0.897534 0.991004 0.000000
vt 0.000304 0.387536 0.000000
vt 0.000306 0.950264 0.000000
vt 0.000304 0.929337 0.000000
vt 0.000304 0.449097 0.000000
vt 0.000304 0.978358 0.000000
vt 0.417855 0.974391 0.000000
vt 0.729497 0.999696 0.000000
vt 0.647205 0.138362 0.000000
vt 0.339108 0.999696 0.000000
vt 0.644892 0.114525 0.000000
vt 0.875587 0.373603 0.000000
vt 0.828460 0.766418 0.000000
vt 0.840565 0.749957 0.000000
vt 0.848408 0.880974 0.000000
vt 0.513921 0.434515 0.000000
vt 0.567199 0.440303 0.000000
vt 0.432801 0.380262 0.000000
vt 0.446598 0.040312 0.000000
vt 0.670434 0.135441 0.000000
vt 0.875587 0.376875 0.000000
vt 0.875587 0.352688 0.000000
vt 0.668120 0.111604 0.000000
vt 0.866200 0.422586 0.000000
vt 0.875587 0.431849 0.000000
vt 0.362778 0.433583 0.000000
vt 0.644892 0.088378 0.000000
vt 0.848562 0.876938 0.000000
vt 0.848415 0.852732 0.000000
vt 0.417784 0.852686 0.000000
vt 0.417129 0.831812 0.000000
vt 0.647205 0.085454 0.000000
vt 0.644892 0.056991 0.000000
vt 0.417857 0.855961 0.000000
vt 0.644892 0.062228 0.000000
vt 0.647205 0.059912 0.000000
vt 0.417858 0.876896 0.000000
vt 0.647207 0.059304 0.000000
vt 0.377717 0.725266 0.000000
vt 0.412793 0.042194 0.000000
vt 0.466749 0.270923 0.000000
vt 0.647207 0.033762 0.000000
vt 0.647205 0.112212 0.000000
vt 0.670433 0.161589 0.000000
vt 0.644892 0.161589 0.000000
vt 0.466230 0.397790 0.000000
vt 0.670434 0.088378 0.000000
vt 0.850628 0.757738 0.000000
vt 0.647205 0.086062 0.000000
vt 0.670434 0.056991 0.000000
vt 0.897534 0.325229 0.000000
vt 0.467170 0.188999 0.000000
vt 0.377717 0.433583 0.000000
vt 0.423379 0.399129 0.000000
vt 0.417058 0.905207 0.000000
vt 0.848550 0.974476 0.000000
vt 0.668120 0.138362 0.000000
vt 0.787074 0.681514 0.000000
vt 0.787074 0.684787 0.000000
vt 0.787074 0.705702 0.000000
vt 0.787074 0.636412 0.000000
vt 0.417785 0.880176 0.000000
vt 0.514141 0.440303 0.000000
vt 0.851236 0.439053 0.000000
vt 0.727390 0.734806 0.000000
vt 0.787074 0.612225 0.000000
vt 0.392456 0.759425 0.000000
vt 0.014679 0.025208 0.000000
vt 0.677742 0.015093 0.000000
vt 0.644892 0.015093 0.000000
vt 0.846954 0.807621 0.000000
vt 0.417782 0.977671 0.000000
vt 0.052751 0.398854 0.000000
vt 0.670433 0.140678 0.000000
vt 0.759934 0.725265 0.000000
vt 0.377109 0.449097 0.000000
vt 0.466230 0.401062 0.000000
vt 0.876196 0.325229 0.000000
vt 0.875587 0.328501 0.000000
vt 0.736551 0.743737 0.000000
vt 0.360228 0.978358 0.000000
vt 0.431602 0.434125 0.000000
vt 0.417056 0.926069 0.000000
vt 0.417783 0.950181 0.000000
vt 0.417787 0.881096 0.000000
vt 0.377717 0.684787 0.000000
vt 0.677742 0.018365 0.000000
vt 0.466230 0.376875 0.000000
vt 0.875587 0.401063 0.000000
vt 0.875587 0.421978 0.000000
vt 0.466230 0.421977 0.000000
vt 0.848419 0.880212 0.000000
vt 0.377717 0.708974 0.000000
vt 0.377717 0.743736 0.000000
vt 0.848405 0.977749 0.000000
vt 0.875587 0.325229 0.000000
vt 0.020737 0.978358 0.000000
vt 0.020737 0.999696 0.000000
vt 0.050437 0.000304 0.000000
vt 0.000323 0.880869 0.000000
vt 0.417785 0.783601 0.000000
vt 0.352190 0.782772 0.000000
vt 0.466230 0.325229 0.000000
vt 0.395695 0.031966 0.000000
vt 0.647205 0.163904 0.000000
vt 0.400766 0.749698 0.000000
vt 0.847103 0.929385 0.000000
vt 0.644892 0.018365 0.000000
vt 0.875587 0.765522 0.000000
vt 0.633699 0.054023 0.000000
vt 0.638505 0.135924 0.000000
vt 0.644284 0.188946 0.000000
vt 0.638506 0.189001 0.000000
vt 0.644284 0.135979 0.000000
vt 0.848400 0.783437 0.000000
vt 0.000308 0.876985 0.000000
vt 0.041155 0.052262 0.000000
vt 0.417129 0.804475 0.000000
vt 0.670434 0.083139 0.000000
vt 0.866201 0.774107 0.000000
vt 0.708377 0.978357 0.000000
vt 0.876196 0.664036 0.000000
vt 0.876195 0.991004 0.000000
vt 0.000307 0.974474 0.000000
vt 0.847104 0.831847 0.000000
vt 0.417056 0.828574 0.000000
vt 0.744152 0.709582 0.000000
vt 0.735249 0.719311 0.000000
vt 0.702799 0.439323 0.000000
vt 0.465622 0.382099 0.000000
vt 0.423183 0.432975 0.000000
vt 0.847103 0.901858 0.000000
vt 0.787074 0.660599 0.000000
vt 0.377717 0.681515 0.000000
vt 0.750230 0.734198 0.000000
vt 0.897534 0.664036 0.000000
vt 0.009045 0.048411 0.000000
vt 0.466230 0.000304 0.000000
vt 0.659681 0.000304 0.000000
vt 0.662952 0.000304 0.000000
vt 0.000305 0.926034 0.000000
vt 0.000311 0.901795 0.000000
vt 0.846960 0.926085 0.000000
vt 0.837875 0.775079 0.000000
vt 0.000305 0.828546 0.000000
vt 0.000322 0.783380 0.000000
vt 0.847097 0.804321 0.000000
vt 0.670434 0.062228 0.000000
vt 0.000305 0.856050 0.000000
vt 0.649106 0.439873 0.000000
vt 0.639476 0.270851 0.000000
vt 0.631704 0.324542 0.000000
vt 0.631704 0.000383 0.000000
vt 0.639476 0.054074 0.000000
vt 0.625918 0.000394 0.000000
vt 0.377717 0.705702 0.000000
vt 0.828460 0.431822 0.000000
vt 0.417129 0.929307 0.000000
vt 0.668120 0.112212 0.000000
vt 0.377717 0.612225 0.000000
vt 0.466230 0.352688 0.000000
vt 0.466230 0.349416 0.000000
vt 0.466230 0.328500 0.000000
vt 0.837876 0.422586 0.000000
vt 0.360228 0.999696 0.000000
vt 0.875587 0.397790 0.000000
vt 0.670434 0.114525 0.000000
vt 0.466749 0.054002 0.000000
vt 0.034690 0.388307 0.000000
vt 0.662952 0.033154 0.000000
vt 0.000307 0.852775 0.000000
vt 0.000305 0.953539 0.000000
vt 0.659681 0.033154 0.000000
vt 0.000309 0.880260 0.000000
vt 0.000308 0.977749 0.000000
vt 0.339108 0.978358 0.000000
vt 0.000304 0.999696 0.000000
vt 0.467170 0.135926 0.000000
vt 0.668118 0.033762 0.000000
vt 0.647205 0.137754 0.000000
vt 0.644892 0.135441 0.000000
vt 0.644892 0.140678 0.000000
vt 0.377717 0.660600 0.000000
vt 0.668120 0.086062 0.000000
vt 0.670434 0.109289 0.000000
vt 0.647205 0.111604 0.000000
vt 0.048985 0.430805 0.000000
vt 0.787074 0.633140 0.000000
vt 0.875587 0.349416 0.000000
vt 0.876196 0.643603 0.000000
vt 0.567208 0.611617 0.000000
vt 0.846958 0.828548 0.000000
vt 0.417057 0.807711 0.000000
vt 0.702740 0.599016 0.000000
vt 0.649109 0.606813 0.000000
vt 0.848562 0.856005 0.000000
vt 0.460394 0.406925 0.000000
vt 0.846960 0.905158 0.000000
vt 0.848410 0.950270 0.000000
vt 0.848555 0.953543 0.000000
vt 0.377717 0.657328 0.000000
vt 0.365487 0.767258 0.000000
vt 0.014635 0.433583 0.000000
vt 0.011925 0.767258 0.000000
vt 0.787074 0.657327 0.000000
vt 0.644892 0.109289 0.000000
vt 0.897534 0.643603 0.000000
vt 0.861383 0.447480 0.000000
vt 0.466230 0.373604 0.000000
vt 0.708377 0.999696 0.000000
vt 0.567419 0.434515 0.000000
vt 0.417855 0.953457 0.000000
vt 0.417130 0.901970 0.000000
vt 0.377717 0.636413 0.000000
vt 0.377717 0.633141 0.000000
vt 0.000309 0.807618 0.000000
vt 0.000311 0.804307 0.000000
vt 0.668118 0.059304 0.000000
vt 0.387418 0.734198 0.000000
vt 0.668120 0.085454 0.000000
vt 0.670434 0.036076 0.000000
vt 0.644892 0.036076 0.000000
vt 0.000304 0.831849 0.000000
vt 0.399181 0.000304 0.000000
vt 0.668120 0.059912 0.000000
vt 0.787074 0.708974 0.000000
vt 0.422342 0.006500 0.000000
vt 0.025223 0.782772 0.000000
vt 0.466230 0.324621 0.000000
vt 0.633699 0.270902 0.000000
vt 0.378599 0.599016 0.000000
vt 0.625918 0.324531 0.000000
vt 0.432230 0.606813 0.000000
vt 0.378541 0.439323 0.000000
vt 0.432234 0.439873 0.000000
vt 0.649738 0.434125 0.000000
vt 0.703623 0.433583 0.000000
vt 0.050437 0.033890 0.000000
vt 0.668120 0.137754 0.000000
vt 0.668120 0.163904 0.000000
vt 0.386775 0.734806 0.000000
vt 0.729497 0.978357 0.000000
vt 0.644892 0.083139 0.000000
vt 0.000309 0.905106 0.000000
vt 0.024890 0.424233 0.000000
vt 0.514132 0.611617 0.000000
# 246 texture coords

o 1?_??___??2
g 1?_??___??2
f 148/476 140/478 139/475 149/287 
f 156/479 142/477 141/480 157/481 
f 149/482 139/483 143/375 160/396 
f 153/397 144/398 140/478 148/476 
f 142/399 156/400 145/356 138/401 
f 156/400 155/360 146/357 145/356 
f 155/360 154/358 147/359 146/357 
f 154/358 153/397 148/476 147/359 
f 137/299 152/328 157/481 141/480 
f 152/328 151/262 158/309 157/481 
f 151/262 150/457 159/263 158/309 
f 150/457 149/482 160/396 159/263 
f 144/440 153/441 160/396 143/375 
f 153/441 154/437 159/263 160/396 
f 154/437 155/492 158/309 159/263 
f 155/492 156/479 157/481 158/309 
f 138/401 145/356 152/414 137/384 
f 145/356 146/357 151/424 152/414 
f 146/357 147/359 150/298 151/424 
f 147/359 148/476 149/287 150/298 
f 179/317 184/438 195/372 193/439 
f 183/371 192/275 197/276 196/277 
f 191/442 188/274 199/283 198/280 
f 193/439 195/372 181/391 178/462 
f 200/347 194/364 177/463 186/392 
f 187/361 180/393 194/364 200/347 
f 196/277 197/276 189/417 182/469 
f 201/281 206/394 213/365 210/489 
f 198/280 199/283 185/362 190/395 
f 187/425 192/464 183/284 180/288 
f 162/285 165/373 260/374 257/465 
f 175/350 172/484 169/345 174/470 
f 171/363 176/286 167/264 164/415 
f 171/363 164/415 161/248 170/383 
f 167/264 176/286 173/265 166/376 
f 161/491 164/415 163/319 162/433 
f 167/264 166/376 165/443 168/300 
f 175/350 174/470 173/473 176/286 
f 171/363 170/383 169/314 172/484 
f 163/319 168/300 165/377 162/433 
f 203/444 208/389 219/329 217/301 
f 207/353 216/445 221/330 220/404 
f 215/446 212/302 223/253 222/458 
f 217/301 219/329 205/387 202/490 
f 224/331 218/459 201/388 210/346 
f 211/261 204/378 218/459 224/331 
f 220/404 221/330 213/249 206/250 
f 225/257 228/413 231/266 230/427 
f 222/458 223/253 209/370 214/418 
f 211/290 216/291 207/428 204/320 
f 235/379 238/304 231/380 228/429 
f 237/305 240/306 229/402 232/332 
f 241/385 244/333 247/416 246/316 
f 233/307 236/451 227/447 226/460 
f 239/312 234/434 225/461 230/406 
f 251/267 254/412 247/292 244/334 
f 253/335 256/336 245/337 248/323 
f 249/268 252/258 243/455 242/407 
f 255/325 250/435 241/408 246/409 
f 194/364 180/393 179/317 193/439 
f 196/277 182/469 181/391 195/372 
f 198/280 190/395 189/417 197/276 
f 200/308 186/420 185/362 199/283 
f 177/463 194/364 193/439 178/462 
f 183/371 196/277 195/372 184/438 
f 191/442 198/280 197/276 192/275 
f 187/338 200/308 199/283 188/274 
f 218/459 204/378 203/444 217/301 
f 220/404 206/250 205/387 219/329 
f 222/458 214/418 213/249 221/330 
f 224/318 210/421 209/370 223/253 
f 201/388 218/459 217/301 202/490 
f 207/353 220/404 219/329 208/389 
f 215/446 222/458 221/330 216/445 
f 211/341 224/318 223/253 212/302 
f 235/379 228/429 227/447 236/451 
f 237/305 232/332 231/380 238/304 
f 239/472 230/339 229/402 240/306 
f 225/461 234/434 233/307 226/460 
f 251/267 244/334 243/455 252/258 
f 253/335 248/323 247/292 254/412 
f 255/325 246/409 245/349 256/342 
f 241/408 250/435 249/268 242/407 
f 177/273 182/293 189/431 186/452 
f 259/297 262/453 270/436 267/324 
f 165/373 166/321 259/381 260/374 
f 161/310 162/270 257/271 258/454 
f 174/326 169/313 264/352 261/311 
f 170/366 161/310 258/454 263/355 
f 169/313 170/340 263/487 264/352 
f 173/294 174/390 261/259 262/260 
f 166/410 173/294 262/260 259/403 
f 266/251 267/322 270/448 271/450 
f 257/327 260/367 268/456 265/411 
f 262/453 261/382 269/368 270/436 
f 258/422 257/327 265/411 266/256 
f 261/382 264/247 272/369 269/368 
f 263/343 258/422 266/256 271/344 
f 264/252 263/343 271/344 272/423 
f 260/367 259/488 267/254 268/456 
f 168/300 163/319 164/415 167/264 
f 171/363 172/484 175/350 176/286 
f 266/251 265/449 268/272 267/322 
f 270/448 269/348 272/474 271/450 
f 183/284 184/279 179/468 180/288 
f 187/425 188/467 191/296 192/464 
f 207/428 208/255 203/303 204/320 
f 211/290 212/486 215/351 216/291 
f 189/431 190/269 185/432 186/452 
f 177/273 178/295 181/430 182/293 
f 213/365 214/466 209/278 210/489 
f 201/281 202/282 205/471 206/394 
f 247/416 248/419 245/354 246/316 
f 241/385 242/386 243/315 244/333 
f 231/266 232/485 229/426 230/427 
f 225/257 226/289 227/405 228/413 
# 116 polygons

