# 3ds Max Wavefront OBJ Exporter v0.97b - (c)2007 guruware
# File Created: 03.08.2021 16:07:48

#
# object ??_??1
#

v  32.413261 11.403139 43.886162
v  32.413261 11.762293 43.886162
v  23.528387 11.403139 43.886162
v  23.528387 11.762293 43.886162
v  32.413261 11.403138 43.822014
v  32.413261 11.762293 43.822014
v  23.528387 11.403139 43.822014
v  23.528387 11.762293 43.822014
v  32.507133 12.143970 46.577095
v  32.507133 12.252871 46.577095
v  23.412016 12.143970 46.577095
v  23.412016 12.252871 46.577095
v  32.507133 12.143969 43.839005
v  32.507133 12.252870 43.839005
v  23.412016 12.143969 43.839005
v  23.412016 12.252871 43.839005
v  32.507133 13.929960 46.577095
v  32.507133 14.038864 46.577095
v  23.412016 13.929960 46.577095
v  23.412016 14.038865 46.577095
v  32.507133 13.929960 43.839005
v  32.507133 14.038864 43.839005
v  23.412016 13.929960 43.839005
v  23.412016 14.038864 43.839005
v  32.507133 15.715954 46.577095
v  32.507133 15.824856 46.577095
v  23.412016 15.715955 46.577095
v  23.412016 15.824856 46.577095
v  32.507133 15.715954 43.839001
v  32.507133 15.824854 43.839005
v  23.412016 15.715954 43.839005
v  23.412016 15.824856 43.839005
v  32.507133 17.501945 46.577095
v  32.507133 17.610851 46.577095
v  23.412016 17.501945 46.577095
v  23.412016 17.610851 46.577095
v  32.507133 17.501944 43.839001
v  32.507133 17.610849 43.839001
v  23.412016 17.501945 43.839001
v  23.412016 17.610849 43.839001
v  32.507133 19.287939 46.577095
v  32.507133 19.396839 46.577095
v  23.412016 19.287941 46.577095
v  23.412016 19.396841 46.577095
v  32.507133 19.287941 43.839001
v  32.507133 19.396839 43.839001
v  23.412016 19.287941 43.839001
v  23.412016 19.396841 43.839001
v  32.581245 10.626915 44.189445
v  32.581245 19.950218 44.189449
v  32.581245 10.626915 43.753471
v  32.581245 19.950218 43.753468
v  32.177788 10.626915 43.753471
v  32.177788 19.950218 43.753468
v  32.177788 10.626915 43.835835
v  32.177788 19.950218 43.835835
v  32.581245 10.626915 43.835835
v  32.581245 19.950218 43.835835
v  32.516693 10.626915 44.189445
v  32.516693 19.950218 44.189449
v  32.516693 10.626915 43.753471
v  32.516693 19.950218 43.753468
v  32.516693 19.950218 43.835835
v  32.516693 10.626915 43.835835
v  23.714071 10.626915 43.749043
v  23.714071 19.950218 43.749043
v  23.338923 10.626915 43.749043
v  23.338923 19.950218 43.749043
v  23.338923 10.626916 44.217926
v  23.338923 19.950218 44.217926
v  23.409794 10.626916 44.217926
v  23.409794 19.950218 44.217926
v  23.409794 10.626915 43.749043
v  23.409794 19.950218 43.749043
v  23.714071 10.626915 43.824066
v  23.714071 19.950218 43.824062
v  23.338923 10.626915 43.824066
v  23.338923 19.950218 43.824062
v  23.409794 19.950218 43.824062
v  23.409794 10.626915 43.824066
v  23.341976 10.626916 46.224388
v  23.341976 19.950218 46.224388
v  23.341976 10.626916 46.660366
v  23.341976 19.950218 46.660366
v  23.745438 10.626916 46.660366
v  23.745438 19.950218 46.660366
v  23.745438 10.626916 46.578003
v  23.745438 19.950218 46.578003
v  23.341976 10.626916 46.578003
v  23.341976 19.950218 46.578003
v  23.406528 10.626916 46.224388
v  23.406528 19.950218 46.224388
v  23.406528 10.626916 46.660366
v  23.406528 19.950218 46.660366
v  23.406528 19.950218 46.578003
v  23.406528 10.626916 46.578003
v  32.209156 10.626916 46.664791
v  32.209156 19.950218 46.664787
v  32.584301 10.626916 46.664791
v  32.584301 19.950218 46.664787
v  32.584301 10.626916 46.195911
v  32.584301 19.950218 46.195908
v  32.513432 10.626916 46.195911
v  32.513432 19.950218 46.195908
v  32.513432 10.626916 46.664791
v  32.513432 19.950218 46.664787
v  32.209156 10.626916 46.589771
v  32.209156 19.950218 46.589767
v  32.584301 10.626916 46.589771
v  32.584301 19.950218 46.589767
v  32.513432 19.950218 46.589767
v  32.513432 10.626916 46.589771
v  32.413261 11.403139 46.588142
v  32.413261 11.762293 46.588142
v  23.528387 11.403139 46.588142
v  23.528387 11.762293 46.588142
v  32.413261 11.403139 46.523994
v  32.413261 11.762293 46.523994
v  23.528387 11.403139 46.523994
v  23.528387 11.762293 46.523994
v  23.460180 11.403139 43.985348
v  23.460180 11.762293 43.985348
v  23.460180 11.403139 46.433395
v  23.460180 11.762293 46.433395
v  23.404984 11.403139 43.985348
v  23.404984 11.762293 43.985348
v  23.404984 11.403139 46.433395
v  23.404984 11.762293 46.433395
v  32.514160 11.403139 43.985352
v  32.514160 11.762293 43.985352
v  32.514160 11.403139 46.433395
v  32.514160 11.762293 46.433395
v  32.458961 11.403139 43.985352
v  32.458961 11.762293 43.985352
v  32.458961 11.403139 46.433395
v  32.458961 11.762293 46.433395
v  32.413261 19.499832 43.886166
v  32.413261 19.858986 43.886166
v  23.528387 19.499832 43.886162
v  23.528387 19.858986 43.886166
v  32.413261 19.499832 43.822014
v  32.413261 19.858986 43.822014
v  23.528387 19.499832 43.822014
v  23.528387 19.858986 43.822014
v  32.413261 19.499830 46.588146
v  32.413261 19.858986 46.588146
v  23.528387 19.499832 46.588142
v  23.528387 19.858986 46.588146
v  32.413261 19.499830 46.523994
v  32.413261 19.858986 46.523994
v  23.528387 19.499832 46.523994
v  23.528387 19.858986 46.523994
v  23.460180 19.499832 43.985352
v  23.460180 19.858986 43.985352
v  23.460180 19.499832 46.433395
v  23.460180 19.858986 46.433395
v  23.404984 19.499832 43.985352
v  23.404984 19.858986 43.985352
v  23.404984 19.499832 46.433395
v  23.404984 19.858986 46.433395
v  32.514160 19.499832 43.985352
v  32.514160 19.858986 43.985352
v  32.514160 19.499830 46.433395
v  32.514160 19.858986 46.433395
v  32.458961 19.499832 43.985352
v  32.458961 19.858986 43.985352
v  32.458961 19.499830 46.433395
v  32.458961 19.858986 46.433395
# 168 vertices

vt 0.296951 0.517235 0.000000
vt 0.499646 0.489410 0.000000
vt 0.684320 0.296205 0.000000
vt 0.375610 0.296205 0.000000
vt 0.666448 0.469541 0.000000
vt 0.369826 0.488620 0.000000
vt 0.479820 0.508488 0.000000
vt 0.369826 0.469541 0.000000
vt 0.369825 0.154085 0.000000
vt 0.045171 0.021962 0.000000
vt 0.423888 0.493124 0.000000
vt 0.423888 0.512621 0.000000
vt 0.225813 0.021962 0.000000
vt 0.468176 0.506915 0.000000
vt 0.468176 0.489410 0.000000
vt 0.471890 0.489410 0.000000
vt 0.471890 0.510992 0.000000
vt 0.187090 0.517235 0.000000
vt 0.387097 0.507951 0.000000
vt 0.598540 0.518025 0.000000
vt 0.591965 0.518025 0.000000
vt 0.424677 0.489410 0.000000
vt 0.528192 0.508488 0.000000
vt 0.666448 0.466366 0.000000
vt 0.963860 0.469541 0.000000
vt 0.487750 0.489410 0.000000
vt 0.531368 0.508488 0.000000
vt 0.690105 0.154085 0.000000
vt 0.496470 0.508488 0.000000
vt 0.690895 0.151478 0.000000
vt 0.419810 0.493124 0.000000
vt 0.471890 0.506915 0.000000
vt 0.283255 0.807261 0.000000
vt 0.511542 0.489410 0.000000
vt 0.963860 0.447287 0.000000
vt 0.092754 0.000395 0.000000
vt 0.000395 0.004469 0.000000
vt 0.690895 0.148305 0.000000
vt 0.499646 0.508488 0.000000
vt 0.667238 0.466368 0.000000
vt 0.492505 0.508488 0.000000
vt 0.204596 0.004469 0.000000
vt 0.112238 0.004469 0.000000
vt 0.115949 0.004469 0.000000
vt 0.094732 0.021962 0.000000
vt 0.000395 0.585577 0.000000
vt 0.472679 0.508488 0.000000
vt 0.667238 0.444116 0.000000
vt 0.476644 0.489410 0.000000
vt 0.121582 0.540279 0.000000
vt 0.586180 0.949381 0.000000
vt 0.591965 0.671715 0.000000
vt 0.597750 0.671715 0.000000
vt 0.002374 0.517235 0.000000
vt 0.257182 0.517235 0.000000
vt 0.507576 0.508488 0.000000
vt 0.684320 0.154085 0.000000
vt 0.523437 0.489410 0.000000
vt 0.500436 0.489410 0.000000
vt 0.243558 0.563323 0.000000
vt 0.448678 0.506915 0.000000
vt 0.484575 0.508488 0.000000
vt 0.276680 0.559358 0.000000
vt 0.072456 0.021962 0.000000
vt 0.048883 0.021962 0.000000
vt 0.048891 0.517235 0.000000
vt 0.257173 0.021962 0.000000
vt 0.488540 0.489410 0.000000
vt 0.300665 0.517235 0.000000
vt 0.503611 0.508488 0.000000
vt 0.666448 0.444111 0.000000
vt 0.504401 0.508488 0.000000
vt 0.283255 0.518025 0.000000
vt 0.369825 0.301991 0.000000
vt 0.598540 0.983111 0.000000
vt 0.527402 0.508488 0.000000
vt 0.684321 0.141726 0.000000
vt 0.133458 0.517235 0.000000
vt 0.963860 0.488620 0.000000
vt 0.448678 0.510992 0.000000
vt 0.121582 0.559357 0.000000
vt 0.243558 0.607832 0.000000
vt 0.369825 0.492444 0.000000
vt 0.535333 0.489410 0.000000
vt 0.229888 0.021962 0.000000
vt 0.507576 0.489410 0.000000
vt 0.424677 0.510992 0.000000
vt 0.598540 0.938606 0.000000
vt 0.115952 0.517235 0.000000
vt 0.112238 0.000395 0.000000
vt 0.208307 0.004469 0.000000
vt 0.487750 0.508488 0.000000
vt 0.520262 0.489410 0.000000
vt 0.516296 0.508488 0.000000
vt 0.092754 0.004469 0.000000
vt 0.300665 0.021962 0.000000
vt 0.296954 0.021962 0.000000
vt 0.019879 0.004469 0.000000
vt 0.023590 0.004469 0.000000
vt 0.185112 0.004469 0.000000
vt 0.023593 0.517235 0.000000
vt 0.019879 0.021962 0.000000
vt 0.684320 0.006180 0.000000
vt 0.690105 0.006180 0.000000
vt 0.243558 0.585577 0.000000
vt 0.002373 0.021962 0.000000
vt 0.225816 0.517235 0.000000
vt 0.586180 0.813835 0.000000
vt 0.963860 0.466366 0.000000
vt 0.515507 0.508488 0.000000
vt 0.598540 0.941779 0.000000
vt 0.428391 0.489410 0.000000
vt 0.684321 0.289631 0.000000
vt 0.447889 0.493487 0.000000
vt 0.666448 0.447287 0.000000
vt 0.155493 0.559358 0.000000
vt 0.524227 0.489410 0.000000
vt 0.591965 0.807261 0.000000
vt 0.121582 0.563323 0.000000
vt 0.296954 0.004469 0.000000
vt 0.300665 0.004469 0.000000
vt 0.122371 0.582402 0.000000
vt 0.122371 0.585577 0.000000
vt 0.277470 0.004469 0.000000
vt 0.591965 0.665140 0.000000
vt 0.598540 0.937811 0.000000
vt 0.276671 0.021961 0.000000
vt 0.895162 0.938601 0.000000
vt 0.141249 0.517235 0.000000
vt 0.279446 0.517235 0.000000
vt 0.535333 0.508488 0.000000
vt 0.512331 0.508488 0.000000
vt 0.349538 0.517235 0.000000
vt 0.690895 0.173731 0.000000
vt 0.276680 0.562533 0.000000
vt 0.345455 0.021962 0.000000
vt 0.041096 0.021962 0.000000
vt 0.000395 0.540279 0.000000
vt 0.000395 0.582402 0.000000
vt 0.000395 0.537103 0.000000
vt 0.155493 0.537104 0.000000
vt 0.483785 0.489410 0.000000
vt 0.375610 0.443321 0.000000
vt 0.402305 0.489410 0.000000
vt 0.401516 0.491891 0.000000
vt 0.375610 0.289631 0.000000
vt 0.532157 0.508488 0.000000
vt 0.115949 0.021962 0.000000
vt 0.402305 0.493124 0.000000
vt 0.384334 0.505470 0.000000
vt 0.598540 0.802265 0.000000
vt 0.276680 0.517234 0.000000
vt 0.137530 0.021962 0.000000
vt 0.480610 0.489410 0.000000
vt 0.164824 0.517234 0.000000
vt 0.598540 0.964031 0.000000
vt 0.504401 0.489410 0.000000
vt 0.690105 0.301990 0.000000
vt 0.283255 0.665930 0.000000
vt 0.091964 0.517234 0.000000
vt 0.112238 0.517235 0.000000
vt 0.276680 0.540279 0.000000
vt 0.041099 0.517235 0.000000
vt 0.000395 0.559357 0.000000
vt 0.000395 0.562533 0.000000
vt 0.375610 0.147511 0.000000
vt 0.375610 0.141726 0.000000
vt 0.369825 0.141726 0.000000
vt 0.511542 0.508488 0.000000
vt 0.963860 0.444111 0.000000
vt 0.472679 0.489410 0.000000
vt 0.895162 0.964031 0.000000
vt 0.684321 0.443321 0.000000
vt 0.277470 0.949381 0.000000
vt 0.277470 0.807261 0.000000
vt 0.495681 0.489410 0.000000
vt 0.283255 0.665140 0.000000
vt 0.598540 0.653570 0.000000
vt 0.369825 0.437536 0.000000
vt 0.684321 0.295416 0.000000
vt 0.495681 0.508488 0.000000
vt 0.519472 0.489410 0.000000
vt 0.375610 0.437536 0.000000
vt 0.667238 0.488620 0.000000
vt 0.204596 0.021962 0.000000
vt 0.000395 0.000395 0.000000
vt 0.204596 0.517235 0.000000
vt 0.987518 0.192810 0.000000
vt 0.387058 0.502436 0.000000
vt 0.428391 0.510992 0.000000
vt 0.500436 0.508488 0.000000
vt 0.484575 0.489410 0.000000
vt 0.468176 0.510992 0.000000
vt 0.345461 0.517235 0.000000
vt 0.598540 0.960858 0.000000
vt 0.591965 0.659355 0.000000
vt 0.597750 0.659355 0.000000
vt 0.895162 0.941777 0.000000
vt 0.999605 0.135941 0.000000
vt 0.508366 0.489410 0.000000
vt 0.208310 0.517235 0.000000
vt 0.184313 0.021961 0.000000
vt 0.121582 0.604656 0.000000
vt 0.121582 0.537103 0.000000
vt 0.690895 0.135941 0.000000
vt 0.375610 0.148300 0.000000
vt 0.690105 0.141726 0.000000
vt 0.987517 0.151476 0.000000
vt 0.233607 0.517235 0.000000
vt 0.690895 0.192810 0.000000
vt 0.155493 0.540279 0.000000
vt 0.369825 0.444116 0.000000
vt 0.369825 0.289631 0.000000
vt 0.419810 0.512621 0.000000
vt 0.322248 0.517235 0.000000
vt 0.369036 0.517234 0.000000
vt 0.276680 0.537103 0.000000
vt 0.160747 0.517234 0.000000
vt 0.094732 0.517235 0.000000
vt 0.496470 0.489410 0.000000
vt 0.987518 0.173731 0.000000
vt 0.137535 0.517235 0.000000
vt 0.424677 0.493487 0.000000
vt 0.121582 0.562533 0.000000
vt 0.369825 0.447289 0.000000
vt 0.243558 0.604656 0.000000
vt 0.155493 0.562533 0.000000
vt 0.091954 0.021961 0.000000
vt 0.185112 0.000395 0.000000
vt 0.019879 0.000395 0.000000
vt 0.204596 0.000395 0.000000
vt 0.667238 0.469541 0.000000
vt 0.895162 0.983111 0.000000
vt 0.684321 0.437536 0.000000
vt 0.907250 0.937811 0.000000
vt 0.428391 0.493487 0.000000
vt 0.895162 0.960856 0.000000
vt 0.447889 0.489410 0.000000
vt 0.283255 0.659355 0.000000
vt 0.375610 0.295416 0.000000
vt 0.253105 0.517235 0.000000
vt 0.532157 0.489410 0.000000
vt 0.112238 0.021962 0.000000
vt 0.068380 0.021962 0.000000
vt 0.479820 0.489410 0.000000
vt 0.667238 0.447289 0.000000
vt 0.369826 0.466368 0.000000
vt 0.907250 0.802265 0.000000
vt 0.907250 0.653570 0.000000
vt 0.488540 0.508488 0.000000
vt 0.684321 0.147511 0.000000
vt 0.503611 0.489410 0.000000
vt 0.184322 0.517234 0.000000
vt 0.389821 0.504917 0.000000
vt 0.519472 0.508488 0.000000
vt 0.208307 0.021962 0.000000
vt 0.322246 0.021962 0.000000
vt 0.318171 0.021962 0.000000
vt 0.483785 0.508488 0.000000
vt 0.531368 0.489410 0.000000
vt 0.690895 0.170557 0.000000
vt 0.907250 0.665930 0.000000
vt 0.907250 0.801476 0.000000
vt 0.598540 0.801476 0.000000
vt 0.598540 0.665930 0.000000
vt 0.277470 0.813835 0.000000
vt 0.283255 0.813046 0.000000
vt 0.666448 0.488620 0.000000
vt 0.999605 0.000395 0.000000
vt 0.296954 0.000395 0.000000
vt 0.277470 0.000395 0.000000
vt 0.491716 0.489410 0.000000
vt 0.419810 0.489410 0.000000
vt 0.283255 0.523810 0.000000
vt 0.277470 0.523810 0.000000
vt 0.375610 0.301991 0.000000
vt 0.690105 0.437536 0.000000
vt 0.524227 0.508488 0.000000
vt 0.476644 0.508488 0.000000
vt 0.515507 0.489410 0.000000
vt 0.121582 0.518025 0.000000
vt 0.122371 0.607831 0.000000
vt 0.121582 0.585577 0.000000
vt 0.233600 0.021962 0.000000
vt 0.325958 0.021962 0.000000
vt 0.121582 0.607832 0.000000
vt 0.121582 0.582401 0.000000
vt 0.068389 0.517235 0.000000
vt 0.279448 0.021962 0.000000
vt 0.122371 0.563323 0.000000
vt 0.155493 0.518025 0.000000
vt 0.508366 0.508488 0.000000
vt 0.372549 0.489410 0.000000
vt 0.141241 0.021962 0.000000
vt 0.375610 0.006180 0.000000
vt 0.369825 0.006180 0.000000
vt 0.684320 0.301990 0.000000
vt 0.276680 0.518025 0.000000
vt 0.690105 0.289631 0.000000
vt 0.375610 0.154085 0.000000
vt 0.277470 0.671715 0.000000
vt 0.325962 0.517235 0.000000
vt 0.475855 0.508488 0.000000
vt 0.277470 0.659355 0.000000
vt 0.480610 0.508488 0.000000
vt 0.527402 0.489410 0.000000
vt 0.019879 0.517235 0.000000
vt 0.349531 0.021962 0.000000
vt 0.160739 0.021962 0.000000
vt 0.000395 0.563323 0.000000
vt 0.000395 0.607831 0.000000
vt 0.000395 0.518025 0.000000
vt 0.300665 0.000395 0.000000
vt 0.690895 0.000395 0.000000
vt 0.684320 0.000395 0.000000
vt 0.375610 0.000395 0.000000
vt 0.023590 0.000395 0.000000
vt 0.208307 0.000395 0.000000
vt 0.115949 0.000395 0.000000
vt 0.243558 0.582401 0.000000
vt 0.591965 0.523810 0.000000
vt 0.597750 0.523810 0.000000
vt 0.523437 0.508488 0.000000
vt 0.492505 0.489410 0.000000
vt 0.072466 0.517234 0.000000
vt 0.516296 0.489410 0.000000
vt 0.398752 0.489410 0.000000
vt 0.491716 0.508488 0.000000
vt 0.987518 0.170555 0.000000
vt 0.045177 0.517235 0.000000
vt 0.023590 0.021962 0.000000
vt 0.253098 0.021962 0.000000
vt 0.164815 0.021962 0.000000
vt 0.122371 0.604656 0.000000
vt 0.423888 0.489410 0.000000
vt 0.907250 0.518025 0.000000
vt 0.597750 0.807261 0.000000
vt 0.591965 0.665930 0.000000
vt 0.520262 0.508488 0.000000
vt 0.512331 0.489410 0.000000
vt 0.528192 0.489410 0.000000
vt 0.318171 0.517235 0.000000
vt 0.283255 0.671715 0.000000
vt 0.591965 0.813046 0.000000
vt 0.133455 0.021962 0.000000
vt 0.187090 0.021962 0.000000
vt 0.369029 0.021962 0.000000
vt 0.000395 0.604656 0.000000
vt 0.684320 0.148300 0.000000
vt 0.229893 0.517235 0.000000
vt 0.987517 0.148300 0.000000
vt 0.475855 0.489410 0.000000
# 352 texture coords

o ??_??1
g ??_??1
f 1/6 2/8 4/5 3/268 
f 3/245 4/7 8/279 7/49 
f 7/115 8/24 6/247 5/225 
f 5/252 6/70 2/191 1/59 
f 3/71 7/115 5/225 1/212 
f 8/24 4/5 2/8 6/247 
f 9/240 10/146 12/113 11/180 
f 11/299 12/113 16/57 15/28 
f 15/349 16/57 14/300 13/206 
f 13/9 14/300 10/146 9/213 
f 11/262 15/263 13/264 9/265 
f 16/57 12/113 10/146 14/300 
f 17/143 18/183 20/234 19/173 
f 19/277 20/234 24/297 23/158 
f 23/3 24/297 22/276 21/4 
f 21/74 22/276 18/183 17/179 
f 19/336 23/249 21/178 17/20 
f 24/297 20/234 18/183 22/276 
f 25/166 26/167 28/77 27/251 
f 27/207 28/77 32/103 31/104 
f 31/315 32/103 30/295 29/316 
f 29/296 30/295 26/167 25/168 
f 27/269 31/199 29/205 25/314 
f 32/103 28/77 26/167 30/295 
f 33/177 34/239 36/196 35/125 
f 35/197 36/196 40/321 39/322 
f 39/21 40/321 38/274 37/73 
f 37/275 38/274 34/239 33/304 
f 35/108 39/51 37/174 33/266 
f 40/321 36/196 34/239 38/274 
f 41/267 42/33 44/118 43/344 
f 43/337 44/118 48/52 47/53 
f 47/338 48/52 46/343 45/159 
f 45/301 46/343 42/33 41/175 
f 43/248 47/235 45/126 41/151 
f 48/52 44/118 42/33 46/343 
f 55/64 56/325 54/288 53/244 
f 61/65 62/66 52/330 51/10 
f 57/137 58/163 50/101 49/331 
f 64/98 61/230 51/317 57/99 
f 63/31 60/149 50/144 58/273 
f 62/11 63/31 58/273 52/335 
f 59/102 64/98 57/99 49/331 
f 51/10 52/330 58/163 57/137 
f 56/325 55/64 64/228 63/160 
f 54/12 56/214 63/31 62/11 
f 64/106 59/102 60/307 63/54 
f 55/37 53/186 61/230 64/98 
f 53/244 54/288 62/66 61/65 
f 49/331 50/101 60/307 59/102 
f 71/67 72/55 70/241 69/332 
f 77/284 78/209 68/350 67/85 
f 73/13 74/107 66/201 65/256 
f 80/42 77/231 67/318 73/91 
f 79/14 76/15 66/16 74/32 
f 78/193 79/14 74/32 68/17 
f 75/185 80/42 73/91 65/256 
f 67/85 68/350 74/107 73/13 
f 72/55 71/67 80/127 79/152 
f 70/80 72/61 79/14 78/193 
f 80/346 75/185 76/187 79/18 
f 71/100 69/229 77/231 80/42 
f 69/332 70/241 78/209 77/284 
f 65/256 66/201 76/187 75/185 
f 87/308 88/133 86/194 85/136 
f 93/285 94/302 84/215 83/257 
f 89/258 90/342 82/69 81/96 
f 96/120 93/270 83/313 89/121 
f 95/189 92/327 82/145 90/254 
f 94/150 95/189 90/254 84/19 
f 91/97 96/120 89/121 81/96 
f 83/257 84/215 90/342 89/258 
f 88/133 87/308 96/347 95/216 
f 86/83 88/293 95/189 94/150 
f 96/289 91/97 92/1 95/130 
f 87/124 85/271 93/270 96/120 
f 85/136 86/194 94/302 93/285 
f 81/96 82/69 92/1 91/97 
f 103/333 104/155 102/218 101/309 
f 109/294 110/129 100/222 99/153 
f 105/345 106/78 98/89 97/148 
f 112/43 109/90 99/319 105/44 
f 111/236 108/190 98/87 106/223 
f 110/112 111/236 106/223 100/22 
f 107/243 112/43 105/44 97/148 
f 99/153 100/222 106/78 105/345 
f 104/155 103/333 112/202 111/253 
f 102/238 104/114 111/236 110/112 
f 112/45 107/243 108/161 111/219 
f 103/95 101/36 109/90 112/43 
f 101/309 102/218 110/129 109/294 
f 97/148 98/89 108/161 107/243 
f 113/184 114/232 116/25 115/79 
f 115/352 116/303 120/47 119/171 
f 119/35 120/109 118/40 117/246 
f 117/176 118/181 114/41 113/324 
f 115/170 119/35 117/246 113/48 
f 120/109 116/25 114/232 118/40 
f 121/119 122/287 124/139 123/310 
f 123/142 124/259 128/305 127/154 
f 127/348 128/46 126/283 125/203 
f 125/272 126/328 122/250 121/68 
f 123/311 127/348 125/203 121/286 
f 128/46 124/139 122/287 126/283 
f 129/281 130/204 132/140 131/312 
f 131/2 132/39 136/29 135/220 
f 135/164 136/138 134/50 133/81 
f 133/26 134/92 130/62 129/192 
f 131/165 135/164 133/81 129/224 
f 136/138 132/140 130/204 134/50 
f 137/210 138/134 140/221 139/188 
f 139/280 140/110 144/132 143/340 
f 143/208 144/329 142/261 141/30 
f 141/260 142/27 138/23 137/341 
f 139/351 143/208 141/30 137/38 
f 144/329 140/221 138/134 142/261 
f 145/75 146/156 148/172 147/233 
f 147/182 148/255 152/94 151/326 
f 151/198 152/237 150/195 149/111 
f 149/34 150/169 146/292 145/200 
f 147/128 151/198 149/111 145/88 
f 152/237 148/172 146/156 150/195 
f 153/60 154/320 156/122 155/290 
f 155/86 156/56 160/72 159/157 
f 159/334 160/123 158/105 157/226 
f 157/84 158/131 154/147 153/242 
f 155/282 159/334 157/226 153/82 
f 160/123 156/122 154/320 158/105 
f 161/298 162/217 164/141 163/291 
f 163/58 164/323 168/339 167/93 
f 167/116 168/211 166/162 165/63 
f 165/306 166/76 162/278 161/117 
f 163/227 167/116 165/63 161/135 
f 168/211 164/141 162/217 166/162 
# 134 polygons

#
# object ??_??2
#

v  38.276726 11.403139 46.740017
v  38.276726 11.762293 46.740017
v  38.276726 11.403140 35.703072
v  38.276726 11.762293 35.703072
v  38.340874 11.403138 46.740017
v  38.340874 11.762293 46.740017
v  38.340874 11.403139 35.703072
v  38.340874 11.762293 35.703072
v  35.585793 12.143970 46.833889
v  35.585793 12.252871 46.833889
v  35.585793 12.143970 35.586700
v  35.585793 12.252871 35.586700
v  38.323883 12.143969 46.833889
v  38.323883 12.252870 46.833889
v  38.323883 12.143969 35.586697
v  38.323883 12.252871 35.586697
v  35.585793 13.929960 46.833889
v  35.585793 14.038864 46.833889
v  35.585793 13.929960 35.586700
v  35.585793 14.038865 35.586700
v  38.323883 13.929960 46.833889
v  38.323883 14.038864 46.833889
v  38.323883 13.929960 35.586697
v  38.323883 14.038865 35.586697
v  35.585793 15.715954 46.833889
v  35.585793 15.824856 46.833889
v  35.585793 15.715956 35.586700
v  35.585793 15.824857 35.586700
v  38.323883 15.715954 46.833889
v  38.323883 15.824854 46.833889
v  38.323883 15.715954 35.586697
v  38.323883 15.824856 35.586697
v  35.585793 17.501945 46.833889
v  35.585793 17.610851 46.833889
v  35.585793 17.501945 35.586700
v  35.585793 17.610851 35.586700
v  38.323887 17.501944 46.833889
v  38.323883 17.610849 46.833889
v  38.323887 17.501945 35.586697
v  38.323887 17.610849 35.586697
v  35.585793 19.287939 46.833889
v  35.585793 19.396839 46.833889
v  35.585793 19.287941 35.586700
v  35.585793 19.396841 35.586700
v  38.323887 19.287941 46.833889
v  38.323887 19.396839 46.833889
v  38.323887 19.287941 35.586697
v  38.323887 19.396843 35.586697
v  37.973442 10.626915 46.908005
v  37.973438 19.950218 46.908005
v  38.409416 10.626915 46.908005
v  38.409420 19.950218 46.908005
v  38.409416 10.626915 46.504543
v  38.409420 19.950218 46.504543
v  38.327053 10.626915 46.504543
v  38.327053 19.950218 46.504543
v  38.327053 10.626915 46.908005
v  38.327053 19.950218 46.908005
v  37.973442 10.626915 46.843452
v  37.973438 19.950218 46.843452
v  38.409416 10.626915 46.843452
v  38.409420 19.950218 46.843452
v  38.327053 19.950218 46.843452
v  38.327053 10.626915 46.843452
v  38.413845 10.626916 35.888756
v  38.413845 19.950218 35.888756
v  38.413845 10.626916 35.513607
v  38.413845 19.950218 35.513607
v  37.944962 10.626915 35.513607
v  37.944962 19.950218 35.513607
v  37.944962 10.626915 35.584476
v  37.944962 19.950218 35.584476
v  38.413845 10.626916 35.584476
v  38.413845 19.950218 35.584476
v  38.338821 10.626916 35.888756
v  38.338825 19.950218 35.888756
v  38.338821 10.626916 35.513607
v  38.338825 19.950218 35.513607
v  38.338825 19.950218 35.584476
v  38.338821 10.626916 35.584476
v  35.938499 10.626916 35.516659
v  35.938499 19.950218 35.516659
v  35.502522 10.626916 35.516659
v  35.502522 19.950218 35.516659
v  35.502522 10.626916 35.920120
v  35.502522 19.950218 35.920120
v  35.584885 10.626916 35.920120
v  35.584885 19.950218 35.920120
v  35.584885 10.626916 35.516659
v  35.584885 19.950218 35.516659
v  35.938499 10.626916 35.581211
v  35.938499 19.950218 35.581211
v  35.502522 10.626916 35.581211
v  35.502522 19.950218 35.581211
v  35.584885 19.950218 35.581211
v  35.584885 10.626916 35.581211
v  35.498096 10.626916 46.535912
v  35.498096 19.950218 46.535912
v  35.498096 10.626916 46.911057
v  35.498096 19.950218 46.911057
v  35.966976 10.626916 46.911057
v  35.966980 19.950218 46.911057
v  35.966976 10.626916 46.840187
v  35.966980 19.950218 46.840187
v  35.498096 10.626916 46.840187
v  35.498096 19.950218 46.840187
v  35.573116 10.626916 46.535912
v  35.573120 19.950218 46.535912
v  35.573116 10.626916 46.911057
v  35.573120 19.950218 46.911057
v  35.573120 19.950218 46.840187
v  35.573116 10.626916 46.840187
v  35.574741 11.403139 46.740017
v  35.574745 11.762293 46.740017
v  35.574745 11.403139 35.703072
v  35.574745 11.762293 35.703072
v  35.638889 11.403139 46.740017
v  35.638893 11.762293 46.740017
v  35.638893 11.403139 35.703072
v  35.638893 11.762293 35.703072
v  38.177540 11.403140 35.634865
v  38.177540 11.762293 35.634865
v  35.729492 11.403139 35.634865
v  35.729492 11.762293 35.634865
v  38.177540 11.403140 35.579666
v  38.177540 11.762293 35.579666
v  35.729492 11.403139 35.579666
v  35.729492 11.762293 35.579666
v  38.177536 11.403139 46.840919
v  38.177536 11.762293 46.840919
v  35.729488 11.403139 46.840919
v  35.729492 11.762293 46.840919
v  38.177536 11.403139 46.785721
v  38.177536 11.762293 46.785721
v  35.729488 11.403139 46.785721
v  35.729492 11.762293 46.785721
v  38.276722 19.499832 46.740017
v  38.276722 19.858986 46.740017
v  38.276726 19.499832 35.703072
v  38.276722 19.858986 35.703072
v  38.340874 19.499832 46.740017
v  38.340874 19.858986 46.740017
v  38.340874 19.499832 35.703072
v  38.340874 19.858986 35.703072
v  35.574741 19.499830 46.740017
v  35.574741 19.858986 46.740017
v  35.574745 19.499832 35.703072
v  35.574741 19.858986 35.703072
v  35.638893 19.499830 46.740017
v  35.638893 19.858986 46.740017
v  35.638893 19.499832 35.703072
v  35.638893 19.858986 35.703072
v  38.177536 19.499832 35.634865
v  38.177536 19.858986 35.634865
v  35.729492 19.499832 35.634865
v  35.729492 19.858986 35.634865
v  38.177536 19.499832 35.579666
v  38.177536 19.858986 35.579666
v  35.729492 19.499832 35.579666
v  35.729492 19.858986 35.579666
v  38.177536 19.499832 46.840919
v  38.177536 19.858986 46.840919
v  35.729492 19.499830 46.840919
v  35.729492 19.858986 46.840919
v  38.177536 19.499832 46.785721
v  38.177536 19.858986 46.785721
v  35.729492 19.499830 46.785721
v  35.729492 19.858986 46.785721
# 168 vertices

vt 0.296951 0.517235 0.000000
vt 0.499646 0.489410 0.000000
vt 0.684320 0.296205 0.000000
vt 0.375610 0.296205 0.000000
vt 0.666448 0.469541 0.000000
vt 0.369826 0.488620 0.000000
vt 0.479820 0.508488 0.000000
vt 0.369826 0.469541 0.000000
vt 0.369825 0.154085 0.000000
vt 0.045171 0.021962 0.000000
vt 0.423888 0.493124 0.000000
vt 0.423888 0.512621 0.000000
vt 0.225813 0.021962 0.000000
vt 0.468176 0.506915 0.000000
vt 0.468176 0.489410 0.000000
vt 0.471890 0.489410 0.000000
vt 0.471890 0.510992 0.000000
vt 0.187090 0.517235 0.000000
vt 0.387097 0.507951 0.000000
vt 0.598540 0.518025 0.000000
vt 0.591965 0.518025 0.000000
vt 0.424677 0.489410 0.000000
vt 0.528192 0.508488 0.000000
vt 0.666448 0.466366 0.000000
vt 0.963860 0.469541 0.000000
vt 0.487750 0.489410 0.000000
vt 0.531368 0.508488 0.000000
vt 0.690105 0.154085 0.000000
vt 0.496470 0.508488 0.000000
vt 0.690895 0.151478 0.000000
vt 0.419810 0.493124 0.000000
vt 0.471890 0.506915 0.000000
vt 0.283255 0.807261 0.000000
vt 0.511542 0.489410 0.000000
vt 0.963860 0.447287 0.000000
vt 0.092754 0.000395 0.000000
vt 0.000395 0.004469 0.000000
vt 0.690895 0.148305 0.000000
vt 0.499646 0.508488 0.000000
vt 0.667238 0.466368 0.000000
vt 0.492505 0.508488 0.000000
vt 0.204596 0.004469 0.000000
vt 0.112238 0.004469 0.000000
vt 0.115949 0.004469 0.000000
vt 0.094732 0.021962 0.000000
vt 0.000395 0.585577 0.000000
vt 0.472679 0.508488 0.000000
vt 0.667238 0.444116 0.000000
vt 0.476644 0.489410 0.000000
vt 0.121582 0.540279 0.000000
vt 0.586180 0.949381 0.000000
vt 0.591965 0.671715 0.000000
vt 0.597750 0.671715 0.000000
vt 0.002374 0.517235 0.000000
vt 0.257182 0.517235 0.000000
vt 0.507576 0.508488 0.000000
vt 0.684320 0.154085 0.000000
vt 0.523437 0.489410 0.000000
vt 0.500436 0.489410 0.000000
vt 0.243558 0.563323 0.000000
vt 0.448678 0.506915 0.000000
vt 0.484575 0.508488 0.000000
vt 0.276680 0.559358 0.000000
vt 0.072456 0.021962 0.000000
vt 0.048883 0.021962 0.000000
vt 0.048891 0.517235 0.000000
vt 0.257173 0.021962 0.000000
vt 0.488540 0.489410 0.000000
vt 0.300665 0.517235 0.000000
vt 0.503611 0.508488 0.000000
vt 0.666448 0.444111 0.000000
vt 0.504401 0.508488 0.000000
vt 0.283255 0.518025 0.000000
vt 0.369825 0.301991 0.000000
vt 0.598540 0.983111 0.000000
vt 0.527402 0.508488 0.000000
vt 0.684321 0.141726 0.000000
vt 0.133458 0.517235 0.000000
vt 0.963860 0.488620 0.000000
vt 0.448678 0.510992 0.000000
vt 0.121582 0.559357 0.000000
vt 0.243558 0.607832 0.000000
vt 0.369825 0.492444 0.000000
vt 0.535333 0.489410 0.000000
vt 0.229888 0.021962 0.000000
vt 0.507576 0.489410 0.000000
vt 0.424677 0.510992 0.000000
vt 0.598540 0.938606 0.000000
vt 0.115952 0.517235 0.000000
vt 0.112238 0.000395 0.000000
vt 0.208307 0.004469 0.000000
vt 0.487750 0.508488 0.000000
vt 0.520262 0.489410 0.000000
vt 0.516296 0.508488 0.000000
vt 0.092754 0.004469 0.000000
vt 0.300665 0.021962 0.000000
vt 0.296954 0.021962 0.000000
vt 0.019879 0.004469 0.000000
vt 0.023590 0.004469 0.000000
vt 0.185112 0.004469 0.000000
vt 0.023593 0.517235 0.000000
vt 0.019879 0.021962 0.000000
vt 0.684320 0.006180 0.000000
vt 0.690105 0.006180 0.000000
vt 0.243558 0.585577 0.000000
vt 0.002373 0.021962 0.000000
vt 0.225816 0.517235 0.000000
vt 0.586180 0.813835 0.000000
vt 0.963860 0.466366 0.000000
vt 0.515507 0.508488 0.000000
vt 0.598540 0.941779 0.000000
vt 0.428391 0.489410 0.000000
vt 0.684321 0.289631 0.000000
vt 0.447889 0.493487 0.000000
vt 0.666448 0.447287 0.000000
vt 0.155493 0.559358 0.000000
vt 0.524227 0.489410 0.000000
vt 0.591965 0.807261 0.000000
vt 0.121582 0.563323 0.000000
vt 0.296954 0.004469 0.000000
vt 0.300665 0.004469 0.000000
vt 0.122371 0.582402 0.000000
vt 0.122371 0.585577 0.000000
vt 0.277470 0.004469 0.000000
vt 0.591965 0.665140 0.000000
vt 0.598540 0.937811 0.000000
vt 0.276671 0.021961 0.000000
vt 0.895162 0.938601 0.000000
vt 0.141249 0.517235 0.000000
vt 0.279446 0.517235 0.000000
vt 0.535333 0.508488 0.000000
vt 0.512331 0.508488 0.000000
vt 0.349538 0.517235 0.000000
vt 0.690895 0.173731 0.000000
vt 0.276680 0.562533 0.000000
vt 0.345455 0.021962 0.000000
vt 0.041096 0.021962 0.000000
vt 0.000395 0.540279 0.000000
vt 0.000395 0.582402 0.000000
vt 0.000395 0.537103 0.000000
vt 0.155493 0.537104 0.000000
vt 0.483785 0.489410 0.000000
vt 0.375610 0.443321 0.000000
vt 0.402305 0.489410 0.000000
vt 0.401516 0.491891 0.000000
vt 0.375610 0.289631 0.000000
vt 0.532157 0.508488 0.000000
vt 0.115949 0.021962 0.000000
vt 0.402305 0.493124 0.000000
vt 0.384334 0.505470 0.000000
vt 0.598540 0.802265 0.000000
vt 0.276680 0.517234 0.000000
vt 0.137530 0.021962 0.000000
vt 0.480610 0.489410 0.000000
vt 0.164824 0.517234 0.000000
vt 0.598540 0.964031 0.000000
vt 0.504401 0.489410 0.000000
vt 0.690105 0.301990 0.000000
vt 0.283255 0.665930 0.000000
vt 0.091964 0.517234 0.000000
vt 0.112238 0.517235 0.000000
vt 0.276680 0.540279 0.000000
vt 0.041099 0.517235 0.000000
vt 0.000395 0.559357 0.000000
vt 0.000395 0.562533 0.000000
vt 0.375610 0.147511 0.000000
vt 0.375610 0.141726 0.000000
vt 0.369825 0.141726 0.000000
vt 0.511542 0.508488 0.000000
vt 0.963860 0.444111 0.000000
vt 0.472679 0.489410 0.000000
vt 0.895162 0.964031 0.000000
vt 0.684321 0.443321 0.000000
vt 0.277470 0.949381 0.000000
vt 0.277470 0.807261 0.000000
vt 0.495681 0.489410 0.000000
vt 0.283255 0.665140 0.000000
vt 0.598540 0.653570 0.000000
vt 0.369825 0.437536 0.000000
vt 0.684321 0.295416 0.000000
vt 0.495681 0.508488 0.000000
vt 0.519472 0.489410 0.000000
vt 0.375610 0.437536 0.000000
vt 0.667238 0.488620 0.000000
vt 0.204596 0.021962 0.000000
vt 0.000395 0.000395 0.000000
vt 0.204596 0.517235 0.000000
vt 0.987518 0.192810 0.000000
vt 0.387058 0.502436 0.000000
vt 0.428391 0.510992 0.000000
vt 0.500436 0.508488 0.000000
vt 0.484575 0.489410 0.000000
vt 0.468176 0.510992 0.000000
vt 0.345461 0.517235 0.000000
vt 0.598540 0.960858 0.000000
vt 0.591965 0.659355 0.000000
vt 0.597750 0.659355 0.000000
vt 0.895162 0.941777 0.000000
vt 0.999605 0.135941 0.000000
vt 0.508366 0.489410 0.000000
vt 0.208310 0.517235 0.000000
vt 0.184313 0.021961 0.000000
vt 0.121582 0.604656 0.000000
vt 0.121582 0.537103 0.000000
vt 0.690895 0.135941 0.000000
vt 0.375610 0.148300 0.000000
vt 0.690105 0.141726 0.000000
vt 0.987517 0.151476 0.000000
vt 0.233607 0.517235 0.000000
vt 0.690895 0.192810 0.000000
vt 0.155493 0.540279 0.000000
vt 0.369825 0.444116 0.000000
vt 0.369825 0.289631 0.000000
vt 0.419810 0.512621 0.000000
vt 0.322248 0.517235 0.000000
vt 0.369036 0.517234 0.000000
vt 0.276680 0.537103 0.000000
vt 0.160747 0.517234 0.000000
vt 0.094732 0.517235 0.000000
vt 0.496470 0.489410 0.000000
vt 0.987518 0.173731 0.000000
vt 0.137535 0.517235 0.000000
vt 0.424677 0.493487 0.000000
vt 0.121582 0.562533 0.000000
vt 0.369825 0.447289 0.000000
vt 0.243558 0.604656 0.000000
vt 0.155493 0.562533 0.000000
vt 0.091954 0.021961 0.000000
vt 0.185112 0.000395 0.000000
vt 0.019879 0.000395 0.000000
vt 0.204596 0.000395 0.000000
vt 0.667238 0.469541 0.000000
vt 0.895162 0.983111 0.000000
vt 0.684321 0.437536 0.000000
vt 0.907250 0.937811 0.000000
vt 0.428391 0.493487 0.000000
vt 0.895162 0.960856 0.000000
vt 0.447889 0.489410 0.000000
vt 0.283255 0.659355 0.000000
vt 0.375610 0.295416 0.000000
vt 0.253105 0.517235 0.000000
vt 0.532157 0.489410 0.000000
vt 0.112238 0.021962 0.000000
vt 0.068380 0.021962 0.000000
vt 0.479820 0.489410 0.000000
vt 0.667238 0.447289 0.000000
vt 0.369826 0.466368 0.000000
vt 0.907250 0.802265 0.000000
vt 0.907250 0.653570 0.000000
vt 0.488540 0.508488 0.000000
vt 0.684321 0.147511 0.000000
vt 0.503611 0.489410 0.000000
vt 0.184322 0.517234 0.000000
vt 0.389821 0.504917 0.000000
vt 0.519472 0.508488 0.000000
vt 0.208307 0.021962 0.000000
vt 0.322246 0.021962 0.000000
vt 0.318171 0.021962 0.000000
vt 0.483785 0.508488 0.000000
vt 0.531368 0.489410 0.000000
vt 0.690895 0.170557 0.000000
vt 0.907250 0.665930 0.000000
vt 0.907250 0.801476 0.000000
vt 0.598540 0.801476 0.000000
vt 0.598540 0.665930 0.000000
vt 0.277470 0.813835 0.000000
vt 0.283255 0.813046 0.000000
vt 0.666448 0.488620 0.000000
vt 0.999605 0.000395 0.000000
vt 0.296954 0.000395 0.000000
vt 0.277470 0.000395 0.000000
vt 0.491716 0.489410 0.000000
vt 0.419810 0.489410 0.000000
vt 0.283255 0.523810 0.000000
vt 0.277470 0.523810 0.000000
vt 0.375610 0.301991 0.000000
vt 0.690105 0.437536 0.000000
vt 0.524227 0.508488 0.000000
vt 0.476644 0.508488 0.000000
vt 0.515507 0.489410 0.000000
vt 0.121582 0.518025 0.000000
vt 0.122371 0.607831 0.000000
vt 0.121582 0.585577 0.000000
vt 0.233600 0.021962 0.000000
vt 0.325958 0.021962 0.000000
vt 0.121582 0.607832 0.000000
vt 0.121582 0.582401 0.000000
vt 0.068389 0.517235 0.000000
vt 0.279448 0.021962 0.000000
vt 0.122371 0.563323 0.000000
vt 0.155493 0.518025 0.000000
vt 0.508366 0.508488 0.000000
vt 0.372549 0.489410 0.000000
vt 0.141241 0.021962 0.000000
vt 0.375610 0.006180 0.000000
vt 0.369825 0.006180 0.000000
vt 0.684320 0.301990 0.000000
vt 0.276680 0.518025 0.000000
vt 0.690105 0.289631 0.000000
vt 0.375610 0.154085 0.000000
vt 0.277470 0.671715 0.000000
vt 0.325962 0.517235 0.000000
vt 0.475855 0.508488 0.000000
vt 0.277470 0.659355 0.000000
vt 0.480610 0.508488 0.000000
vt 0.527402 0.489410 0.000000
vt 0.019879 0.517235 0.000000
vt 0.349531 0.021962 0.000000
vt 0.160739 0.021962 0.000000
vt 0.000395 0.563323 0.000000
vt 0.000395 0.607831 0.000000
vt 0.000395 0.518025 0.000000
vt 0.300665 0.000395 0.000000
vt 0.690895 0.000395 0.000000
vt 0.684320 0.000395 0.000000
vt 0.375610 0.000395 0.000000
vt 0.023590 0.000395 0.000000
vt 0.208307 0.000395 0.000000
vt 0.115949 0.000395 0.000000
vt 0.243558 0.582401 0.000000
vt 0.591965 0.523810 0.000000
vt 0.597750 0.523810 0.000000
vt 0.523437 0.508488 0.000000
vt 0.492505 0.489410 0.000000
vt 0.072466 0.517234 0.000000
vt 0.516296 0.489410 0.000000
vt 0.398752 0.489410 0.000000
vt 0.491716 0.508488 0.000000
vt 0.987518 0.170555 0.000000
vt 0.045177 0.517235 0.000000
vt 0.023590 0.021962 0.000000
vt 0.253098 0.021962 0.000000
vt 0.164815 0.021962 0.000000
vt 0.122371 0.604656 0.000000
vt 0.423888 0.489410 0.000000
vt 0.907250 0.518025 0.000000
vt 0.597750 0.807261 0.000000
vt 0.591965 0.665930 0.000000
vt 0.520262 0.508488 0.000000
vt 0.512331 0.489410 0.000000
vt 0.528192 0.489410 0.000000
vt 0.318171 0.517235 0.000000
vt 0.283255 0.671715 0.000000
vt 0.591965 0.813046 0.000000
vt 0.133455 0.021962 0.000000
vt 0.187090 0.021962 0.000000
vt 0.369029 0.021962 0.000000
vt 0.000395 0.604656 0.000000
vt 0.684320 0.148300 0.000000
vt 0.229893 0.517235 0.000000
vt 0.987517 0.148300 0.000000
vt 0.475855 0.489410 0.000000
# 352 texture coords

o ??_??2
g ??_??2
f 169/358 170/360 172/357 171/620 
f 171/597 172/359 176/631 175/401 
f 175/467 176/376 174/599 173/577 
f 173/604 174/422 170/543 169/411 
f 171/423 175/467 173/577 169/564 
f 176/376 172/357 170/360 174/599 
f 177/592 178/498 180/465 179/532 
f 179/651 180/465 184/409 183/380 
f 183/701 184/409 182/652 181/558 
f 181/361 182/652 178/498 177/565 
f 179/614 183/615 181/616 177/617 
f 184/409 180/465 178/498 182/652 
f 185/495 186/535 188/586 187/525 
f 187/629 188/586 192/649 191/510 
f 191/355 192/649 190/628 189/356 
f 189/426 190/628 186/535 185/531 
f 187/688 191/601 189/530 185/372 
f 192/649 188/586 186/535 190/628 
f 193/518 194/519 196/429 195/603 
f 195/559 196/429 200/455 199/456 
f 199/667 200/455 198/647 197/668 
f 197/648 198/647 194/519 193/520 
f 195/621 199/551 197/557 193/666 
f 200/455 196/429 194/519 198/647 
f 201/529 202/591 204/548 203/477 
f 203/549 204/548 208/673 207/674 
f 207/373 208/673 206/626 205/425 
f 205/627 206/626 202/591 201/656 
f 203/460 207/403 205/526 201/618 
f 208/673 204/548 202/591 206/626 
f 209/619 210/385 212/470 211/696 
f 211/689 212/470 216/404 215/405 
f 215/690 216/404 214/695 213/511 
f 213/653 214/695 210/385 209/527 
f 211/600 215/587 213/478 209/503 
f 216/404 212/470 210/385 214/695 
f 223/416 224/677 222/640 221/596 
f 229/417 230/418 220/682 219/362 
f 225/489 226/515 218/453 217/683 
f 232/450 229/582 219/669 225/451 
f 231/383 228/501 218/496 226/625 
f 230/363 231/383 226/625 220/687 
f 227/454 232/450 225/451 217/683 
f 219/362 220/682 226/515 225/489 
f 224/677 223/416 232/580 231/512 
f 222/364 224/566 231/383 230/363 
f 232/458 227/454 228/659 231/406 
f 223/389 221/538 229/582 232/450 
f 221/596 222/640 230/418 229/417 
f 217/683 218/453 228/659 227/454 
f 239/419 240/407 238/593 237/684 
f 245/636 246/561 236/702 235/437 
f 241/365 242/459 234/553 233/608 
f 248/394 245/583 235/670 241/443 
f 247/366 244/367 234/368 242/384 
f 246/545 247/366 242/384 236/369 
f 243/537 248/394 241/443 233/608 
f 235/437 236/702 242/459 241/365 
f 240/407 239/419 248/479 247/504 
f 238/432 240/413 247/366 246/545 
f 248/698 243/537 244/539 247/370 
f 239/452 237/581 245/583 248/394 
f 237/684 238/593 246/561 245/636 
f 233/608 234/553 244/539 243/537 
f 255/660 256/485 254/546 253/488 
f 261/637 262/654 252/567 251/609 
f 257/610 258/694 250/421 249/448 
f 264/472 261/622 251/665 257/473 
f 263/541 260/679 250/497 258/606 
f 262/502 263/541 258/606 252/371 
f 259/449 264/472 257/473 249/448 
f 251/609 252/567 258/694 257/610 
f 256/485 255/660 264/699 263/568 
f 254/435 256/645 263/541 262/502 
f 264/641 259/449 260/353 263/482 
f 255/476 253/623 261/622 264/472 
f 253/488 254/546 262/654 261/637 
f 249/448 250/421 260/353 259/449 
f 271/685 272/507 270/570 269/661 
f 277/646 278/481 268/574 267/505 
f 273/697 274/430 266/441 265/500 
f 280/395 277/442 267/671 273/396 
f 279/588 276/542 266/439 274/575 
f 278/464 279/588 274/575 268/374 
f 275/595 280/395 273/396 265/500 
f 267/505 268/574 274/430 273/697 
f 272/507 271/685 280/554 279/605 
f 270/590 272/466 279/588 278/464 
f 280/397 275/595 276/513 279/571 
f 271/447 269/388 277/442 280/395 
f 269/661 270/570 278/481 277/646 
f 265/500 266/441 276/513 275/595 
f 281/536 282/584 284/377 283/431 
f 283/704 284/655 288/399 287/523 
f 287/387 288/461 286/392 285/598 
f 285/528 286/533 282/393 281/676 
f 283/522 287/387 285/598 281/400 
f 288/461 284/377 282/584 286/392 
f 289/471 290/639 292/491 291/662 
f 291/494 292/611 296/657 295/506 
f 295/700 296/398 294/635 293/555 
f 293/624 294/680 290/602 289/420 
f 291/663 295/700 293/555 289/638 
f 296/398 292/491 290/639 294/635 
f 297/633 298/556 300/492 299/664 
f 299/354 300/391 304/381 303/572 
f 303/516 304/490 302/402 301/433 
f 301/378 302/444 298/414 297/544 
f 299/517 303/516 301/433 297/576 
f 304/490 300/492 298/556 302/402 
f 305/562 306/486 308/573 307/540 
f 307/632 308/462 312/484 311/692 
f 311/560 312/681 310/613 309/382 
f 309/612 310/379 306/375 305/693 
f 307/703 311/560 309/382 305/390 
f 312/681 308/573 306/486 310/613 
f 313/427 314/508 316/524 315/585 
f 315/534 316/607 320/446 319/678 
f 319/550 320/589 318/547 317/463 
f 317/386 318/521 314/644 313/552 
f 315/480 319/550 317/463 313/440 
f 320/589 316/524 314/508 318/547 
f 321/412 322/672 324/474 323/642 
f 323/438 324/408 328/424 327/509 
f 327/686 328/475 326/457 325/578 
f 325/436 326/483 322/499 321/594 
f 323/634 327/686 325/578 321/434 
f 328/475 324/474 322/672 326/457 
f 329/650 330/569 332/493 331/643 
f 331/410 332/675 336/691 335/445 
f 335/468 336/563 334/514 333/415 
f 333/658 334/428 330/630 329/469 
f 331/579 335/468 333/415 329/487 
f 336/563 332/493 330/569 334/514 
# 134 polygons

#
# object ????_??
#

v  10.162818 11.403139 8.817423
v  10.162818 11.762293 8.817422
v  1.277945 11.403139 8.817423
v  1.277945 11.762293 8.817422
v  10.162818 11.403138 8.753275
v  10.162818 11.762293 8.753274
v  1.277945 11.403139 8.753275
v  1.277945 11.762293 8.753274
v  10.256691 12.143970 11.508355
v  10.256691 12.252871 11.508355
v  1.161574 12.143970 11.508355
v  1.161574 12.252871 11.508355
v  10.256691 12.143969 8.770263
v  10.256691 12.252870 8.770262
v  1.161574 12.143969 8.770263
v  1.161574 12.252871 8.770263
v  10.256691 13.929960 11.508355
v  10.256691 14.038864 11.508354
v  1.161574 13.929960 11.508355
v  1.161574 14.038865 11.508355
v  10.256691 13.929960 8.770262
v  10.256691 14.038864 8.770262
v  1.161574 13.929960 8.770262
v  1.161574 14.038864 8.770262
v  10.256691 15.715954 11.508354
v  10.256691 15.824856 11.508355
v  1.161574 15.715955 11.508355
v  1.161574 15.824856 11.508355
v  10.256691 15.715954 8.770262
v  10.256691 15.824854 8.770262
v  1.161574 15.715954 8.770262
v  1.161574 15.824856 8.770262
v  10.256691 17.501945 11.508354
v  10.256691 17.610851 11.508354
v  1.161574 17.501945 11.508354
v  1.161574 17.610851 11.508354
v  10.256691 17.501944 8.770262
v  10.256691 17.610849 8.770262
v  1.161574 17.501945 8.770262
v  1.161574 17.610849 8.770262
v  10.256691 19.287939 11.508354
v  10.256691 19.396839 11.508354
v  1.161574 19.287941 11.508354
v  1.161574 19.396841 11.508354
v  10.256691 19.287941 8.770261
v  10.256691 19.396839 8.770261
v  1.161574 19.287941 8.770261
v  1.161574 19.396841 8.770261
v  10.330806 10.626915 9.120705
v  10.330806 19.950218 9.120708
v  10.330806 10.626915 8.684730
v  10.330806 19.950218 8.684728
v  9.927346 10.626915 8.684730
v  9.927346 19.950218 8.684728
v  9.927346 10.626915 8.767094
v  9.927346 19.950218 8.767092
v  10.330806 10.626915 8.767094
v  10.330806 19.950218 8.767092
v  10.266252 10.626915 9.120705
v  10.266252 19.950218 9.120708
v  10.266252 10.626915 8.684730
v  10.266252 19.950218 8.684728
v  10.266252 19.950218 8.767092
v  10.266252 10.626915 8.767094
v  1.463629 10.626915 8.680304
v  1.463629 19.950218 8.680302
v  1.088481 10.626915 8.680304
v  1.088481 19.950218 8.680302
v  1.088481 10.626916 9.149184
v  1.088481 19.950218 9.149186
v  1.159353 10.626916 9.149184
v  1.159353 19.950218 9.149186
v  1.159353 10.626915 8.680304
v  1.159353 19.950218 8.680302
v  1.463629 10.626915 8.755324
v  1.463629 19.950218 8.755322
v  1.088481 10.626915 8.755324
v  1.088481 19.950218 8.755322
v  1.159353 19.950218 8.755322
v  1.159353 10.626915 8.755324
v  1.091534 10.626916 11.155648
v  1.091534 19.950218 11.155646
v  1.091534 10.626916 11.591623
v  1.091534 19.950218 11.591625
v  1.494997 10.626916 11.591623
v  1.494997 19.950218 11.591625
v  1.494997 10.626916 11.509263
v  1.494997 19.950218 11.509262
v  1.091534 10.626916 11.509263
v  1.091534 19.950218 11.509262
v  1.156088 10.626916 11.155648
v  1.156088 19.950218 11.155646
v  1.156088 10.626916 11.591623
v  1.156088 19.950218 11.591625
v  1.156088 19.950218 11.509262
v  1.156088 10.626916 11.509263
v  9.958714 10.626916 11.596050
v  9.958714 19.950218 11.596048
v  10.333858 10.626916 11.596050
v  10.333858 19.950218 11.596048
v  10.333858 10.626916 11.127169
v  10.333858 19.950218 11.127168
v  10.262990 10.626916 11.127169
v  10.262990 19.950218 11.127168
v  10.262990 10.626916 11.596050
v  10.262990 19.950218 11.596048
v  9.958714 10.626916 11.521029
v  9.958714 19.950218 11.521028
v  10.333858 10.626916 11.521029
v  10.333858 19.950218 11.521028
v  10.262990 19.950218 11.521028
v  10.262990 10.626916 11.521029
v  10.162818 11.403139 11.519403
v  10.162818 11.762293 11.519403
v  1.277945 11.403139 11.519403
v  1.277945 11.762293 11.519403
v  10.162818 11.403139 11.455256
v  10.162818 11.762293 11.455256
v  1.277945 11.403139 11.455256
v  1.277945 11.762293 11.455256
v  1.209739 11.403139 8.916607
v  1.209739 11.762293 8.916607
v  1.209739 11.403139 11.364656
v  1.209739 11.762293 11.364656
v  1.154542 11.403139 8.916607
v  1.154542 11.762293 8.916607
v  1.154542 11.403139 11.364656
v  1.154542 11.762293 11.364656
v  10.263720 11.403139 8.916611
v  10.263720 11.762293 8.916611
v  10.263720 11.403139 11.364656
v  10.263720 11.762293 11.364655
v  10.208522 11.403139 8.916611
v  10.208522 11.762293 8.916611
v  10.208522 11.403139 11.364656
v  10.208522 11.762293 11.364655
v  10.162818 19.499832 8.817425
v  10.162818 19.858986 8.817425
v  1.277945 19.499832 8.817421
v  1.277945 19.858986 8.817425
v  10.162818 19.499832 8.753273
v  10.162818 19.858986 8.753273
v  1.277945 19.499832 8.753273
v  1.277945 19.858986 8.753273
v  10.162818 19.499830 11.519405
v  10.162818 19.858986 11.519405
v  1.277945 19.499832 11.519402
v  1.277945 19.858986 11.519405
v  10.162818 19.499830 11.455254
v  10.162818 19.858986 11.455254
v  1.277945 19.499832 11.455254
v  1.277945 19.858986 11.455254
v  1.209739 19.499832 8.916609
v  1.209739 19.858986 8.916609
v  1.209739 19.499832 11.364655
v  1.209739 19.858986 11.364655
v  1.154542 19.499832 8.916609
v  1.154542 19.858986 8.916609
v  1.154542 19.499832 11.364655
v  1.154542 19.858986 11.364655
v  10.263720 19.499832 8.916609
v  10.263720 19.858986 8.916609
v  10.263720 19.499830 11.364655
v  10.263720 19.858986 11.364655
v  10.208522 19.499832 8.916609
v  10.208522 19.858986 8.916609
v  10.208522 19.499830 11.364655
v  10.208522 19.858986 11.364655
# 168 vertices

vt 0.296951 0.517235 0.000000
vt 0.499646 0.489410 0.000000
vt 0.684320 0.296205 0.000000
vt 0.375610 0.296205 0.000000
vt 0.666448 0.469541 0.000000
vt 0.369826 0.488620 0.000000
vt 0.479820 0.508488 0.000000
vt 0.369826 0.469541 0.000000
vt 0.369825 0.154085 0.000000
vt 0.045171 0.021962 0.000000
vt 0.423888 0.493124 0.000000
vt 0.423888 0.512621 0.000000
vt 0.225813 0.021962 0.000000
vt 0.468176 0.506915 0.000000
vt 0.468176 0.489410 0.000000
vt 0.471890 0.489410 0.000000
vt 0.471890 0.510992 0.000000
vt 0.187090 0.517235 0.000000
vt 0.387097 0.507951 0.000000
vt 0.598540 0.518025 0.000000
vt 0.591965 0.518025 0.000000
vt 0.424677 0.489410 0.000000
vt 0.528192 0.508488 0.000000
vt 0.666448 0.466366 0.000000
vt 0.963860 0.469541 0.000000
vt 0.487750 0.489410 0.000000
vt 0.531368 0.508488 0.000000
vt 0.690105 0.154085 0.000000
vt 0.496470 0.508488 0.000000
vt 0.690895 0.151478 0.000000
vt 0.419810 0.493124 0.000000
vt 0.471890 0.506915 0.000000
vt 0.283255 0.807261 0.000000
vt 0.511542 0.489410 0.000000
vt 0.963860 0.447287 0.000000
vt 0.092754 0.000395 0.000000
vt 0.000395 0.004469 0.000000
vt 0.690895 0.148305 0.000000
vt 0.499646 0.508488 0.000000
vt 0.667238 0.466368 0.000000
vt 0.492505 0.508488 0.000000
vt 0.204596 0.004469 0.000000
vt 0.112238 0.004469 0.000000
vt 0.115949 0.004469 0.000000
vt 0.094732 0.021962 0.000000
vt 0.000395 0.585577 0.000000
vt 0.472679 0.508488 0.000000
vt 0.667238 0.444116 0.000000
vt 0.476644 0.489410 0.000000
vt 0.121582 0.540279 0.000000
vt 0.586180 0.949381 0.000000
vt 0.591965 0.671715 0.000000
vt 0.597750 0.671715 0.000000
vt 0.002374 0.517235 0.000000
vt 0.257182 0.517235 0.000000
vt 0.507576 0.508488 0.000000
vt 0.684320 0.154085 0.000000
vt 0.523437 0.489410 0.000000
vt 0.500436 0.489410 0.000000
vt 0.243558 0.563323 0.000000
vt 0.448678 0.506915 0.000000
vt 0.484575 0.508488 0.000000
vt 0.276680 0.559358 0.000000
vt 0.072456 0.021962 0.000000
vt 0.048883 0.021962 0.000000
vt 0.048891 0.517235 0.000000
vt 0.257173 0.021962 0.000000
vt 0.488540 0.489410 0.000000
vt 0.300665 0.517235 0.000000
vt 0.503611 0.508488 0.000000
vt 0.666448 0.444111 0.000000
vt 0.504401 0.508488 0.000000
vt 0.283255 0.518025 0.000000
vt 0.369825 0.301991 0.000000
vt 0.598540 0.983111 0.000000
vt 0.527402 0.508488 0.000000
vt 0.684321 0.141726 0.000000
vt 0.133458 0.517235 0.000000
vt 0.963860 0.488620 0.000000
vt 0.448678 0.510992 0.000000
vt 0.121582 0.559357 0.000000
vt 0.243558 0.607832 0.000000
vt 0.369825 0.492444 0.000000
vt 0.535333 0.489410 0.000000
vt 0.229888 0.021962 0.000000
vt 0.507576 0.489410 0.000000
vt 0.424677 0.510992 0.000000
vt 0.598540 0.938606 0.000000
vt 0.115952 0.517235 0.000000
vt 0.112238 0.000395 0.000000
vt 0.208307 0.004469 0.000000
vt 0.487750 0.508488 0.000000
vt 0.520262 0.489410 0.000000
vt 0.516296 0.508488 0.000000
vt 0.092754 0.004469 0.000000
vt 0.300665 0.021962 0.000000
vt 0.296954 0.021962 0.000000
vt 0.019879 0.004469 0.000000
vt 0.023590 0.004469 0.000000
vt 0.185112 0.004469 0.000000
vt 0.023593 0.517235 0.000000
vt 0.019879 0.021962 0.000000
vt 0.684320 0.006180 0.000000
vt 0.690105 0.006180 0.000000
vt 0.243558 0.585577 0.000000
vt 0.002373 0.021962 0.000000
vt 0.225816 0.517235 0.000000
vt 0.586180 0.813835 0.000000
vt 0.963860 0.466366 0.000000
vt 0.515507 0.508488 0.000000
vt 0.598540 0.941779 0.000000
vt 0.428391 0.489410 0.000000
vt 0.684321 0.289631 0.000000
vt 0.447889 0.493487 0.000000
vt 0.666448 0.447287 0.000000
vt 0.155493 0.559358 0.000000
vt 0.524227 0.489410 0.000000
vt 0.591965 0.807261 0.000000
vt 0.121582 0.563323 0.000000
vt 0.296954 0.004469 0.000000
vt 0.300665 0.004469 0.000000
vt 0.122371 0.582402 0.000000
vt 0.122371 0.585577 0.000000
vt 0.277470 0.004469 0.000000
vt 0.591965 0.665140 0.000000
vt 0.598540 0.937811 0.000000
vt 0.276671 0.021961 0.000000
vt 0.895162 0.938601 0.000000
vt 0.141249 0.517235 0.000000
vt 0.279446 0.517235 0.000000
vt 0.535333 0.508488 0.000000
vt 0.512331 0.508488 0.000000
vt 0.349538 0.517235 0.000000
vt 0.690895 0.173731 0.000000
vt 0.276680 0.562533 0.000000
vt 0.345455 0.021962 0.000000
vt 0.041096 0.021962 0.000000
vt 0.000395 0.540279 0.000000
vt 0.000395 0.582402 0.000000
vt 0.000395 0.537103 0.000000
vt 0.155493 0.537104 0.000000
vt 0.483785 0.489410 0.000000
vt 0.375610 0.443321 0.000000
vt 0.402305 0.489410 0.000000
vt 0.401516 0.491891 0.000000
vt 0.375610 0.289631 0.000000
vt 0.532157 0.508488 0.000000
vt 0.115949 0.021962 0.000000
vt 0.402305 0.493124 0.000000
vt 0.384334 0.505470 0.000000
vt 0.598540 0.802265 0.000000
vt 0.276680 0.517234 0.000000
vt 0.137530 0.021962 0.000000
vt 0.480610 0.489410 0.000000
vt 0.164824 0.517234 0.000000
vt 0.598540 0.964031 0.000000
vt 0.504401 0.489410 0.000000
vt 0.690105 0.301990 0.000000
vt 0.283255 0.665930 0.000000
vt 0.091964 0.517234 0.000000
vt 0.112238 0.517235 0.000000
vt 0.276680 0.540279 0.000000
vt 0.041099 0.517235 0.000000
vt 0.000395 0.559357 0.000000
vt 0.000395 0.562533 0.000000
vt 0.375610 0.147511 0.000000
vt 0.375610 0.141726 0.000000
vt 0.369825 0.141726 0.000000
vt 0.511542 0.508488 0.000000
vt 0.963860 0.444111 0.000000
vt 0.472679 0.489410 0.000000
vt 0.895162 0.964031 0.000000
vt 0.684321 0.443321 0.000000
vt 0.277470 0.949381 0.000000
vt 0.277470 0.807261 0.000000
vt 0.495681 0.489410 0.000000
vt 0.283255 0.665140 0.000000
vt 0.598540 0.653570 0.000000
vt 0.369825 0.437536 0.000000
vt 0.684321 0.295416 0.000000
vt 0.495681 0.508488 0.000000
vt 0.519472 0.489410 0.000000
vt 0.375610 0.437536 0.000000
vt 0.667238 0.488620 0.000000
vt 0.204596 0.021962 0.000000
vt 0.000395 0.000395 0.000000
vt 0.204596 0.517235 0.000000
vt 0.987518 0.192810 0.000000
vt 0.387058 0.502436 0.000000
vt 0.428391 0.510992 0.000000
vt 0.500436 0.508488 0.000000
vt 0.484575 0.489410 0.000000
vt 0.468176 0.510992 0.000000
vt 0.345461 0.517235 0.000000
vt 0.598540 0.960858 0.000000
vt 0.591965 0.659355 0.000000
vt 0.597750 0.659355 0.000000
vt 0.895162 0.941777 0.000000
vt 0.999605 0.135941 0.000000
vt 0.508366 0.489410 0.000000
vt 0.208310 0.517235 0.000000
vt 0.184313 0.021961 0.000000
vt 0.121582 0.604656 0.000000
vt 0.121582 0.537103 0.000000
vt 0.690895 0.135941 0.000000
vt 0.375610 0.148300 0.000000
vt 0.690105 0.141726 0.000000
vt 0.987517 0.151476 0.000000
vt 0.233607 0.517235 0.000000
vt 0.690895 0.192810 0.000000
vt 0.155493 0.540279 0.000000
vt 0.369825 0.444116 0.000000
vt 0.369825 0.289631 0.000000
vt 0.419810 0.512621 0.000000
vt 0.322248 0.517235 0.000000
vt 0.369036 0.517234 0.000000
vt 0.276680 0.537103 0.000000
vt 0.160747 0.517234 0.000000
vt 0.094732 0.517235 0.000000
vt 0.496470 0.489410 0.000000
vt 0.987518 0.173731 0.000000
vt 0.137535 0.517235 0.000000
vt 0.424677 0.493487 0.000000
vt 0.121582 0.562533 0.000000
vt 0.369825 0.447289 0.000000
vt 0.243558 0.604656 0.000000
vt 0.155493 0.562533 0.000000
vt 0.091954 0.021961 0.000000
vt 0.185112 0.000395 0.000000
vt 0.019879 0.000395 0.000000
vt 0.204596 0.000395 0.000000
vt 0.667238 0.469541 0.000000
vt 0.895162 0.983111 0.000000
vt 0.684321 0.437536 0.000000
vt 0.907250 0.937811 0.000000
vt 0.428391 0.493487 0.000000
vt 0.895162 0.960856 0.000000
vt 0.447889 0.489410 0.000000
vt 0.283255 0.659355 0.000000
vt 0.375610 0.295416 0.000000
vt 0.253105 0.517235 0.000000
vt 0.532157 0.489410 0.000000
vt 0.112238 0.021962 0.000000
vt 0.068380 0.021962 0.000000
vt 0.479820 0.489410 0.000000
vt 0.667238 0.447289 0.000000
vt 0.369826 0.466368 0.000000
vt 0.907250 0.802265 0.000000
vt 0.907250 0.653570 0.000000
vt 0.488540 0.508488 0.000000
vt 0.684321 0.147511 0.000000
vt 0.503611 0.489410 0.000000
vt 0.184322 0.517234 0.000000
vt 0.389821 0.504917 0.000000
vt 0.519472 0.508488 0.000000
vt 0.208307 0.021962 0.000000
vt 0.322246 0.021962 0.000000
vt 0.318171 0.021962 0.000000
vt 0.483785 0.508488 0.000000
vt 0.531368 0.489410 0.000000
vt 0.690895 0.170557 0.000000
vt 0.907250 0.665930 0.000000
vt 0.907250 0.801476 0.000000
vt 0.598540 0.801476 0.000000
vt 0.598540 0.665930 0.000000
vt 0.277470 0.813835 0.000000
vt 0.283255 0.813046 0.000000
vt 0.666448 0.488620 0.000000
vt 0.999605 0.000395 0.000000
vt 0.296954 0.000395 0.000000
vt 0.277470 0.000395 0.000000
vt 0.491716 0.489410 0.000000
vt 0.419810 0.489410 0.000000
vt 0.283255 0.523810 0.000000
vt 0.277470 0.523810 0.000000
vt 0.375610 0.301991 0.000000
vt 0.690105 0.437536 0.000000
vt 0.524227 0.508488 0.000000
vt 0.476644 0.508488 0.000000
vt 0.515507 0.489410 0.000000
vt 0.121582 0.518025 0.000000
vt 0.122371 0.607831 0.000000
vt 0.121582 0.585577 0.000000
vt 0.233600 0.021962 0.000000
vt 0.325958 0.021962 0.000000
vt 0.121582 0.607832 0.000000
vt 0.121582 0.582401 0.000000
vt 0.068389 0.517235 0.000000
vt 0.279448 0.021962 0.000000
vt 0.122371 0.563323 0.000000
vt 0.155493 0.518025 0.000000
vt 0.508366 0.508488 0.000000
vt 0.372549 0.489410 0.000000
vt 0.141241 0.021962 0.000000
vt 0.375610 0.006180 0.000000
vt 0.369825 0.006180 0.000000
vt 0.684320 0.301990 0.000000
vt 0.276680 0.518025 0.000000
vt 0.690105 0.289631 0.000000
vt 0.375610 0.154085 0.000000
vt 0.277470 0.671715 0.000000
vt 0.325962 0.517235 0.000000
vt 0.475855 0.508488 0.000000
vt 0.277470 0.659355 0.000000
vt 0.480610 0.508488 0.000000
vt 0.527402 0.489410 0.000000
vt 0.019879 0.517235 0.000000
vt 0.349531 0.021962 0.000000
vt 0.160739 0.021962 0.000000
vt 0.000395 0.563323 0.000000
vt 0.000395 0.607831 0.000000
vt 0.000395 0.518025 0.000000
vt 0.300665 0.000395 0.000000
vt 0.690895 0.000395 0.000000
vt 0.684320 0.000395 0.000000
vt 0.375610 0.000395 0.000000
vt 0.023590 0.000395 0.000000
vt 0.208307 0.000395 0.000000
vt 0.115949 0.000395 0.000000
vt 0.243558 0.582401 0.000000
vt 0.591965 0.523810 0.000000
vt 0.597750 0.523810 0.000000
vt 0.523437 0.508488 0.000000
vt 0.492505 0.489410 0.000000
vt 0.072466 0.517234 0.000000
vt 0.516296 0.489410 0.000000
vt 0.398752 0.489410 0.000000
vt 0.491716 0.508488 0.000000
vt 0.987518 0.170555 0.000000
vt 0.045177 0.517235 0.000000
vt 0.023590 0.021962 0.000000
vt 0.253098 0.021962 0.000000
vt 0.164815 0.021962 0.000000
vt 0.122371 0.604656 0.000000
vt 0.423888 0.489410 0.000000
vt 0.907250 0.518025 0.000000
vt 0.597750 0.807261 0.000000
vt 0.591965 0.665930 0.000000
vt 0.520262 0.508488 0.000000
vt 0.512331 0.489410 0.000000
vt 0.528192 0.489410 0.000000
vt 0.318171 0.517235 0.000000
vt 0.283255 0.671715 0.000000
vt 0.591965 0.813046 0.000000
vt 0.133455 0.021962 0.000000
vt 0.187090 0.021962 0.000000
vt 0.369029 0.021962 0.000000
vt 0.000395 0.604656 0.000000
vt 0.684320 0.148300 0.000000
vt 0.229893 0.517235 0.000000
vt 0.987517 0.148300 0.000000
vt 0.475855 0.489410 0.000000
# 352 texture coords

o ????_??
g ????_??
f 337/710 338/712 340/709 339/972 
f 339/949 340/711 344/983 343/753 
f 343/819 344/728 342/951 341/929 
f 341/956 342/774 338/895 337/763 
f 339/775 343/819 341/929 337/916 
f 344/728 340/709 338/712 342/951 
f 345/944 346/850 348/817 347/884 
f 347/1003 348/817 352/761 351/732 
f 351/1053 352/761 350/1004 349/910 
f 349/713 350/1004 346/850 345/917 
f 347/966 351/967 349/968 345/969 
f 352/761 348/817 346/850 350/1004 
f 353/847 354/887 356/938 355/877 
f 355/981 356/938 360/1001 359/862 
f 359/707 360/1001 358/980 357/708 
f 357/778 358/980 354/887 353/883 
f 355/1040 359/953 357/882 353/724 
f 360/1001 356/938 354/887 358/980 
f 361/870 362/871 364/781 363/955 
f 363/911 364/781 368/807 367/808 
f 367/1019 368/807 366/999 365/1020 
f 365/1000 366/999 362/871 361/872 
f 363/973 367/903 365/909 361/1018 
f 368/807 364/781 362/871 366/999 
f 369/881 370/943 372/900 371/829 
f 371/901 372/900 376/1025 375/1026 
f 375/725 376/1025 374/978 373/777 
f 373/979 374/978 370/943 369/1008 
f 371/812 375/755 373/878 369/970 
f 376/1025 372/900 370/943 374/978 
f 377/971 378/737 380/822 379/1048 
f 379/1041 380/822 384/756 383/757 
f 383/1042 384/756 382/1047 381/863 
f 381/1005 382/1047 378/737 377/879 
f 379/952 383/939 381/830 377/855 
f 384/756 380/822 378/737 382/1047 
f 391/768 392/1029 390/992 389/948 
f 397/769 398/770 388/1034 387/714 
f 393/841 394/867 386/805 385/1035 
f 400/802 397/934 387/1021 393/803 
f 399/735 396/853 386/848 394/977 
f 398/715 399/735 394/977 388/1039 
f 395/806 400/802 393/803 385/1035 
f 387/714 388/1034 394/867 393/841 
f 392/1029 391/768 400/932 399/864 
f 390/716 392/918 399/735 398/715 
f 400/810 395/806 396/1011 399/758 
f 391/741 389/890 397/934 400/802 
f 389/948 390/992 398/770 397/769 
f 385/1035 386/805 396/1011 395/806 
f 407/771 408/759 406/945 405/1036 
f 413/988 414/913 404/1054 403/789 
f 409/717 410/811 402/905 401/960 
f 416/746 413/935 403/1022 409/795 
f 415/718 412/719 402/720 410/736 
f 414/897 415/718 410/736 404/721 
f 411/889 416/746 409/795 401/960 
f 403/789 404/1054 410/811 409/717 
f 408/759 407/771 416/831 415/856 
f 406/784 408/765 415/718 414/897 
f 416/1050 411/889 412/891 415/722 
f 407/804 405/933 413/935 416/746 
f 405/1036 406/945 414/913 413/988 
f 401/960 402/905 412/891 411/889 
f 423/1012 424/837 422/898 421/840 
f 429/989 430/1006 420/919 419/961 
f 425/962 426/1046 418/773 417/800 
f 432/824 429/974 419/1017 425/825 
f 431/893 428/1031 418/849 426/958 
f 430/854 431/893 426/958 420/723 
f 427/801 432/824 425/825 417/800 
f 419/961 420/919 426/1046 425/962 
f 424/837 423/1012 432/1051 431/920 
f 422/787 424/997 431/893 430/854 
f 432/993 427/801 428/705 431/834 
f 423/828 421/975 429/974 432/824 
f 421/840 422/898 430/1006 429/989 
f 417/800 418/773 428/705 427/801 
f 439/1037 440/859 438/922 437/1013 
f 445/998 446/833 436/926 435/857 
f 441/1049 442/782 434/793 433/852 
f 448/747 445/794 435/1023 441/748 
f 447/940 444/894 434/791 442/927 
f 446/816 447/940 442/927 436/726 
f 443/947 448/747 441/748 433/852 
f 435/857 436/926 442/782 441/1049 
f 440/859 439/1037 448/906 447/957 
f 438/942 440/818 447/940 446/816 
f 448/749 443/947 444/865 447/923 
f 439/799 437/740 445/794 448/747 
f 437/1013 438/922 446/833 445/998 
f 433/852 434/793 444/865 443/947 
f 449/888 450/936 452/729 451/783 
f 451/1056 452/1007 456/751 455/875 
f 455/739 456/813 454/744 453/950 
f 453/880 454/885 450/745 449/1028 
f 451/874 455/739 453/950 449/752 
f 456/813 452/729 450/936 454/744 
f 457/823 458/991 460/843 459/1014 
f 459/846 460/963 464/1009 463/858 
f 463/1052 464/750 462/987 461/907 
f 461/976 462/1032 458/954 457/772 
f 459/1015 463/1052 461/907 457/990 
f 464/750 460/843 458/991 462/987 
f 465/985 466/908 468/844 467/1016 
f 467/706 468/743 472/733 471/924 
f 471/868 472/842 470/754 469/785 
f 469/730 470/796 466/766 465/896 
f 467/869 471/868 469/785 465/928 
f 472/842 468/844 466/908 470/754 
f 473/914 474/838 476/925 475/892 
f 475/984 476/814 480/836 479/1044 
f 479/912 480/1033 478/965 477/734 
f 477/964 478/731 474/727 473/1045 
f 475/1055 479/912 477/734 473/742 
f 480/1033 476/925 474/838 478/965 
f 481/779 482/860 484/876 483/937 
f 483/886 484/959 488/798 487/1030 
f 487/902 488/941 486/899 485/815 
f 485/738 486/873 482/996 481/904 
f 483/832 487/902 485/815 481/792 
f 488/941 484/876 482/860 486/899 
f 489/764 490/1024 492/826 491/994 
f 491/790 492/760 496/776 495/861 
f 495/1038 496/827 494/809 493/930 
f 493/788 494/835 490/851 489/946 
f 491/986 495/1038 493/930 489/786 
f 496/827 492/826 490/1024 494/809 
f 497/1002 498/921 500/845 499/995 
f 499/762 500/1027 504/1043 503/797 
f 503/820 504/915 502/866 501/767 
f 501/1010 502/780 498/982 497/821 
f 499/931 503/820 501/767 497/839 
f 504/915 500/845 498/921 502/866 
# 134 polygons

