# 3ds Max Wavefront OBJ Exporter v0.97b - (c)2007 guruware
# File Created: 05.08.2021 13:41:13

#
# object 2?_????___??
#

v  0.268884 20.958000 11.691849
v  0.904993 20.958000 12.652786
v  14.542278 20.958351 11.692001
v  13.586020 20.958351 12.639771
v  13.586020 10.687415 12.639771
v  14.542278 10.687428 11.692001
v  13.586020 10.687427 31.669907
v  13.586020 20.958351 31.669907
v  0.904993 20.958000 31.668549
v  14.542278 10.687451 32.630905
v  14.542278 20.958351 32.630829
v  13.586020 10.687427 24.910583
v  14.542278 10.687451 24.910599
v  13.586020 10.687427 30.110062
v  14.542278 10.687451 30.110062
v  13.586020 19.136845 30.110062
v  14.542278 19.136845 30.110062
v  13.586020 19.136845 24.910583
v  14.542278 19.136845 24.910599
v  14.542278 20.958351 20.362854
v  13.586020 20.958351 20.362854
v  13.586020 10.687427 20.362854
v  14.542278 10.687451 20.362854
v  0.268884 20.958000 32.630859
v  0.268884 20.958000 11.691849
v  0.268884 10.687399 32.630905
v  0.904993 20.958000 12.652084
v  0.904993 10.687399 12.652863
v  0.904993 10.687399 31.669907
v  0.268884 10.687399 11.691849
# 30 vertices

vt 0.422625 0.574636 0.000000
vt 0.422625 0.712853 0.000000
vt 0.391968 0.734413 0.000000
vt 0.391968 0.611612 0.000000
vt 0.593280 0.712858 0.000000
vt 0.221312 0.611612 0.000000
vt 0.623937 0.447275 0.000000
vt 0.623937 0.585497 0.000000
vt 0.794592 0.585492 0.000000
vt 0.221312 0.734409 0.000000
vt 0.485546 0.203900 0.000000
vt 0.522611 0.218745 0.000000
vt 0.020000 0.886875 0.000000
vt 0.020000 0.978982 0.000000
vt 0.089258 0.978982 0.000000
vt 0.522611 0.135036 0.000000
vt 0.485546 0.135036 0.000000
vt 0.593280 0.218745 0.000000
vt 0.507982 0.940285 0.000000
vt 0.586453 0.940285 0.000000
vt 0.586454 0.980000 0.000000
vt 0.507982 0.980000 0.000000
vt 0.501096 0.980000 0.000000
vt 0.501096 0.940285 0.000000
vt 0.422625 0.980000 0.000000
vt 0.422625 0.940285 0.000000
vt 0.190648 0.020000 0.000000
vt 0.794592 0.447275 0.000000
vt 0.593280 0.135036 0.000000
vt 0.089258 0.886876 0.000000
vt 0.130040 0.962647 0.000000
vt 0.130040 0.886876 0.000000
vt 0.190655 0.978982 0.000000
vt 0.176667 0.962647 0.000000
vt 0.443170 0.203900 0.000000
vt 0.422625 0.218745 0.000000
vt 0.794592 0.135036 0.000000
vt 0.190655 0.599286 0.000000
vt 0.623937 0.135036 0.000000
vt 0.020000 0.020000 0.000000
vt 0.020012 0.112163 0.000000
vt 0.190655 0.112163 0.000000
vt 0.623937 0.218742 0.000000
vt 0.190655 0.886876 0.000000
vt 0.176667 0.886876 0.000000
vt 0.794592 0.218742 0.000000
vt 0.593280 0.574636 0.000000
vt 0.020000 0.599287 0.000000
vt 0.020000 0.722088 0.000000
vt 0.190655 0.722084 0.000000
vt 0.443170 0.135036 0.000000
vt 0.422625 0.135036 0.000000
# 52 texture coords

o 2?_????___??
g 2?_????___??
f 29/28 9/9 8/8 7/7 
f 24/10 26/6 10/4 11/3 
f 18/22 12/21 13/20 19/19 
f 17/24 16/23 18/22 19/19 
f 15/26 14/25 16/23 17/24 
f 22/30 21/15 4/14 5/13 
f 13/17 23/16 20/12 19/11 
f 22/30 12/32 18/31 21/15 
f 23/16 6/29 3/18 20/12 
f 20/12 11/36 17/35 19/11 
f 18/31 16/34 8/33 21/15 
f 11/36 10/52 15/51 17/35 
f 16/34 14/45 7/44 8/33 
f 1/50 3/49 6/48 30/38 
f 5/47 4/5 2/2 28/1 
f 27/42 9/41 29/40 28/27 
f 24/46 25/43 30/39 26/37 
# 17 polygons

#
# object 2?_????___??001
#

v  35.130440 20.958351 19.107132
v  34.174438 10.687413 20.152969
v  35.130440 10.687428 19.107132
v  34.174461 10.687427 35.013763
v  34.174461 20.958351 35.013763
v  35.130791 10.687451 35.923065
v  35.130783 20.958351 35.923004
v  34.174465 10.687426 24.910416
v  35.130791 10.687451 24.910431
v  34.174465 10.687426 30.109894
v  35.130791 10.687451 30.109894
v  34.174461 19.136845 30.109894
v  35.130783 19.136845 30.109894
v  34.174461 19.136845 24.910416
v  35.130783 19.136845 24.910431
v  34.174435 20.958351 20.152588
v  14.540863 10.687427 35.013779
v  14.540863 20.958351 35.013779
v  13.584542 20.958351 35.923004
v  13.584539 10.687451 35.923065
v  14.540876 20.958351 31.662735
v  13.584715 20.958351 31.662735
v  14.055477 20.958351 20.152588
v  14.055477 20.958351 19.107132
v  14.055477 10.687428 19.107132
v  14.055477 10.687413 20.152969
v  13.584538 10.687451 31.662735
v  14.540863 10.687427 31.662735
# 28 vertices

vt 0.391968 0.333084 0.000000
vt 0.623937 0.340456 0.000000
vt 0.020000 0.743081 0.000000
vt 0.623937 0.113675 0.000000
vt 0.422629 0.434950 0.000000
vt 0.422625 0.552895 0.000000
vt 0.477260 0.531978 0.000000
vt 0.333073 0.570016 0.000000
vt 0.391968 0.588505 0.000000
vt 0.391968 0.484251 0.000000
vt 0.422625 0.743081 0.000000
vt 0.593279 0.822834 0.000000
vt 0.422625 0.822834 0.000000
vt 0.593280 0.032325 0.000000
vt 0.422625 0.112078 0.000000
vt 0.422625 0.032325 0.000000
vt 0.623937 0.826942 0.000000
vt 0.794591 0.747189 0.000000
vt 0.794591 0.826943 0.000000
vt 0.020000 0.832356 0.000000
vt 0.794592 0.113675 0.000000
vt 0.477260 0.434950 0.000000
vt 0.593280 0.552895 0.000000
vt 0.536968 0.531978 0.000000
vt 0.593280 0.434950 0.000000
vt 0.333073 0.484251 0.000000
vt 0.280307 0.570016 0.000000
vt 0.221313 0.588505 0.000000
vt 0.623937 0.423626 0.000000
vt 0.280307 0.484251 0.000000
vt 0.593279 0.743081 0.000000
vt 0.593280 0.112078 0.000000
vt 0.623937 0.747189 0.000000
vt 0.536968 0.434950 0.000000
vt 0.391968 0.245963 0.000000
vt 0.794592 0.423626 0.000000
vt 0.190655 0.832356 0.000000
vt 0.190655 0.743081 0.000000
vt 0.794592 0.032325 0.000000
vt 0.623937 0.032325 0.000000
vt 0.221312 0.245963 0.000000
vt 0.794592 0.340456 0.000000
vt 0.794592 0.316694 0.000000
vt 0.593280 0.412569 0.000000
vt 0.794592 0.245964 0.000000
vt 0.593280 0.356890 0.000000
vt 0.422625 0.356890 0.000000
vt 0.623937 0.245963 0.000000
vt 0.623937 0.316694 0.000000
vt 0.422625 0.412569 0.000000
vt 0.221312 0.484251 0.000000
vt 0.221312 0.333084 0.000000
# 52 texture coords

o 2?_????___??001
g 2?_????___??001
f 47/90 48/89 35/72 34/55 
f 44/65 38/64 39/83 45/63 
f 43/68 42/67 44/84 45/66 
f 41/71 40/70 42/85 43/69 
f 38/74 44/59 46/58 32/57 
f 39/78 33/62 31/61 45/60 
f 31/61 37/80 43/79 45/60 
f 44/59 42/76 35/75 46/58 
f 37/80 36/103 41/82 43/79 
f 42/76 40/86 34/77 35/75 
f 53/104 56/93 32/87 46/53 
f 50/92 36/91 37/73 49/56 
f 55/94 54/88 31/81 33/54 
f 57/101 50/100 49/97 52/95 
f 51/102 48/99 47/98 58/96 
# 15 polygons

#
# object 2?_????___??005
#

v  55.248394 20.958351 19.107132
v  54.292397 10.687413 20.152969
v  55.248394 10.687428 19.107132
v  54.292419 10.687427 35.013763
v  54.292419 20.958351 35.013763
v  55.248745 10.687451 35.923065
v  55.248741 20.958351 35.923004
v  54.292419 10.687426 24.910416
v  55.248745 10.687451 24.910431
v  54.292419 10.687426 30.109894
v  55.248745 10.687451 30.109894
v  54.292419 19.136845 30.109894
v  55.248741 19.136845 30.109894
v  54.292419 19.136845 24.910416
v  55.248741 19.136845 24.910431
v  54.292393 20.958351 20.152588
v  34.173588 10.687427 35.013779
v  34.173588 20.958351 35.013779
v  34.173588 20.958351 35.923004
v  34.173588 10.687451 35.923065
v  34.173431 20.958351 20.152588
v  34.173435 20.958351 19.107132
v  34.173435 10.687428 19.107132
v  34.173431 10.687413 20.152969
# 24 vertices

vt 0.593280 0.333084 0.000000
vt 0.335213 0.442655 0.000000
vt 0.020000 0.488359 0.000000
vt 0.394108 0.461144 0.000000
vt 0.623941 0.607503 0.000000
vt 0.623937 0.725448 0.000000
vt 0.678572 0.704531 0.000000
vt 0.394108 0.356890 0.000000
vt 0.335213 0.356890 0.000000
vt 0.282447 0.442655 0.000000
vt 0.221312 0.755406 0.000000
vt 0.391967 0.835159 0.000000
vt 0.221312 0.835159 0.000000
vt 0.391967 0.032325 0.000000
vt 0.221312 0.112078 0.000000
vt 0.221312 0.032325 0.000000
vt 0.222286 0.978954 0.000000
vt 0.392941 0.899201 0.000000
vt 0.392941 0.978954 0.000000
vt 0.020000 0.575481 0.000000
vt 0.022140 0.464709 0.000000
vt 0.678572 0.607503 0.000000
vt 0.794592 0.725448 0.000000
vt 0.738279 0.704531 0.000000
vt 0.794592 0.607503 0.000000
vt 0.223453 0.461144 0.000000
vt 0.192795 0.464709 0.000000
vt 0.192795 0.381540 0.000000
vt 0.022140 0.381540 0.000000
vt 0.221312 0.135036 0.000000
vt 0.391967 0.755406 0.000000
vt 0.391968 0.112078 0.000000
vt 0.222286 0.899201 0.000000
vt 0.738279 0.607503 0.000000
vt 0.593280 0.245963 0.000000
vt 0.221312 0.218205 0.000000
vt 0.190655 0.575481 0.000000
vt 0.190655 0.488359 0.000000
vt 0.422625 0.245963 0.000000
vt 0.422625 0.333084 0.000000
vt 0.391968 0.218205 0.000000
vt 0.391968 0.135036 0.000000
vt 0.282447 0.356890 0.000000
vt 0.223452 0.356890 0.000000
# 44 texture coords

o 2?_????___??005
g 2?_????___??005
f 75/142 76/141 63/124 62/107 
f 72/117 66/116 67/135 73/115 
f 71/120 70/119 72/136 73/118 
f 69/123 68/122 70/137 71/121 
f 66/126 72/111 74/110 60/109 
f 67/113 61/112 59/108 73/106 
f 59/108 65/130 71/114 73/106 
f 72/111 70/128 63/127 74/110 
f 65/130 64/148 69/147 71/114 
f 70/128 68/138 62/129 63/127 
f 79/144 82/143 60/139 74/105 
f 78/133 64/132 65/131 77/125 
f 81/146 80/145 59/140 61/134 
# 13 polygons

#
# object Object002
#

v  0.267973 10.166262 11.691826
v  0.267973 10.687259 11.691826
v  0.267974 10.166260 35.979576
v  0.267974 10.687257 35.979576
v  14.527708 10.687259 11.691828
v  14.527708 10.166262 11.691828
v  14.527708 10.166260 35.979576
v  14.527708 10.687257 35.979576
# 8 vertices

vt 0.957291 0.388595 0.000000
vt 0.960236 0.388577 0.000000
vt 0.960727 0.469195 0.000000
vt 0.957781 0.469213 0.000000
vt 0.819978 0.389430 0.000000
vt 0.820468 0.470048 0.000000
vt 0.819960 0.386484 0.000000
vt 0.817523 0.470066 0.000000
vt 0.021266 0.358483 0.000000
vt 0.020000 0.258288 0.000000
vt 0.190655 0.258288 0.000000
vt 0.191922 0.358483 0.000000
vt 0.957273 0.385649 0.000000
vt 0.957799 0.472159 0.000000
vt 0.817032 0.389448 0.000000
vt 0.820486 0.472994 0.000000
# 16 texture coords

o Object002
g Object002
f 83/149 84/150 87/151 88/152 
f 85/153 83/149 88/152 89/154 
f 86/155 84/161 83/149 85/153 
f 87/157 84/158 86/159 90/160 
f 90/156 86/163 85/153 89/154 
f 87/162 90/164 89/154 88/152 
# 6 polygons

#
# object Object003
#

v  14.527708 10.166260 35.979576
v  14.527708 10.687257 35.979576
v  14.527708 10.166262 19.040499
v  14.527708 10.687259 19.040499
v  34.355793 10.687257 35.979580
v  34.355793 10.166260 35.979580
v  34.355793 10.166262 19.040499
v  34.355793 10.687259 19.040499
# 8 vertices

vt 0.819228 0.120006 0.000000
vt 0.817032 0.119990 0.000000
vt 0.817654 0.036434 0.000000
vt 0.819849 0.036450 0.000000
vt 0.892805 0.120553 0.000000
vt 0.893427 0.036997 0.000000
vt 0.890610 0.120537 0.000000
vt 0.891231 0.036981 0.000000
vt 0.964188 0.121084 0.000000
vt 0.964809 0.037528 0.000000
# 10 texture coords

o Object003
g Object003
f 92/165 91/166 96/167 95/168 
f 91/173 93/169 97/170 96/174 
f 93/169 94/171 98/172 97/170 
f 94/171 92/165 95/168 98/172 
# 4 polygons

#
# object Object007
#

v  0.267973 20.884914 11.691826
v  0.267973 21.405910 11.691826
v  0.267974 20.884912 35.979576
v  0.267974 21.405910 35.979576
v  14.527708 21.405910 11.691828
v  14.527708 20.884914 11.691828
v  0.267974 21.405910 19.040499
v  0.267974 20.884914 19.040499
v  14.527708 20.884912 35.979576
v  14.527708 21.405910 35.979576
v  14.527708 20.884914 19.040499
v  14.527708 21.405910 19.040499
# 12 vertices

vt 0.962279 0.236970 0.000000
vt 0.959291 0.236954 0.000000
vt 0.959719 0.155186 0.000000
vt 0.189747 0.236244 0.000000
vt 0.962707 0.155201 0.000000
vt 0.820020 0.236225 0.000000
vt 0.917152 0.236733 0.000000
vt 0.917136 0.239721 0.000000
vt 0.820004 0.239212 0.000000
vt 0.917580 0.154965 0.000000
vt 0.820448 0.154457 0.000000
vt 0.817461 0.154441 0.000000
vt 0.917596 0.151978 0.000000
vt 0.071360 0.235165 0.000000
vt 0.072268 0.135504 0.000000
vt 0.190655 0.136583 0.000000
vt 0.020000 0.234697 0.000000
vt 0.020908 0.135036 0.000000
vt 0.959275 0.239942 0.000000
vt 0.959734 0.152198 0.000000
vt 0.817032 0.236209 0.000000
vt 0.820464 0.151469 0.000000
# 22 texture coords

o Object007
g Object007
f 99/175 100/176 103/177 104/179 
f 101/178 106/188 109/189 107/190 
f 102/180 105/181 106/182 101/183 
f 103/177 100/176 105/181 110/184 
f 108/185 102/180 101/195 107/186 
f 103/177 110/184 109/187 104/194 
f 106/188 99/191 104/192 109/189 
f 105/181 100/176 99/193 106/182 
f 105/181 102/180 108/185 110/184 
f 107/196 109/187 110/184 108/185 
# 10 polygons

#
# object Object008
#

v  14.527708 20.884912 35.979576
v  14.527708 21.405910 35.979576
v  14.527708 20.884914 19.040499
v  14.527708 21.405910 19.040499
v  34.355793 21.405910 35.979580
v  34.355793 20.884912 35.979580
v  34.355793 20.884914 19.040499
v  34.355793 21.405910 19.040499
# 8 vertices

vt 0.817710 0.270613 0.000000
vt 0.819850 0.270631 0.000000
vt 0.819171 0.352037 0.000000
vt 0.817032 0.352020 0.000000
vt 0.889395 0.271210 0.000000
vt 0.888717 0.352617 0.000000
vt 0.891534 0.271229 0.000000
vt 0.890856 0.352635 0.000000
vt 0.961079 0.271808 0.000000
vt 0.960401 0.353214 0.000000
# 10 texture coords

o Object008
g Object008
f 112/197 111/198 116/199 115/200 
f 111/198 113/201 117/202 116/199 
f 113/201 114/203 118/204 117/202 
f 114/203 112/205 115/206 118/204 
# 4 polygons

#
# object Object014
#

v  34.196239 10.166260 35.979576
v  34.196239 10.687257 35.979576
v  34.196239 10.166262 19.040497
v  34.196239 10.687259 19.040497
v  55.470886 10.687257 35.979576
v  55.470886 10.166260 35.979576
v  55.470886 10.166262 19.040497
v  55.470886 10.687259 19.040497
# 8 vertices

vt 0.819228 0.120006 0.000000
vt 0.817032 0.119990 0.000000
vt 0.817654 0.036434 0.000000
vt 0.819849 0.036450 0.000000
vt 0.892805 0.120553 0.000000
vt 0.893427 0.036997 0.000000
vt 0.890610 0.120537 0.000000
vt 0.891231 0.036981 0.000000
vt 0.964188 0.121084 0.000000
vt 0.964809 0.037528 0.000000
# 10 texture coords

o Object014
g Object014
f 120/207 119/208 124/209 123/210 
f 119/215 121/211 125/212 124/216 
f 121/211 122/213 126/214 125/212 
f 122/213 120/207 123/210 126/214 
# 4 polygons

#
# object Object015
#

v  34.196239 20.884912 35.979576
v  34.196239 21.405910 35.979576
v  34.196239 20.884914 19.040497
v  34.196239 21.405912 19.040497
v  55.470886 21.405910 35.979576
v  55.470886 20.884912 35.979576
v  55.470886 20.884914 19.040497
v  55.470886 21.405912 19.040497
# 8 vertices

vt 0.817710 0.270613 0.000000
vt 0.819850 0.270631 0.000000
vt 0.819171 0.352037 0.000000
vt 0.817032 0.352020 0.000000
vt 0.889395 0.271210 0.000000
vt 0.888717 0.352617 0.000000
vt 0.891534 0.271229 0.000000
vt 0.890856 0.352635 0.000000
vt 0.961079 0.271808 0.000000
vt 0.960401 0.353214 0.000000
# 10 texture coords

o Object015
g Object015
f 128/217 127/218 132/219 131/220 
f 127/218 129/221 133/222 132/219 
f 129/221 130/223 134/224 133/222 
f 130/223 128/225 131/226 134/224 
# 4 polygons

#
# object 2?_????___??006
#

v  76.256081 20.958351 19.107132
v  75.300079 10.687413 20.152969
v  76.256081 10.687428 19.107132
v  75.300110 10.687427 35.013763
v  75.300110 20.958351 35.013763
v  76.256432 10.687451 35.923065
v  76.256424 20.958351 35.923004
v  75.300110 10.687426 24.910416
v  76.256432 10.687451 24.910431
v  75.300110 10.687426 30.109894
v  76.256432 10.687451 30.109894
v  75.300110 19.136845 30.109894
v  76.256424 19.136845 30.109894
v  75.300110 19.136845 24.910416
v  76.256424 19.136845 24.910431
v  75.300079 20.958351 20.152588
v  55.181274 10.687427 35.013779
v  55.181274 20.958351 35.013779
v  55.181274 20.958351 35.923004
v  55.181274 10.687451 35.923065
v  55.181118 20.958351 20.152588
v  55.181122 20.958351 19.107132
v  55.181122 10.687428 19.107132
v  55.181118 10.687413 20.152969
# 24 vertices

vt 0.593280 0.333084 0.000000
vt 0.335213 0.442655 0.000000
vt 0.020000 0.488359 0.000000
vt 0.394108 0.461144 0.000000
vt 0.623941 0.607503 0.000000
vt 0.623937 0.725448 0.000000
vt 0.678572 0.704531 0.000000
vt 0.394108 0.356890 0.000000
vt 0.335213 0.356890 0.000000
vt 0.282447 0.442655 0.000000
vt 0.221312 0.755406 0.000000
vt 0.391967 0.835159 0.000000
vt 0.221312 0.835159 0.000000
vt 0.391967 0.032325 0.000000
vt 0.221312 0.112078 0.000000
vt 0.221312 0.032325 0.000000
vt 0.222286 0.978954 0.000000
vt 0.392941 0.899201 0.000000
vt 0.392941 0.978954 0.000000
vt 0.020000 0.575481 0.000000
vt 0.022140 0.464709 0.000000
vt 0.678572 0.607503 0.000000
vt 0.794592 0.725448 0.000000
vt 0.738279 0.704531 0.000000
vt 0.794592 0.607503 0.000000
vt 0.223453 0.461144 0.000000
vt 0.192795 0.464709 0.000000
vt 0.192795 0.381540 0.000000
vt 0.022140 0.381540 0.000000
vt 0.221312 0.135036 0.000000
vt 0.391967 0.755406 0.000000
vt 0.391968 0.112078 0.000000
vt 0.222286 0.899201 0.000000
vt 0.738279 0.607503 0.000000
vt 0.593280 0.245963 0.000000
vt 0.221312 0.218205 0.000000
vt 0.190655 0.575481 0.000000
vt 0.190655 0.488359 0.000000
vt 0.422625 0.245963 0.000000
vt 0.422625 0.333084 0.000000
vt 0.391968 0.218205 0.000000
vt 0.391968 0.135036 0.000000
vt 0.282447 0.356890 0.000000
vt 0.223452 0.356890 0.000000
# 44 texture coords

o 2?_????___??006
g 2?_????___??006
f 151/264 152/263 139/246 138/229 
f 148/239 142/238 143/257 149/237 
f 147/242 146/241 148/258 149/240 
f 145/245 144/244 146/259 147/243 
f 142/248 148/233 150/232 136/231 
f 143/235 137/234 135/230 149/228 
f 135/230 141/252 147/236 149/228 
f 148/233 146/250 139/249 150/232 
f 141/252 140/270 145/269 147/236 
f 146/250 144/260 138/251 139/249 
f 155/266 158/265 136/261 150/227 
f 154/255 140/254 141/253 153/247 
f 157/268 156/267 135/262 137/256 
# 13 polygons

#
# object Object016
#

v  55.203922 10.166260 35.979576
v  55.203922 10.687257 35.979576
v  55.203922 10.166262 19.040497
v  55.203922 10.687259 19.040497
v  76.478569 10.687257 35.979576
v  76.478569 10.166260 35.979576
v  76.478569 10.166262 19.040497
v  76.478569 10.687259 19.040497
# 8 vertices

vt 0.819228 0.120006 0.000000
vt 0.817032 0.119990 0.000000
vt 0.817654 0.036434 0.000000
vt 0.819849 0.036450 0.000000
vt 0.892805 0.120553 0.000000
vt 0.893427 0.036997 0.000000
vt 0.890610 0.120537 0.000000
vt 0.891231 0.036981 0.000000
vt 0.964188 0.121084 0.000000
vt 0.964809 0.037528 0.000000
# 10 texture coords

o Object016
g Object016
f 160/271 159/272 164/273 163/274 
f 159/279 161/275 165/276 164/280 
f 161/275 162/277 166/278 165/276 
f 162/277 160/271 163/274 166/278 
# 4 polygons

#
# object Object017
#

v  55.203922 20.884912 35.979576
v  55.203922 21.405910 35.979576
v  55.203922 20.884914 19.040497
v  55.203922 21.405912 19.040497
v  76.478569 21.405910 35.979576
v  76.478569 20.884912 35.979576
v  76.478569 20.884914 19.040497
v  76.478569 21.405912 19.040497
# 8 vertices

vt 0.817710 0.270613 0.000000
vt 0.819850 0.270631 0.000000
vt 0.819171 0.352037 0.000000
vt 0.817032 0.352020 0.000000
vt 0.889395 0.271210 0.000000
vt 0.888717 0.352617 0.000000
vt 0.891534 0.271229 0.000000
vt 0.890856 0.352635 0.000000
vt 0.961079 0.271808 0.000000
vt 0.960401 0.353214 0.000000
# 10 texture coords

o Object017
g Object017
f 168/281 167/282 172/283 171/284 
f 167/282 169/285 173/286 172/283 
f 169/285 170/287 174/288 173/286 
f 170/287 168/289 171/290 174/288 
# 4 polygons

#
# object 2?_????___??007
#

v  97.263763 20.958351 19.107132
v  96.307762 10.687413 20.152969
v  97.263763 10.687428 19.107132
v  96.307785 10.687427 35.013763
v  96.307785 20.958351 35.013763
v  97.264114 10.687451 35.923065
v  97.264114 20.958351 35.923004
v  96.307793 10.687426 24.910416
v  97.264114 10.687451 24.910431
v  96.307793 10.687426 30.109894
v  97.264114 10.687451 30.109894
v  96.307785 19.136845 30.109894
v  97.264114 19.136845 30.109894
v  96.307785 19.136845 24.910416
v  97.264114 19.136845 24.910431
v  96.307762 20.958351 20.152588
v  76.188957 10.687427 35.013779
v  76.188957 20.958351 35.013779
v  76.188957 20.958351 35.923004
v  76.188957 10.687451 35.923065
v  76.188805 20.958351 20.152588
v  76.188805 20.958351 19.107132
v  76.188805 10.687428 19.107132
v  76.188805 10.687413 20.152969
# 24 vertices

vt 0.593280 0.333084 0.000000
vt 0.335213 0.442655 0.000000
vt 0.020000 0.488359 0.000000
vt 0.394108 0.461144 0.000000
vt 0.623941 0.607503 0.000000
vt 0.623937 0.725448 0.000000
vt 0.678572 0.704531 0.000000
vt 0.394108 0.356890 0.000000
vt 0.335213 0.356890 0.000000
vt 0.282447 0.442655 0.000000
vt 0.221312 0.755406 0.000000
vt 0.391967 0.835159 0.000000
vt 0.221312 0.835159 0.000000
vt 0.391967 0.032325 0.000000
vt 0.221312 0.112078 0.000000
vt 0.221312 0.032325 0.000000
vt 0.222286 0.978954 0.000000
vt 0.392941 0.899201 0.000000
vt 0.392941 0.978954 0.000000
vt 0.020000 0.575481 0.000000
vt 0.022140 0.464709 0.000000
vt 0.678572 0.607503 0.000000
vt 0.794592 0.725448 0.000000
vt 0.738279 0.704531 0.000000
vt 0.794592 0.607503 0.000000
vt 0.223453 0.461144 0.000000
vt 0.192795 0.464709 0.000000
vt 0.192795 0.381540 0.000000
vt 0.022140 0.381540 0.000000
vt 0.221312 0.135036 0.000000
vt 0.391967 0.755406 0.000000
vt 0.391968 0.112078 0.000000
vt 0.222286 0.899201 0.000000
vt 0.738279 0.607503 0.000000
vt 0.593280 0.245963 0.000000
vt 0.221312 0.218205 0.000000
vt 0.190655 0.575481 0.000000
vt 0.190655 0.488359 0.000000
vt 0.422625 0.245963 0.000000
vt 0.422625 0.333084 0.000000
vt 0.391968 0.218205 0.000000
vt 0.391968 0.135036 0.000000
vt 0.282447 0.356890 0.000000
vt 0.223452 0.356890 0.000000
# 44 texture coords

o 2?_????___??007
g 2?_????___??007
f 191/328 192/327 179/310 178/293 
f 188/303 182/302 183/321 189/301 
f 187/306 186/305 188/322 189/304 
f 185/309 184/308 186/323 187/307 
f 182/312 188/297 190/296 176/295 
f 183/299 177/298 175/294 189/292 
f 175/294 181/316 187/300 189/292 
f 188/297 186/314 179/313 190/296 
f 181/316 180/334 185/333 187/300 
f 186/314 184/324 178/315 179/313 
f 195/330 198/329 176/325 190/291 
f 194/319 180/318 181/317 193/311 
f 197/332 196/331 175/326 177/320 
# 13 polygons

#
# object Object018
#

v  76.211601 10.166260 35.979576
v  76.211601 10.687257 35.979576
v  76.211601 10.166262 19.040497
v  76.211601 10.687259 19.040497
v  97.486244 10.687257 35.979576
v  97.486244 10.166260 35.979576
v  97.486244 10.166262 19.040497
v  97.486244 10.687259 19.040497
# 8 vertices

vt 0.819228 0.120006 0.000000
vt 0.817032 0.119990 0.000000
vt 0.817654 0.036434 0.000000
vt 0.819849 0.036450 0.000000
vt 0.892805 0.120553 0.000000
vt 0.893427 0.036997 0.000000
vt 0.890610 0.120537 0.000000
vt 0.891231 0.036981 0.000000
vt 0.964188 0.121084 0.000000
vt 0.964809 0.037528 0.000000
# 10 texture coords

o Object018
g Object018
f 200/335 199/336 204/337 203/338 
f 199/343 201/339 205/340 204/344 
f 201/339 202/341 206/342 205/340 
f 202/341 200/335 203/338 206/342 
# 4 polygons

#
# object Object019
#

v  76.211601 20.884912 35.979576
v  76.211601 21.405910 35.979576
v  76.211601 20.884914 19.040497
v  76.211601 21.405912 19.040497
v  97.486244 21.405910 35.979576
v  97.486244 20.884912 35.979576
v  97.486244 20.884914 19.040497
v  97.486244 21.405912 19.040497
# 8 vertices

vt 0.817710 0.270613 0.000000
vt 0.819850 0.270631 0.000000
vt 0.819171 0.352037 0.000000
vt 0.817032 0.352020 0.000000
vt 0.889395 0.271210 0.000000
vt 0.888717 0.352617 0.000000
vt 0.891534 0.271229 0.000000
vt 0.890856 0.352635 0.000000
vt 0.961079 0.271808 0.000000
vt 0.960401 0.353214 0.000000
# 10 texture coords

o Object019
g Object019
f 208/345 207/346 212/347 211/348 
f 207/346 209/349 213/350 212/347 
f 209/349 210/351 214/352 213/350 
f 210/351 208/353 211/354 214/352 
# 4 polygons

#
# object 2?_????___??008
#

v  118.271446 20.958351 19.107132
v  117.315445 10.687413 20.152969
v  118.271446 10.687428 19.107132
v  117.315475 10.687427 35.013763
v  117.315475 20.958351 35.013763
v  118.271797 10.687451 35.923065
v  118.271790 20.958351 35.923004
v  117.315475 10.687426 24.910416
v  118.271797 10.687451 24.910431
v  117.315475 10.687426 30.109894
v  118.271797 10.687451 30.109894
v  117.315475 19.136845 30.109894
v  118.271790 19.136845 30.109894
v  117.315475 19.136845 24.910416
v  118.271790 19.136845 24.910431
v  117.315445 20.958351 20.152588
v  97.196640 10.687427 35.013779
v  97.196640 20.958351 35.013779
v  97.196640 20.958351 35.923004
v  97.196640 10.687451 35.923065
v  97.196487 20.958351 20.152588
v  97.196487 20.958351 19.107132
v  97.196487 10.687428 19.107132
v  97.196487 10.687413 20.152969
# 24 vertices

vt 0.593280 0.333084 0.000000
vt 0.335213 0.442655 0.000000
vt 0.020000 0.488359 0.000000
vt 0.394108 0.461144 0.000000
vt 0.623941 0.607503 0.000000
vt 0.623937 0.725448 0.000000
vt 0.678572 0.704531 0.000000
vt 0.394108 0.356890 0.000000
vt 0.335213 0.356890 0.000000
vt 0.282447 0.442655 0.000000
vt 0.221312 0.755406 0.000000
vt 0.391967 0.835159 0.000000
vt 0.221312 0.835159 0.000000
vt 0.391967 0.032325 0.000000
vt 0.221312 0.112078 0.000000
vt 0.221312 0.032325 0.000000
vt 0.222286 0.978954 0.000000
vt 0.392941 0.899201 0.000000
vt 0.392941 0.978954 0.000000
vt 0.020000 0.575481 0.000000
vt 0.022140 0.464709 0.000000
vt 0.678572 0.607503 0.000000
vt 0.794592 0.725448 0.000000
vt 0.738279 0.704531 0.000000
vt 0.794592 0.607503 0.000000
vt 0.223453 0.461144 0.000000
vt 0.192795 0.464709 0.000000
vt 0.192795 0.381540 0.000000
vt 0.022140 0.381540 0.000000
vt 0.221312 0.135036 0.000000
vt 0.391967 0.755406 0.000000
vt 0.391968 0.112078 0.000000
vt 0.222286 0.899201 0.000000
vt 0.738279 0.607503 0.000000
vt 0.593280 0.245963 0.000000
vt 0.221312 0.218205 0.000000
vt 0.190655 0.575481 0.000000
vt 0.190655 0.488359 0.000000
vt 0.422625 0.245963 0.000000
vt 0.422625 0.333084 0.000000
vt 0.391968 0.218205 0.000000
vt 0.391968 0.135036 0.000000
vt 0.282447 0.356890 0.000000
vt 0.223452 0.356890 0.000000
# 44 texture coords

o 2?_????___??008
g 2?_????___??008
f 231/392 232/391 219/374 218/357 
f 228/367 222/366 223/385 229/365 
f 227/370 226/369 228/386 229/368 
f 225/373 224/372 226/387 227/371 
f 222/376 228/361 230/360 216/359 
f 223/363 217/362 215/358 229/356 
f 215/358 221/380 227/364 229/356 
f 228/361 226/378 219/377 230/360 
f 221/380 220/398 225/397 227/364 
f 226/378 224/388 218/379 219/377 
f 235/394 238/393 216/389 230/355 
f 234/383 220/382 221/381 233/375 
f 237/396 236/395 215/390 217/384 
# 13 polygons

#
# object Object020
#

v  97.219284 10.166260 35.979576
v  97.219284 10.687257 35.979576
v  97.219284 10.166262 19.040497
v  97.219284 10.687259 19.040497
v  118.493927 10.687257 35.979576
v  118.493927 10.166260 35.979576
v  118.493927 10.166262 19.040497
v  118.493927 10.687259 19.040497
# 8 vertices

vt 0.819228 0.120006 0.000000
vt 0.817032 0.119990 0.000000
vt 0.817654 0.036434 0.000000
vt 0.819849 0.036450 0.000000
vt 0.892805 0.120553 0.000000
vt 0.893427 0.036997 0.000000
vt 0.890610 0.120537 0.000000
vt 0.891231 0.036981 0.000000
vt 0.964188 0.121084 0.000000
vt 0.964809 0.037528 0.000000
# 10 texture coords

o Object020
g Object020
f 240/399 239/400 244/401 243/402 
f 239/407 241/403 245/404 244/408 
f 241/403 242/405 246/406 245/404 
f 242/405 240/399 243/402 246/406 
# 4 polygons

#
# object Object021
#

v  97.219284 20.884912 35.979576
v  97.219284 21.405910 35.979576
v  97.219284 20.884914 19.040497
v  97.219284 21.405912 19.040497
v  118.493927 21.405910 35.979576
v  118.493927 20.884912 35.979576
v  118.493927 20.884914 19.040497
v  118.493927 21.405912 19.040497
# 8 vertices

vt 0.817710 0.270613 0.000000
vt 0.819850 0.270631 0.000000
vt 0.819171 0.352037 0.000000
vt 0.817032 0.352020 0.000000
vt 0.889395 0.271210 0.000000
vt 0.888717 0.352617 0.000000
vt 0.891534 0.271229 0.000000
vt 0.890856 0.352635 0.000000
vt 0.961079 0.271808 0.000000
vt 0.960401 0.353214 0.000000
# 10 texture coords

o Object021
g Object021
f 248/409 247/410 252/411 251/412 
f 247/410 249/413 253/414 252/411 
f 249/413 250/415 254/416 253/414 
f 250/415 248/417 251/418 254/416 
# 4 polygons

