# 3ds Max Wavefront OBJ Exporter v0.97b - (c)2007 guruware
# File Created: 03.08.2021 15:25:46

#
# object 1?_??___??1
#

v  37.853710 1.296778 3.146065
v  38.118919 1.297130 3.751125
v  37.019924 1.309357 4.493964
v  37.559593 1.317132 5.213284
v  37.642300 1.306484 5.916311
v  36.948120 1.368404 6.681049
v  37.461739 1.323761 7.389900
v  37.564308 1.314867 8.067305
v  38.209698 1.306064 8.821105
v  37.117672 1.332951 9.616088
v  37.701904 1.315159 10.278852
v  37.736748 1.303624 10.951183
v  38.222824 1.296817 11.653234
v  38.219051 1.296684 12.283693
v  37.801201 1.626825 3.147837
v  37.861610 1.677746 3.766980
v  37.139538 1.687808 4.490874
v  37.302052 1.700646 5.222049
v  37.542099 1.690328 5.922040
v  37.106525 1.734423 6.666137
v  37.525013 1.684304 7.383194
v  37.567272 1.681454 8.058764
v  37.858330 1.680185 8.809393
v  37.265316 1.703423 9.628884
v  37.598904 1.690149 10.281869
v  37.797985 1.677048 10.951136
v  38.145050 1.668622 11.646161
v  38.215790 1.626890 12.283557
v  37.750072 2.067284 3.149101
v  37.798912 2.083921 3.769508
v  37.152676 2.089632 4.497530
v  37.217106 2.103070 5.212875
v  37.503983 2.093938 5.921595
v  37.125195 2.129132 6.652474
v  37.465015 2.094347 7.373083
v  37.562157 2.087516 8.048393
v  37.769104 2.087207 8.811709
v  37.290344 2.099746 9.629349
v  37.488789 2.091924 10.274126
v  37.799191 2.082000 10.953256
v  38.150166 2.077558 11.636290
v  38.211525 2.067180 12.283392
v  37.731480 2.508411 3.148179
v  37.774761 2.512070 3.766116
v  37.159203 2.514778 4.518282
v  37.165485 2.524076 5.195244
v  37.497860 2.518075 5.921866
v  37.129597 2.543823 6.635943
v  37.381653 2.525742 7.352167
v  37.574806 2.517656 8.046873
v  37.721100 2.515716 8.808716
v  37.304932 2.517239 9.627645
v  37.386448 2.515218 10.261900
v  37.800739 2.510312 10.954108
v  38.182159 2.510671 11.623487
v  38.207066 2.507510 12.283342
v  37.728165 2.948679 3.146529
v  37.771812 2.949100 3.764634
v  37.189663 2.949837 4.548540
v  37.151276 2.954727 5.177172
v  37.508556 2.951255 5.923021
v  37.147572 2.966955 6.630156
v  37.283768 2.961060 7.327799
v  37.604366 2.954807 8.053610
v  37.677731 2.950099 8.798962
v  37.329060 2.943110 9.626755
v  37.304352 2.947640 10.254309
v  37.806400 2.946878 10.954965
v  38.220158 2.950344 11.610868
v  38.203243 2.947840 12.283306
v  37.737926 3.388051 3.142787
v  37.789288 3.388501 3.768897
v  37.208702 3.386791 4.558685
v  37.180580 3.390370 5.175731
v  37.511803 3.386847 5.921236
v  37.156281 3.394750 6.632481
v  37.183327 3.400543 7.311214
v  37.640450 3.392501 8.061903
v  37.638645 3.387494 8.793407
v  37.358341 3.373067 9.629407
v  37.239269 3.384017 10.253090
v  37.814949 3.385569 10.954535
v  38.261093 3.390994 11.598549
v  38.199730 3.388177 12.283262
v  37.751858 3.828285 3.134334
v  37.827702 3.828234 3.780324
v  37.232800 3.824811 4.561419
v  37.228149 3.828615 5.182603
v  37.496902 3.825858 5.917748
v  37.187443 3.826019 6.647933
v  37.101742 3.844474 7.308853
v  37.679466 3.830031 8.069623
v  37.601624 3.826800 8.791695
v  37.407352 3.805549 9.635342
v  37.194618 3.822855 10.254673
v  37.827103 3.825361 10.953853
v  38.298874 3.831638 11.588142
v  38.199997 3.828515 12.283183
v  37.770317 4.269103 3.125329
v  37.880779 4.267550 3.794580
v  37.252739 4.264611 4.559199
v  37.266304 4.268571 5.191407
v  37.456173 4.269133 5.913256
v  37.241398 4.260395 6.668005
v  37.044693 4.289711 7.316309
v  37.717838 4.267735 8.072815
v  37.564171 4.267478 8.790531
v  37.450836 4.241996 9.636557
v  37.156094 4.264095 10.255550
v  37.837509 4.266020 10.952059
v  38.311142 4.271964 11.584697
v  38.204006 4.268851 12.283078
v  37.802853 4.709877 3.120302
v  37.922672 4.707156 3.798712
v  37.269569 4.705521 4.551035
v  37.289047 4.709706 5.196187
v  37.404373 4.714952 5.912035
v  37.324913 4.696045 6.682541
v  37.022804 4.733925 7.327688
v  37.751915 4.705367 8.074162
v  37.528843 4.709435 8.790794
v  37.502998 4.680650 9.638287
v  37.132458 4.707017 10.255738
v  37.849655 4.707013 10.949311
v  38.319374 4.712206 11.582382
v  38.210953 4.709187 12.282928
v  37.838936 5.150538 3.118581
v  37.947559 5.146562 3.791686
v  37.292305 5.146055 4.542307
v  37.298370 5.151405 5.195539
v  37.358219 5.160773 5.914133
v  37.455318 5.129446 6.696262
v  37.029034 5.176863 7.339918
v  37.774647 5.143772 8.075153
v  37.492538 5.152752 8.791929
v  37.564468 5.120608 9.640911
v  37.115650 5.151122 10.254197
v  37.860191 5.147991 10.946564
v  38.314545 5.152146 11.583711
v  38.217617 5.149527 12.282790
v  37.877808 5.590971 3.117670
v  37.955811 5.585958 3.781555
v  37.308514 5.586390 4.527759
v  37.301647 5.594027 5.193823
v  37.335533 5.604776 5.916945
v  37.578964 5.565589 6.699748
v  37.053692 5.618446 7.349295
v  37.783241 5.583748 8.075577
v  37.459114 5.596737 8.793350
v  37.613689 5.562322 9.636771
v  37.109200 5.595507 10.250405
v  37.867741 5.588967 10.943606
v  38.313389 5.592030 11.584915
v  38.223278 5.589877 12.282537
v  37.918087 6.031201 3.117100
v  37.958427 6.025496 3.775318
v  37.345242 6.025720 4.517704
v  37.299847 6.038430 5.191201
v  37.356304 6.046286 5.919379
v  37.673851 6.003852 6.698573
v  37.091427 6.059005 7.354944
v  37.784855 6.023815 8.078232
v  37.438374 6.040825 8.794182
v  37.673145 6.002703 9.635025
v  37.118294 6.040213 10.244739
v  37.874092 6.029794 10.941298
v  38.314518 6.031875 11.586938
v  38.228157 6.030215 12.282071
v  37.954216 6.471361 3.116640
v  37.950108 6.465165 3.771017
v  37.384201 6.464456 4.508830
v  37.292744 6.483774 5.188165
v  37.411621 6.485124 5.919949
v  37.737034 6.442857 6.696452
v  37.133247 6.499253 7.357931
v  37.783562 6.463886 8.080620
v  37.433681 6.484703 8.793446
v  37.726894 6.442834 9.629381
v  37.132278 6.485255 10.238220
v  37.882313 6.470070 10.940663
v  38.312183 6.471523 11.591419
v  38.235107 6.470540 12.281107
v  37.992592 6.911040 3.116678
v  37.942570 6.904432 3.768312
v  37.441116 6.901793 4.501748
v  37.309063 6.928359 5.184357
v  37.499111 6.920420 5.920064
v  37.768639 6.884435 6.685204
v  37.189281 6.938451 7.357950
v  37.784878 6.903953 8.080876
v  37.456390 6.927175 8.791302
v  37.777302 6.882712 9.619847
v  37.169960 6.929278 10.231970
v  37.900116 6.909399 10.941978
v  38.322231 6.911050 11.594608
v  38.247311 6.910792 12.279392
v  38.030819 7.350744 3.117157
v  37.940472 7.344301 3.765714
v  37.514984 7.339164 4.496638
v  37.353638 7.371094 5.180142
v  37.606991 7.353409 5.921750
v  37.799366 7.325394 6.674590
v  37.259296 7.376550 7.356144
v  37.791832 7.343671 8.080519
v  37.503017 7.368203 8.788164
v  37.825455 7.322713 9.609853
v  37.232426 7.372032 10.226454
v  37.927025 7.348026 10.944484
v  38.324837 7.350488 11.599864
v  38.265762 7.350883 12.277139
v  38.070461 7.791005 3.117566
v  37.944962 7.786355 3.761244
v  37.589355 7.781087 4.487842
v  37.428535 7.810958 5.176540
v  37.706871 7.788373 5.920997
v  37.822533 7.768522 6.661246
v  37.352177 7.812972 7.353047
v  37.798546 7.784583 8.076082
v  37.579395 7.806665 8.784383
v  37.847584 7.766620 9.588053
v  37.321659 7.811888 10.222458
v  37.959465 7.787094 10.944560
v  38.339958 7.789663 11.604226
v  38.292130 7.790775 12.274310
v  38.110279 8.231569 3.117928
v  37.964958 8.228737 3.757170
v  37.672760 8.224258 4.479874
v  37.519760 8.249174 5.174619
v  37.784088 8.227253 5.916271
v  37.840553 8.214024 6.646427
v  37.462627 8.248152 7.349181
v  37.810944 8.226145 8.069790
v  37.675327 8.243214 8.781156
v  37.864891 8.211573 9.565416
v  37.429073 8.249220 10.219991
v  37.992138 8.226948 10.942771
v  38.353081 8.228899 11.609597
v  38.317215 8.230675 12.272138
v  38.146477 8.672209 3.118316
v  37.990158 8.671940 3.753529
v  37.749813 8.669350 4.472783
v  37.609047 8.687178 5.174713
v  37.841175 8.669115 5.910690
v  37.866436 8.659235 6.635108
v  37.574135 8.683203 7.345375
v  37.827305 8.667940 8.064230
v  37.767475 8.679380 8.779135
v  37.881336 8.656981 9.544313
v  37.536819 8.685572 10.218765
v  38.019241 8.667868 10.939670
v  38.369007 8.668383 11.615723
v  38.338791 8.670649 12.271307
v  38.181095 9.112604 3.118977
v  38.022430 9.114126 3.751046
v  37.826283 9.113968 4.467515
v  37.698608 9.123857 5.177063
v  37.890320 9.111013 5.905516
v  37.891933 9.103174 6.626661
v  37.686798 9.116852 7.341629
v  37.841949 9.108763 8.059650
v  37.852245 9.113995 8.778186
v  37.895676 9.101534 9.523701
v  37.648907 9.119196 10.218883
v  38.039272 9.109091 10.935839
v  38.385883 9.108194 11.622211
v  38.350903 9.110847 12.272075
v  38.146191 9.429752 3.119617
v  37.992268 9.427813 3.750993
v  37.834831 9.428076 4.466571
v  37.712902 9.432228 5.182353
v  37.881527 9.421669 5.903261
v  37.866714 9.413553 6.622913
v  37.721165 9.420786 7.339518
v  37.800301 9.417599 8.056988
v  37.858517 9.418489 8.778513
v  37.864227 9.413157 9.509951
v  37.683392 9.422766 10.220258
v  37.995037 9.421528 10.934380
v  38.328659 9.422543 11.630210
v  38.287441 9.428217 12.274458
v  38.735126 9.802061 3.120061
v  38.599800 9.876867 3.752874
v  38.509735 9.950331 4.469656
v  38.403469 10.042494 5.189732
v  38.546314 9.909346 5.903786
v  38.517086 9.923424 6.622963
v  38.418854 10.011189 7.339202
v  38.445568 9.987110 8.057892
v  38.509953 9.931841 8.780034
v  38.526020 9.916119 9.502848
v  38.383274 10.043280 10.223035
v  38.605995 9.861849 10.935273
v  38.539570 9.675959 11.637805
v  38.522743 9.727613 12.277020
v  38.971287 9.146854 3.120273
v  39.043133 9.200542 3.755860
v  39.034153 9.193424 4.474337
v  39.120388 9.258362 5.199706
v  38.987820 9.160023 5.904575
v  39.016193 9.181351 6.627698
v  39.100464 9.249805 7.339195
v  39.095417 9.245262 8.060367
v  39.052433 9.211952 8.783580
v  38.982792 9.156376 9.498906
v  39.117634 9.263069 10.228789
v  38.978207 9.153046 10.934137
v  38.948223 9.129150 11.645067
v  38.942860 9.124222 12.278979
# 308 vertices

vt 0.000000 0.047610 0.000000
vt 0.000000 0.000000 0.000000
vt 0.076920 0.000000 0.000000
vt 0.076920 0.047610 0.000000
vt 0.153840 0.000000 0.000000
vt 0.153840 0.047610 0.000000
vt 0.230760 0.000000 0.000000
vt 0.230760 0.047610 0.000000
vt 0.307690 0.000000 0.000000
vt 0.307690 0.047610 0.000000
vt 0.384610 0.000000 0.000000
vt 0.384610 0.047610 0.000000
vt 0.461530 0.000000 0.000000
vt 0.461530 0.047610 0.000000
vt 0.538460 0.000000 0.000000
vt 0.538460 0.047610 0.000000
vt 0.615380 0.000000 0.000000
vt 0.615380 0.047610 0.000000
vt 0.692300 0.000000 0.000000
vt 0.692300 0.047610 0.000000
vt 0.769230 0.000000 0.000000
vt 0.769230 0.047610 0.000000
vt 0.846150 0.000000 0.000000
vt 0.846150 0.047610 0.000000
vt 0.923070 0.000000 0.000000
vt 0.923070 0.047610 0.000000
vt 1.000000 0.000000 0.000000
vt 1.000000 0.047610 0.000000
vt 0.000000 0.095230 0.000000
vt 0.076920 0.095230 0.000000
vt 0.153840 0.095230 0.000000
vt 0.230760 0.095230 0.000000
vt 0.307690 0.095230 0.000000
vt 0.384610 0.095230 0.000000
vt 0.461530 0.095230 0.000000
vt 0.538460 0.095230 0.000000
vt 0.615380 0.095230 0.000000
vt 0.692300 0.095230 0.000000
vt 0.769230 0.095230 0.000000
vt 0.846150 0.095230 0.000000
vt 0.923070 0.095230 0.000000
vt 1.000000 0.095230 0.000000
vt 0.000000 0.142850 0.000000
vt 0.076920 0.142850 0.000000
vt 0.153840 0.142850 0.000000
vt 0.230760 0.142850 0.000000
vt 0.307690 0.142850 0.000000
vt 0.384610 0.142850 0.000000
vt 0.461530 0.142850 0.000000
vt 0.538460 0.142850 0.000000
vt 0.615380 0.142850 0.000000
vt 0.692300 0.142850 0.000000
vt 0.769230 0.142850 0.000000
vt 0.846150 0.142850 0.000000
vt 0.923070 0.142850 0.000000
vt 1.000000 0.142850 0.000000
vt 0.000000 0.190470 0.000000
vt 0.076920 0.190470 0.000000
vt 0.153840 0.190470 0.000000
vt 0.230760 0.190470 0.000000
vt 0.307690 0.190470 0.000000
vt 0.384610 0.190470 0.000000
vt 0.461530 0.190470 0.000000
vt 0.538460 0.190470 0.000000
vt 0.615380 0.190470 0.000000
vt 0.692300 0.190470 0.000000
vt 0.769230 0.190470 0.000000
vt 0.846150 0.190470 0.000000
vt 0.923070 0.190470 0.000000
vt 1.000000 0.190470 0.000000
vt 0.000000 0.238090 0.000000
vt 0.076920 0.238090 0.000000
vt 0.153840 0.238090 0.000000
vt 0.230760 0.238090 0.000000
vt 0.307690 0.238090 0.000000
vt 0.384610 0.238090 0.000000
vt 0.461530 0.238090 0.000000
vt 0.538460 0.238090 0.000000
vt 0.615380 0.238090 0.000000
vt 0.692300 0.238090 0.000000
vt 0.769230 0.238090 0.000000
vt 0.846150 0.238090 0.000000
vt 0.923070 0.238090 0.000000
vt 1.000000 0.238090 0.000000
vt 0.000000 0.285710 0.000000
vt 0.076920 0.285710 0.000000
vt 0.153840 0.285710 0.000000
vt 0.230760 0.285710 0.000000
vt 0.307690 0.285710 0.000000
vt 0.384610 0.285710 0.000000
vt 0.461530 0.285710 0.000000
vt 0.538460 0.285710 0.000000
vt 0.615380 0.285710 0.000000
vt 0.692300 0.285710 0.000000
vt 0.769230 0.285710 0.000000
vt 0.846150 0.285710 0.000000
vt 0.923070 0.285710 0.000000
vt 1.000000 0.285710 0.000000
vt 0.000000 0.333330 0.000000
vt 0.076920 0.333330 0.000000
vt 0.153840 0.333330 0.000000
vt 0.230760 0.333330 0.000000
vt 0.307690 0.333330 0.000000
vt 0.384610 0.333330 0.000000
vt 0.461530 0.333330 0.000000
vt 0.538460 0.333330 0.000000
vt 0.615380 0.333330 0.000000
vt 0.692300 0.333330 0.000000
vt 0.769230 0.333330 0.000000
vt 0.846150 0.333330 0.000000
vt 0.923070 0.333330 0.000000
vt 1.000000 0.333330 0.000000
vt 0.000000 0.380950 0.000000
vt 0.076920 0.380950 0.000000
vt 0.153840 0.380950 0.000000
vt 0.230760 0.380950 0.000000
vt 0.307690 0.380950 0.000000
vt 0.384610 0.380950 0.000000
vt 0.461530 0.380950 0.000000
vt 0.538460 0.380950 0.000000
vt 0.615380 0.380950 0.000000
vt 0.692300 0.380950 0.000000
vt 0.769230 0.380950 0.000000
vt 0.846150 0.380950 0.000000
vt 0.923070 0.380950 0.000000
vt 1.000000 0.380950 0.000000
vt 0.000000 0.428570 0.000000
vt 0.076920 0.428570 0.000000
vt 0.153840 0.428570 0.000000
vt 0.230760 0.428570 0.000000
vt 0.307690 0.428570 0.000000
vt 0.384610 0.428570 0.000000
vt 0.461530 0.428570 0.000000
vt 0.538460 0.428570 0.000000
vt 0.615380 0.428570 0.000000
vt 0.692300 0.428570 0.000000
vt 0.769230 0.428570 0.000000
vt 0.846150 0.428570 0.000000
vt 0.923070 0.428570 0.000000
vt 1.000000 0.428570 0.000000
vt 0.000000 0.476190 0.000000
vt 0.076920 0.476190 0.000000
vt 0.153840 0.476190 0.000000
vt 0.230760 0.476190 0.000000
vt 0.307690 0.476190 0.000000
vt 0.384610 0.476190 0.000000
vt 0.461530 0.476190 0.000000
vt 0.538460 0.476190 0.000000
vt 0.615380 0.476190 0.000000
vt 0.692300 0.476190 0.000000
vt 0.769230 0.476190 0.000000
vt 0.846150 0.476190 0.000000
vt 0.923070 0.476190 0.000000
vt 1.000000 0.476190 0.000000
vt 0.000000 0.523810 0.000000
vt 0.076920 0.523810 0.000000
vt 0.153840 0.523810 0.000000
vt 0.230760 0.523810 0.000000
vt 0.307690 0.523810 0.000000
vt 0.384610 0.523810 0.000000
vt 0.461530 0.523810 0.000000
vt 0.538460 0.523810 0.000000
vt 0.615380 0.523810 0.000000
vt 0.692300 0.523810 0.000000
vt 0.769230 0.523810 0.000000
vt 0.846150 0.523810 0.000000
vt 0.923070 0.523810 0.000000
vt 1.000000 0.523810 0.000000
vt 0.000000 0.571420 0.000000
vt 0.076920 0.571420 0.000000
vt 0.153840 0.571420 0.000000
vt 0.230760 0.571420 0.000000
vt 0.307690 0.571420 0.000000
vt 0.384610 0.571420 0.000000
vt 0.461530 0.571420 0.000000
vt 0.538460 0.571420 0.000000
vt 0.615380 0.571420 0.000000
vt 0.692300 0.571420 0.000000
vt 0.769230 0.571420 0.000000
vt 0.846150 0.571420 0.000000
vt 0.923070 0.571420 0.000000
vt 1.000000 0.571420 0.000000
vt 0.000000 0.619040 0.000000
vt 0.076920 0.619040 0.000000
vt 0.153840 0.619040 0.000000
vt 0.230760 0.619040 0.000000
vt 0.307690 0.619040 0.000000
vt 0.384610 0.619040 0.000000
vt 0.461530 0.619040 0.000000
vt 0.538460 0.619040 0.000000
vt 0.615380 0.619040 0.000000
vt 0.692300 0.619040 0.000000
vt 0.769230 0.619040 0.000000
vt 0.846150 0.619040 0.000000
vt 0.923070 0.619040 0.000000
vt 1.000000 0.619040 0.000000
vt 0.000000 0.666660 0.000000
vt 0.076920 0.666660 0.000000
vt 0.153840 0.666660 0.000000
vt 0.230760 0.666660 0.000000
vt 0.307690 0.666660 0.000000
vt 0.384610 0.666660 0.000000
vt 0.461530 0.666660 0.000000
vt 0.538460 0.666660 0.000000
vt 0.615380 0.666660 0.000000
vt 0.692300 0.666660 0.000000
vt 0.769230 0.666660 0.000000
vt 0.846150 0.666660 0.000000
vt 0.923070 0.666660 0.000000
vt 1.000000 0.666660 0.000000
vt 0.000000 0.714280 0.000000
vt 0.076920 0.714280 0.000000
vt 0.153840 0.714280 0.000000
vt 0.230760 0.714280 0.000000
vt 0.307690 0.714280 0.000000
vt 0.384610 0.714280 0.000000
vt 0.461530 0.714280 0.000000
vt 0.538460 0.714280 0.000000
vt 0.615380 0.714280 0.000000
vt 0.692300 0.714280 0.000000
vt 0.769230 0.714280 0.000000
vt 0.846150 0.714280 0.000000
vt 0.923070 0.714280 0.000000
vt 1.000000 0.714280 0.000000
vt 0.000000 0.761900 0.000000
vt 0.076920 0.761900 0.000000
vt 0.153840 0.761900 0.000000
vt 0.230760 0.761900 0.000000
vt 0.307690 0.761900 0.000000
vt 0.384610 0.761900 0.000000
vt 0.461530 0.761900 0.000000
vt 0.538460 0.761900 0.000000
vt 0.615380 0.761900 0.000000
vt 0.692300 0.761900 0.000000
vt 0.769230 0.761900 0.000000
vt 0.846150 0.761900 0.000000
vt 0.923070 0.761900 0.000000
vt 1.000000 0.761900 0.000000
vt 0.000000 0.809520 0.000000
vt 0.076920 0.809520 0.000000
vt 0.153840 0.809520 0.000000
vt 0.230760 0.809520 0.000000
vt 0.307690 0.809520 0.000000
vt 0.384610 0.809520 0.000000
vt 0.461530 0.809520 0.000000
vt 0.538460 0.809520 0.000000
vt 0.615380 0.809520 0.000000
vt 0.692300 0.809520 0.000000
vt 0.769230 0.809520 0.000000
vt 0.846150 0.809520 0.000000
vt 0.923070 0.809520 0.000000
vt 1.000000 0.809520 0.000000
vt 0.000000 0.857140 0.000000
vt 0.076920 0.857140 0.000000
vt 0.153840 0.857140 0.000000
vt 0.230760 0.857140 0.000000
vt 0.307690 0.857140 0.000000
vt 0.384610 0.857140 0.000000
vt 0.461530 0.857140 0.000000
vt 0.538460 0.857140 0.000000
vt 0.615380 0.857140 0.000000
vt 0.692300 0.857140 0.000000
vt 0.769230 0.857140 0.000000
vt 0.846150 0.857140 0.000000
vt 0.923070 0.857140 0.000000
vt 1.000000 0.857140 0.000000
vt 0.000000 0.904760 0.000000
vt 0.076920 0.904760 0.000000
vt 0.153840 0.904760 0.000000
vt 0.230760 0.904760 0.000000
vt 0.307690 0.904760 0.000000
vt 0.384610 0.904760 0.000000
vt 0.461530 0.904760 0.000000
vt 0.538460 0.904760 0.000000
vt 0.615380 0.904760 0.000000
vt 0.692300 0.904760 0.000000
vt 0.769230 0.904760 0.000000
vt 0.846150 0.904760 0.000000
vt 0.923070 0.904760 0.000000
vt 1.000000 0.904760 0.000000
vt 0.000000 0.952380 0.000000
vt 0.076920 0.952380 0.000000
vt 0.153840 0.952380 0.000000
vt 0.230760 0.952380 0.000000
vt 0.307690 0.952380 0.000000
vt 0.384610 0.952380 0.000000
vt 0.461530 0.952380 0.000000
vt 0.538460 0.952380 0.000000
vt 0.615380 0.952380 0.000000
vt 0.692300 0.952380 0.000000
vt 0.769230 0.952380 0.000000
vt 0.846150 0.952380 0.000000
vt 0.923070 0.952380 0.000000
vt 1.000000 0.952380 0.000000
vt 0.000000 1.000000 0.000000
vt 0.076920 1.000000 0.000000
vt 0.153840 1.000000 0.000000
vt 0.230760 1.000000 0.000000
vt 0.307690 1.000000 0.000000
vt 0.384610 1.000000 0.000000
vt 0.461530 1.000000 0.000000
vt 0.538460 1.000000 0.000000
vt 0.615380 1.000000 0.000000
vt 0.692300 1.000000 0.000000
vt 0.769230 1.000000 0.000000
vt 0.846150 1.000000 0.000000
vt 0.923070 1.000000 0.000000
vt 1.000000 1.000000 0.000000
# 308 texture coords

o 1?_??___??1
g 1?_??___??1
f 15/1 1/2 2/3 16/4 
f 16/4 2/3 3/5 17/6 
f 17/6 3/5 4/7 18/8 
f 4/7 5/9 19/10 18/8 
f 19/10 5/9 6/11 20/12 
f 6/11 7/13 21/14 20/12 
f 7/13 8/15 22/16 21/14 
f 8/15 9/17 23/18 22/16 
f 23/18 9/17 10/19 24/20 
f 24/20 10/19 11/21 25/22 
f 11/21 12/23 26/24 25/22 
f 26/24 12/23 13/25 27/26 
f 13/25 14/27 28/28 27/26 
f 29/29 15/1 16/4 30/30 
f 30/30 16/4 17/6 31/31 
f 17/6 18/8 32/32 31/31 
f 18/8 19/10 33/33 32/32 
f 33/33 19/10 20/12 34/34 
f 20/12 21/14 35/35 34/34 
f 21/14 22/16 36/36 35/35 
f 22/16 23/18 37/37 36/36 
f 37/37 23/18 24/20 38/38 
f 24/20 25/22 39/39 38/38 
f 25/22 26/24 40/40 39/39 
f 26/24 27/26 41/41 40/40 
f 27/26 28/28 42/42 41/41 
f 43/43 29/29 30/30 44/44 
f 30/30 31/31 45/45 44/44 
f 45/45 31/31 32/32 46/46 
f 32/32 33/33 47/47 46/46 
f 47/47 33/33 34/34 48/48 
f 34/34 35/35 49/49 48/48 
f 35/35 36/36 50/50 49/49 
f 36/36 37/37 51/51 50/50 
f 37/37 38/38 52/52 51/51 
f 38/38 39/39 53/53 52/52 
f 39/39 40/40 54/54 53/53 
f 40/40 41/41 55/55 54/54 
f 41/41 42/42 56/56 55/55 
f 57/57 43/43 44/44 58/58 
f 44/44 45/45 59/59 58/58 
f 59/59 45/45 46/46 60/60 
f 46/46 47/47 61/61 60/60 
f 47/47 48/48 62/62 61/61 
f 48/48 49/49 63/63 62/62 
f 49/49 50/50 64/64 63/63 
f 50/50 51/51 65/65 64/64 
f 51/51 52/52 66/66 65/65 
f 52/52 53/53 67/67 66/66 
f 53/53 54/54 68/68 67/67 
f 54/54 55/55 69/69 68/68 
f 55/55 56/56 70/70 69/69 
f 57/57 58/58 72/72 71/71 
f 58/58 59/59 73/73 72/72 
f 73/73 59/59 60/60 74/74 
f 60/60 61/61 75/75 74/74 
f 61/61 62/62 76/76 75/75 
f 76/76 62/62 63/63 77/77 
f 63/63 64/64 78/78 77/77 
f 64/64 65/65 79/79 78/78 
f 65/65 66/66 80/80 79/79 
f 66/66 67/67 81/81 80/80 
f 67/67 68/68 82/82 81/81 
f 68/68 69/69 83/83 82/82 
f 69/69 70/70 84/84 83/83 
f 71/71 72/72 86/86 85/85 
f 72/72 73/73 87/87 86/86 
f 87/87 73/73 74/74 88/88 
f 88/88 74/74 75/75 89/89 
f 75/75 76/76 90/90 89/89 
f 90/90 76/76 77/77 91/91 
f 77/77 78/78 92/92 91/91 
f 78/78 79/79 93/93 92/92 
f 79/79 80/80 94/94 93/93 
f 80/80 81/81 95/95 94/94 
f 81/81 82/82 96/96 95/95 
f 82/82 83/83 97/97 96/96 
f 83/83 84/84 98/98 97/97 
f 85/85 86/86 100/100 99/99 
f 86/86 87/87 101/101 100/100 
f 101/101 87/87 88/88 102/102 
f 102/102 88/88 89/89 103/103 
f 89/89 90/90 104/104 103/103 
f 104/104 90/90 91/91 105/105 
f 91/91 92/92 106/106 105/105 
f 92/92 93/93 107/107 106/106 
f 93/93 94/94 108/108 107/107 
f 94/94 95/95 109/109 108/108 
f 95/95 96/96 110/110 109/109 
f 96/96 97/97 111/111 110/110 
f 97/97 98/98 112/112 111/111 
f 99/99 100/100 114/114 113/113 
f 100/100 101/101 115/115 114/114 
f 101/101 102/102 116/116 115/115 
f 116/116 102/102 103/103 117/117 
f 103/103 104/104 118/118 117/117 
f 118/118 104/104 105/105 119/119 
f 105/105 106/106 120/120 119/119 
f 106/106 107/107 121/121 120/120 
f 107/107 108/108 122/122 121/121 
f 108/108 109/109 123/123 122/122 
f 109/109 110/110 124/124 123/123 
f 110/110 111/111 125/125 124/124 
f 111/111 112/112 126/126 125/125 
f 113/113 114/114 128/128 127/127 
f 114/114 115/115 129/129 128/128 
f 115/115 116/116 130/130 129/129 
f 130/130 116/116 117/117 131/131 
f 117/117 118/118 132/132 131/131 
f 118/118 119/119 133/133 132/132 
f 119/119 120/120 134/134 133/133 
f 120/120 121/121 135/135 134/134 
f 121/121 122/122 136/136 135/135 
f 122/122 123/123 137/137 136/136 
f 123/123 124/124 138/138 137/137 
f 124/124 125/125 139/139 138/138 
f 125/125 126/126 140/140 139/139 
f 127/127 128/128 142/142 141/141 
f 128/128 129/129 143/143 142/142 
f 129/129 130/130 144/144 143/143 
f 144/144 130/130 131/131 145/145 
f 131/131 132/132 146/146 145/145 
f 132/132 133/133 147/147 146/146 
f 133/133 134/134 148/148 147/147 
f 134/134 135/135 149/149 148/148 
f 135/135 136/136 150/150 149/149 
f 136/136 137/137 151/151 150/150 
f 137/137 138/138 152/152 151/151 
f 138/138 139/139 153/153 152/152 
f 139/139 140/140 154/154 153/153 
f 141/141 142/142 156/156 155/155 
f 142/142 143/143 157/157 156/156 
f 143/143 144/144 158/158 157/157 
f 144/144 145/145 159/159 158/158 
f 145/145 146/146 160/160 159/159 
f 146/146 147/147 161/161 160/160 
f 147/147 148/148 162/162 161/161 
f 148/148 149/149 163/163 162/162 
f 149/149 150/150 164/164 163/163 
f 150/150 151/151 165/165 164/164 
f 151/151 152/152 166/166 165/165 
f 152/152 153/153 167/167 166/166 
f 153/153 154/154 168/168 167/167 
f 155/155 156/156 170/170 169/169 
f 156/156 157/157 171/171 170/170 
f 157/157 158/158 172/172 171/171 
f 158/158 159/159 173/173 172/172 
f 159/159 160/160 174/174 173/173 
f 160/160 161/161 175/175 174/174 
f 161/161 162/162 176/176 175/175 
f 162/162 163/163 177/177 176/176 
f 163/163 164/164 178/178 177/177 
f 164/164 165/165 179/179 178/178 
f 165/165 166/166 180/180 179/179 
f 180/180 166/166 167/167 181/181 
f 181/181 167/167 168/168 182/182 
f 169/169 170/170 184/184 183/183 
f 170/170 171/171 185/185 184/184 
f 171/171 172/172 186/186 185/185 
f 172/172 173/173 187/187 186/186 
f 173/173 174/174 188/188 187/187 
f 174/174 175/175 189/189 188/188 
f 189/189 175/175 176/176 190/190 
f 176/176 177/177 191/191 190/190 
f 177/177 178/178 192/192 191/191 
f 178/178 179/179 193/193 192/192 
f 179/179 180/180 194/194 193/193 
f 194/194 180/180 181/181 195/195 
f 195/195 181/181 182/182 196/196 
f 183/183 184/184 198/198 197/197 
f 184/184 185/185 199/199 198/198 
f 185/185 186/186 200/200 199/199 
f 186/186 187/187 201/201 200/200 
f 187/187 188/188 202/202 201/201 
f 188/188 189/189 203/203 202/202 
f 203/203 189/189 190/190 204/204 
f 190/190 191/191 205/205 204/204 
f 191/191 192/192 206/206 205/205 
f 192/192 193/193 207/207 206/206 
f 207/207 193/193 194/194 208/208 
f 208/208 194/194 195/195 209/209 
f 209/209 195/195 196/196 210/210 
f 197/197 198/198 212/212 211/211 
f 198/198 199/199 213/213 212/212 
f 199/199 200/200 214/214 213/213 
f 214/214 200/200 201/201 215/215 
f 201/201 202/202 216/216 215/215 
f 202/202 203/203 217/217 216/216 
f 217/217 203/203 204/204 218/218 
f 204/204 205/205 219/219 218/218 
f 205/205 206/206 220/220 219/219 
f 206/206 207/207 221/221 220/220 
f 221/221 207/207 208/208 222/222 
f 222/222 208/208 209/209 223/223 
f 223/223 209/209 210/210 224/224 
f 211/211 212/212 226/226 225/225 
f 212/212 213/213 227/227 226/226 
f 213/213 214/214 228/228 227/227 
f 228/228 214/214 215/215 229/229 
f 215/215 216/216 230/230 229/229 
f 216/216 217/217 231/231 230/230 
f 217/217 218/218 232/232 231/231 
f 218/218 219/219 233/233 232/232 
f 219/219 220/220 234/234 233/233 
f 220/220 221/221 235/235 234/234 
f 235/235 221/221 222/222 236/236 
f 236/236 222/222 223/223 237/237 
f 237/237 223/223 224/224 238/238 
f 225/225 226/226 240/240 239/239 
f 226/226 227/227 241/241 240/240 
f 227/227 228/228 242/242 241/241 
f 242/242 228/228 229/229 243/243 
f 229/229 230/230 244/244 243/243 
f 230/230 231/231 245/245 244/244 
f 231/231 232/232 246/246 245/245 
f 232/232 233/233 247/247 246/246 
f 233/233 234/234 248/248 247/247 
f 234/234 235/235 249/249 248/248 
f 249/249 235/235 236/236 250/250 
f 250/250 236/236 237/237 251/251 
f 251/251 237/237 238/238 252/252 
f 239/239 240/240 254/254 253/253 
f 240/240 241/241 255/255 254/254 
f 241/241 242/242 256/256 255/255 
f 256/256 242/242 243/243 257/257 
f 243/243 244/244 258/258 257/257 
f 244/244 245/245 259/259 258/258 
f 245/245 246/246 260/260 259/259 
f 246/246 247/247 261/261 260/260 
f 247/247 248/248 262/262 261/261 
f 248/248 249/249 263/263 262/262 
f 263/263 249/249 250/250 264/264 
f 264/264 250/250 251/251 265/265 
f 265/265 251/251 252/252 266/266 
f 253/253 254/254 268/268 267/267 
f 254/254 255/255 269/269 268/268 
f 255/255 256/256 270/270 269/269 
f 270/270 256/256 257/257 271/271 
f 257/257 258/258 272/272 271/271 
f 258/258 259/259 273/273 272/272 
f 259/259 260/260 274/274 273/273 
f 260/260 261/261 275/275 274/274 
f 261/261 262/262 276/276 275/275 
f 262/262 263/263 277/277 276/276 
f 277/277 263/263 264/264 278/278 
f 278/278 264/264 265/265 279/279 
f 279/279 265/265 266/266 280/280 
f 267/267 268/268 282/282 281/281 
f 268/268 269/269 283/283 282/282 
f 269/269 270/270 284/284 283/283 
f 284/284 270/270 271/271 285/285 
f 271/271 272/272 286/286 285/285 
f 272/272 273/273 287/287 286/286 
f 273/273 274/274 288/288 287/287 
f 288/288 274/274 275/275 289/289 
f 275/275 276/276 290/290 289/289 
f 276/276 277/277 291/291 290/290 
f 291/291 277/277 278/278 292/292 
f 292/292 278/278 279/279 293/293 
f 293/293 279/279 280/280 294/294 
f 281/281 282/282 296/296 295/295 
f 296/296 282/282 283/283 297/297 
f 297/297 283/283 284/284 298/298 
f 298/298 284/284 285/285 299/299 
f 285/285 286/286 300/300 299/299 
f 300/300 286/286 287/287 301/301 
f 301/301 287/287 288/288 302/302 
f 302/302 288/288 289/289 303/303 
f 303/303 289/289 290/290 304/304 
f 290/290 291/291 305/305 304/304 
f 291/291 292/292 306/306 305/305 
f 306/306 292/292 293/293 307/307 
f 307/307 293/293 294/294 308/308 
# 273 polygons

#
# object 1?_??___??002
#

v  37.853710 1.296778 12.633736
v  38.118919 1.297130 13.238796
v  37.019924 1.309357 13.981635
v  37.559593 1.317132 14.700954
v  37.642300 1.306484 15.403982
v  36.948120 1.368404 16.168720
v  37.461739 1.323761 16.877571
v  37.564308 1.314867 17.554976
v  38.209698 1.306064 18.308777
v  37.117672 1.332951 19.103760
v  37.701904 1.315159 19.766521
v  37.736748 1.303624 20.438854
v  38.222824 1.296817 21.140905
v  38.219051 1.296684 21.771364
v  37.801201 1.626825 12.635508
v  37.861610 1.677746 13.254651
v  37.139538 1.687808 13.978545
v  37.302052 1.700646 14.709721
v  37.542099 1.690328 15.409712
v  37.106525 1.734423 16.153809
v  37.525013 1.684304 16.870865
v  37.567272 1.681454 17.546434
v  37.858330 1.680185 18.297064
v  37.265316 1.703423 19.116554
v  37.598904 1.690149 19.769539
v  37.797985 1.677048 20.438807
v  38.145050 1.668622 21.133831
v  38.215790 1.626890 21.771229
v  37.750072 2.067284 12.636771
v  37.798912 2.083921 13.257179
v  37.152676 2.089632 13.985201
v  37.217106 2.103070 14.700546
v  37.503983 2.093938 15.409266
v  37.125195 2.129132 16.140144
v  37.465015 2.094347 16.860754
v  37.562157 2.087516 17.536064
v  37.769104 2.087207 18.299381
v  37.290344 2.099746 19.117020
v  37.488789 2.091924 19.761797
v  37.799191 2.082000 20.440926
v  38.150166 2.077558 21.123960
v  38.211525 2.067180 21.771063
v  37.731480 2.508411 12.635850
v  37.774761 2.512070 13.253786
v  37.159203 2.514778 14.005953
v  37.165485 2.524076 14.682915
v  37.497860 2.518075 15.409537
v  37.129597 2.543823 16.123615
v  37.381653 2.525742 16.839838
v  37.574806 2.517656 17.534544
v  37.721100 2.515716 18.296387
v  37.304932 2.517239 19.115316
v  37.386448 2.515218 19.749571
v  37.800739 2.510312 20.441780
v  38.182159 2.510671 21.111158
v  38.207066 2.507510 21.771013
v  37.728165 2.948679 12.634199
v  37.771812 2.949100 13.252304
v  37.189663 2.949837 14.036211
v  37.151276 2.954727 14.664843
v  37.508556 2.951255 15.410692
v  37.147572 2.966955 16.117826
v  37.283768 2.961060 16.815470
v  37.604366 2.954807 17.541281
v  37.677731 2.950099 18.286633
v  37.329060 2.943110 19.114426
v  37.304352 2.947640 19.741980
v  37.806400 2.946878 20.442635
v  38.220158 2.950344 21.098539
v  38.203243 2.947840 21.770977
v  37.737926 3.388051 12.630458
v  37.789288 3.388501 13.256568
v  37.208702 3.386791 14.046356
v  37.180580 3.390370 14.663403
v  37.511803 3.386847 15.408907
v  37.156281 3.394750 16.120152
v  37.183327 3.400543 16.798885
v  37.640450 3.392501 17.549574
v  37.638645 3.387494 18.281078
v  37.358341 3.373067 19.117077
v  37.239269 3.384017 19.740761
v  37.814949 3.385569 20.442207
v  38.261093 3.390994 21.086220
v  38.199730 3.388177 21.770933
v  37.751858 3.828285 12.622005
v  37.827702 3.828234 13.267995
v  37.232800 3.824811 14.049090
v  37.228149 3.828615 14.670275
v  37.496902 3.825858 15.405419
v  37.187443 3.826019 16.135603
v  37.101742 3.844474 16.796524
v  37.679466 3.830031 17.557293
v  37.601624 3.826800 18.279366
v  37.407352 3.805549 19.123013
v  37.194618 3.822855 19.742344
v  37.827103 3.825361 20.441525
v  38.298874 3.831638 21.075813
v  38.199997 3.828515 21.770855
v  37.770317 4.269103 12.613000
v  37.880779 4.267550 13.282251
v  37.252739 4.264611 14.046869
v  37.266304 4.268571 14.679077
v  37.456173 4.269133 15.400927
v  37.241398 4.260395 16.155676
v  37.044693 4.289711 16.803980
v  37.717838 4.267735 17.560486
v  37.564171 4.267478 18.278202
v  37.450836 4.241996 19.124228
v  37.156094 4.264095 19.743221
v  37.837509 4.266020 20.439730
v  38.311142 4.271964 21.072369
v  38.204006 4.268851 21.770748
v  37.802853 4.709877 12.607973
v  37.922672 4.707156 13.286383
v  37.269569 4.705521 14.038706
v  37.289047 4.709706 14.683859
v  37.404373 4.714952 15.399706
v  37.324913 4.696045 16.170212
v  37.022804 4.733925 16.815359
v  37.751915 4.705367 17.561832
v  37.528843 4.709435 18.278465
v  37.502998 4.680650 19.125957
v  37.132458 4.707017 19.743408
v  37.849655 4.707013 20.436981
v  38.319374 4.712206 21.070053
v  38.210953 4.709187 21.770599
v  37.838936 5.150538 12.606253
v  37.947559 5.146562 13.279357
v  37.292305 5.146055 14.029978
v  37.298370 5.151405 14.683209
v  37.358219 5.160773 15.401804
v  37.455318 5.129446 16.183933
v  37.029034 5.176863 16.827589
v  37.774647 5.143772 17.562824
v  37.492538 5.152752 18.279600
v  37.564468 5.120608 19.128582
v  37.115650 5.151122 19.741867
v  37.860191 5.147991 20.434235
v  38.314545 5.152146 21.071381
v  38.217617 5.149527 21.770462
v  37.877808 5.590971 12.605341
v  37.955811 5.585958 13.269226
v  37.308514 5.586390 14.015429
v  37.301647 5.594027 14.681494
v  37.335533 5.604776 15.404615
v  37.578964 5.565589 16.187420
v  37.053692 5.618446 16.836966
v  37.783241 5.583748 17.563248
v  37.459114 5.596737 18.281021
v  37.613689 5.562322 19.124443
v  37.109200 5.595507 19.738075
v  37.867741 5.588967 20.431278
v  38.313389 5.592030 21.072586
v  38.223278 5.589877 21.770208
v  37.918087 6.031201 12.604771
v  37.958427 6.025496 13.262989
v  37.345242 6.025720 14.005375
v  37.299847 6.038430 14.678872
v  37.356304 6.046286 15.407049
v  37.673851 6.003852 16.186245
v  37.091427 6.059005 16.842615
v  37.784855 6.023815 17.565903
v  37.438374 6.040825 18.281853
v  37.673145 6.002703 19.122696
v  37.118294 6.040213 19.732410
v  37.874092 6.029794 20.428968
v  38.314518 6.031875 21.074608
v  38.228157 6.030215 21.769741
v  37.954216 6.471361 12.604311
v  37.950108 6.465165 13.258688
v  37.384201 6.464456 13.996501
v  37.292744 6.483774 14.675837
v  37.411621 6.485124 15.407619
v  37.737034 6.442857 16.184124
v  37.133247 6.499253 16.845602
v  37.783562 6.463886 17.568291
v  37.433681 6.484703 18.281116
v  37.726894 6.442834 19.117052
v  37.132278 6.485255 19.725891
v  37.882313 6.470070 20.428333
v  38.312183 6.471523 21.079090
v  38.235107 6.470540 21.768778
v  37.992592 6.911040 12.604349
v  37.942570 6.904432 13.255983
v  37.441116 6.901793 13.989419
v  37.309063 6.928359 14.672028
v  37.499111 6.920420 15.407736
v  37.768639 6.884435 16.172874
v  37.189281 6.938451 16.845621
v  37.784878 6.903953 17.568546
v  37.456390 6.927175 18.278973
v  37.777302 6.882712 19.107517
v  37.169960 6.929278 19.719641
v  37.900116 6.909399 20.429649
v  38.322231 6.911050 21.082279
v  38.247311 6.910792 21.767063
v  38.030819 7.350744 12.604828
v  37.940472 7.344301 13.253385
v  37.514984 7.339164 13.984309
v  37.353638 7.371094 14.667813
v  37.606991 7.353409 15.409420
v  37.799366 7.325394 16.162262
v  37.259296 7.376550 16.843815
v  37.791832 7.343671 17.568190
v  37.503017 7.368203 18.275835
v  37.825455 7.322713 19.097523
v  37.232426 7.372032 19.714125
v  37.927025 7.348026 20.432156
v  38.324837 7.350488 21.087536
v  38.265762 7.350883 21.764809
v  38.070461 7.791005 12.605237
v  37.944962 7.786355 13.248915
v  37.589355 7.781087 13.975513
v  37.428535 7.810958 14.664211
v  37.706871 7.788373 15.408668
v  37.822533 7.768522 16.148916
v  37.352177 7.812972 16.840717
v  37.798546 7.784583 17.563753
v  37.579395 7.806665 18.272053
v  37.847584 7.766620 19.075724
v  37.321659 7.811888 19.710129
v  37.959465 7.787094 20.432232
v  38.339958 7.789663 21.091896
v  38.292130 7.790775 21.761982
v  38.110279 8.231569 12.605598
v  37.964958 8.228737 13.244842
v  37.672760 8.224258 13.967545
v  37.519760 8.249174 14.662290
v  37.784088 8.227253 15.403942
v  37.840553 8.214024 16.134098
v  37.462627 8.248152 16.836851
v  37.810944 8.226145 17.557461
v  37.675327 8.243214 18.268826
v  37.864891 8.211573 19.053087
v  37.429073 8.249220 19.707661
v  37.992138 8.226948 20.430443
v  38.353081 8.228899 21.097267
v  38.317215 8.230675 21.759808
v  38.146477 8.672209 12.605988
v  37.990158 8.671940 13.241199
v  37.749813 8.669350 13.960454
v  37.609047 8.687178 14.662384
v  37.841175 8.669115 15.398361
v  37.866436 8.659235 16.122778
v  37.574135 8.683203 16.833046
v  37.827305 8.667940 17.551901
v  37.767475 8.679380 18.266806
v  37.881336 8.656981 19.031984
v  37.536819 8.685572 19.706436
v  38.019241 8.667868 20.427341
v  38.369007 8.668383 21.103394
v  38.338791 8.670649 21.758978
v  38.181095 9.112604 12.606647
v  38.022430 9.114126 13.238717
v  37.826283 9.113968 13.955186
v  37.698608 9.123857 14.664734
v  37.890320 9.111013 15.393187
v  37.891933 9.103174 16.114332
v  37.686798 9.116852 16.829300
v  37.841949 9.108763 17.547321
v  37.852245 9.113995 18.265858
v  37.895676 9.101534 19.011372
v  37.648907 9.119196 19.706554
v  38.039272 9.109091 20.423510
v  38.385883 9.108194 21.109882
v  38.350903 9.110847 21.759747
v  38.146191 9.429752 12.607287
v  37.992268 9.427813 13.238665
v  37.834831 9.428076 13.954242
v  37.712902 9.432228 14.670025
v  37.881527 9.421669 15.390932
v  37.866714 9.413553 16.110584
v  37.721165 9.420786 16.827188
v  37.800301 9.417599 17.544659
v  37.858517 9.418489 18.266184
v  37.864227 9.413157 18.997622
v  37.683392 9.422766 19.707928
v  37.995037 9.421528 20.422050
v  38.328659 9.422543 21.117882
v  38.287441 9.428217 21.762129
v  38.735126 9.802061 12.607732
v  38.599800 9.876867 13.240545
v  38.509735 9.950331 13.957327
v  38.403469 10.042494 14.677402
v  38.546314 9.909346 15.391457
v  38.517086 9.923424 16.110634
v  38.418854 10.011189 16.826874
v  38.445568 9.987110 17.545563
v  38.509953 9.931841 18.267704
v  38.526020 9.916119 18.990519
v  38.383274 10.043280 19.710705
v  38.605995 9.861849 20.422943
v  38.539570 9.675959 21.125477
v  38.522743 9.727613 21.764690
v  38.971287 9.146854 12.607944
v  39.043133 9.200542 13.243531
v  39.034153 9.193424 13.962008
v  39.120388 9.258362 14.687376
v  38.987820 9.160023 15.392246
v  39.016193 9.181351 16.115368
v  39.100464 9.249805 16.826866
v  39.095417 9.245262 17.548038
v  39.052433 9.211952 18.271252
v  38.982792 9.156376 18.986576
v  39.117634 9.263069 19.716461
v  38.978207 9.153046 20.421808
v  38.948223 9.129150 21.132738
v  38.942860 9.124222 21.766651
# 308 vertices

vt 0.000000 0.047610 0.000000
vt 0.000000 0.000000 0.000000
vt 0.076920 0.000000 0.000000
vt 0.076920 0.047610 0.000000
vt 0.153840 0.000000 0.000000
vt 0.153840 0.047610 0.000000
vt 0.230760 0.000000 0.000000
vt 0.230760 0.047610 0.000000
vt 0.307690 0.000000 0.000000
vt 0.307690 0.047610 0.000000
vt 0.384610 0.000000 0.000000
vt 0.384610 0.047610 0.000000
vt 0.461530 0.000000 0.000000
vt 0.461530 0.047610 0.000000
vt 0.538460 0.000000 0.000000
vt 0.538460 0.047610 0.000000
vt 0.615380 0.000000 0.000000
vt 0.615380 0.047610 0.000000
vt 0.692300 0.000000 0.000000
vt 0.692300 0.047610 0.000000
vt 0.769230 0.000000 0.000000
vt 0.769230 0.047610 0.000000
vt 0.846150 0.000000 0.000000
vt 0.846150 0.047610 0.000000
vt 0.923070 0.000000 0.000000
vt 0.923070 0.047610 0.000000
vt 1.000000 0.000000 0.000000
vt 1.000000 0.047610 0.000000
vt 0.000000 0.095230 0.000000
vt 0.076920 0.095230 0.000000
vt 0.153840 0.095230 0.000000
vt 0.230760 0.095230 0.000000
vt 0.307690 0.095230 0.000000
vt 0.384610 0.095230 0.000000
vt 0.461530 0.095230 0.000000
vt 0.538460 0.095230 0.000000
vt 0.615380 0.095230 0.000000
vt 0.692300 0.095230 0.000000
vt 0.769230 0.095230 0.000000
vt 0.846150 0.095230 0.000000
vt 0.923070 0.095230 0.000000
vt 1.000000 0.095230 0.000000
vt 0.000000 0.142850 0.000000
vt 0.076920 0.142850 0.000000
vt 0.153840 0.142850 0.000000
vt 0.230760 0.142850 0.000000
vt 0.307690 0.142850 0.000000
vt 0.384610 0.142850 0.000000
vt 0.461530 0.142850 0.000000
vt 0.538460 0.142850 0.000000
vt 0.615380 0.142850 0.000000
vt 0.692300 0.142850 0.000000
vt 0.769230 0.142850 0.000000
vt 0.846150 0.142850 0.000000
vt 0.923070 0.142850 0.000000
vt 1.000000 0.142850 0.000000
vt 0.000000 0.190470 0.000000
vt 0.076920 0.190470 0.000000
vt 0.153840 0.190470 0.000000
vt 0.230760 0.190470 0.000000
vt 0.307690 0.190470 0.000000
vt 0.384610 0.190470 0.000000
vt 0.461530 0.190470 0.000000
vt 0.538460 0.190470 0.000000
vt 0.615380 0.190470 0.000000
vt 0.692300 0.190470 0.000000
vt 0.769230 0.190470 0.000000
vt 0.846150 0.190470 0.000000
vt 0.923070 0.190470 0.000000
vt 1.000000 0.190470 0.000000
vt 0.000000 0.238090 0.000000
vt 0.076920 0.238090 0.000000
vt 0.153840 0.238090 0.000000
vt 0.230760 0.238090 0.000000
vt 0.307690 0.238090 0.000000
vt 0.384610 0.238090 0.000000
vt 0.461530 0.238090 0.000000
vt 0.538460 0.238090 0.000000
vt 0.615380 0.238090 0.000000
vt 0.692300 0.238090 0.000000
vt 0.769230 0.238090 0.000000
vt 0.846150 0.238090 0.000000
vt 0.923070 0.238090 0.000000
vt 1.000000 0.238090 0.000000
vt 0.000000 0.285710 0.000000
vt 0.076920 0.285710 0.000000
vt 0.153840 0.285710 0.000000
vt 0.230760 0.285710 0.000000
vt 0.307690 0.285710 0.000000
vt 0.384610 0.285710 0.000000
vt 0.461530 0.285710 0.000000
vt 0.538460 0.285710 0.000000
vt 0.615380 0.285710 0.000000
vt 0.692300 0.285710 0.000000
vt 0.769230 0.285710 0.000000
vt 0.846150 0.285710 0.000000
vt 0.923070 0.285710 0.000000
vt 1.000000 0.285710 0.000000
vt 0.000000 0.333330 0.000000
vt 0.076920 0.333330 0.000000
vt 0.153840 0.333330 0.000000
vt 0.230760 0.333330 0.000000
vt 0.307690 0.333330 0.000000
vt 0.384610 0.333330 0.000000
vt 0.461530 0.333330 0.000000
vt 0.538460 0.333330 0.000000
vt 0.615380 0.333330 0.000000
vt 0.692300 0.333330 0.000000
vt 0.769230 0.333330 0.000000
vt 0.846150 0.333330 0.000000
vt 0.923070 0.333330 0.000000
vt 1.000000 0.333330 0.000000
vt 0.000000 0.380950 0.000000
vt 0.076920 0.380950 0.000000
vt 0.153840 0.380950 0.000000
vt 0.230760 0.380950 0.000000
vt 0.307690 0.380950 0.000000
vt 0.384610 0.380950 0.000000
vt 0.461530 0.380950 0.000000
vt 0.538460 0.380950 0.000000
vt 0.615380 0.380950 0.000000
vt 0.692300 0.380950 0.000000
vt 0.769230 0.380950 0.000000
vt 0.846150 0.380950 0.000000
vt 0.923070 0.380950 0.000000
vt 1.000000 0.380950 0.000000
vt 0.000000 0.428570 0.000000
vt 0.076920 0.428570 0.000000
vt 0.153840 0.428570 0.000000
vt 0.230760 0.428570 0.000000
vt 0.307690 0.428570 0.000000
vt 0.384610 0.428570 0.000000
vt 0.461530 0.428570 0.000000
vt 0.538460 0.428570 0.000000
vt 0.615380 0.428570 0.000000
vt 0.692300 0.428570 0.000000
vt 0.769230 0.428570 0.000000
vt 0.846150 0.428570 0.000000
vt 0.923070 0.428570 0.000000
vt 1.000000 0.428570 0.000000
vt 0.000000 0.476190 0.000000
vt 0.076920 0.476190 0.000000
vt 0.153840 0.476190 0.000000
vt 0.230760 0.476190 0.000000
vt 0.307690 0.476190 0.000000
vt 0.384610 0.476190 0.000000
vt 0.461530 0.476190 0.000000
vt 0.538460 0.476190 0.000000
vt 0.615380 0.476190 0.000000
vt 0.692300 0.476190 0.000000
vt 0.769230 0.476190 0.000000
vt 0.846150 0.476190 0.000000
vt 0.923070 0.476190 0.000000
vt 1.000000 0.476190 0.000000
vt 0.000000 0.523810 0.000000
vt 0.076920 0.523810 0.000000
vt 0.153840 0.523810 0.000000
vt 0.230760 0.523810 0.000000
vt 0.307690 0.523810 0.000000
vt 0.384610 0.523810 0.000000
vt 0.461530 0.523810 0.000000
vt 0.538460 0.523810 0.000000
vt 0.615380 0.523810 0.000000
vt 0.692300 0.523810 0.000000
vt 0.769230 0.523810 0.000000
vt 0.846150 0.523810 0.000000
vt 0.923070 0.523810 0.000000
vt 1.000000 0.523810 0.000000
vt 0.000000 0.571420 0.000000
vt 0.076920 0.571420 0.000000
vt 0.153840 0.571420 0.000000
vt 0.230760 0.571420 0.000000
vt 0.307690 0.571420 0.000000
vt 0.384610 0.571420 0.000000
vt 0.461530 0.571420 0.000000
vt 0.538460 0.571420 0.000000
vt 0.615380 0.571420 0.000000
vt 0.692300 0.571420 0.000000
vt 0.769230 0.571420 0.000000
vt 0.846150 0.571420 0.000000
vt 0.923070 0.571420 0.000000
vt 1.000000 0.571420 0.000000
vt 0.000000 0.619040 0.000000
vt 0.076920 0.619040 0.000000
vt 0.153840 0.619040 0.000000
vt 0.230760 0.619040 0.000000
vt 0.307690 0.619040 0.000000
vt 0.384610 0.619040 0.000000
vt 0.461530 0.619040 0.000000
vt 0.538460 0.619040 0.000000
vt 0.615380 0.619040 0.000000
vt 0.692300 0.619040 0.000000
vt 0.769230 0.619040 0.000000
vt 0.846150 0.619040 0.000000
vt 0.923070 0.619040 0.000000
vt 1.000000 0.619040 0.000000
vt 0.000000 0.666660 0.000000
vt 0.076920 0.666660 0.000000
vt 0.153840 0.666660 0.000000
vt 0.230760 0.666660 0.000000
vt 0.307690 0.666660 0.000000
vt 0.384610 0.666660 0.000000
vt 0.461530 0.666660 0.000000
vt 0.538460 0.666660 0.000000
vt 0.615380 0.666660 0.000000
vt 0.692300 0.666660 0.000000
vt 0.769230 0.666660 0.000000
vt 0.846150 0.666660 0.000000
vt 0.923070 0.666660 0.000000
vt 1.000000 0.666660 0.000000
vt 0.000000 0.714280 0.000000
vt 0.076920 0.714280 0.000000
vt 0.153840 0.714280 0.000000
vt 0.230760 0.714280 0.000000
vt 0.307690 0.714280 0.000000
vt 0.384610 0.714280 0.000000
vt 0.461530 0.714280 0.000000
vt 0.538460 0.714280 0.000000
vt 0.615380 0.714280 0.000000
vt 0.692300 0.714280 0.000000
vt 0.769230 0.714280 0.000000
vt 0.846150 0.714280 0.000000
vt 0.923070 0.714280 0.000000
vt 1.000000 0.714280 0.000000
vt 0.000000 0.761900 0.000000
vt 0.076920 0.761900 0.000000
vt 0.153840 0.761900 0.000000
vt 0.230760 0.761900 0.000000
vt 0.307690 0.761900 0.000000
vt 0.384610 0.761900 0.000000
vt 0.461530 0.761900 0.000000
vt 0.538460 0.761900 0.000000
vt 0.615380 0.761900 0.000000
vt 0.692300 0.761900 0.000000
vt 0.769230 0.761900 0.000000
vt 0.846150 0.761900 0.000000
vt 0.923070 0.761900 0.000000
vt 1.000000 0.761900 0.000000
vt 0.000000 0.809520 0.000000
vt 0.076920 0.809520 0.000000
vt 0.153840 0.809520 0.000000
vt 0.230760 0.809520 0.000000
vt 0.307690 0.809520 0.000000
vt 0.384610 0.809520 0.000000
vt 0.461530 0.809520 0.000000
vt 0.538460 0.809520 0.000000
vt 0.615380 0.809520 0.000000
vt 0.692300 0.809520 0.000000
vt 0.769230 0.809520 0.000000
vt 0.846150 0.809520 0.000000
vt 0.923070 0.809520 0.000000
vt 1.000000 0.809520 0.000000
vt 0.000000 0.857140 0.000000
vt 0.076920 0.857140 0.000000
vt 0.153840 0.857140 0.000000
vt 0.230760 0.857140 0.000000
vt 0.307690 0.857140 0.000000
vt 0.384610 0.857140 0.000000
vt 0.461530 0.857140 0.000000
vt 0.538460 0.857140 0.000000
vt 0.615380 0.857140 0.000000
vt 0.692300 0.857140 0.000000
vt 0.769230 0.857140 0.000000
vt 0.846150 0.857140 0.000000
vt 0.923070 0.857140 0.000000
vt 1.000000 0.857140 0.000000
vt 0.000000 0.904760 0.000000
vt 0.076920 0.904760 0.000000
vt 0.153840 0.904760 0.000000
vt 0.230760 0.904760 0.000000
vt 0.307690 0.904760 0.000000
vt 0.384610 0.904760 0.000000
vt 0.461530 0.904760 0.000000
vt 0.538460 0.904760 0.000000
vt 0.615380 0.904760 0.000000
vt 0.692300 0.904760 0.000000
vt 0.769230 0.904760 0.000000
vt 0.846150 0.904760 0.000000
vt 0.923070 0.904760 0.000000
vt 1.000000 0.904760 0.000000
vt 0.000000 0.952380 0.000000
vt 0.076920 0.952380 0.000000
vt 0.153840 0.952380 0.000000
vt 0.230760 0.952380 0.000000
vt 0.307690 0.952380 0.000000
vt 0.384610 0.952380 0.000000
vt 0.461530 0.952380 0.000000
vt 0.538460 0.952380 0.000000
vt 0.615380 0.952380 0.000000
vt 0.692300 0.952380 0.000000
vt 0.769230 0.952380 0.000000
vt 0.846150 0.952380 0.000000
vt 0.923070 0.952380 0.000000
vt 1.000000 0.952380 0.000000
vt 0.000000 1.000000 0.000000
vt 0.076920 1.000000 0.000000
vt 0.153840 1.000000 0.000000
vt 0.230760 1.000000 0.000000
vt 0.307690 1.000000 0.000000
vt 0.384610 1.000000 0.000000
vt 0.461530 1.000000 0.000000
vt 0.538460 1.000000 0.000000
vt 0.615380 1.000000 0.000000
vt 0.692300 1.000000 0.000000
vt 0.769230 1.000000 0.000000
vt 0.846150 1.000000 0.000000
vt 0.923070 1.000000 0.000000
vt 1.000000 1.000000 0.000000
# 308 texture coords

o 1?_??___??002
g 1?_??___??002
f 323/309 309/310 310/311 324/312 
f 324/312 310/311 311/313 325/314 
f 325/314 311/313 312/315 326/316 
f 312/315 313/317 327/318 326/316 
f 327/318 313/317 314/319 328/320 
f 314/319 315/321 329/322 328/320 
f 315/321 316/323 330/324 329/322 
f 316/323 317/325 331/326 330/324 
f 331/326 317/325 318/327 332/328 
f 332/328 318/327 319/329 333/330 
f 319/329 320/331 334/332 333/330 
f 334/332 320/331 321/333 335/334 
f 321/333 322/335 336/336 335/334 
f 337/337 323/309 324/312 338/338 
f 338/338 324/312 325/314 339/339 
f 325/314 326/316 340/340 339/339 
f 326/316 327/318 341/341 340/340 
f 341/341 327/318 328/320 342/342 
f 328/320 329/322 343/343 342/342 
f 329/322 330/324 344/344 343/343 
f 330/324 331/326 345/345 344/344 
f 345/345 331/326 332/328 346/346 
f 332/328 333/330 347/347 346/346 
f 333/330 334/332 348/348 347/347 
f 334/332 335/334 349/349 348/348 
f 335/334 336/336 350/350 349/349 
f 351/351 337/337 338/338 352/352 
f 338/338 339/339 353/353 352/352 
f 353/353 339/339 340/340 354/354 
f 340/340 341/341 355/355 354/354 
f 355/355 341/341 342/342 356/356 
f 342/342 343/343 357/357 356/356 
f 343/343 344/344 358/358 357/357 
f 344/344 345/345 359/359 358/358 
f 345/345 346/346 360/360 359/359 
f 346/346 347/347 361/361 360/360 
f 347/347 348/348 362/362 361/361 
f 348/348 349/349 363/363 362/362 
f 349/349 350/350 364/364 363/363 
f 365/365 351/351 352/352 366/366 
f 352/352 353/353 367/367 366/366 
f 367/367 353/353 354/354 368/368 
f 354/354 355/355 369/369 368/368 
f 355/355 356/356 370/370 369/369 
f 356/356 357/357 371/371 370/370 
f 357/357 358/358 372/372 371/371 
f 358/358 359/359 373/373 372/372 
f 359/359 360/360 374/374 373/373 
f 360/360 361/361 375/375 374/374 
f 361/361 362/362 376/376 375/375 
f 362/362 363/363 377/377 376/376 
f 363/363 364/364 378/378 377/377 
f 365/365 366/366 380/380 379/379 
f 366/366 367/367 381/381 380/380 
f 381/381 367/367 368/368 382/382 
f 368/368 369/369 383/383 382/382 
f 369/369 370/370 384/384 383/383 
f 384/384 370/370 371/371 385/385 
f 371/371 372/372 386/386 385/385 
f 372/372 373/373 387/387 386/386 
f 373/373 374/374 388/388 387/387 
f 374/374 375/375 389/389 388/388 
f 375/375 376/376 390/390 389/389 
f 376/376 377/377 391/391 390/390 
f 377/377 378/378 392/392 391/391 
f 379/379 380/380 394/394 393/393 
f 380/380 381/381 395/395 394/394 
f 395/395 381/381 382/382 396/396 
f 396/396 382/382 383/383 397/397 
f 383/383 384/384 398/398 397/397 
f 398/398 384/384 385/385 399/399 
f 385/385 386/386 400/400 399/399 
f 386/386 387/387 401/401 400/400 
f 387/387 388/388 402/402 401/401 
f 388/388 389/389 403/403 402/402 
f 389/389 390/390 404/404 403/403 
f 390/390 391/391 405/405 404/404 
f 391/391 392/392 406/406 405/405 
f 393/393 394/394 408/408 407/407 
f 394/394 395/395 409/409 408/408 
f 409/409 395/395 396/396 410/410 
f 410/410 396/396 397/397 411/411 
f 397/397 398/398 412/412 411/411 
f 412/412 398/398 399/399 413/413 
f 399/399 400/400 414/414 413/413 
f 400/400 401/401 415/415 414/414 
f 401/401 402/402 416/416 415/415 
f 402/402 403/403 417/417 416/416 
f 403/403 404/404 418/418 417/417 
f 404/404 405/405 419/419 418/418 
f 405/405 406/406 420/420 419/419 
f 407/407 408/408 422/422 421/421 
f 408/408 409/409 423/423 422/422 
f 409/409 410/410 424/424 423/423 
f 424/424 410/410 411/411 425/425 
f 411/411 412/412 426/426 425/425 
f 426/426 412/412 413/413 427/427 
f 413/413 414/414 428/428 427/427 
f 414/414 415/415 429/429 428/428 
f 415/415 416/416 430/430 429/429 
f 416/416 417/417 431/431 430/430 
f 417/417 418/418 432/432 431/431 
f 418/418 419/419 433/433 432/432 
f 419/419 420/420 434/434 433/433 
f 421/421 422/422 436/436 435/435 
f 422/422 423/423 437/437 436/436 
f 423/423 424/424 438/438 437/437 
f 438/438 424/424 425/425 439/439 
f 425/425 426/426 440/440 439/439 
f 426/426 427/427 441/441 440/440 
f 427/427 428/428 442/442 441/441 
f 428/428 429/429 443/443 442/442 
f 429/429 430/430 444/444 443/443 
f 430/430 431/431 445/445 444/444 
f 431/431 432/432 446/446 445/445 
f 432/432 433/433 447/447 446/446 
f 433/433 434/434 448/448 447/447 
f 435/435 436/436 450/450 449/449 
f 436/436 437/437 451/451 450/450 
f 437/437 438/438 452/452 451/451 
f 452/452 438/438 439/439 453/453 
f 439/439 440/440 454/454 453/453 
f 440/440 441/441 455/455 454/454 
f 441/441 442/442 456/456 455/455 
f 442/442 443/443 457/457 456/456 
f 443/443 444/444 458/458 457/457 
f 444/444 445/445 459/459 458/458 
f 445/445 446/446 460/460 459/459 
f 446/446 447/447 461/461 460/460 
f 447/447 448/448 462/462 461/461 
f 449/449 450/450 464/464 463/463 
f 450/450 451/451 465/465 464/464 
f 451/451 452/452 466/466 465/465 
f 452/452 453/453 467/467 466/466 
f 453/453 454/454 468/468 467/467 
f 454/454 455/455 469/469 468/468 
f 455/455 456/456 470/470 469/469 
f 456/456 457/457 471/471 470/470 
f 457/457 458/458 472/472 471/471 
f 458/458 459/459 473/473 472/472 
f 459/459 460/460 474/474 473/473 
f 460/460 461/461 475/475 474/474 
f 461/461 462/462 476/476 475/475 
f 463/463 464/464 478/478 477/477 
f 464/464 465/465 479/479 478/478 
f 465/465 466/466 480/480 479/479 
f 466/466 467/467 481/481 480/480 
f 467/467 468/468 482/482 481/481 
f 468/468 469/469 483/483 482/482 
f 469/469 470/470 484/484 483/483 
f 470/470 471/471 485/485 484/484 
f 471/471 472/472 486/486 485/485 
f 472/472 473/473 487/487 486/486 
f 473/473 474/474 488/488 487/487 
f 488/488 474/474 475/475 489/489 
f 489/489 475/475 476/476 490/490 
f 477/477 478/478 492/492 491/491 
f 478/478 479/479 493/493 492/492 
f 479/479 480/480 494/494 493/493 
f 480/480 481/481 495/495 494/494 
f 481/481 482/482 496/496 495/495 
f 482/482 483/483 497/497 496/496 
f 497/497 483/483 484/484 498/498 
f 484/484 485/485 499/499 498/498 
f 485/485 486/486 500/500 499/499 
f 486/486 487/487 501/501 500/500 
f 487/487 488/488 502/502 501/501 
f 502/502 488/488 489/489 503/503 
f 503/503 489/489 490/490 504/504 
f 491/491 492/492 506/506 505/505 
f 492/492 493/493 507/507 506/506 
f 493/493 494/494 508/508 507/507 
f 494/494 495/495 509/509 508/508 
f 495/495 496/496 510/510 509/509 
f 496/496 497/497 511/511 510/510 
f 511/511 497/497 498/498 512/512 
f 498/498 499/499 513/513 512/512 
f 499/499 500/500 514/514 513/513 
f 500/500 501/501 515/515 514/514 
f 515/515 501/501 502/502 516/516 
f 516/516 502/502 503/503 517/517 
f 517/517 503/503 504/504 518/518 
f 505/505 506/506 520/520 519/519 
f 506/506 507/507 521/521 520/520 
f 507/507 508/508 522/522 521/521 
f 522/522 508/508 509/509 523/523 
f 509/509 510/510 524/524 523/523 
f 510/510 511/511 525/525 524/524 
f 525/525 511/511 512/512 526/526 
f 512/512 513/513 527/527 526/526 
f 513/513 514/514 528/528 527/527 
f 514/514 515/515 529/529 528/528 
f 529/529 515/515 516/516 530/530 
f 530/530 516/516 517/517 531/531 
f 531/531 517/517 518/518 532/532 
f 519/519 520/520 534/534 533/533 
f 520/520 521/521 535/535 534/534 
f 521/521 522/522 536/536 535/535 
f 536/536 522/522 523/523 537/537 
f 523/523 524/524 538/538 537/537 
f 524/524 525/525 539/539 538/538 
f 525/525 526/526 540/540 539/539 
f 526/526 527/527 541/541 540/540 
f 527/527 528/528 542/542 541/541 
f 528/528 529/529 543/543 542/542 
f 543/543 529/529 530/530 544/544 
f 544/544 530/530 531/531 545/545 
f 545/545 531/531 532/532 546/546 
f 533/533 534/534 548/548 547/547 
f 534/534 535/535 549/549 548/548 
f 535/535 536/536 550/550 549/549 
f 550/550 536/536 537/537 551/551 
f 537/537 538/538 552/552 551/551 
f 538/538 539/539 553/553 552/552 
f 539/539 540/540 554/554 553/553 
f 540/540 541/541 555/555 554/554 
f 541/541 542/542 556/556 555/555 
f 542/542 543/543 557/557 556/556 
f 557/557 543/543 544/544 558/558 
f 558/558 544/544 545/545 559/559 
f 559/559 545/545 546/546 560/560 
f 547/547 548/548 562/562 561/561 
f 548/548 549/549 563/563 562/562 
f 549/549 550/550 564/564 563/563 
f 564/564 550/550 551/551 565/565 
f 551/551 552/552 566/566 565/565 
f 552/552 553/553 567/567 566/566 
f 553/553 554/554 568/568 567/567 
f 554/554 555/555 569/569 568/568 
f 555/555 556/556 570/570 569/569 
f 556/556 557/557 571/571 570/570 
f 571/571 557/557 558/558 572/572 
f 572/572 558/558 559/559 573/573 
f 573/573 559/559 560/560 574/574 
f 561/561 562/562 576/576 575/575 
f 562/562 563/563 577/577 576/576 
f 563/563 564/564 578/578 577/577 
f 578/578 564/564 565/565 579/579 
f 565/565 566/566 580/580 579/579 
f 566/566 567/567 581/581 580/580 
f 567/567 568/568 582/582 581/581 
f 568/568 569/569 583/583 582/582 
f 569/569 570/570 584/584 583/583 
f 570/570 571/571 585/585 584/584 
f 585/585 571/571 572/572 586/586 
f 586/586 572/572 573/573 587/587 
f 587/587 573/573 574/574 588/588 
f 575/575 576/576 590/590 589/589 
f 576/576 577/577 591/591 590/590 
f 577/577 578/578 592/592 591/591 
f 592/592 578/578 579/579 593/593 
f 579/579 580/580 594/594 593/593 
f 580/580 581/581 595/595 594/594 
f 581/581 582/582 596/596 595/595 
f 596/596 582/582 583/583 597/597 
f 583/583 584/584 598/598 597/597 
f 584/584 585/585 599/599 598/598 
f 599/599 585/585 586/586 600/600 
f 600/600 586/586 587/587 601/601 
f 601/601 587/587 588/588 602/602 
f 589/589 590/590 604/604 603/603 
f 604/604 590/590 591/591 605/605 
f 605/605 591/591 592/592 606/606 
f 606/606 592/592 593/593 607/607 
f 593/593 594/594 608/608 607/607 
f 608/608 594/594 595/595 609/609 
f 609/609 595/595 596/596 610/610 
f 610/610 596/596 597/597 611/611 
f 611/611 597/597 598/598 612/612 
f 598/598 599/599 613/613 612/612 
f 599/599 600/600 614/614 613/613 
f 614/614 600/600 601/601 615/615 
f 615/615 601/601 602/602 616/616 
# 273 polygons

