# 3ds Max Wavefront OBJ Exporter v0.97b - (c)2007 guruware
# File Created: 03.08.2021 15:19:23

#
# object ??__1?_??
#

v  0.348925 0.364765 41.777588
v  16.206949 0.364764 41.777584
v  21.432165 0.364764 41.777584
v  39.510593 0.364765 47.757740
v  0.348925 0.364765 35.500988
v  16.206949 0.364765 35.500988
v  21.432165 0.364765 35.500988
v  39.510593 0.364765 35.500988
v  0.348927 0.364765 32.205677
v  14.330849 0.364765 32.205677
v  21.432165 0.364765 32.205677
v  39.510590 0.364765 32.205677
v  0.348925 0.364765 21.943459
v  14.330849 0.364765 21.943459
v  21.432165 0.364765 21.943459
v  39.510590 0.364765 21.943459
v  0.348927 0.364765 0.472151
v  16.206949 0.364765 0.472151
v  21.432165 0.364765 0.472151
v  39.510590 0.364765 0.472151
v  0.348925 0.007371 41.777588
v  16.206949 0.007371 41.777588
v  21.432165 0.007371 41.777588
v  39.510593 0.007371 47.757740
v  0.348925 0.007371 35.500992
v  39.510593 0.007371 35.500992
v  0.348927 0.007370 32.205677
v  39.510590 0.007370 32.205677
v  0.348925 0.007371 21.943459
v  39.510590 0.007371 21.943459
v  0.348927 0.007371 0.472151
v  16.206949 0.007371 0.472151
v  21.432165 0.007371 0.472151
v  39.510590 0.007371 0.472151
v  16.206949 0.007371 35.500992
v  21.432165 0.007371 35.500992
v  0.966064 0.364765 35.500988
v  0.966061 0.364765 32.205677
v  0.966063 0.364765 21.943459
v  38.893448 0.364765 35.500988
v  38.893456 0.364765 32.205677
v  38.893448 0.364765 21.943459
v  16.206949 0.364765 1.245209
v  21.432163 0.364765 1.245211
v  0.966064 0.364765 1.245211
v  38.893448 0.364765 1.245211
v  16.206949 0.364764 41.254917
v  21.433388 0.364764 41.254917
v  16.206949 0.007371 41.254921
v  21.433388 0.007371 41.254921
v  0.966066 0.364764 41.254913
v  38.893448 0.364764 47.235069
v  0.348927 20.958403 35.500988
v  0.348927 20.958406 41.777584
v  16.206947 20.958408 41.777580
v  16.206949 20.958405 41.254917
v  0.966070 20.958403 41.254913
v  0.966064 20.958403 35.500988
v  0.966061 20.958406 32.205677
v  0.966063 20.958406 21.943460
v  0.966064 20.958401 1.245213
v  16.206947 20.958405 1.245213
v  21.432163 20.958403 1.245213
v  38.893448 20.958403 1.245213
v  38.893452 20.958410 25.118141
v  38.893456 20.958408 32.205677
v  38.893452 20.958406 34.977528
v  38.893448 20.958406 47.235069
v  21.433388 20.958403 41.254913
v  21.432163 20.958406 41.777580
v  39.510590 20.958406 47.757740
v  39.510590 20.958406 34.977528
v  39.510590 20.958408 32.205677
v  39.510590 20.958410 25.118141
v  39.510590 20.958403 0.472151
v  21.432163 20.958403 0.472151
v  16.206947 20.958405 0.472151
v  0.348927 20.958401 0.472151
v  0.348925 20.958406 21.943460
v  0.348927 20.958406 32.205677
v  8.722540 0.364764 35.500988
v  22.804163 0.364764 47.757740
v  8.722538 0.364764 32.205677
v  8.722539 0.364764 21.943459
v  8.722543 0.364764 0.472151
v  22.804163 0.007371 47.757740
v  8.722543 0.007370 0.472151
v  8.722541 0.364764 41.777588
v  8.722541 0.007370 41.777588
v  30.800449 0.364765 35.500988
v  30.800453 0.364765 32.205677
v  30.800453 0.364765 21.943459
v  30.800449 0.364765 0.472151
v  30.800449 0.007371 0.472151
v  30.800449 0.364765 1.245211
v  8.722543 0.364764 1.245205
v  23.266224 0.364764 47.235069
v  8.722542 0.364763 41.254917
v  8.722541 20.958410 41.777580
v  8.722541 20.958408 41.254917
v  8.722542 20.958405 1.245213
v  30.800449 20.958403 1.245213
v  23.266224 20.958405 47.235069
v  22.804163 20.958405 47.757736
v  30.800449 20.958403 0.472151
v  8.722542 20.958405 0.472151
v  0.348927 8.568630 35.500988
v  0.348927 8.568630 41.777588
v  16.206947 8.568630 41.777584
v  16.206947 8.568631 41.254917
v  0.966061 8.568630 41.254913
v  0.966059 8.568630 35.500988
v  0.966055 8.568630 32.205677
v  0.966057 8.568632 21.943459
v  0.966059 8.568630 1.245211
v  16.206947 8.568631 1.245203
v  21.432163 8.568630 1.245211
v  38.893452 8.568631 1.245211
v  38.893456 8.568634 25.118141
v  38.893459 8.568634 32.205677
v  38.893456 8.568633 34.977528
v  38.893456 8.568632 47.235069
v  21.433388 8.568631 41.254917
v  21.432165 8.568630 41.777584
v  39.510590 8.568632 47.757740
v  39.510590 8.568633 34.977528
v  39.510590 8.568632 32.205677
v  39.510590 8.568634 25.118141
v  39.510590 8.568631 0.472151
v  21.432163 8.568631 0.472151
v  16.206947 8.568631 0.472151
v  0.348927 8.568630 0.472151
v  0.348925 8.568632 21.943459
v  0.348927 8.568630 32.205677
v  8.722539 8.568630 41.777588
v  8.722539 8.568630 41.254917
v  8.722540 8.568630 1.245205
v  30.800453 8.568630 1.245211
v  23.266224 8.568631 47.235069
v  22.804163 8.568630 47.757740
v  30.800453 8.568631 0.472151
v  8.722540 8.568630 0.472151
v  0.966068 0.007371 1.245211
v  8.722543 0.007370 1.245205
v  16.206949 0.007371 1.245209
v  21.432165 0.007371 1.245211
v  30.800449 0.007371 1.245211
v  38.893448 0.007371 1.245211
v  38.893448 0.007371 21.943459
v  30.800453 0.007371 21.943459
v  21.432165 0.007371 21.943459
v  16.206947 0.007371 21.943459
v  8.722539 0.007370 21.943459
v  0.966064 0.007371 21.943459
v  38.893456 0.007370 32.205677
v  30.800453 0.007370 32.205677
v  21.432165 0.007370 32.205681
v  16.206947 0.007370 32.205681
v  8.722538 0.007369 32.205681
v  0.966063 0.007370 32.205677
v  0.966066 0.007371 35.500988
v  8.722540 0.007370 35.500977
v  30.800449 0.007371 35.500984
v  38.893448 0.007371 35.500992
v  0.966064 0.007371 41.254921
v  8.722542 0.007370 41.254917
v  23.266224 0.007371 47.235069
v  38.893448 0.007371 47.235069
v  0.348927 0.116202 41.777588
v  16.206949 0.116202 41.777584
v  21.432165 0.116202 41.777584
v  39.510590 0.116202 47.757740
v  0.348927 0.116202 35.500992
v  39.510590 0.116203 35.500992
v  0.348927 0.116202 32.205677
v  39.510590 0.116203 32.205677
v  0.348925 0.116202 21.943459
v  39.510590 0.116203 21.943459
v  0.348927 0.116203 0.472153
v  16.206949 0.116203 0.472151
v  21.432165 0.116203 0.472153
v  39.510590 0.116203 0.472151
v  16.206949 0.116198 41.254917
v  21.433388 0.116198 41.254917
v  8.722542 0.116201 41.777588
v  30.800449 0.116203 0.472151
v  8.722543 0.116202 0.472151
v  22.804163 0.116201 47.757740
v  16.206947 0.364765 13.008550
v  21.432165 0.364765 13.008552
v  39.510590 0.364765 13.008548
v  39.510590 0.007370 13.008548
v  0.966061 0.364765 13.008552
v  38.893452 0.364765 13.008548
v  0.348925 0.364765 13.008552
v  0.348925 0.007370 13.008552
v  0.966063 20.958406 13.008550
v  38.893456 20.958408 12.188601
v  39.510590 20.958408 12.188601
v  0.348925 20.958406 13.008550
v  8.722539 0.364764 13.008550
v  30.800453 0.364765 13.008550
v  0.966055 8.568630 13.008548
v  38.893459 8.568636 12.188601
v  39.510590 8.568636 12.188601
v  0.348925 8.568630 13.008548
v  0.966063 0.007370 13.008552
v  8.722539 0.007369 13.008550
v  16.206947 0.007370 13.008550
v  21.432165 0.007370 13.008552
v  30.800453 0.007370 13.008550
v  38.893452 0.007370 13.008548
v  0.348925 0.116203 13.008552
v  39.510590 0.116203 13.008548
v  22.799788 0.364764 41.776680
v  22.799788 0.007371 41.776684
v  22.799786 20.958410 41.776680
v  23.261848 0.364764 41.254013
v  23.261848 20.958406 41.254013
v  30.814701 0.364765 41.274734
v  22.799788 8.568632 41.776680
v  23.261848 8.568632 41.254013
v  30.814701 0.007371 41.274727
v  23.261848 0.007371 41.254017
v  22.799786 0.116201 41.776680
v  39.510590 0.364765 41.368034
v  39.510590 0.007371 41.368034
v  38.893448 0.364765 41.368027
v  38.893448 20.958405 41.368027
v  39.510590 20.958405 41.368031
v  38.893456 8.568632 41.368027
v  39.510590 8.568632 41.368034
v  38.893448 0.007371 41.368034
v  39.510590 0.116202 41.368034
v  30.800110 0.364764 47.235069
v  30.800112 20.958406 47.235069
v  30.800102 0.364765 47.757740
v  30.800102 0.007371 47.757740
v  30.800102 20.958406 47.757740
v  30.800114 8.568633 47.235069
v  30.800106 8.568633 47.757740
v  30.800110 0.007371 47.235069
v  30.800102 0.116201 47.757740
v  23.259903 0.364765 1.245209
v  23.259903 20.958406 1.245213
v  23.259905 0.364765 35.500992
v  23.259905 0.364765 32.205681
v  23.259905 0.364765 21.943459
v  23.259905 0.364765 0.472151
v  23.259905 0.007371 0.472151
v  23.259903 20.958406 0.472151
v  23.259905 8.568632 1.245203
v  23.259905 8.568632 0.472151
v  23.259905 0.007371 1.245209
v  23.259905 0.007371 21.943459
v  23.259905 0.007370 32.205681
v  23.259905 0.007371 35.500988
v  23.259905 0.116203 0.472151
v  23.259905 0.364765 13.008548
v  23.259905 0.007370 13.008548
v  21.432165 0.116173 35.500992
v  16.206949 0.116173 35.500992
v  16.206949 0.007371 35.500992
v  21.432165 0.007371 35.500992
v  8.722538 10.635000 41.254917
v  16.206947 10.634998 41.254917
v  0.966057 10.634996 35.500988
v  0.966061 10.634996 41.254913
v  0.966053 10.634997 32.205677
v  0.966057 10.634999 21.943459
v  0.966057 10.634995 1.245213
v  0.966055 10.634999 13.008550
v  8.722539 10.634997 1.245207
v  21.432163 10.634996 1.245213
v  16.206947 10.634998 1.245209
v  30.800453 10.634996 1.245213
v  23.259905 10.634999 1.245209
v  38.893456 10.635001 25.118141
v  38.893459 10.635001 12.188601
v  38.893456 10.634999 32.205677
v  38.893456 10.634999 34.977528
v  38.893456 10.634999 47.235069
v  38.893456 10.634999 41.368027
v  23.266226 10.634999 47.235069
v  30.800114 10.635000 47.235069
v  38.893448 10.634996 1.245213
v  21.433388 10.634996 41.254917
v  23.261848 10.635000 41.254013
# 288 vertices

vt 0.360415 0.183066 0.000000
vt 0.336182 0.183066 0.000000
vt 0.336182 0.181637 0.000000
vt 0.360415 0.181637 0.000000
vt 0.514394 0.215891 0.000000
vt 0.536128 0.713220 0.000000
vt 0.496193 0.713215 0.000000
vt 0.091754 0.036324 0.000000
vt 0.051043 0.036324 0.000000
vt 0.696478 0.747965 0.000000
vt 0.890971 0.602046 0.000000
vt 0.051043 0.034972 0.000000
vt 0.091754 0.034972 0.000000
vt 0.737371 0.747965 0.000000
vt 0.890978 0.571863 0.000000
vt 0.235752 0.078343 0.000000
vt 0.215163 0.078343 0.000000
vt 0.215163 0.051438 0.000000
vt 0.235752 0.051438 0.000000
vt 0.189885 0.078343 0.000000
vt 0.779533 0.122068 0.000000
vt 0.779812 0.075183 0.000000
vt 0.169829 0.078343 0.000000
vt 0.783051 0.075202 0.000000
vt 0.782771 0.122087 0.000000
vt 0.863393 0.013952 0.000000
vt 0.863025 0.075678 0.000000
vt 0.823752 0.075445 0.000000
vt 0.824119 0.013718 0.000000
vt 0.982437 0.014660 0.000000
vt 0.982070 0.076387 0.000000
vt 0.939603 0.076134 0.000000
vt 0.939970 0.014408 0.000000
vt 0.890811 0.014115 0.000000
vt 0.890443 0.075841 0.000000
vt 0.900035 0.075898 0.000000
vt 0.605016 0.479394 0.000000
vt 0.614416 0.258496 0.000000
vt 0.605016 0.333696 0.000000
vt 0.271320 0.930587 0.000000
vt 0.331951 0.930587 0.000000
vt 0.327725 0.972872 0.000000
vt 0.271320 0.794289 0.000000
vt 0.309108 0.794289 0.000000
vt 0.309108 0.834256 0.000000
vt 0.271320 0.972872 0.000000
vt 0.169829 0.051438 0.000000
vt 0.323459 0.183066 0.000000
vt 0.900402 0.014172 0.000000
vt 0.985308 0.076406 0.000000
vt 0.634092 0.479394 0.000000
vt 0.582699 0.242103 0.000000
vt 0.582506 0.275028 0.000000
vt 0.579284 0.272268 0.000000
vt 0.579461 0.242085 0.000000
vt 0.582800 0.224817 0.000000
vt 0.579563 0.224798 0.000000
vt 0.583116 0.170985 0.000000
vt 0.579879 0.170966 0.000000
vt 0.583777 0.058354 0.000000
vt 0.580516 0.062390 0.000000
vt 0.539828 0.062152 0.000000
vt 0.539852 0.058096 0.000000
vt 0.500591 0.057866 0.000000
vt 0.500567 0.061921 0.000000
vt 0.473157 0.061761 0.000000
vt 0.473181 0.057705 0.000000
vt 0.463570 0.061704 0.000000
vt 0.463594 0.057649 0.000000
vt 0.538580 0.274770 0.000000
vt 0.538596 0.272029 0.000000
vt 0.376893 0.305192 0.000000
vt 0.380146 0.302470 0.000000
vt 0.422601 0.302719 0.000000
vt 0.422585 0.305461 0.000000
vt 0.380523 0.238171 0.000000
vt 0.377286 0.238152 0.000000
vt 0.377371 0.223612 0.000000
vt 0.380608 0.223631 0.000000
vt 0.377589 0.186433 0.000000
vt 0.900570 0.571868 0.000000
vt 0.323459 0.181637 0.000000
vt 0.737371 0.802069 0.000000
vt 0.696478 0.802069 0.000000
vt 0.189885 0.051438 0.000000
vt 0.985700 0.010623 0.000000
vt 0.783418 0.013476 0.000000
vt 0.259030 0.078343 0.000000
vt 0.780204 0.009400 0.000000
vt 0.900559 0.602046 0.000000
vt 0.853720 0.619332 0.000000
vt 0.863562 0.602046 0.000000
vt 0.283838 0.183066 0.000000
vt 0.824143 0.009661 0.000000
vt 0.271320 0.834256 0.000000
vt 0.345571 0.794289 0.000000
vt 0.380827 0.186452 0.000000
vt 0.485446 0.098797 0.000000
vt 0.377987 0.118609 0.000000
vt 0.381225 0.118628 0.000000
vt 0.378348 0.057149 0.000000
vt 0.381561 0.061223 0.000000
vt 0.471920 0.271638 0.000000
vt 0.471910 0.274379 0.000000
vt 0.464736 0.274332 0.000000
vt 0.462328 0.271577 0.000000
vt 0.283838 0.181637 0.000000
vt 0.259030 0.051438 0.000000
vt 0.298437 0.078343 0.000000
vt 0.249341 0.183066 0.000000
vt 0.634092 0.520850 0.000000
vt 0.605016 0.520850 0.000000
vt 0.667775 0.258496 0.000000
vt 0.651266 0.333696 0.000000
vt 0.371027 0.794289 0.000000
vt 0.371027 0.834256 0.000000
vt 0.345571 0.834256 0.000000
vt 0.378003 0.930587 0.000000
vt 0.430897 0.930587 0.000000
vt 0.430897 0.972872 0.000000
vt 0.394366 0.972872 0.000000
vt 0.393519 0.728490 0.000000
vt 0.249341 0.181637 0.000000
vt 0.200939 0.183065 0.000000
vt 0.165282 0.182329 0.000000
vt 0.165282 0.181637 0.000000
vt 0.200939 0.181637 0.000000
vt 0.133410 0.182329 0.000000
vt 0.111160 0.183066 0.000000
vt 0.111160 0.181637 0.000000
vt 0.133410 0.181637 0.000000
vt 0.103377 0.183066 0.000000
vt 0.103377 0.181637 0.000000
vt 0.298437 0.051438 0.000000
vt 0.369269 0.078343 0.000000
vt 0.448999 0.098797 0.000000
vt 0.379931 0.794289 0.000000
vt 0.379931 0.834256 0.000000
vt 0.433072 0.728490 0.000000
vt 0.332171 0.078343 0.000000
vt 0.332171 0.051438 0.000000
vt 0.034177 0.183066 0.000000
vt 0.863417 0.009895 0.000000
vt 0.890835 0.010058 0.000000
vt 0.900426 0.010116 0.000000
vt 0.939994 0.010351 0.000000
vt 0.985029 0.123291 0.000000
vt 0.984709 0.177141 0.000000
vt 0.981471 0.177121 0.000000
vt 0.981791 0.123272 0.000000
vt 0.939003 0.176869 0.000000
vt 0.939324 0.123019 0.000000
vt 0.899435 0.176633 0.000000
vt 0.899756 0.122784 0.000000
vt 0.890165 0.122726 0.000000
vt 0.889844 0.176576 0.000000
vt 0.862426 0.176413 0.000000
vt 0.862746 0.122563 0.000000
vt 0.823152 0.176179 0.000000
vt 0.823472 0.122329 0.000000
vt 0.782451 0.175937 0.000000
vt 0.779212 0.175918 0.000000
vt 0.984223 0.258748 0.000000
vt 0.981001 0.255987 0.000000
vt 0.981184 0.225200 0.000000
vt 0.984423 0.225220 0.000000
vt 0.898999 0.255499 0.000000
vt 0.896558 0.258227 0.000000
vt 0.034177 0.181637 0.000000
vt 0.071267 0.181637 0.000000
vt 0.497196 0.711370 0.000000
vt 0.071267 0.183066 0.000000
vt 0.535127 0.711375 0.000000
vt 0.369269 0.051438 0.000000
vt 0.005494 0.036324 0.000000
vt 0.005494 0.034972 0.000000
vt 0.051043 0.080949 0.000000
vt 0.514582 0.218731 0.000000
vt 0.476052 0.221298 0.000000
vt 0.475862 0.218458 0.000000
vt 0.411412 0.225544 0.000000
vt 0.411227 0.222704 0.000000
vt 0.449766 0.220205 0.000000
vt 0.449950 0.223046 0.000000
vt 0.536351 0.676579 0.000000
vt 0.539930 0.676812 0.000000
vt 0.492402 0.676806 0.000000
vt 0.492217 0.672233 0.000000
vt 0.005494 0.080949 0.000000
vt 0.120177 0.036324 0.000000
vt 0.189885 0.110437 0.000000
vt 0.169829 0.110437 0.000000
vt 0.890971 0.619332 0.000000
vt 0.900559 0.619332 0.000000
vt 0.127616 0.036324 0.000000
vt 0.896722 0.226842 0.000000
vt 0.651266 0.376162 0.000000
vt 0.447881 0.930587 0.000000
vt 0.215163 0.110437 0.000000
vt 0.899163 0.224114 0.000000
vt 0.433072 0.768584 0.000000
vt 0.393519 0.768584 0.000000
vt 0.499319 0.274540 0.000000
vt 0.499335 0.271799 0.000000
vt 0.435818 0.667391 0.000000
vt 0.853720 0.673164 0.000000
vt 0.605016 0.376162 0.000000
vt 0.445183 0.972872 0.000000
vt 0.259030 0.110437 0.000000
vt 0.360415 0.230222 0.000000
vt 0.889742 0.193868 0.000000
vt 0.862323 0.193705 0.000000
vt 0.862143 0.223898 0.000000
vt 0.862126 0.226641 0.000000
vt 0.822853 0.226407 0.000000
vt 0.822869 0.223664 0.000000
vt 0.336182 0.230222 0.000000
vt 0.071267 0.230222 0.000000
vt 0.034177 0.230222 0.000000
vt 0.778913 0.226145 0.000000
vt 0.464529 0.305707 0.000000
vt 0.462121 0.302951 0.000000
vt 0.605016 0.408894 0.000000
vt 0.890971 0.673164 0.000000
vt 0.133410 0.229485 0.000000
vt 0.635547 0.408894 0.000000
vt 0.782168 0.223422 0.000000
vt 0.779109 0.193209 0.000000
vt 0.111160 0.230222 0.000000
vt 0.165282 0.229485 0.000000
vt 0.782348 0.193229 0.000000
vt 0.478121 0.930587 0.000000
vt 0.635547 0.450773 0.000000
vt 0.605016 0.450773 0.000000
vt 0.478121 0.972872 0.000000
vt 0.200939 0.230221 0.000000
vt 0.823049 0.193472 0.000000
vt 0.235752 0.110437 0.000000
vt 0.605016 0.461321 0.000000
vt 0.469891 0.768584 0.000000
vt 0.298437 0.110437 0.000000
vt 0.899332 0.193925 0.000000
vt 0.583391 0.124116 0.000000
vt 0.580154 0.124097 0.000000
vt 0.332171 0.110437 0.000000
vt 0.938900 0.194161 0.000000
vt 0.369269 0.110437 0.000000
vt 0.416667 0.794289 0.000000
vt 0.635547 0.461322 0.000000
vt 0.900559 0.673164 0.000000
vt 0.783613 0.602046 0.000000
vt 0.824301 0.602046 0.000000
vt 0.249341 0.230221 0.000000
vt 0.981368 0.194413 0.000000
vt 0.377089 0.271675 0.000000
vt 0.456095 0.794289 0.000000
vt 0.323459 0.230222 0.000000
vt 0.984606 0.194433 0.000000
vt 0.889568 0.224061 0.000000
vt 0.889545 0.226804 0.000000
vt 0.862323 0.193705 0.000000
vt 0.283837 0.230222 0.000000
vt 0.824301 0.619332 0.000000
vt 0.889742 0.193868 0.000000
vt 0.380326 0.271694 0.000000
vt 0.675009 0.571479 0.000000
vt 0.413395 0.912013 0.000000
vt 0.368454 0.912013 0.000000
vt 0.368454 0.860088 0.000000
vt 0.605016 0.386857 0.000000
vt 0.413395 0.860088 0.000000
vt 0.765136 0.545730 0.000000
vt 0.456095 0.834256 0.000000
vt 0.416667 0.834256 0.000000
vt 0.309108 0.844323 0.000000
vt 0.271320 0.844323 0.000000
vt 0.909881 0.853453 0.000000
vt 0.765188 0.347795 0.000000
vt 0.776312 0.711323 0.000000
vt 0.394366 0.983522 0.000000
vt 0.740254 0.629528 0.000000
vt 0.327725 0.983522 0.000000
vt 0.469891 0.778683 0.000000
vt 0.424015 0.061473 0.000000
vt 0.424038 0.057417 0.000000
vt 0.720639 0.711323 0.000000
vt 0.481188 0.157513 0.000000
vt 0.481188 0.207188 0.000000
vt 0.783613 0.619332 0.000000
vt 0.863562 0.781741 0.000000
vt 0.863562 0.720034 0.000000
vt 0.890971 0.720034 0.000000
vt 0.890971 0.781741 0.000000
vt 0.900559 0.720034 0.000000
vt 0.900559 0.781741 0.000000
vt 0.863562 0.571863 0.000000
vt 0.824301 0.571863 0.000000
vt 0.982568 0.571269 0.000000
vt 0.982568 0.602046 0.000000
vt 0.940115 0.602046 0.000000
vt 0.940189 0.571759 0.000000
vt 0.982568 0.619332 0.000000
vt 0.940115 0.619332 0.000000
vt 0.982568 0.673164 0.000000
vt 0.940115 0.673164 0.000000
vt 0.824301 0.673164 0.000000
vt 0.824301 0.720034 0.000000
vt 0.982568 0.720034 0.000000
vt 0.940115 0.720034 0.000000
vt 0.783613 0.571863 0.000000
vt 0.824301 0.781741 0.000000
vt 0.783613 0.781741 0.000000
vt 0.783613 0.720034 0.000000
vt 0.982568 0.781741 0.000000
vt 0.940115 0.781741 0.000000
vt 0.900592 0.540493 0.000000
vt 0.940113 0.540493 0.000000
vt 0.982568 0.540493 0.000000
vt 0.476472 0.667391 0.000000
vt 0.476472 0.714220 0.000000
vt 0.435818 0.714220 0.000000
vt 0.766940 0.747965 0.000000
vt 0.766940 0.802069 0.000000
vt 0.495161 0.672091 0.000000
vt 0.495980 0.676574 0.000000
vt 0.537171 0.672096 0.000000
vt 0.540115 0.672240 0.000000
vt 0.448999 0.138747 0.000000
vt 0.485446 0.138747 0.000000
vt 0.411227 0.098797 0.000000
vt 0.411227 0.138747 0.000000
vt 0.448999 0.148810 0.000000
vt 0.485446 0.148810 0.000000
vt 0.411227 0.148810 0.000000
vt 0.510897 0.138747 0.000000
vt 0.510897 0.148810 0.000000
vt 0.519801 0.148810 0.000000
vt 0.519801 0.138747 0.000000
vt 0.519801 0.098797 0.000000
vt 0.510897 0.098797 0.000000
vt 0.650744 0.479394 0.000000
vt 0.650744 0.520850 0.000000
vt 0.634092 0.531292 0.000000
vt 0.605016 0.531292 0.000000
vt 0.650744 0.531292 0.000000
vt 0.667775 0.301153 0.000000
vt 0.614416 0.301153 0.000000
vt 0.667775 0.311897 0.000000
vt 0.614416 0.311897 0.000000
vt 0.765136 0.556519 0.000000
vt 0.371027 0.844323 0.000000
vt 0.430897 0.983522 0.000000
vt 0.675009 0.622538 0.000000
vt 0.300262 0.860088 0.000000
vt 0.639954 0.622538 0.000000
vt 0.300262 0.912013 0.000000
vt 0.271320 0.912013 0.000000
vt 0.271320 0.860088 0.000000
vt 0.901070 0.853453 0.000000
vt 0.316836 0.860088 0.000000
vt 0.901070 0.803689 0.000000
vt 0.909881 0.803689 0.000000
vt 0.720639 0.658804 0.000000
vt 0.839803 0.803689 0.000000
vt 0.445174 0.207188 0.000000
vt 0.765188 0.400631 0.000000
vt 0.445174 0.157513 0.000000
vt 0.526654 0.787811 0.000000
vt 0.487517 0.787811 0.000000
vt 0.487517 0.737890 0.000000
vt 0.526654 0.737890 0.000000
vt 0.563086 0.737890 0.000000
vt 0.563086 0.787811 0.000000
vt 0.839803 0.853453 0.000000
vt 0.802413 0.853453 0.000000
vt 0.708414 0.629528 0.000000
vt 0.703714 0.556519 0.000000
vt 0.345571 0.844323 0.000000
vt 0.445183 0.983522 0.000000
vt 0.708414 0.578092 0.000000
vt 0.703714 0.545730 0.000000
vt 0.316836 0.912013 0.000000
vt 0.776312 0.658804 0.000000
vt 0.699014 0.400631 0.000000
vt 0.703714 0.502893 0.000000
vt 0.740254 0.578092 0.000000
vt 0.769487 0.578092 0.000000
vt 0.769487 0.629528 0.000000
vt 0.625008 0.601285 0.000000
vt 0.802413 0.803689 0.000000
vt 0.595233 0.601285 0.000000
vt 0.472563 0.860088 0.000000
vt 0.875882 0.853453 0.000000
vt 0.765136 0.502893 0.000000
vt 0.416667 0.844323 0.000000
vt 0.651266 0.386857 0.000000
vt 0.472563 0.912013 0.000000
vt 0.875882 0.803689 0.000000
vt 0.946230 0.803689 0.000000
vt 0.946230 0.853453 0.000000
vt 0.985242 0.803689 0.000000
vt 0.379931 0.844323 0.000000
vt 0.595233 0.549893 0.000000
vt 0.508361 0.972872 0.000000
vt 0.699014 0.347795 0.000000
vt 0.508361 0.983522 0.000000
vt 0.625008 0.549893 0.000000
vt 0.518510 0.157513 0.000000
vt 0.478121 0.983522 0.000000
vt 0.518510 0.207188 0.000000
vt 0.420026 0.157513 0.000000
vt 0.508361 0.930587 0.000000
vt 0.420026 0.207188 0.000000
vt 0.411227 0.207188 0.000000
vt 0.411227 0.157513 0.000000
vt 0.985242 0.853453 0.000000
vt 0.456095 0.844323 0.000000
vt 0.271320 0.983522 0.000000
vt 0.639954 0.571479 0.000000
vt 0.688718 0.571479 0.000000
vt 0.155767 0.078343 0.000000
vt 0.139030 0.078343 0.000000
vt 0.139030 0.051438 0.000000
vt 0.155767 0.051438 0.000000
vt 0.155767 0.110437 0.000000
vt 0.127616 0.080949 0.000000
vt 0.155767 0.147916 0.000000
vt 0.120177 0.080949 0.000000
vt 0.091754 0.080949 0.000000
vt 0.139030 0.147916 0.000000
vt 0.139030 0.110437 0.000000
vt 0.103377 0.230222 0.000000
vt 0.360415 0.301438 0.000000
vt 0.336182 0.301438 0.000000
vt 0.071267 0.301438 0.000000
vt 0.034177 0.301438 0.000000
vt 0.133410 0.301438 0.000000
vt 0.111160 0.301438 0.000000
vt 0.165282 0.301438 0.000000
vt 0.189885 0.147916 0.000000
vt 0.200939 0.301438 0.000000
vt 0.169829 0.147916 0.000000
vt 0.249341 0.301438 0.000000
vt 0.283838 0.301438 0.000000
vt 0.215163 0.147916 0.000000
vt 0.235752 0.147916 0.000000
vt 0.259030 0.147916 0.000000
vt 0.298437 0.147916 0.000000
vt 0.369269 0.147916 0.000000
vt 0.323459 0.301438 0.000000
vt 0.332171 0.147916 0.000000
vt 0.051043 0.148344 0.000000
vt 0.103377 0.301438 0.000000
vt 0.005494 0.148344 0.000000
vt 0.336182 0.181011 0.000000
vt 0.360415 0.181012 0.000000
vt 0.323459 0.181011 0.000000
vt 0.283838 0.181011 0.000000
vt 0.200939 0.181011 0.000000
vt 0.249341 0.181011 0.000000
vt 0.165282 0.181011 0.000000
vt 0.091754 0.148344 0.000000
vt 0.120177 0.148344 0.000000
vt 0.189885 0.048690 0.000000
vt 0.215163 0.048690 0.000000
vt 0.169829 0.048690 0.000000
vt 0.235752 0.048690 0.000000
vt 0.938795 0.224458 0.000000
vt 0.938532 0.255734 0.000000
vt 0.938516 0.258477 0.000000
vt 0.259030 0.048690 0.000000
vt 0.298437 0.048690 0.000000
vt 0.332171 0.048690 0.000000
vt 0.369269 0.048690 0.000000
vt 0.051043 0.034380 0.000000
vt 0.111160 0.181011 0.000000
vt 0.133410 0.181011 0.000000
vt 0.071267 0.181011 0.000000
vt 0.103377 0.181011 0.000000
vt 0.034177 0.181011 0.000000
vt 0.155767 0.048690 0.000000
vt 0.091754 0.034380 0.000000
vt 0.005494 0.034380 0.000000
vt 0.139030 0.048690 0.000000
vt 0.688718 0.622538 0.000000
vt 0.433072 0.778683 0.000000
vt 0.469891 0.728490 0.000000
vt 0.393519 0.778683 0.000000
vt 0.120177 0.034972 0.000000
vt 0.120177 0.034380 0.000000
vt 0.127616 0.034380 0.000000
vt 0.127616 0.034972 0.000000
vt 0.127616 0.148344 0.000000
# 493 texture coords

o ??__1?_??
g ??__1?_??
f 53/52 54/53 57/54 58/55 
f 7/11 48/15 218/81 246/90 
f 80/56 53/52 58/55 59/57 
f 10/91 6/92 7/11 11/193 
f 11/193 7/11 246/90 247/194 
f 79/58 80/56 59/57 60/59 
f 14/206 10/91 11/193 15/224 
f 15/224 11/193 247/194 248/250 
f 78/60 61/61 101/62 106/63 
f 77/64 62/65 63/66 76/67 
f 76/67 63/66 245/68 251/69 
f 1/1 5/2 173/3 169/4 
f 2/8 88/9 185/12 170/13 
f 8/16 226/17 234/18 174/19 
f 4/20 237/23 243/47 172/85 
f 5/2 9/48 175/82 173/3 
f 12/88 8/16 174/19 176/108 
f 9/48 13/93 177/107 175/82 
f 16/109 12/88 176/108 178/134 
f 13/93 195/110 213/123 177/107 
f 17/124 85/125 187/126 179/127 
f 18/128 19/129 181/130 180/131 
f 19/129 249/132 258/133 181/130 
f 20/135 191/140 214/141 182/174 
f 7/6 6/7 262/171 261/173 
f 7/6 261/173 184/185 48/186 
f 99/70 100/71 57/54 54/53 
f 37/251 81/252 83/263 38/289 
f 38/10 83/14 84/83 39/84 
f 39/205 84/319 201/320 193/321 
f 1/175 169/176 185/12 88/9 
f 71/72 68/73 236/74 239/75 
f 67/76 72/77 73/78 66/79 
f 66/79 73/78 74/80 65/97 
f 65/97 74/80 199/99 198/100 
f 20/142 182/169 186/170 93/172 
f 43/290 189/291 190/292 44/293 
f 44/293 190/292 259/294 244/295 
f 17/124 179/127 213/123 195/110 
f 62/65 77/64 106/63 101/62 
f 75/101 64/102 198/100 199/99 
f 69/103 70/104 217/105 219/106 
f 4/20 172/85 234/18 226/17 
f 47/187 2/188 170/324 183/325 
f 47/296 6/92 81/252 98/297 
f 5/2 1/1 108/210 107/217 
f 1/175 88/9 135/177 108/189 
f 2/5 47/178 110/179 109/180 
f 47/98 98/136 136/328 110/329 
f 51/37 37/51 112/111 111/112 
f 37/51 38/341 113/342 112/111 
f 38/38 39/113 114/346 113/347 
f 39/39 193/114 203/197 114/207 
f 45/43 96/44 137/45 115/95 
f 43/96 44/115 117/116 116/117 
f 44/115 244/137 252/138 117/116 
f 46/40 194/41 204/42 118/46 
f 42/118 41/119 120/120 119/121 
f 41/119 40/198 121/208 120/120 
f 40/198 228/232 231/235 121/208 
f 52/122 235/139 240/201 122/202 
f 48/181 3/182 124/183 123/184 
f 3/190 215/195 221/426 124/428 
f 4/20 125/191 241/192 237/23 
f 4/20 226/17 232/199 125/191 
f 8/16 12/88 127/209 126/238 
f 12/88 16/109 128/241 127/209 
f 16/109 191/140 205/245 128/241 
f 20/135 129/247 205/245 191/140 
f 20/142 93/172 141/218 129/219 
f 19/129 18/128 131/225 130/229 
f 18/128 85/125 142/230 131/225 
f 17/124 132/236 142/230 85/125 
f 17/124 195/110 206/253 132/236 
f 13/93 9/48 134/257 133/262 
f 9/48 5/2 107/217 134/257 
f 228/298 40/299 90/300 220/301 
f 90/300 40/299 41/302 91/303 
f 91/303 41/302 42/304 92/305 
f 99/70 55/203 56/204 100/71 
f 81/252 6/92 10/91 83/263 
f 83/14 10/322 14/323 84/83 
f 84/306 14/206 189/291 201/307 
f 85/125 18/128 180/131 187/126 
f 82/421 215/422 225/423 188/424 
f 92/305 42/304 194/308 202/309 
f 104/221 239/75 236/74 103/222 
f 81/252 37/251 51/310 98/297 
f 88/9 2/8 109/429 135/177 
f 98/136 51/330 111/331 136/328 
f 96/44 43/96 116/117 137/45 
f 95/248 46/256 118/273 138/274 
f 97/223 218/226 222/233 139/234 
f 82/421 237/23 241/192 140/425 
f 93/172 249/132 253/432 141/218 
f 108/210 54/433 53/434 107/217 
f 135/177 99/452 54/454 108/189 
f 136/328 265/332 266/333 110/329 
f 112/111 267/343 268/344 111/112 
f 113/342 269/345 267/343 112/111 
f 114/346 270/348 269/349 113/347 
f 115/272 271/350 272/377 203/381 
f 137/45 273/275 271/276 115/95 
f 117/116 274/351 275/378 116/117 
f 138/274 276/395 277/402 252/138 
f 119/121 278/280 279/282 204/42 
f 120/120 280/352 278/280 119/121 
f 121/208 281/379 280/352 120/120 
f 122/404 282/406 283/409 231/235 
f 139/240 284/283 285/486 240/201 
f 140/425 104/427 217/430 221/431 
f 125/191 71/440 239/442 241/192 
f 232/199 230/445 71/440 125/191 
f 126/238 72/446 230/445 232/199 
f 127/209 73/447 72/446 126/238 
f 128/241 74/448 73/447 127/209 
f 129/247 75/449 199/451 205/245 
f 141/218 105/435 75/436 129/219 
f 131/225 77/437 76/438 130/229 
f 142/230 106/439 77/437 131/225 
f 132/236 78/441 106/439 142/230 
f 206/253 200/443 78/441 132/236 
f 133/262 79/444 200/443 206/253 
f 134/257 80/450 79/444 133/262 
f 107/217 53/434 80/450 134/257 
f 109/429 55/462 99/452 135/177 
f 111/331 268/334 265/332 136/328 
f 116/117 275/378 273/275 137/45 
f 118/273 286/417 276/395 138/274 
f 123/335 287/336 288/337 222/338 
f 130/229 76/438 251/453 253/432 
f 56/204 55/203 70/104 69/103 
f 55/462 109/429 124/428 70/463 
f 109/180 110/179 123/184 124/183 
f 110/329 266/333 287/336 123/335 
f 29/21 196/22 207/24 154/25 
f 145/26 209/27 208/28 144/29 
f 148/30 212/31 211/32 147/33 
f 146/34 210/35 209/27 145/26 
f 147/33 211/32 260/36 254/49 
f 192/50 212/31 148/30 34/86 
f 144/29 208/28 207/24 143/87 
f 31/89 143/87 207/24 196/22 
f 144/29 87/94 32/143 145/26 
f 145/26 32/143 33/144 146/34 
f 146/34 33/144 250/145 254/49 
f 147/33 94/146 34/86 148/30 
f 30/147 28/148 155/149 149/150 
f 149/150 155/149 156/151 150/152 
f 150/152 156/151 256/153 255/154 
f 151/155 157/156 158/157 152/158 
f 152/158 158/157 159/159 153/160 
f 153/160 159/159 160/161 154/25 
f 154/25 160/161 27/162 29/21 
f 24/163 168/164 233/165 227/166 
f 167/167 86/168 216/196 224/200 
f 157/156 36/211 35/212 158/157 
f 49/213 22/214 89/215 166/216 
f 166/216 89/215 21/220 165/227 
f 165/227 21/220 25/228 161/231 
f 25/228 27/162 160/161 161/231 
f 161/231 160/161 159/159 162/237 
f 162/237 159/159 158/157 35/212 
f 36/211 157/156 256/153 257/242 
f 163/246 156/151 155/149 164/254 
f 164/254 155/149 28/148 26/258 
f 165/227 161/231 162/237 166/216 
f 166/216 162/237 35/212 49/213 
f 50/259 36/211 257/242 224/200 
f 173/3 25/455 21/456 169/4 
f 185/12 89/475 22/482 170/13 
f 172/85 24/464 227/465 234/18 
f 243/47 238/466 24/464 172/85 
f 175/82 27/457 25/455 173/3 
f 174/19 26/467 28/471 176/108 
f 177/107 29/458 27/457 175/82 
f 176/108 28/471 30/472 178/134 
f 179/127 31/459 196/460 213/123 
f 187/126 87/461 31/459 179/127 
f 181/130 33/476 32/477 180/131 
f 186/170 94/478 250/479 258/133 
f 214/141 192/473 34/474 182/174 
f 262/171 6/7 47/187 183/325 
f 169/176 21/483 89/475 185/12 
f 188/424 86/481 238/466 243/47 
f 182/169 34/480 94/478 186/170 
f 178/134 30/472 192/473 214/141 
f 171/326 3/327 48/186 184/185 
f 180/131 32/477 87/461 187/126 
f 171/489 23/490 216/491 225/492 
f 262/171 183/325 184/185 261/173 
f 183/325 170/324 171/326 184/185 
f 170/13 22/482 23/490 171/489 
f 22/214 49/213 50/259 23/260 
f 49/213 263/261 264/264 50/259 
f 201/307 96/311 45/312 193/313 
f 200/243 79/58 60/59 197/244 
f 189/291 14/206 15/224 190/292 
f 190/292 15/224 248/250 259/294 
f 191/140 16/109 178/134 214/141 
f 193/385 45/394 115/272 203/381 
f 194/41 42/118 119/121 204/42 
f 195/110 13/93 133/262 206/253 
f 189/291 43/290 96/311 201/307 
f 194/308 46/314 95/315 202/309 
f 197/267 60/268 270/269 272/271 
f 198/279 64/286 286/363 279/383 
f 199/451 74/448 128/241 205/245 
f 209/27 152/158 153/160 208/28 
f 212/31 149/150 150/152 211/32 
f 210/35 151/155 152/158 209/27 
f 211/32 150/152 255/154 260/36 
f 192/50 30/147 149/150 212/31 
f 208/28 153/160 154/25 207/24 
f 196/460 29/458 177/107 213/123 
f 218/81 97/316 235/317 220/301 
f 217/105 104/221 103/222 219/106 
f 215/422 82/421 140/425 221/431 
f 215/195 3/190 171/489 225/492 
f 218/339 48/340 123/335 222/338 
f 217/493 70/463 124/428 221/426 
f 219/389 103/391 284/403 288/407 
f 216/196 23/260 50/259 224/200 
f 223/468 242/469 167/167 224/200 
f 216/484 86/481 188/424 225/423 
f 230/255 72/77 67/76 229/265 
f 228/232 52/412 122/404 231/235 
f 226/17 8/16 126/238 232/199 
f 229/281 67/376 281/380 283/386 
f 233/165 164/254 26/258 227/166 
f 227/465 26/467 174/19 234/18 
f 220/301 235/317 52/318 228/298 
f 223/468 163/246 164/254 233/165 
f 237/23 82/421 188/424 243/47 
f 235/139 97/487 139/240 240/201 
f 236/368 68/369 282/370 285/371 
f 239/442 104/427 140/425 241/192 
f 238/470 86/168 167/167 242/469 
f 223/468 233/165 168/164 242/469 
f 246/90 90/300 91/303 247/194 
f 247/194 91/303 92/305 248/250 
f 245/68 102/284 105/285 251/69 
f 249/132 93/172 186/170 258/133 
f 259/294 202/309 95/315 244/295 
f 244/137 95/248 138/274 252/138 
f 249/132 19/129 130/229 253/432 
f 245/277 63/359 274/361 277/362 
f 251/453 105/435 141/218 253/432 
f 260/36 210/35 146/34 254/49 
f 250/145 94/146 147/33 254/49 
f 256/153 157/156 151/155 255/154 
f 256/153 156/151 163/246 257/242 
f 250/479 33/476 181/130 258/133 
f 248/250 92/305 202/309 259/294 
f 255/154 151/155 210/35 260/36 
f 218/81 220/301 90/300 246/90 
f 257/242 163/246 223/468 224/200 
f 24/163 238/470 242/469 168/164 
f 71/72 230/255 229/265 68/73 
f 78/60 200/243 197/244 61/61 
f 31/89 87/94 144/29 143/87 
f 75/101 105/285 102/284 64/102 
f 265/287 100/288 56/365 266/367 
f 267/354 58/356 57/357 268/358 
f 269/360 59/382 58/356 267/354 
f 270/269 60/268 59/382 269/360 
f 271/392 61/397 197/267 272/271 
f 273/364 101/374 61/375 271/390 
f 274/361 63/359 62/393 275/398 
f 276/399 102/400 245/277 277/362 
f 278/278 65/366 198/384 279/405 
f 280/266 66/353 65/355 278/419 
f 281/420 67/485 66/353 280/266 
f 282/387 68/388 229/281 283/386 
f 284/372 103/373 236/368 285/371 
f 268/408 57/410 100/288 265/287 
f 275/398 62/393 101/374 273/364 
f 286/401 64/416 102/400 276/399 
f 287/411 69/413 219/414 288/415 
f 266/367 56/365 69/413 287/411 
f 270/270 114/207 203/197 272/396 
f 286/418 118/46 204/42 279/282 
f 284/239 139/234 222/233 288/249 
f 281/379 121/208 231/235 283/409 
f 282/488 122/202 240/201 285/486 
f 274/351 117/116 252/138 277/402 
# 286 polygons

#
# object ??
#

v  14.538000 10.638460 32.502163
v  14.538000 10.638460 37.045174
v  12.542295 10.638460 32.505562
v  12.549621 10.638460 37.048576
v  12.542296 9.740629 32.505562
v  12.549622 9.740629 37.048576
v  10.547687 9.740629 32.508965
v  10.555012 9.740629 37.051979
v  10.547686 8.792168 32.508965
v  10.555011 8.792168 37.051979
v  8.553076 8.792168 32.512367
v  8.560401 8.792168 37.055382
v  8.553076 7.843706 32.512367
v  8.560401 7.843706 37.055382
v  6.558465 7.843706 32.515770
v  6.565790 7.843706 37.058784
v  6.558465 6.895243 32.515770
v  6.565790 6.895243 37.058784
v  4.563858 6.895243 32.519173
v  4.571180 6.895243 37.062183
v  4.563858 0.256011 32.519173
v  4.571180 0.256011 37.062183
v  14.538000 0.256011 32.502163
v  14.536476 0.256011 37.045174
v  4.579860 6.349442 41.640926
v  4.579348 6.349442 41.340927
v  4.572141 6.349442 37.367924
v  4.571629 6.349442 37.067924
v  14.538000 1.607134 41.623917
v  14.538000 1.607134 41.323917
v  14.538000 1.607134 37.350918
v  14.538000 1.607134 37.050915
v  14.538000 0.256011 41.623917
v  14.538000 0.256011 41.323917
v  14.538000 0.256011 37.350918
v  14.538000 0.256011 37.050915
v  12.305841 0.256011 37.354736
v  12.305330 0.256011 37.054733
v  4.579860 0.257732 41.640926
v  4.579348 0.257732 41.340927
v  4.572141 3.933482 37.367924
v  4.571629 3.933482 37.067924
v  14.538000 12.040213 36.750916
v  14.538000 12.040213 37.050915
v  4.563407 7.297903 32.519096
v  4.563918 7.297903 32.819096
v  4.571117 7.297903 36.767925
v  4.571629 7.297903 37.067924
v  4.563407 5.946782 32.519096
v  4.563918 5.946782 32.819096
v  4.571117 5.946782 36.767925
v  4.571629 5.946782 37.067924
v  6.802755 5.946782 32.515278
v  6.803267 5.946782 32.815277
v  6.810467 5.946782 36.764107
v  6.810978 5.946782 37.064106
v  14.538000 9.624252 36.750916
v  14.538000 9.624252 37.050915
v  4.579352 4.998320 41.351551
v  4.572141 4.998320 37.367924
v  6.573962 4.998320 41.348152
v  6.566751 4.998320 37.364525
v  6.573962 4.049859 41.348152
v  6.566751 4.049859 37.364525
v  8.568571 4.049859 41.344749
v  8.561360 4.049859 37.361122
v  8.568571 3.101397 41.344749
v  8.561361 3.101397 37.361122
v  10.563181 3.101397 41.341347
v  10.555971 3.101397 37.357719
v  10.563181 2.152935 41.341347
v  10.555971 2.152935 37.357719
v  12.557790 2.152935 41.337944
v  12.550581 2.152935 37.354317
v  12.557790 1.204473 41.337944
v  12.550581 1.204473 37.354317
v  14.538000 1.204473 41.334545
v  14.538000 1.204473 37.350918
v  14.543792 0.256011 41.334545
v  14.536998 0.256011 37.350914
v  4.579352 0.256011 41.351551
v  4.572141 0.256011 37.367924
v  4.579407 0.256011 41.628441
v  4.563861 0.256011 32.543369
v  0.844409 0.256011 41.634811
v  0.828862 0.256011 32.549740
v  4.579407 5.946782 41.628441
v  4.563861 5.946782 32.543369
v  0.844409 5.946782 41.634811
v  0.828862 5.946782 32.549740
v  6.615593 8.270077 36.764439
v  6.616104 8.270077 37.064438
v  6.607882 8.270077 32.515610
v  6.608394 8.270077 32.815609
v  12.500716 2.579306 37.354401
v  12.500204 2.579307 37.054401
v  11.682680 10.632334 32.806957
v  11.752324 8.300364 32.506836
v  11.752835 8.300364 32.806835
v  11.682169 10.632334 32.506958
v  12.620200 10.632334 32.807182
v  12.689843 8.300364 32.507061
v  12.690353 8.300364 32.807060
v  12.619688 10.632334 32.507183
# 104 vertices

vt 0.376686 0.639100 0.000000
vt 0.376686 0.643837 0.000000
vt 0.366726 0.643837 0.000000
vt 0.366726 0.648573 0.000000
vt 0.356765 0.648573 0.000000
vt 0.356765 0.653309 0.000000
vt 0.346805 0.653309 0.000000
vt 0.346805 0.657793 0.000000
vt 0.336839 0.657793 0.000000
vt 0.391685 0.636092 0.000000
vt 0.444505 0.636002 0.000000
vt 0.336839 0.605946 0.000000
vt 0.444497 0.660060 0.000000
vt 0.391724 0.660150 0.000000
vt 0.333903 0.671071 0.000000
vt 0.383394 0.671071 0.000000
vt 0.383402 0.722634 0.000000
vt 0.373527 0.722634 0.000000
vt 0.373527 0.718175 0.000000
vt 0.363621 0.718175 0.000000
vt 0.363621 0.713464 0.000000
vt 0.353715 0.713464 0.000000
vt 0.353715 0.708754 0.000000
vt 0.343809 0.708754 0.000000
vt 0.595372 0.768030 0.000000
vt 0.584198 0.739694 0.000000
vt 0.785578 0.536943 0.000000
vt 0.790467 0.527584 0.000000
vt 0.652513 0.752898 0.000000
vt 0.649347 0.757794 0.000000
vt 0.835836 0.518506 0.000000
vt 0.837324 0.528698 0.000000
vt 0.650405 0.759130 0.000000
vt 0.654047 0.753984 0.000000
vt 0.848361 0.509570 0.000000
vt 0.849044 0.515441 0.000000
vt 0.835566 0.516595 0.000000
vt 0.834114 0.507593 0.000000
vt 0.584547 0.737890 0.000000
vt 0.594183 0.770106 0.000000
vt 0.785836 0.538589 0.000000
vt 0.851226 0.522616 0.000000
vt 0.375711 0.516285 0.000000
vt 0.366396 0.516495 0.000000
vt 0.277389 0.645978 0.000000
vt 0.282705 0.645089 0.000000
vt 0.351219 0.470695 0.000000
vt 0.360684 0.470204 0.000000
vt 0.280141 0.659006 0.000000
vt 0.270586 0.656011 0.000000
vt 0.360236 0.456868 0.000000
vt 0.363475 0.452239 0.000000
vt 0.276441 0.644610 0.000000
vt 0.282260 0.643056 0.000000
vt 0.371887 0.464703 0.000000
vt 0.362565 0.469718 0.000000
vt 0.376785 0.514636 0.000000
vt 0.364967 0.451240 0.000000
vt 0.763865 0.269621 0.000000
vt 0.768076 0.271062 0.000000
vt 0.763440 0.284622 0.000000
vt 0.767370 0.286159 0.000000
vt 0.762419 0.298811 0.000000
vt 0.766193 0.300787 0.000000
vt 0.759830 0.312935 0.000000
vt 0.763010 0.316829 0.000000
vt 0.750471 0.327065 0.000000
vt 0.745179 0.311538 0.000000
vt 0.763910 0.253764 0.000000
vt 0.768400 0.255225 0.000000
vt 0.732118 0.249097 0.000000
vt 0.735207 0.312052 0.000000
vt 0.727093 0.323222 0.000000
vt 0.718037 0.312438 0.000000
vt 0.721386 0.309626 0.000000
vt 0.717814 0.296497 0.000000
vt 0.721891 0.295388 0.000000
vt 0.720041 0.281423 0.000000
vt 0.724379 0.280848 0.000000
vt 0.723204 0.265785 0.000000
vt 0.727883 0.265420 0.000000
vt 0.727103 0.249331 0.000000
vt 0.229942 0.749435 0.000000
vt 0.233067 0.719897 0.000000
vt 0.252242 0.709838 0.000000
vt 0.252450 0.761494 0.000000
vt 0.210551 0.710610 0.000000
vt 0.212622 0.761424 0.000000
vt 0.232598 0.781373 0.000000
vt 0.231619 0.686191 0.000000
vt 0.386620 0.514793 0.000000
vt 0.358418 0.456404 0.000000
vt 0.281760 0.659564 0.000000
vt 0.265876 0.689657 0.000000
vt 0.848185 0.517118 0.000000
vt 0.789384 0.526152 0.000000
vt 0.264270 0.688659 0.000000
vt 0.269208 0.655195 0.000000
vt 0.255888 0.683827 0.000000
vt 0.254532 0.683224 0.000000
vt 0.252649 0.688430 0.000000
vt 0.243728 0.684205 0.000000
vt 0.254380 0.688205 0.000000
vt 0.260224 0.694581 0.000000
vt 0.746020 0.482662 0.000000
vt 0.746019 0.472828 0.000000
vt 0.769463 0.472828 0.000000
vt 0.769464 0.482662 0.000000
vt 0.746019 0.469781 0.000000
vt 0.769463 0.469781 0.000000
vt 0.746018 0.459947 0.000000
vt 0.769462 0.459947 0.000000
vt 0.746018 0.456899 0.000000
vt 0.769462 0.456899 0.000000
vt 0.746017 0.447066 0.000000
vt 0.769460 0.447066 0.000000
vt 0.746017 0.444017 0.000000
vt 0.769460 0.444017 0.000000
vt 0.746015 0.434184 0.000000
vt 0.769459 0.434184 0.000000
vt 0.746015 0.431136 0.000000
vt 0.769459 0.431135 0.000000
vt 0.746014 0.421373 0.000000
vt 0.769458 0.421338 0.000000
vt 0.746014 0.418296 0.000000
vt 0.769458 0.418294 0.000000
vt 0.652015 0.134832 0.000000
vt 0.652016 0.124930 0.000000
vt 0.678938 0.124931 0.000000
vt 0.678937 0.134796 0.000000
vt 0.652016 0.122021 0.000000
vt 0.678938 0.122021 0.000000
vt 0.652018 0.112124 0.000000
vt 0.678940 0.112125 0.000000
vt 0.652018 0.109051 0.000000
vt 0.678940 0.109051 0.000000
vt 0.652019 0.099155 0.000000
vt 0.678941 0.099155 0.000000
vt 0.652019 0.096081 0.000000
vt 0.678941 0.096081 0.000000
vt 0.652021 0.086185 0.000000
vt 0.678943 0.086185 0.000000
vt 0.652021 0.083111 0.000000
vt 0.678943 0.083112 0.000000
vt 0.652022 0.073215 0.000000
vt 0.678944 0.073216 0.000000
vt 0.652022 0.051699 0.000000
vt 0.678944 0.051700 0.000000
vt 0.276557 0.761398 0.000000
vt 0.188793 0.762395 0.000000
vt 0.276349 0.709742 0.000000
vt 0.186721 0.711581 0.000000
vt 0.652865 0.751095 0.000000
vt 0.652704 0.763397 0.000000
vt 0.581516 0.740810 0.000000
vt 0.604551 0.789343 0.000000
vt 0.853383 0.521174 0.000000
vt 0.851973 0.524356 0.000000
vt 0.837846 0.530389 0.000000
vt 0.783613 0.535834 0.000000
vt 0.784755 0.517766 0.000000
vt 0.386567 0.516602 0.000000
vt 0.388257 0.514315 0.000000
vt 0.373473 0.463939 0.000000
vt 0.352575 0.455870 0.000000
vt 0.361923 0.451194 0.000000
vt 0.284369 0.645395 0.000000
vt 0.272999 0.640280 0.000000
vt 0.262010 0.649016 0.000000
vt 0.246576 0.678845 0.000000
vt 0.261849 0.695665 0.000000
vt 0.258683 0.695916 0.000000
vt 0.325497 0.625268 0.000000
vt 0.325497 0.706890 0.000000
vt 0.289782 0.706890 0.000000
vt 0.289782 0.625268 0.000000
vt 0.343809 0.704044 0.000000
vt 0.333903 0.704044 0.000000
vt 0.386647 0.605946 0.000000
vt 0.386647 0.639100 0.000000
# 180 texture coords

o ??
g ??
f 305/494 303/495 301/496 299/497 297/498 295/499 293/500 291/501 289/502 311/505 309/672 307/673 
f 310/508 312/509 290/510 292/511 294/512 296/513 298/514 300/515 302/516 304/517 306/670 308/671 
f 289/620 291/621 292/622 290/623 
f 291/621 293/624 294/625 292/622 
f 293/624 295/626 296/627 294/625 
f 295/626 297/628 298/629 296/627 
f 297/628 299/630 300/631 298/629 
f 299/630 301/632 302/633 300/631 
f 301/632 303/634 304/635 302/633 
f 303/634 305/636 306/637 304/635 
f 305/636 307/638 308/639 306/637 
f 307/638 309/640 310/641 308/639 
f 309/503 311/504 312/506 310/507 
f 311/666 289/667 290/668 312/669 
f 313/518 327/519 321/522 317/523 
f 318/526 322/647 328/649 314/533 
f 315/520 329/521 325/524 383/525 
f 320/528 324/529 326/530 384/531 
f 313/518 317/523 318/526 314/533 
f 315/520 383/525 384/652 316/534 
f 317/523 321/522 322/527 318/526 
f 319/535 323/588 324/529 320/650 
f 321/522 327/519 328/532 322/646 
f 323/588 325/524 326/530 324/529 
f 325/524 329/521 330/589 326/530 
f 327/519 313/518 314/533 328/648 
f 334/538 338/539 342/542 382/543 
f 331/536 345/537 343/540 379/541 
f 336/544 340/545 344/548 380/549 
f 331/536 379/541 380/549 332/550 
f 333/546 337/547 338/539 334/538 
f 337/660 341/586 342/542 338/539 
f 339/551 343/657 344/548 340/545 
f 341/586 386/587 387/590 342/542 
f 343/657 345/656 346/584 344/548 
f 345/655 331/536 332/550 346/584 
f 363/552 361/553 359/554 357/555 355/556 353/557 351/558 349/559 347/560 369/561 367/562 365/563 
f 368/564 370/565 348/566 350/567 352/568 354/569 356/570 358/571 360/572 362/573 364/574 366/575 
f 347/598 349/599 350/600 348/601 
f 349/599 351/602 352/603 350/600 
f 351/602 353/604 354/605 352/603 
f 353/604 355/606 356/607 354/605 
f 355/606 357/608 358/609 356/607 
f 357/608 359/610 360/611 358/609 
f 359/610 361/612 362/613 360/611 
f 361/612 363/614 364/615 362/613 
f 363/614 365/616 366/617 364/615 
f 365/616 367/618 368/619 366/617 
f 367/562 369/561 370/565 368/564 
f 369/561 347/560 348/566 370/565 
f 375/576 376/577 378/578 377/579 
f 372/580 371/581 373/643 374/645 
f 373/582 371/581 375/576 377/579 
f 372/580 374/583 378/578 376/577 
f 371/581 372/580 376/577 375/576 
f 374/644 373/642 377/579 378/578 
f 379/541 335/585 336/544 380/549 
f 344/548 346/584 332/550 380/549 
f 343/540 339/658 335/585 379/541 
f 381/591 333/546 334/538 382/543 
f 342/542 387/590 385/592 382/543 
f 341/662 337/661 333/546 381/591 
f 383/525 319/535 320/651 384/652 
f 325/524 323/588 319/535 383/525 
f 326/530 330/589 316/654 384/531 
f 315/520 316/653 330/589 329/521 
f 339/659 340/545 336/544 335/585 
f 386/663 341/662 381/591 388/593 
f 388/593 381/591 382/543 385/592 
f 386/663 388/593 392/594 390/595 
f 388/593 385/592 389/596 392/594 
f 387/590 386/587 390/664 391/597 
f 385/592 387/590 391/597 389/596 
f 392/594 389/596 391/597 390/665 
# 74 polygons

#
# object 1?_??_2?_??_
#

v  39.177132 10.166262 41.492268
v  39.177132 10.687258 41.492268
v  0.713410 10.166262 0.961308
v  39.177139 10.166262 0.961308
v  0.713410 10.687259 0.961308
v  39.177139 10.687259 0.961308
v  0.713410 10.166262 32.518124
v  39.177139 10.166262 32.569344
v  39.177139 10.687259 32.569344
v  0.713410 10.687259 32.518124
v  14.529502 10.166262 41.492268
v  14.529503 10.687258 41.492268
v  14.529504 10.687259 0.961308
v  14.529504 10.166262 0.961308
v  14.529504 10.166262 32.518124
v  14.529504 10.687259 32.518124
v  22.939833 10.687258 41.492268
v  22.939835 10.166262 0.961308
v  22.939838 10.687259 32.543732
v  22.939831 10.166262 41.492268
v  22.939833 10.687259 0.961308
v  22.939833 10.166262 32.543736
v  39.177139 10.166261 47.239407
v  39.177139 10.687258 47.239407
v  22.939835 10.687258 47.239403
v  22.939833 10.166261 47.239403
v  39.177139 10.166262 24.912178
v  39.177139 10.687259 24.912178
v  0.713410 10.687259 24.886566
v  0.713410 10.166262 24.886568
v  14.529503 10.166262 24.886566
v  14.529503 10.687259 24.886566
v  22.939833 10.687259 24.899372
v  22.939833 10.166262 24.899372
v  39.177139 10.166262 11.999823
v  39.177139 10.687259 11.999821
v  0.713409 10.687259 11.987020
v  14.529503 10.166262 11.987020
v  14.529503 10.687259 11.987020
v  22.939829 10.687259 11.993423
v  22.939829 10.166262 11.993425
v  0.713409 10.166262 11.987020
# 42 vertices

vt 0.249550 0.981690 0.000000
vt 0.249550 0.984351 0.000000
vt 0.178979 0.984331 0.000000
vt 0.178980 0.981670 0.000000
vt 0.053145 0.774607 0.000000
vt 0.053131 0.820184 0.000000
vt 0.050470 0.820183 0.000000
vt 0.050484 0.774606 0.000000
vt 0.249597 0.820503 0.000000
vt 0.249586 0.859484 0.000000
vt 0.179016 0.859464 0.000000
vt 0.179028 0.820483 0.000000
vt 0.053120 0.859296 0.000000
vt 0.367016 0.320696 0.000000
vt 0.050458 0.859295 0.000000
vt 0.252258 0.820504 0.000000
vt 0.252247 0.859485 0.000000
vt 0.179041 0.774644 0.000000
vt 0.136082 0.774632 0.000000
vt 0.136083 0.771971 0.000000
vt 0.179042 0.771983 0.000000
vt 0.136021 0.984318 0.000000
vt 0.136022 0.981657 0.000000
vt 0.412592 0.320993 0.000000
vt 0.412181 0.403931 0.000000
vt 0.136069 0.820339 0.000000
vt 0.136038 0.925307 0.000000
vt 0.178997 0.925352 0.000000
vt 0.179028 0.817821 0.000000
vt 0.366474 0.403632 0.000000
vt 0.136091 0.745276 0.000000
vt 0.451703 0.321249 0.000000
vt 0.053154 0.745251 0.000000
vt 0.050493 0.745250 0.000000
vt 0.138753 0.745277 0.000000
vt 0.451227 0.404186 0.000000
vt 0.053083 0.984294 0.000000
vt 0.573215 0.447942 0.000000
vt 0.053084 0.981633 0.000000
vt 0.053100 0.925250 0.000000
vt 0.572753 0.518511 0.000000
vt 0.249567 0.925372 0.000000
vt 0.050439 0.925249 0.000000
vt 0.252228 0.925373 0.000000
vt 0.516437 0.518143 0.000000
vt 0.136057 0.859385 0.000000
vt 0.677333 0.646239 0.000000
vt 0.677352 0.710891 0.000000
vt 0.596052 0.710947 0.000000
vt 0.596033 0.646327 0.000000
vt 0.516898 0.447574 0.000000
vt 0.412031 0.446889 0.000000
vt 0.366194 0.446590 0.000000
vt 0.573495 0.404984 0.000000
vt 0.517146 0.404616 0.000000
vt 0.337119 0.403440 0.000000
vt 0.337661 0.320504 0.000000
vt 0.517656 0.321680 0.000000
vt 0.450550 0.517712 0.000000
vt 0.411570 0.517457 0.000000
vt 0.451011 0.447143 0.000000
vt 0.574037 0.322049 0.000000
vt 0.252212 0.981691 0.000000
vt 0.249598 0.817842 0.000000
vt 0.138744 0.774632 0.000000
vt 0.181702 0.774645 0.000000
vt 0.181688 0.820484 0.000000
vt 0.053154 0.742590 0.000000
vt 0.136092 0.742615 0.000000
vt 0.050423 0.981632 0.000000
# 70 texture coords

o 1?_??_2?_??_
g 1?_??_2?_??_
f 395/674 397/675 405/676 406/677 
f 393/678 400/679 401/680 394/681 
f 394/687 401/697 411/698 409/703 
f 399/682 422/683 423/684 407/685 
f 400/679 419/686 420/688 401/680 
f 401/697 420/705 425/709 411/698 
f 402/689 421/690 422/683 399/682 
f 403/691 412/692 409/693 404/694 
f 405/676 413/695 410/696 406/677 
f 407/685 414/699 412/692 403/691 
f 406/677 410/696 433/700 430/701 
f 405/711 397/714 429/718 431/724 
f 408/702 402/737 399/682 407/685 
f 404/739 408/740 407/685 403/691 
f 411/698 408/725 404/726 409/703 
f 413/727 405/711 431/724 432/728 
f 418/704 415/706 416/741 417/742 
f 413/695 398/710 396/712 410/696 
f 414/699 400/679 393/678 412/692 
f 410/696 396/712 427/713 433/700 
f 393/678 394/681 416/707 415/706 
f 394/687 409/703 417/729 416/730 
f 409/738 412/692 418/704 417/708 
f 412/692 393/678 415/706 418/704 
f 422/683 434/715 430/701 423/684 
f 419/686 427/713 428/716 420/688 
f 420/720 428/721 432/722 425/723 
f 421/690 429/717 434/715 422/683 
f 426/719 414/699 407/685 423/684 
f 421/732 402/733 408/725 424/734 
f 424/734 408/725 411/698 425/709 
f 419/686 400/679 414/699 426/719 
f 433/700 426/719 423/684 430/701 
f 429/718 421/732 424/734 431/724 
f 431/724 424/734 425/709 432/728 
f 427/713 419/686 426/719 433/700 
f 434/715 395/674 406/677 430/701 
f 427/713 396/712 398/743 428/716 
f 428/731 398/735 413/727 432/728 
f 429/717 397/736 395/674 434/715 
# 40 polygons

#
# object ??___??
#

v  17.864311 0.364764 13.963074
v  17.864311 10.635397 13.963074
v  16.962696 10.635397 0.808350
v  17.864311 10.635397 0.808350
v  17.864311 0.364764 0.808350
v  16.962696 0.364764 0.808350
v  8.938415 10.635399 13.963043
v  8.938415 10.635399 13.049927
v  8.938415 0.364764 13.049927
v  8.938415 0.364764 13.963043
v  16.962696 0.364764 13.049927
v  16.962696 10.635397 13.049927
v  16.212391 8.568243 13.049927
v  16.212391 8.568243 13.963074
v  11.012920 8.568243 13.049927
v  11.012920 8.568243 13.963074
v  16.212391 0.364764 13.049927
v  16.212391 0.364764 13.963074
v  11.012920 0.364764 13.049927
v  11.012920 0.364764 13.963074
v  0.638178 0.364764 13.963043
v  0.638178 10.635399 13.963043
v  0.638178 10.635399 13.049927
v  0.638178 0.364764 13.049927
# 24 vertices

vt 0.675589 0.370690 0.000000
vt 0.669287 0.370690 0.000000
vt 0.669288 0.352973 0.000000
vt 0.751045 0.158309 0.000000
vt 0.751045 0.121003 0.000000
vt 0.770622 0.121003 0.000000
vt 0.770622 0.158309 0.000000
vt 0.675589 0.352973 0.000000
vt 0.751045 0.094643 0.000000
vt 0.216849 0.619893 0.000000
vt 0.174677 0.619893 0.000000
vt 0.174677 0.576759 0.000000
vt 0.483730 0.852823 0.000000
vt 0.483730 0.800538 0.000000
vt 0.535861 0.800538 0.000000
vt 0.770622 0.094643 0.000000
vt 0.751045 0.068810 0.000000
vt 0.770622 0.068810 0.000000
vt 0.751045 0.054493 0.000000
vt 0.770622 0.054493 0.000000
vt 0.751045 0.041015 0.000000
vt 0.535861 0.852823 0.000000
vt 0.539681 0.842300 0.000000
vt 0.539681 0.800538 0.000000
vt 0.216849 0.576759 0.000000
vt 0.167740 0.611212 0.000000
vt 0.167740 0.576759 0.000000
vt 0.770622 0.041015 0.000000
vt 0.751045 0.036065 0.000000
vt 0.770622 0.036065 0.000000
vt 0.751045 0.229381 0.000000
vt 0.770622 0.229381 0.000000
vt 0.675588 0.381462 0.000000
vt 0.669289 0.381462 0.000000
vt 0.137191 0.619893 0.000000
vt 0.566149 0.842300 0.000000
vt 0.675588 0.342201 0.000000
vt 0.669289 0.342201 0.000000
vt 0.566149 0.800538 0.000000
vt 0.576710 0.800538 0.000000
vt 0.576710 0.852823 0.000000
vt 0.137191 0.576759 0.000000
vt 0.145904 0.576759 0.000000
vt 0.145904 0.611212 0.000000
vt 0.770622 0.121003 0.000000
vt 0.770622 0.158309 0.000000
vt 0.751045 0.158309 0.000000
vt 0.618964 0.800538 0.000000
vt 0.114977 0.650830 0.000000
vt 0.114977 0.725045 0.000000
vt 0.055000 0.725045 0.000000
vt 0.055000 0.650830 0.000000
vt 0.618964 0.852823 0.000000
vt 0.751045 0.121003 0.000000
# 54 texture coords

o ??___??
g ??___??
f 437/744 438/745 439/746 440/751 
f 457/790 458/797 455/788 456/789 
f 438/753 436/754 435/755 439/768 
f 437/756 440/757 445/758 446/765 
f 444/749 443/748 453/752 454/759 
f 449/760 450/761 454/759 453/752 
f 447/762 448/763 450/761 449/760 
f 448/763 447/762 451/764 452/771 
f 445/772 435/773 452/771 451/764 
f 446/776 436/777 438/745 437/744 
f 447/766 446/765 445/758 451/767 
f 435/755 436/754 448/769 452/770 
f 449/779 453/782 443/783 442/784 
f 441/778 444/785 454/786 450/787 
f 436/754 441/778 450/787 448/769 
f 447/766 449/779 442/784 446/765 
f 446/774 442/747 441/750 436/775 
f 445/780 440/751 439/746 435/781 
f 444/792 441/793 456/794 455/795 
f 441/750 442/747 457/790 456/789 
f 442/784 443/783 458/791 457/796 
f 443/748 444/749 455/788 458/797 
# 22 polygons

#
# object ??___??
#

v  14.538205 0.364765 21.443604
v  14.538204 10.635680 21.443604
v  14.538204 10.635680 32.632202
v  14.538205 0.364765 32.632324
v  0.615200 10.635680 21.443542
v  0.615200 10.635680 22.356720
v  0.615200 0.364765 22.356720
v  0.615200 0.364765 21.443573
v  13.636590 0.364765 22.356720
v  13.636589 10.635680 22.356720
v  13.636589 10.635680 31.731628
v  13.636590 0.364765 31.731750
v  0.500456 10.635680 32.632202
v  0.500456 0.364765 32.632324
v  0.500456 0.364765 31.731750
v  0.500456 10.635680 31.731628
v  13.636589 8.568243 22.734955
v  14.538204 8.568243 22.734924
v  13.636589 8.568243 27.934387
v  14.538204 8.568243 27.934387
v  13.636590 0.364765 22.734955
v  14.538205 0.364765 22.734924
v  13.636590 0.364765 27.934387
v  14.538205 0.364765 27.934387
v  9.037150 10.635680 21.443604
v  9.037150 10.635680 22.356720
v  9.037150 0.364765 22.356720
v  9.037150 0.364765 21.443604
# 28 vertices

vt 0.005514 0.233191 0.000000
vt 0.005514 0.218999 0.000000
vt 0.017729 0.218999 0.000000
vt 0.184070 0.630611 0.000000
vt 0.645469 0.926456 0.000000
vt 0.645469 0.987369 0.000000
vt 0.440296 0.596937 0.000000
vt 0.440296 0.532866 0.000000
vt 0.416895 0.532866 0.000000
vt 0.015466 0.812277 0.000000
vt 0.005675 0.812277 0.000000
vt 0.005675 0.784629 0.000000
vt 0.017729 0.233191 0.000000
vt 0.017729 0.571841 0.000000
vt 0.017729 0.586560 0.000000
vt 0.123216 0.630611 0.000000
vt 0.517109 0.926456 0.000000
vt 0.517109 0.987370 0.000000
vt 0.015466 0.784629 0.000000
vt 0.015466 0.872089 0.000000
vt 0.005675 0.872089 0.000000
vt 0.416895 0.596937 0.000000
vt 0.516992 0.596937 0.000000
vt 0.578428 0.596937 0.000000
vt 0.005514 0.586560 0.000000
vt 0.005514 0.571841 0.000000
vt 0.017729 0.364221 0.000000
vt 0.578428 0.532866 0.000000
vt 0.516992 0.532866 0.000000
vt 0.482218 0.532866 0.000000
vt 0.559669 0.987369 0.000000
vt 0.559669 0.926456 0.000000
vt 0.605788 0.975108 0.000000
vt 0.015466 0.903870 0.000000
vt 0.005675 0.903870 0.000000
vt 0.015466 0.909191 0.000000
vt 0.005675 0.909191 0.000000
vt 0.005675 0.703810 0.000000
vt 0.015466 0.703810 0.000000
vt 0.005675 0.594475 0.000000
vt 0.015466 0.594475 0.000000
vt 0.015466 0.988278 0.000000
vt 0.005514 0.364221 0.000000
vt 0.605788 0.926456 0.000000
vt 0.482218 0.584040 0.000000
vt 0.005675 0.988278 0.000000
vt 0.017729 0.499396 0.000000
vt 0.636624 0.926456 0.000000
vt 0.449372 0.584040 0.000000
vt 0.005514 0.499396 0.000000
vt 0.449372 0.532866 0.000000
vt 0.636624 0.975108 0.000000
vt 0.674760 0.987370 0.000000
vt 0.017729 0.298706 0.000000
vt 0.428595 0.596937 0.000000
vt 0.005514 0.298706 0.000000
vt 0.005675 0.948735 0.000000
vt 0.428595 0.532866 0.000000
vt 0.674760 0.926456 0.000000
vt 0.015466 0.948735 0.000000
vt 0.123216 0.704826 0.000000
vt 0.184070 0.704826 0.000000
# 62 texture coords

o ??___??
g ??___??
f 463/810 466/800 465/799 464/798 
f 463/859 483/858 486/813 466/801 
f 484/852 485/855 467/805 468/804 
f 474/823 473/822 472/812 471/811 
f 462/829 461/828 471/815 472/814 
f 470/826 473/825 474/821 469/820 
f 482/816 481/809 477/808 478/807 
f 477/808 475/818 476/817 478/807 
f 475/818 479/832 480/831 476/817 
f 479/832 467/834 459/833 480/831 
f 481/809 482/816 462/836 470/835 
f 483/851 484/853 468/840 460/824 
f 470/826 469/820 477/842 481/827 
f 462/829 482/841 478/830 461/828 
f 476/849 480/845 459/802 460/803 
f 478/830 476/849 460/803 461/828 
f 469/820 468/804 475/846 477/842 
f 468/804 467/805 479/848 475/846 
f 468/840 469/847 461/844 460/824 
f 469/847 474/823 471/811 461/844 
f 462/836 472/838 473/837 470/835 
f 467/834 485/854 486/857 459/833 
f 483/850 460/803 459/802 486/856 
f 484/852 464/819 465/806 485/855 
f 483/851 463/810 464/798 484/853 
f 485/854 465/843 466/839 486/857 
# 26 polygons

#
# object ??___??
#

v  22.355999 0.364765 30.099731
v  23.257614 0.364765 30.099731
v  23.257612 10.635680 30.099731
v  22.355997 10.635680 30.099731
v  22.355999 0.364765 41.288452
v  23.257614 0.364765 41.288452
v  23.257612 10.635680 41.288330
v  22.355997 10.635680 41.288330
# 8 vertices

vt 0.188929 0.025858 0.000000
vt 0.188929 0.008758 0.000000
vt 0.326937 0.008758 0.000000
vt 0.326937 0.025858 0.000000
vt 0.349232 0.008758 0.000000
vt 0.349232 0.025858 0.000000
vt 0.274795 0.621106 0.000000
vt 0.166633 0.025858 0.000000
vt 0.166633 0.008758 0.000000
vt 0.274795 0.570519 0.000000
vt 0.283169 0.570519 0.000000
vt 0.283169 0.621106 0.000000
vt 0.224527 0.621106 0.000000
vt 0.224527 0.570519 0.000000
vt 0.332775 0.570519 0.000000
vt 0.332775 0.621106 0.000000
# 16 texture coords

o ??___??
g ??___??
f 487/871 490/870 489/869 488/866 
f 491/863 492/862 493/861 494/860 
f 489/869 493/873 492/872 488/866 
f 492/862 491/863 487/865 488/864 
f 494/860 493/861 489/868 490/867 
f 490/870 487/871 491/875 494/874 
# 6 polygons

#
# object 1?_???___??
#

v  9.574314 0.364765 13.636047
v  9.574313 10.635680 13.636047
v  8.672698 10.635680 13.636047
v  8.672699 0.364765 13.636047
v  8.672698 10.635680 21.672806
v  9.574313 10.635680 21.672806
v  9.574314 0.364765 21.672882
v  8.672699 0.364765 21.672882
v  8.672698 8.568243 18.803375
v  9.574313 8.568243 18.803391
v  8.672698 8.568243 14.438980
v  9.574313 8.568243 14.438995
v  8.672699 0.364765 18.803375
v  9.574314 0.364765 18.803391
v  8.672699 0.364765 14.438980
v  9.574314 0.364765 14.438995
# 16 vertices

vt 0.868619 0.939987 0.000000
vt 0.868619 0.960132 0.000000
vt 0.844712 0.960132 0.000000
vt 0.844712 0.939987 0.000000
vt 0.904569 0.939987 0.000000
vt 0.919351 0.939987 0.000000
vt 0.919351 0.960132 0.000000
vt 0.904569 0.960132 0.000000
vt 0.933843 0.939987 0.000000
vt 0.933843 0.960132 0.000000
vt 0.976794 0.960132 0.000000
vt 0.976794 0.939987 0.000000
vt 0.671671 0.216878 0.000000
vt 0.675417 0.226526 0.000000
vt 0.675417 0.178598 0.000000
vt 0.953737 0.939987 0.000000
vt 0.953737 0.960132 0.000000
vt 0.972955 0.939987 0.000000
vt 0.689344 0.418294 0.000000
vt 0.689344 0.468321 0.000000
vt 0.693254 0.458252 0.000000
vt 0.972955 0.960132 0.000000
vt 0.671671 0.178598 0.000000
vt 0.651305 0.216878 0.000000
vt 0.651305 0.178598 0.000000
vt 0.637915 0.178598 0.000000
vt 0.637915 0.226526 0.000000
vt 0.693254 0.418294 0.000000
vt 0.728488 0.468321 0.000000
vt 0.728489 0.418294 0.000000
vt 0.714512 0.418294 0.000000
vt 0.714512 0.458252 0.000000
vt 0.983602 0.960132 0.000000
vt 0.983602 0.939987 0.000000
# 34 texture coords

o 1?_???___??
g 1?_???___??
f 495/879 498/878 497/877 496/876 
f 499/883 502/882 501/881 500/880 
f 499/883 500/880 496/876 497/877 
f 501/881 502/882 507/885 508/884 
f 498/908 495/909 510/887 509/886 
f 508/884 507/885 503/892 504/891 
f 505/897 506/893 504/891 503/892 
f 505/897 509/886 510/887 506/893 
f 510/898 495/890 496/889 506/888 
f 509/903 505/896 497/895 498/894 
f 500/902 501/901 508/900 504/899 
f 503/907 507/906 502/905 499/904 
f 496/889 500/902 504/899 506/888 
f 505/896 503/907 499/904 497/895 
# 14 polygons

#
# object 2?_??___??
#

v  22.355999 20.958309 41.482071
v  23.262001 20.958309 41.482071
v  23.262003 10.687394 41.482147
v  22.355999 10.687394 41.482132
v  39.100494 10.687442 35.298416
v  39.100491 20.958357 35.298355
v  39.100491 20.958357 34.337402
v  39.100494 10.687442 34.337402
v  22.355999 20.958309 34.337402
v  23.262001 20.958309 35.298355
v  22.355999 10.687394 34.337402
v  23.262003 10.687394 35.298416
v  24.668741 10.687399 35.298416
v  24.668741 10.687401 34.337402
v  29.868212 10.687414 35.298416
v  29.868212 10.687416 34.337402
v  29.868212 19.136845 35.298370
v  29.868212 19.136845 34.337402
v  24.668741 19.136845 35.298370
v  24.668741 19.136845 34.337402
v  34.282127 20.958334 34.337418
v  34.282127 20.958334 35.298355
v  34.282127 10.687429 34.337418
v  34.282127 10.687428 35.298431
# 24 vertices

vt 0.812404 0.249160 0.000000
vt 0.796829 0.248884 0.000000
vt 0.796058 0.244411 0.000000
vt 0.703714 0.101124 0.000000
vt 0.724514 0.101375 0.000000
vt 0.724632 0.111289 0.000000
vt 0.811633 0.244687 0.000000
vt 0.824628 0.249174 0.000000
vt 0.822884 0.244704 0.000000
vt 0.525382 0.606292 0.000000
vt 0.525382 0.652582 0.000000
vt 0.556013 0.652582 0.000000
vt 0.219621 0.358815 0.000000
vt 0.244715 0.358815 0.000000
vt 0.244715 0.314896 0.000000
vt 0.703809 0.111221 0.000000
vt 0.704514 0.012871 0.000000
vt 0.723133 0.009400 0.000000
vt 0.724367 0.072866 0.000000
vt 0.785357 0.248867 0.000000
vt 0.783613 0.244397 0.000000
vt 0.703869 0.072296 0.000000
vt 0.725014 0.210812 0.000000
vt 0.724245 0.222423 0.000000
vt 0.219621 0.314896 0.000000
vt 0.705885 0.217763 0.000000
vt 0.706178 0.210300 0.000000
vt 0.272962 0.351026 0.000000
vt 0.725269 0.168199 0.000000
vt 0.705057 0.168048 0.000000
vt 0.556010 0.606292 0.000000
vt 0.514959 0.606292 0.000000
vt 0.514959 0.644373 0.000000
vt 0.291836 0.358815 0.000000
vt 0.291836 0.314896 0.000000
vt 0.272962 0.314896 0.000000
vt 0.319627 0.358815 0.000000
vt 0.704380 0.141029 0.000000
vt 0.725047 0.141034 0.000000
vt 0.705219 0.175817 0.000000
vt 0.725284 0.175998 0.000000
vt 0.725101 0.205006 0.000000
vt 0.319627 0.314896 0.000000
vt 0.706042 0.204496 0.000000
vt 0.471633 0.606292 0.000000
vt 0.253495 0.351026 0.000000
vt 0.449918 0.606292 0.000000
vt 0.449918 0.652582 0.000000
vt 0.471633 0.652582 0.000000
vt 0.491526 0.644373 0.000000
vt 0.491526 0.606292 0.000000
vt 0.253495 0.314896 0.000000
# 52 texture coords

o 2?_??___??
g 2?_??___??
f 511/916 514/912 513/911 512/910 
f 515/925 518/915 517/914 516/913 
f 519/918 511/916 512/910 520/917 
f 514/940 511/921 519/920 521/919 
f 513/934 522/924 520/923 512/922 
f 532/931 531/928 519/927 520/926 
f 521/930 522/929 513/911 514/912 
f 523/936 522/935 521/933 524/932 
f 533/948 534/947 525/939 526/938 
f 529/953 530/951 528/950 527/949 
f 525/939 527/949 528/950 526/938 
f 521/919 519/920 530/942 524/941 
f 525/945 534/944 532/943 527/937 
f 523/936 524/932 530/951 529/953 
f 532/931 516/913 517/914 531/928 
f 533/948 518/915 515/925 534/947 
f 531/958 517/957 518/956 533/954 
f 534/944 515/952 516/946 532/943 
f 519/920 531/958 528/959 530/942 
f 520/923 522/924 523/961 529/955 
f 532/943 520/923 529/955 527/937 
f 531/958 533/954 526/960 528/959 
# 22 polygons

#
# object 2?_??___??
#

v  0.631940 10.687405 31.715668
v  13.586026 10.687427 31.715683
v  13.586025 20.958344 31.715683
v  0.631940 20.958321 31.715668
v  0.631940 10.687405 32.676682
v  14.542350 10.687451 32.676682
v  0.631940 20.958321 32.676605
v  14.542346 20.958366 32.676605
v  14.542350 10.687451 12.240997
v  14.542346 20.958366 12.240997
v  13.586025 20.958344 12.241013
v  13.586026 10.687427 12.241013
v  13.586026 10.687427 24.956360
v  14.542350 10.687451 24.956375
v  13.586026 10.687427 30.155838
v  14.542350 10.687451 30.155838
v  13.586025 19.136845 30.155838
v  14.542346 19.136845 30.155838
v  13.586025 19.136845 24.956360
v  14.542346 19.136845 24.956375
v  14.542346 20.958366 20.408630
v  13.586025 20.958344 20.408630
v  13.586026 10.687427 20.408630
v  14.542350 10.687451 20.408630
# 24 vertices

vt 0.702845 0.813089 0.000000
vt 0.702845 0.851975 0.000000
vt 0.754820 0.851974 0.000000
vt 0.574249 0.007959 0.000000
vt 0.651519 0.007959 0.000000
vt 0.651519 0.040859 0.000000
vt 0.574249 0.040859 0.000000
vt 0.754820 0.813089 0.000000
vt 0.787710 0.979117 0.000000
vt 0.787710 0.941497 0.000000
vt 0.497918 0.007959 0.000000
vt 0.497918 0.040859 0.000000
vt 0.374260 0.040859 0.000000
vt 0.374260 0.007959 0.000000
vt 0.023249 0.416902 0.000000
vt 0.023249 0.395225 0.000000
vt 0.035112 0.395225 0.000000
vt 0.035112 0.416902 0.000000
vt 0.035112 0.375703 0.000000
vt 0.035112 0.381916 0.000000
vt 0.023249 0.381916 0.000000
vt 0.023249 0.375703 0.000000
vt 0.023249 0.432412 0.000000
vt 0.023249 0.421487 0.000000
vt 0.035112 0.421487 0.000000
vt 0.035112 0.432412 0.000000
vt 0.035112 0.463903 0.000000
vt 0.637915 0.813089 0.000000
vt 0.637915 0.851975 0.000000
vt 0.837166 0.941497 0.000000
vt 0.837166 0.979117 0.000000
vt 0.759678 0.971400 0.000000
vt 0.743475 0.979117 0.000000
vt 0.023249 0.463903 0.000000
vt 0.023249 0.462947 0.000000
vt 0.035112 0.462947 0.000000
vt 0.023249 0.443272 0.000000
vt 0.035112 0.443272 0.000000
vt 0.035112 0.453644 0.000000
vt 0.023249 0.453644 0.000000
vt 0.663365 0.851975 0.000000
vt 0.663365 0.813089 0.000000
vt 0.743475 0.941497 0.000000
vt 0.673270 0.845079 0.000000
vt 0.759678 0.941497 0.000000
vt 0.673270 0.813089 0.000000
vt 0.711036 0.979117 0.000000
vt 0.711036 0.941497 0.000000
vt 0.777053 0.971400 0.000000
vt 0.777053 0.941497 0.000000
vt 0.695496 0.845079 0.000000
vt 0.695496 0.813089 0.000000
# 52 texture coords

o 2?_??___??
g 2?_??___??
f 535/969 538/964 537/963 536/962 
f 535/968 536/967 540/966 539/965 
f 541/992 539/991 540/971 542/970 
f 542/975 537/974 538/973 541/972 
f 538/973 535/968 539/965 541/972 
f 546/979 545/978 544/977 543/976 
f 542/983 555/982 556/981 537/980 
f 547/987 557/986 558/985 548/984 
f 549/997 550/996 540/995 536/988 
f 553/999 547/987 548/984 554/998 
f 552/1001 551/1000 553/999 554/998 
f 550/996 549/997 551/1000 552/1001 
f 557/1003 556/1002 545/990 546/989 
f 548/1006 558/1004 555/994 554/993 
f 555/982 544/977 545/978 556/981 
f 557/986 546/979 543/976 558/985 
f 557/1003 547/1007 553/1005 556/1002 
f 558/1004 543/1009 544/1008 555/994 
f 555/994 542/970 552/1010 554/993 
f 553/1005 551/1012 537/963 556/1002 
f 542/970 540/971 550/1011 552/1010 
f 551/1012 549/1013 536/962 537/963 
# 22 polygons

#
# object 2?_????___??
#

v  39.001446 10.687442 12.652863
v  39.001442 20.958357 12.652786
v  39.001442 20.958357 11.691849
v  39.001446 10.687442 11.691849
v  0.631939 10.687394 11.691849
v  0.631939 20.958309 11.691849
v  0.631939 10.687394 12.652863
v  0.631939 20.958309 12.652786
v  15.850922 10.687415 12.652863
v  15.850922 10.687415 11.691849
v  21.050390 10.687421 12.652863
v  21.050390 10.687421 11.691849
v  21.050390 19.136845 12.652802
v  21.050390 19.136845 11.691849
v  15.850922 19.136845 12.652802
v  15.850922 19.136845 11.691849
v  22.827444 20.958336 11.691849
v  22.827444 20.958336 12.652786
v  22.827444 10.687431 11.691849
v  22.827444 10.687431 12.652863
v  14.062075 20.958323 11.691849
v  14.062075 20.958323 12.652786
v  14.062075 10.687405 12.652863
v  14.062075 10.687405 11.691849
# 24 vertices

vt 0.021159 0.838967 0.000000
vt 0.045736 0.838967 0.000000
vt 0.045736 0.873189 0.000000
vt 0.021159 0.873189 0.000000
vt 0.045736 0.944932 0.000000
vt 0.045736 0.971250 0.000000
vt 0.021159 0.971250 0.000000
vt 0.021159 0.944932 0.000000
vt 0.021159 0.994234 0.000000
vt 0.021159 0.994110 0.000000
vt 0.045736 0.994110 0.000000
vt 0.045736 0.994234 0.000000
vt 0.021159 0.917257 0.000000
vt 0.021159 0.909756 0.000000
vt 0.045736 0.909756 0.000000
vt 0.036323 0.619653 0.000000
vt 0.294820 0.779018 0.000000
vt 0.090669 0.619653 0.000000
vt 0.045736 0.917257 0.000000
vt 0.021159 0.777484 0.000000
vt 0.045736 0.777484 0.000000
vt 0.021159 0.940497 0.000000
vt 0.045736 0.940497 0.000000
vt 0.021159 0.929360 0.000000
vt 0.045736 0.929360 0.000000
vt 0.021159 0.729735 0.000000
vt 0.045736 0.729735 0.000000
vt 0.916651 0.874188 0.000000
vt 0.916651 0.910737 0.000000
vt 0.924389 0.918616 0.000000
vt 0.924389 0.874188 0.000000
vt 0.886474 0.874188 0.000000
vt 0.816513 0.874188 0.000000
vt 0.816513 0.918616 0.000000
vt 0.886474 0.918616 0.000000
vt 0.982480 0.918616 0.000000
vt 0.982480 0.874188 0.000000
vt 0.894161 0.910737 0.000000
vt 0.894161 0.874188 0.000000
vt 0.090669 0.578092 0.000000
vt 0.036323 0.578092 0.000000
vt 0.097908 0.612283 0.000000
vt 0.097908 0.578092 0.000000
vt 0.374387 0.779019 0.000000
vt 0.374387 0.728490 0.000000
vt 0.294820 0.728490 0.000000
vt 0.126138 0.619653 0.000000
vt 0.118947 0.612283 0.000000
vt 0.126138 0.578092 0.000000
vt 0.118947 0.578092 0.000000
vt 0.021159 0.687104 0.000000
vt 0.045736 0.687104 0.000000
# 52 texture coords

o 2?_????___??
g 2?_????___??
f 559/1017 562/1016 561/1015 560/1014 
f 567/1021 581/1020 582/1019 568/1018 
f 564/1025 563/1024 565/1023 566/1022 
f 570/1032 577/1028 578/1027 569/1026 
f 575/1034 576/1033 560/1014 561/1015 
f 567/1021 568/1018 574/1036 573/1035 
f 574/1036 572/1038 571/1037 573/1035 
f 572/1038 570/1032 569/1026 571/1037 
f 582/1044 579/1043 574/1042 568/1041 
f 565/1054 581/1053 580/1031 566/1029 
f 575/1034 579/1040 580/1039 576/1033 
f 577/1028 562/1016 559/1017 578/1027 
f 575/1048 561/1047 562/1046 577/1045 
f 578/1059 559/1058 560/1057 576/1030 
f 579/1040 564/1065 566/1064 580/1039 
f 581/1020 565/1023 563/1024 582/1019 
f 582/1044 563/1050 564/1049 579/1043 
f 581/1053 567/1056 573/1055 580/1031 
f 579/1043 575/1048 572/1051 574/1042 
f 573/1055 571/1061 576/1060 580/1031 
f 575/1048 577/1045 570/1052 572/1051 
f 571/1061 569/1063 578/1062 576/1060 
# 22 polygons

#
# object 2?_??___??
#

v  22.355999 20.958309 12.286514
v  23.262001 20.958309 12.286514
v  23.262003 10.687394 12.286438
v  22.355999 10.687394 12.286453
v  39.100494 10.687442 24.610519
v  39.100491 20.958357 24.610580
v  39.100491 20.958357 25.571533
v  39.100494 10.687442 25.571533
v  22.355999 20.958309 25.571533
v  23.262001 20.958309 24.610580
v  22.355999 10.687394 25.571533
v  23.262003 10.687394 24.610519
v  24.329269 10.687398 24.610519
v  24.329269 10.687400 25.571533
v  29.528740 10.687413 24.610519
v  29.528740 10.687415 25.571533
v  29.528740 19.136845 24.610565
v  29.528740 19.136845 25.571533
v  24.329269 19.136845 24.610565
v  24.329269 19.136845 25.571533
v  34.440964 20.958334 25.571518
v  34.440964 20.958334 24.610580
v  34.440964 10.687428 25.571518
v  34.440964 10.687428 24.610504
# 24 vertices

vt 0.699014 0.277299 0.000000
vt 0.699014 0.258535 0.000000
vt 0.701893 0.258535 0.000000
vt 0.701893 0.277299 0.000000
vt 0.633236 0.159616 0.000000
vt 0.605222 0.159823 0.000000
vt 0.605219 0.151015 0.000000
vt 0.633250 0.150796 0.000000
vt 0.699015 0.293806 0.000000
vt 0.554197 0.869488 0.000000
vt 0.554197 0.916383 0.000000
vt 0.492217 0.916383 0.000000
vt 0.777649 0.915492 0.000000
vt 0.722955 0.915492 0.000000
vt 0.722953 0.869488 0.000000
vt 0.701893 0.293806 0.000000
vt 0.631093 0.237134 0.000000
vt 0.606229 0.241876 0.000000
vt 0.699015 0.239697 0.000000
vt 0.701893 0.239697 0.000000
vt 0.605016 0.184466 0.000000
vt 0.632668 0.184159 0.000000
vt 0.606213 0.060656 0.000000
vt 0.607062 0.051699 0.000000
vt 0.777648 0.869488 0.000000
vt 0.632004 0.054723 0.000000
vt 0.631628 0.059955 0.000000
vt 0.694886 0.907333 0.000000
vt 0.605343 0.098610 0.000000
vt 0.632499 0.098275 0.000000
vt 0.492218 0.869488 0.000000
vt 0.563207 0.869488 0.000000
vt 0.563207 0.908067 0.000000
vt 0.672885 0.915492 0.000000
vt 0.672885 0.869488 0.000000
vt 0.694886 0.869488 0.000000
vt 0.718173 0.907333 0.000000
vt 0.632986 0.124921 0.000000
vt 0.605173 0.125204 0.000000
vt 0.632391 0.091219 0.000000
vt 0.605448 0.091651 0.000000
vt 0.606033 0.065848 0.000000
vt 0.718173 0.869488 0.000000
vt 0.631719 0.065312 0.000000
vt 0.586946 0.908067 0.000000
vt 0.652015 0.915492 0.000000
vt 0.609374 0.916383 0.000000
vt 0.609374 0.869489 0.000000
vt 0.630648 0.869489 0.000000
vt 0.630648 0.916384 0.000000
vt 0.586946 0.869488 0.000000
vt 0.652015 0.869488 0.000000
# 52 texture coords

o 2?_??___??
g 2?_??___??
f 584/1066 585/1067 586/1068 583/1069 
f 588/1070 589/1071 590/1072 587/1073 
f 592/1074 584/1066 583/1069 591/1081 
f 593/1075 591/1076 583/1077 586/1096 
f 584/1078 592/1079 594/1080 585/1090 
f 592/1082 591/1083 603/1086 604/1087 
f 586/1068 585/1067 594/1084 593/1085 
f 596/1088 593/1089 594/1091 595/1092 
f 598/1094 597/1095 606/1103 605/1104 
f 599/1105 600/1106 602/1107 601/1109 
f 598/1094 600/1106 599/1105 597/1095 
f 596/1097 602/1098 591/1076 593/1075 
f 599/1093 604/1099 606/1100 597/1101 
f 601/1109 602/1107 596/1088 595/1092 
f 602/1098 600/1110 603/1112 591/1076 
f 601/1102 595/1108 594/1080 592/1079 
f 603/1086 589/1071 588/1070 604/1087 
f 606/1103 587/1073 590/1072 605/1104 
f 604/1099 588/1111 587/1117 606/1100 
f 605/1113 590/1114 589/1115 603/1112 
f 599/1093 601/1102 592/1079 604/1099 
f 600/1110 598/1116 605/1113 603/1112 
# 22 polygons

#
# object ??___??1
#

v  14.548113 10.624037 41.164173
v  14.748114 10.624037 41.164173
v  14.548113 10.624037 40.964176
v  14.748114 10.624037 40.964176
v  14.548113 14.500467 41.164173
v  14.748114 14.500467 41.164173
v  14.548113 14.500467 40.964176
v  14.748114 14.500467 40.964176
# 8 vertices

vt 0.063504 0.478690 0.000000
vt 0.062384 0.479417 0.000000
vt 0.061299 0.478992 0.000000
vt 0.062201 0.477591 0.000000
vt 0.066300 0.497588 0.000000
vt 0.067275 0.497444 0.000000
vt 0.064094 0.497890 0.000000
vt 0.065215 0.497162 0.000000
vt 0.064479 0.478546 0.000000
vt 0.060324 0.479136 0.000000
vt 0.063120 0.498034 0.000000
vt 0.065398 0.498989 0.000000
# 12 texture coords

o ??___??1
g ??___??1
f 607/1118 609/1119 610/1120 608/1121 
f 611/1122 612/1129 614/1124 613/1125 
f 607/1118 608/1126 612/1123 611/1122 
f 608/1127 610/1120 614/1124 612/1128 
f 610/1120 609/1119 613/1125 614/1124 
f 609/1119 607/1118 611/1122 613/1125 
# 6 polygons

#
# object ??___??3
#

v  14.548113 10.624037 37.005859
v  14.748114 10.624037 37.005859
v  14.548113 10.624037 36.805862
v  14.748114 10.624037 36.805862
v  14.548113 14.500396 37.005859
v  14.748114 14.500396 37.005859
v  14.548113 14.500396 36.805862
v  14.748114 14.500396 36.805862
# 8 vertices

vt 0.058658 0.512878 0.000000
vt 0.057538 0.513605 0.000000
vt 0.056452 0.513180 0.000000
vt 0.057354 0.511779 0.000000
vt 0.061453 0.531777 0.000000
vt 0.062429 0.531633 0.000000
vt 0.059248 0.532078 0.000000
vt 0.060368 0.531351 0.000000
vt 0.059633 0.512734 0.000000
vt 0.055478 0.513324 0.000000
vt 0.058273 0.532222 0.000000
vt 0.060551 0.533178 0.000000
# 12 texture coords

o ??___??3
g ??___??3
f 615/1130 617/1131 618/1132 616/1133 
f 619/1134 620/1141 622/1136 621/1137 
f 615/1130 616/1138 620/1135 619/1134 
f 616/1139 618/1132 622/1136 620/1140 
f 618/1132 617/1131 621/1137 622/1136 
f 617/1131 615/1130 619/1134 621/1137 
# 6 polygons

#
# object ??___??4
#

v  4.601546 6.156853 37.005859
v  4.801546 6.156853 37.005859
v  4.601546 6.156853 36.805862
v  4.801546 6.156853 36.805862
v  4.601546 10.087323 37.005859
v  4.801546 10.087323 37.005859
v  4.601546 10.087323 36.805862
v  4.801546 10.087323 36.805862
# 8 vertices

vt 0.072929 0.510605 0.000000
vt 0.071808 0.511330 0.000000
vt 0.070723 0.510902 0.000000
vt 0.071628 0.509503 0.000000
vt 0.075729 0.529769 0.000000
vt 0.076704 0.529627 0.000000
vt 0.073522 0.530067 0.000000
vt 0.074644 0.529342 0.000000
vt 0.073905 0.510462 0.000000
vt 0.069748 0.511045 0.000000
vt 0.072547 0.530209 0.000000
vt 0.074824 0.531169 0.000000
# 12 texture coords

o ??___??4
g ??___??4
f 623/1142 625/1143 626/1144 624/1145 
f 627/1146 628/1153 630/1148 629/1149 
f 623/1142 624/1150 628/1147 627/1146 
f 624/1151 626/1144 630/1148 628/1152 
f 626/1144 625/1143 629/1149 630/1148 
f 625/1143 623/1142 627/1146 629/1149 
# 6 polygons

#
# object ??___??5
#

v  14.509671 14.418257 41.203739
v  14.785897 14.418257 41.203739
v  14.509671 14.418257 36.771976
v  14.785897 14.418257 36.771976
v  14.509671 14.589707 41.203739
v  14.785897 14.589707 41.203739
v  14.509671 14.589707 36.771976
v  14.785897 14.589707 36.771976
v  14.509671 14.418257 37.045860
v  14.785897 14.418257 37.045860
v  14.785897 14.589707 37.045860
v  14.509671 14.589707 37.045860
v  4.562741 10.175365 37.045860
v  4.562741 10.175365 36.771976
v  4.562741 10.003915 36.771976
v  4.562741 10.003915 37.045860
v  4.839208 10.175365 37.045860
v  4.839208 10.175365 36.771976
v  4.839208 10.003915 36.771976
v  4.839208 10.003915 37.045860
v  14.509671 14.418257 40.930519
v  14.785897 14.589707 40.930519
v  14.785897 14.418257 40.930519
v  14.509671 14.589707 40.930519
# 24 vertices

vt 0.039424 0.565595 0.000000
vt 0.039169 0.564156 0.000000
vt 0.040579 0.563989 0.000000
vt 0.040879 0.565337 0.000000
vt 0.042410 0.565474 0.000000
vt 0.041470 0.564902 0.000000
vt 0.041444 0.563916 0.000000
vt 0.042780 0.564114 0.000000
vt 0.041352 0.544030 0.000000
vt 0.041059 0.543042 0.000000
vt 0.041899 0.543284 0.000000
vt 0.041637 0.543998 0.000000
vt 0.041892 0.488688 0.000000
vt 0.042986 0.487717 0.000000
vt 0.043561 0.488527 0.000000
vt 0.042554 0.489049 0.000000
vt 0.044128 0.543915 0.000000
vt 0.040980 0.544768 0.000000
vt 0.041774 0.544841 0.000000
vt 0.043243 0.544126 0.000000
vt 0.042401 0.490223 0.000000
vt 0.043991 0.490094 0.000000
vt 0.041581 0.489957 0.000000
vt 0.040243 0.489813 0.000000
vt 0.043299 0.565673 0.000000
vt 0.041923 0.566122 0.000000
vt 0.043593 0.564243 0.000000
vt 0.040494 0.488400 0.000000
vt 0.044495 0.488253 0.000000
vt 0.039643 0.543875 0.000000
vt 0.044936 0.489760 0.000000
# 31 texture coords

o ??___??5
g ??___??5
f 631/1154 651/1155 653/1156 632/1157 
f 635/1158 636/1159 652/1160 654/1161 
f 631/1179 632/1157 636/1159 635/1158 
f 632/1157 653/1156 652/1160 636/1159 
f 634/1162 633/1163 637/1164 638/1165 
f 645/1166 646/1167 643/1168 644/1169 
f 639/1183 633/1163 634/1162 640/1171 
f 641/1172 638/1165 637/1164 642/1173 
f 640/1171 634/1162 638/1165 641/1172 
f 639/1170 651/1180 654/1161 642/1173 
f 642/1173 637/1164 648/1174 647/1175 
f 637/1164 633/1163 649/1176 648/1174 
f 633/1163 639/1183 650/1177 649/1176 
f 639/1170 642/1173 647/1175 650/1184 
f 648/1174 644/1169 643/1168 647/1175 
f 649/1176 645/1166 644/1169 648/1174 
f 650/1177 646/1181 645/1166 649/1176 
f 647/1175 643/1168 646/1182 650/1184 
f 651/1155 639/1183 640/1171 653/1156 
f 652/1160 641/1172 642/1173 654/1161 
f 653/1156 640/1171 641/1172 652/1160 
f 651/1180 631/1178 635/1158 654/1161 
# 22 polygons

#
# object ??___??6
#

v  14.509671 12.378431 41.203739
v  14.785897 12.378431 41.203739
v  14.509671 12.378431 36.771976
v  14.785897 12.378431 36.771976
v  14.509671 12.549882 41.203739
v  14.785897 12.549882 41.203739
v  14.509671 12.549882 36.771976
v  14.785897 12.549882 36.771976
v  14.509671 12.378431 37.045860
v  14.785897 12.378431 37.045860
v  14.785897 12.549882 37.045860
v  14.509671 12.549882 37.045860
v  4.562741 8.135540 37.045860
v  4.562741 8.135540 36.771976
v  4.562741 7.964089 36.771976
v  4.562741 7.964089 37.045860
v  4.839208 8.135540 37.045860
v  4.839208 8.135540 36.771976
v  4.839208 7.964089 36.771976
v  4.839208 7.964089 37.045860
v  14.509671 12.378431 40.930519
v  14.785897 12.549882 40.930519
v  14.785897 12.378431 40.930519
v  14.509671 12.549882 40.930519
# 24 vertices

vt 0.023144 0.565589 0.000000
vt 0.022919 0.564145 0.000000
vt 0.024333 0.564008 0.000000
vt 0.024604 0.565362 0.000000
vt 0.026132 0.565531 0.000000
vt 0.025204 0.564940 0.000000
vt 0.025199 0.563953 0.000000
vt 0.026530 0.564179 0.000000
vt 0.025525 0.544069 0.000000
vt 0.025253 0.543076 0.000000
vt 0.026088 0.543336 0.000000
vt 0.025811 0.544044 0.000000
vt 0.027230 0.488752 0.000000
vt 0.028344 0.487804 0.000000
vt 0.028902 0.488626 0.000000
vt 0.027884 0.489127 0.000000
vt 0.028303 0.544012 0.000000
vt 0.025138 0.544800 0.000000
vt 0.025930 0.544889 0.000000
vt 0.027413 0.544205 0.000000
vt 0.027706 0.490297 0.000000
vt 0.029299 0.490202 0.000000
vt 0.026892 0.490014 0.000000
vt 0.025557 0.489842 0.000000
vt 0.027017 0.565749 0.000000
vt 0.025631 0.566169 0.000000
vt 0.027340 0.564324 0.000000
vt 0.025838 0.488434 0.000000
vt 0.029842 0.488372 0.000000
vt 0.023820 0.543878 0.000000
vt 0.030251 0.489887 0.000000
# 31 texture coords

o ??___??6
g ??___??6
f 655/1185 675/1186 677/1187 656/1188 
f 659/1189 660/1190 676/1191 678/1192 
f 655/1210 656/1188 660/1190 659/1189 
f 656/1188 677/1187 676/1191 660/1190 
f 658/1193 657/1194 661/1195 662/1196 
f 669/1197 670/1198 667/1199 668/1200 
f 663/1214 657/1194 658/1193 664/1202 
f 665/1203 662/1196 661/1195 666/1204 
f 664/1202 658/1193 662/1196 665/1203 
f 663/1201 675/1211 678/1192 666/1204 
f 666/1204 661/1195 672/1205 671/1206 
f 661/1195 657/1194 673/1207 672/1205 
f 657/1194 663/1214 674/1208 673/1207 
f 663/1201 666/1204 671/1206 674/1215 
f 672/1205 668/1200 667/1199 671/1206 
f 673/1207 669/1197 668/1200 672/1205 
f 674/1208 670/1212 669/1197 673/1207 
f 671/1206 667/1199 670/1213 674/1215 
f 675/1186 663/1214 664/1202 677/1187 
f 676/1191 665/1203 666/1204 678/1192 
f 677/1187 664/1202 665/1203 676/1191 
f 675/1211 655/1209 659/1189 678/1192 
# 22 polygons

#
# object 2?_??
#

v  0.348927 20.931023 21.374733
v  0.348927 20.931023 15.862604
v  0.966068 20.931023 15.862604
v  0.966066 20.931023 21.374733
v  16.206947 20.931023 1.245207
v  16.206947 20.931023 15.862603
v  10.033548 20.931023 15.862604
v  10.033549 20.931023 1.245209
v  38.893448 20.931023 1.245209
v  38.893448 20.931023 15.862603
v  30.800451 20.931023 15.862603
v  30.800451 20.931023 1.245209
v  21.432165 20.931023 1.245209
v  21.432165 20.931023 15.862604
v  23.259905 20.931023 15.862603
v  23.259905 20.931023 1.245207
v  39.510593 20.931023 15.862603
v  0.966068 20.931023 1.245209
v  0.348927 20.931023 0.472151
v  10.033549 20.931023 0.472151
v  16.206947 20.931023 0.472151
v  21.432165 20.931023 0.472151
v  23.259905 20.931023 0.472151
v  30.800451 20.931023 0.472151
v  39.510593 20.931023 0.472151
v  39.510593 20.931023 21.374733
v  39.510593 20.931023 28.766832
v  38.893452 20.931023 28.766834
v  38.893452 20.931023 21.374733
v  30.800453 20.931023 28.766834
v  30.800453 20.931023 21.374733
v  23.259905 20.931023 28.766834
v  23.259905 20.931023 21.374733
v  21.432165 20.931023 21.374733
v  21.432165 20.931023 28.766836
v  16.206947 20.931023 28.766836
v  16.206947 20.931023 21.374733
v  10.033546 20.931023 28.766834
v  10.033546 20.931023 21.374733
v  0.966066 20.931023 28.766832
v  0.348927 20.931023 28.766832
v  39.510597 20.931023 47.757740
v  38.893448 20.931023 47.235069
v  30.800102 20.931023 47.757740
v  30.800114 20.931023 47.235069
v  23.266224 20.931023 47.235069
v  22.804163 20.931023 47.757740
v  22.799788 20.931023 41.776684
v  23.261848 20.931023 41.254021
v  21.432165 20.931023 35.500992
v  16.206947 20.931023 35.500992
v  16.206947 20.931023 41.254921
v  16.206947 20.931023 41.777588
v  10.033547 20.931023 41.777588
v  10.033548 20.931023 41.254917
v  0.966066 20.931023 41.254921
v  0.348925 20.931023 41.777588
v  0.348925 20.931023 35.500992
v  0.966066 20.931023 35.500988
v  10.033546 20.931023 35.500977
v  23.259905 20.931023 35.500988
v  30.800453 20.931023 35.500984
v  38.893452 20.931023 35.500992
v  39.510597 20.931023 35.500992
v  21.433388 20.931023 41.254921
v  38.893448 20.931023 41.368034
v  39.510593 20.931023 41.368034
v  21.432165 20.931023 41.777588
v  16.206947 20.931023 35.500992
v  21.432165 20.931023 35.500992
v  30.814703 20.931023 41.274731
v  0.348927 21.467323 21.374733
v  0.348927 21.467323 15.862604
v  0.966068 21.467323 15.862604
v  0.966066 21.467323 21.374733
v  16.206947 21.467323 1.245207
v  16.206947 21.467323 15.862603
v  10.033548 21.467323 15.862604
v  10.033549 21.467323 1.245209
v  38.893448 21.467323 1.245209
v  38.893448 21.467323 15.862603
v  30.800451 21.467323 15.862603
v  30.800451 21.467323 1.245209
v  21.432165 21.467323 1.245209
v  21.432165 21.467323 15.862604
v  23.259905 21.467323 15.862603
v  23.259905 21.467323 1.245207
v  39.510593 21.467323 15.862603
v  0.966068 21.467323 1.245209
v  0.348927 21.467323 0.472151
v  10.033549 21.467323 0.472151
v  16.206947 21.467323 0.472151
v  21.432165 21.467323 0.472151
v  23.259905 21.467323 0.472151
v  30.800451 21.467323 0.472151
v  39.510593 21.467323 0.472151
v  39.510593 21.467323 21.374733
v  39.510593 21.467323 28.766832
v  38.893452 21.467323 28.766834
v  38.893452 21.467323 21.374733
v  30.800453 21.467323 28.766834
v  30.800453 21.467323 21.374733
v  23.259905 21.467323 28.766834
v  23.259905 21.467323 21.374733
v  21.432165 21.467323 21.374733
v  21.432165 21.467323 28.766836
v  16.206947 21.467323 28.766836
v  16.206947 21.467323 21.374733
v  10.033546 21.467323 28.766834
v  10.033546 21.467323 21.374733
v  0.966066 21.467323 28.766832
v  0.348927 21.467323 28.766832
v  39.510597 21.467323 47.757740
v  38.893448 21.467323 47.235069
v  30.800102 21.467323 47.757740
v  30.800114 21.467323 47.235069
v  23.266224 21.467323 47.235069
v  22.804163 21.467323 47.757740
v  22.799788 21.467323 41.776684
v  23.261848 21.467323 41.254021
v  21.432165 21.467323 35.500992
v  16.206947 21.467323 35.500992
v  16.206947 21.467323 41.254921
v  16.206947 21.467323 41.777588
v  10.033547 21.467323 41.777588
v  10.033548 21.467323 41.254917
v  0.966066 21.467323 41.254921
v  0.348925 21.467323 41.777588
v  0.348925 21.467323 35.500992
v  0.966066 21.467323 35.500988
v  10.033546 21.467323 35.500977
v  23.259905 21.467323 35.500988
v  30.800453 21.467323 35.500984
v  38.893452 21.467323 35.500992
v  39.510597 21.467323 35.500992
v  21.433388 21.467323 41.254921
v  38.893448 21.467323 41.368034
v  39.510593 21.467323 41.368034
v  21.432165 21.467323 41.777588
v  30.814703 21.467323 41.274731
# 140 vertices

vt 0.783613 0.356209 0.000000
vt 0.786777 0.356209 0.000000
vt 0.786777 0.384472 0.000000
vt 0.783613 0.384472 0.000000
vt 0.864923 0.356209 0.000000
vt 0.833270 0.356209 0.000000
vt 0.833270 0.281260 0.000000
vt 0.864923 0.281260 0.000000
vt 0.981245 0.356209 0.000000
vt 0.939750 0.356209 0.000000
vt 0.939750 0.281260 0.000000
vt 0.981245 0.281260 0.000000
vt 0.891715 0.356209 0.000000
vt 0.891715 0.281260 0.000000
vt 0.901086 0.356209 0.000000
vt 0.901086 0.281260 0.000000
vt 0.984410 0.356209 0.000000
vt 0.984410 0.277296 0.000000
vt 0.786777 0.281260 0.000000
vt 0.783613 0.277296 0.000000
vt 0.833270 0.277296 0.000000
vt 0.864923 0.277296 0.000000
vt 0.891715 0.277296 0.000000
vt 0.901086 0.277296 0.000000
vt 0.939750 0.277296 0.000000
vt 0.984410 0.422374 0.000000
vt 0.981245 0.422374 0.000000
vt 0.981245 0.384472 0.000000
vt 0.984410 0.384472 0.000000
vt 0.939750 0.422374 0.000000
vt 0.939750 0.384472 0.000000
vt 0.901086 0.422374 0.000000
vt 0.901086 0.384472 0.000000
vt 0.891715 0.422374 0.000000
vt 0.864923 0.422374 0.000000
vt 0.864923 0.384472 0.000000
vt 0.891715 0.384472 0.000000
vt 0.833270 0.422374 0.000000
vt 0.833270 0.384472 0.000000
vt 0.786777 0.422374 0.000000
vt 0.783613 0.422374 0.000000
vt 0.984410 0.519747 0.000000
vt 0.981245 0.517067 0.000000
vt 0.981245 0.486984 0.000000
vt 0.984410 0.486984 0.000000
vt 0.901119 0.517067 0.000000
vt 0.898750 0.519747 0.000000
vt 0.898727 0.489080 0.000000
vt 0.901096 0.486400 0.000000
vt 0.891715 0.456903 0.000000
vt 0.864923 0.456903 0.000000
vt 0.864923 0.489085 0.000000
vt 0.833270 0.489085 0.000000
vt 0.833270 0.486405 0.000000
vt 0.864923 0.486405 0.000000
vt 0.783613 0.489085 0.000000
vt 0.786777 0.486405 0.000000
vt 0.783613 0.456903 0.000000
vt 0.786777 0.456903 0.000000
vt 0.833270 0.456903 0.000000
vt 0.901086 0.456903 0.000000
vt 0.981245 0.456903 0.000000
vt 0.939750 0.456903 0.000000
vt 0.984410 0.456903 0.000000
vt 0.891721 0.486405 0.000000
vt 0.891715 0.489085 0.000000
vt 0.864923 0.456903 0.000000
vt 0.891715 0.456903 0.000000
vt 0.202728 0.558167 0.000000
vt 0.232061 0.558191 0.000000
vt 0.232058 0.561209 0.000000
vt 0.202726 0.561186 0.000000
vt 0.309880 0.513904 0.000000
vt 0.232096 0.513843 0.000000
vt 0.232120 0.483650 0.000000
vt 0.309903 0.483711 0.000000
vt 0.309958 0.412337 0.000000
vt 0.232176 0.412277 0.000000
vt 0.232207 0.372697 0.000000
vt 0.309988 0.372757 0.000000
vt 0.232140 0.458094 0.000000
vt 0.309923 0.458155 0.000000
vt 0.309929 0.449216 0.000000
vt 0.232147 0.449155 0.000000
vt 0.232210 0.369678 0.000000
vt 0.314103 0.369741 0.000000
vt 0.309845 0.558252 0.000000
vt 0.313957 0.561273 0.000000
vt 0.314017 0.483713 0.000000
vt 0.313994 0.513907 0.000000
vt 0.314037 0.458158 0.000000
vt 0.314043 0.449219 0.000000
vt 0.314071 0.412340 0.000000
vt 0.202878 0.372673 0.000000
vt 0.163544 0.372640 0.000000
vt 0.163546 0.369622 0.000000
vt 0.202880 0.369655 0.000000
vt 0.202845 0.412253 0.000000
vt 0.163511 0.412220 0.000000
vt 0.202816 0.449131 0.000000
vt 0.163480 0.449099 0.000000
vt 0.202788 0.483626 0.000000
vt 0.163452 0.483594 0.000000
vt 0.163473 0.458038 0.000000
vt 0.202808 0.458070 0.000000
vt 0.202764 0.513819 0.000000
vt 0.163427 0.513787 0.000000
vt 0.163391 0.558136 0.000000
vt 0.163389 0.561154 0.000000
vt 0.096492 0.372582 0.000000
vt 0.065271 0.372553 0.000000
vt 0.062493 0.369532 0.000000
vt 0.096494 0.369563 0.000000
vt 0.094249 0.451292 0.000000
vt 0.062421 0.451244 0.000000
vt 0.065204 0.448986 0.000000
vt 0.097032 0.449034 0.000000
vt 0.127617 0.483564 0.000000
vt 0.127638 0.458009 0.000000
vt 0.096972 0.513733 0.000000
vt 0.094191 0.513731 0.000000
vt 0.094216 0.483536 0.000000
vt 0.096998 0.483539 0.000000
vt 0.096936 0.558082 0.000000
vt 0.094152 0.561098 0.000000
vt 0.127553 0.561125 0.000000
vt 0.127556 0.558107 0.000000
vt 0.127592 0.513758 0.000000
vt 0.127646 0.449069 0.000000
vt 0.127711 0.372609 0.000000
vt 0.127677 0.412190 0.000000
vt 0.127714 0.369591 0.000000
vt 0.097020 0.457977 0.000000
vt 0.094239 0.457981 0.000000
vt 0.065236 0.412138 0.000000
vt 0.096953 0.412094 0.000000
vt 0.062454 0.412135 0.000000
vt 0.232056 0.563676 0.000000
vt 0.202724 0.563653 0.000000
vt 0.232212 0.367212 0.000000
vt 0.314105 0.367275 0.000000
vt 0.313955 0.563741 0.000000
vt 0.316484 0.483716 0.000000
vt 0.316460 0.513909 0.000000
vt 0.316503 0.458160 0.000000
vt 0.316510 0.449221 0.000000
vt 0.316538 0.412342 0.000000
vt 0.163549 0.367156 0.000000
vt 0.202882 0.367188 0.000000
vt 0.163387 0.563621 0.000000
vt 0.062495 0.367065 0.000000
vt 0.096497 0.367097 0.000000
vt 0.094245 0.453759 0.000000
vt 0.062417 0.453711 0.000000
vt 0.091724 0.513729 0.000000
vt 0.091749 0.483534 0.000000
vt 0.091686 0.561096 0.000000
vt 0.127551 0.563592 0.000000
vt 0.127716 0.367125 0.000000
vt 0.091773 0.457978 0.000000
vt 0.059987 0.412133 0.000000
vt 0.939823 0.486507 0.000000
vt 0.939748 0.517067 0.000000
vt 0.939748 0.519747 0.000000
vt 0.316570 0.369743 0.000000
vt 0.316423 0.561276 0.000000
vt 0.060026 0.369530 0.000000
vt 0.091782 0.451289 0.000000
vt 0.059954 0.451242 0.000000
vt 0.094150 0.563565 0.000000
# 170 texture coords

o 2?_??
g 2?_??
f 680/1216 681/1217 682/1218 679/1219 
f 684/1220 685/1221 686/1222 683/1223 
f 688/1224 689/1225 690/1226 687/1227 
f 692/1228 684/1220 683/1223 691/1229 
f 689/1225 693/1230 694/1231 690/1226 
f 695/1232 688/1224 687/1227 703/1233 
f 685/1221 681/1217 696/1234 686/1222 
f 697/1235 696/1234 681/1217 680/1216 
f 698/1236 699/1237 683/1223 686/1222 
f 699/1237 700/1238 691/1229 683/1223 
f 700/1238 701/1239 694/1231 691/1229 
f 702/1240 703/1233 687/1227 690/1226 
f 705/1241 706/1242 707/1243 704/1244 
f 706/1242 708/1245 709/1246 707/1243 
f 708/1245 710/1247 711/1248 709/1246 
f 713/1249 714/1250 715/1251 712/1252 
f 714/1250 716/1253 717/1254 715/1251 
f 716/1253 718/1255 682/1218 717/1254 
f 718/1255 719/1256 679/1219 682/1218 
f 720/1257 721/1258 744/1259 745/1260 
f 724/1261 725/1262 726/1263 727/1264 
f 728/1265 729/1266 714/1250 713/1249 
f 731/1267 732/1268 733/1269 730/1270 
f 732/1268 735/1271 734/1272 733/1269 
f 734/1272 735/1271 736/1273 737/1274 
f 719/1256 718/1255 737/1274 736/1273 
f 718/1255 716/1253 738/1275 737/1274 
f 716/1253 714/1250 729/1266 738/1275 
f 713/1249 710/1247 739/1276 728/1265 
f 708/1245 706/1242 741/1277 740/1278 
f 706/1242 705/1241 742/1279 741/1277 
f 737/1274 738/1275 733/1269 734/1272 
f 738/1275 729/1266 730/1270 733/1269 
f 728/1265 739/1276 727/1264 743/1280 
f 731/1267 730/1270 743/1280 746/1281 
f 730/1270 747/1282 748/1283 743/1280 
f 715/1251 717/1254 685/1221 684/1220 
f 707/1243 709/1246 689/1225 688/1224 
f 712/1252 715/1251 684/1220 692/1228 
f 709/1246 711/1248 693/1230 689/1225 
f 704/1244 707/1243 688/1224 695/1232 
f 717/1254 682/1218 681/1217 685/1221 
f 746/1281 743/1280 727/1264 726/1263 
f 749/1377 723/1378 724/1261 727/1264 
f 741/1277 742/1279 745/1260 744/1259 
f 749/1377 740/1278 741/1277 744/1259 
f 722/1379 725/1262 724/1261 723/1378 
f 749/1377 744/1259 721/1258 723/1378 
f 692/1228 691/1229 694/1231 693/1230 
f 702/1240 690/1226 694/1231 701/1239 
f 713/1249 712/1252 711/1248 710/1247 
f 708/1245 740/1278 739/1276 710/1247 
f 712/1252 692/1228 693/1230 711/1248 
f 740/1278 749/1377 727/1264 739/1276 
f 722/1379 723/1378 721/1258 720/1257 
f 698/1236 686/1222 696/1234 697/1235 
f 753/1284 752/1285 751/1286 750/1287 
f 757/1288 756/1289 755/1290 754/1291 
f 761/1292 760/1293 759/1294 758/1295 
f 754/1291 755/1290 763/1296 762/1297 
f 765/1298 764/1299 760/1293 761/1292 
f 758/1295 759/1294 766/1300 774/1301 
f 767/1302 752/1285 756/1289 757/1288 
f 752/1285 767/1302 768/1303 751/1286 
f 754/1291 770/1304 769/1305 757/1288 
f 762/1297 771/1306 770/1304 754/1291 
f 765/1298 772/1307 771/1306 762/1297 
f 758/1295 774/1301 773/1308 761/1292 
f 778/1309 777/1310 776/1311 775/1312 
f 780/1313 779/1314 777/1310 778/1309 
f 782/1315 781/1316 779/1314 780/1313 
f 786/1317 785/1318 784/1319 783/1320 
f 788/1321 787/1322 785/1318 786/1317 
f 753/1284 789/1323 787/1322 788/1321 
f 750/1287 790/1324 789/1323 753/1284 
f 815/1325 792/1326 791/1327 816/1328 
f 797/1329 796/1330 795/1331 798/1332 
f 785/1318 800/1333 799/1334 784/1319 
f 804/1335 803/1336 802/1337 801/1338 
f 805/1339 806/1340 803/1336 804/1335 
f 807/1341 806/1340 805/1339 808/1342 
f 808/1342 789/1323 790/1324 807/1341 
f 809/1343 787/1322 789/1323 808/1342 
f 800/1333 785/1318 787/1322 809/1343 
f 810/1344 781/1316 784/1319 799/1334 
f 812/1345 777/1310 779/1314 811/1346 
f 813/1347 776/1311 777/1310 812/1345 
f 804/1335 809/1343 808/1342 805/1339 
f 801/1338 800/1333 809/1343 804/1335 
f 814/1348 801/1338 802/1337 817/1349 
f 756/1289 788/1321 786/1317 755/1290 
f 760/1293 780/1313 778/1309 759/1294 
f 755/1290 786/1317 783/1320 763/1296 
f 764/1299 782/1315 780/1313 760/1293 
f 759/1294 778/1309 775/1312 766/1300 
f 752/1285 753/1284 788/1321 756/1289 
f 798/1332 814/1348 817/1349 797/1329 
f 795/1331 794/1350 818/1351 798/1332 
f 816/1328 813/1347 812/1345 815/1325 
f 812/1345 811/1346 818/1351 815/1325 
f 795/1331 796/1330 793/1352 794/1350 
f 792/1326 815/1325 818/1351 794/1350 
f 765/1298 762/1297 763/1296 764/1299 
f 765/1298 761/1292 773/1308 772/1307 
f 782/1315 783/1320 784/1319 781/1316 
f 810/1344 811/1346 779/1314 781/1316 
f 764/1299 763/1296 783/1320 782/1315 
f 798/1332 818/1351 811/1346 810/1344 
f 792/1326 794/1350 793/1352 791/1327 
f 767/1302 757/1288 769/1305 768/1303 
f 680/1353 679/1354 750/1287 751/1286 
f 695/1355 703/1356 774/1301 766/1300 
f 697/1357 680/1353 751/1286 768/1303 
f 699/1358 698/1359 769/1305 770/1304 
f 700/1360 699/1358 770/1304 771/1306 
f 701/1361 700/1360 771/1306 772/1307 
f 703/1380 702/1362 773/1308 774/1301 
f 705/1363 704/1364 775/1312 776/1311 
f 679/1354 719/1365 790/1324 750/1287 
f 720/1366 745/1367 816/1328 791/1327 
f 726/1368 725/1369 796/1330 797/1329 
f 732/1370 731/1371 802/1337 803/1336 
f 735/1372 732/1370 803/1336 806/1340 
f 736/1373 735/1385 806/1340 807/1341 
f 719/1365 736/1373 807/1341 790/1324 
f 742/1374 705/1363 776/1311 813/1347 
f 731/1371 746/1375 817/1349 802/1337 
f 704/1364 695/1355 766/1300 775/1312 
f 746/1375 726/1383 797/1329 817/1349 
f 745/1367 742/1374 813/1347 816/1328 
f 725/1384 722/1376 793/1352 796/1330 
f 702/1362 701/1361 772/1307 773/1308 
f 722/1376 720/1382 791/1327 793/1352 
f 698/1359 697/1381 768/1303 769/1305 
f 801/1338 814/1348 799/1334 800/1333 
f 799/1334 814/1348 798/1332 810/1344 
# 136 polygons

