# 3ds Max Wavefront OBJ Exporter v0.97b - (c)2007 guruware
# File Created: 03.08.2021 15:34:15

#
# object ??___??
#

v  1.152210 3.706705 12.907252
v  4.339264 3.706705 12.907252
v  1.152210 3.706705 3.738123
v  4.339264 3.706705 3.738123
v  1.152210 4.017152 12.907252
v  4.339264 4.017152 12.907252
v  1.152210 4.017152 3.738123
v  4.339264 4.017152 3.738123
v  1.152210 3.706705 12.540006
v  1.152210 3.706705 4.105371
v  4.339264 3.706705 4.105371
v  4.339264 3.706705 12.540006
v  4.339264 4.017152 12.540006
v  4.339264 4.017152 4.105371
v  1.152210 4.017152 4.105371
v  1.152210 4.017152 12.540006
v  1.152210 0.482005 3.738124
v  4.339264 0.482006 3.738124
v  4.339264 0.482006 4.105371
v  1.152210 0.482005 4.105371
v  1.152210 0.482006 12.907252
v  1.152210 0.482006 12.540006
v  4.339264 0.482006 12.540006
v  4.339264 0.482006 12.907252
v  1.152210 4.120288 12.907252
v  4.339264 4.120288 12.907252
v  4.339264 4.120288 12.540006
v  4.339264 4.120288 4.105371
v  4.339264 4.120288 3.738123
v  1.152210 4.120288 3.738123
v  1.152210 4.120288 4.105371
v  1.152210 4.120288 12.540006
v  0.999458 4.017152 13.035848
v  4.492016 4.017152 13.035848
v  4.492016 4.017152 12.540006
v  4.492016 4.017152 4.105371
v  4.492016 4.017152 3.609528
v  0.999458 4.017152 3.609528
v  0.999458 4.017152 4.105371
v  0.999458 4.017152 12.540006
v  4.492016 4.120288 13.035848
v  0.999458 4.120288 13.035848
v  0.999458 4.120288 12.540006
v  0.999458 4.120288 4.105371
v  0.999458 4.120288 3.609528
v  4.492016 4.120288 3.609528
v  4.492016 4.120288 4.105371
v  4.492016 4.120288 12.540006
# 48 vertices

vt 0.459014 0.379540 0.000000
vt 0.512266 0.379540 0.000000
vt 0.615114 0.379540 0.000000
vt 0.615114 0.432792 0.000000
vt 0.927818 0.783922 0.000000
vt 0.930368 0.590206 0.000000
vt 0.978145 0.588882 0.000000
vt 0.975596 0.782597 0.000000
vt 0.481340 0.139986 0.000000
vt 0.666832 0.154265 0.000000
vt 0.661783 0.211889 0.000000
vt 0.477511 0.197704 0.000000
vt 0.478563 0.141663 0.000000
vt 0.476348 0.195499 0.000000
vt 0.467493 0.197919 0.000000
vt 0.470561 0.137999 0.000000
vt 0.664147 0.220634 0.000000
vt 0.473837 0.205984 0.000000
vt 0.663269 0.209887 0.000000
vt 0.669320 0.156347 0.000000
vt 0.677788 0.153950 0.000000
vt 0.671650 0.213634 0.000000
vt 0.478722 0.130898 0.000000
vt 0.670810 0.145684 0.000000
vt 0.512266 0.432792 0.000000
vt 0.561863 0.432792 0.000000
vt 0.561863 0.379540 0.000000
vt 0.634685 0.452362 0.000000
vt 0.542292 0.452362 0.000000
vt 0.459014 0.432792 0.000000
vt 0.542293 0.359970 0.000000
vt 0.634685 0.359970 0.000000
vt 0.934305 0.584429 0.000000
vt 0.974674 0.583158 0.000000
vt 0.531836 0.452362 0.000000
vt 0.439444 0.452362 0.000000
vt 0.971659 0.788375 0.000000
vt 0.931290 0.789645 0.000000
vt 0.439444 0.359970 0.000000
vt 0.531836 0.359970 0.000000
vt 0.974053 0.793570 0.000000
vt 0.929616 0.794533 0.000000
vt 0.930417 0.791555 0.000000
vt 0.972677 0.790700 0.000000
vt 0.919910 0.788232 0.000000
vt 0.924659 0.785014 0.000000
vt 0.922485 0.585454 0.000000
vt 0.927076 0.588931 0.000000
vt 0.931911 0.579233 0.000000
vt 0.933287 0.582103 0.000000
vt 0.976348 0.578270 0.000000
vt 0.975547 0.581249 0.000000
vt 0.986054 0.584572 0.000000
vt 0.981305 0.587789 0.000000
vt 0.983479 0.787349 0.000000
vt 0.978888 0.783872 0.000000
vt 0.974915 0.796087 0.000000
vt 0.928420 0.797787 0.000000
vt 0.916287 0.790685 0.000000
vt 0.918966 0.582935 0.000000
vt 0.931049 0.576716 0.000000
vt 0.977543 0.575017 0.000000
vt 0.989677 0.582119 0.000000
vt 0.986998 0.789868 0.000000
# 64 texture coords

o ??___??
g ??___??
f 9/9 10/10 11/11 12/12 
f 27/5 28/6 31/7 32/8 
f 1/13 2/14 6/15 5/16 
f 12/12 11/11 14/17 13/18 
f 4/19 3/20 7/21 8/22 
f 10/10 9/9 16/23 15/24 
f 20/3 17/4 18/26 19/27 
f 23/1 24/2 21/25 22/30 
f 28/6 29/33 30/34 31/7 
f 32/8 25/37 26/38 27/5 
f 11/11 4/19 8/22 14/17 
f 13/18 6/15 2/14 12/12 
f 9/9 1/13 5/16 16/23 
f 15/24 7/21 3/20 10/10 
f 3/28 4/29 18/26 17/4 
f 4/29 11/31 19/27 18/26 
f 11/31 10/32 20/3 19/27 
f 10/32 3/28 17/4 20/3 
f 1/35 9/36 22/30 21/25 
f 9/36 12/39 23/1 22/30 
f 12/39 2/40 24/2 23/1 
f 2/40 1/35 21/25 24/2 
f 33/41 34/42 41/43 42/44 
f 34/42 35/45 48/46 41/43 
f 35/45 36/47 47/48 48/46 
f 36/47 37/49 46/50 47/48 
f 37/49 38/51 45/52 46/50 
f 38/51 39/53 44/54 45/52 
f 39/53 40/55 43/56 44/54 
f 40/55 33/41 42/44 43/56 
f 5/57 6/58 34/42 33/41 
f 6/58 13/59 35/45 34/42 
f 13/59 14/60 36/47 35/45 
f 14/60 8/61 37/49 36/47 
f 8/61 7/62 38/51 37/49 
f 7/62 15/63 39/53 38/51 
f 15/63 16/64 40/55 39/53 
f 16/64 5/57 33/41 40/55 
f 26/38 25/37 42/44 41/43 
f 25/37 32/8 43/56 42/44 
f 32/8 31/7 44/54 43/56 
f 31/7 30/34 45/52 44/54 
f 30/34 29/33 46/50 45/52 
f 29/33 28/6 47/48 46/50 
f 28/6 27/5 48/46 47/48 
f 27/5 26/38 41/43 48/46 
# 46 polygons

#
# object ??___???
#

v  0.996348 0.344496 3.576037
v  16.832714 0.344496 3.576037
v  0.996348 0.344496 1.277349
v  16.832714 0.344496 1.277349
v  0.996348 8.215755 3.576037
v  16.832714 8.215755 3.576037
v  0.996348 8.215755 1.277349
v  16.832714 8.215755 1.277349
v  6.275137 0.344496 1.277349
v  11.553926 0.344496 1.277349
v  11.553926 0.344496 3.576037
v  6.275137 0.344496 3.576037
v  6.275137 8.215755 3.576037
v  11.553926 8.215755 3.576037
v  11.553926 8.215755 1.277349
v  6.275137 8.215755 1.277349
v  16.832714 2.312311 3.576037
v  16.832714 4.280126 3.576037
v  16.832714 6.247941 3.576037
v  0.996348 6.247941 3.576037
v  0.996348 4.280126 3.576037
v  0.996348 2.312311 3.576037
v  16.832714 2.312311 1.277349
v  16.832714 4.280126 1.277349
v  16.832714 6.247941 1.277349
v  0.996348 2.312311 1.277349
v  0.996348 4.280126 1.277349
v  0.996348 6.247941 1.277349
v  11.553926 2.312311 3.576037
v  11.553926 4.280126 3.576037
v  11.553926 6.247941 3.576037
v  6.275137 6.247941 3.576037
v  6.275137 4.280126 3.576037
v  6.275137 2.312311 3.576037
v  6.275137 2.312311 1.277349
v  6.275137 4.280126 1.277349
v  6.275137 6.247941 1.277349
v  11.553926 6.247941 1.277349
v  11.553926 4.280126 1.277349
v  11.553926 2.312311 1.277349
v  11.306956 2.454919 3.576037
v  11.306956 4.137517 3.576037
v  6.522106 4.137517 3.576037
v  6.522106 2.454919 3.576037
v  16.585745 2.454919 3.576037
v  16.585745 4.137517 3.576037
v  11.800895 4.137517 3.576037
v  11.800895 2.454919 3.576037
v  1.243318 6.105332 3.576037
v  1.243318 4.422734 3.576037
v  6.028168 4.422734 3.576037
v  6.028168 6.105332 3.576037
v  11.306956 6.390550 3.576037
v  11.306956 8.073147 3.576037
v  6.522106 8.073147 3.576037
v  6.522106 6.390550 3.576037
v  11.306956 4.422734 3.576037
v  11.306956 6.105332 3.576037
v  6.522106 6.105332 3.576037
v  6.522106 4.422734 3.576037
v  6.522106 2.169702 3.576037
v  6.522106 0.487105 3.576037
v  11.306956 0.487105 3.576037
v  11.306956 2.169702 3.576037
v  16.585745 6.390550 3.576037
v  16.585745 8.073147 3.576037
v  11.800895 8.073147 3.576037
v  11.800895 6.390550 3.576037
v  16.585745 4.422734 3.576037
v  16.585745 6.105332 3.576037
v  11.800895 6.105332 3.576037
v  11.800895 4.422734 3.576037
v  11.800895 2.169702 3.576037
v  11.800895 0.487105 3.576037
v  16.585745 0.487105 3.576037
v  16.585745 2.169702 3.576037
v  1.243318 2.169702 3.576037
v  1.243318 0.487105 3.576037
v  6.028168 0.487105 3.576037
v  6.028168 2.169702 3.576037
v  1.243318 4.137517 3.576037
v  1.243318 2.454919 3.576037
v  6.028168 2.454919 3.576037
v  6.028168 4.137517 3.576037
v  6.028168 6.390550 3.576037
v  6.028168 8.073147 3.576037
v  1.243318 8.073147 3.576037
v  1.243318 6.390550 3.576037
v  11.306956 2.454919 1.562355
v  11.306956 4.137517 1.562355
v  6.522106 4.137517 1.562355
v  6.522106 2.454919 1.562355
v  16.585745 2.454919 1.562355
v  16.585745 4.137517 1.562355
v  11.800895 4.137517 1.562355
v  11.800895 2.454919 1.562355
v  1.243318 6.105332 1.562355
v  1.243318 4.422734 1.562355
v  6.028168 4.422734 1.562355
v  6.028168 6.105332 1.562355
v  11.306956 6.390550 1.562355
v  11.306956 8.073147 1.562355
v  6.522106 8.073147 1.562355
v  6.522106 6.390550 1.562355
v  11.306956 4.422734 1.562355
v  11.306956 6.105332 1.562355
v  6.522106 6.105332 1.562355
v  6.522106 4.422734 1.562355
v  6.522106 2.169702 1.562355
v  6.522106 0.487105 1.562355
v  11.306956 0.487105 1.562355
v  11.306956 2.169702 1.562355
v  16.585745 6.390550 1.562355
v  16.585745 8.073147 1.562355
v  11.800895 8.073147 1.562355
v  11.800895 6.390550 1.562355
v  16.585745 4.422734 1.562355
v  16.585745 6.105332 1.562355
v  11.800895 6.105332 1.562355
v  11.800895 4.422734 1.562355
v  11.800895 2.169702 1.562355
v  11.800895 0.487105 1.562355
v  16.585745 0.487105 1.562355
v  16.585745 2.169702 1.562355
v  1.243318 2.169702 1.562355
v  1.243318 0.487105 1.562355
v  6.028168 0.487105 1.562355
v  6.028168 2.169702 1.562355
v  1.243318 4.137517 1.562355
v  1.243318 2.454919 1.562355
v  6.028168 2.454919 1.562355
v  6.028168 4.137517 1.562355
v  6.028168 6.390550 1.562355
v  6.028168 8.073147 1.562355
v  1.243318 8.073147 1.562355
v  1.243318 6.390550 1.562355
# 136 vertices

vt 0.179692 0.788432 0.000000
vt 0.183247 0.875455 0.000000
vt 0.141579 0.882999 0.000000
vt 0.140248 0.785304 0.000000
vt 0.345913 0.774294 0.000000
vt 0.347243 0.871989 0.000000
vt 0.307799 0.868861 0.000000
vt 0.304244 0.781838 0.000000
vt 0.759001 0.095411 0.000000
vt 0.792429 0.095045 0.000000
vt 0.790052 0.099265 0.000000
vt 0.761468 0.099579 0.000000
vt 0.220149 0.946293 0.000000
vt 0.248381 0.947469 0.000000
vt 0.249855 0.988777 0.000000
vt 0.211450 0.984621 0.000000
vt 0.210748 0.788398 0.000000
vt 0.241140 0.787302 0.000000
vt 0.246351 0.869991 0.000000
vt 0.216308 0.871894 0.000000
vt 0.197466 0.673517 0.000000
vt 0.237635 0.668515 0.000000
vt 0.239110 0.709824 0.000000
vt 0.210618 0.713232 0.000000
vt 0.196423 0.940065 0.000000
vt 0.175533 0.970539 0.000000
vt 0.159010 0.695292 0.000000
vt 0.187177 0.718270 0.000000
vt 0.328480 0.962002 0.000000
vt 0.300314 0.939023 0.000000
vt 0.793386 0.184685 0.000000
vt 0.790920 0.180517 0.000000
vt 0.291068 0.717228 0.000000
vt 0.311958 0.686753 0.000000
vt 0.759974 0.185040 0.000000
vt 0.762350 0.180821 0.000000
vt 0.276873 0.944061 0.000000
vt 0.276744 0.868895 0.000000
vt 0.290024 0.983776 0.000000
vt 0.271183 0.785400 0.000000
vt 0.758037 0.005756 0.000000
vt 0.791459 0.005396 0.000000
vt 0.789082 0.009616 0.000000
vt 0.276040 0.672672 0.000000
vt 0.267342 0.710999 0.000000
vt 0.760504 0.009925 0.000000
vt 0.789961 0.090876 0.000000
vt 0.761377 0.091189 0.000000
vt 0.827728 0.273961 0.000000
vt 0.794323 0.274304 0.000000
vt 0.796700 0.270086 0.000000
vt 0.825264 0.269793 0.000000
vt 0.795851 0.188853 0.000000
vt 0.826800 0.184333 0.000000
vt 0.824422 0.188552 0.000000
vt 0.825847 0.094687 0.000000
vt 0.859267 0.094329 0.000000
vt 0.856889 0.098549 0.000000
vt 0.828313 0.098855 0.000000
vt 0.860216 0.183984 0.000000
vt 0.857750 0.179815 0.000000
vt 0.829178 0.180114 0.000000
vt 0.823470 0.098907 0.000000
vt 0.794896 0.099213 0.000000
vt 0.824334 0.180165 0.000000
vt 0.795763 0.180465 0.000000
vt 0.726565 0.185398 0.000000
vt 0.728941 0.181179 0.000000
vt 0.757507 0.180873 0.000000
vt 0.725585 0.095772 0.000000
vt 0.728052 0.099939 0.000000
vt 0.756624 0.099631 0.000000
vt 0.824880 0.005035 0.000000
vt 0.858301 0.004675 0.000000
vt 0.855924 0.008896 0.000000
vt 0.827347 0.009203 0.000000
vt 0.856800 0.090161 0.000000
vt 0.828224 0.090466 0.000000
vt 0.822503 0.009256 0.000000
vt 0.793926 0.009564 0.000000
vt 0.823380 0.090518 0.000000
vt 0.794806 0.090824 0.000000
vt 0.727962 0.091552 0.000000
vt 0.756534 0.091243 0.000000
vt 0.724615 0.006117 0.000000
vt 0.727082 0.010285 0.000000
vt 0.755660 0.009977 0.000000
vt 0.760917 0.274655 0.000000
vt 0.727514 0.275005 0.000000
vt 0.729891 0.270787 0.000000
vt 0.758452 0.270488 0.000000
vt 0.729031 0.189564 0.000000
vt 0.757597 0.189258 0.000000
vt 0.763294 0.270437 0.000000
vt 0.791858 0.270137 0.000000
vt 0.762439 0.189208 0.000000
vt 0.791009 0.188904 0.000000
vt 0.857838 0.188203 0.000000
vt 0.829265 0.188502 0.000000
vt 0.861141 0.273618 0.000000
vt 0.858676 0.269449 0.000000
vt 0.830106 0.269743 0.000000
vt 0.359181 0.649027 0.000000
vt 0.415862 0.649027 0.000000
vt 0.415862 0.705708 0.000000
vt 0.359181 0.705708 0.000000
vt 0.518711 0.705708 0.000000
vt 0.462030 0.705708 0.000000
vt 0.462030 0.649027 0.000000
vt 0.518711 0.649027 0.000000
vt 0.564878 0.649027 0.000000
vt 0.621559 0.649027 0.000000
vt 0.621559 0.705708 0.000000
vt 0.564878 0.705708 0.000000
vt 0.667727 0.649027 0.000000
vt 0.724408 0.649027 0.000000
vt 0.724408 0.705708 0.000000
vt 0.667727 0.705708 0.000000
vt 0.125435 0.560204 0.000000
vt 0.182116 0.560204 0.000000
vt 0.182116 0.616885 0.000000
vt 0.125435 0.616885 0.000000
vt 0.536829 0.602860 0.000000
vt 0.536829 0.546179 0.000000
vt 0.593510 0.546179 0.000000
vt 0.593510 0.602860 0.000000
vt 0.022586 0.616885 0.000000
vt 0.022586 0.560204 0.000000
vt 0.079267 0.560204 0.000000
vt 0.079267 0.616885 0.000000
vt 0.387813 0.602860 0.000000
vt 0.331132 0.602860 0.000000
vt 0.331132 0.546179 0.000000
vt 0.387813 0.546179 0.000000
vt 0.639677 0.546179 0.000000
vt 0.696358 0.546179 0.000000
vt 0.696358 0.602859 0.000000
vt 0.639677 0.602859 0.000000
vt 0.228283 0.640259 0.000000
vt 0.228283 0.583578 0.000000
vt 0.284964 0.583578 0.000000
vt 0.284964 0.640259 0.000000
vt 0.719733 0.415862 0.000000
vt 0.663052 0.415862 0.000000
vt 0.663052 0.359181 0.000000
vt 0.719733 0.359181 0.000000
vt 0.490661 0.602860 0.000000
vt 0.433980 0.602860 0.000000
vt 0.433980 0.546179 0.000000
vt 0.490661 0.546179 0.000000
vt 0.004675 0.634796 0.000000
vt 0.004675 0.542292 0.000000
vt 0.097179 0.542292 0.000000
vt 0.097179 0.634796 0.000000
vt 0.405724 0.620771 0.000000
vt 0.313220 0.620771 0.000000
vt 0.313220 0.528267 0.000000
vt 0.405724 0.528267 0.000000
vt 0.536622 0.723620 0.000000
vt 0.444119 0.723619 0.000000
vt 0.444119 0.631116 0.000000
vt 0.536622 0.631116 0.000000
vt 0.621766 0.528267 0.000000
vt 0.714270 0.528267 0.000000
vt 0.714270 0.620771 0.000000
vt 0.621766 0.620771 0.000000
vt 0.518918 0.620771 0.000000
vt 0.518918 0.528267 0.000000
vt 0.611421 0.528268 0.000000
vt 0.611421 0.620771 0.000000
vt 0.341270 0.631116 0.000000
vt 0.433774 0.631116 0.000000
vt 0.433774 0.723620 0.000000
vt 0.341270 0.723620 0.000000
vt 0.107523 0.542292 0.000000
vt 0.200027 0.542292 0.000000
vt 0.200027 0.634796 0.000000
vt 0.107523 0.634796 0.000000
vt 0.649816 0.631116 0.000000
vt 0.742319 0.631116 0.000000
vt 0.742319 0.723619 0.000000
vt 0.649816 0.723619 0.000000
vt 0.210372 0.658171 0.000000
vt 0.210372 0.565667 0.000000
vt 0.302876 0.565667 0.000000
vt 0.302875 0.658171 0.000000
vt 0.737644 0.433774 0.000000
vt 0.645141 0.433773 0.000000
vt 0.645141 0.341270 0.000000
vt 0.737644 0.341270 0.000000
vt 0.546967 0.631116 0.000000
vt 0.639471 0.631116 0.000000
vt 0.639471 0.723620 0.000000
vt 0.546967 0.723620 0.000000
vt 0.508573 0.620771 0.000000
vt 0.416069 0.620771 0.000000
vt 0.416069 0.528267 0.000000
vt 0.508573 0.528267 0.000000
# 198 texture coords

o ??___???
g ??___???
f 57/65 58/66 59/67 60/68 
f 61/69 62/70 63/71 64/72 
f 137/167 138/168 139/169 140/170 
f 71/77 72/78 66/79 65/80 
f 83/81 84/82 87/83 88/84 
f 70/85 69/86 75/87 74/88 
f 58/66 52/89 50/90 59/67 
f 60/68 49/91 51/92 57/65 
f 62/70 54/93 56/94 63/71 
f 64/72 55/97 53/98 61/69 
f 141/171 142/172 143/173 144/174 
f 145/175 146/176 147/177 148/178 
f 74/88 75/87 84/82 83/81 
f 73/101 72/78 87/83 86/102 
f 149/179 150/180 151/181 152/182 
f 153/183 154/184 155/185 156/186 
f 157/187 158/188 159/189 160/190 
f 73/101 56/94 54/93 67/103 
f 72/78 73/101 67/103 66/79 
f 65/80 50/90 52/89 71/77 
f 85/104 64/72 63/71 86/102 
f 84/82 85/104 86/102 87/83 
f 88/84 58/66 57/65 83/81 
f 68/108 53/98 55/97 76/109 
f 69/86 68/108 76/109 75/87 
f 74/88 51/92 49/91 70/85 
f 161/191 162/192 163/193 164/194 
f 165/195 166/196 167/197 168/198 
f 169/199 170/200 171/201 172/202 
f 173/203 174/204 175/205 176/206 
f 177/207 178/208 179/209 180/210 
f 181/211 182/212 183/213 184/214 
f 76/109 55/97 64/72 85/104 
f 75/87 76/109 85/104 84/82 
f 83/81 57/65 51/92 74/88 
f 71/77 52/89 58/66 88/84 
f 72/78 71/77 88/84 87/83 
f 86/102 63/71 56/94 73/101 
f 77/73 78/74 90/75 89/76 
f 78/74 81/95 91/96 90/75 
f 81/95 82/99 92/100 91/96 
f 82/99 77/73 89/76 92/100 
f 65/105 66/106 94/107 93/110 
f 66/106 78/74 95/111 94/107 
f 78/74 77/73 96/112 95/111 
f 77/73 65/105 93/110 96/112 
f 68/113 69/114 98/115 97/116 
f 69/114 81/95 99/117 98/115 
f 81/95 80/118 100/119 99/117 
f 80/118 68/113 97/116 100/119 
f 79/120 62/121 102/122 101/123 
f 62/121 61/124 103/125 102/122 
f 61/124 80/118 104/126 103/125 
f 80/118 79/120 101/123 104/126 
f 78/74 79/120 106/127 105/128 
f 79/120 80/118 107/129 106/127 
f 80/118 81/95 108/130 107/129 
f 81/95 78/74 105/128 108/130 
f 82/99 60/131 110/132 109/133 
f 60/131 59/134 111/135 110/132 
f 59/134 77/73 112/136 111/135 
f 77/73 82/99 109/133 112/136 
f 67/137 54/138 114/139 113/140 
f 54/138 62/121 115/141 114/139 
f 62/121 79/120 116/142 115/141 
f 79/120 67/137 113/140 116/142 
f 66/106 67/137 118/143 117/144 
f 67/137 79/120 119/145 118/143 
f 79/120 78/74 120/146 119/145 
f 78/74 66/106 117/144 120/146 
f 77/73 59/134 122/147 121/148 
f 59/134 50/149 123/150 122/147 
f 50/149 65/105 124/151 123/150 
f 65/105 77/73 121/148 124/151 
f 70/152 49/153 126/154 125/155 
f 49/153 60/131 127/156 126/154 
f 60/131 82/99 128/157 127/156 
f 82/99 70/152 125/155 128/157 
f 69/114 70/152 130/158 129/159 
f 70/152 82/99 131/160 130/158 
f 82/99 81/95 132/161 131/160 
f 81/95 69/114 129/159 132/161 
f 80/118 61/124 134/162 133/163 
f 61/124 53/164 135/165 134/162 
f 53/164 68/113 136/166 135/165 
f 68/113 80/118 133/163 136/166 
f 89/235 90/236 138/168 137/167 
f 90/236 91/237 139/169 138/168 
f 91/237 92/238 140/170 139/169 
f 92/238 89/235 137/167 140/170 
f 93/223 94/224 142/172 141/171 
f 94/224 95/225 143/173 142/172 
f 95/225 96/226 144/174 143/173 
f 96/226 93/223 141/171 144/174 
f 97/255 98/256 146/176 145/175 
f 98/256 99/257 147/177 146/176 
f 99/257 100/258 148/178 147/177 
f 100/258 97/255 145/175 148/178 
f 101/243 102/244 150/180 149/179 
f 102/244 103/245 151/181 150/180 
f 103/245 104/246 152/182 151/181 
f 104/246 101/243 149/179 152/182 
f 105/239 106/240 154/184 153/183 
f 106/240 107/241 155/185 154/184 
f 107/241 108/242 156/186 155/185 
f 108/242 105/239 153/183 156/186 
f 109/231 110/232 158/188 157/187 
f 110/232 111/233 159/189 158/188 
f 111/233 112/234 160/190 159/189 
f 112/234 109/231 157/187 160/190 
f 113/215 114/216 162/192 161/191 
f 114/216 115/217 163/193 162/192 
f 115/217 116/218 164/194 163/193 
f 116/218 113/215 161/191 164/194 
f 117/219 118/220 166/196 165/195 
f 118/220 119/221 167/197 166/196 
f 119/221 120/222 168/198 167/197 
f 120/222 117/219 165/195 168/198 
f 121/227 122/228 170/200 169/199 
f 122/228 123/229 171/201 170/200 
f 123/229 124/230 172/202 171/201 
f 124/230 121/227 169/199 172/202 
f 125/247 126/248 174/204 173/203 
f 126/248 127/249 175/205 174/204 
f 127/249 128/250 176/206 175/205 
f 128/250 125/247 173/203 176/206 
f 129/251 130/252 178/208 177/207 
f 130/252 131/253 179/209 178/208 
f 131/253 132/254 180/210 179/209 
f 132/254 129/251 177/207 180/210 
f 133/259 134/260 182/212 181/211 
f 134/260 135/261 183/213 182/212 
f 135/261 136/262 184/214 183/213 
f 136/262 133/259 181/211 184/214 
# 134 polygons

#
# object 1?_??___?????3
#

v  6.819386 1.769036 28.920053
v  3.943653 1.769022 26.906439
v  6.793490 1.919048 28.936453
v  3.937103 1.919033 26.936384
v  7.040109 1.841597 28.604828
v  4.164375 1.841582 26.591215
v  7.014213 1.991608 28.621227
v  4.157825 1.991594 26.621161
v  4.097055 1.819451 26.687359
v  6.972789 1.819466 28.700972
v  4.090505 1.969463 26.717304
v  6.946893 1.969477 28.717371
v  6.998854 2.133611 28.643160
v  4.142467 2.133596 26.643093
v  4.075146 2.111466 26.739237
v  6.931534 2.111480 28.739304
v  4.364784 0.344815 27.187937
v  3.898254 0.427653 26.886860
v  4.458311 4.777618 28.262659
v  3.991781 4.860457 27.961582
v  4.506102 0.391789 26.981886
v  4.039572 0.474628 26.680807
v  4.599628 4.824593 28.056606
v  4.133099 4.907432 27.755529
v  6.410833 0.344815 28.620596
v  6.853316 0.427653 28.956017
v  5.368937 4.777618 28.900286
v  5.811419 4.860457 29.235706
v  6.556126 0.391790 28.417326
v  6.998608 0.474629 28.752747
v  5.514229 4.824594 28.697018
v  5.956711 4.907433 29.032436
v  5.574419 3.893775 28.840984
v  4.443757 3.893775 28.049286
v  5.449542 4.445987 28.880655
v  4.449189 4.445987 28.180201
v  5.720605 3.941833 28.632210
v  4.589942 3.941832 27.840511
v  5.595727 4.494044 28.671881
v  4.595374 4.494044 27.971426
v  4.156790 0.322421 30.290071
v  4.366731 0.322480 29.990244
v  3.567417 0.322421 29.877388
v  3.777358 0.322480 29.577560
v  5.137387 4.965631 28.889633
v  5.347328 4.901092 28.589808
v  4.548014 4.965631 28.476950
v  4.757955 4.901092 28.177124
# 48 vertices

vt 0.757878 0.293624 0.000000
vt 0.758056 0.289764 0.000000
vt 0.817746 0.289396 0.000000
vt 0.817972 0.293254 0.000000
vt 0.757939 0.303524 0.000000
vt 0.818033 0.303154 0.000000
vt 0.817854 0.307014 0.000000
vt 0.758165 0.307382 0.000000
vt 0.818014 0.300134 0.000000
vt 0.757921 0.300504 0.000000
vt 0.824614 0.288994 0.000000
vt 0.758229 0.317707 0.000000
vt 0.758188 0.311035 0.000000
vt 0.817877 0.310667 0.000000
vt 0.824401 0.285347 0.000000
vt 0.758207 0.314054 0.000000
vt 0.968317 0.932367 0.000000
vt 0.958959 0.931042 0.000000
vt 0.961313 0.819854 0.000000
vt 0.970672 0.821179 0.000000
vt 0.944033 0.933381 0.000000
vt 0.941398 0.819034 0.000000
vt 0.953455 0.824102 0.000000
vt 0.952829 0.928004 0.000000
vt 0.873311 0.717567 0.000000
vt 0.869537 0.606418 0.000000
vt 0.878878 0.604973 0.000000
vt 0.882652 0.716123 0.000000
vt 0.897606 0.718271 0.000000
vt 0.888594 0.713008 0.000000
vt 0.886790 0.609121 0.000000
vt 0.898781 0.603900 0.000000
vt 0.670352 0.299160 0.000000
vt 0.667722 0.330802 0.000000
vt 0.621215 0.331389 0.000000
vt 0.617788 0.299823 0.000000
vt 0.670168 0.284573 0.000000
vt 0.617604 0.285237 0.000000
vt 0.620234 0.253594 0.000000
vt 0.666740 0.253007 0.000000
vt 0.692070 0.004675 0.000000
vt 0.704386 0.004702 0.000000
vt 0.704366 0.013956 0.000000
vt 0.692050 0.013928 0.000000
vt 0.682540 0.135753 0.000000
vt 0.691775 0.137482 0.000000
vt 0.704092 0.137509 0.000000
vt 0.713335 0.135822 0.000000
vt 0.758272 0.324587 0.000000
vt 0.817960 0.324219 0.000000
vt 0.747989 0.293168 0.000000
vt 0.827854 0.292675 0.000000
vt 0.827629 0.288818 0.000000
vt 0.748168 0.289307 0.000000
vt 0.824840 0.292852 0.000000
vt 0.751006 0.293307 0.000000
vt 0.817918 0.317339 0.000000
vt 0.751184 0.289447 0.000000
vt 0.748336 0.285658 0.000000
vt 0.827415 0.285171 0.000000
vt 0.817896 0.313686 0.000000
vt 0.751352 0.285797 0.000000
vt 0.950032 0.940346 0.000000
vt 0.937621 0.933534 0.000000
vt 0.934986 0.819187 0.000000
vt 0.948189 0.808763 0.000000
vt 0.904020 0.718342 0.000000
vt 0.891697 0.725312 0.000000
vt 0.905195 0.603970 0.000000
vt 0.891860 0.593716 0.000000
vt 0.684670 0.282998 0.000000
vt 0.681242 0.251433 0.000000
vt 0.666556 0.238422 0.000000
vt 0.620050 0.239008 0.000000
vt 0.605697 0.252385 0.000000
vt 0.603066 0.284028 0.000000
vt 0.691478 0.271956 0.000000
vt 0.683389 0.010671 0.000000
vt 0.703794 0.271983 0.000000
vt 0.713041 0.010736 0.000000
vt 0.691755 0.146878 0.000000
vt 0.704071 0.146905 0.000000
# 82 texture coords

o 1?_??___?????3
g 1?_??___?????3
f 185/263 187/264 188/265 186/266 
f 189/267 190/268 192/269 191/270 
f 186/266 193/271 194/272 185/263 
f 188/265 195/273 193/317 186/266 
f 187/311 196/274 195/319 188/312 
f 185/263 194/318 196/320 187/264 
f 190/268 189/267 194/272 193/271 
f 192/315 190/314 193/317 195/273 
f 197/275 198/276 199/323 200/278 
f 189/313 191/316 196/320 194/318 
f 191/270 192/269 198/276 197/275 
f 192/315 195/273 199/277 198/322 
f 195/319 196/274 200/278 199/323 
f 196/320 191/316 197/321 200/324 
f 201/287 203/288 204/289 202/290 
f 205/291 206/292 208/293 207/294 
f 201/330 202/290 206/292 205/291 
f 202/290 204/289 208/293 206/292 
f 204/289 203/332 207/294 208/293 
f 203/331 201/329 205/291 207/294 
f 209/279 210/280 212/281 211/282 
f 213/283 215/284 216/285 214/286 
f 209/325 213/283 214/286 210/280 
f 210/280 214/286 216/285 212/281 
f 212/281 216/285 215/284 211/328 
f 211/327 215/284 213/283 209/326 
f 217/295 219/296 220/297 218/298 
f 221/299 222/300 224/301 223/302 
f 217/295 218/298 222/300 221/299 
f 218/338 220/337 224/301 222/300 
f 220/336 219/335 223/302 224/301 
f 219/334 217/333 221/299 223/302 
f 225/303 227/304 228/305 226/306 
f 229/343 230/308 232/309 231/344 
f 225/340 226/306 230/308 229/307 
f 226/306 228/305 232/309 230/308 
f 228/305 227/342 231/310 232/309 
f 227/341 225/339 229/343 231/344 
# 38 polygons

#
# object 1?_??___??
#

v  6.367042 1.914825 28.625021
v  6.474659 1.947908 28.471327
v  4.316470 1.914825 27.189196
v  4.424088 1.947908 27.035501
v  5.904547 6.487777 29.285532
v  6.012165 6.520860 29.131838
v  3.853975 6.487777 27.849707
v  3.961593 6.520860 27.696012
# 8 vertices

vt 0.252446 0.496634 0.000000
vt 0.252446 0.420744 0.000000
vt 0.264876 0.433173 0.000000
vt 0.264876 0.484204 0.000000
vt 0.315907 0.484204 0.000000
vt 0.315907 0.433173 0.000000
vt 0.328337 0.420744 0.000000
vt 0.328337 0.496634 0.000000
vt 0.359970 0.733964 0.000000
vt 0.359970 0.990776 0.000000
vt 0.663151 0.990777 0.000000
vt 0.663151 0.733965 0.000000
# 12 texture coords

o 1?_??___??
g 1?_??___??
f 236/345 234/346 233/347 235/348 
f 239/349 237/350 238/351 240/352 
f 238/351 237/350 233/347 234/346 
f 238/355 234/354 236/353 240/356 
f 239/349 240/352 236/345 235/348 
f 239/349 235/348 233/347 237/350 
# 6 polygons

#
# object 1?_??___???_??
#

v  2.774513 4.103407 11.406183
v  2.578315 4.103407 10.932519
v  2.104651 4.103407 10.736321
v  1.630987 4.103407 10.932519
v  1.434789 4.103407 11.406183
v  1.630987 4.103407 11.879848
v  2.104651 4.103407 12.076045
v  2.578315 4.103407 11.879848
v  2.774513 4.194103 11.406183
v  2.578315 4.194103 10.932519
v  2.104651 4.194103 10.736321
v  1.630987 4.194103 10.932519
v  1.434789 4.194103 11.406183
v  1.630987 4.194103 11.879848
v  2.104651 4.194103 12.076045
v  2.578315 4.194103 11.879848
v  2.439582 4.216272 11.406183
v  2.341483 4.216272 11.169352
v  2.104651 4.216272 11.071252
v  1.867819 4.216272 11.169352
v  1.769720 4.216272 11.406183
v  1.867819 4.216272 11.643015
v  2.104651 4.216272 11.741115
v  2.341483 4.216272 11.643015
v  2.104651 4.216272 11.406183
v  2.752344 4.216272 11.406183
v  2.562639 4.216272 10.948195
v  2.104651 4.216272 10.758490
v  1.646662 4.216272 10.948195
v  1.456958 4.216272 11.406183
v  1.646663 4.216272 11.864172
v  2.104651 4.216272 12.053877
v  2.562639 4.216272 11.864172
v  1.973949 4.183363 11.643261
v  1.944631 4.183363 11.572480
v  1.873850 4.183363 11.543161
v  1.803069 4.183363 11.572480
v  1.773750 4.183363 11.643261
v  1.803069 4.183363 11.714042
v  1.873850 4.183363 11.743361
v  1.944631 4.183363 11.714042
v  1.973949 4.457316 11.643261
v  1.944631 4.457316 11.572480
v  1.873850 4.457316 11.543161
v  1.803069 4.457316 11.572480
v  1.773750 4.457316 11.643261
v  1.803069 4.457316 11.714042
v  1.873850 4.457316 11.743361
v  1.944631 4.457316 11.714042
v  1.923900 4.457316 11.643261
v  1.909240 4.457316 11.607870
v  1.873850 4.457316 11.593211
v  1.838459 4.457316 11.607870
v  1.823800 4.457316 11.643261
v  1.838459 4.457316 11.678652
v  1.873850 4.457316 11.693311
v  1.909240 4.457316 11.678652
v  1.873850 4.457316 11.643261
v  1.883286 4.379663 11.803041
v  2.030650 4.455515 11.655677
v  1.824605 4.379663 11.744359
v  1.971969 4.455515 11.596995
v  1.472626 5.975292 12.213700
v  1.619990 6.051145 12.066338
v  1.413945 5.975292 12.155020
v  1.561308 6.051145 12.007656
v  1.917729 4.342046 11.651235
v  1.976410 4.342046 11.709916
v  1.526865 6.088761 12.159461
v  1.468184 6.088761 12.100780
v  1.775121 4.379663 11.694875
v  1.922484 4.455515 11.547511
v  1.716439 4.379663 11.636193
v  1.863803 4.455515 11.488830
v  1.364460 5.975292 12.105535
v  1.511824 6.051145 11.958172
v  1.305779 5.975292 12.046854
v  1.453143 6.051145 11.899490
v  1.809563 4.342046 11.543069
v  1.868245 4.342046 11.601750
v  1.418700 6.088761 12.051295
v  1.360018 6.088761 11.992615
v  1.422115 6.004151 12.155344
v  1.550575 5.876944 12.026884
v  1.363434 6.004151 12.096663
v  1.491894 5.876944 11.968203
v  2.110803 7.395098 11.466656
v  2.239263 7.267891 11.338196
v  2.052121 7.395098 11.407975
v  2.180582 7.267891 11.279514
v  1.395059 5.874695 12.065038
v  1.453740 5.874695 12.123719
v  2.207638 7.397347 11.369821
v  2.148957 7.397347 11.311139
v  2.454033 7.345959 11.123425
v  2.395352 7.345959 11.064744
v  2.394087 7.506290 11.066010
v  2.452768 7.506290 11.124690
v  2.571358 7.133899 11.160059
v  2.533969 6.764391 11.215906
v  2.835705 6.898876 11.245868
v  3.036717 7.098032 11.044797
v  2.736347 7.296598 10.995776
v  2.532722 7.307243 10.770070
v  2.343452 7.146447 10.953155
v  2.288513 6.764316 10.970448
v  3.006741 7.232511 10.743059
v  2.761235 7.232539 10.497652
v  2.459549 7.097951 10.467640
v  2.258487 6.898898 10.668761
v  2.707338 7.049223 11.246511
v  2.507060 6.959743 11.226656
v  2.678374 7.241178 11.126861
v  2.401773 7.138324 11.102461
v  2.894765 7.234648 11.059690
v  2.874473 7.324856 10.857633
v  2.651391 7.362849 10.854128
v  2.376826 7.240490 10.826701
v  2.645950 7.324375 10.629095
v  2.445573 7.235096 10.609339
v  2.278213 6.959917 10.998443
v  2.258062 7.049840 10.796244
v  2.930741 6.727420 11.192154
v  3.145748 6.940694 10.977082
v  2.951282 7.010566 11.172249
v  3.064353 7.169666 10.891899
v  2.694167 6.803283 11.261700
v  3.113712 7.084802 10.653318
v  2.850926 7.085000 10.390805
v  2.895152 7.261617 10.609070
v  2.612833 7.169823 10.440063
v  2.527377 6.940471 10.358490
v  2.312149 6.727643 10.573782
v  2.332002 7.010437 10.553228
v  2.242646 6.803439 10.809863
v  2.344406 6.583088 10.897326
v  2.606971 6.583338 11.160059
v  2.388132 6.759387 11.116407
v  2.633566 6.940349 11.253894
v  2.807909 7.164656 11.180738
v  2.387540 7.523712 11.116840
v  2.366835 6.967944 11.136971
v  2.950040 7.250347 10.939466
v  2.764099 7.360763 10.740857
v  2.564989 7.251782 10.556313
v  2.323027 7.164047 10.697087
v  2.250093 6.938597 10.869163
v  3.060747 6.833727 11.106620
v  2.772449 6.638085 11.216047
v  3.169228 7.030876 10.819505
v  3.000668 7.102564 10.503571
v  2.685091 7.030972 10.335175
v  2.397644 6.833611 10.443750
v  2.288312 6.638182 10.731717
v  2.457723 6.564775 11.046800
v  2.433604 7.389180 11.257264
v  2.530538 7.491824 11.228897
v  2.620943 7.519651 11.091814
v  2.507461 7.595481 10.996464
v  2.412546 7.519642 10.883436
v  2.275910 7.492247 10.973415
v  2.241857 7.350607 11.054148
v  2.298870 7.348200 11.205483
v  2.551481 7.146561 11.160954
v  2.548042 7.122792 11.157928
v  2.733778 7.307643 10.971117
v  2.721653 7.315212 10.990500
v  2.508995 7.296966 10.768349
v  2.513625 7.315099 10.782701
v  2.344225 7.133823 10.932413
v  2.346723 7.122923 10.957144
v  2.664812 7.255548 11.128742
v  2.403812 7.118812 11.099431
v  2.638797 7.372890 10.865730
v  2.375758 7.255667 10.839449
v  2.450253 7.350616 11.262526
v  2.560480 7.464840 11.231516
v  2.587993 7.539862 11.104078
v  2.534498 7.581502 10.969911
v  2.399825 7.540399 10.918069
v  2.272887 7.464862 10.943878
v  2.246502 7.387563 11.070188
v  2.298987 7.388590 11.205849
v  2.546798 6.769224 11.188374
v  2.828184 6.894693 11.216348
v  3.017238 7.081903 11.027294
v  2.316007 6.769224 10.957582
v  2.989264 7.207373 10.745908
v  2.758472 7.207373 10.515117
v  2.477087 7.081903 10.487143
v  2.288033 6.894693 10.676196
v  2.710921 7.034946 11.216988
v  2.519980 6.949806 11.198006
v  2.885896 7.208215 11.042012
v  2.866914 7.293355 10.851072
v  2.649472 7.329709 10.854908
v  2.653309 7.293355 10.637466
v  2.462368 7.208215 10.618484
v  2.306375 6.949806 10.984401
v  2.287393 7.034946 10.793460
v  2.919808 6.728124 11.164007
v  3.122940 6.929274 10.960876
v  2.936468 7.000183 11.147347
v  3.043751 7.148187 10.884157
v  2.696817 6.804639 11.231091
v  3.092968 7.063705 10.659390
v  2.844990 7.063705 10.411412
v  2.884073 7.235190 10.620307
v  2.620223 7.148187 10.460630
v  2.543505 6.929274 10.381441
v  2.340373 6.728124 10.584573
v  2.357034 7.000183 10.567912
v  2.273290 6.804639 10.807564
v  2.370345 6.593692 10.886057
v  2.618323 6.593692 11.134036
v  2.409429 6.765176 11.094953
v  2.640923 6.931669 11.223558
v  2.803342 7.143229 11.155870
v  2.389638 6.958758 11.114742
v  2.935900 7.223768 10.928581
v  2.762214 7.327699 10.742167
v  2.575799 7.223768 10.568480
v  2.348510 7.143229 10.701038
v  2.280822 6.931669 10.863458
v  3.042243 6.828699 11.083311
v  2.772784 6.644228 11.186428
v  3.145361 7.013169 10.813851
v  2.986074 7.080634 10.518306
v  2.690529 7.013169 10.359020
v  2.421070 6.828699 10.462137
v  2.317953 6.644228 10.731596
v  2.477239 6.576763 11.027142
v  2.568291 7.115473 11.129748
v  2.374633 7.115473 10.936090
v  2.426862 7.109271 11.077518
v  2.726927 7.272561 10.971112
v  2.533268 7.272561 10.777454
v  2.674046 7.219490 11.102092
v  2.402289 7.219490 10.830335
v  2.510704 7.275378 10.991791
# 240 vertices

vt 0.852077 0.990485 0.000000
vt 0.747758 0.990955 0.000000
vt 0.754485 0.972883 0.000000
vt 0.844053 0.972947 0.000000
vt 0.673660 0.917526 0.000000
vt 0.691197 0.909503 0.000000
vt 0.673190 0.813210 0.000000
vt 0.691260 0.819937 0.000000
vt 0.746615 0.739111 0.000000
vt 0.754639 0.756648 0.000000
vt 0.850935 0.738639 0.000000
vt 0.844209 0.756710 0.000000
vt 0.925035 0.812070 0.000000
vt 0.907498 0.820092 0.000000
vt 0.925506 0.916387 0.000000
vt 0.907434 0.909658 0.000000
vt 0.841738 0.967398 0.000000
vt 0.756772 0.967322 0.000000
vt 0.777031 0.917817 0.000000
vt 0.821061 0.918067 0.000000
vt 0.696746 0.907187 0.000000
vt 0.746077 0.886511 0.000000
vt 0.696824 0.822222 0.000000
vt 0.746325 0.842482 0.000000
vt 0.756954 0.762196 0.000000
vt 0.777633 0.811527 0.000000
vt 0.841924 0.762273 0.000000
vt 0.821662 0.811777 0.000000
vt 0.901950 0.822409 0.000000
vt 0.852619 0.843086 0.000000
vt 0.901872 0.907374 0.000000
vt 0.852369 0.887112 0.000000
vt 0.799348 0.864797 0.000000
vt 0.890661 0.035146 0.000000
vt 0.875221 0.020215 0.000000
vt 0.910751 0.004675 0.000000
vt 0.910568 0.023836 0.000000
vt 0.892060 0.311805 0.000000
vt 0.913699 0.323347 0.000000
vt 0.916325 0.344980 0.000000
vt 0.841906 0.664689 0.000000
vt 0.826118 0.663654 0.000000
vt 0.831365 0.622410 0.000000
vt 0.842219 0.620339 0.000000
vt 0.810820 0.660442 0.000000
vt 0.822706 0.621711 0.000000
vt 0.796174 0.654533 0.000000
vt 0.815575 0.618727 0.000000
vt 0.782668 0.645750 0.000000
vt 0.809703 0.613742 0.000000
vt 0.770808 0.634247 0.000000
vt 0.805498 0.606561 0.000000
vt 0.760876 0.620339 0.000000
vt 0.803510 0.596344 0.000000
vt 0.752664 0.604921 0.000000
vt 0.806907 0.579692 0.000000
vt 0.830233 0.614886 0.000000
vt 0.836813 0.611175 0.000000
vt 0.824168 0.615354 0.000000
vt 0.818958 0.613599 0.000000
vt 0.814842 0.610026 0.000000
vt 0.812230 0.604730 0.000000
vt 0.812038 0.597646 0.000000
vt 0.816760 0.589293 0.000000
vt 0.825004 0.602744 0.000000
vt 0.874212 0.329589 0.000000
vt 0.931511 0.036357 0.000000
vt 0.949131 0.020305 0.000000
vt 0.948268 0.324095 0.000000
vt 0.933781 0.313591 0.000000
vt 0.004675 0.964555 0.000000
vt 0.022023 0.952691 0.000000
vt 0.043357 0.963284 0.000000
vt 0.041861 0.988564 0.000000
vt 0.133204 0.664337 0.000000
vt 0.052136 0.645141 0.000000
vt 0.053750 0.666772 0.000000
vt 0.033272 0.675557 0.000000
vt 0.078498 0.967831 0.000000
vt 0.064100 0.955462 0.000000
vt 0.074775 0.679246 0.000000
vt 0.093312 0.662404 0.000000
vt 0.638712 0.117381 0.000000
vt 0.627548 0.100964 0.000000
vt 0.636287 0.082765 0.000000
vt 0.658594 0.083511 0.000000
vt 0.334919 0.000000 0.000000
vt 0.305585 0.101901 0.000000
vt 0.315584 0.086436 0.000000
vt 0.335899 0.106002 0.000000
vt 0.639388 0.052959 0.000000
vt 0.629114 0.066125 0.000000
vt 0.326919 0.060294 0.000000
vt 0.326904 0.041863 0.000000
vt 0.257121 0.069466 0.000000
vt 0.268321 0.041520 0.000000
vt 0.277498 0.054517 0.000000
vt 0.269848 0.065975 0.000000
vt 0.535849 0.275043 0.000000
vt 0.535446 0.284437 0.000000
vt 0.525090 0.282071 0.000000
vt 0.527201 0.271365 0.000000
vt 0.531824 0.293173 0.000000
vt 0.522394 0.292537 0.000000
vt 0.513793 0.288720 0.000000
vt 0.514341 0.279346 0.000000
vt 0.518108 0.271057 0.000000
vt 0.583411 0.245361 0.000000
vt 0.585732 0.295963 0.000000
vt 0.538156 0.285067 0.000000
vt 0.538823 0.273162 0.000000
vt 0.561464 0.341076 0.000000
vt 0.533604 0.296041 0.000000
vt 0.510422 0.342709 0.000000
vt 0.521754 0.295245 0.000000
vt 0.466018 0.318060 0.000000
vt 0.510788 0.290553 0.000000
vt 0.464368 0.267604 0.000000
vt 0.511697 0.278692 0.000000
vt 0.488543 0.223280 0.000000
vt 0.516396 0.268299 0.000000
vt 0.538841 0.221379 0.000000
vt 0.527790 0.268706 0.000000
vt 0.590710 0.245820 0.000000
vt 0.586302 0.238436 0.000000
vt 0.568546 0.343814 0.000000
vt 0.560802 0.348574 0.000000
vt 0.463028 0.324952 0.000000
vt 0.458736 0.317499 0.000000
vt 0.481570 0.220569 0.000000
vt 0.489182 0.215891 0.000000
vt 0.592037 0.297632 0.000000
vt 0.540081 0.215047 0.000000
vt 0.509113 0.349095 0.000000
vt 0.458143 0.265899 0.000000
vt 0.339366 0.333628 0.000000
vt 0.340300 0.310115 0.000000
vt 0.341427 0.307947 0.000000
vt 0.364320 0.315089 0.000000
vt 0.358407 0.333377 0.000000
vt 0.316725 0.331590 0.000000
vt 0.320002 0.311154 0.000000
vt 0.349350 0.288821 0.000000
vt 0.369808 0.292800 0.000000
vt 0.294309 0.327130 0.000000
vt 0.301965 0.304840 0.000000
vt 0.276859 0.304202 0.000000
vt 0.300049 0.304999 0.000000
vt 0.275525 0.323070 0.000000
vt 0.280014 0.281871 0.000000
vt 0.300470 0.285851 0.000000
vt 0.285501 0.259581 0.000000
vt 0.308395 0.266724 0.000000
vt 0.291416 0.241294 0.000000
vt 0.310455 0.241042 0.000000
vt 0.309520 0.264553 0.000000
vt 0.329821 0.263516 0.000000
vt 0.333096 0.243077 0.000000
vt 0.349772 0.269671 0.000000
vt 0.372963 0.270468 0.000000
vt 0.347858 0.269828 0.000000
vt 0.355513 0.247540 0.000000
vt 0.374297 0.251597 0.000000
vt 0.306242 0.411050 0.000000
vt 0.258728 0.395917 0.000000
vt 0.281246 0.356258 0.000000
vt 0.312283 0.363337 0.000000
vt 0.219707 0.363819 0.000000
vt 0.255122 0.338010 0.000000
vt 0.397027 0.386464 0.000000
vt 0.846576 0.476569 0.000000
vt 0.838955 0.498194 0.000000
vt 0.354845 0.406854 0.000000
vt 0.823063 0.492155 0.000000
vt 0.823691 0.475161 0.000000
vt 0.343803 0.364292 0.000000
vt 0.373298 0.353805 0.000000
vt 0.201324 0.266986 0.000000
vt 0.861637 0.484560 0.000000
vt 0.857987 0.502563 0.000000
vt 0.220414 0.222063 0.000000
vt 0.845086 0.459586 0.000000
vt 0.827084 0.455933 0.000000
vt 0.878622 0.483074 0.000000
vt 0.257500 0.245723 0.000000
vt 0.248546 0.276010 0.000000
vt 0.252796 0.188204 0.000000
vt 0.877215 0.505955 0.000000
vt 0.900245 0.490691 0.000000
vt 0.894203 0.506582 0.000000
vt 0.904612 0.471661 0.000000
vt 0.276526 0.220866 0.000000
vt 0.886606 0.468005 0.000000
vt 0.908006 0.452432 0.000000
vt 0.885126 0.451026 0.000000
vt 0.201022 0.316860 0.000000
vt 0.245624 0.307617 0.000000
vt 0.908635 0.435441 0.000000
vt 0.892744 0.429404 0.000000
vt 0.343578 0.163623 0.000000
vt 0.870062 0.443039 0.000000
vt 0.873713 0.425035 0.000000
vt 0.853075 0.444523 0.000000
vt 0.831454 0.436902 0.000000
vt 0.854486 0.421642 0.000000
vt 0.837495 0.421012 0.000000
vt 0.879994 0.532828 0.000000
vt 0.887808 0.574176 0.000000
vt 0.843394 0.574510 0.000000
vt 0.852428 0.529956 0.000000
vt 0.391093 0.178755 0.000000
vt 0.368577 0.218414 0.000000
vt 0.906604 0.525289 0.000000
vt 0.927973 0.557537 0.000000
vt 0.337539 0.211335 0.000000
vt 0.825924 0.521860 0.000000
vt 0.802615 0.556905 0.000000
vt 0.772110 0.525919 0.000000
vt 0.804353 0.504553 0.000000
vt 0.934876 0.449652 0.000000
vt 0.976222 0.441842 0.000000
vt 0.976555 0.486250 0.000000
vt 0.932008 0.477216 0.000000
vt 0.927340 0.423046 0.000000
vt 0.430112 0.210850 0.000000
vt 0.394698 0.236661 0.000000
vt 0.959584 0.401679 0.000000
vt 0.923911 0.503722 0.000000
vt 0.294976 0.167817 0.000000
vt 0.958955 0.527027 0.000000
vt 0.851707 0.394769 0.000000
vt 0.843898 0.353423 0.000000
vt 0.888307 0.353095 0.000000
vt 0.879272 0.397640 0.000000
vt 0.825098 0.402305 0.000000
vt 0.803732 0.370055 0.000000
vt 0.905774 0.405739 0.000000
vt 0.929080 0.370698 0.000000
vt 0.306019 0.210382 0.000000
vt 0.448498 0.307683 0.000000
vt 0.796818 0.477941 0.000000
vt 0.755471 0.485753 0.000000
vt 0.429407 0.352603 0.000000
vt 0.755139 0.441339 0.000000
vt 0.799688 0.450377 0.000000
vt 0.807785 0.423871 0.000000
vt 0.772745 0.400563 0.000000
vt 0.889233 0.581470 0.000000
vt 0.841969 0.581658 0.000000
vt 0.932188 0.563952 0.000000
vt 0.798468 0.563067 0.000000
vt 0.765694 0.530136 0.000000
vt 0.392323 0.328949 0.000000
vt 0.401276 0.298660 0.000000
vt 0.448798 0.257809 0.000000
vt 0.404199 0.267053 0.000000
vt 0.983514 0.440418 0.000000
vt 0.983702 0.487672 0.000000
vt 0.966001 0.397467 0.000000
vt 0.965114 0.531174 0.000000
vt 0.842474 0.346129 0.000000
vt 0.889733 0.345945 0.000000
vt 0.799517 0.363641 0.000000
vt 0.933230 0.364538 0.000000
vt 0.748176 0.487178 0.000000
vt 0.747989 0.439916 0.000000
vt 0.766583 0.396413 0.000000
vt 0.865846 0.463802 0.000000
vt 0.857356 0.664643 0.000000
vt 0.857195 0.609396 0.000000
vt 0.842641 0.601655 0.000000
vt 0.988809 0.020417 0.000000
vt 0.969009 0.005979 0.000000
vt 0.968068 0.338533 0.000000
vt 0.987945 0.324207 0.000000
vt 0.118389 0.969766 0.000000
vt 0.097742 0.983258 0.000000
vt 0.019407 0.664448 0.000000
vt 0.113959 0.648910 0.000000
vt 0.641082 0.012971 0.000000
vt 0.654731 0.033580 0.000000
vt 0.330034 0.120589 0.000000
vt 0.319577 0.019381 0.000000
vt 0.262029 0.016896 0.000000
# 284 texture coords

o 1?_??___???_??
g 1?_??___???_??
f 241/357 242/358 250/359 249/360 
f 242/358 243/361 251/362 250/359 
f 243/361 244/363 252/364 251/362 
f 244/363 245/365 253/366 252/364 
f 245/365 246/367 254/368 253/366 
f 246/367 247/369 255/370 254/368 
f 247/369 248/371 256/372 255/370 
f 248/371 241/357 249/360 256/372 
f 266/373 267/374 258/375 257/376 
f 267/374 268/377 259/378 258/375 
f 268/377 269/379 260/380 259/378 
f 269/379 270/381 261/382 260/380 
f 270/381 271/383 262/384 261/382 
f 271/383 272/385 263/386 262/384 
f 272/385 273/387 264/388 263/386 
f 273/387 266/373 257/376 264/388 
f 265/389 257/376 258/375 
f 265/389 258/375 259/378 
f 265/389 259/378 260/380 
f 265/389 260/380 261/382 
f 265/389 261/382 262/384 
f 265/389 262/384 263/386 
f 265/389 263/386 264/388 
f 265/389 264/388 257/376 
f 250/359 267/374 266/373 249/360 
f 251/362 268/377 267/374 250/359 
f 252/364 269/379 268/377 251/362 
f 253/366 270/381 269/379 252/364 
f 254/368 271/383 270/381 253/366 
f 255/370 272/385 271/383 254/368 
f 256/372 273/387 272/385 255/370 
f 249/360 266/373 273/387 256/372 
f 274/397 275/398 283/399 282/400 
f 275/398 276/401 284/402 283/399 
f 276/401 277/403 285/404 284/402 
f 277/403 278/405 286/406 285/404 
f 278/405 279/407 287/408 286/406 
f 279/407 280/409 288/410 287/408 
f 280/409 281/411 289/412 288/410 
f 281/625 274/397 282/400 289/626 
f 282/400 283/399 291/413 290/414 
f 283/399 284/402 292/415 291/413 
f 284/402 285/404 293/416 292/415 
f 285/404 286/406 294/417 293/416 
f 286/406 287/408 295/418 294/417 
f 287/408 288/410 296/419 295/418 
f 288/410 289/412 297/420 296/419 
f 289/626 282/400 290/414 297/627 
f 298/421 290/414 291/413 
f 298/421 291/413 292/415 
f 298/421 292/415 293/416 
f 298/421 293/416 294/417 
f 298/421 294/417 295/418 
f 298/421 295/418 296/419 
f 298/421 296/419 297/420 
f 298/421 297/627 290/414 
f 299/390 301/391 307/392 308/393 
f 303/394 309/395 310/396 305/422 
f 299/390 308/393 309/395 303/394 
f 300/423 302/424 306/425 304/426 
f 302/424 307/629 310/630 306/425 
f 301/391 299/390 303/394 305/422 
f 307/392 302/424 300/423 308/393 
f 309/395 304/426 306/425 310/396 
f 308/393 300/423 304/426 309/395 
f 307/629 301/628 305/631 310/630 
f 311/427 313/428 319/429 320/430 
f 315/634 321/432 322/433 317/434 
f 311/632 320/633 321/635 315/431 
f 312/435 314/436 318/437 316/438 
f 314/436 319/429 322/433 318/437 
f 313/428 311/427 315/634 317/434 
f 319/429 314/436 312/435 320/430 
f 321/432 316/438 318/437 322/433 
f 320/633 312/435 316/438 321/635 
f 319/429 313/428 317/434 322/433 
f 323/439 325/440 331/441 332/442 
f 327/638 333/444 334/445 329/446 
f 323/636 332/637 333/639 327/443 
f 324/447 326/448 330/449 328/450 
f 326/448 331/441 334/445 330/449 
f 325/440 323/439 327/638 329/446 
f 331/441 326/448 324/447 332/442 
f 338/451 335/452 336/453 337/454 
f 332/637 324/447 328/450 333/639 
f 331/441 325/440 329/446 334/445 
f 328/450 330/449 336/453 335/452 
f 330/449 334/445 337/454 336/453 
f 334/445 333/444 338/451 337/454 
f 333/639 328/450 335/452 338/640 
f 351/492 339/493 405/494 352/495 379/496 
f 351/492 380/497 353/498 339/493 
f 396/455 397/456 381/457 423/458 
f 352/495 405/494 413/499 382/500 
f 380/497 355/501 343/502 353/498 
f 356/503 406/504 343/502 355/501 383/505 
f 406/504 356/503 384/506 357/507 
f 397/456 418/459 399/460 381/457 
f 381/457 399/460 420/461 401/462 422/463 423/458 
f 357/507 384/506 359/508 344/509 
f 344/509 359/508 385/510 360/511 408/512 
f 358/513 408/512 360/511 386/514 
f 382/500 413/499 411/515 361/516 
f 410/517 358/513 386/514 362/518 
f 361/516 411/515 410/517 362/518 387/519 
f 388/520 364/521 342/522 365/523 
f 364/521 390/524 366/525 342/522 
f 342/522 366/525 383/505 355/501 
f 365/523 342/522 355/501 380/497 
f 389/526 363/529 341/532 367/533 
f 363/529 388/520 365/523 341/532 
f 341/532 365/523 380/497 351/492 
f 367/533 341/532 351/492 379/496 
f 391/534 369/537 348/541 370/542 
f 369/537 392/543 371/548 348/541 
f 348/541 371/548 385/510 359/508 
f 370/542 348/541 359/508 384/506 
f 390/524 368/552 347/553 366/525 
f 368/552 391/534 370/542 347/553 
f 347/553 370/542 384/506 356/503 
f 366/525 347/553 356/503 383/505 
f 393/556 373/567 350/568 374/571 
f 373/567 394/581 375/582 350/568 
f 350/568 375/582 387/519 362/518 
f 374/571 350/568 362/518 386/514 
f 392/543 372/585 349/595 371/548 
f 372/585 393/556 374/571 349/595 
f 349/595 374/571 386/514 360/511 
f 371/548 349/595 360/511 385/510 
f 395/596 377/599 340/609 378/610 
f 377/599 389/526 367/533 340/609 
f 340/609 367/533 379/496 352/495 
f 378/610 340/609 352/495 382/500 
f 394/581 376/611 346/612 375/582 
f 376/611 395/596 378/610 346/612 
f 346/612 378/610 382/500 361/516 
f 375/582 346/612 361/516 387/519 
f 404/464 412/465 417/466 416/467 
f 412/465 407/468 398/469 417/466 
f 407/468 414/470 419/471 398/469 
f 414/470 409/472 400/473 419/471 
f 409/472 415/474 421/475 400/473 
f 415/474 345/476 402/477 421/475 
f 345/476 354/478 403/479 402/477 
f 354/478 404/464 416/467 403/479 
f 339/480 404/464 405/481 
f 343/482 406/483 407/468 
f 344/484 408/485 409/472 
f 345/476 410/486 411/487 
f 404/464 339/480 353/488 412/465 
f 354/478 413/489 405/481 404/464 
f 412/465 353/488 343/482 407/468 
f 407/468 406/483 357/490 414/470 
f 414/470 357/490 344/484 409/472 
f 409/472 408/485 358/491 415/474 
f 345/476 411/487 413/489 354/478 
f 415/474 358/491 410/486 345/476 
f 396/455 416/467 417/466 397/456 
f 397/456 417/466 398/469 418/459 
f 418/459 398/469 419/471 399/460 
f 399/460 419/471 400/473 420/461 
f 420/461 400/473 421/475 401/462 
f 401/462 421/475 402/477 422/463 
f 422/463 402/477 403/479 423/458 
f 423/458 403/479 416/467 396/455 
f 473/527 432/528 457/530 433/531 
f 478/535 458/536 432/528 473/527 
f 475/538 473/527 433/531 459/539 
f 476/540 434/544 458/536 478/535 
f 476/540 435/545 460/546 434/544 
f 461/547 435/545 476/540 436/549 
f 437/550 461/547 436/549 477/551 
f 462/554 437/550 477/551 438/555 
f 438/555 477/551 479/557 463/558 
f 474/559 475/538 459/539 439/560 
f 463/558 479/557 474/559 440/561 
f 474/559 439/560 464/562 440/561 
f 426/563 442/564 465/565 443/566 
f 444/569 467/570 442/564 426/563 
f 460/546 444/569 426/563 434/544 
f 434/544 426/563 443/566 458/536 
f 425/572 441/573 466/574 445/575 
f 443/566 465/565 441/573 425/572 
f 458/536 443/566 425/572 432/528 
f 432/528 425/572 445/575 457/530 
f 429/576 447/577 468/578 448/579 
f 449/580 469/583 447/577 429/576 
f 462/554 449/580 429/576 437/550 
f 437/550 429/576 448/579 461/547 
f 428/584 446/586 467/570 444/569 
f 448/579 468/578 446/586 428/584 
f 461/547 448/579 428/584 435/545 
f 435/545 428/584 444/569 460/546 
f 431/587 451/588 470/589 452/590 
f 453/591 471/592 451/588 431/587 
f 464/562 453/591 431/587 440/561 
f 440/561 431/587 452/590 463/558 
f 430/593 450/594 469/583 449/580 
f 452/590 470/589 450/594 430/593 
f 463/558 452/590 430/593 438/555 
f 438/555 430/593 449/580 462/554 
f 424/597 455/598 472/600 456/601 
f 445/575 466/574 455/598 424/597 
f 457/530 445/575 424/597 433/531 
f 433/531 424/597 456/601 459/539 
f 427/602 454/603 471/592 453/591 
f 456/601 472/600 454/603 427/602 
f 459/539 456/601 427/602 439/560 
f 439/560 427/602 453/591 464/562 
f 364/604 388/605 465/565 442/564 
f 390/606 364/604 442/564 467/570 
f 363/607 389/608 466/574 441/573 
f 388/605 363/607 441/573 465/565 
f 369/613 391/614 468/578 447/577 
f 392/615 369/613 447/577 469/583 
f 368/616 390/606 467/570 446/586 
f 391/614 368/616 446/586 468/578 
f 373/617 393/618 470/589 451/588 
f 394/619 373/617 451/588 471/592 
f 372/620 392/615 469/583 450/594 
f 393/618 372/620 450/594 470/589 
f 377/621 395/622 472/600 455/598 
f 389/608 377/621 455/598 466/574 
f 376/623 394/619 471/592 454/603 
f 395/622 376/623 454/603 472/600 
f 480/624 436/549 476/540 478/535 
f 479/557 477/551 436/549 480/624 
f 478/535 473/527 475/538 480/624 
f 480/624 475/538 474/559 479/557 
# 209 polygons - 20 triangles

#
# object 1?_??___?????004
#

v  1.966055 1.769036 25.656691
v  4.448443 1.769021 23.174307
v  1.954401 1.919048 25.628340
v  4.420090 1.919033 23.162657
v  2.238162 1.841596 25.928799
v  4.720551 1.841581 23.446413
v  2.226509 1.991608 25.900448
v  4.692197 1.991593 23.434763
v  4.637558 1.819451 23.363420
v  2.155169 1.819466 25.845806
v  4.609205 1.969462 23.351770
v  2.143516 1.969477 25.817455
v  2.207576 2.133611 25.881514
v  4.673265 2.133596 23.415829
v  4.590272 2.111465 23.332836
v  2.124584 2.111480 25.798521
v  4.098094 0.344814 23.540157
v  4.475609 0.427653 23.132998
v  3.023459 4.777618 23.445641
v  3.400974 4.860456 23.038479
v  4.276475 0.391789 23.715109
v  4.653991 0.474628 23.307949
v  3.201841 4.824593 23.620592
v  3.579356 4.907432 23.213430
v  2.331907 0.344814 25.306345
v  1.924746 0.427653 25.683859
v  2.237389 4.777618 24.231709
v  1.830229 4.860457 24.609224
v  2.506858 0.391789 25.484726
v  2.099697 0.474628 25.862242
v  2.412341 4.824594 24.410091
v  2.005180 4.907433 24.787605
v  2.260109 3.893775 24.444368
v  3.236117 3.893775 23.468359
v  2.242725 4.445987 24.314499
v  3.106248 4.445987 23.450975
v  2.440327 3.941832 24.624586
v  3.416335 3.941832 23.648577
v  2.422943 4.494044 24.494717
v  3.286466 4.494044 23.631193
v  1.079206 0.322421 22.796642
v  1.338022 0.322480 23.055458
v  1.587963 0.322421 22.287886
v  1.846779 0.322480 22.546701
v  2.288089 4.965631 24.005526
v  2.546904 4.901092 24.264341
v  2.796846 4.965631 23.496769
v  3.055661 4.901092 23.755585
# 48 vertices

vt 0.757878 0.293624 0.000000
vt 0.758056 0.289764 0.000000
vt 0.817746 0.289396 0.000000
vt 0.817972 0.293254 0.000000
vt 0.757939 0.303524 0.000000
vt 0.818033 0.303154 0.000000
vt 0.817854 0.307014 0.000000
vt 0.758165 0.307382 0.000000
vt 0.818014 0.300134 0.000000
vt 0.757921 0.300504 0.000000
vt 0.824614 0.288994 0.000000
vt 0.758229 0.317707 0.000000
vt 0.758188 0.311035 0.000000
vt 0.817877 0.310667 0.000000
vt 0.824401 0.285347 0.000000
vt 0.758207 0.314054 0.000000
vt 0.968317 0.932367 0.000000
vt 0.958959 0.931042 0.000000
vt 0.961313 0.819854 0.000000
vt 0.970672 0.821179 0.000000
vt 0.944033 0.933381 0.000000
vt 0.941398 0.819034 0.000000
vt 0.953455 0.824102 0.000000
vt 0.952829 0.928004 0.000000
vt 0.873311 0.717567 0.000000
vt 0.869537 0.606418 0.000000
vt 0.878878 0.604973 0.000000
vt 0.882652 0.716123 0.000000
vt 0.897606 0.718271 0.000000
vt 0.888594 0.713008 0.000000
vt 0.886790 0.609121 0.000000
vt 0.898781 0.603900 0.000000
vt 0.670352 0.299160 0.000000
vt 0.667722 0.330802 0.000000
vt 0.621215 0.331389 0.000000
vt 0.617788 0.299823 0.000000
vt 0.670168 0.284573 0.000000
vt 0.617604 0.285237 0.000000
vt 0.620234 0.253594 0.000000
vt 0.666740 0.253007 0.000000
vt 0.692070 0.004675 0.000000
vt 0.704386 0.004702 0.000000
vt 0.704366 0.013956 0.000000
vt 0.692050 0.013928 0.000000
vt 0.682540 0.135753 0.000000
vt 0.691775 0.137482 0.000000
vt 0.704092 0.137509 0.000000
vt 0.713335 0.135822 0.000000
vt 0.758272 0.324587 0.000000
vt 0.817960 0.324219 0.000000
vt 0.747989 0.293168 0.000000
vt 0.827854 0.292675 0.000000
vt 0.827629 0.288818 0.000000
vt 0.748168 0.289307 0.000000
vt 0.824840 0.292852 0.000000
vt 0.751006 0.293307 0.000000
vt 0.817918 0.317339 0.000000
vt 0.751184 0.289447 0.000000
vt 0.748336 0.285658 0.000000
vt 0.827415 0.285171 0.000000
vt 0.817896 0.313686 0.000000
vt 0.751352 0.285797 0.000000
vt 0.950032 0.940346 0.000000
vt 0.937621 0.933534 0.000000
vt 0.934986 0.819187 0.000000
vt 0.948189 0.808763 0.000000
vt 0.904020 0.718342 0.000000
vt 0.891697 0.725312 0.000000
vt 0.905195 0.603970 0.000000
vt 0.891860 0.593716 0.000000
vt 0.684670 0.282998 0.000000
vt 0.681242 0.251433 0.000000
vt 0.666556 0.238422 0.000000
vt 0.620050 0.239008 0.000000
vt 0.605697 0.252385 0.000000
vt 0.603066 0.284028 0.000000
vt 0.691478 0.271956 0.000000
vt 0.683389 0.010671 0.000000
vt 0.703794 0.271983 0.000000
vt 0.713041 0.010736 0.000000
vt 0.691755 0.146878 0.000000
vt 0.704071 0.146905 0.000000
# 82 texture coords

o 1?_??___?????004
g 1?_??___?????004
f 481/641 483/642 484/643 482/644 
f 485/645 486/646 488/647 487/648 
f 482/644 489/649 490/650 481/641 
f 484/643 491/651 489/695 482/644 
f 483/689 492/652 491/697 484/690 
f 481/641 490/696 492/698 483/642 
f 486/646 485/645 490/650 489/649 
f 488/693 486/692 489/695 491/651 
f 493/653 494/654 495/701 496/656 
f 485/691 487/694 492/698 490/696 
f 487/648 488/647 494/654 493/653 
f 488/693 491/651 495/655 494/700 
f 491/697 492/652 496/656 495/701 
f 492/698 487/694 493/699 496/702 
f 497/665 499/666 500/667 498/668 
f 501/669 502/670 504/671 503/672 
f 497/708 498/668 502/670 501/669 
f 498/668 500/667 504/671 502/670 
f 500/667 499/710 503/672 504/671 
f 499/709 497/707 501/669 503/672 
f 505/657 506/658 508/659 507/660 
f 509/661 511/662 512/663 510/664 
f 505/703 509/661 510/664 506/658 
f 506/658 510/664 512/663 508/659 
f 508/659 512/663 511/662 507/706 
f 507/705 511/662 509/661 505/704 
f 513/673 515/674 516/675 514/676 
f 517/677 518/678 520/679 519/680 
f 513/673 514/676 518/678 517/677 
f 514/716 516/715 520/679 518/678 
f 516/714 515/713 519/680 520/679 
f 515/712 513/711 517/677 519/680 
f 521/681 523/682 524/683 522/684 
f 525/721 526/686 528/687 527/722 
f 521/718 522/684 526/686 525/685 
f 522/684 524/683 528/687 526/686 
f 524/683 523/720 527/688 528/687 
f 523/719 521/717 525/721 527/722 
# 38 polygons

#
# object 1?_??___?????005
#

v  11.981593 1.769036 28.589773
v  8.682684 1.769022 29.790474
v  11.980173 1.919048 28.620392
v  8.703457 1.919033 29.813017
v  11.849977 1.841597 28.228163
v  8.551068 1.841582 29.428864
v  11.848557 1.991608 28.258781
v  8.571842 1.991594 29.451406
v  8.591211 1.819451 29.539156
v  11.890120 1.819466 28.338453
v  8.611984 1.969463 29.561697
v  11.888700 1.969477 28.369072
v  11.857714 2.133611 28.283943
v  8.580998 2.133596 29.476566
v  8.621141 2.111466 29.586859
v  11.897857 2.111480 28.394234
v  9.154824 0.344815 29.606964
v  8.640606 0.427653 29.816433
v  10.088830 4.777618 30.146788
v  9.574611 4.860457 30.356255
v  9.067093 0.391789 29.373018
v  8.552875 0.474628 29.582485
v  10.001099 4.824593 29.912840
v  9.486879 4.907432 30.122309
v  11.501956 0.344815 28.752678
v  12.030514 0.427653 28.582607
v  11.133457 4.777618 29.766575
v  11.662015 4.860457 29.596502
v  11.418783 0.391790 28.517073
v  11.947341 0.474629 28.347000
v  11.050285 4.824594 29.530968
v  11.578842 4.907433 29.360895
v  11.202740 3.893775 29.564238
v  9.905697 3.893775 30.036324
v  11.163610 4.445987 29.689287
v  10.016052 4.445987 30.106964
v  11.115570 3.941833 29.324741
v  9.818528 3.941832 29.796827
v  11.076441 4.494044 29.449791
v  9.928883 4.494044 29.867468
v  11.576643 0.322421 31.556654
v  11.451457 0.322480 31.212708
v  10.900543 0.322421 31.802734
v  10.775356 0.322480 31.458788
v  10.991920 4.965631 29.950138
v  10.866733 4.901092 29.606192
v  10.315819 4.965631 30.196218
v  10.190633 4.901092 29.852272
# 48 vertices

vt 0.757878 0.293624 0.000000
vt 0.758056 0.289764 0.000000
vt 0.817746 0.289396 0.000000
vt 0.817972 0.293254 0.000000
vt 0.757939 0.303524 0.000000
vt 0.818033 0.303154 0.000000
vt 0.817854 0.307014 0.000000
vt 0.758165 0.307382 0.000000
vt 0.818014 0.300134 0.000000
vt 0.757921 0.300504 0.000000
vt 0.824614 0.288994 0.000000
vt 0.758229 0.317707 0.000000
vt 0.758188 0.311035 0.000000
vt 0.817877 0.310667 0.000000
vt 0.824401 0.285347 0.000000
vt 0.758207 0.314054 0.000000
vt 0.968317 0.932367 0.000000
vt 0.958959 0.931042 0.000000
vt 0.961313 0.819854 0.000000
vt 0.970672 0.821179 0.000000
vt 0.944033 0.933381 0.000000
vt 0.941398 0.819034 0.000000
vt 0.953455 0.824102 0.000000
vt 0.952829 0.928004 0.000000
vt 0.873311 0.717567 0.000000
vt 0.869537 0.606418 0.000000
vt 0.878878 0.604973 0.000000
vt 0.882652 0.716123 0.000000
vt 0.897606 0.718271 0.000000
vt 0.888594 0.713008 0.000000
vt 0.886790 0.609121 0.000000
vt 0.898781 0.603900 0.000000
vt 0.670352 0.299160 0.000000
vt 0.667722 0.330802 0.000000
vt 0.621215 0.331389 0.000000
vt 0.617788 0.299823 0.000000
vt 0.670168 0.284573 0.000000
vt 0.617604 0.285237 0.000000
vt 0.620234 0.253594 0.000000
vt 0.666740 0.253007 0.000000
vt 0.692070 0.004675 0.000000
vt 0.704386 0.004702 0.000000
vt 0.704366 0.013956 0.000000
vt 0.692050 0.013928 0.000000
vt 0.682540 0.135753 0.000000
vt 0.691775 0.137482 0.000000
vt 0.704092 0.137509 0.000000
vt 0.713335 0.135822 0.000000
vt 0.758272 0.324587 0.000000
vt 0.817960 0.324219 0.000000
vt 0.747989 0.293168 0.000000
vt 0.827854 0.292675 0.000000
vt 0.827629 0.288818 0.000000
vt 0.748168 0.289307 0.000000
vt 0.824840 0.292852 0.000000
vt 0.751006 0.293307 0.000000
vt 0.817918 0.317339 0.000000
vt 0.751184 0.289447 0.000000
vt 0.748336 0.285658 0.000000
vt 0.827415 0.285171 0.000000
vt 0.817896 0.313686 0.000000
vt 0.751352 0.285797 0.000000
vt 0.950032 0.940346 0.000000
vt 0.937621 0.933534 0.000000
vt 0.934986 0.819187 0.000000
vt 0.948189 0.808763 0.000000
vt 0.904020 0.718342 0.000000
vt 0.891697 0.725312 0.000000
vt 0.905195 0.603970 0.000000
vt 0.891860 0.593716 0.000000
vt 0.684670 0.282998 0.000000
vt 0.681242 0.251433 0.000000
vt 0.666556 0.238422 0.000000
vt 0.620050 0.239008 0.000000
vt 0.605697 0.252385 0.000000
vt 0.603066 0.284028 0.000000
vt 0.691478 0.271956 0.000000
vt 0.683389 0.010671 0.000000
vt 0.703794 0.271983 0.000000
vt 0.713041 0.010736 0.000000
vt 0.691755 0.146878 0.000000
vt 0.704071 0.146905 0.000000
# 82 texture coords

o 1?_??___?????005
g 1?_??___?????005
f 529/723 531/724 532/725 530/726 
f 533/727 534/728 536/729 535/730 
f 530/726 537/731 538/732 529/723 
f 532/725 539/733 537/777 530/726 
f 531/771 540/734 539/779 532/772 
f 529/723 538/778 540/780 531/724 
f 534/728 533/727 538/732 537/731 
f 536/775 534/774 537/777 539/733 
f 541/735 542/736 543/783 544/738 
f 533/773 535/776 540/780 538/778 
f 535/730 536/729 542/736 541/735 
f 536/775 539/733 543/737 542/782 
f 539/779 540/734 544/738 543/783 
f 540/780 535/776 541/781 544/784 
f 545/747 547/748 548/749 546/750 
f 549/751 550/752 552/753 551/754 
f 545/790 546/750 550/752 549/751 
f 546/750 548/749 552/753 550/752 
f 548/749 547/792 551/754 552/753 
f 547/791 545/789 549/751 551/754 
f 553/739 554/740 556/741 555/742 
f 557/743 559/744 560/745 558/746 
f 553/785 557/743 558/746 554/740 
f 554/740 558/746 560/745 556/741 
f 556/741 560/745 559/744 555/788 
f 555/787 559/744 557/743 553/786 
f 561/755 563/756 564/757 562/758 
f 565/759 566/760 568/761 567/762 
f 561/755 562/758 566/760 565/759 
f 562/798 564/797 568/761 566/760 
f 564/796 563/795 567/762 568/761 
f 563/794 561/793 565/759 567/762 
f 569/763 571/764 572/765 570/766 
f 573/803 574/768 576/769 575/804 
f 569/800 570/766 574/768 573/767 
f 570/766 572/765 576/769 574/768 
f 572/765 571/802 575/770 576/769 
f 571/801 569/799 573/803 575/804 
# 38 polygons

