# 3ds Max Wavefront OBJ Exporter v0.97b - (c)2007 guruware
# File Created: 03.08.2021 15:16:02

#
# object Box109
#

v  41.428009 18.474869 49.426483
v  41.428009 18.474869 -1.885340
v  41.428009 21.329922 49.426487
v  41.428009 21.329922 -1.885340
v  41.428009 18.474869 41.608223
v  41.428009 21.329922 41.608223
v  19.800913 33.758797 41.608223
v  41.428009 18.474869 3.817717
v  41.428009 21.329922 3.817717
v  39.512962 19.589417 49.426483
v  39.512962 22.502327 -1.885338
v  39.512962 19.589417 -1.885332
v  39.512962 22.502327 49.426487
v  39.512962 19.569643 41.608227
v  39.512962 22.502325 41.608223
v  39.512962 19.569643 0.459368
v  39.512962 22.502325 3.817720
v  19.800913 21.438124 0.459375
v  34.856918 21.438124 0.459375
v  19.800913 33.758797 -1.885336
v  19.800913 21.438124 41.705879
v  22.832031 28.925602 -1.885340
v  23.447641 31.477968 49.426487
v  22.832031 28.925602 49.426491
v  23.447641 31.477966 -1.885338
v  22.806641 28.925602 41.705879
v  23.447641 31.477966 41.608223
v  22.832031 28.925602 0.459381
v  23.447641 31.477968 3.817722
v  22.801743 21.438124 41.705883
v  22.827133 21.438124 0.459375
v  -1.826183 18.474869 49.426483
v  -1.826183 18.474869 41.608223
v  -1.826183 21.329922 41.608223
v  -1.826183 21.329922 49.426487
v  -1.826183 18.474869 -1.885340
v  0.088863 19.589417 -1.885336
v  0.088863 22.502327 -1.885336
v  -1.826183 21.329922 -1.885340
v  19.800913 30.591013 -1.885336
v  16.769794 28.925602 -1.885340
v  16.769794 28.925602 0.459381
v  19.800913 30.591013 0.459381
v  19.800913 33.758801 49.426483
v  16.154184 31.477968 49.426487
v  16.154184 31.477966 41.608223
v  19.800913 30.591013 49.426483
v  16.769794 28.925602 49.426491
v  -1.826183 18.474869 3.817717
v  -1.826183 21.329922 3.817715
v  0.088863 19.589417 49.426483
v  0.088863 19.576279 41.705883
v  0.088863 22.502325 3.817720
v  0.088863 22.502325 41.608223
v  0.088863 19.576279 0.459370
v  16.154184 31.477966 -1.885338
v  0.088863 22.502327 49.426487
v  16.769794 28.925602 41.705875
v  16.154184 31.477968 3.817722
v  16.774693 21.438124 41.705879
v  16.774693 21.438124 0.459375
v  4.744908 21.438124 0.459375
v  19.800913 30.591013 41.705875
v  19.800913 33.758801 3.817722
v  39.512962 19.576208 47.726559
v  22.801743 21.438126 47.726563
v  41.428009 21.329922 47.634300
v  41.428009 18.474869 47.634300
v  39.512962 22.502325 47.634300
v  39.512962 19.600529 47.634300
v  19.800913 33.758797 47.634300
v  23.447641 31.477968 47.634300
v  22.806641 28.925606 47.726563
v  -1.826181 18.474869 47.634300
v  -1.826181 21.329922 47.634300
v  16.154184 31.477966 47.634300
v  0.088863 19.579536 47.683128
v  0.088863 22.502325 47.634300
v  16.769794 28.925602 47.683128
v  19.800913 30.591013 47.683128
# 80 vertices

vt 0.952719 0.619769 0.000000
vt 0.952492 0.614341 0.000000
vt 0.020843 0.470631 0.000000
vt 0.020843 0.413249 0.000000
vt 0.965259 0.622481 0.000000
vt 0.957572 0.629560 0.000000
vt 0.948133 0.361914 0.000000
vt 0.942426 0.357191 0.000000
vt 0.943595 0.341254 0.000000
vt 0.954166 0.349331 0.000000
vt 0.847693 0.314602 0.000000
vt 0.864586 0.317938 0.000000
vt 0.861683 0.326785 0.000000
vt 0.848637 0.324303 0.000000
vt 0.856981 0.648314 0.000000
vt 0.875588 0.647458 0.000000
vt 0.045153 0.413249 0.000000
vt 0.873160 0.660256 0.000000
vt 0.045153 0.470631 0.000000
vt 0.853702 0.668795 0.000000
vt 0.953965 0.589538 0.000000
vt 0.950203 0.382337 0.000000
vt 0.126894 0.140376 0.000000
vt 0.971021 0.377407 0.000000
vt 0.973059 0.591482 0.000000
vt 0.639505 0.140376 0.000000
vt 0.944326 0.617273 0.000000
vt 0.941580 0.589800 0.000000
vt 0.937795 0.366108 0.000000
vt 0.639505 0.170277 0.000000
vt 0.863876 0.304502 0.000000
vt 0.126894 0.170277 0.000000
vt 0.948251 0.622174 0.000000
vt 0.947116 0.636011 0.000000
vt 0.716864 0.140376 0.000000
vt 0.845778 0.295152 0.000000
vt 0.858642 0.639396 0.000000
vt 0.874809 0.641434 0.000000
vt 0.716864 0.170277 0.000000
vt 0.757069 0.596285 0.000000
vt 0.749831 0.604986 0.000000
vt 0.020843 0.170277 0.000000
vt 0.744894 0.598931 0.000000
vt 0.020843 0.140376 0.000000
vt 0.794557 0.386125 0.000000
vt 0.859072 0.497319 0.000000
vt 0.866405 0.483972 0.000000
vt 0.755867 0.592052 0.000000
vt 0.757724 0.377099 0.000000
vt 0.045153 0.140376 0.000000
vt 0.751251 0.366738 0.000000
vt 0.759170 0.357672 0.000000
vt 0.762469 0.372448 0.000000
vt 0.045153 0.170277 0.000000
vt 0.836176 0.329365 0.000000
vt 0.831719 0.321166 0.000000
vt 0.639505 0.413249 0.000000
vt 0.837731 0.654664 0.000000
vt 0.126894 0.413249 0.000000
vt 0.835396 0.457080 0.000000
vt 0.899374 0.483994 0.000000
vt 0.838891 0.640193 0.000000
vt 0.755293 0.569371 0.000000
vt 0.738125 0.570740 0.000000
vt 0.739009 0.391156 0.000000
vt 0.756782 0.394771 0.000000
vt 0.766275 0.569854 0.000000
vt 0.764276 0.593747 0.000000
vt 0.767411 0.380579 0.000000
vt 0.829907 0.307878 0.000000
vt 0.761290 0.599804 0.000000
vt 0.758169 0.614493 0.000000
vt 0.841830 0.633354 0.000000
vt 0.712996 0.920422 0.000000
vt 0.688686 0.920422 0.000000
vt 0.688686 0.863040 0.000000
vt 0.712996 0.863040 0.000000
vt 0.866059 0.613951 0.000000
vt 0.880728 0.617964 0.000000
vt 0.851254 0.608682 0.000000
vt 0.946271 0.616413 0.000000
vt 0.606945 0.590167 0.000000
vt 0.606945 0.620068 0.000000
vt 0.094335 0.620068 0.000000
vt 0.094335 0.590167 0.000000
vt 0.016975 0.620068 0.000000
vt 0.016975 0.590167 0.000000
vt 0.712996 0.620068 0.000000
vt 0.688686 0.620068 0.000000
vt 0.688686 0.590167 0.000000
vt 0.802688 0.457101 0.000000
vt 0.835399 0.463232 0.000000
vt 0.899374 0.497319 0.000000
vt 0.907602 0.410522 0.000000
vt 0.712996 0.590167 0.000000
vt 0.899374 0.431024 0.000000
vt 0.606945 0.863040 0.000000
vt 0.842674 0.475998 0.000000
vt 0.094335 0.863040 0.000000
vt 0.802691 0.475998 0.000000
vt 0.802691 0.463253 0.000000
vt 0.794555 0.559718 0.000000
vt 0.802690 0.488851 0.000000
vt 0.716864 0.413249 0.000000
vt 0.639505 0.470631 0.000000
vt 0.126894 0.470631 0.000000
vt 0.016975 0.863040 0.000000
vt 0.716864 0.470631 0.000000
vt 0.606945 0.920421 0.000000
vt 0.094335 0.920421 0.000000
vt 0.016975 0.920421 0.000000
vt 0.835398 0.488872 0.000000
vt 0.899374 0.510644 0.000000
vt 0.866405 0.510666 0.000000
vt 0.899374 0.563614 0.000000
vt 0.907572 0.584116 0.000000
# 116 texture coords

o Box109
g Box109
f 1/1 68/2 67/5 3/6 
f 2/7 12/8 11/9 4/10 
f 40/11 22/12 28/13 43/14 
f 44/3 23/4 72/17 71/19 
f 47/15 24/16 23/18 44/20 
f 5/21 8/22 9/24 6/25 
f 5/21 68/2 70/27 14/28 
f 6/23 9/26 17/30 15/32 
f 8/22 5/21 14/28 16/29 
f 8/22 2/7 4/10 9/24 
f 9/26 4/35 11/39 17/30 
f 12/8 22/12 25/31 11/9 
f 12/8 2/7 8/22 16/29 
f 13/42 3/44 67/50 69/54 
f 10/33 1/1 3/6 13/34 
f 17/30 29/57 27/59 15/32 
f 11/39 25/104 29/57 17/30 
f 65/45 73/60 66/91 
f 43/46 28/47 31/61 18/93 
f 22/12 12/8 16/29 28/13 
f 23/4 13/42 69/54 72/17 
f 24/16 10/33 13/34 23/18 
f 22/12 40/11 20/36 25/31 
f 24/16 47/15 80/37 73/38 
f 29/57 64/105 7/106 27/59 
f 25/104 20/108 64/105 29/57 
f 26/92 63/98 21/100 30/101 
f 28/47 16/94 19/96 31/61 
f 32/40 35/41 75/43 74/48 
f 36/49 39/51 38/52 37/53 
f 40/11 43/14 42/55 41/56 
f 44/74 71/75 76/76 45/77 
f 47/15 44/20 45/58 48/62 
f 33/63 34/64 50/65 49/66 
f 33/63 52/67 77/68 74/48 
f 34/82 54/83 53/84 50/85 
f 49/66 55/69 52/67 33/63 
f 49/66 50/65 39/51 36/49 
f 50/85 53/84 38/86 39/87 
f 37/53 38/52 56/70 41/56 
f 37/53 55/69 49/66 36/49 
f 57/88 78/89 75/90 35/95 
f 51/71 57/72 35/41 32/40 
f 51/71 77/68 79/73 48/62 
f 53/84 54/83 46/97 59/99 
f 38/86 53/84 59/99 56/107 
f 52/102 60/103 58/112 
f 43/46 18/93 61/113 42/114 
f 41/56 42/55 55/69 37/53 
f 45/77 76/76 78/89 57/88 
f 48/62 45/58 57/72 51/71 
f 41/56 56/70 20/36 40/11 
f 48/62 79/73 80/37 47/15 
f 59/99 46/97 7/109 64/110 
f 56/107 59/99 64/110 20/111 
f 58/112 60/103 21/100 63/98 
f 42/114 61/113 62/115 55/116 
f 26/92 30/101 66/91 73/60 
f 68/2 5/21 6/25 67/5 
f 72/17 27/59 7/106 71/19 
f 68/2 1/1 10/33 70/27 
f 67/50 6/23 15/32 69/54 
f 69/54 15/32 27/59 72/17 
f 80/37 63/78 26/79 73/38 
f 75/43 34/64 33/63 74/48 
f 71/75 7/109 46/97 76/76 
f 77/68 51/71 32/40 74/48 
f 78/89 54/83 34/82 75/90 
f 77/68 52/67 58/80 79/73 
f 76/76 46/97 54/83 78/89 
f 79/73 58/80 63/78 80/37 
f 73/38 65/81 10/33 24/16 
# 70 polygons - 2 triangles

