# 3ds Max Wavefront OBJ Exporter v0.97b - (c)2007 guruware
# File Created: 03.08.2021 15:29:27

#
# object ???010
#

v  10.986946 8.568630 13.050080
v  10.986946 8.568631 13.340035
v  16.213387 8.568631 13.340035
v  16.212162 8.568630 13.050080
v  10.986947 0.357168 13.050082
v  16.212162 0.357169 13.050080
v  10.986948 0.357165 13.340036
v  16.213387 0.357165 13.340035
v  11.663931 4.223909 12.981812
v  11.763481 4.124358 12.981812
v  11.763481 3.983573 12.981812
v  11.523146 4.223909 12.981812
v  11.423595 4.124358 12.981812
v  11.423595 3.983573 12.981812
v  11.523146 3.884023 12.981812
v  11.663931 3.884023 12.981812
v  11.629623 4.141081 12.980284
v  11.680655 4.090051 12.980284
v  11.680655 4.017881 12.980284
v  11.557454 4.141081 12.980284
v  11.506423 4.090051 12.980284
v  11.506423 4.017881 12.980284
v  11.557454 3.966850 12.980284
v  11.629623 3.966850 12.980284
v  11.625220 4.067089 12.837732
v  11.606662 4.085648 12.837732
v  11.580416 4.085648 12.837732
v  11.561857 4.067089 12.837732
v  11.561857 4.040843 12.837732
v  11.580416 4.022284 12.837732
v  11.606662 4.022284 12.837732
v  11.625220 4.040843 12.837732
v  11.641062 4.034281 12.844860
v  11.641062 4.073650 12.844860
v  11.613223 4.101489 12.844860
v  11.573854 4.101489 12.844860
v  11.546016 4.073650 12.844860
v  11.546016 4.034281 12.844860
v  11.573854 4.006443 12.844860
v  11.613223 4.006443 12.844860
v  11.629623 4.141081 12.962244
v  11.680655 4.090051 12.962244
v  11.680655 4.017881 12.962244
v  11.557454 4.141081 12.962244
v  11.506423 4.090051 12.962244
v  11.506423 4.017881 12.962244
v  11.557454 3.966850 12.962244
v  11.629623 3.966850 12.962244
v  12.115890 4.090051 12.925529
v  11.898272 4.090051 12.945290
v  11.883326 4.126135 12.925529
v  11.883326 4.126135 12.886004
v  12.115890 4.090051 12.886004
v  12.115890 4.017881 12.886004
v  12.115890 4.017881 12.925529
v  11.898272 4.017881 12.945290
v  11.629623 4.141081 12.925529
v  11.557454 4.141081 12.925529
v  11.557454 4.141081 12.886004
v  11.629623 4.141081 12.886004
v  11.506423 4.090051 12.925529
v  11.506423 4.090051 12.886004
v  11.506423 4.017881 12.925529
v  11.506423 4.017881 12.886004
v  11.557454 3.966850 12.925529
v  11.557454 3.966850 12.886004
v  11.629623 3.966850 12.925529
v  11.629623 3.966850 12.886004
v  11.883326 3.981797 12.925529
v  11.883326 3.981797 12.886004
v  11.898272 4.090051 12.866242
v  11.898272 4.017881 12.866242
v  11.613223 4.101489 12.859116
v  11.641062 4.073650 12.859116
v  11.641062 4.034281 12.859116
v  11.573854 4.101489 12.859116
v  11.546016 4.073650 12.859116
v  11.546016 4.034281 12.859116
v  11.573854 4.006443 12.859116
v  11.613223 4.006443 12.859116
v  11.767769 4.126135 13.054336
v  11.766697 4.125690 12.991154
v  11.665708 4.228197 13.054336
v  11.665263 4.227125 12.991154
v  11.521370 4.228197 13.054336
v  11.521813 4.227125 12.991154
v  11.419308 4.126135 13.054336
v  11.420380 4.125690 12.991154
v  11.419308 3.981797 13.054336
v  11.420380 3.982241 12.991154
v  11.521370 3.879735 13.054336
v  11.521813 3.880807 12.991154
v  11.665708 3.879735 13.054336
v  11.665263 3.880807 12.991154
v  11.767769 3.981797 13.054336
v  11.766697 3.982241 12.991154
v  11.750448 4.118960 12.981479
v  11.690472 4.094117 12.981096
v  11.658532 4.210876 12.981479
v  11.633690 4.150899 12.981096
v  11.528544 4.210876 12.981479
v  11.553388 4.150899 12.981096
v  11.436629 4.118960 12.981479
v  11.496606 4.094117 12.981096
v  11.436629 3.988972 12.981479
v  11.496606 4.013815 12.981096
v  11.528544 3.897057 12.981479
v  11.553388 3.957033 12.981096
v  11.658532 3.897057 12.981479
v  11.633690 3.957033 12.981096
v  11.750448 3.988972 12.981479
v  11.690472 4.013815 12.981096
v  11.624990 4.053966 12.837732
v  11.615778 4.076205 12.837732
v  11.635359 4.071288 12.840298
v  11.593538 4.085417 12.837732
v  11.610861 4.095786 12.840298
v  11.571299 4.076205 12.837732
v  11.576216 4.095786 12.840298
v  11.562087 4.053966 12.837732
v  11.551719 4.071288 12.840298
v  11.571299 4.031727 12.837732
v  11.551719 4.036644 12.840298
v  11.593538 4.022514 12.837732
v  11.576216 4.012146 12.840298
v  11.615778 4.031727 12.837732
v  11.610861 4.012146 12.840298
v  11.635359 4.036644 12.840298
v  11.724015 4.184443 12.981812
v  11.778060 4.053966 12.981812
v  11.593538 4.238487 12.981812
v  11.463062 4.184443 12.981812
v  11.409017 4.053966 12.981812
v  11.463062 3.923490 12.981812
v  11.593538 3.869444 12.981812
v  11.724015 3.923490 12.981812
v  11.688128 4.053966 12.980284
v  11.660423 4.120851 12.980284
v  11.593538 4.148555 12.980284
v  11.526654 4.120851 12.980284
v  11.498950 4.053966 12.980284
v  11.526654 3.987082 12.980284
v  11.593538 3.959377 12.980284
v  11.660423 3.987082 12.980284
v  12.050275 4.117114 12.925529
v  12.061485 4.090051 12.940349
v  12.123363 4.053966 12.925529
v  11.593538 4.148555 12.925529
v  11.629623 4.141081 12.944588
v  11.711091 4.129871 12.925529
v  11.526654 4.120851 12.925529
v  11.557454 4.141081 12.944588
v  11.498950 4.053966 12.925529
v  11.506423 4.090051 12.944588
v  11.526654 3.987082 12.925529
v  11.506423 4.017881 12.944588
v  11.593538 3.959377 12.925529
v  11.557454 3.966850 12.944588
v  11.711091 3.978060 12.925529
v  11.629623 3.966850 12.944588
v  12.061485 4.017881 12.940350
v  12.050275 3.990818 12.925529
v  11.730109 4.088000 12.866242
v  11.887062 4.117114 12.871183
v  11.905745 4.053966 12.866242
v  12.061485 4.090051 12.871183
v  11.730109 4.019932 12.866242
v  11.887062 3.990818 12.871183
v  12.061485 4.017881 12.871183
v  11.711091 3.978060 12.886004
v  12.050275 3.990818 12.886004
v  11.735059 4.017881 12.949528
v  11.887062 3.990818 12.940350
v  11.905745 4.053966 12.945290
v  11.735059 4.090051 12.949528
v  11.887062 4.117114 12.940349
v  11.660423 4.120851 12.962244
v  11.688128 4.053966 12.962244
v  11.593538 4.148555 12.962244
v  11.526654 4.120851 12.962244
v  11.498950 4.053966 12.962244
v  11.526654 3.987082 12.962244
v  11.593538 3.959377 12.962244
v  11.660423 3.987082 12.962244
v  12.050275 4.117114 12.886004
v  12.123363 4.053966 12.886004
v  11.593538 4.148555 12.886004
v  11.627573 4.136132 12.871183
v  11.711091 4.129871 12.886004
v  11.526654 4.120851 12.886004
v  11.559504 4.136132 12.871183
v  11.498950 4.053966 12.886004
v  11.511372 4.088000 12.871183
v  11.526654 3.987082 12.886004
v  11.511372 4.019932 12.871183
v  11.593538 3.959377 12.886004
v  11.559504 3.971799 12.871183
v  11.627573 3.971799 12.871183
v  11.646010 4.075701 12.864461
v  11.615273 4.106438 12.864461
v  11.571804 4.106438 12.864461
v  11.541066 4.075701 12.864461
v  11.541066 4.032231 12.864461
v  11.571804 4.001494 12.864461
v  11.615273 4.001494 12.864461
v  11.646010 4.032231 12.864461
v  11.645138 4.053966 12.859116
v  11.630025 4.090452 12.859116
v  11.593538 4.105566 12.859116
v  11.557052 4.090452 12.859116
v  11.541939 4.053966 12.859116
v  11.557052 4.017480 12.859116
v  11.593538 4.002366 12.859116
v  11.630025 4.017480 12.859116
v  11.630025 4.090452 12.844860
v  11.645138 4.053966 12.844860
v  11.593538 4.105566 12.844860
v  11.557052 4.090452 12.844860
v  11.541939 4.053966 12.844860
v  11.557052 4.017480 12.844860
v  11.593538 4.002366 12.844860
v  11.630025 4.017480 12.844860
v  11.423168 4.053966 12.981479
v  11.726484 4.186912 12.991154
v  11.781552 4.053966 12.991154
v  11.593538 4.241980 12.991154
v  11.460592 4.186912 12.991154
v  11.405525 4.053966 12.991154
v  11.460592 3.921020 12.991154
v  11.593538 3.865952 12.991154
v  11.726484 3.921020 12.991154
v  11.763908 4.053966 12.981479
v  11.714008 4.174436 12.981479
v  11.667960 4.128388 12.981096
v  11.698787 4.053966 12.981096
v  11.593538 4.224336 12.981479
v  11.593538 4.159214 12.981096
v  11.473068 4.174436 12.981479
v  11.519116 4.128388 12.981096
v  11.488290 4.053966 12.981096
v  11.473068 3.933496 12.981479
v  11.519116 3.979544 12.981096
v  11.593538 3.883596 12.981479
v  11.593538 3.948718 12.981096
v  11.714008 3.933496 12.981479
v  11.667960 3.979544 12.981096
v  11.593538 4.053966 12.837732
v  11.639678 4.053966 12.839515
v  11.626164 4.086592 12.839515
v  11.593538 4.100106 12.839515
v  11.560913 4.086592 12.839515
v  11.547399 4.053966 12.839515
v  11.560913 4.021340 12.839515
v  11.593538 4.007826 12.839515
v  11.626164 4.021340 12.839515
v  11.553252 4.094252 12.864461
v  12.010866 4.110097 12.936507
v  12.068958 4.053966 12.940349
v  11.593538 4.148555 12.944588
v  11.697145 4.122753 12.944840
v  11.526654 4.120851 12.944588
v  11.498950 4.053966 12.944588
v  11.526654 3.987082 12.944588
v  11.593538 3.959377 12.944588
v  11.697145 3.985179 12.944840
v  12.010866 3.997835 12.936507
v  11.694713 4.120321 12.869405
v  11.737158 4.053966 12.866242
v  12.068958 4.053966 12.871183
v  12.010866 4.110097 12.875026
v  11.694713 3.987611 12.869405
v  12.010866 3.997835 12.875026
v  11.742532 4.053966 12.949528
v  11.593538 4.143181 12.871183
v  11.530454 4.117051 12.871183
v  11.504324 4.053966 12.871183
v  11.530454 3.990881 12.871183
v  11.593538 3.964751 12.871183
v  11.633825 4.094252 12.864461
v  11.650512 4.053966 12.864461
v  11.593538 4.110939 12.864461
v  11.536566 4.053966 12.864461
v  11.553252 4.013680 12.864461
v  11.593538 3.996993 12.864461
v  11.633825 4.013680 12.864461
v  11.727307 4.187735 13.054336
v  11.593538 4.243144 13.054336
v  11.459770 4.187735 13.054336
v  11.404361 4.053966 13.054336
v  11.459770 3.920197 13.054336
v  11.727307 3.920197 13.054336
v  11.593538 3.864789 13.054336
v  11.782717 4.053966 13.054336
v  11.663931 4.223909 13.408310
v  11.763481 4.124358 13.408310
v  11.763481 3.983573 13.408310
v  11.523146 4.223909 13.408309
v  11.423595 4.124358 13.408309
v  11.423595 3.983573 13.408309
v  11.523146 3.884023 13.408309
v  11.663931 3.884023 13.408310
v  11.629623 4.141081 13.409838
v  11.680655 4.090051 13.409838
v  11.680655 4.017881 13.409838
v  11.557454 4.141081 13.409837
v  11.506423 4.090051 13.409837
v  11.506423 4.017881 13.409837
v  11.557454 3.966850 13.409837
v  11.629623 3.966850 13.409838
v  11.625220 4.067089 13.552388
v  11.606662 4.085648 13.552388
v  11.580416 4.085648 13.552387
v  11.561857 4.067089 13.552387
v  11.561857 4.040843 13.552387
v  11.580416 4.022284 13.552387
v  11.606662 4.022284 13.552388
v  11.625220 4.040843 13.552388
v  11.641062 4.034281 13.545261
v  11.641062 4.073650 13.545261
v  11.613223 4.101489 13.545261
v  11.573854 4.101489 13.545260
v  11.546016 4.073650 13.545260
v  11.546016 4.034281 13.545260
v  11.573854 4.006443 13.545260
v  11.613223 4.006443 13.545261
v  11.629623 4.141081 13.427876
v  11.680655 4.090051 13.427876
v  11.680655 4.017881 13.427876
v  11.557454 4.141081 13.427876
v  11.506423 4.090051 13.427876
v  11.506423 4.017881 13.427876
v  11.557454 3.966850 13.427876
v  11.629623 3.966850 13.427876
v  12.115890 4.090051 13.464592
v  11.898272 4.090051 13.444831
v  11.883326 4.126135 13.464592
v  11.883326 4.126135 13.504116
v  12.115890 4.090051 13.504116
v  12.115890 4.017881 13.504116
v  12.115890 4.017881 13.464592
v  11.898272 4.017881 13.444831
v  11.629623 4.141081 13.464592
v  11.557454 4.141081 13.464592
v  11.557454 4.141081 13.504116
v  11.629623 4.141081 13.504116
v  11.506423 4.090051 13.464592
v  11.506423 4.090051 13.504116
v  11.506423 4.017881 13.464592
v  11.506423 4.017881 13.504116
v  11.557454 3.966850 13.464592
v  11.557454 3.966850 13.504116
v  11.629623 3.966850 13.464592
v  11.629623 3.966850 13.504116
v  11.883326 3.981797 13.464592
v  11.883326 3.981797 13.504116
v  11.898272 4.090051 13.523878
v  11.898272 4.017881 13.523878
v  11.613223 4.101489 13.531006
v  11.641062 4.073650 13.531006
v  11.641062 4.034281 13.531006
v  11.573854 4.101489 13.531005
v  11.546016 4.073650 13.531005
v  11.546016 4.034281 13.531005
v  11.573854 4.006443 13.531005
v  11.613223 4.006443 13.531006
v  11.767769 4.126135 13.335785
v  11.766697 4.125690 13.398967
v  11.665708 4.228197 13.335785
v  11.665263 4.227125 13.398967
v  11.521370 4.228197 13.335785
v  11.521813 4.227125 13.398967
v  11.419308 4.126135 13.335785
v  11.420380 4.125690 13.398967
v  11.419308 3.981797 13.335785
v  11.420380 3.982241 13.398967
v  11.521370 3.879735 13.335785
v  11.521813 3.880807 13.398967
v  11.665708 3.879735 13.335785
v  11.665263 3.880807 13.398967
v  11.767769 3.981797 13.335785
v  11.766697 3.982241 13.398967
v  11.750448 4.118960 13.408642
v  11.690472 4.094117 13.409024
v  11.658532 4.210876 13.408642
v  11.633690 4.150899 13.409024
v  11.528544 4.210876 13.408642
v  11.553388 4.150899 13.409023
v  11.436629 4.118960 13.408642
v  11.496606 4.094117 13.409023
v  11.436629 3.988972 13.408642
v  11.496606 4.013815 13.409023
v  11.528544 3.897057 13.408642
v  11.553388 3.957033 13.409023
v  11.658532 3.897057 13.408642
v  11.633690 3.957033 13.409024
v  11.750448 3.988972 13.408642
v  11.690472 4.013815 13.409024
v  11.624990 4.053966 13.552388
v  11.615778 4.076205 13.552388
v  11.635359 4.071288 13.549823
v  11.593538 4.085417 13.552388
v  11.610861 4.095786 13.549823
v  11.571299 4.076205 13.552387
v  11.576216 4.095786 13.549822
v  11.562087 4.053966 13.552387
v  11.551719 4.071288 13.549822
v  11.571299 4.031727 13.552387
v  11.551719 4.036644 13.549822
v  11.593538 4.022514 13.552388
v  11.576216 4.012146 13.549822
v  11.615778 4.031727 13.552388
v  11.610861 4.012146 13.549823
v  11.635359 4.036644 13.549823
v  11.724015 4.184443 13.408310
v  11.778060 4.053966 13.408310
v  11.593538 4.238487 13.408310
v  11.463062 4.184443 13.408309
v  11.409017 4.053966 13.408309
v  11.463062 3.923490 13.408309
v  11.593538 3.869444 13.408310
v  11.724015 3.923490 13.408310
v  11.688128 4.053966 13.409838
v  11.660423 4.120851 13.409838
v  11.593538 4.148555 13.409838
v  11.526654 4.120851 13.409837
v  11.498950 4.053966 13.409837
v  11.526654 3.987082 13.409837
v  11.593538 3.959377 13.409838
v  11.660423 3.987082 13.409838
v  12.050275 4.117114 13.464592
v  12.061485 4.090051 13.449772
v  12.123363 4.053966 13.464592
v  11.593538 4.148555 13.464592
v  11.629623 4.141081 13.445533
v  11.711091 4.129871 13.464592
v  11.526654 4.120851 13.464592
v  11.557454 4.141081 13.445532
v  11.498950 4.053966 13.464592
v  11.506423 4.090051 13.445532
v  11.526654 3.987082 13.464592
v  11.506423 4.017881 13.445532
v  11.593538 3.959377 13.464592
v  11.557454 3.966850 13.445532
v  11.711091 3.978060 13.464592
v  11.629623 3.966850 13.445533
v  12.061485 4.017881 13.449771
v  12.050275 3.990818 13.464592
v  11.730109 4.088000 13.523878
v  11.887062 4.117114 13.518937
v  11.905745 4.053966 13.523878
v  12.061485 4.090051 13.518937
v  11.730109 4.019932 13.523878
v  11.887062 3.990818 13.518937
v  12.061485 4.017881 13.518937
v  11.711091 3.978060 13.504116
v  12.050275 3.990818 13.504116
v  11.735059 4.017881 13.440593
v  11.887062 3.990818 13.449771
v  11.905745 4.053966 13.444831
v  11.735059 4.090051 13.440593
v  11.887062 4.117114 13.449772
v  11.660423 4.120851 13.427876
v  11.688128 4.053966 13.427876
v  11.593538 4.148555 13.427876
v  11.526654 4.120851 13.427876
v  11.498950 4.053966 13.427876
v  11.526654 3.987082 13.427876
v  11.593538 3.959377 13.427876
v  11.660423 3.987082 13.427876
v  12.050275 4.117114 13.504116
v  12.123363 4.053966 13.504116
v  11.593538 4.148555 13.504116
v  11.627573 4.136132 13.518937
v  11.711091 4.129871 13.504116
v  11.526654 4.120851 13.504116
v  11.559504 4.136132 13.518936
v  11.498950 4.053966 13.504116
v  11.511372 4.088000 13.518936
v  11.526654 3.987082 13.504116
v  11.511372 4.019932 13.518936
v  11.593538 3.959377 13.504116
v  11.559504 3.971799 13.518936
v  11.627573 3.971799 13.518937
v  11.646010 4.075701 13.525660
v  11.615273 4.106438 13.525660
v  11.571804 4.106438 13.525660
v  11.541066 4.075701 13.525660
v  11.541066 4.032231 13.525660
v  11.571804 4.001494 13.525660
v  11.615273 4.001494 13.525660
v  11.646010 4.032231 13.525660
v  11.645138 4.053966 13.531006
v  11.630025 4.090452 13.531006
v  11.593538 4.105566 13.531006
v  11.557052 4.090452 13.531005
v  11.541939 4.053966 13.531005
v  11.557052 4.017480 13.531005
v  11.593538 4.002366 13.531006
v  11.630025 4.017480 13.531006
v  11.630025 4.090452 13.545261
v  11.645138 4.053966 13.545261
v  11.593538 4.105566 13.545261
v  11.557052 4.090452 13.545260
v  11.541939 4.053966 13.545260
v  11.557052 4.017480 13.545260
v  11.593538 4.002366 13.545261
v  11.630025 4.017480 13.545261
v  11.423168 4.053966 13.408642
v  11.726484 4.186912 13.398967
v  11.781552 4.053966 13.398967
v  11.593538 4.241980 13.398967
v  11.460592 4.186912 13.398967
v  11.405525 4.053966 13.398967
v  11.460592 3.921020 13.398967
v  11.593538 3.865952 13.398967
v  11.726484 3.921020 13.398967
v  11.763908 4.053966 13.408642
v  11.714008 4.174436 13.408642
v  11.667960 4.128388 13.409024
v  11.698787 4.053966 13.409024
v  11.593538 4.224336 13.408642
v  11.593538 4.159214 13.409024
v  11.473068 4.174436 13.408642
v  11.519116 4.128388 13.409023
v  11.488290 4.053966 13.409023
v  11.473068 3.933496 13.408642
v  11.519116 3.979544 13.409023
v  11.593538 3.883596 13.408642
v  11.593538 3.948718 13.409024
v  11.714008 3.933496 13.408642
v  11.667960 3.979544 13.409024
v  11.593538 4.053966 13.552388
v  11.639678 4.053966 13.550606
v  11.626164 4.086592 13.550606
v  11.593538 4.100106 13.550606
v  11.560913 4.086592 13.550606
v  11.547399 4.053966 13.550606
v  11.560913 4.021340 13.550606
v  11.593538 4.007826 13.550606
v  11.626164 4.021340 13.550606
v  11.553252 4.094252 13.525660
v  12.010866 4.110097 13.453613
v  12.068958 4.053966 13.449772
v  11.593538 4.148555 13.445533
v  11.697145 4.122753 13.445280
v  11.526654 4.120851 13.445532
v  11.498950 4.053966 13.445532
v  11.526654 3.987082 13.445532
v  11.593538 3.959377 13.445533
v  11.697145 3.985179 13.445280
v  12.010866 3.997835 13.453613
v  11.694713 4.120321 13.520716
v  11.737158 4.053966 13.523878
v  12.068958 4.053966 13.518937
v  12.010866 4.110097 13.515095
v  11.694713 3.987611 13.520716
v  12.010866 3.997835 13.515095
v  11.742532 4.053966 13.440593
v  11.593538 4.143181 13.518937
v  11.530454 4.117051 13.518936
v  11.504324 4.053966 13.518936
v  11.530454 3.990881 13.518936
v  11.593538 3.964751 13.518937
v  11.633825 4.094252 13.525660
v  11.650512 4.053966 13.525660
v  11.593538 4.110939 13.525660
v  11.536566 4.053966 13.525660
v  11.553252 4.013680 13.525660
v  11.593538 3.996993 13.525660
v  11.633825 4.013680 13.525660
v  11.727307 4.187735 13.335785
v  11.593538 4.243144 13.335785
v  11.459770 4.187735 13.335785
v  11.404361 4.053966 13.335785
v  11.459770 3.920197 13.335785
v  11.727307 3.920197 13.335785
v  11.593538 3.864789 13.335785
v  11.782717 4.053966 13.335785
v  16.259455 6.806890 13.031143
v  16.246325 6.806890 13.062846
v  16.214621 6.806890 13.075978
v  16.182919 6.806890 13.062846
v  16.169786 6.806890 13.031143
v  16.182919 6.806890 12.999441
v  16.214621 6.806890 12.986309
v  16.246325 6.806890 12.999441
v  16.259455 7.368680 13.031143
v  16.246325 7.368680 13.062846
v  16.214621 7.368680 13.075978
v  16.182919 7.368680 13.062846
v  16.169786 7.368680 13.031143
v  16.182919 7.368680 12.999441
v  16.214621 7.368680 12.986309
v  16.246325 7.368680 12.999441
v  16.240448 6.806890 13.031143
v  16.232883 6.806890 13.049404
v  16.214621 6.806890 13.056970
v  16.196360 6.806890 13.049404
v  16.188795 6.806890 13.031143
v  16.196360 6.806890 13.012882
v  16.214621 6.806890 13.005317
v  16.232883 6.806890 13.012882
v  16.240448 7.368680 13.031143
v  16.232883 7.368680 13.049404
v  16.214621 7.368680 13.056970
v  16.196360 7.368680 13.049404
v  16.188795 7.368680 13.031143
v  16.196360 7.368680 13.012882
v  16.214621 7.368680 13.005317
v  16.232883 7.368680 13.012882
v  16.214622 6.806890 13.031143
v  16.214622 7.368680 13.031143
v  16.259455 5.723641 13.031143
v  16.246325 5.723641 13.062847
v  16.246325 6.285430 13.062847
v  16.259455 6.285430 13.031143
v  16.214621 5.723641 13.075979
v  16.214621 6.285430 13.075979
v  16.182919 5.723641 13.062847
v  16.182919 6.285430 13.062847
v  16.169786 5.723641 13.031143
v  16.169786 6.285430 13.031143
v  16.182919 5.723641 12.999441
v  16.182919 6.285430 12.999441
v  16.214621 5.723641 12.986309
v  16.214621 6.285430 12.986309
v  16.246325 5.723641 12.999441
v  16.246325 6.285430 12.999441
v  16.240446 5.723641 13.031143
v  16.232883 5.723641 13.049404
v  16.214621 5.723641 13.056971
v  16.196360 5.723641 13.049404
v  16.188795 5.723641 13.031143
v  16.196360 5.723641 13.012883
v  16.214621 5.723641 13.005317
v  16.232883 5.723641 13.012883
v  16.232883 6.285430 13.049404
v  16.240446 6.285430 13.031143
v  16.214621 6.285430 13.056971
v  16.196360 6.285430 13.049404
v  16.188795 6.285430 13.031143
v  16.196360 6.285430 13.012883
v  16.214621 6.285430 13.005317
v  16.232883 6.285430 13.012883
v  16.214622 5.723641 13.031143
v  16.214622 6.285430 13.031143
v  16.259455 1.416245 13.031143
v  16.246325 1.416245 13.062849
v  16.246325 1.978034 13.062849
v  16.259455 1.978034 13.031143
v  16.214621 1.416245 13.075981
v  16.214621 1.978034 13.075981
v  16.182919 1.416245 13.062849
v  16.182919 1.978034 13.062849
v  16.169786 1.416245 13.031143
v  16.169786 1.978034 13.031143
v  16.182919 1.416245 12.999441
v  16.182919 1.978034 12.999441
v  16.214621 1.416245 12.986309
v  16.214621 1.978034 12.986309
v  16.246325 1.416245 12.999441
v  16.246325 1.978034 12.999441
v  16.240446 1.416245 13.031143
v  16.232883 1.416245 13.049404
v  16.214621 1.416245 13.056973
v  16.196360 1.416245 13.049404
v  16.188795 1.416245 13.031143
v  16.196360 1.416245 13.012884
v  16.214621 1.416245 13.005317
v  16.232883 1.416245 13.012884
v  16.232883 1.978034 13.049404
v  16.240446 1.978034 13.031143
v  16.214621 1.978034 13.056973
v  16.196360 1.978034 13.049404
v  16.188795 1.978034 13.031143
v  16.196360 1.978034 13.012884
v  16.214621 1.978034 13.005317
v  16.232883 1.978034 13.012884
v  16.214622 1.416245 13.031143
v  16.214622 1.978034 13.031143
# 680 vertices

vt 0.824352 0.065566 0.000000
vt 0.824352 0.093241 0.000000
vt 0.017602 0.093241 0.000000
vt 0.017602 0.065566 0.000000
vt 0.823550 0.058480 0.000000
vt 0.017089 0.058480 0.000000
vt 0.823289 0.189187 0.000000
vt 0.017579 0.189187 0.000000
vt 0.004467 0.233754 0.000000
vt 0.529785 0.233754 0.000000
vt 0.004467 0.579066 0.000000
vt 0.529785 0.579065 0.000000
vt 0.017089 0.013733 0.000000
vt 0.823550 0.013733 0.000000
vt 0.017579 0.144482 0.000000
vt 0.823289 0.144482 0.000000
vt 0.017602 0.129157 0.000000
vt 0.017602 0.101482 0.000000
vt 0.824352 0.101482 0.000000
vt 0.824352 0.129157 0.000000
vt 0.004467 0.634859 0.000000
vt 0.004467 0.980251 0.000000
vt 0.529784 0.980251 0.000000
vt 0.529784 0.634859 0.000000
vt 0.882515 0.424164 0.000000
vt 0.921083 0.431844 0.000000
vt 0.918332 0.438485 0.000000
vt 0.882515 0.431348 0.000000
vt 0.953786 0.453685 0.000000
vt 0.948706 0.458765 0.000000
vt 0.975627 0.486388 0.000000
vt 0.968986 0.489139 0.000000
vt 0.983308 0.524956 0.000000
vt 0.976123 0.524956 0.000000
vt 0.975627 0.563524 0.000000
vt 0.968986 0.560773 0.000000
vt 0.953786 0.596227 0.000000
vt 0.948706 0.591147 0.000000
vt 0.921083 0.618068 0.000000
vt 0.918332 0.611427 0.000000
vt 0.882515 0.625749 0.000000
vt 0.882515 0.618564 0.000000
vt 0.843946 0.618068 0.000000
vt 0.846697 0.611427 0.000000
vt 0.811243 0.596227 0.000000
vt 0.816324 0.591146 0.000000
vt 0.789403 0.563524 0.000000
vt 0.796043 0.560773 0.000000
vt 0.781722 0.524956 0.000000
vt 0.788907 0.524956 0.000000
vt 0.789403 0.486388 0.000000
vt 0.796043 0.489139 0.000000
vt 0.811243 0.453685 0.000000
vt 0.816324 0.458765 0.000000
vt 0.843947 0.431844 0.000000
vt 0.846697 0.438485 0.000000
vt 0.882515 0.446006 0.000000
vt 0.912719 0.452036 0.000000
vt 0.901652 0.478756 0.000000
vt 0.882515 0.474983 0.000000
vt 0.938341 0.469130 0.000000
vt 0.917851 0.489620 0.000000
vt 0.955434 0.494752 0.000000
vt 0.928714 0.505819 0.000000
vt 0.961465 0.524956 0.000000
vt 0.932488 0.524956 0.000000
vt 0.955434 0.555160 0.000000
vt 0.928714 0.544092 0.000000
vt 0.938341 0.580782 0.000000
vt 0.917851 0.560292 0.000000
vt 0.912719 0.597876 0.000000
vt 0.901652 0.571156 0.000000
vt 0.882515 0.603906 0.000000
vt 0.882515 0.574929 0.000000
vt 0.852310 0.597876 0.000000
vt 0.863378 0.571156 0.000000
vt 0.826688 0.580782 0.000000
vt 0.847178 0.560292 0.000000
vt 0.809595 0.555160 0.000000
vt 0.836315 0.544092 0.000000
vt 0.803564 0.524956 0.000000
vt 0.832542 0.524956 0.000000
vt 0.809595 0.494752 0.000000
vt 0.836315 0.505819 0.000000
vt 0.826688 0.469130 0.000000
vt 0.847178 0.489620 0.000000
vt 0.852310 0.452036 0.000000
vt 0.863378 0.478756 0.000000
vt 0.944540 0.462931 0.000000
vt 0.916075 0.443935 0.000000
vt 0.882515 0.437240 0.000000
vt 0.970231 0.524956 0.000000
vt 0.881209 0.300094 0.000000
vt 0.881209 0.251377 0.000000
vt 0.902259 0.249271 0.000000
vt 0.915655 0.265647 0.000000
vt 0.881209 0.227380 0.000000
vt 0.909118 0.232713 0.000000
vt 0.932625 0.248676 0.000000
vt 0.932032 0.279043 0.000000
vt 0.929923 0.300094 0.000000
vt 0.948589 0.272183 0.000000
vt 0.953924 0.300094 0.000000
vt 0.932032 0.321146 0.000000
vt 0.915655 0.334540 0.000000
vt 0.948589 0.328004 0.000000
vt 0.932625 0.351510 0.000000
vt 0.902259 0.350916 0.000000
vt 0.881209 0.348808 0.000000
vt 0.909118 0.367474 0.000000
vt 0.881209 0.372807 0.000000
vt 0.860156 0.350916 0.000000
vt 0.846762 0.334540 0.000000
vt 0.853299 0.367474 0.000000
vt 0.829792 0.351510 0.000000
vt 0.830387 0.321146 0.000000
vt 0.832494 0.300094 0.000000
vt 0.813828 0.328004 0.000000
vt 0.808495 0.300094 0.000000
vt 0.830387 0.279043 0.000000
vt 0.846762 0.265647 0.000000
vt 0.813828 0.272183 0.000000
vt 0.829792 0.248676 0.000000
vt 0.860156 0.249271 0.000000
vt 0.853299 0.232713 0.000000
vt 0.881209 0.195753 0.000000
vt 0.921190 0.203571 0.000000
vt 0.963536 0.491396 0.000000
vt 0.944540 0.586980 0.000000
vt 0.963536 0.558516 0.000000
vt 0.882515 0.612672 0.000000
vt 0.916075 0.605977 0.000000
vt 0.820490 0.586980 0.000000
vt 0.848955 0.605977 0.000000
vt 0.794798 0.524956 0.000000
vt 0.801494 0.558516 0.000000
vt 0.820490 0.462931 0.000000
vt 0.801494 0.491396 0.000000
vt 0.848955 0.443935 0.000000
vt 0.899644 0.483602 0.000000
vt 0.882515 0.480228 0.000000
vt 0.914142 0.493329 0.000000
vt 0.923868 0.507827 0.000000
vt 0.927242 0.524956 0.000000
vt 0.923868 0.542085 0.000000
vt 0.914142 0.556583 0.000000
vt 0.899644 0.566309 0.000000
vt 0.882515 0.569684 0.000000
vt 0.730812 0.980961 0.000000
vt 0.712431 0.971786 0.000000
vt 0.720506 0.950673 0.000000
vt 0.743039 0.961092 0.000000
vt 0.748180 0.993045 0.000000
vt 0.760482 0.975361 0.000000
vt 0.692702 0.966348 0.000000
vt 0.672133 0.962846 0.000000
vt 0.675144 0.942767 0.000000
vt 0.696992 0.946002 0.000000
vt 0.651420 0.960028 0.000000
vt 0.630998 0.957411 0.000000
vt 0.633548 0.937486 0.000000
vt 0.654033 0.940057 0.000000
vt 0.611081 0.954844 0.000000
vt 0.591496 0.952285 0.000000
vt 0.594128 0.932323 0.000000
vt 0.613670 0.934919 0.000000
vt 0.608439 0.623758 0.000000
vt 0.629580 0.621755 0.000000
vt 0.631605 0.642847 0.000000
vt 0.610515 0.644917 0.000000
vt 0.651136 0.619755 0.000000
vt 0.672903 0.617592 0.000000
vt 0.675287 0.638819 0.000000
vt 0.653194 0.640847 0.000000
vt 0.694549 0.614851 0.000000
vt 0.715734 0.610721 0.000000
vt 0.721873 0.632784 0.000000
vt 0.697897 0.636473 0.000000
vt 0.734575 0.603604 0.000000
vt 0.744351 0.623190 0.000000
vt 0.922229 0.871498 0.000000
vt 0.935911 0.854798 0.000000
vt 0.966018 0.841546 0.000000
vt 0.950979 0.869215 0.000000
vt 0.923512 0.822991 0.000000
vt 0.950805 0.808149 0.000000
vt 0.963859 0.791022 0.000000
vt 0.989298 0.838305 0.000000
vt 0.971172 0.880827 0.000000
vt 0.677584 0.922586 0.000000
vt 0.679237 0.900900 0.000000
vt 0.700881 0.901762 0.000000
vt 0.699841 0.924786 0.000000
vt 0.679911 0.858310 0.000000
vt 0.699596 0.856324 0.000000
vt 0.747986 0.850854 0.000000
vt 0.753240 0.900188 0.000000
vt 0.746956 0.926874 0.000000
vt 0.635969 0.918034 0.000000
vt 0.638435 0.897322 0.000000
vt 0.658439 0.899405 0.000000
vt 0.656373 0.920391 0.000000
vt 0.643307 0.857006 0.000000
vt 0.661226 0.858525 0.000000
vt 0.596763 0.912833 0.000000
vt 0.599745 0.891868 0.000000
vt 0.619006 0.894747 0.000000
vt 0.616215 0.915498 0.000000
vt 0.606945 0.848801 0.000000
vt 0.625548 0.853718 0.000000
vt 0.633588 0.663359 0.000000
vt 0.635741 0.685179 0.000000
vt 0.615202 0.687580 0.000000
vt 0.612655 0.665541 0.000000
vt 0.640287 0.727712 0.000000
vt 0.621799 0.731279 0.000000
vt 0.677106 0.659751 0.000000
vt 0.678324 0.682214 0.000000
vt 0.656700 0.683370 0.000000
vt 0.655025 0.661431 0.000000
vt 0.678390 0.726126 0.000000
vt 0.658957 0.726004 0.000000
vt 0.747409 0.657294 0.000000
vt 0.753140 0.684139 0.000000
vt 0.700579 0.681699 0.000000
vt 0.700018 0.658293 0.000000
vt 0.748325 0.734023 0.000000
vt 0.698864 0.728185 0.000000
vt 0.965523 0.742826 0.000000
vt 0.950276 0.716543 0.000000
vt 0.949042 0.773502 0.000000
vt 0.922523 0.760936 0.000000
vt 0.935484 0.730766 0.000000
vt 0.922257 0.714155 0.000000
vt 0.736498 0.831210 0.000000
vt 0.757522 0.811650 0.000000
vt 0.850653 0.809716 0.000000
vt 0.845841 0.824178 0.000000
vt 0.761461 0.792544 0.000000
vt 0.854046 0.792398 0.000000
vt 0.928145 0.791420 0.000000
vt 0.924691 0.805720 0.000000
vt 0.904364 0.816409 0.000000
vt 0.757499 0.773439 0.000000
vt 0.850534 0.775169 0.000000
vt 0.736509 0.753880 0.000000
vt 0.845626 0.760824 0.000000
vt 0.903888 0.767454 0.000000
vt 0.924135 0.777478 0.000000
vt 0.845883 0.744829 0.000000
vt 0.854422 0.704031 0.000000
vt 0.778387 0.644964 0.000000
vt 0.872574 0.675541 0.000000
vt 0.861038 0.687959 0.000000
vt 0.790991 0.957130 0.000000
vt 0.884516 0.658739 0.000000
vt 0.777835 0.939615 0.000000
vt 0.872075 0.909927 0.000000
vt 0.860657 0.897452 0.000000
vt 0.854161 0.881386 0.000000
vt 0.846197 0.840326 0.000000
vt 0.678555 0.843251 0.000000
vt 0.696598 0.839857 0.000000
vt 0.645833 0.842827 0.000000
vt 0.661962 0.844123 0.000000
vt 0.612695 0.832234 0.000000
vt 0.629853 0.839145 0.000000
vt 0.643034 0.742466 0.000000
vt 0.626401 0.746431 0.000000
vt 0.677092 0.741754 0.000000
vt 0.659834 0.740984 0.000000
vt 0.695793 0.745133 0.000000
vt 0.706748 0.805172 0.000000
vt 0.709341 0.792819 0.000000
vt 0.699388 0.815478 0.000000
vt 0.688383 0.822239 0.000000
vt 0.675844 0.825934 0.000000
vt 0.662886 0.826306 0.000000
vt 0.649955 0.824783 0.000000
vt 0.637567 0.821013 0.000000
vt 0.626082 0.814769 0.000000
vt 0.634590 0.765293 0.000000
vt 0.647493 0.761255 0.000000
vt 0.660979 0.759529 0.000000
vt 0.674493 0.759743 0.000000
vt 0.687536 0.763372 0.000000
vt 0.698936 0.770127 0.000000
vt 0.706556 0.780468 0.000000
vt 0.915514 0.217273 0.000000
vt 0.881209 0.210749 0.000000
vt 0.954989 0.226313 0.000000
vt 0.944384 0.236919 0.000000
vt 0.940817 0.240485 0.000000
vt 0.913710 0.221629 0.000000
vt 0.881209 0.215795 0.000000
vt 0.977732 0.260113 0.000000
vt 0.964029 0.265788 0.000000
vt 0.985549 0.300094 0.000000
vt 0.970553 0.300094 0.000000
vt 0.965506 0.300094 0.000000
vt 0.959674 0.267593 0.000000
vt 0.977732 0.340074 0.000000
vt 0.964029 0.334399 0.000000
vt 0.954989 0.373874 0.000000
vt 0.944384 0.363269 0.000000
vt 0.940815 0.359702 0.000000
vt 0.959674 0.332594 0.000000
vt 0.921190 0.396616 0.000000
vt 0.915514 0.382916 0.000000
vt 0.881209 0.404436 0.000000
vt 0.881209 0.389438 0.000000
vt 0.881209 0.384392 0.000000
vt 0.913710 0.378558 0.000000
vt 0.841227 0.396616 0.000000
vt 0.846903 0.382916 0.000000
vt 0.807428 0.373874 0.000000
vt 0.818033 0.363269 0.000000
vt 0.821602 0.359702 0.000000
vt 0.848707 0.378558 0.000000
vt 0.784686 0.340074 0.000000
vt 0.798390 0.334399 0.000000
vt 0.776868 0.300094 0.000000
vt 0.865386 0.566309 0.000000
vt 0.850887 0.556583 0.000000
vt 0.841161 0.542085 0.000000
vt 0.837787 0.524956 0.000000
vt 0.841161 0.507827 0.000000
vt 0.850887 0.493329 0.000000
vt 0.865386 0.483603 0.000000
vt 0.791865 0.300094 0.000000
vt 0.796911 0.300094 0.000000
vt 0.802744 0.332594 0.000000
vt 0.784686 0.260113 0.000000
vt 0.798390 0.265788 0.000000
vt 0.807428 0.226313 0.000000
vt 0.818033 0.236919 0.000000
vt 0.821602 0.240485 0.000000
vt 0.802745 0.267593 0.000000
vt 0.841227 0.203571 0.000000
vt 0.846905 0.217273 0.000000
vt 0.848707 0.221629 0.000000
vt 0.750677 0.593717 0.000000
vt 0.761389 0.609636 0.000000
vt 0.587574 0.625788 0.000000
vt 0.589658 0.647048 0.000000
vt 0.985524 0.744841 0.000000
vt 0.969496 0.705543 0.000000
vt 0.591854 0.667888 0.000000
vt 0.594581 0.690403 0.000000
vt 0.602481 0.736499 0.000000
vt 0.791576 0.627632 0.000000
vt 0.883875 0.926949 0.000000
vt 0.608561 0.753749 0.000000
vt 0.622649 0.771889 0.000000
vt 0.882515 0.424164 0.000000
vt 0.921083 0.431844 0.000000
vt 0.918332 0.438485 0.000000
vt 0.882515 0.431348 0.000000
vt 0.953786 0.453685 0.000000
vt 0.948706 0.458765 0.000000
vt 0.975627 0.486388 0.000000
vt 0.968986 0.489139 0.000000
vt 0.983308 0.524956 0.000000
vt 0.976123 0.524956 0.000000
vt 0.975627 0.563524 0.000000
vt 0.968986 0.560773 0.000000
vt 0.953786 0.596227 0.000000
vt 0.948706 0.591147 0.000000
vt 0.921083 0.618068 0.000000
vt 0.918332 0.611427 0.000000
vt 0.882515 0.625749 0.000000
vt 0.882515 0.618564 0.000000
vt 0.843946 0.618068 0.000000
vt 0.846697 0.611427 0.000000
vt 0.811243 0.596227 0.000000
vt 0.816324 0.591146 0.000000
vt 0.789403 0.563524 0.000000
vt 0.796043 0.560773 0.000000
vt 0.781722 0.524956 0.000000
vt 0.788907 0.524956 0.000000
vt 0.789403 0.486388 0.000000
vt 0.796043 0.489139 0.000000
vt 0.811243 0.453685 0.000000
vt 0.816324 0.458765 0.000000
vt 0.843947 0.431844 0.000000
vt 0.846697 0.438485 0.000000
vt 0.882515 0.446006 0.000000
vt 0.912719 0.452036 0.000000
vt 0.901652 0.478756 0.000000
vt 0.882515 0.474983 0.000000
vt 0.938341 0.469130 0.000000
vt 0.917851 0.489620 0.000000
vt 0.955434 0.494752 0.000000
vt 0.928714 0.505819 0.000000
vt 0.961465 0.524956 0.000000
vt 0.932488 0.524956 0.000000
vt 0.955434 0.555160 0.000000
vt 0.928714 0.544092 0.000000
vt 0.938341 0.580782 0.000000
vt 0.917851 0.560292 0.000000
vt 0.912719 0.597876 0.000000
vt 0.901652 0.571156 0.000000
vt 0.882515 0.603906 0.000000
vt 0.882515 0.574929 0.000000
vt 0.852310 0.597876 0.000000
vt 0.863378 0.571156 0.000000
vt 0.826688 0.580782 0.000000
vt 0.847178 0.560292 0.000000
vt 0.809595 0.555160 0.000000
vt 0.836315 0.544092 0.000000
vt 0.803564 0.524956 0.000000
vt 0.832542 0.524956 0.000000
vt 0.809595 0.494752 0.000000
vt 0.836315 0.505819 0.000000
vt 0.826688 0.469130 0.000000
vt 0.847178 0.489620 0.000000
vt 0.852310 0.452036 0.000000
vt 0.863378 0.478756 0.000000
vt 0.944540 0.462931 0.000000
vt 0.916075 0.443935 0.000000
vt 0.882515 0.437240 0.000000
vt 0.970231 0.524956 0.000000
vt 0.881209 0.300094 0.000000
vt 0.881209 0.251377 0.000000
vt 0.902259 0.249271 0.000000
vt 0.915655 0.265647 0.000000
vt 0.881209 0.227380 0.000000
vt 0.909118 0.232713 0.000000
vt 0.932625 0.248676 0.000000
vt 0.932032 0.279043 0.000000
vt 0.929923 0.300094 0.000000
vt 0.948589 0.272183 0.000000
vt 0.953924 0.300094 0.000000
vt 0.932032 0.321146 0.000000
vt 0.915655 0.334540 0.000000
vt 0.948589 0.328004 0.000000
vt 0.932625 0.351510 0.000000
vt 0.902259 0.350916 0.000000
vt 0.881209 0.348808 0.000000
vt 0.909118 0.367474 0.000000
vt 0.881209 0.372807 0.000000
vt 0.860156 0.350916 0.000000
vt 0.846762 0.334540 0.000000
vt 0.853299 0.367474 0.000000
vt 0.829792 0.351510 0.000000
vt 0.830387 0.321146 0.000000
vt 0.832494 0.300094 0.000000
vt 0.813828 0.328004 0.000000
vt 0.808495 0.300094 0.000000
vt 0.830387 0.279043 0.000000
vt 0.846762 0.265647 0.000000
vt 0.813828 0.272183 0.000000
vt 0.829792 0.248676 0.000000
vt 0.860156 0.249271 0.000000
vt 0.853299 0.232713 0.000000
vt 0.881209 0.195753 0.000000
vt 0.921190 0.203571 0.000000
vt 0.963536 0.491396 0.000000
vt 0.944540 0.586980 0.000000
vt 0.963536 0.558516 0.000000
vt 0.882515 0.612672 0.000000
vt 0.916075 0.605977 0.000000
vt 0.820490 0.586980 0.000000
vt 0.848955 0.605977 0.000000
vt 0.794798 0.524956 0.000000
vt 0.801494 0.558516 0.000000
vt 0.820490 0.462931 0.000000
vt 0.801494 0.491396 0.000000
vt 0.848955 0.443935 0.000000
vt 0.899644 0.483602 0.000000
vt 0.882515 0.480228 0.000000
vt 0.914142 0.493329 0.000000
vt 0.923868 0.507827 0.000000
vt 0.927242 0.524956 0.000000
vt 0.923868 0.542085 0.000000
vt 0.914142 0.556583 0.000000
vt 0.899644 0.566309 0.000000
vt 0.882515 0.569684 0.000000
vt 0.730812 0.980961 0.000000
vt 0.712431 0.971786 0.000000
vt 0.720506 0.950673 0.000000
vt 0.743039 0.961092 0.000000
vt 0.748180 0.993045 0.000000
vt 0.760482 0.975361 0.000000
vt 0.692702 0.966348 0.000000
vt 0.672133 0.962846 0.000000
vt 0.675144 0.942767 0.000000
vt 0.696992 0.946002 0.000000
vt 0.651420 0.960028 0.000000
vt 0.630998 0.957411 0.000000
vt 0.633548 0.937486 0.000000
vt 0.654033 0.940057 0.000000
vt 0.611081 0.954844 0.000000
vt 0.591496 0.952285 0.000000
vt 0.594128 0.932323 0.000000
vt 0.613670 0.934919 0.000000
vt 0.608439 0.623758 0.000000
vt 0.629580 0.621755 0.000000
vt 0.631605 0.642847 0.000000
vt 0.610515 0.644917 0.000000
vt 0.651136 0.619755 0.000000
vt 0.672903 0.617592 0.000000
vt 0.675287 0.638819 0.000000
vt 0.653194 0.640847 0.000000
vt 0.694549 0.614851 0.000000
vt 0.715734 0.610721 0.000000
vt 0.721873 0.632784 0.000000
vt 0.697897 0.636473 0.000000
vt 0.734575 0.603604 0.000000
vt 0.744351 0.623190 0.000000
vt 0.922229 0.871498 0.000000
vt 0.935911 0.854798 0.000000
vt 0.966018 0.841546 0.000000
vt 0.950979 0.869215 0.000000
vt 0.923512 0.822991 0.000000
vt 0.950805 0.808149 0.000000
vt 0.963859 0.791022 0.000000
vt 0.989298 0.838305 0.000000
vt 0.971172 0.880827 0.000000
vt 0.677584 0.922586 0.000000
vt 0.679237 0.900900 0.000000
vt 0.700881 0.901762 0.000000
vt 0.699841 0.924786 0.000000
vt 0.679911 0.858310 0.000000
vt 0.699596 0.856324 0.000000
vt 0.747986 0.850854 0.000000
vt 0.753240 0.900188 0.000000
vt 0.746956 0.926874 0.000000
vt 0.635969 0.918034 0.000000
vt 0.638435 0.897322 0.000000
vt 0.658439 0.899405 0.000000
vt 0.656373 0.920391 0.000000
vt 0.643307 0.857006 0.000000
vt 0.661226 0.858525 0.000000
vt 0.596763 0.912833 0.000000
vt 0.599745 0.891868 0.000000
vt 0.619006 0.894747 0.000000
vt 0.616215 0.915498 0.000000
vt 0.606945 0.848801 0.000000
vt 0.625548 0.853718 0.000000
vt 0.633588 0.663359 0.000000
vt 0.635741 0.685179 0.000000
vt 0.615202 0.687580 0.000000
vt 0.612655 0.665541 0.000000
vt 0.640287 0.727712 0.000000
vt 0.621799 0.731279 0.000000
vt 0.677106 0.659751 0.000000
vt 0.678324 0.682214 0.000000
vt 0.656700 0.683370 0.000000
vt 0.655025 0.661431 0.000000
vt 0.678390 0.726126 0.000000
vt 0.658957 0.726004 0.000000
vt 0.747409 0.657294 0.000000
vt 0.753140 0.684139 0.000000
vt 0.700579 0.681699 0.000000
vt 0.700018 0.658293 0.000000
vt 0.748325 0.734023 0.000000
vt 0.698864 0.728185 0.000000
vt 0.965523 0.742826 0.000000
vt 0.950276 0.716543 0.000000
vt 0.949042 0.773502 0.000000
vt 0.922523 0.760936 0.000000
vt 0.935484 0.730766 0.000000
vt 0.922257 0.714155 0.000000
vt 0.736498 0.831210 0.000000
vt 0.757522 0.811650 0.000000
vt 0.850653 0.809716 0.000000
vt 0.845841 0.824178 0.000000
vt 0.761461 0.792544 0.000000
vt 0.854046 0.792398 0.000000
vt 0.928145 0.791420 0.000000
vt 0.924691 0.805720 0.000000
vt 0.904364 0.816409 0.000000
vt 0.757499 0.773439 0.000000
vt 0.850534 0.775169 0.000000
vt 0.736509 0.753880 0.000000
vt 0.845626 0.760824 0.000000
vt 0.903888 0.767454 0.000000
vt 0.924135 0.777478 0.000000
vt 0.845883 0.744829 0.000000
vt 0.854422 0.704031 0.000000
vt 0.778387 0.644964 0.000000
vt 0.872574 0.675541 0.000000
vt 0.861038 0.687959 0.000000
vt 0.790991 0.957130 0.000000
vt 0.884516 0.658739 0.000000
vt 0.777835 0.939615 0.000000
vt 0.872075 0.909927 0.000000
vt 0.860657 0.897452 0.000000
vt 0.854161 0.881386 0.000000
vt 0.846197 0.840326 0.000000
vt 0.678555 0.843251 0.000000
vt 0.696598 0.839857 0.000000
vt 0.645833 0.842827 0.000000
vt 0.661962 0.844123 0.000000
vt 0.612695 0.832234 0.000000
vt 0.629853 0.839145 0.000000
vt 0.643034 0.742466 0.000000
vt 0.626401 0.746431 0.000000
vt 0.677092 0.741754 0.000000
vt 0.659834 0.740984 0.000000
vt 0.695793 0.745133 0.000000
vt 0.706748 0.805172 0.000000
vt 0.709341 0.792819 0.000000
vt 0.699388 0.815478 0.000000
vt 0.688383 0.822239 0.000000
vt 0.675844 0.825934 0.000000
vt 0.662886 0.826306 0.000000
vt 0.649955 0.824783 0.000000
vt 0.637567 0.821013 0.000000
vt 0.626082 0.814769 0.000000
vt 0.634590 0.765293 0.000000
vt 0.647493 0.761255 0.000000
vt 0.660979 0.759529 0.000000
vt 0.674493 0.759743 0.000000
vt 0.687536 0.763372 0.000000
vt 0.698936 0.770127 0.000000
vt 0.706556 0.780468 0.000000
vt 0.915514 0.217273 0.000000
vt 0.881209 0.210749 0.000000
vt 0.954989 0.226313 0.000000
vt 0.944384 0.236919 0.000000
vt 0.940817 0.240485 0.000000
vt 0.913710 0.221629 0.000000
vt 0.881209 0.215795 0.000000
vt 0.977732 0.260113 0.000000
vt 0.964029 0.265788 0.000000
vt 0.985549 0.300094 0.000000
vt 0.970553 0.300094 0.000000
vt 0.965506 0.300094 0.000000
vt 0.959674 0.267593 0.000000
vt 0.977732 0.340074 0.000000
vt 0.964029 0.334399 0.000000
vt 0.954989 0.373874 0.000000
vt 0.944384 0.363269 0.000000
vt 0.940815 0.359702 0.000000
vt 0.959674 0.332594 0.000000
vt 0.921190 0.396616 0.000000
vt 0.915514 0.382916 0.000000
vt 0.881209 0.404436 0.000000
vt 0.881209 0.389438 0.000000
vt 0.881209 0.384392 0.000000
vt 0.913710 0.378558 0.000000
vt 0.841227 0.396616 0.000000
vt 0.846903 0.382916 0.000000
vt 0.807428 0.373874 0.000000
vt 0.818033 0.363269 0.000000
vt 0.821602 0.359702 0.000000
vt 0.848707 0.378558 0.000000
vt 0.784686 0.340074 0.000000
vt 0.798390 0.334399 0.000000
vt 0.776868 0.300094 0.000000
vt 0.865386 0.566309 0.000000
vt 0.850887 0.556583 0.000000
vt 0.841161 0.542085 0.000000
vt 0.837787 0.524956 0.000000
vt 0.841161 0.507827 0.000000
vt 0.850887 0.493329 0.000000
vt 0.865386 0.483603 0.000000
vt 0.791865 0.300094 0.000000
vt 0.796911 0.300094 0.000000
vt 0.802744 0.332594 0.000000
vt 0.784686 0.260113 0.000000
vt 0.798390 0.265788 0.000000
vt 0.807428 0.226313 0.000000
vt 0.818033 0.236919 0.000000
vt 0.821602 0.240485 0.000000
vt 0.802745 0.267593 0.000000
vt 0.841227 0.203571 0.000000
vt 0.846905 0.217273 0.000000
vt 0.848707 0.221629 0.000000
vt 0.750677 0.593717 0.000000
vt 0.761389 0.609636 0.000000
vt 0.587574 0.625788 0.000000
vt 0.589658 0.647048 0.000000
vt 0.985524 0.744841 0.000000
vt 0.969496 0.705543 0.000000
vt 0.591854 0.667888 0.000000
vt 0.594581 0.690403 0.000000
vt 0.602481 0.736499 0.000000
vt 0.791576 0.627632 0.000000
vt 0.883875 0.926949 0.000000
vt 0.608561 0.753749 0.000000
vt 0.622649 0.771889 0.000000
vt 0.653305 0.429383 0.000000
vt 0.674402 0.429383 0.000000
vt 0.674402 0.604780 0.000000
vt 0.653305 0.604780 0.000000
vt 0.687962 0.429383 0.000000
vt 0.687962 0.604780 0.000000
vt 0.701522 0.429383 0.000000
vt 0.701522 0.604780 0.000000
vt 0.583992 0.429383 0.000000
vt 0.583992 0.604780 0.000000
vt 0.605088 0.429383 0.000000
vt 0.605088 0.604780 0.000000
vt 0.618649 0.429383 0.000000
vt 0.618648 0.604780 0.000000
vt 0.632208 0.429383 0.000000
vt 0.632208 0.604780 0.000000
vt 0.683715 0.210695 0.000000
vt 0.725744 0.228289 0.000000
vt 0.706918 0.246974 0.000000
vt 0.683615 0.237219 0.000000
vt 0.641552 0.227972 0.000000
vt 0.660238 0.246799 0.000000
vt 0.623958 0.270004 0.000000
vt 0.650484 0.270103 0.000000
vt 0.653393 0.364796 0.000000
vt 0.635955 0.406891 0.000000
vt 0.617200 0.388136 0.000000
vt 0.626868 0.364796 0.000000
vt 0.593859 0.424329 0.000000
vt 0.593859 0.397803 0.000000
vt 0.551762 0.406891 0.000000
vt 0.570519 0.388135 0.000000
vt 0.641236 0.312165 0.000000
vt 0.534325 0.364796 0.000000
vt 0.560851 0.364796 0.000000
vt 0.551762 0.322700 0.000000
vt 0.570519 0.341456 0.000000
vt 0.593859 0.305263 0.000000
vt 0.593860 0.331788 0.000000
vt 0.635956 0.322701 0.000000
vt 0.617200 0.341456 0.000000
vt 0.593859 0.364796 0.000000
vt 0.660062 0.293479 0.000000
vt 0.683267 0.329759 0.000000
vt 0.683366 0.303235 0.000000
vt 0.725428 0.312481 0.000000
vt 0.706743 0.293655 0.000000
vt 0.743023 0.270450 0.000000
vt 0.716498 0.270350 0.000000
vt 0.683490 0.270226 0.000000
vt 0.562895 0.429383 0.000000
vt 0.562895 0.604780 0.000000
vt 0.653305 0.429383 0.000000
vt 0.674402 0.429383 0.000000
vt 0.674402 0.604780 0.000000
vt 0.653305 0.604780 0.000000
vt 0.687962 0.429383 0.000000
vt 0.687962 0.604780 0.000000
vt 0.701522 0.429383 0.000000
vt 0.701522 0.604780 0.000000
vt 0.562895 0.429383 0.000000
vt 0.583992 0.429383 0.000000
vt 0.583992 0.604780 0.000000
vt 0.562895 0.604780 0.000000
vt 0.605088 0.429383 0.000000
vt 0.605088 0.604780 0.000000
vt 0.618649 0.429383 0.000000
vt 0.618648 0.604780 0.000000
vt 0.632208 0.429383 0.000000
vt 0.632208 0.604780 0.000000
vt 0.683715 0.210695 0.000000
vt 0.725744 0.228289 0.000000
vt 0.706918 0.246974 0.000000
vt 0.683615 0.237219 0.000000
vt 0.641552 0.227972 0.000000
vt 0.660238 0.246799 0.000000
vt 0.623958 0.270004 0.000000
vt 0.650484 0.270103 0.000000
vt 0.641236 0.312165 0.000000
vt 0.660062 0.293479 0.000000
vt 0.683267 0.329759 0.000000
vt 0.683366 0.303235 0.000000
vt 0.725428 0.312481 0.000000
vt 0.706743 0.293655 0.000000
vt 0.743023 0.270450 0.000000
vt 0.716498 0.270350 0.000000
vt 0.653393 0.364796 0.000000
vt 0.635955 0.406891 0.000000
vt 0.617200 0.388136 0.000000
vt 0.626868 0.364796 0.000000
vt 0.593859 0.424329 0.000000
vt 0.593859 0.397803 0.000000
vt 0.551762 0.406891 0.000000
vt 0.570519 0.388135 0.000000
vt 0.534325 0.364796 0.000000
vt 0.560851 0.364796 0.000000
vt 0.551762 0.322700 0.000000
vt 0.570519 0.341456 0.000000
vt 0.593859 0.305263 0.000000
vt 0.593860 0.331788 0.000000
vt 0.635956 0.322701 0.000000
vt 0.617200 0.341456 0.000000
vt 0.683490 0.270226 0.000000
vt 0.593859 0.364796 0.000000
vt 0.653305 0.429383 0.000000
vt 0.674402 0.429383 0.000000
vt 0.674402 0.604780 0.000000
vt 0.653305 0.604780 0.000000
vt 0.687962 0.429383 0.000000
vt 0.687962 0.604780 0.000000
vt 0.701522 0.429383 0.000000
vt 0.701522 0.604780 0.000000
vt 0.562895 0.429383 0.000000
vt 0.583992 0.429383 0.000000
vt 0.583992 0.604780 0.000000
vt 0.562895 0.604780 0.000000
vt 0.605088 0.429383 0.000000
vt 0.605088 0.604780 0.000000
vt 0.618649 0.429383 0.000000
vt 0.618648 0.604780 0.000000
vt 0.632208 0.429383 0.000000
vt 0.632208 0.604780 0.000000
vt 0.683715 0.210695 0.000000
vt 0.725744 0.228289 0.000000
vt 0.706918 0.246974 0.000000
vt 0.683615 0.237219 0.000000
vt 0.641552 0.227972 0.000000
vt 0.660238 0.246799 0.000000
vt 0.623958 0.270004 0.000000
vt 0.650484 0.270103 0.000000
vt 0.641236 0.312165 0.000000
vt 0.660062 0.293479 0.000000
vt 0.683267 0.329759 0.000000
vt 0.683366 0.303235 0.000000
vt 0.725428 0.312481 0.000000
vt 0.706743 0.293655 0.000000
vt 0.743023 0.270450 0.000000
vt 0.716498 0.270350 0.000000
vt 0.653393 0.364796 0.000000
vt 0.635955 0.406891 0.000000
vt 0.617200 0.388136 0.000000
vt 0.626868 0.364796 0.000000
vt 0.593859 0.424329 0.000000
vt 0.593859 0.397803 0.000000
vt 0.551762 0.406891 0.000000
vt 0.570519 0.388135 0.000000
vt 0.534325 0.364796 0.000000
vt 0.560851 0.364796 0.000000
vt 0.551762 0.322700 0.000000
vt 0.570519 0.341456 0.000000
vt 0.593859 0.305263 0.000000
vt 0.593860 0.331788 0.000000
vt 0.635956 0.322701 0.000000
vt 0.617200 0.341456 0.000000
vt 0.683490 0.270226 0.000000
vt 0.593859 0.364796 0.000000
# 840 texture coords

o ???010
g ???010
f 5/4 7/3 2/2 1/1 
f 2/14 3/13 4/6 1/5 
f 4/20 3/19 8/18 6/17 
f 5/16 6/15 8/8 7/7 
f 6/12 5/10 1/9 4/11 
f 7/21 8/22 3/23 2/24 
f 225/28 82/27 81/26 293/25 
f 82/27 224/30 286/29 81/26 
f 224/30 84/32 83/31 286/29 
f 84/32 226/34 287/33 83/31 
f 226/34 86/36 85/35 287/33 
f 86/36 227/38 288/37 85/35 
f 227/38 88/40 87/39 288/37 
f 88/40 228/42 289/41 87/39 
f 228/42 90/44 89/43 289/41 
f 90/44 229/46 290/45 89/43 
f 229/46 92/48 91/47 290/45 
f 92/48 230/50 292/49 91/47 
f 230/50 94/52 93/51 292/49 
f 94/52 231/54 291/53 93/51 
f 231/54 96/56 95/55 291/53 
f 96/56 225/28 293/25 95/55 
f 235/60 98/59 97/58 232/57 
f 98/59 234/62 233/61 97/58 
f 234/62 100/64 99/63 233/61 
f 100/64 237/66 236/65 99/63 
f 237/66 102/68 101/67 236/65 
f 102/68 239/70 238/69 101/67 
f 239/70 104/72 103/71 238/69 
f 104/72 240/74 223/73 103/71 
f 240/74 106/76 105/75 223/73 
f 106/76 242/78 241/77 105/75 
f 242/78 108/80 107/79 241/77 
f 108/80 244/82 243/81 107/79 
f 244/82 110/84 109/83 243/81 
f 110/84 246/86 245/85 109/83 
f 246/86 112/88 111/87 245/85 
f 112/88 235/60 232/57 111/87 
f 114/96 25/95 113/94 247/93 
f 113/94 25/95 115/98 248/97 
f 115/98 25/95 114/96 249/99 
f 116/101 26/100 114/96 247/93 
f 114/96 26/100 117/102 249/99 
f 117/102 26/100 116/101 250/103 
f 118/105 27/104 116/101 247/93 
f 116/101 27/104 119/106 250/103 
f 119/106 27/104 118/105 251/107 
f 120/109 28/108 118/105 247/93 
f 118/105 28/108 121/110 251/107 
f 121/110 28/108 120/109 252/111 
f 122/113 29/112 120/109 247/93 
f 120/109 29/112 123/114 252/111 
f 123/114 29/112 122/113 253/115 
f 124/117 30/116 122/113 247/93 
f 122/113 30/116 125/118 253/115 
f 125/118 30/116 124/117 254/119 
f 126/121 31/120 124/117 247/93 
f 124/117 31/120 127/122 254/119 
f 127/122 31/120 126/121 255/123 
f 113/94 32/124 126/121 247/93 
f 126/121 32/124 128/125 255/123 
f 128/125 32/124 113/94 248/97 
f 82/27 10/90 129/89 224/30 
f 10/90 97/58 233/61 129/89 
f 130/91 232/57 97/58 10/90 
f 225/28 130/91 10/90 82/27 
f 84/32 9/128 131/92 226/34 
f 9/128 99/63 236/65 131/92 
f 129/89 233/61 99/63 9/128 
f 224/30 129/89 9/128 84/32 
f 86/36 12/130 132/129 227/38 
f 12/130 101/67 238/69 132/129 
f 131/92 236/65 101/67 12/130 
f 226/34 131/92 12/130 86/36 
f 88/40 13/132 133/131 228/42 
f 13/132 103/71 223/73 133/131 
f 132/129 238/69 103/71 13/132 
f 227/38 132/129 13/132 88/40 
f 90/44 14/134 134/133 229/46 
f 14/134 105/75 241/77 134/133 
f 133/131 223/73 105/75 14/134 
f 228/42 133/131 14/134 90/44 
f 92/48 15/136 135/135 230/50 
f 15/136 107/79 243/81 135/135 
f 134/133 241/77 107/79 15/136 
f 229/46 134/133 15/136 92/48 
f 94/52 16/138 136/137 231/54 
f 16/138 109/83 245/85 136/137 
f 135/135 243/81 109/83 16/138 
f 230/50 135/135 16/138 94/52 
f 96/56 11/139 130/91 225/28 
f 11/139 111/87 232/57 130/91 
f 136/137 245/85 111/87 11/139 
f 231/54 136/137 11/139 96/56 
f 137/141 18/140 98/59 235/60 
f 18/140 138/142 234/62 98/59 
f 42/152 177/151 138/150 18/149 
f 178/154 42/152 18/149 137/153 
f 138/142 17/143 100/64 234/62 
f 17/143 139/144 237/66 100/64 
f 41/158 179/157 139/156 17/155 
f 177/151 41/158 17/155 138/150 
f 139/144 20/145 102/68 237/66 
f 20/145 140/146 239/70 102/68 
f 44/162 180/161 140/160 20/159 
f 179/157 44/162 20/159 139/156 
f 140/146 21/147 104/72 239/70 
f 21/147 141/148 240/74 104/72 
f 45/166 181/165 141/164 21/163 
f 180/161 45/166 21/163 140/160 
f 141/148 22/323 106/76 240/74 
f 22/323 142/324 242/78 106/76 
f 46/170 182/169 142/168 22/167 
f 181/345 46/170 22/167 141/344 
f 142/324 23/325 108/80 242/78 
f 23/325 143/326 244/82 108/80 
f 47/174 183/173 143/172 23/171 
f 182/169 47/174 23/171 142/168 
f 143/326 24/327 110/84 244/82 
f 24/327 144/328 246/86 110/84 
f 48/178 184/177 144/176 24/175 
f 183/173 48/178 24/175 143/172 
f 144/328 19/329 112/88 246/86 
f 19/329 137/141 235/60 112/88 
f 43/180 178/343 137/342 19/179 
f 184/177 43/180 19/179 144/176 
f 146/184 49/183 145/182 257/181 
f 49/183 53/186 185/185 145/182 
f 147/188 186/187 53/186 49/183 
f 258/189 147/188 49/183 146/184 
f 149/193 57/192 148/191 259/190 
f 57/192 60/195 187/194 148/191 
f 150/197 189/196 60/195 57/192 
f 260/198 150/197 57/192 149/193 
f 152/202 58/201 151/200 261/199 
f 58/201 59/204 190/203 151/200 
f 148/191 187/194 59/204 58/201 
f 259/190 148/191 58/201 152/202 
f 154/208 61/207 153/206 262/205 
f 61/207 62/210 192/209 153/206 
f 151/200 190/203 62/210 61/207 
f 261/199 151/200 61/207 154/208 
f 156/214 63/213 155/212 263/211 
f 63/213 64/216 194/215 155/212 
f 153/349 192/350 64/216 63/213 
f 262/348 153/349 63/213 156/214 
f 158/220 65/219 157/218 264/217 
f 65/219 66/222 196/221 157/218 
f 155/212 194/215 66/222 65/219 
f 263/211 155/212 65/219 158/220 
f 160/226 67/225 159/224 265/223 
f 67/225 68/228 170/227 159/224 
f 157/218 196/221 68/228 67/225 
f 264/217 157/218 67/225 160/226 
f 161/230 55/229 147/346 258/347 
f 55/229 54/231 186/187 147/346 
f 162/233 171/232 54/231 55/229 
f 266/234 162/233 55/229 161/230 
f 164/238 71/237 163/236 267/235 
f 71/237 165/240 268/239 163/236 
f 166/242 269/241 165/240 71/237 
f 270/243 166/242 71/237 164/238 
f 165/240 72/245 167/244 268/239 
f 72/245 168/247 271/246 167/244 
f 169/249 272/248 168/247 72/245 
f 269/241 169/249 72/245 165/240 
f 168/247 70/250 170/227 271/246 
f 70/250 69/251 159/224 170/227 
f 171/232 162/233 69/251 70/250 
f 272/248 171/232 70/250 168/247 
f 173/254 56/253 172/252 265/223 
f 56/253 174/256 273/351 172/252 
f 161/230 258/347 174/256 56/253 
f 266/234 161/230 56/253 173/254 
f 174/352 50/258 175/257 273/255 
f 50/258 176/259 260/198 175/257 
f 146/184 257/181 176/259 50/258 
f 258/189 146/184 50/258 174/352 
f 176/259 51/260 150/197 260/198 
f 51/260 52/261 189/196 150/197 
f 145/182 185/185 52/261 51/260 
f 257/181 145/182 51/260 176/259 
f 42/152 175/257 260/198 177/151 
f 178/154 273/255 175/257 42/152 
f 41/158 149/193 259/190 179/157 
f 177/151 260/198 149/193 41/158 
f 44/162 152/202 261/199 180/161 
f 179/157 259/190 152/202 44/162 
f 45/166 154/208 262/205 181/165 
f 180/161 261/199 154/208 45/166 
f 46/170 156/214 263/211 182/169 
f 181/345 262/348 156/214 46/170 
f 47/174 158/220 264/217 183/173 
f 182/169 263/211 158/220 47/174 
f 48/178 160/226 265/223 184/177 
f 183/173 264/217 160/226 48/178 
f 43/180 172/252 273/351 178/343 
f 184/177 265/223 172/252 43/180 
f 53/186 166/242 270/243 185/185 
f 186/187 269/241 166/242 53/186 
f 60/195 188/263 274/262 187/194 
f 189/196 267/235 188/263 60/195 
f 59/204 191/265 275/264 190/203 
f 187/194 274/262 191/265 59/204 
f 62/210 193/267 276/266 192/209 
f 190/203 275/264 193/267 62/210 
f 64/216 195/269 277/268 194/215 
f 192/350 276/353 195/269 64/216 
f 66/222 197/271 278/270 196/221 
f 194/215 277/268 197/271 66/222 
f 68/228 198/272 271/246 170/227 
f 196/221 278/270 198/272 68/228 
f 54/231 169/249 269/241 186/187 
f 171/232 272/248 169/249 54/231 
f 69/251 173/254 265/223 159/224 
f 162/233 266/234 173/254 69/251 
f 52/261 164/238 267/235 189/196 
f 185/185 270/243 164/238 52/261 
f 280/274 199/273 163/236 268/239 
f 199/273 279/275 267/235 163/236 
f 279/275 200/276 188/263 267/235 
f 200/276 281/277 274/262 188/263 
f 281/277 201/278 191/265 274/262 
f 201/278 256/279 275/264 191/265 
f 256/279 202/280 193/267 275/264 
f 202/280 282/281 276/266 193/267 
f 282/354 203/282 195/269 276/353 
f 203/282 283/283 277/268 195/269 
f 283/283 204/284 197/271 277/268 
f 204/284 284/285 278/270 197/271 
f 284/285 205/286 198/272 278/270 
f 205/286 285/287 271/246 198/272 
f 285/287 206/288 167/244 271/246 
f 206/288 280/274 268/239 167/244 
f 207/290 74/289 199/127 280/126 
f 74/289 208/292 279/291 199/127 
f 34/294 215/293 208/292 74/289 
f 216/295 34/294 74/289 207/290 
f 208/292 73/297 200/296 279/291 
f 73/297 209/299 281/298 200/296 
f 35/301 217/300 209/299 73/297 
f 215/293 35/301 73/297 208/292 
f 209/299 76/303 201/302 281/298 
f 76/303 210/305 256/304 201/302 
f 36/307 218/306 210/305 76/303 
f 217/300 36/307 76/303 209/299 
f 210/305 77/309 202/308 256/304 
f 77/309 211/311 282/310 202/308 
f 37/313 219/312 211/311 77/309 
f 218/306 37/313 77/309 210/305 
f 211/311 78/315 203/314 282/310 
f 78/315 212/317 283/316 203/314 
f 38/319 220/318 212/317 78/315 
f 219/312 38/319 78/315 211/311 
f 212/317 79/321 204/320 283/316 
f 79/321 213/330 284/322 204/320 
f 39/332 221/331 213/330 79/321 
f 220/318 39/332 79/321 212/317 
f 213/330 80/334 205/333 284/322 
f 80/334 214/336 285/335 205/333 
f 40/338 222/337 214/336 80/334 
f 221/331 40/338 80/334 213/330 
f 214/336 75/340 206/339 285/335 
f 75/340 207/290 280/126 206/339 
f 33/341 216/295 207/290 75/340 
f 222/337 33/341 75/340 214/336 
f 34/294 115/98 249/99 215/293 
f 216/295 248/97 115/98 34/294 
f 35/301 117/102 250/103 217/300 
f 215/293 249/99 117/102 35/301 
f 36/307 119/106 251/107 218/306 
f 217/300 250/103 119/106 36/307 
f 37/313 121/110 252/111 219/312 
f 218/306 251/107 121/110 37/313 
f 38/319 123/114 253/115 220/318 
f 219/312 252/111 123/114 38/319 
f 39/332 125/118 254/119 221/331 
f 220/318 253/115 125/118 39/332 
f 40/338 127/122 255/123 222/337 
f 221/331 254/119 127/122 40/338 
f 33/341 128/125 248/97 216/295 
f 222/337 255/123 128/125 33/341 
f 366/356 367/357 510/358 578/355 
f 571/359 509/360 367/357 366/356 
f 368/361 369/362 509/360 571/359 
f 572/363 511/364 369/362 368/361 
f 370/365 371/366 511/364 572/363 
f 573/367 512/368 371/366 370/365 
f 372/369 373/370 512/368 573/367 
f 574/371 513/372 373/370 372/369 
f 374/373 375/374 513/372 574/371 
f 575/375 514/376 375/374 374/373 
f 376/377 377/378 514/376 575/375 
f 577/379 515/380 377/378 376/377 
f 378/381 379/382 515/380 577/379 
f 576/383 516/384 379/382 378/381 
f 380/385 381/386 516/384 576/383 
f 578/355 510/358 381/386 380/385 
f 382/388 383/389 520/390 517/387 
f 518/391 519/392 383/389 382/388 
f 384/393 385/394 519/392 518/391 
f 521/395 522/396 385/394 384/393 
f 386/397 387/398 522/396 521/395 
f 523/399 524/400 387/398 386/397 
f 388/401 389/402 524/400 523/399 
f 508/403 525/404 389/402 388/401 
f 390/405 391/406 525/404 508/403 
f 526/407 527/408 391/406 390/405 
f 392/409 393/410 527/408 526/407 
f 528/411 529/412 393/410 392/409 
f 394/413 395/414 529/412 528/411 
f 530/415 531/416 395/414 394/413 
f 396/417 397/418 531/416 530/415 
f 517/387 520/390 397/418 396/417 
f 398/424 310/425 399/426 532/423 
f 400/428 310/425 398/424 533/427 
f 399/426 310/425 400/428 534/429 
f 399/426 311/430 401/431 532/423 
f 402/432 311/430 399/426 534/429 
f 401/431 311/430 402/432 535/433 
f 401/431 312/434 403/435 532/423 
f 404/436 312/434 401/431 535/433 
f 403/435 312/434 404/436 536/437 
f 403/435 313/438 405/439 532/423 
f 406/440 313/438 403/435 536/437 
f 405/439 313/438 406/440 537/441 
f 405/439 314/442 407/443 532/423 
f 408/444 314/442 405/439 537/441 
f 407/443 314/442 408/444 538/445 
f 407/443 315/446 409/447 532/423 
f 410/448 315/446 407/443 538/445 
f 409/447 315/446 410/448 539/449 
f 409/447 316/450 411/451 532/423 
f 412/452 316/450 409/447 539/449 
f 411/451 316/450 412/452 540/453 
f 411/451 317/454 398/424 532/423 
f 413/455 317/454 411/451 540/453 
f 398/424 317/454 413/455 533/427 
f 414/419 295/420 367/357 509/360 
f 518/391 382/388 295/420 414/419 
f 382/388 517/387 415/421 295/420 
f 295/420 415/421 510/358 367/357 
f 416/422 294/458 369/362 511/364 
f 521/395 384/393 294/458 416/422 
f 384/393 518/391 414/419 294/458 
f 294/458 414/419 509/360 369/362 
f 417/459 297/460 371/366 512/368 
f 523/399 386/397 297/460 417/459 
f 386/397 521/395 416/422 297/460 
f 297/460 416/422 511/364 371/366 
f 418/461 298/462 373/370 513/372 
f 508/403 388/401 298/462 418/461 
f 388/401 523/399 417/459 298/462 
f 298/462 417/459 512/368 373/370 
f 419/463 299/464 375/374 514/376 
f 526/407 390/405 299/464 419/463 
f 390/405 508/403 418/461 299/464 
f 299/464 418/461 513/372 375/374 
f 420/465 300/466 377/378 515/380 
f 528/411 392/409 300/466 420/465 
f 392/409 526/407 419/463 300/466 
f 300/466 419/463 514/376 377/378 
f 421/467 301/468 379/382 516/384 
f 530/415 394/413 301/468 421/467 
f 394/413 528/411 420/465 301/468 
f 301/468 420/465 515/380 379/382 
f 415/421 296/469 381/386 510/358 
f 517/387 396/417 296/469 415/421 
f 396/417 530/415 421/467 296/469 
f 296/469 421/467 516/384 381/386 
f 383/389 303/470 422/471 520/390 
f 519/392 423/472 303/470 383/389 
f 423/480 462/481 327/482 303/479 
f 303/479 327/482 463/484 422/483 
f 385/394 302/473 423/472 519/392 
f 522/396 424/474 302/473 385/394 
f 424/486 464/487 326/488 302/485 
f 302/485 326/488 462/481 423/480 
f 387/398 305/475 424/474 522/396 
f 524/400 425/476 305/475 387/398 
f 425/490 465/491 329/492 305/489 
f 305/489 329/492 464/487 424/486 
f 389/402 306/477 425/476 524/400 
f 525/404 426/478 306/477 389/402 
f 426/494 466/495 330/496 306/493 
f 306/493 330/496 465/491 425/490 
f 391/406 307/653 426/478 525/404 
f 527/408 427/654 307/653 391/406 
f 427/498 467/499 331/500 307/497 
f 307/497 331/500 466/675 426/674 
f 393/410 308/655 427/654 527/408 
f 529/412 428/656 308/655 393/410 
f 428/502 468/503 332/504 308/501 
f 308/501 332/504 467/499 427/498 
f 395/414 309/657 428/656 529/412 
f 531/416 429/658 309/657 395/414 
f 429/506 469/507 333/508 309/505 
f 309/505 333/508 468/503 428/502 
f 397/418 304/659 429/658 531/416 
f 520/390 422/471 304/659 397/418 
f 422/672 463/673 328/510 304/509 
f 304/509 328/510 469/507 429/506 
f 430/512 334/513 431/514 542/511 
f 470/515 338/516 334/513 430/512 
f 338/516 471/517 432/518 334/513 
f 334/513 432/518 543/519 431/514 
f 433/521 342/522 434/523 544/520 
f 472/524 345/525 342/522 433/521 
f 345/525 474/526 435/527 342/522 
f 342/522 435/527 545/528 434/523 
f 436/530 343/531 437/532 546/529 
f 475/533 344/534 343/531 436/530 
f 344/534 472/524 433/521 343/531 
f 343/531 433/521 544/520 437/532 
f 438/536 346/537 439/538 547/535 
f 477/539 347/540 346/537 438/536 
f 347/540 475/533 436/530 346/537 
f 346/537 436/530 546/529 439/538 
f 440/542 348/543 441/544 548/541 
f 479/545 349/546 348/543 440/542 
f 349/546 477/680 438/679 348/543 
f 348/543 438/679 547/678 441/544 
f 442/548 350/549 443/550 549/547 
f 481/551 351/552 350/549 442/548 
f 351/552 479/545 440/542 350/549 
f 350/549 440/542 548/541 443/550 
f 444/554 352/555 445/556 550/553 
f 455/557 353/558 352/555 444/554 
f 353/558 481/551 442/548 352/555 
f 352/555 442/548 549/547 445/556 
f 432/676 340/559 446/560 543/677 
f 471/517 339/561 340/559 432/676 
f 339/561 456/562 447/563 340/559 
f 340/559 447/563 551/564 446/560 
f 448/566 356/567 449/568 552/565 
f 553/569 450/570 356/567 448/566 
f 450/570 554/571 451/572 356/567 
f 356/567 451/572 555/573 449/568 
f 452/574 357/575 450/570 553/569 
f 556/576 453/577 357/575 452/574 
f 453/577 557/578 454/579 357/575 
f 357/575 454/579 554/571 450/570 
f 455/557 355/580 453/577 556/576 
f 444/554 354/581 355/580 455/557 
f 354/581 447/563 456/562 355/580 
f 355/580 456/562 557/578 453/577 
f 457/582 341/583 458/584 550/553 
f 558/681 459/586 341/583 457/582 
f 459/586 543/677 446/560 341/583 
f 341/583 446/560 551/564 458/584 
f 460/587 335/588 459/682 558/585 
f 545/528 461/589 335/588 460/587 
f 461/589 542/511 431/514 335/588 
f 335/588 431/514 543/519 459/682 
f 435/527 336/590 461/589 545/528 
f 474/526 337/591 336/590 435/527 
f 337/591 470/515 430/512 336/590 
f 336/590 430/512 542/511 461/589 
f 545/528 460/587 327/482 462/481 
f 460/587 558/585 463/484 327/482 
f 544/520 434/523 326/488 464/487 
f 434/523 545/528 462/481 326/488 
f 546/529 437/532 329/492 465/491 
f 437/532 544/520 464/487 329/492 
f 547/535 439/538 330/496 466/495 
f 439/538 546/529 465/491 330/496 
f 548/541 441/544 331/500 467/499 
f 441/544 547/678 466/675 331/500 
f 549/547 443/550 332/504 468/503 
f 443/550 548/541 467/499 332/504 
f 550/553 445/556 333/508 469/507 
f 445/556 549/547 468/503 333/508 
f 558/681 457/582 328/510 463/673 
f 457/582 550/553 469/507 328/510 
f 555/573 451/572 338/516 470/515 
f 451/572 554/571 471/517 338/516 
f 559/592 473/593 345/525 472/524 
f 473/593 552/565 474/526 345/525 
f 560/594 476/595 344/534 475/533 
f 476/595 559/592 472/524 344/534 
f 561/596 478/597 347/540 477/539 
f 478/597 560/594 475/533 347/540 
f 562/598 480/599 349/546 479/545 
f 480/599 561/683 477/680 349/546 
f 563/600 482/601 351/552 481/551 
f 482/601 562/598 479/545 351/552 
f 556/576 483/602 353/558 455/557 
f 483/602 563/600 481/551 353/558 
f 554/571 454/579 339/561 471/517 
f 454/579 557/578 456/562 339/561 
f 550/553 458/584 354/581 444/554 
f 458/584 551/564 447/563 354/581 
f 552/565 449/568 337/591 474/526 
f 449/568 555/573 470/515 337/591 
f 448/566 484/603 565/604 553/569 
f 552/565 564/605 484/603 448/566 
f 473/593 485/606 564/605 552/565 
f 559/592 566/607 485/606 473/593 
f 476/595 486/608 566/607 559/592 
f 560/594 541/609 486/608 476/595 
f 478/597 487/610 541/609 560/594 
f 561/596 567/611 487/610 478/597 
f 480/599 488/612 567/684 561/683 
f 562/598 568/613 488/612 480/599 
f 482/601 489/614 568/613 562/598 
f 563/600 569/615 489/614 482/601 
f 483/602 490/616 569/615 563/600 
f 556/576 570/617 490/616 483/602 
f 452/574 491/618 570/617 556/576 
f 553/569 565/604 491/618 452/574 
f 484/457 359/619 492/620 565/456 
f 564/621 493/622 359/619 484/457 
f 493/622 500/623 319/624 359/619 
f 359/619 319/624 501/625 492/620 
f 485/626 358/627 493/622 564/621 
f 566/628 494/629 358/627 485/626 
f 494/629 502/630 320/631 358/627 
f 358/627 320/631 500/623 493/622 
f 486/632 361/633 494/629 566/628 
f 541/634 495/635 361/633 486/632 
f 495/635 503/636 321/637 361/633 
f 361/633 321/637 502/630 494/629 
f 487/638 362/639 495/635 541/634 
f 567/640 496/641 362/639 487/638 
f 496/641 504/642 322/643 362/639 
f 362/639 322/643 503/636 495/635 
f 488/644 363/645 496/641 567/640 
f 568/646 497/647 363/645 488/644 
f 497/647 505/648 323/649 363/645 
f 363/645 323/649 504/642 496/641 
f 489/650 364/651 497/647 568/646 
f 569/652 498/660 364/651 489/650 
f 498/660 506/661 324/662 364/651 
f 364/651 324/662 505/648 497/647 
f 490/663 365/664 498/660 569/652 
f 570/665 499/666 365/664 490/663 
f 499/666 507/667 325/668 365/664 
f 365/664 325/668 506/661 498/660 
f 491/669 360/670 499/666 570/665 
f 565/456 492/620 360/670 491/669 
f 492/620 501/625 318/671 360/670 
f 360/670 318/671 507/667 499/666 
f 534/429 400/428 319/624 500/623 
f 400/428 533/427 501/625 319/624 
f 535/433 402/432 320/631 502/630 
f 402/432 534/429 500/623 320/631 
f 536/437 404/436 321/637 503/636 
f 404/436 535/433 502/630 321/637 
f 537/441 406/440 322/643 504/642 
f 406/440 536/437 503/636 322/643 
f 538/445 408/444 323/649 505/648 
f 408/444 537/441 504/642 323/649 
f 539/449 410/448 324/662 506/661 
f 410/448 538/445 505/648 324/662 
f 540/453 412/452 325/668 507/667 
f 412/452 539/449 506/661 325/668 
f 533/427 413/455 318/671 501/625 
f 413/455 540/453 507/667 318/671 
f 587/688 588/687 580/686 579/685 
f 588/687 589/690 581/689 580/686 
f 589/690 590/692 582/691 581/689 
f 590/736 591/694 583/693 582/735 
f 591/694 592/696 584/695 583/693 
f 592/696 593/698 585/697 584/695 
f 593/698 594/700 586/699 585/697 
f 594/700 587/688 579/685 586/699 
f 596/704 595/703 579/702 580/701 
f 597/706 596/704 580/701 581/705 
f 598/708 597/706 581/705 582/707 
f 599/727 598/708 582/707 583/717 
f 600/729 599/727 583/717 584/728 
f 601/731 600/729 584/728 585/730 
f 602/733 601/731 585/730 586/732 
f 595/703 602/733 586/732 579/702 
f 603/712 604/711 588/710 587/709 
f 604/711 605/714 589/713 588/710 
f 605/714 606/716 590/715 589/713 
f 606/716 607/719 591/718 590/715 
f 607/719 608/721 592/720 591/718 
f 608/721 609/723 593/722 592/720 
f 609/723 610/725 594/724 593/722 
f 610/725 603/712 587/709 594/724 
f 611/734 595/703 596/704 
f 611/734 596/704 597/706 
f 611/734 597/706 598/708 
f 611/734 598/708 599/727 
f 611/734 599/727 600/729 
f 611/734 600/729 601/731 
f 611/734 601/731 602/733 
f 611/734 602/733 595/703 
f 612/726 604/711 603/712 
f 612/726 605/714 604/711 
f 612/726 606/716 605/714 
f 612/726 607/719 606/716 
f 612/726 608/721 607/719 
f 612/726 609/723 608/721 
f 612/726 610/725 609/723 
f 612/726 603/712 610/725 
f 616/740 615/739 614/738 613/737 
f 615/739 618/742 617/741 614/738 
f 618/742 620/744 619/743 617/741 
f 620/748 622/747 621/746 619/745 
f 622/747 624/750 623/749 621/746 
f 624/750 626/752 625/751 623/749 
f 626/752 628/754 627/753 625/751 
f 628/754 616/740 613/737 627/753 
f 630/758 629/757 613/756 614/755 
f 631/760 630/758 614/755 617/759 
f 632/762 631/760 617/759 619/761 
f 633/764 632/762 619/761 621/763 
f 634/766 633/764 621/763 623/765 
f 635/768 634/766 623/765 625/767 
f 636/770 635/768 625/767 627/769 
f 629/757 636/770 627/769 613/756 
f 638/774 637/773 615/772 616/771 
f 637/773 639/776 618/775 615/772 
f 639/776 640/778 620/777 618/775 
f 640/778 641/780 622/779 620/777 
f 641/780 642/782 624/781 622/779 
f 642/782 643/784 626/783 624/781 
f 643/784 644/786 628/785 626/783 
f 644/786 638/774 616/771 628/785 
f 645/787 629/757 630/758 
f 645/787 630/758 631/760 
f 645/787 631/760 632/762 
f 645/787 632/762 633/764 
f 645/787 633/764 634/766 
f 645/787 634/766 635/768 
f 645/787 635/768 636/770 
f 645/787 636/770 629/757 
f 646/788 637/773 638/774 
f 646/788 639/776 637/773 
f 646/788 640/778 639/776 
f 646/788 641/780 640/778 
f 646/788 642/782 641/780 
f 646/788 643/784 642/782 
f 646/788 644/786 643/784 
f 646/788 638/774 644/786 
f 650/792 649/791 648/790 647/789 
f 649/791 652/794 651/793 648/790 
f 652/794 654/796 653/795 651/793 
f 654/800 656/799 655/798 653/797 
f 656/799 658/802 657/801 655/798 
f 658/802 660/804 659/803 657/801 
f 660/804 662/806 661/805 659/803 
f 662/806 650/792 647/789 661/805 
f 664/810 663/809 647/808 648/807 
f 665/812 664/810 648/807 651/811 
f 666/814 665/812 651/811 653/813 
f 667/816 666/814 653/813 655/815 
f 668/818 667/816 655/815 657/817 
f 669/820 668/818 657/817 659/819 
f 670/822 669/820 659/819 661/821 
f 663/809 670/822 661/821 647/808 
f 672/826 671/825 649/824 650/823 
f 671/825 673/828 652/827 649/824 
f 673/828 674/830 654/829 652/827 
f 674/830 675/832 656/831 654/829 
f 675/832 676/834 658/833 656/831 
f 676/834 677/836 660/835 658/833 
f 677/836 678/838 662/837 660/835 
f 678/838 672/826 650/823 662/837 
f 679/839 663/809 664/810 
f 679/839 664/810 665/812 
f 679/839 665/812 666/814 
f 679/839 666/814 667/816 
f 679/839 667/816 668/818 
f 679/839 668/818 669/820 
f 679/839 669/820 670/822 
f 679/839 670/822 663/809 
f 680/840 671/825 672/826 
f 680/840 673/828 671/825 
f 680/840 674/830 673/828 
f 680/840 675/832 674/830 
f 680/840 676/834 675/832 
f 680/840 677/836 676/834 
f 680/840 678/838 677/836 
f 680/840 672/826 678/838 
# 630 polygons - 48 triangles

