# 3ds Max Wavefront OBJ Exporter v0.97b - (c)2007 guruware
# File Created: 03.08.2021 15:28:36

#
# object ???
#

v  16.206945 8.568630 41.777920
v  16.206945 8.568631 41.487965
v  21.433386 8.568631 41.487965
v  21.432163 8.568630 41.777920
v  16.206947 0.116202 41.777916
v  21.432163 0.116202 41.777920
v  16.206947 0.116198 41.487965
v  21.433386 0.116198 41.487965
v  16.883930 4.223909 41.846188
v  16.983480 4.124358 41.846188
v  16.983480 3.983573 41.846188
v  16.743145 4.223909 41.846188
v  16.643595 4.124358 41.846188
v  16.643595 3.983573 41.846188
v  16.743145 3.884023 41.846188
v  16.883930 3.884023 41.846188
v  16.849623 4.141081 41.847717
v  16.900654 4.090051 41.847717
v  16.900654 4.017881 41.847717
v  16.777454 4.141081 41.847717
v  16.726423 4.090051 41.847717
v  16.726423 4.017881 41.847717
v  16.777454 3.966850 41.847717
v  16.849623 3.966850 41.847717
v  16.845221 4.067089 41.990265
v  16.826660 4.085648 41.990265
v  16.800415 4.085648 41.990265
v  16.781857 4.067089 41.990265
v  16.781857 4.040843 41.990265
v  16.800415 4.022284 41.990265
v  16.826660 4.022284 41.990265
v  16.845221 4.040843 41.990265
v  16.861061 4.034281 41.983139
v  16.861061 4.073650 41.983139
v  16.833223 4.101489 41.983139
v  16.793854 4.101489 41.983139
v  16.766016 4.073650 41.983139
v  16.766016 4.034281 41.983139
v  16.793854 4.006443 41.983139
v  16.833223 4.006443 41.983139
v  16.849623 4.141081 41.865753
v  16.900654 4.090051 41.865753
v  16.900654 4.017881 41.865753
v  16.777454 4.141081 41.865753
v  16.726423 4.090051 41.865753
v  16.726423 4.017881 41.865753
v  16.777454 3.966850 41.865753
v  16.849623 3.966850 41.865753
v  17.335890 4.090051 41.902470
v  17.118271 4.090051 41.882710
v  17.103325 4.126135 41.902470
v  17.103325 4.126135 41.941994
v  17.335890 4.090051 41.941994
v  17.335890 4.017881 41.941994
v  17.335890 4.017881 41.902470
v  17.118271 4.017881 41.882710
v  16.849623 4.141081 41.902470
v  16.777454 4.141081 41.902470
v  16.777454 4.141081 41.941994
v  16.849623 4.141081 41.941994
v  16.726423 4.090051 41.902470
v  16.726423 4.090051 41.941994
v  16.726423 4.017881 41.902470
v  16.726423 4.017881 41.941994
v  16.777454 3.966850 41.902470
v  16.777454 3.966850 41.941994
v  16.849623 3.966850 41.902470
v  16.849623 3.966850 41.941994
v  17.103325 3.981797 41.902470
v  17.103325 3.981797 41.941994
v  17.118271 4.090051 41.961758
v  17.118271 4.017881 41.961758
v  16.833223 4.101489 41.968884
v  16.861061 4.073650 41.968884
v  16.861061 4.034281 41.968884
v  16.793854 4.101489 41.968884
v  16.766016 4.073650 41.968884
v  16.766016 4.034281 41.968884
v  16.793854 4.006443 41.968884
v  16.833223 4.006443 41.968884
v  16.987768 4.126135 41.773663
v  16.986696 4.125690 41.836845
v  16.885708 4.228197 41.773663
v  16.885263 4.227125 41.836845
v  16.741369 4.228197 41.773663
v  16.741814 4.227125 41.836845
v  16.639307 4.126135 41.773663
v  16.640379 4.125690 41.836845
v  16.639307 3.981797 41.773663
v  16.640379 3.982241 41.836845
v  16.741369 3.879735 41.773663
v  16.741814 3.880807 41.836845
v  16.885708 3.879735 41.773663
v  16.885263 3.880807 41.836845
v  16.987768 3.981797 41.773663
v  16.986696 3.982241 41.836845
v  16.970448 4.118960 41.846519
v  16.910471 4.094117 41.846901
v  16.878532 4.210876 41.846519
v  16.853689 4.150899 41.846901
v  16.748545 4.210876 41.846519
v  16.773388 4.150899 41.846901
v  16.656630 4.118960 41.846519
v  16.716606 4.094117 41.846901
v  16.656630 3.988972 41.846519
v  16.716606 4.013815 41.846901
v  16.748545 3.897057 41.846519
v  16.773388 3.957033 41.846901
v  16.878532 3.897057 41.846519
v  16.853689 3.957033 41.846901
v  16.970448 3.988972 41.846519
v  16.910471 4.013815 41.846901
v  16.844990 4.053966 41.990265
v  16.835777 4.076205 41.990265
v  16.855358 4.071288 41.987701
v  16.813538 4.085417 41.990265
v  16.830860 4.095786 41.987701
v  16.791298 4.076205 41.990265
v  16.796215 4.095786 41.987701
v  16.782087 4.053966 41.990265
v  16.771717 4.071288 41.987701
v  16.791298 4.031727 41.990265
v  16.771717 4.036644 41.987701
v  16.813538 4.022514 41.990265
v  16.796215 4.012146 41.987701
v  16.835777 4.031727 41.990265
v  16.830860 4.012146 41.987701
v  16.855358 4.036644 41.987701
v  16.944016 4.184443 41.846188
v  16.998060 4.053966 41.846188
v  16.813538 4.238487 41.846188
v  16.683062 4.184443 41.846188
v  16.629017 4.053966 41.846188
v  16.683062 3.923490 41.846188
v  16.813538 3.869444 41.846188
v  16.944016 3.923490 41.846188
v  16.908127 4.053966 41.847717
v  16.880423 4.120851 41.847717
v  16.813538 4.148555 41.847717
v  16.746655 4.120851 41.847717
v  16.718948 4.053966 41.847717
v  16.746655 3.987082 41.847717
v  16.813538 3.959377 41.847717
v  16.880423 3.987082 41.847717
v  17.270275 4.117114 41.902470
v  17.281485 4.090051 41.887650
v  17.343363 4.053966 41.902470
v  16.813538 4.148555 41.902470
v  16.849623 4.141081 41.883411
v  16.931091 4.129871 41.902470
v  16.746655 4.120851 41.902470
v  16.777454 4.141081 41.883411
v  16.718948 4.053966 41.902470
v  16.726423 4.090051 41.883411
v  16.746655 3.987082 41.902470
v  16.726423 4.017881 41.883411
v  16.813538 3.959377 41.902470
v  16.777454 3.966850 41.883411
v  16.931091 3.978060 41.902470
v  16.849623 3.966850 41.883411
v  17.281485 4.017881 41.887650
v  17.270275 3.990818 41.902470
v  16.950109 4.088000 41.961758
v  17.107061 4.117114 41.956818
v  17.125744 4.053966 41.961758
v  17.281485 4.090051 41.956818
v  16.950109 4.019932 41.961758
v  17.107061 3.990818 41.956818
v  17.281485 4.017881 41.956818
v  16.931091 3.978060 41.941994
v  17.270275 3.990818 41.941994
v  16.955059 4.017881 41.878471
v  17.107061 3.990818 41.887650
v  17.125744 4.053966 41.882710
v  16.955059 4.090051 41.878471
v  17.107061 4.117114 41.887650
v  16.880423 4.120851 41.865753
v  16.908127 4.053966 41.865753
v  16.813538 4.148555 41.865753
v  16.746655 4.120851 41.865753
v  16.718948 4.053966 41.865753
v  16.746655 3.987082 41.865753
v  16.813538 3.959377 41.865753
v  16.880423 3.987082 41.865753
v  17.270275 4.117114 41.941994
v  17.343363 4.053966 41.941994
v  16.813538 4.148555 41.941994
v  16.847572 4.136132 41.956818
v  16.931091 4.129871 41.941994
v  16.746655 4.120851 41.941994
v  16.779503 4.136132 41.956818
v  16.718948 4.053966 41.941994
v  16.731371 4.088000 41.956818
v  16.746655 3.987082 41.941994
v  16.731371 4.019932 41.956818
v  16.813538 3.959377 41.941994
v  16.779503 3.971799 41.956818
v  16.847572 3.971799 41.956818
v  16.866011 4.075701 41.963539
v  16.835272 4.106438 41.963539
v  16.791803 4.106438 41.963539
v  16.761066 4.075701 41.963539
v  16.761066 4.032231 41.963539
v  16.791803 4.001494 41.963539
v  16.835272 4.001494 41.963539
v  16.866011 4.032231 41.963539
v  16.865137 4.053966 41.968884
v  16.850025 4.090452 41.968884
v  16.813538 4.105566 41.968884
v  16.777052 4.090452 41.968884
v  16.761938 4.053966 41.968884
v  16.777052 4.017480 41.968884
v  16.813538 4.002366 41.968884
v  16.850025 4.017480 41.968884
v  16.850025 4.090452 41.983139
v  16.865137 4.053966 41.983139
v  16.813538 4.105566 41.983139
v  16.777052 4.090452 41.983139
v  16.761938 4.053966 41.983139
v  16.777052 4.017480 41.983139
v  16.813538 4.002366 41.983139
v  16.850025 4.017480 41.983139
v  16.643167 4.053966 41.846519
v  16.946484 4.186912 41.836845
v  17.001553 4.053966 41.836845
v  16.813538 4.241980 41.836845
v  16.680592 4.186912 41.836845
v  16.625525 4.053966 41.836845
v  16.680592 3.921020 41.836845
v  16.813538 3.865952 41.836845
v  16.946484 3.921020 41.836845
v  16.983908 4.053966 41.846519
v  16.934008 4.174436 41.846519
v  16.887960 4.128388 41.846901
v  16.918787 4.053966 41.846901
v  16.813538 4.224336 41.846519
v  16.813538 4.159214 41.846901
v  16.693068 4.174436 41.846519
v  16.739117 4.128388 41.846901
v  16.708290 4.053966 41.846901
v  16.693068 3.933496 41.846519
v  16.739117 3.979544 41.846901
v  16.813538 3.883596 41.846519
v  16.813538 3.948718 41.846901
v  16.934008 3.933496 41.846519
v  16.887960 3.979544 41.846901
v  16.813538 4.053966 41.990265
v  16.859678 4.053966 41.988483
v  16.846165 4.086592 41.988483
v  16.813538 4.100106 41.988483
v  16.780912 4.086592 41.988483
v  16.767399 4.053966 41.988483
v  16.780912 4.021340 41.988483
v  16.813538 4.007826 41.988483
v  16.846165 4.021340 41.988483
v  16.773252 4.094252 41.963539
v  17.230865 4.110097 41.891491
v  17.288958 4.053966 41.887650
v  16.813538 4.148555 41.883411
v  16.917145 4.122753 41.883160
v  16.746655 4.120851 41.883411
v  16.718948 4.053966 41.883411
v  16.746655 3.987082 41.883411
v  16.813538 3.959377 41.883411
v  16.917145 3.985179 41.883160
v  17.230865 3.997835 41.891491
v  16.914711 4.120321 41.958595
v  16.957157 4.053966 41.961758
v  17.288958 4.053966 41.956818
v  17.230865 4.110097 41.952972
v  16.914711 3.987611 41.958595
v  17.230865 3.997835 41.952972
v  16.962532 4.053966 41.878471
v  16.813538 4.143181 41.956818
v  16.750454 4.117051 41.956818
v  16.724323 4.053966 41.956818
v  16.750454 3.990881 41.956818
v  16.813538 3.964751 41.956818
v  16.853825 4.094252 41.963539
v  16.870512 4.053966 41.963539
v  16.813538 4.110939 41.963539
v  16.756565 4.053966 41.963539
v  16.773252 4.013680 41.963539
v  16.813538 3.996993 41.963539
v  16.853825 4.013680 41.963539
v  16.947308 4.187735 41.773663
v  16.813538 4.243144 41.773663
v  16.679770 4.187735 41.773663
v  16.624361 4.053966 41.773663
v  16.679770 3.920197 41.773663
v  16.947308 3.920197 41.773663
v  16.813538 3.864789 41.773663
v  17.002716 4.053966 41.773663
v  16.883930 4.223909 41.419689
v  16.983480 4.124358 41.419689
v  16.983480 3.983573 41.419689
v  16.743145 4.223909 41.419689
v  16.643595 4.124358 41.419689
v  16.643595 3.983573 41.419689
v  16.743145 3.884023 41.419689
v  16.883930 3.884023 41.419689
v  16.849623 4.141081 41.418163
v  16.900654 4.090051 41.418163
v  16.900654 4.017881 41.418163
v  16.777454 4.141081 41.418163
v  16.726423 4.090051 41.418163
v  16.726423 4.017881 41.418163
v  16.777454 3.966850 41.418163
v  16.849623 3.966850 41.418163
v  16.845221 4.067089 41.275612
v  16.826660 4.085648 41.275612
v  16.800415 4.085648 41.275612
v  16.781857 4.067089 41.275612
v  16.781857 4.040843 41.275612
v  16.800415 4.022284 41.275612
v  16.826660 4.022284 41.275612
v  16.845221 4.040843 41.275612
v  16.861061 4.034281 41.282738
v  16.861061 4.073650 41.282738
v  16.833223 4.101489 41.282738
v  16.793854 4.101489 41.282738
v  16.766016 4.073650 41.282738
v  16.766016 4.034281 41.282738
v  16.793854 4.006443 41.282738
v  16.833223 4.006443 41.282738
v  16.849623 4.141081 41.400124
v  16.900654 4.090051 41.400124
v  16.900654 4.017881 41.400124
v  16.777454 4.141081 41.400124
v  16.726423 4.090051 41.400124
v  16.726423 4.017881 41.400124
v  16.777454 3.966850 41.400124
v  16.849623 3.966850 41.400124
v  17.335890 4.090051 41.363407
v  17.118271 4.090051 41.383167
v  17.103325 4.126135 41.363407
v  17.103325 4.126135 41.323883
v  17.335890 4.090051 41.323883
v  17.335890 4.017881 41.323883
v  17.335890 4.017881 41.363407
v  17.118271 4.017881 41.383167
v  16.849623 4.141081 41.363407
v  16.777454 4.141081 41.363407
v  16.777454 4.141081 41.323883
v  16.849623 4.141081 41.323883
v  16.726423 4.090051 41.363407
v  16.726423 4.090051 41.323883
v  16.726423 4.017881 41.363407
v  16.726423 4.017881 41.323883
v  16.777454 3.966850 41.363407
v  16.777454 3.966850 41.323883
v  16.849623 3.966850 41.363407
v  16.849623 3.966850 41.323883
v  17.103325 3.981797 41.363407
v  17.103325 3.981797 41.323883
v  17.118271 4.090051 41.304123
v  17.118271 4.017881 41.304123
v  16.833223 4.101489 41.296993
v  16.861061 4.073650 41.296993
v  16.861061 4.034281 41.296993
v  16.793854 4.101489 41.296993
v  16.766016 4.073650 41.296993
v  16.766016 4.034281 41.296993
v  16.793854 4.006443 41.296993
v  16.833223 4.006443 41.296993
v  16.987768 4.126135 41.492214
v  16.986696 4.125690 41.429031
v  16.885708 4.228197 41.492214
v  16.885263 4.227125 41.429031
v  16.741369 4.228197 41.492214
v  16.741814 4.227125 41.429031
v  16.639307 4.126135 41.492214
v  16.640379 4.125690 41.429031
v  16.639307 3.981797 41.492214
v  16.640379 3.982241 41.429031
v  16.741369 3.879735 41.492214
v  16.741814 3.880807 41.429031
v  16.885708 3.879735 41.492214
v  16.885263 3.880807 41.429031
v  16.987768 3.981797 41.492214
v  16.986696 3.982241 41.429031
v  16.970448 4.118960 41.419357
v  16.910471 4.094117 41.418976
v  16.878532 4.210876 41.419357
v  16.853689 4.150899 41.418976
v  16.748545 4.210876 41.419357
v  16.773388 4.150899 41.418976
v  16.656630 4.118960 41.419357
v  16.716606 4.094117 41.418976
v  16.656630 3.988972 41.419357
v  16.716606 4.013815 41.418976
v  16.748545 3.897057 41.419357
v  16.773388 3.957033 41.418976
v  16.878532 3.897057 41.419357
v  16.853689 3.957033 41.418976
v  16.970448 3.988972 41.419357
v  16.910471 4.013815 41.418976
v  16.844990 4.053966 41.275612
v  16.835777 4.076205 41.275612
v  16.855358 4.071288 41.278175
v  16.813538 4.085417 41.275612
v  16.830860 4.095786 41.278175
v  16.791298 4.076205 41.275612
v  16.796215 4.095786 41.278175
v  16.782087 4.053966 41.275612
v  16.771717 4.071288 41.278175
v  16.791298 4.031727 41.275612
v  16.771717 4.036644 41.278175
v  16.813538 4.022514 41.275612
v  16.796215 4.012146 41.278175
v  16.835777 4.031727 41.275612
v  16.830860 4.012146 41.278175
v  16.855358 4.036644 41.278175
v  16.944016 4.184443 41.419689
v  16.998060 4.053966 41.419689
v  16.813538 4.238487 41.419689
v  16.683062 4.184443 41.419689
v  16.629017 4.053966 41.419689
v  16.683062 3.923490 41.419689
v  16.813538 3.869444 41.419689
v  16.944016 3.923490 41.419689
v  16.908127 4.053966 41.418163
v  16.880423 4.120851 41.418163
v  16.813538 4.148555 41.418163
v  16.746655 4.120851 41.418163
v  16.718948 4.053966 41.418163
v  16.746655 3.987082 41.418163
v  16.813538 3.959377 41.418163
v  16.880423 3.987082 41.418163
v  17.270275 4.117114 41.363407
v  17.281485 4.090051 41.378227
v  17.343363 4.053966 41.363407
v  16.813538 4.148555 41.363407
v  16.849623 4.141081 41.382465
v  16.931091 4.129871 41.363407
v  16.746655 4.120851 41.363407
v  16.777454 4.141081 41.382465
v  16.718948 4.053966 41.363407
v  16.726423 4.090051 41.382465
v  16.746655 3.987082 41.363407
v  16.726423 4.017881 41.382465
v  16.813538 3.959377 41.363407
v  16.777454 3.966850 41.382465
v  16.931091 3.978060 41.363407
v  16.849623 3.966850 41.382465
v  17.281485 4.017881 41.378227
v  17.270275 3.990818 41.363407
v  16.950109 4.088000 41.304123
v  17.107061 4.117114 41.309063
v  17.125744 4.053966 41.304123
v  17.281485 4.090051 41.309063
v  16.950109 4.019932 41.304123
v  17.107061 3.990818 41.309063
v  17.281485 4.017881 41.309063
v  16.931091 3.978060 41.323883
v  17.270275 3.990818 41.323883
v  16.955059 4.017881 41.387405
v  17.107061 3.990818 41.378227
v  17.125744 4.053966 41.383167
v  16.955059 4.090051 41.387405
v  17.107061 4.117114 41.378227
v  16.880423 4.120851 41.400124
v  16.908127 4.053966 41.400124
v  16.813538 4.148555 41.400124
v  16.746655 4.120851 41.400124
v  16.718948 4.053966 41.400124
v  16.746655 3.987082 41.400124
v  16.813538 3.959377 41.400124
v  16.880423 3.987082 41.400124
v  17.270275 4.117114 41.323883
v  17.343363 4.053966 41.323883
v  16.813538 4.148555 41.323883
v  16.847572 4.136132 41.309063
v  16.931091 4.129871 41.323883
v  16.746655 4.120851 41.323883
v  16.779503 4.136132 41.309063
v  16.718948 4.053966 41.323883
v  16.731371 4.088000 41.309063
v  16.746655 3.987082 41.323883
v  16.731371 4.019932 41.309063
v  16.813538 3.959377 41.323883
v  16.779503 3.971799 41.309063
v  16.847572 3.971799 41.309063
v  16.866011 4.075701 41.302338
v  16.835272 4.106438 41.302338
v  16.791803 4.106438 41.302338
v  16.761066 4.075701 41.302338
v  16.761066 4.032231 41.302338
v  16.791803 4.001494 41.302338
v  16.835272 4.001494 41.302338
v  16.866011 4.032231 41.302338
v  16.865137 4.053966 41.296993
v  16.850025 4.090452 41.296993
v  16.813538 4.105566 41.296993
v  16.777052 4.090452 41.296993
v  16.761938 4.053966 41.296993
v  16.777052 4.017480 41.296993
v  16.813538 4.002366 41.296993
v  16.850025 4.017480 41.296993
v  16.850025 4.090452 41.282738
v  16.865137 4.053966 41.282738
v  16.813538 4.105566 41.282738
v  16.777052 4.090452 41.282738
v  16.761938 4.053966 41.282738
v  16.777052 4.017480 41.282738
v  16.813538 4.002366 41.282738
v  16.850025 4.017480 41.282738
v  16.643167 4.053966 41.419357
v  16.946484 4.186912 41.429031
v  17.001553 4.053966 41.429031
v  16.813538 4.241980 41.429031
v  16.680592 4.186912 41.429031
v  16.625525 4.053966 41.429031
v  16.680592 3.921020 41.429031
v  16.813538 3.865952 41.429031
v  16.946484 3.921020 41.429031
v  16.983908 4.053966 41.419357
v  16.934008 4.174436 41.419357
v  16.887960 4.128388 41.418976
v  16.918787 4.053966 41.418976
v  16.813538 4.224336 41.419357
v  16.813538 4.159214 41.418976
v  16.693068 4.174436 41.419357
v  16.739117 4.128388 41.418976
v  16.708290 4.053966 41.418976
v  16.693068 3.933496 41.419357
v  16.739117 3.979544 41.418976
v  16.813538 3.883596 41.419357
v  16.813538 3.948718 41.418976
v  16.934008 3.933496 41.419357
v  16.887960 3.979544 41.418976
v  16.813538 4.053966 41.275612
v  16.859678 4.053966 41.277393
v  16.846165 4.086592 41.277393
v  16.813538 4.100106 41.277393
v  16.780912 4.086592 41.277393
v  16.767399 4.053966 41.277393
v  16.780912 4.021340 41.277393
v  16.813538 4.007826 41.277393
v  16.846165 4.021340 41.277393
v  16.773252 4.094252 41.302338
v  17.230865 4.110097 41.374386
v  17.288958 4.053966 41.378227
v  16.813538 4.148555 41.382465
v  16.917145 4.122753 41.382721
v  16.746655 4.120851 41.382465
v  16.718948 4.053966 41.382465
v  16.746655 3.987082 41.382465
v  16.813538 3.959377 41.382465
v  16.917145 3.985179 41.382721
v  17.230865 3.997835 41.374386
v  16.914711 4.120321 41.307281
v  16.957157 4.053966 41.304123
v  17.288958 4.053966 41.309063
v  17.230865 4.110097 41.312904
v  16.914711 3.987611 41.307281
v  17.230865 3.997835 41.312904
v  16.962532 4.053966 41.387405
v  16.813538 4.143181 41.309063
v  16.750454 4.117051 41.309063
v  16.724323 4.053966 41.309063
v  16.750454 3.990881 41.309063
v  16.813538 3.964751 41.309063
v  16.853825 4.094252 41.302338
v  16.870512 4.053966 41.302338
v  16.813538 4.110939 41.302338
v  16.756565 4.053966 41.302338
v  16.773252 4.013680 41.302338
v  16.813538 3.996993 41.302338
v  16.853825 4.013680 41.302338
v  16.947308 4.187735 41.492214
v  16.813538 4.243144 41.492214
v  16.679770 4.187735 41.492214
v  16.624361 4.053966 41.492214
v  16.679770 3.920197 41.492214
v  16.947308 3.920197 41.492214
v  16.813538 3.864789 41.492214
v  17.002716 4.053966 41.492214
v  21.479454 6.806890 41.796856
v  21.466324 6.806890 41.765152
v  21.434620 6.806890 41.752022
v  21.402918 6.806890 41.765152
v  21.389786 6.806890 41.796856
v  21.402918 6.806890 41.828560
v  21.434620 6.806890 41.841690
v  21.466324 6.806890 41.828560
v  21.479454 7.368680 41.796856
v  21.466324 7.368680 41.765152
v  21.434620 7.368680 41.752022
v  21.402918 7.368680 41.765152
v  21.389786 7.368680 41.796856
v  21.402918 7.368680 41.828560
v  21.434620 7.368680 41.841690
v  21.466324 7.368680 41.828560
v  21.460447 6.806890 41.796856
v  21.452883 6.806890 41.778595
v  21.434622 6.806890 41.771030
v  21.416359 6.806890 41.778595
v  21.408794 6.806890 41.796856
v  21.416359 6.806890 41.815117
v  21.434622 6.806890 41.822681
v  21.452883 6.806890 41.815117
v  21.460447 7.368680 41.796856
v  21.452883 7.368680 41.778595
v  21.434622 7.368680 41.771030
v  21.416359 7.368680 41.778595
v  21.408794 7.368680 41.796856
v  21.416359 7.368680 41.815117
v  21.434622 7.368680 41.822681
v  21.452883 7.368680 41.815117
v  21.434622 6.806890 41.796856
v  21.434622 7.368680 41.796856
v  21.479454 5.723641 41.796856
v  21.466324 5.723641 41.765152
v  21.466324 6.285430 41.765152
v  21.479454 6.285430 41.796856
v  21.434620 5.723641 41.752022
v  21.434620 6.285430 41.752022
v  21.402918 5.723641 41.765152
v  21.402918 6.285430 41.765152
v  21.389786 5.723641 41.796856
v  21.389786 6.285430 41.796856
v  21.402918 5.723641 41.828560
v  21.402918 6.285430 41.828560
v  21.434620 5.723641 41.841690
v  21.434620 6.285430 41.841690
v  21.466324 5.723641 41.828560
v  21.466324 6.285430 41.828560
v  21.460447 5.723641 41.796856
v  21.452883 5.723641 41.778595
v  21.434622 5.723641 41.771027
v  21.416359 5.723641 41.778595
v  21.408794 5.723641 41.796856
v  21.416359 5.723641 41.815117
v  21.434622 5.723641 41.822681
v  21.452883 5.723641 41.815117
v  21.452883 6.285430 41.778595
v  21.460447 6.285430 41.796856
v  21.434622 6.285430 41.771027
v  21.416359 6.285430 41.778595
v  21.408794 6.285430 41.796856
v  21.416359 6.285430 41.815117
v  21.434622 6.285430 41.822681
v  21.452883 6.285430 41.815117
v  21.434622 5.723641 41.796856
v  21.434622 6.285430 41.796856
v  21.479454 1.416245 41.796856
v  21.466324 1.416245 41.765152
v  21.466324 1.978034 41.765152
v  21.479454 1.978034 41.796856
v  21.434620 1.416245 41.752018
v  21.434620 1.978034 41.752018
v  21.402918 1.416245 41.765152
v  21.402918 1.978034 41.765152
v  21.389786 1.416245 41.796856
v  21.389786 1.978034 41.796856
v  21.402918 1.416245 41.828560
v  21.402918 1.978034 41.828560
v  21.434620 1.416245 41.841690
v  21.434620 1.978034 41.841690
v  21.466324 1.416245 41.828560
v  21.466324 1.978034 41.828560
v  21.460445 1.416245 41.796856
v  21.452883 1.416245 41.778595
v  21.434622 1.416245 41.771027
v  21.416359 1.416245 41.778595
v  21.408794 1.416245 41.796856
v  21.416359 1.416245 41.815117
v  21.434622 1.416245 41.822681
v  21.452883 1.416245 41.815117
v  21.452883 1.978034 41.778595
v  21.460445 1.978034 41.796856
v  21.434622 1.978034 41.771027
v  21.416359 1.978034 41.778595
v  21.408794 1.978034 41.796856
v  21.416359 1.978034 41.815117
v  21.434622 1.978034 41.822681
v  21.452883 1.978034 41.815117
v  21.434622 1.416245 41.796856
v  21.434622 1.978034 41.796856
# 680 vertices

vt 0.824352 0.065566 0.000000
vt 0.824352 0.093241 0.000000
vt 0.017602 0.093241 0.000000
vt 0.017602 0.065566 0.000000
vt 0.823550 0.058480 0.000000
vt 0.017089 0.058480 0.000000
vt 0.823289 0.189187 0.000000
vt 0.017579 0.189187 0.000000
vt 0.004467 0.233754 0.000000
vt 0.529785 0.233754 0.000000
vt 0.004467 0.579066 0.000000
vt 0.529785 0.579065 0.000000
vt 0.017089 0.013733 0.000000
vt 0.823550 0.013733 0.000000
vt 0.017579 0.144482 0.000000
vt 0.823289 0.144482 0.000000
vt 0.017602 0.129157 0.000000
vt 0.017602 0.101482 0.000000
vt 0.824352 0.101482 0.000000
vt 0.824352 0.129157 0.000000
vt 0.004467 0.634859 0.000000
vt 0.004467 0.980251 0.000000
vt 0.529784 0.980251 0.000000
vt 0.529784 0.634859 0.000000
vt 0.882515 0.424164 0.000000
vt 0.921083 0.431844 0.000000
vt 0.918332 0.438485 0.000000
vt 0.882515 0.431348 0.000000
vt 0.953786 0.453685 0.000000
vt 0.948706 0.458765 0.000000
vt 0.975627 0.486388 0.000000
vt 0.968986 0.489139 0.000000
vt 0.983308 0.524956 0.000000
vt 0.976123 0.524956 0.000000
vt 0.975627 0.563524 0.000000
vt 0.968986 0.560773 0.000000
vt 0.953786 0.596227 0.000000
vt 0.948706 0.591147 0.000000
vt 0.921083 0.618068 0.000000
vt 0.918332 0.611427 0.000000
vt 0.882515 0.625749 0.000000
vt 0.882515 0.618564 0.000000
vt 0.843946 0.618068 0.000000
vt 0.846697 0.611427 0.000000
vt 0.811243 0.596227 0.000000
vt 0.816324 0.591146 0.000000
vt 0.789403 0.563524 0.000000
vt 0.796043 0.560773 0.000000
vt 0.781722 0.524956 0.000000
vt 0.788907 0.524956 0.000000
vt 0.789403 0.486388 0.000000
vt 0.796043 0.489139 0.000000
vt 0.811243 0.453685 0.000000
vt 0.816324 0.458765 0.000000
vt 0.843947 0.431844 0.000000
vt 0.846697 0.438485 0.000000
vt 0.882515 0.446006 0.000000
vt 0.912719 0.452036 0.000000
vt 0.901652 0.478756 0.000000
vt 0.882515 0.474983 0.000000
vt 0.938341 0.469130 0.000000
vt 0.917851 0.489620 0.000000
vt 0.955434 0.494752 0.000000
vt 0.928714 0.505819 0.000000
vt 0.961465 0.524956 0.000000
vt 0.932488 0.524956 0.000000
vt 0.955434 0.555160 0.000000
vt 0.928714 0.544092 0.000000
vt 0.938341 0.580782 0.000000
vt 0.917851 0.560292 0.000000
vt 0.912719 0.597876 0.000000
vt 0.901652 0.571156 0.000000
vt 0.882515 0.603906 0.000000
vt 0.882515 0.574929 0.000000
vt 0.852310 0.597876 0.000000
vt 0.863378 0.571156 0.000000
vt 0.826688 0.580782 0.000000
vt 0.847178 0.560292 0.000000
vt 0.809595 0.555160 0.000000
vt 0.836315 0.544092 0.000000
vt 0.803564 0.524956 0.000000
vt 0.832542 0.524956 0.000000
vt 0.809595 0.494752 0.000000
vt 0.836315 0.505819 0.000000
vt 0.826688 0.469130 0.000000
vt 0.847178 0.489620 0.000000
vt 0.852310 0.452036 0.000000
vt 0.863378 0.478756 0.000000
vt 0.944540 0.462931 0.000000
vt 0.916075 0.443935 0.000000
vt 0.882515 0.437240 0.000000
vt 0.970231 0.524956 0.000000
vt 0.881209 0.300094 0.000000
vt 0.881209 0.251377 0.000000
vt 0.902259 0.249271 0.000000
vt 0.915655 0.265647 0.000000
vt 0.881209 0.227380 0.000000
vt 0.909118 0.232713 0.000000
vt 0.932625 0.248676 0.000000
vt 0.932032 0.279043 0.000000
vt 0.929923 0.300094 0.000000
vt 0.948589 0.272183 0.000000
vt 0.953924 0.300094 0.000000
vt 0.932032 0.321146 0.000000
vt 0.915655 0.334540 0.000000
vt 0.948589 0.328004 0.000000
vt 0.932625 0.351510 0.000000
vt 0.902259 0.350916 0.000000
vt 0.881209 0.348808 0.000000
vt 0.909118 0.367474 0.000000
vt 0.881209 0.372807 0.000000
vt 0.860156 0.350916 0.000000
vt 0.846762 0.334540 0.000000
vt 0.853299 0.367474 0.000000
vt 0.829792 0.351510 0.000000
vt 0.830387 0.321146 0.000000
vt 0.832494 0.300094 0.000000
vt 0.813828 0.328004 0.000000
vt 0.808495 0.300094 0.000000
vt 0.830387 0.279043 0.000000
vt 0.846762 0.265647 0.000000
vt 0.813828 0.272183 0.000000
vt 0.829792 0.248676 0.000000
vt 0.860156 0.249271 0.000000
vt 0.853299 0.232713 0.000000
vt 0.881209 0.195753 0.000000
vt 0.921190 0.203571 0.000000
vt 0.963536 0.491396 0.000000
vt 0.944540 0.586980 0.000000
vt 0.963536 0.558516 0.000000
vt 0.882515 0.612672 0.000000
vt 0.916075 0.605977 0.000000
vt 0.820490 0.586980 0.000000
vt 0.848955 0.605977 0.000000
vt 0.794798 0.524956 0.000000
vt 0.801494 0.558516 0.000000
vt 0.820490 0.462931 0.000000
vt 0.801494 0.491396 0.000000
vt 0.848955 0.443935 0.000000
vt 0.899644 0.483602 0.000000
vt 0.882515 0.480228 0.000000
vt 0.914142 0.493329 0.000000
vt 0.923868 0.507827 0.000000
vt 0.927242 0.524956 0.000000
vt 0.923868 0.542085 0.000000
vt 0.914142 0.556583 0.000000
vt 0.899644 0.566309 0.000000
vt 0.882515 0.569684 0.000000
vt 0.730812 0.980961 0.000000
vt 0.712431 0.971786 0.000000
vt 0.720506 0.950673 0.000000
vt 0.743039 0.961092 0.000000
vt 0.748180 0.993045 0.000000
vt 0.760482 0.975361 0.000000
vt 0.692702 0.966348 0.000000
vt 0.672133 0.962846 0.000000
vt 0.675144 0.942767 0.000000
vt 0.696992 0.946002 0.000000
vt 0.651420 0.960028 0.000000
vt 0.630998 0.957411 0.000000
vt 0.633548 0.937486 0.000000
vt 0.654033 0.940057 0.000000
vt 0.611081 0.954844 0.000000
vt 0.591496 0.952285 0.000000
vt 0.594128 0.932323 0.000000
vt 0.613670 0.934919 0.000000
vt 0.608439 0.623758 0.000000
vt 0.629580 0.621755 0.000000
vt 0.631605 0.642847 0.000000
vt 0.610515 0.644917 0.000000
vt 0.651136 0.619755 0.000000
vt 0.672903 0.617592 0.000000
vt 0.675287 0.638819 0.000000
vt 0.653194 0.640847 0.000000
vt 0.694549 0.614851 0.000000
vt 0.715734 0.610721 0.000000
vt 0.721873 0.632784 0.000000
vt 0.697897 0.636473 0.000000
vt 0.734575 0.603604 0.000000
vt 0.744351 0.623190 0.000000
vt 0.922229 0.871498 0.000000
vt 0.935911 0.854798 0.000000
vt 0.966018 0.841546 0.000000
vt 0.950979 0.869215 0.000000
vt 0.923512 0.822991 0.000000
vt 0.950805 0.808149 0.000000
vt 0.963859 0.791022 0.000000
vt 0.989298 0.838305 0.000000
vt 0.971172 0.880827 0.000000
vt 0.677584 0.922586 0.000000
vt 0.679237 0.900900 0.000000
vt 0.700881 0.901762 0.000000
vt 0.699841 0.924786 0.000000
vt 0.679911 0.858310 0.000000
vt 0.699596 0.856324 0.000000
vt 0.747986 0.850854 0.000000
vt 0.753240 0.900188 0.000000
vt 0.746956 0.926874 0.000000
vt 0.635969 0.918034 0.000000
vt 0.638435 0.897322 0.000000
vt 0.658439 0.899405 0.000000
vt 0.656373 0.920391 0.000000
vt 0.643307 0.857006 0.000000
vt 0.661226 0.858525 0.000000
vt 0.596763 0.912833 0.000000
vt 0.599745 0.891868 0.000000
vt 0.619006 0.894747 0.000000
vt 0.616215 0.915498 0.000000
vt 0.606945 0.848801 0.000000
vt 0.625548 0.853718 0.000000
vt 0.633588 0.663359 0.000000
vt 0.635741 0.685179 0.000000
vt 0.615202 0.687580 0.000000
vt 0.612655 0.665541 0.000000
vt 0.640287 0.727712 0.000000
vt 0.621799 0.731279 0.000000
vt 0.677106 0.659751 0.000000
vt 0.678324 0.682214 0.000000
vt 0.656700 0.683370 0.000000
vt 0.655025 0.661431 0.000000
vt 0.678390 0.726126 0.000000
vt 0.658957 0.726004 0.000000
vt 0.747409 0.657294 0.000000
vt 0.753140 0.684139 0.000000
vt 0.700579 0.681699 0.000000
vt 0.700018 0.658293 0.000000
vt 0.748325 0.734023 0.000000
vt 0.698864 0.728185 0.000000
vt 0.965523 0.742826 0.000000
vt 0.950276 0.716543 0.000000
vt 0.949042 0.773502 0.000000
vt 0.922523 0.760936 0.000000
vt 0.935484 0.730766 0.000000
vt 0.922257 0.714155 0.000000
vt 0.736498 0.831210 0.000000
vt 0.757522 0.811650 0.000000
vt 0.850653 0.809716 0.000000
vt 0.845841 0.824178 0.000000
vt 0.761461 0.792544 0.000000
vt 0.854046 0.792398 0.000000
vt 0.928145 0.791420 0.000000
vt 0.924691 0.805720 0.000000
vt 0.904364 0.816409 0.000000
vt 0.757499 0.773439 0.000000
vt 0.850534 0.775169 0.000000
vt 0.736509 0.753880 0.000000
vt 0.845626 0.760824 0.000000
vt 0.903888 0.767454 0.000000
vt 0.924135 0.777478 0.000000
vt 0.845883 0.744829 0.000000
vt 0.854422 0.704031 0.000000
vt 0.778387 0.644964 0.000000
vt 0.872574 0.675541 0.000000
vt 0.861038 0.687959 0.000000
vt 0.790991 0.957130 0.000000
vt 0.884516 0.658739 0.000000
vt 0.777835 0.939615 0.000000
vt 0.872075 0.909927 0.000000
vt 0.860657 0.897452 0.000000
vt 0.854161 0.881386 0.000000
vt 0.846197 0.840326 0.000000
vt 0.678555 0.843251 0.000000
vt 0.696598 0.839857 0.000000
vt 0.645833 0.842827 0.000000
vt 0.661962 0.844123 0.000000
vt 0.612695 0.832234 0.000000
vt 0.629853 0.839145 0.000000
vt 0.643034 0.742466 0.000000
vt 0.626401 0.746431 0.000000
vt 0.677092 0.741754 0.000000
vt 0.659834 0.740984 0.000000
vt 0.695793 0.745133 0.000000
vt 0.706748 0.805172 0.000000
vt 0.709341 0.792819 0.000000
vt 0.699388 0.815478 0.000000
vt 0.688383 0.822239 0.000000
vt 0.675844 0.825934 0.000000
vt 0.662886 0.826306 0.000000
vt 0.649955 0.824783 0.000000
vt 0.637567 0.821013 0.000000
vt 0.626082 0.814769 0.000000
vt 0.634590 0.765293 0.000000
vt 0.647493 0.761255 0.000000
vt 0.660979 0.759529 0.000000
vt 0.674493 0.759743 0.000000
vt 0.687536 0.763372 0.000000
vt 0.698936 0.770127 0.000000
vt 0.706556 0.780468 0.000000
vt 0.915514 0.217273 0.000000
vt 0.881209 0.210749 0.000000
vt 0.954989 0.226313 0.000000
vt 0.944384 0.236919 0.000000
vt 0.940817 0.240485 0.000000
vt 0.913710 0.221629 0.000000
vt 0.881209 0.215795 0.000000
vt 0.977732 0.260113 0.000000
vt 0.964029 0.265788 0.000000
vt 0.985549 0.300094 0.000000
vt 0.970553 0.300094 0.000000
vt 0.965506 0.300094 0.000000
vt 0.959674 0.267593 0.000000
vt 0.977732 0.340074 0.000000
vt 0.964029 0.334399 0.000000
vt 0.954989 0.373874 0.000000
vt 0.944384 0.363269 0.000000
vt 0.940815 0.359702 0.000000
vt 0.959674 0.332594 0.000000
vt 0.921190 0.396616 0.000000
vt 0.915514 0.382916 0.000000
vt 0.881209 0.404436 0.000000
vt 0.881209 0.389438 0.000000
vt 0.881209 0.384392 0.000000
vt 0.913710 0.378558 0.000000
vt 0.841227 0.396616 0.000000
vt 0.846903 0.382916 0.000000
vt 0.807428 0.373874 0.000000
vt 0.818033 0.363269 0.000000
vt 0.821602 0.359702 0.000000
vt 0.848707 0.378558 0.000000
vt 0.784686 0.340074 0.000000
vt 0.798390 0.334399 0.000000
vt 0.776868 0.300094 0.000000
vt 0.865386 0.566309 0.000000
vt 0.850887 0.556583 0.000000
vt 0.841161 0.542085 0.000000
vt 0.837787 0.524956 0.000000
vt 0.841161 0.507827 0.000000
vt 0.850887 0.493329 0.000000
vt 0.865386 0.483603 0.000000
vt 0.791865 0.300094 0.000000
vt 0.796911 0.300094 0.000000
vt 0.802744 0.332594 0.000000
vt 0.784686 0.260113 0.000000
vt 0.798390 0.265788 0.000000
vt 0.807428 0.226313 0.000000
vt 0.818033 0.236919 0.000000
vt 0.821602 0.240485 0.000000
vt 0.802745 0.267593 0.000000
vt 0.841227 0.203571 0.000000
vt 0.846905 0.217273 0.000000
vt 0.848707 0.221629 0.000000
vt 0.750677 0.593717 0.000000
vt 0.761389 0.609636 0.000000
vt 0.587574 0.625788 0.000000
vt 0.589658 0.647048 0.000000
vt 0.985524 0.744841 0.000000
vt 0.969496 0.705543 0.000000
vt 0.591854 0.667888 0.000000
vt 0.594581 0.690403 0.000000
vt 0.602481 0.736499 0.000000
vt 0.791576 0.627632 0.000000
vt 0.883875 0.926949 0.000000
vt 0.608561 0.753749 0.000000
vt 0.622649 0.771889 0.000000
vt 0.882515 0.424164 0.000000
vt 0.921083 0.431844 0.000000
vt 0.918332 0.438485 0.000000
vt 0.882515 0.431348 0.000000
vt 0.953786 0.453685 0.000000
vt 0.948706 0.458765 0.000000
vt 0.975627 0.486388 0.000000
vt 0.968986 0.489139 0.000000
vt 0.983308 0.524956 0.000000
vt 0.976123 0.524956 0.000000
vt 0.975627 0.563524 0.000000
vt 0.968986 0.560773 0.000000
vt 0.953786 0.596227 0.000000
vt 0.948706 0.591147 0.000000
vt 0.921083 0.618068 0.000000
vt 0.918332 0.611427 0.000000
vt 0.882515 0.625749 0.000000
vt 0.882515 0.618564 0.000000
vt 0.843946 0.618068 0.000000
vt 0.846697 0.611427 0.000000
vt 0.811243 0.596227 0.000000
vt 0.816324 0.591146 0.000000
vt 0.789403 0.563524 0.000000
vt 0.796043 0.560773 0.000000
vt 0.781722 0.524956 0.000000
vt 0.788907 0.524956 0.000000
vt 0.789403 0.486388 0.000000
vt 0.796043 0.489139 0.000000
vt 0.811243 0.453685 0.000000
vt 0.816324 0.458765 0.000000
vt 0.843947 0.431844 0.000000
vt 0.846697 0.438485 0.000000
vt 0.882515 0.446006 0.000000
vt 0.912719 0.452036 0.000000
vt 0.901652 0.478756 0.000000
vt 0.882515 0.474983 0.000000
vt 0.938341 0.469130 0.000000
vt 0.917851 0.489620 0.000000
vt 0.955434 0.494752 0.000000
vt 0.928714 0.505819 0.000000
vt 0.961465 0.524956 0.000000
vt 0.932488 0.524956 0.000000
vt 0.955434 0.555160 0.000000
vt 0.928714 0.544092 0.000000
vt 0.938341 0.580782 0.000000
vt 0.917851 0.560292 0.000000
vt 0.912719 0.597876 0.000000
vt 0.901652 0.571156 0.000000
vt 0.882515 0.603906 0.000000
vt 0.882515 0.574929 0.000000
vt 0.852310 0.597876 0.000000
vt 0.863378 0.571156 0.000000
vt 0.826688 0.580782 0.000000
vt 0.847178 0.560292 0.000000
vt 0.809595 0.555160 0.000000
vt 0.836315 0.544092 0.000000
vt 0.803564 0.524956 0.000000
vt 0.832542 0.524956 0.000000
vt 0.809595 0.494752 0.000000
vt 0.836315 0.505819 0.000000
vt 0.826688 0.469130 0.000000
vt 0.847178 0.489620 0.000000
vt 0.852310 0.452036 0.000000
vt 0.863378 0.478756 0.000000
vt 0.944540 0.462931 0.000000
vt 0.916075 0.443935 0.000000
vt 0.882515 0.437240 0.000000
vt 0.970231 0.524956 0.000000
vt 0.881209 0.300094 0.000000
vt 0.881209 0.251377 0.000000
vt 0.902259 0.249271 0.000000
vt 0.915655 0.265647 0.000000
vt 0.881209 0.227380 0.000000
vt 0.909118 0.232713 0.000000
vt 0.932625 0.248676 0.000000
vt 0.932032 0.279043 0.000000
vt 0.929923 0.300094 0.000000
vt 0.948589 0.272183 0.000000
vt 0.953924 0.300094 0.000000
vt 0.932032 0.321146 0.000000
vt 0.915655 0.334540 0.000000
vt 0.948589 0.328004 0.000000
vt 0.932625 0.351510 0.000000
vt 0.902259 0.350916 0.000000
vt 0.881209 0.348808 0.000000
vt 0.909118 0.367474 0.000000
vt 0.881209 0.372807 0.000000
vt 0.860156 0.350916 0.000000
vt 0.846762 0.334540 0.000000
vt 0.853299 0.367474 0.000000
vt 0.829792 0.351510 0.000000
vt 0.830387 0.321146 0.000000
vt 0.832494 0.300094 0.000000
vt 0.813828 0.328004 0.000000
vt 0.808495 0.300094 0.000000
vt 0.830387 0.279043 0.000000
vt 0.846762 0.265647 0.000000
vt 0.813828 0.272183 0.000000
vt 0.829792 0.248676 0.000000
vt 0.860156 0.249271 0.000000
vt 0.853299 0.232713 0.000000
vt 0.881209 0.195753 0.000000
vt 0.921190 0.203571 0.000000
vt 0.963536 0.491396 0.000000
vt 0.944540 0.586980 0.000000
vt 0.963536 0.558516 0.000000
vt 0.882515 0.612672 0.000000
vt 0.916075 0.605977 0.000000
vt 0.820490 0.586980 0.000000
vt 0.848955 0.605977 0.000000
vt 0.794798 0.524956 0.000000
vt 0.801494 0.558516 0.000000
vt 0.820490 0.462931 0.000000
vt 0.801494 0.491396 0.000000
vt 0.848955 0.443935 0.000000
vt 0.899644 0.483602 0.000000
vt 0.882515 0.480228 0.000000
vt 0.914142 0.493329 0.000000
vt 0.923868 0.507827 0.000000
vt 0.927242 0.524956 0.000000
vt 0.923868 0.542085 0.000000
vt 0.914142 0.556583 0.000000
vt 0.899644 0.566309 0.000000
vt 0.882515 0.569684 0.000000
vt 0.730812 0.980961 0.000000
vt 0.712431 0.971786 0.000000
vt 0.720506 0.950673 0.000000
vt 0.743039 0.961092 0.000000
vt 0.748180 0.993045 0.000000
vt 0.760482 0.975361 0.000000
vt 0.692702 0.966348 0.000000
vt 0.672133 0.962846 0.000000
vt 0.675144 0.942767 0.000000
vt 0.696992 0.946002 0.000000
vt 0.651420 0.960028 0.000000
vt 0.630998 0.957411 0.000000
vt 0.633548 0.937486 0.000000
vt 0.654033 0.940057 0.000000
vt 0.611081 0.954844 0.000000
vt 0.591496 0.952285 0.000000
vt 0.594128 0.932323 0.000000
vt 0.613670 0.934919 0.000000
vt 0.608439 0.623758 0.000000
vt 0.629580 0.621755 0.000000
vt 0.631605 0.642847 0.000000
vt 0.610515 0.644917 0.000000
vt 0.651136 0.619755 0.000000
vt 0.672903 0.617592 0.000000
vt 0.675287 0.638819 0.000000
vt 0.653194 0.640847 0.000000
vt 0.694549 0.614851 0.000000
vt 0.715734 0.610721 0.000000
vt 0.721873 0.632784 0.000000
vt 0.697897 0.636473 0.000000
vt 0.734575 0.603604 0.000000
vt 0.744351 0.623190 0.000000
vt 0.922229 0.871498 0.000000
vt 0.935911 0.854798 0.000000
vt 0.966018 0.841546 0.000000
vt 0.950979 0.869215 0.000000
vt 0.923512 0.822991 0.000000
vt 0.950805 0.808149 0.000000
vt 0.963859 0.791022 0.000000
vt 0.989298 0.838305 0.000000
vt 0.971172 0.880827 0.000000
vt 0.677584 0.922586 0.000000
vt 0.679237 0.900900 0.000000
vt 0.700881 0.901762 0.000000
vt 0.699841 0.924786 0.000000
vt 0.679911 0.858310 0.000000
vt 0.699596 0.856324 0.000000
vt 0.747986 0.850854 0.000000
vt 0.753240 0.900188 0.000000
vt 0.746956 0.926874 0.000000
vt 0.635969 0.918034 0.000000
vt 0.638435 0.897322 0.000000
vt 0.658439 0.899405 0.000000
vt 0.656373 0.920391 0.000000
vt 0.643307 0.857006 0.000000
vt 0.661226 0.858525 0.000000
vt 0.596763 0.912833 0.000000
vt 0.599745 0.891868 0.000000
vt 0.619006 0.894747 0.000000
vt 0.616215 0.915498 0.000000
vt 0.606945 0.848801 0.000000
vt 0.625548 0.853718 0.000000
vt 0.633588 0.663359 0.000000
vt 0.635741 0.685179 0.000000
vt 0.615202 0.687580 0.000000
vt 0.612655 0.665541 0.000000
vt 0.640287 0.727712 0.000000
vt 0.621799 0.731279 0.000000
vt 0.677106 0.659751 0.000000
vt 0.678324 0.682214 0.000000
vt 0.656700 0.683370 0.000000
vt 0.655025 0.661431 0.000000
vt 0.678390 0.726126 0.000000
vt 0.658957 0.726004 0.000000
vt 0.747409 0.657294 0.000000
vt 0.753140 0.684139 0.000000
vt 0.700579 0.681699 0.000000
vt 0.700018 0.658293 0.000000
vt 0.748325 0.734023 0.000000
vt 0.698864 0.728185 0.000000
vt 0.965523 0.742826 0.000000
vt 0.950276 0.716543 0.000000
vt 0.949042 0.773502 0.000000
vt 0.922523 0.760936 0.000000
vt 0.935484 0.730766 0.000000
vt 0.922257 0.714155 0.000000
vt 0.736498 0.831210 0.000000
vt 0.757522 0.811650 0.000000
vt 0.850653 0.809716 0.000000
vt 0.845841 0.824178 0.000000
vt 0.761461 0.792544 0.000000
vt 0.854046 0.792398 0.000000
vt 0.928145 0.791420 0.000000
vt 0.924691 0.805720 0.000000
vt 0.904364 0.816409 0.000000
vt 0.757499 0.773439 0.000000
vt 0.850534 0.775169 0.000000
vt 0.736509 0.753880 0.000000
vt 0.845626 0.760824 0.000000
vt 0.903888 0.767454 0.000000
vt 0.924135 0.777478 0.000000
vt 0.845883 0.744829 0.000000
vt 0.854422 0.704031 0.000000
vt 0.778387 0.644964 0.000000
vt 0.872574 0.675541 0.000000
vt 0.861038 0.687959 0.000000
vt 0.790991 0.957130 0.000000
vt 0.884516 0.658739 0.000000
vt 0.777835 0.939615 0.000000
vt 0.872075 0.909927 0.000000
vt 0.860657 0.897452 0.000000
vt 0.854161 0.881386 0.000000
vt 0.846197 0.840326 0.000000
vt 0.678555 0.843251 0.000000
vt 0.696598 0.839857 0.000000
vt 0.645833 0.842827 0.000000
vt 0.661962 0.844123 0.000000
vt 0.612695 0.832234 0.000000
vt 0.629853 0.839145 0.000000
vt 0.643034 0.742466 0.000000
vt 0.626401 0.746431 0.000000
vt 0.677092 0.741754 0.000000
vt 0.659834 0.740984 0.000000
vt 0.695793 0.745133 0.000000
vt 0.706748 0.805172 0.000000
vt 0.709341 0.792819 0.000000
vt 0.699388 0.815478 0.000000
vt 0.688383 0.822239 0.000000
vt 0.675844 0.825934 0.000000
vt 0.662886 0.826306 0.000000
vt 0.649955 0.824783 0.000000
vt 0.637567 0.821013 0.000000
vt 0.626082 0.814769 0.000000
vt 0.634590 0.765293 0.000000
vt 0.647493 0.761255 0.000000
vt 0.660979 0.759529 0.000000
vt 0.674493 0.759743 0.000000
vt 0.687536 0.763372 0.000000
vt 0.698936 0.770127 0.000000
vt 0.706556 0.780468 0.000000
vt 0.915514 0.217273 0.000000
vt 0.881209 0.210749 0.000000
vt 0.954989 0.226313 0.000000
vt 0.944384 0.236919 0.000000
vt 0.940817 0.240485 0.000000
vt 0.913710 0.221629 0.000000
vt 0.881209 0.215795 0.000000
vt 0.977732 0.260113 0.000000
vt 0.964029 0.265788 0.000000
vt 0.985549 0.300094 0.000000
vt 0.970553 0.300094 0.000000
vt 0.965506 0.300094 0.000000
vt 0.959674 0.267593 0.000000
vt 0.977732 0.340074 0.000000
vt 0.964029 0.334399 0.000000
vt 0.954989 0.373874 0.000000
vt 0.944384 0.363269 0.000000
vt 0.940815 0.359702 0.000000
vt 0.959674 0.332594 0.000000
vt 0.921190 0.396616 0.000000
vt 0.915514 0.382916 0.000000
vt 0.881209 0.404436 0.000000
vt 0.881209 0.389438 0.000000
vt 0.881209 0.384392 0.000000
vt 0.913710 0.378558 0.000000
vt 0.841227 0.396616 0.000000
vt 0.846903 0.382916 0.000000
vt 0.807428 0.373874 0.000000
vt 0.818033 0.363269 0.000000
vt 0.821602 0.359702 0.000000
vt 0.848707 0.378558 0.000000
vt 0.784686 0.340074 0.000000
vt 0.798390 0.334399 0.000000
vt 0.776868 0.300094 0.000000
vt 0.865386 0.566309 0.000000
vt 0.850887 0.556583 0.000000
vt 0.841161 0.542085 0.000000
vt 0.837787 0.524956 0.000000
vt 0.841161 0.507827 0.000000
vt 0.850887 0.493329 0.000000
vt 0.865386 0.483603 0.000000
vt 0.791865 0.300094 0.000000
vt 0.796911 0.300094 0.000000
vt 0.802744 0.332594 0.000000
vt 0.784686 0.260113 0.000000
vt 0.798390 0.265788 0.000000
vt 0.807428 0.226313 0.000000
vt 0.818033 0.236919 0.000000
vt 0.821602 0.240485 0.000000
vt 0.802745 0.267593 0.000000
vt 0.841227 0.203571 0.000000
vt 0.846905 0.217273 0.000000
vt 0.848707 0.221629 0.000000
vt 0.750677 0.593717 0.000000
vt 0.761389 0.609636 0.000000
vt 0.587574 0.625788 0.000000
vt 0.589658 0.647048 0.000000
vt 0.985524 0.744841 0.000000
vt 0.969496 0.705543 0.000000
vt 0.591854 0.667888 0.000000
vt 0.594581 0.690403 0.000000
vt 0.602481 0.736499 0.000000
vt 0.791576 0.627632 0.000000
vt 0.883875 0.926949 0.000000
vt 0.608561 0.753749 0.000000
vt 0.622649 0.771889 0.000000
vt 0.653305 0.429383 0.000000
vt 0.674402 0.429383 0.000000
vt 0.674402 0.604780 0.000000
vt 0.653305 0.604780 0.000000
vt 0.687962 0.429383 0.000000
vt 0.687962 0.604780 0.000000
vt 0.701522 0.429383 0.000000
vt 0.701522 0.604780 0.000000
vt 0.583992 0.429383 0.000000
vt 0.583992 0.604780 0.000000
vt 0.605088 0.429383 0.000000
vt 0.605088 0.604780 0.000000
vt 0.618649 0.429383 0.000000
vt 0.618648 0.604780 0.000000
vt 0.632208 0.429383 0.000000
vt 0.632208 0.604780 0.000000
vt 0.683715 0.210695 0.000000
vt 0.725744 0.228289 0.000000
vt 0.706918 0.246974 0.000000
vt 0.683615 0.237219 0.000000
vt 0.641552 0.227972 0.000000
vt 0.660238 0.246799 0.000000
vt 0.623958 0.270004 0.000000
vt 0.650484 0.270103 0.000000
vt 0.653393 0.364796 0.000000
vt 0.635955 0.406891 0.000000
vt 0.617200 0.388136 0.000000
vt 0.626868 0.364796 0.000000
vt 0.593859 0.424329 0.000000
vt 0.593859 0.397803 0.000000
vt 0.551762 0.406891 0.000000
vt 0.570519 0.388135 0.000000
vt 0.641236 0.312165 0.000000
vt 0.534325 0.364796 0.000000
vt 0.560851 0.364796 0.000000
vt 0.551762 0.322700 0.000000
vt 0.570519 0.341456 0.000000
vt 0.593859 0.305263 0.000000
vt 0.593860 0.331788 0.000000
vt 0.635956 0.322701 0.000000
vt 0.617200 0.341456 0.000000
vt 0.593859 0.364796 0.000000
vt 0.660062 0.293479 0.000000
vt 0.683267 0.329759 0.000000
vt 0.683366 0.303235 0.000000
vt 0.725428 0.312481 0.000000
vt 0.706743 0.293655 0.000000
vt 0.743023 0.270450 0.000000
vt 0.716498 0.270350 0.000000
vt 0.683490 0.270226 0.000000
vt 0.562895 0.429383 0.000000
vt 0.562895 0.604780 0.000000
vt 0.653305 0.429383 0.000000
vt 0.674402 0.429383 0.000000
vt 0.674402 0.604780 0.000000
vt 0.653305 0.604780 0.000000
vt 0.687962 0.429383 0.000000
vt 0.687962 0.604780 0.000000
vt 0.701522 0.429383 0.000000
vt 0.701522 0.604780 0.000000
vt 0.562895 0.429383 0.000000
vt 0.583992 0.429383 0.000000
vt 0.583992 0.604780 0.000000
vt 0.562895 0.604780 0.000000
vt 0.605088 0.429383 0.000000
vt 0.605088 0.604780 0.000000
vt 0.618649 0.429383 0.000000
vt 0.618648 0.604780 0.000000
vt 0.632208 0.429383 0.000000
vt 0.632208 0.604780 0.000000
vt 0.683715 0.210695 0.000000
vt 0.725744 0.228289 0.000000
vt 0.706918 0.246974 0.000000
vt 0.683615 0.237219 0.000000
vt 0.641552 0.227972 0.000000
vt 0.660238 0.246799 0.000000
vt 0.623958 0.270004 0.000000
vt 0.650484 0.270103 0.000000
vt 0.641236 0.312165 0.000000
vt 0.660062 0.293479 0.000000
vt 0.683267 0.329759 0.000000
vt 0.683366 0.303235 0.000000
vt 0.725428 0.312481 0.000000
vt 0.706743 0.293655 0.000000
vt 0.743023 0.270450 0.000000
vt 0.716498 0.270350 0.000000
vt 0.653393 0.364796 0.000000
vt 0.635955 0.406891 0.000000
vt 0.617200 0.388136 0.000000
vt 0.626868 0.364796 0.000000
vt 0.593859 0.424329 0.000000
vt 0.593859 0.397803 0.000000
vt 0.551762 0.406891 0.000000
vt 0.570519 0.388135 0.000000
vt 0.534325 0.364796 0.000000
vt 0.560851 0.364796 0.000000
vt 0.551762 0.322700 0.000000
vt 0.570519 0.341456 0.000000
vt 0.593859 0.305263 0.000000
vt 0.593860 0.331788 0.000000
vt 0.635956 0.322701 0.000000
vt 0.617200 0.341456 0.000000
vt 0.683490 0.270226 0.000000
vt 0.593859 0.364796 0.000000
vt 0.653305 0.429383 0.000000
vt 0.674402 0.429383 0.000000
vt 0.674402 0.604780 0.000000
vt 0.653305 0.604780 0.000000
vt 0.687962 0.429383 0.000000
vt 0.687962 0.604780 0.000000
vt 0.701522 0.429383 0.000000
vt 0.701522 0.604780 0.000000
vt 0.562895 0.429383 0.000000
vt 0.583992 0.429383 0.000000
vt 0.583992 0.604780 0.000000
vt 0.562895 0.604780 0.000000
vt 0.605088 0.429383 0.000000
vt 0.605088 0.604780 0.000000
vt 0.618649 0.429383 0.000000
vt 0.618648 0.604780 0.000000
vt 0.632208 0.429383 0.000000
vt 0.632208 0.604780 0.000000
vt 0.683715 0.210695 0.000000
vt 0.725744 0.228289 0.000000
vt 0.706918 0.246974 0.000000
vt 0.683615 0.237219 0.000000
vt 0.641552 0.227972 0.000000
vt 0.660238 0.246799 0.000000
vt 0.623958 0.270004 0.000000
vt 0.650484 0.270103 0.000000
vt 0.641236 0.312165 0.000000
vt 0.660062 0.293479 0.000000
vt 0.683267 0.329759 0.000000
vt 0.683366 0.303235 0.000000
vt 0.725428 0.312481 0.000000
vt 0.706743 0.293655 0.000000
vt 0.743023 0.270450 0.000000
vt 0.716498 0.270350 0.000000
vt 0.653393 0.364796 0.000000
vt 0.635955 0.406891 0.000000
vt 0.617200 0.388136 0.000000
vt 0.626868 0.364796 0.000000
vt 0.593859 0.424329 0.000000
vt 0.593859 0.397803 0.000000
vt 0.551762 0.406891 0.000000
vt 0.570519 0.388135 0.000000
vt 0.534325 0.364796 0.000000
vt 0.560851 0.364796 0.000000
vt 0.551762 0.322700 0.000000
vt 0.570519 0.341456 0.000000
vt 0.593859 0.305263 0.000000
vt 0.593860 0.331788 0.000000
vt 0.635956 0.322701 0.000000
vt 0.617200 0.341456 0.000000
vt 0.683490 0.270226 0.000000
vt 0.593859 0.364796 0.000000
# 840 texture coords

o ???
g ???
f 1/1 2/2 7/3 5/4 
f 1/5 4/6 3/13 2/14 
f 6/17 8/18 3/19 4/20 
f 7/7 8/8 6/15 5/16 
f 4/11 1/9 5/10 6/12 
f 2/24 3/23 8/22 7/21 
f 293/25 81/26 82/27 225/28 
f 81/26 286/29 224/30 82/27 
f 286/29 83/31 84/32 224/30 
f 83/31 287/33 226/34 84/32 
f 287/33 85/35 86/36 226/34 
f 85/35 288/37 227/38 86/36 
f 288/37 87/39 88/40 227/38 
f 87/39 289/41 228/42 88/40 
f 289/41 89/43 90/44 228/42 
f 89/43 290/45 229/46 90/44 
f 290/45 91/47 92/48 229/46 
f 91/47 292/49 230/50 92/48 
f 292/49 93/51 94/52 230/50 
f 93/51 291/53 231/54 94/52 
f 291/53 95/55 96/56 231/54 
f 95/55 293/25 225/28 96/56 
f 232/57 97/58 98/59 235/60 
f 97/58 233/61 234/62 98/59 
f 233/61 99/63 100/64 234/62 
f 99/63 236/65 237/66 100/64 
f 236/65 101/67 102/68 237/66 
f 101/67 238/69 239/70 102/68 
f 238/69 103/71 104/72 239/70 
f 103/71 223/73 240/74 104/72 
f 223/73 105/75 106/76 240/74 
f 105/75 241/77 242/78 106/76 
f 241/77 107/79 108/80 242/78 
f 107/79 243/81 244/82 108/80 
f 243/81 109/83 110/84 244/82 
f 109/83 245/85 246/86 110/84 
f 245/85 111/87 112/88 246/86 
f 111/87 232/57 235/60 112/88 
f 247/93 113/94 25/95 114/96 
f 248/97 115/98 25/95 113/94 
f 249/99 114/96 25/95 115/98 
f 247/93 114/96 26/100 116/101 
f 249/99 117/102 26/100 114/96 
f 250/103 116/101 26/100 117/102 
f 247/93 116/101 27/104 118/105 
f 250/103 119/106 27/104 116/101 
f 251/107 118/105 27/104 119/106 
f 247/93 118/105 28/108 120/109 
f 251/107 121/110 28/108 118/105 
f 252/111 120/109 28/108 121/110 
f 247/93 120/109 29/112 122/113 
f 252/111 123/114 29/112 120/109 
f 253/115 122/113 29/112 123/114 
f 247/93 122/113 30/116 124/117 
f 253/115 125/118 30/116 122/113 
f 254/119 124/117 30/116 125/118 
f 247/93 124/117 31/120 126/121 
f 254/119 127/122 31/120 124/117 
f 255/123 126/121 31/120 127/122 
f 247/93 126/121 32/124 113/94 
f 255/123 128/125 32/124 126/121 
f 248/97 113/94 32/124 128/125 
f 224/30 129/89 10/90 82/27 
f 129/89 233/61 97/58 10/90 
f 10/90 97/58 232/57 130/91 
f 82/27 10/90 130/91 225/28 
f 226/34 131/92 9/128 84/32 
f 131/92 236/65 99/63 9/128 
f 9/128 99/63 233/61 129/89 
f 84/32 9/128 129/89 224/30 
f 227/38 132/129 12/130 86/36 
f 132/129 238/69 101/67 12/130 
f 12/130 101/67 236/65 131/92 
f 86/36 12/130 131/92 226/34 
f 228/42 133/131 13/132 88/40 
f 133/131 223/73 103/71 13/132 
f 13/132 103/71 238/69 132/129 
f 88/40 13/132 132/129 227/38 
f 229/46 134/133 14/134 90/44 
f 134/133 241/77 105/75 14/134 
f 14/134 105/75 223/73 133/131 
f 90/44 14/134 133/131 228/42 
f 230/50 135/135 15/136 92/48 
f 135/135 243/81 107/79 15/136 
f 15/136 107/79 241/77 134/133 
f 92/48 15/136 134/133 229/46 
f 231/54 136/137 16/138 94/52 
f 136/137 245/85 109/83 16/138 
f 16/138 109/83 243/81 135/135 
f 94/52 16/138 135/135 230/50 
f 225/28 130/91 11/139 96/56 
f 130/91 232/57 111/87 11/139 
f 11/139 111/87 245/85 136/137 
f 96/56 11/139 136/137 231/54 
f 235/60 98/59 18/140 137/141 
f 98/59 234/62 138/142 18/140 
f 18/149 138/150 177/151 42/152 
f 137/153 18/149 42/152 178/154 
f 234/62 100/64 17/143 138/142 
f 100/64 237/66 139/144 17/143 
f 17/155 139/156 179/157 41/158 
f 138/150 17/155 41/158 177/151 
f 237/66 102/68 20/145 139/144 
f 102/68 239/70 140/146 20/145 
f 20/159 140/160 180/161 44/162 
f 139/156 20/159 44/162 179/157 
f 239/70 104/72 21/147 140/146 
f 104/72 240/74 141/148 21/147 
f 21/163 141/164 181/165 45/166 
f 140/160 21/163 45/166 180/161 
f 240/74 106/76 22/323 141/148 
f 106/76 242/78 142/324 22/323 
f 22/167 142/168 182/169 46/170 
f 141/344 22/167 46/170 181/345 
f 242/78 108/80 23/325 142/324 
f 108/80 244/82 143/326 23/325 
f 23/171 143/172 183/173 47/174 
f 142/168 23/171 47/174 182/169 
f 244/82 110/84 24/327 143/326 
f 110/84 246/86 144/328 24/327 
f 24/175 144/176 184/177 48/178 
f 143/172 24/175 48/178 183/173 
f 246/86 112/88 19/329 144/328 
f 112/88 235/60 137/141 19/329 
f 19/179 137/342 178/343 43/180 
f 144/176 19/179 43/180 184/177 
f 257/181 145/182 49/183 146/184 
f 145/182 185/185 53/186 49/183 
f 49/183 53/186 186/187 147/188 
f 146/184 49/183 147/188 258/189 
f 259/190 148/191 57/192 149/193 
f 148/191 187/194 60/195 57/192 
f 57/192 60/195 189/196 150/197 
f 149/193 57/192 150/197 260/198 
f 261/199 151/200 58/201 152/202 
f 151/200 190/203 59/204 58/201 
f 58/201 59/204 187/194 148/191 
f 152/202 58/201 148/191 259/190 
f 262/205 153/206 61/207 154/208 
f 153/206 192/209 62/210 61/207 
f 61/207 62/210 190/203 151/200 
f 154/208 61/207 151/200 261/199 
f 263/211 155/212 63/213 156/214 
f 155/212 194/215 64/216 63/213 
f 63/213 64/216 192/350 153/349 
f 156/214 63/213 153/349 262/348 
f 264/217 157/218 65/219 158/220 
f 157/218 196/221 66/222 65/219 
f 65/219 66/222 194/215 155/212 
f 158/220 65/219 155/212 263/211 
f 265/223 159/224 67/225 160/226 
f 159/224 170/227 68/228 67/225 
f 67/225 68/228 196/221 157/218 
f 160/226 67/225 157/218 264/217 
f 258/347 147/346 55/229 161/230 
f 147/346 186/187 54/231 55/229 
f 55/229 54/231 171/232 162/233 
f 161/230 55/229 162/233 266/234 
f 267/235 163/236 71/237 164/238 
f 163/236 268/239 165/240 71/237 
f 71/237 165/240 269/241 166/242 
f 164/238 71/237 166/242 270/243 
f 268/239 167/244 72/245 165/240 
f 167/244 271/246 168/247 72/245 
f 72/245 168/247 272/248 169/249 
f 165/240 72/245 169/249 269/241 
f 271/246 170/227 70/250 168/247 
f 170/227 159/224 69/251 70/250 
f 70/250 69/251 162/233 171/232 
f 168/247 70/250 171/232 272/248 
f 265/223 172/252 56/253 173/254 
f 172/252 273/351 174/256 56/253 
f 56/253 174/256 258/347 161/230 
f 173/254 56/253 161/230 266/234 
f 273/255 175/257 50/258 174/352 
f 175/257 260/198 176/259 50/258 
f 50/258 176/259 257/181 146/184 
f 174/352 50/258 146/184 258/189 
f 260/198 150/197 51/260 176/259 
f 150/197 189/196 52/261 51/260 
f 51/260 52/261 185/185 145/182 
f 176/259 51/260 145/182 257/181 
f 177/151 260/198 175/257 42/152 
f 42/152 175/257 273/255 178/154 
f 179/157 259/190 149/193 41/158 
f 41/158 149/193 260/198 177/151 
f 180/161 261/199 152/202 44/162 
f 44/162 152/202 259/190 179/157 
f 181/165 262/205 154/208 45/166 
f 45/166 154/208 261/199 180/161 
f 182/169 263/211 156/214 46/170 
f 46/170 156/214 262/348 181/345 
f 183/173 264/217 158/220 47/174 
f 47/174 158/220 263/211 182/169 
f 184/177 265/223 160/226 48/178 
f 48/178 160/226 264/217 183/173 
f 178/343 273/351 172/252 43/180 
f 43/180 172/252 265/223 184/177 
f 185/185 270/243 166/242 53/186 
f 53/186 166/242 269/241 186/187 
f 187/194 274/262 188/263 60/195 
f 60/195 188/263 267/235 189/196 
f 190/203 275/264 191/265 59/204 
f 59/204 191/265 274/262 187/194 
f 192/209 276/266 193/267 62/210 
f 62/210 193/267 275/264 190/203 
f 194/215 277/268 195/269 64/216 
f 64/216 195/269 276/353 192/350 
f 196/221 278/270 197/271 66/222 
f 66/222 197/271 277/268 194/215 
f 170/227 271/246 198/272 68/228 
f 68/228 198/272 278/270 196/221 
f 186/187 269/241 169/249 54/231 
f 54/231 169/249 272/248 171/232 
f 159/224 265/223 173/254 69/251 
f 69/251 173/254 266/234 162/233 
f 189/196 267/235 164/238 52/261 
f 52/261 164/238 270/243 185/185 
f 268/239 163/236 199/273 280/274 
f 163/236 267/235 279/275 199/273 
f 267/235 188/263 200/276 279/275 
f 188/263 274/262 281/277 200/276 
f 274/262 191/265 201/278 281/277 
f 191/265 275/264 256/279 201/278 
f 275/264 193/267 202/280 256/279 
f 193/267 276/266 282/281 202/280 
f 276/353 195/269 203/282 282/354 
f 195/269 277/268 283/283 203/282 
f 277/268 197/271 204/284 283/283 
f 197/271 278/270 284/285 204/284 
f 278/270 198/272 205/286 284/285 
f 198/272 271/246 285/287 205/286 
f 271/246 167/244 206/288 285/287 
f 167/244 268/239 280/274 206/288 
f 280/126 199/127 74/289 207/290 
f 199/127 279/291 208/292 74/289 
f 74/289 208/292 215/293 34/294 
f 207/290 74/289 34/294 216/295 
f 279/291 200/296 73/297 208/292 
f 200/296 281/298 209/299 73/297 
f 73/297 209/299 217/300 35/301 
f 208/292 73/297 35/301 215/293 
f 281/298 201/302 76/303 209/299 
f 201/302 256/304 210/305 76/303 
f 76/303 210/305 218/306 36/307 
f 209/299 76/303 36/307 217/300 
f 256/304 202/308 77/309 210/305 
f 202/308 282/310 211/311 77/309 
f 77/309 211/311 219/312 37/313 
f 210/305 77/309 37/313 218/306 
f 282/310 203/314 78/315 211/311 
f 203/314 283/316 212/317 78/315 
f 78/315 212/317 220/318 38/319 
f 211/311 78/315 38/319 219/312 
f 283/316 204/320 79/321 212/317 
f 204/320 284/322 213/330 79/321 
f 79/321 213/330 221/331 39/332 
f 212/317 79/321 39/332 220/318 
f 284/322 205/333 80/334 213/330 
f 205/333 285/335 214/336 80/334 
f 80/334 214/336 222/337 40/338 
f 213/330 80/334 40/338 221/331 
f 285/335 206/339 75/340 214/336 
f 206/339 280/126 207/290 75/340 
f 75/340 207/290 216/295 33/341 
f 214/336 75/340 33/341 222/337 
f 215/293 249/99 115/98 34/294 
f 34/294 115/98 248/97 216/295 
f 217/300 250/103 117/102 35/301 
f 35/301 117/102 249/99 215/293 
f 218/306 251/107 119/106 36/307 
f 36/307 119/106 250/103 217/300 
f 219/312 252/111 121/110 37/313 
f 37/313 121/110 251/107 218/306 
f 220/318 253/115 123/114 38/319 
f 38/319 123/114 252/111 219/312 
f 221/331 254/119 125/118 39/332 
f 39/332 125/118 253/115 220/318 
f 222/337 255/123 127/122 40/338 
f 40/338 127/122 254/119 221/331 
f 216/295 248/97 128/125 33/341 
f 33/341 128/125 255/123 222/337 
f 578/355 510/358 367/357 366/356 
f 366/356 367/357 509/360 571/359 
f 571/359 509/360 369/362 368/361 
f 368/361 369/362 511/364 572/363 
f 572/363 511/364 371/366 370/365 
f 370/365 371/366 512/368 573/367 
f 573/367 512/368 373/370 372/369 
f 372/369 373/370 513/372 574/371 
f 574/371 513/372 375/374 374/373 
f 374/373 375/374 514/376 575/375 
f 575/375 514/376 377/378 376/377 
f 376/377 377/378 515/380 577/379 
f 577/379 515/380 379/382 378/381 
f 378/381 379/382 516/384 576/383 
f 576/383 516/384 381/386 380/385 
f 380/385 381/386 510/358 578/355 
f 517/387 520/390 383/389 382/388 
f 382/388 383/389 519/392 518/391 
f 518/391 519/392 385/394 384/393 
f 384/393 385/394 522/396 521/395 
f 521/395 522/396 387/398 386/397 
f 386/397 387/398 524/400 523/399 
f 523/399 524/400 389/402 388/401 
f 388/401 389/402 525/404 508/403 
f 508/403 525/404 391/406 390/405 
f 390/405 391/406 527/408 526/407 
f 526/407 527/408 393/410 392/409 
f 392/409 393/410 529/412 528/411 
f 528/411 529/412 395/414 394/413 
f 394/413 395/414 531/416 530/415 
f 530/415 531/416 397/418 396/417 
f 396/417 397/418 520/390 517/387 
f 532/423 399/426 310/425 398/424 
f 533/427 398/424 310/425 400/428 
f 534/429 400/428 310/425 399/426 
f 532/423 401/431 311/430 399/426 
f 534/429 399/426 311/430 402/432 
f 535/433 402/432 311/430 401/431 
f 532/423 403/435 312/434 401/431 
f 535/433 401/431 312/434 404/436 
f 536/437 404/436 312/434 403/435 
f 532/423 405/439 313/438 403/435 
f 536/437 403/435 313/438 406/440 
f 537/441 406/440 313/438 405/439 
f 532/423 407/443 314/442 405/439 
f 537/441 405/439 314/442 408/444 
f 538/445 408/444 314/442 407/443 
f 532/423 409/447 315/446 407/443 
f 538/445 407/443 315/446 410/448 
f 539/449 410/448 315/446 409/447 
f 532/423 411/451 316/450 409/447 
f 539/449 409/447 316/450 412/452 
f 540/453 412/452 316/450 411/451 
f 532/423 398/424 317/454 411/451 
f 540/453 411/451 317/454 413/455 
f 533/427 413/455 317/454 398/424 
f 509/360 367/357 295/420 414/419 
f 414/419 295/420 382/388 518/391 
f 295/420 415/421 517/387 382/388 
f 367/357 510/358 415/421 295/420 
f 511/364 369/362 294/458 416/422 
f 416/422 294/458 384/393 521/395 
f 294/458 414/419 518/391 384/393 
f 369/362 509/360 414/419 294/458 
f 512/368 371/366 297/460 417/459 
f 417/459 297/460 386/397 523/399 
f 297/460 416/422 521/395 386/397 
f 371/366 511/364 416/422 297/460 
f 513/372 373/370 298/462 418/461 
f 418/461 298/462 388/401 508/403 
f 298/462 417/459 523/399 388/401 
f 373/370 512/368 417/459 298/462 
f 514/376 375/374 299/464 419/463 
f 419/463 299/464 390/405 526/407 
f 299/464 418/461 508/403 390/405 
f 375/374 513/372 418/461 299/464 
f 515/380 377/378 300/466 420/465 
f 420/465 300/466 392/409 528/411 
f 300/466 419/463 526/407 392/409 
f 377/378 514/376 419/463 300/466 
f 516/384 379/382 301/468 421/467 
f 421/467 301/468 394/413 530/415 
f 301/468 420/465 528/411 394/413 
f 379/382 515/380 420/465 301/468 
f 510/358 381/386 296/469 415/421 
f 415/421 296/469 396/417 517/387 
f 296/469 421/467 530/415 396/417 
f 381/386 516/384 421/467 296/469 
f 520/390 422/471 303/470 383/389 
f 383/389 303/470 423/472 519/392 
f 303/479 327/482 462/481 423/480 
f 422/483 463/484 327/482 303/479 
f 519/392 423/472 302/473 385/394 
f 385/394 302/473 424/474 522/396 
f 302/485 326/488 464/487 424/486 
f 423/480 462/481 326/488 302/485 
f 522/396 424/474 305/475 387/398 
f 387/398 305/475 425/476 524/400 
f 305/489 329/492 465/491 425/490 
f 424/486 464/487 329/492 305/489 
f 524/400 425/476 306/477 389/402 
f 389/402 306/477 426/478 525/404 
f 306/493 330/496 466/495 426/494 
f 425/490 465/491 330/496 306/493 
f 525/404 426/478 307/653 391/406 
f 391/406 307/653 427/654 527/408 
f 307/497 331/500 467/499 427/498 
f 426/674 466/675 331/500 307/497 
f 527/408 427/654 308/655 393/410 
f 393/410 308/655 428/656 529/412 
f 308/501 332/504 468/503 428/502 
f 427/498 467/499 332/504 308/501 
f 529/412 428/656 309/657 395/414 
f 395/414 309/657 429/658 531/416 
f 309/505 333/508 469/507 429/506 
f 428/502 468/503 333/508 309/505 
f 531/416 429/658 304/659 397/418 
f 397/418 304/659 422/471 520/390 
f 304/509 328/510 463/673 422/672 
f 429/506 469/507 328/510 304/509 
f 542/511 431/514 334/513 430/512 
f 430/512 334/513 338/516 470/515 
f 334/513 432/518 471/517 338/516 
f 431/514 543/519 432/518 334/513 
f 544/520 434/523 342/522 433/521 
f 433/521 342/522 345/525 472/524 
f 342/522 435/527 474/526 345/525 
f 434/523 545/528 435/527 342/522 
f 546/529 437/532 343/531 436/530 
f 436/530 343/531 344/534 475/533 
f 343/531 433/521 472/524 344/534 
f 437/532 544/520 433/521 343/531 
f 547/535 439/538 346/537 438/536 
f 438/536 346/537 347/540 477/539 
f 346/537 436/530 475/533 347/540 
f 439/538 546/529 436/530 346/537 
f 548/541 441/544 348/543 440/542 
f 440/542 348/543 349/546 479/545 
f 348/543 438/679 477/680 349/546 
f 441/544 547/678 438/679 348/543 
f 549/547 443/550 350/549 442/548 
f 442/548 350/549 351/552 481/551 
f 350/549 440/542 479/545 351/552 
f 443/550 548/541 440/542 350/549 
f 550/553 445/556 352/555 444/554 
f 444/554 352/555 353/558 455/557 
f 352/555 442/548 481/551 353/558 
f 445/556 549/547 442/548 352/555 
f 543/677 446/560 340/559 432/676 
f 432/676 340/559 339/561 471/517 
f 340/559 447/563 456/562 339/561 
f 446/560 551/564 447/563 340/559 
f 552/565 449/568 356/567 448/566 
f 448/566 356/567 450/570 553/569 
f 356/567 451/572 554/571 450/570 
f 449/568 555/573 451/572 356/567 
f 553/569 450/570 357/575 452/574 
f 452/574 357/575 453/577 556/576 
f 357/575 454/579 557/578 453/577 
f 450/570 554/571 454/579 357/575 
f 556/576 453/577 355/580 455/557 
f 455/557 355/580 354/581 444/554 
f 355/580 456/562 447/563 354/581 
f 453/577 557/578 456/562 355/580 
f 550/553 458/584 341/583 457/582 
f 457/582 341/583 459/586 558/681 
f 341/583 446/560 543/677 459/586 
f 458/584 551/564 446/560 341/583 
f 558/585 459/682 335/588 460/587 
f 460/587 335/588 461/589 545/528 
f 335/588 431/514 542/511 461/589 
f 459/682 543/519 431/514 335/588 
f 545/528 461/589 336/590 435/527 
f 435/527 336/590 337/591 474/526 
f 336/590 430/512 470/515 337/591 
f 461/589 542/511 430/512 336/590 
f 462/481 327/482 460/587 545/528 
f 327/482 463/484 558/585 460/587 
f 464/487 326/488 434/523 544/520 
f 326/488 462/481 545/528 434/523 
f 465/491 329/492 437/532 546/529 
f 329/492 464/487 544/520 437/532 
f 466/495 330/496 439/538 547/535 
f 330/496 465/491 546/529 439/538 
f 467/499 331/500 441/544 548/541 
f 331/500 466/675 547/678 441/544 
f 468/503 332/504 443/550 549/547 
f 332/504 467/499 548/541 443/550 
f 469/507 333/508 445/556 550/553 
f 333/508 468/503 549/547 445/556 
f 463/673 328/510 457/582 558/681 
f 328/510 469/507 550/553 457/582 
f 470/515 338/516 451/572 555/573 
f 338/516 471/517 554/571 451/572 
f 472/524 345/525 473/593 559/592 
f 345/525 474/526 552/565 473/593 
f 475/533 344/534 476/595 560/594 
f 344/534 472/524 559/592 476/595 
f 477/539 347/540 478/597 561/596 
f 347/540 475/533 560/594 478/597 
f 479/545 349/546 480/599 562/598 
f 349/546 477/680 561/683 480/599 
f 481/551 351/552 482/601 563/600 
f 351/552 479/545 562/598 482/601 
f 455/557 353/558 483/602 556/576 
f 353/558 481/551 563/600 483/602 
f 471/517 339/561 454/579 554/571 
f 339/561 456/562 557/578 454/579 
f 444/554 354/581 458/584 550/553 
f 354/581 447/563 551/564 458/584 
f 474/526 337/591 449/568 552/565 
f 337/591 470/515 555/573 449/568 
f 553/569 565/604 484/603 448/566 
f 448/566 484/603 564/605 552/565 
f 552/565 564/605 485/606 473/593 
f 473/593 485/606 566/607 559/592 
f 559/592 566/607 486/608 476/595 
f 476/595 486/608 541/609 560/594 
f 560/594 541/609 487/610 478/597 
f 478/597 487/610 567/611 561/596 
f 561/683 567/684 488/612 480/599 
f 480/599 488/612 568/613 562/598 
f 562/598 568/613 489/614 482/601 
f 482/601 489/614 569/615 563/600 
f 563/600 569/615 490/616 483/602 
f 483/602 490/616 570/617 556/576 
f 556/576 570/617 491/618 452/574 
f 452/574 491/618 565/604 553/569 
f 565/456 492/620 359/619 484/457 
f 484/457 359/619 493/622 564/621 
f 359/619 319/624 500/623 493/622 
f 492/620 501/625 319/624 359/619 
f 564/621 493/622 358/627 485/626 
f 485/626 358/627 494/629 566/628 
f 358/627 320/631 502/630 494/629 
f 493/622 500/623 320/631 358/627 
f 566/628 494/629 361/633 486/632 
f 486/632 361/633 495/635 541/634 
f 361/633 321/637 503/636 495/635 
f 494/629 502/630 321/637 361/633 
f 541/634 495/635 362/639 487/638 
f 487/638 362/639 496/641 567/640 
f 362/639 322/643 504/642 496/641 
f 495/635 503/636 322/643 362/639 
f 567/640 496/641 363/645 488/644 
f 488/644 363/645 497/647 568/646 
f 363/645 323/649 505/648 497/647 
f 496/641 504/642 323/649 363/645 
f 568/646 497/647 364/651 489/650 
f 489/650 364/651 498/660 569/652 
f 364/651 324/662 506/661 498/660 
f 497/647 505/648 324/662 364/651 
f 569/652 498/660 365/664 490/663 
f 490/663 365/664 499/666 570/665 
f 365/664 325/668 507/667 499/666 
f 498/660 506/661 325/668 365/664 
f 570/665 499/666 360/670 491/669 
f 491/669 360/670 492/620 565/456 
f 360/670 318/671 501/625 492/620 
f 499/666 507/667 318/671 360/670 
f 500/623 319/624 400/428 534/429 
f 319/624 501/625 533/427 400/428 
f 502/630 320/631 402/432 535/433 
f 320/631 500/623 534/429 402/432 
f 503/636 321/637 404/436 536/437 
f 321/637 502/630 535/433 404/436 
f 504/642 322/643 406/440 537/441 
f 322/643 503/636 536/437 406/440 
f 505/648 323/649 408/444 538/445 
f 323/649 504/642 537/441 408/444 
f 506/661 324/662 410/448 539/449 
f 324/662 505/648 538/445 410/448 
f 507/667 325/668 412/452 540/453 
f 325/668 506/661 539/449 412/452 
f 501/625 318/671 413/455 533/427 
f 318/671 507/667 540/453 413/455 
f 579/685 580/686 588/687 587/688 
f 580/686 581/689 589/690 588/687 
f 581/689 582/691 590/692 589/690 
f 582/735 583/693 591/694 590/736 
f 583/693 584/695 592/696 591/694 
f 584/695 585/697 593/698 592/696 
f 585/697 586/699 594/700 593/698 
f 586/699 579/685 587/688 594/700 
f 580/701 579/702 595/703 596/704 
f 581/705 580/701 596/704 597/706 
f 582/707 581/705 597/706 598/708 
f 583/717 582/707 598/708 599/727 
f 584/728 583/717 599/727 600/729 
f 585/730 584/728 600/729 601/731 
f 586/732 585/730 601/731 602/733 
f 579/702 586/732 602/733 595/703 
f 587/709 588/710 604/711 603/712 
f 588/710 589/713 605/714 604/711 
f 589/713 590/715 606/716 605/714 
f 590/715 591/718 607/719 606/716 
f 591/718 592/720 608/721 607/719 
f 592/720 593/722 609/723 608/721 
f 593/722 594/724 610/725 609/723 
f 594/724 587/709 603/712 610/725 
f 596/704 595/703 611/734 
f 597/706 596/704 611/734 
f 598/708 597/706 611/734 
f 599/727 598/708 611/734 
f 600/729 599/727 611/734 
f 601/731 600/729 611/734 
f 602/733 601/731 611/734 
f 595/703 602/733 611/734 
f 603/712 604/711 612/726 
f 604/711 605/714 612/726 
f 605/714 606/716 612/726 
f 606/716 607/719 612/726 
f 607/719 608/721 612/726 
f 608/721 609/723 612/726 
f 609/723 610/725 612/726 
f 610/725 603/712 612/726 
f 613/737 614/738 615/739 616/740 
f 614/738 617/741 618/742 615/739 
f 617/741 619/743 620/744 618/742 
f 619/745 621/746 622/747 620/748 
f 621/746 623/749 624/750 622/747 
f 623/749 625/751 626/752 624/750 
f 625/751 627/753 628/754 626/752 
f 627/753 613/737 616/740 628/754 
f 614/755 613/756 629/757 630/758 
f 617/759 614/755 630/758 631/760 
f 619/761 617/759 631/760 632/762 
f 621/763 619/761 632/762 633/764 
f 623/765 621/763 633/764 634/766 
f 625/767 623/765 634/766 635/768 
f 627/769 625/767 635/768 636/770 
f 613/756 627/769 636/770 629/757 
f 616/771 615/772 637/773 638/774 
f 615/772 618/775 639/776 637/773 
f 618/775 620/777 640/778 639/776 
f 620/777 622/779 641/780 640/778 
f 622/779 624/781 642/782 641/780 
f 624/781 626/783 643/784 642/782 
f 626/783 628/785 644/786 643/784 
f 628/785 616/771 638/774 644/786 
f 630/758 629/757 645/787 
f 631/760 630/758 645/787 
f 632/762 631/760 645/787 
f 633/764 632/762 645/787 
f 634/766 633/764 645/787 
f 635/768 634/766 645/787 
f 636/770 635/768 645/787 
f 629/757 636/770 645/787 
f 638/774 637/773 646/788 
f 637/773 639/776 646/788 
f 639/776 640/778 646/788 
f 640/778 641/780 646/788 
f 641/780 642/782 646/788 
f 642/782 643/784 646/788 
f 643/784 644/786 646/788 
f 644/786 638/774 646/788 
f 647/789 648/790 649/791 650/792 
f 648/790 651/793 652/794 649/791 
f 651/793 653/795 654/796 652/794 
f 653/797 655/798 656/799 654/800 
f 655/798 657/801 658/802 656/799 
f 657/801 659/803 660/804 658/802 
f 659/803 661/805 662/806 660/804 
f 661/805 647/789 650/792 662/806 
f 648/807 647/808 663/809 664/810 
f 651/811 648/807 664/810 665/812 
f 653/813 651/811 665/812 666/814 
f 655/815 653/813 666/814 667/816 
f 657/817 655/815 667/816 668/818 
f 659/819 657/817 668/818 669/820 
f 661/821 659/819 669/820 670/822 
f 647/808 661/821 670/822 663/809 
f 650/823 649/824 671/825 672/826 
f 649/824 652/827 673/828 671/825 
f 652/827 654/829 674/830 673/828 
f 654/829 656/831 675/832 674/830 
f 656/831 658/833 676/834 675/832 
f 658/833 660/835 677/836 676/834 
f 660/835 662/837 678/838 677/836 
f 662/837 650/823 672/826 678/838 
f 664/810 663/809 679/839 
f 665/812 664/810 679/839 
f 666/814 665/812 679/839 
f 667/816 666/814 679/839 
f 668/818 667/816 679/839 
f 669/820 668/818 679/839 
f 670/822 669/820 679/839 
f 663/809 670/822 679/839 
f 672/826 671/825 680/840 
f 671/825 673/828 680/840 
f 673/828 674/830 680/840 
f 674/830 675/832 680/840 
f 675/832 676/834 680/840 
f 676/834 677/836 680/840 
f 677/836 678/838 680/840 
f 678/838 672/826 680/840 
# 630 polygons - 48 triangles

