# 3ds Max Wavefront OBJ Exporter v0.97b - (c)2007 guruware
# File Created: 28.06.2021 15:56:47

#
# object Plane002
#

v  0.348925 0.797369 41.777905
v  17.640362 0.797368 41.777905
v  21.432165 0.797368 41.777905
v  38.723602 0.797368 47.758057
v  0.348925 0.797368 35.501308
v  17.640362 0.797368 35.501308
v  21.432165 0.797368 35.501308
v  38.723602 0.797368 35.501308
v  0.348927 0.797369 28.767151
v  17.640362 0.797368 28.767151
v  21.432165 0.797368 28.767151
v  38.723598 0.797369 28.767151
v  0.348927 0.797369 21.375053
v  17.640362 0.797368 21.375053
v  21.432165 0.797368 21.375053
v  38.723598 0.797369 21.375053
v  0.348927 0.797368 0.472469
v  17.640362 0.797368 0.472469
v  21.432165 0.797368 0.472469
v  38.723598 0.797368 0.472469
v  0.348925 0.440062 41.777905
v  17.640362 0.440063 41.777905
v  21.432165 0.440063 41.777905
v  38.723602 0.440062 47.758057
v  0.348925 0.440063 35.501308
v  38.723602 0.440063 35.501308
v  0.348927 0.440063 28.767151
v  38.723598 0.440063 28.767151
v  0.348927 0.440063 21.375053
v  38.723598 0.440063 21.375053
v  0.348927 0.440063 0.472469
v  17.640362 0.440063 0.472469
v  21.432165 0.440063 0.472469
v  38.723598 0.440063 0.472469
v  17.640360 0.440005 35.501308
v  21.432165 0.440005 35.501308
v  0.966064 0.797368 35.501305
v  0.966066 0.797368 41.777905
v  0.966064 0.797368 28.767151
v  0.966064 0.797368 21.375053
v  0.966064 0.797368 0.472469
v  0.966066 0.440062 41.777905
v  0.966068 0.440063 0.472469
v  38.106461 0.797368 35.501305
v  38.106457 0.797368 47.758053
v  38.106461 0.797368 28.767151
v  38.106461 0.797368 21.375053
v  38.106453 0.797368 0.472469
v  38.106457 0.440062 47.758057
v  38.106453 0.440063 0.472469
v  0.348927 0.797368 1.245529
v  17.640362 0.797368 1.245529
v  21.432163 0.797368 1.245529
v  38.723598 0.797368 1.245529
v  0.348927 0.440063 1.245529
v  38.723598 0.440063 1.245529
v  0.966064 0.797368 1.245529
v  38.106453 0.797368 1.245529
v  0.348927 0.797368 41.255234
v  17.640362 0.797368 41.255234
v  21.894226 0.797368 41.255234
v  38.723598 0.797368 47.235390
v  0.348927 0.440063 41.255241
v  38.723598 0.440063 47.235390
v  17.640362 0.440055 41.255241
v  21.894226 0.440055 41.255241
v  0.966066 0.797368 41.255234
v  38.106457 0.797368 47.235382
v  0.348927 20.281609 35.501305
v  0.348927 20.281609 41.255234
v  0.348927 20.281612 41.777901
v  0.966070 20.281612 41.777901
v  17.640362 20.281612 41.777901
v  17.640362 20.281609 41.255234
v  0.966070 20.281609 41.255234
v  0.966066 20.281609 35.501305
v  0.966066 20.281609 28.767151
v  0.966066 20.281610 21.375053
v  0.966066 20.281607 1.245531
v  17.640362 20.281609 1.245531
v  21.432163 20.281609 1.245531
v  38.106453 20.281607 1.245531
v  38.106457 20.281610 21.375053
v  38.106457 20.281609 28.767151
v  38.106457 20.281609 35.501305
v  38.106457 20.281610 47.235382
v  21.894226 20.281609 41.255234
v  21.432163 20.281612 41.777901
v  38.106457 20.281610 47.758053
v  38.723598 20.281610 47.758053
v  38.723598 20.281610 47.235390
v  38.723598 20.281609 35.501305
v  38.723598 20.281609 28.767151
v  38.723598 20.281610 21.375053
v  38.723598 20.281607 1.245531
v  38.723598 20.281607 0.472469
v  38.106453 20.281607 0.472469
v  21.432163 20.281609 0.472469
v  17.640362 20.281609 0.472469
v  0.966066 20.281607 0.472469
v  0.348927 20.281607 0.472469
v  0.348927 20.281607 1.245531
v  0.348927 20.281610 21.375053
v  0.348927 20.281609 28.767151
v  10.033547 0.797369 35.501308
v  21.440918 0.797368 47.758057
v  10.033547 0.797369 28.767151
v  10.033547 0.797369 21.375053
v  10.033550 0.797368 0.472469
v  21.440918 0.440062 47.758057
v  10.033550 0.440063 0.472469
v  10.033548 0.797369 41.777901
v  10.033548 0.440063 41.777905
v  30.374851 0.797368 35.501308
v  30.374851 0.797369 28.767151
v  30.374851 0.797369 21.375053
v  30.374851 0.797368 0.472469
v  30.374851 0.440063 0.472469
v  30.374851 0.797368 1.245529
v  10.033550 0.797368 1.245529
v  21.902979 0.797368 47.235390
v  10.033549 0.797368 41.255234
v  10.033549 20.281612 41.777901
v  10.033549 20.281610 41.255234
v  10.033550 20.281607 1.245531
v  30.374849 20.281607 1.245531
v  21.902979 20.281610 47.235390
v  21.440916 20.281610 47.758053
v  30.374849 20.281607 0.472469
v  10.033550 20.281607 0.472469
v  0.348927 7.658176 35.501308
v  0.348927 7.658176 41.255234
v  0.348927 7.658176 41.777905
v  0.966066 7.658176 41.777905
v  17.640362 7.658176 41.777901
v  17.640362 7.658176 41.255234
v  0.966066 7.658176 41.255234
v  0.966064 7.658176 35.501305
v  0.966064 7.658176 28.767151
v  0.966064 7.658176 21.375053
v  0.966064 7.658175 1.245529
v  17.640362 7.658176 1.245529
v  21.432163 7.658176 1.245529
v  38.106453 7.658175 1.245529
v  38.106461 7.658176 21.375053
v  38.106461 7.658176 28.767151
v  38.106461 7.658176 35.501305
v  38.106457 7.658176 47.235382
v  21.894226 7.658176 41.255234
v  21.432165 7.658176 41.777901
v  38.106457 7.658176 47.758053
v  38.723598 7.658176 47.758057
v  38.723598 7.658176 47.235390
v  38.723598 7.658176 35.501308
v  38.723598 7.658176 28.767151
v  38.723598 7.658176 21.375053
v  38.723598 7.658175 1.245529
v  38.723598 7.658175 0.472469
v  38.106453 7.658175 0.472469
v  21.432163 7.658176 0.472469
v  17.640362 7.658176 0.472469
v  0.966064 7.658175 0.472469
v  0.348927 7.658175 0.472469
v  0.348927 7.658175 1.245529
v  0.348927 7.658176 21.375053
v  0.348927 7.658176 28.767151
v  10.033549 7.658176 41.777901
v  10.033549 7.658176 41.255234
v  10.033550 7.658175 1.245529
v  30.374851 7.658175 1.245529
v  21.902979 7.658176 47.235390
v  21.440918 7.658176 47.758057
v  30.374851 7.658175 0.472469
v  10.033550 7.658175 0.472469
v  0.966068 0.440063 1.245529
v  10.033550 0.440063 1.245529
v  17.640362 0.440061 1.245529
v  21.432165 0.440061 1.245529
v  30.374851 0.440063 1.245529
v  38.106453 0.440063 1.245529
v  38.106461 0.440064 21.375053
v  30.374851 0.440063 21.375051
v  21.432165 0.440042 21.375053
v  17.640360 0.440042 21.375053
v  10.033547 0.440063 21.375053
v  0.966066 0.440064 21.375053
v  38.106461 0.440063 28.767151
v  30.374851 0.440063 28.767151
v  21.432165 0.440023 28.767155
v  17.640360 0.440023 28.767155
v  10.033547 0.440063 28.767151
v  0.966066 0.440063 28.767151
v  0.966066 0.440063 35.501308
v  10.033547 0.440063 35.501297
v  30.374851 0.440063 35.501301
v  38.106461 0.440063 35.501308
v  0.966066 0.440062 41.255238
v  10.033549 0.440061 41.255234
v  21.902979 0.440062 47.235390
v  38.106457 0.440062 47.235390
v  0.348927 0.548806 41.777905
v  17.640362 0.548806 41.777905
v  21.432165 0.548806 41.777905
v  38.723598 0.548805 47.758057
v  0.348927 0.548806 35.501308
v  38.723598 0.548806 35.501308
v  0.348927 0.548806 28.767151
v  38.723598 0.548806 28.767151
v  0.348927 0.548806 21.375053
v  38.723598 0.548806 21.375053
v  0.348927 0.548806 0.472471
v  17.640362 0.548806 0.472471
v  21.432165 0.548806 0.472471
v  38.723598 0.548806 0.472471
v  17.640362 0.548777 35.501308
v  21.432165 0.548777 35.501308
v  0.966068 0.548806 41.777905
v  0.966068 0.548806 0.472471
v  38.106457 0.548805 47.758053
v  38.106453 0.548806 0.472471
v  0.348927 0.548806 1.245529
v  38.723598 0.548806 1.245529
v  0.348927 0.548806 41.255234
v  38.723598 0.548805 47.235390
v  17.640362 0.548802 41.255234
v  21.894226 0.548802 41.255234
v  10.033549 0.548806 41.777905
v  30.374851 0.548806 0.472471
v  10.033550 0.548807 0.472471
v  21.440918 0.548805 47.758057
v  17.640362 0.797368 15.862924
v  21.432163 0.797368 15.862924
v  38.723598 0.797369 15.862924
v  38.723598 0.440063 15.862924
v  0.966066 0.797368 15.862924
v  38.106457 0.797368 15.862924
v  0.348927 0.797369 15.862924
v  0.348927 0.440063 15.862924
v  0.966068 20.281609 15.862924
v  38.106457 20.281609 15.862924
v  38.723598 20.281609 15.862924
v  0.348928 20.281609 15.862924
v  10.033549 0.797369 15.862924
v  30.374851 0.797369 15.862924
v  0.966066 7.658176 15.862924
v  38.106457 7.658176 15.862924
v  38.723598 7.658176 15.862924
v  0.348927 7.658176 15.862924
v  0.966068 0.440063 15.862924
v  10.033549 0.440063 15.862924
v  17.640362 0.440052 15.862924
v  21.432165 0.440052 15.862924
v  30.374851 0.440063 15.862924
v  38.106457 0.440063 15.862924
v  0.348927 0.548806 15.862924
v  38.723598 0.548806 15.862924
# 256 vertices

vt 0.000000 0.000000 0.000000
vt 0.250000 0.000000 0.000000
vt 0.750000 0.000000 0.000000
vt 1.000000 0.000000 0.000000
vt 0.000000 0.250000 0.000000
vt 0.250000 0.250000 0.000000
vt 0.750000 0.250000 0.000000
vt 1.000000 0.250000 0.000000
vt 0.000000 0.500000 0.000000
vt 0.250000 0.500000 0.000000
vt 0.750000 0.500000 0.000000
vt 1.000000 0.500000 0.000000
vt 0.000000 0.750000 0.000000
vt 0.250000 0.750000 0.000000
vt 0.750000 0.750000 0.000000
vt 1.000000 0.750000 0.000000
vt 0.000000 1.000000 0.000000
vt 0.250000 1.000000 0.000000
vt 0.750000 1.000000 0.000000
vt 1.000000 1.000000 0.000000
vt 0.000000 0.250000 0.000000
vt 0.000000 0.000000 0.000000
vt 0.250000 0.000000 0.000000
vt 0.750000 0.000000 0.000000
vt 1.000000 0.000000 0.000000
vt 1.000000 0.250000 0.000000
vt 0.000000 0.500000 0.000000
vt 1.000000 0.500000 0.000000
vt 0.000000 0.750000 0.000000
vt 1.000000 0.750000 0.000000
vt 0.000000 1.000000 0.000000
vt 0.250000 1.000000 0.000000
vt 0.750000 1.000000 0.000000
vt 1.000000 1.000000 0.000000
vt 0.250000 0.250000 0.000000
vt 0.750000 0.250000 0.000000
vt 0.012500 0.250000 0.000000
vt 0.012500 0.000000 0.000000
vt 0.012500 0.500000 0.000000
vt 0.012500 0.750000 0.000000
vt 0.012500 1.000000 0.000000
vt 0.012500 0.000000 0.000000
vt 0.012500 1.000000 0.000000
vt 0.987500 0.250000 0.000000
vt 0.987500 0.000000 0.000000
vt 0.987500 0.500000 0.000000
vt 0.987500 0.750000 0.000000
vt 0.987500 1.000000 0.000000
vt 0.987500 0.000000 0.000000
vt 0.987500 1.000000 0.000000
vt 0.000000 0.981250 0.000000
vt 0.250000 0.981250 0.000000
vt 0.750000 0.981250 0.000000
vt 1.000000 0.981250 0.000000
vt 0.000000 0.981250 0.000000
vt 1.000000 0.981250 0.000000
vt 0.012500 0.981250 0.000000
vt 0.987500 0.981250 0.000000
vt 0.000000 0.031250 0.000000
vt 0.250000 0.031250 0.000000
vt 0.750000 0.031250 0.000000
vt 1.000000 0.031250 0.000000
vt 0.000000 0.031250 0.000000
vt 1.000000 0.031250 0.000000
vt 0.031250 0.031250 0.000000
vt 0.312500 0.031250 0.000000
vt 0.012500 0.031250 0.000000
vt 0.987500 0.031250 0.000000
vt 0.000000 0.250000 0.000000
vt 0.000000 0.031250 0.000000
vt 0.000000 0.000000 0.000000
vt 0.012500 0.000000 0.000000
vt 0.250000 0.000000 0.000000
vt 0.250000 0.031250 0.000000
vt 0.012500 0.031250 0.000000
vt 0.012500 0.250000 0.000000
vt 0.012500 0.500000 0.000000
vt 0.012500 0.750000 0.000000
vt 0.012500 0.981250 0.000000
vt 0.250000 0.981250 0.000000
vt 0.750000 0.981250 0.000000
vt 0.987500 0.981250 0.000000
vt 0.987500 0.750000 0.000000
vt 0.987500 0.500000 0.000000
vt 0.987500 0.250000 0.000000
vt 0.987500 0.031250 0.000000
vt 0.750000 0.031250 0.000000
vt 0.750000 0.000000 0.000000
vt 0.987500 0.000000 0.000000
vt 1.000000 0.000000 0.000000
vt 1.000000 0.031250 0.000000
vt 1.000000 0.250000 0.000000
vt 1.000000 0.500000 0.000000
vt 1.000000 0.750000 0.000000
vt 1.000000 0.981250 0.000000
vt 1.000000 1.000000 0.000000
vt 0.987500 1.000000 0.000000
vt 0.750000 1.000000 0.000000
vt 0.250000 1.000000 0.000000
vt 0.012500 1.000000 0.000000
vt 0.000000 1.000000 0.000000
vt 0.000000 0.981250 0.000000
vt 0.000000 0.750000 0.000000
vt 0.000000 0.500000 0.000000
vt 0.131250 0.250000 0.000000
vt 0.868750 0.000000 0.000000
vt 0.131250 0.500000 0.000000
vt 0.131250 0.750000 0.000000
vt 0.131250 1.000000 0.000000
vt 0.868750 0.000000 0.000000
vt 0.131250 1.000000 0.000000
vt 0.131250 0.000000 0.000000
vt 0.131250 0.000000 0.000000
vt 0.868750 0.250000 0.000000
vt 0.868750 0.500000 0.000000
vt 0.868750 0.750000 0.000000
vt 0.868750 1.000000 0.000000
vt 0.868750 1.000000 0.000000
vt 0.868750 0.981250 0.000000
vt 0.131250 0.981250 0.000000
vt 0.868750 0.031250 0.000000
vt 0.131250 0.031250 0.000000
vt 0.131250 0.000000 0.000000
vt 0.131250 0.031250 0.000000
vt 0.131250 0.981250 0.000000
vt 0.868750 0.981250 0.000000
vt 0.868750 0.031250 0.000000
vt 0.868750 0.000000 0.000000
vt 0.868750 1.000000 0.000000
vt 0.131250 1.000000 0.000000
vt 0.000000 0.250000 0.000000
vt 0.000000 0.031250 0.000000
vt 0.000000 0.000000 0.000000
vt 0.012500 0.000000 0.000000
vt 0.250000 0.000000 0.000000
vt 0.250000 0.031250 0.000000
vt 0.012500 0.031250 0.000000
vt 0.012500 0.250000 0.000000
vt 0.012500 0.500000 0.000000
vt 0.012500 0.750000 0.000000
vt 0.012500 0.981250 0.000000
vt 0.250000 0.981250 0.000000
vt 0.750000 0.981250 0.000000
vt 0.987500 0.981250 0.000000
vt 0.987500 0.750000 0.000000
vt 0.987500 0.500000 0.000000
vt 0.987500 0.250000 0.000000
vt 0.987500 0.031250 0.000000
vt 0.750000 0.031250 0.000000
vt 0.750000 0.000000 0.000000
vt 0.987500 0.000000 0.000000
vt 1.000000 0.000000 0.000000
vt 1.000000 0.031250 0.000000
vt 1.000000 0.250000 0.000000
vt 1.000000 0.500000 0.000000
vt 1.000000 0.750000 0.000000
vt 1.000000 0.981250 0.000000
vt 1.000000 1.000000 0.000000
vt 0.987500 1.000000 0.000000
vt 0.750000 1.000000 0.000000
vt 0.250000 1.000000 0.000000
vt 0.012500 1.000000 0.000000
vt 0.000000 1.000000 0.000000
vt 0.000000 0.981250 0.000000
vt 0.000000 0.750000 0.000000
vt 0.000000 0.500000 0.000000
vt 0.131250 0.000000 0.000000
vt 0.131250 0.031250 0.000000
vt 0.131250 0.981250 0.000000
vt 0.868750 0.981250 0.000000
vt 0.868750 0.031250 0.000000
vt 0.868750 0.000000 0.000000
vt 0.868750 1.000000 0.000000
vt 0.131250 1.000000 0.000000
vt 0.012500 0.970833 0.000000
vt 0.131250 0.970833 0.000000
vt 0.250000 0.973767 0.000000
vt 0.750000 0.973767 0.000000
vt 0.868750 0.970833 0.000000
vt 0.987500 0.970833 0.000000
vt 0.987500 0.703358 0.000000
vt 0.868750 0.703358 0.000000
vt 0.750000 0.733195 0.000000
vt 0.250000 0.733195 0.000000
vt 0.131250 0.703358 0.000000
vt 0.012500 0.703358 0.000000
vt 0.987500 0.422231 0.000000
vt 0.868750 0.422231 0.000000
vt 0.750000 0.480345 0.000000
vt 0.250000 0.480345 0.000000
vt 0.131250 0.422231 0.000000
vt 0.012500 0.422231 0.000000
vt 0.012500 0.166126 0.000000
vt 0.131250 0.166126 0.000000
vt 0.868750 0.166126 0.000000
vt 0.987500 0.166126 0.000000
vt 0.012500 0.023862 0.000000
vt 0.131250 0.023862 0.000000
vt 0.868750 0.023862 0.000000
vt 0.987500 0.023862 0.000000
vt 0.000000 0.000000 0.000000
vt 0.250000 0.000000 0.000000
vt 0.125000 0.000000 0.000000
vt 0.750000 0.000000 0.000000
vt 0.500000 0.000000 0.000000
vt 1.000000 0.000000 0.000000
vt 0.000000 0.250000 0.000000
vt 1.000000 0.250000 0.000000
vt 0.000000 0.500000 0.000000
vt 1.000000 0.500000 0.000000
vt 0.000000 0.750000 0.000000
vt 1.000000 0.750000 0.000000
vt 0.000000 1.000000 0.000000
vt 0.250000 1.000000 0.000000
vt 0.750000 1.000000 0.000000
vt 1.000000 1.000000 0.000000
vt 0.250000 0.250000 0.000000
vt 0.750000 0.250000 0.000000
vt 0.012500 0.000000 0.000000
vt 0.012500 1.000000 0.000000
vt 0.987500 0.000000 0.000000
vt 0.987500 1.000000 0.000000
vt 0.000000 0.981250 0.000000
vt 1.000000 0.981250 0.000000
vt 0.000000 0.031250 0.000000
vt 1.000000 0.031250 0.000000
vt 0.140625 0.031250 0.000000
vt 0.531250 0.031250 0.000000
vt 0.131250 0.000000 0.000000
vt 0.868750 1.000000 0.000000
vt 0.131250 1.000000 0.000000
vt 0.868750 0.000000 0.000000
vt 0.250000 0.865625 0.000000
vt 0.750000 0.865625 0.000000
vt 1.000000 0.865625 0.000000
vt 1.000000 0.865625 0.000000
vt 0.012500 0.865625 0.000000
vt 0.987500 0.865625 0.000000
vt 0.000000 0.865625 0.000000
vt 0.000000 0.865625 0.000000
vt 0.012500 0.865625 0.000000
vt 0.987500 0.865625 0.000000
vt 1.000000 0.865625 0.000000
vt 0.000000 0.865625 0.000000
vt 0.131250 0.865625 0.000000
vt 0.868750 0.865625 0.000000
vt 0.012500 0.865625 0.000000
vt 0.987500 0.865625 0.000000
vt 1.000000 0.865625 0.000000
vt 0.000000 0.865625 0.000000
vt 0.012500 0.837096 0.000000
vt 0.131250 0.837096 0.000000
vt 0.250000 0.853481 0.000000
vt 0.750000 0.853481 0.000000
vt 0.868750 0.837096 0.000000
vt 0.987500 0.837096 0.000000
vt 0.000000 0.865625 0.000000
vt 1.000000 0.865625 0.000000
# 258 texture coords

o Plane002
g Plane002
f 69/69 70/70 75/75 76/76 
f 7/7 61/61 121/121 114/114 
f 104/104 69/69 76/76 77/77 
f 10/10 6/6 7/7 11/11 
f 11/11 7/7 114/114 115/115 
f 103/103 104/104 77/77 78/78 
f 14/14 10/10 11/11 15/15 
f 15/15 11/11 115/115 116/116 
f 101/101 102/102 79/79 100/100 
f 99/99 80/80 81/81 98/98 
f 98/98 81/81 126/126 129/129 
f 1/1 59/59 223/225 201/201 
f 2/2 112/112 227/229 202/202 
f 8/8 62/62 224/226 206/208 
f 4/4 45/45 219/221 204/206 
f 5/5 9/9 207/209 205/207 
f 12/12 8/8 206/208 208/210 
f 9/9 13/13 209/211 207/209 
f 16/16 12/12 208/210 210/212 
f 13/13 237/239 255/257 209/211 
f 17/17 41/41 218/220 211/213 
f 18/18 19/19 213/215 212/214 
f 19/19 117/117 228/230 213/215 
f 20/20 54/54 222/224 214/216 
f 7/7 6/6 215/217 216/218 
f 7/7 216/218 226/228 61/61 
f 72/72 123/123 124/124 75/75 
f 37/37 105/105 107/107 39/39 
f 39/39 107/107 108/108 40/40 
f 40/40 108/108 243/245 235/237 
f 38/38 1/1 201/201 217/219 
f 41/41 109/109 229/231 218/220 
f 89/89 90/90 91/91 86/86 
f 85/85 92/92 93/93 84/84 
f 84/84 93/93 94/94 83/83 
f 83/83 94/94 241/243 240/242 
f 45/45 106/106 230/232 219/221 
f 48/48 20/20 214/216 220/222 
f 102/102 242/244 239/241 79/79 
f 52/52 231/233 232/234 53/53 
f 53/53 232/234 244/246 119/119 
f 51/51 17/17 211/213 221/223 
f 54/54 233/235 256/258 222/224 
f 80/80 99/99 130/130 125/125 
f 95/95 96/96 97/97 82/82 
f 70/70 71/71 72/72 75/75 
f 87/87 88/88 128/128 127/127 
f 59/59 5/5 205/207 223/225 
f 62/62 4/4 204/206 224/226 
f 60/60 2/2 202/203 225/227 
f 60/60 6/6 105/105 122/122 
f 91/91 92/92 85/85 86/86 
f 5/5 59/59 132/132 131/131 
f 59/59 1/1 133/133 132/132 
f 1/1 38/38 134/134 133/133 
f 38/38 112/112 167/167 134/134 
f 2/2 60/60 136/136 135/135 
f 60/60 122/122 168/168 136/136 
f 67/67 37/37 138/138 137/137 
f 37/37 39/39 139/139 138/138 
f 39/39 40/40 140/140 139/139 
f 40/40 235/237 245/247 140/140 
f 57/57 120/120 169/169 141/141 
f 52/52 53/53 143/143 142/142 
f 53/53 119/119 170/170 143/143 
f 58/58 236/238 246/248 144/144 
f 47/47 46/46 146/146 145/145 
f 46/46 44/44 147/147 146/146 
f 44/44 68/68 148/148 147/147 
f 68/68 121/121 171/171 148/148 
f 61/61 3/3 150/150 149/149 
f 3/3 106/106 172/172 150/150 
f 45/45 4/4 152/152 151/151 
f 4/4 62/62 153/153 152/152 
f 62/62 8/8 154/154 153/153 
f 8/8 12/12 155/155 154/154 
f 12/12 16/16 156/156 155/155 
f 16/16 233/235 247/249 156/156 
f 54/54 20/20 158/158 157/157 
f 20/20 48/48 159/159 158/158 
f 48/48 117/117 173/173 159/159 
f 19/19 18/18 161/161 160/160 
f 18/18 109/109 174/174 161/161 
f 41/41 17/17 163/163 162/162 
f 17/17 51/51 164/164 163/163 
f 51/51 237/239 248/250 164/164 
f 13/13 9/9 166/166 165/165 
f 9/9 5/5 131/131 166/166 
f 121/121 68/68 44/44 114/114 
f 114/114 44/44 46/46 115/115 
f 115/115 46/46 47/47 116/116 
f 126/126 82/82 97/97 129/129 
f 112/112 38/38 217/219 227/229 
f 117/117 48/48 220/222 228/230 
f 123/123 73/73 74/74 124/124 
f 105/105 6/6 10/10 107/107 
f 107/107 10/10 14/14 108/108 
f 108/108 14/14 231/233 243/245 
f 109/109 18/18 212/214 229/231 
f 106/106 3/3 203/204 230/232 
f 116/116 47/47 236/238 244/246 
f 130/130 100/100 79/79 125/125 
f 128/128 89/89 86/86 127/127 
f 105/105 37/37 67/67 122/122 
f 112/112 2/2 135/135 167/167 
f 122/122 67/67 137/137 168/168 
f 120/120 52/52 142/142 169/169 
f 119/119 58/58 144/144 170/170 
f 121/121 61/61 149/149 171/171 
f 106/106 45/45 151/151 172/172 
f 117/117 19/19 160/160 173/173 
f 109/109 41/41 162/162 174/174 
f 132/132 70/70 69/69 131/131 
f 133/133 71/71 70/70 132/132 
f 134/134 72/72 71/71 133/133 
f 167/167 123/123 72/72 134/134 
f 168/168 124/124 74/74 136/136 
f 138/138 76/76 75/75 137/137 
f 139/139 77/77 76/76 138/138 
f 140/140 78/78 77/77 139/139 
f 141/141 79/79 239/241 245/247 
f 169/169 125/125 79/79 141/141 
f 143/143 81/81 80/80 142/142 
f 170/170 126/126 81/81 143/143 
f 145/145 83/83 240/242 246/248 
f 146/146 84/84 83/83 145/145 
f 147/147 85/85 84/84 146/146 
f 148/148 86/86 85/85 147/147 
f 171/171 127/127 86/86 148/148 
f 172/172 128/128 88/88 150/150 
f 152/152 90/90 89/89 151/151 
f 153/153 91/91 90/90 152/152 
f 154/154 92/92 91/91 153/153 
f 155/155 93/93 92/92 154/154 
f 156/156 94/94 93/93 155/155 
f 157/157 95/95 241/243 247/249 
f 158/158 96/96 95/95 157/157 
f 159/159 97/97 96/96 158/158 
f 173/173 129/129 97/97 159/159 
f 161/161 99/99 98/98 160/160 
f 174/174 130/130 99/99 161/161 
f 163/163 101/101 100/100 162/162 
f 164/164 102/102 101/101 163/163 
f 165/165 103/103 242/244 248/250 
f 166/166 104/104 103/103 165/165 
f 131/131 69/69 104/104 166/166 
f 135/135 73/73 123/123 167/167 
f 137/137 75/75 124/124 168/168 
f 142/142 80/80 125/125 169/169 
f 144/144 82/82 126/126 170/170 
f 149/149 87/87 127/127 171/171 
f 151/151 89/89 128/128 172/172 
f 160/160 98/98 129/129 173/173 
f 162/162 100/100 130/130 174/174 
f 74/74 73/73 88/88 87/87 
f 73/73 135/135 150/150 88/88 
f 135/135 136/136 149/149 150/150 
f 136/136 74/74 87/87 149/149 
f 29/29 238/240 249/251 186/186 
f 177/177 251/253 250/252 176/176 
f 180/180 254/256 253/255 179/179 
f 178/178 252/254 251/253 177/177 
f 179/179 253/255 252/254 178/178 
f 56/56 234/236 254/256 180/180 
f 176/176 250/252 249/251 175/175 
f 55/55 31/31 43/43 175/175 
f 175/175 43/43 111/111 176/176 
f 176/176 111/111 32/32 177/177 
f 177/177 32/32 33/33 178/178 
f 178/178 33/33 118/118 179/179 
f 179/179 118/118 50/50 180/180 
f 180/180 50/50 34/34 56/56 
f 30/30 28/28 187/187 181/181 
f 181/181 187/187 188/188 182/182 
f 182/182 188/188 189/189 183/183 
f 183/183 189/189 190/190 184/184 
f 184/184 190/190 191/191 185/185 
f 185/185 191/191 192/192 186/186 
f 186/186 192/192 27/27 29/29 
f 64/64 24/25 49/49 200/200 
f 200/200 49/49 110/110 199/199 
f 199/199 110/110 23/24 66/66 
f 189/189 36/36 35/35 190/190 
f 65/65 22/22 113/113 198/198 
f 198/198 113/113 42/42 197/197 
f 197/197 42/42 21/22 63/63 
f 25/21 27/27 192/192 193/193 
f 193/193 192/192 191/191 194/194 
f 194/194 191/191 190/190 35/35 
f 36/36 189/189 188/188 195/195 
f 195/195 188/188 187/187 196/196 
f 196/196 187/187 28/28 26/26 
f 63/63 25/21 193/193 197/197 
f 197/197 193/193 194/194 198/198 
f 198/198 194/194 35/35 65/65 
f 66/66 36/36 195/195 199/199 
f 199/199 195/195 196/196 200/200 
f 200/200 196/196 26/26 64/64 
f 223/225 63/63 21/22 201/201 
f 227/229 113/113 22/23 202/202 
f 224/226 64/64 26/26 206/208 
f 219/221 49/49 24/25 204/206 
f 207/209 27/27 25/21 205/207 
f 206/208 26/26 28/28 208/210 
f 209/211 29/29 27/27 207/209 
f 208/210 28/28 30/30 210/212 
f 221/223 55/55 238/240 255/257 
f 218/220 43/43 31/31 211/213 
f 213/215 33/33 32/32 212/214 
f 228/230 118/118 33/33 213/215 
f 222/224 56/56 34/34 214/216 
f 215/217 35/35 36/36 216/218 
f 215/217 6/6 60/60 225/227 
f 201/201 21/22 42/42 217/219 
f 229/231 111/111 43/43 218/220 
f 230/232 110/110 49/49 219/221 
f 214/216 34/34 50/50 220/222 
f 211/213 31/31 55/55 221/223 
f 210/212 30/30 234/236 256/258 
f 205/207 25/21 63/63 223/225 
f 204/206 24/25 64/64 224/226 
f 203/205 3/3 61/61 226/228 
f 217/219 42/42 113/113 227/229 
f 220/222 50/50 118/118 228/230 
f 212/214 32/32 111/111 229/231 
f 203/204 23/24 110/110 230/232 
f 35/35 215/217 216/218 36/36 
f 215/217 225/227 226/228 216/218 
f 225/227 202/203 203/205 226/228 
f 202/202 22/23 23/24 203/204 
f 22/22 65/65 66/66 23/24 
f 65/65 35/35 36/36 66/66 
f 237/239 51/51 221/223 255/257 
f 243/245 120/120 57/57 235/237 
f 241/243 95/95 82/82 240/242 
f 242/244 103/103 78/78 239/241 
f 231/233 14/14 15/15 232/234 
f 232/234 15/15 116/116 244/246 
f 233/235 16/16 210/212 256/258 
f 235/237 57/57 141/141 245/247 
f 236/238 47/47 145/145 246/248 
f 233/235 54/54 157/157 247/249 
f 237/239 13/13 165/165 248/250 
f 231/233 52/52 120/120 243/245 
f 236/238 58/58 119/119 244/246 
f 239/241 78/78 140/140 245/247 
f 240/242 82/82 144/144 246/248 
f 241/243 94/94 156/156 247/249 
f 242/244 102/102 164/164 248/250 
f 238/240 55/55 175/175 249/251 
f 251/253 184/184 185/185 250/252 
f 254/256 181/181 182/182 253/255 
f 252/254 183/183 184/184 251/253 
f 253/255 182/182 183/183 252/254 
f 234/236 30/30 181/181 254/256 
f 250/252 185/185 186/186 249/251 
f 238/240 29/29 209/211 255/257 
f 234/236 56/56 222/224 256/258 
# 258 polygons

#
# object Box003
#

v  18.796619 0.551396 44.384476
v  21.471750 0.551396 41.709343
v  18.711617 0.551396 44.299473
v  21.386749 0.551396 41.624340
v  18.796619 7.631959 44.384476
v  21.471750 7.631959 41.709343
v  18.711617 7.631959 44.299473
v  21.386749 7.631959 41.624340
# 8 vertices

vt 1.000000 0.000000 0.000000
vt 0.000000 0.000000 0.000000
vt 1.000000 1.000000 0.000000
vt 0.000000 1.000000 0.000000
vt 0.000000 0.000000 0.000000
vt 1.000000 0.000000 0.000000
vt 0.000000 1.000000 0.000000
vt 1.000000 1.000000 0.000000
vt 0.000000 0.000000 0.000000
vt 1.000000 0.000000 0.000000
vt 0.000000 1.000000 0.000000
vt 1.000000 1.000000 0.000000
vt 0.000000 0.000000 0.000000
vt 1.000000 0.000000 0.000000
vt 0.000000 1.000000 0.000000
vt 1.000000 1.000000 0.000000
vt 0.000000 0.000000 0.000000
vt 1.000000 0.000000 0.000000
vt 0.000000 1.000000 0.000000
vt 1.000000 1.000000 0.000000
vt 0.000000 0.000000 0.000000
vt 1.000000 0.000000 0.000000
vt 0.000000 1.000000 0.000000
vt 1.000000 1.000000 0.000000
# 24 texture coords

o Box003
g Box003
f 257/259 259/261 260/262 258/260 
f 261/263 262/264 264/266 263/265 
f 257/267 258/268 262/270 261/269 
f 258/271 260/272 264/274 262/273 
f 260/275 259/276 263/278 264/277 
f 259/279 257/280 261/282 263/281 
# 6 polygons

#
# object UTypeStair001
#

v  14.537929 11.101762 32.518353
v  14.544299 11.101762 37.043541
v  12.543318 11.101762 32.522232
v  12.549688 11.101762 37.047421
v  12.543320 10.155113 32.522232
v  12.549689 10.155113 37.047421
v  10.548709 10.155113 32.526115
v  10.555079 10.155113 37.051300
v  10.548708 9.208463 32.526115
v  10.555078 9.208463 37.051300
v  8.554098 9.208463 32.529995
v  8.560467 9.208463 37.055183
v  8.554098 8.261813 32.529995
v  8.560467 8.261813 37.055183
v  6.559485 8.261813 32.533875
v  6.565855 8.261813 37.059063
v  6.559485 7.315163 32.533875
v  6.565855 7.315163 37.059063
v  4.564878 7.315163 32.537758
v  4.571243 7.315163 37.062943
v  4.564878 0.688616 32.537758
v  4.571243 0.688616 37.062943
v  14.537929 0.688616 32.518353
v  14.544299 0.688616 37.043541
v  4.578960 6.770404 41.641682
v  4.578509 6.770404 41.341682
v  4.572140 6.770404 37.368683
v  4.571692 6.770404 37.068684
v  14.552014 2.037156 41.622280
v  14.551565 2.037156 41.322277
v  14.545197 2.037156 37.349281
v  14.544747 2.037156 37.049282
v  14.552014 0.688616 41.622280
v  14.551565 0.688616 41.322277
v  14.545197 0.688616 37.349281
v  14.544747 0.688616 37.049282
v  12.305845 0.688616 37.353638
v  12.305397 0.688616 37.053638
v  4.578960 0.690333 41.641682
v  4.578509 0.690333 41.341682
v  4.572140 4.359060 37.368683
v  4.571692 4.359060 37.068684
v  14.544298 12.450302 36.749283
v  14.544747 12.450302 37.049282
v  4.564426 7.717054 32.519859
v  4.564875 7.717054 32.819862
v  4.571242 7.717054 36.768684
v  4.571692 7.717054 37.068684
v  4.564426 6.368514 32.519859
v  4.564875 6.368514 32.819862
v  4.571242 6.368514 36.768684
v  4.571692 6.368514 37.068684
v  6.803777 6.368514 32.515503
v  6.804225 6.368514 32.815506
v  6.810594 6.368514 36.764328
v  6.811043 6.368514 37.064327
v  14.544298 10.038959 36.749283
v  14.544747 10.038959 37.049282
v  4.578513 5.421864 41.352306
v  4.572140 5.421864 37.368683
v  6.573124 5.421864 41.348427
v  6.566751 5.421864 37.364803
v  6.573124 4.475214 41.348427
v  6.566751 4.475214 37.364803
v  8.567734 4.475214 41.344547
v  8.561361 4.475214 37.360924
v  8.567734 3.528565 41.344547
v  8.561363 3.528565 37.360924
v  10.562345 3.528565 41.340668
v  10.555973 3.528565 37.357044
v  10.562345 2.581915 41.340668
v  10.555973 2.581915 37.357044
v  12.556955 2.581915 41.336784
v  12.550585 2.581915 37.353161
v  12.556955 1.635265 41.336784
v  12.550585 1.635265 37.353161
v  14.551565 1.635265 41.332905
v  14.545196 1.635265 37.349281
v  14.551566 0.688616 41.332905
v  14.545197 0.688616 37.349281
v  4.578513 0.688616 41.352306
v  4.572140 0.688616 37.368683
v  4.578509 0.688616 41.629200
v  4.564875 0.688616 32.544132
v  0.843510 0.688616 41.636463
v  0.829875 0.688616 32.551399
v  4.578509 6.368514 41.629200
v  4.564875 6.368514 32.544132
v  0.843510 6.368514 41.636463
v  0.829875 6.368514 32.551399
v  6.615719 8.687370 36.764706
v  6.616168 8.687370 37.064705
v  6.608903 8.687370 32.515884
v  6.609351 8.687370 32.815884
v  12.500720 3.007472 37.353260
v  12.500271 3.007473 37.053261
v  11.683641 11.095647 32.806011
v  11.753347 8.717598 32.505875
v  11.753796 8.717598 32.805874
v  11.683193 11.095647 32.506012
v  12.621161 11.095647 32.806011
v  12.690866 8.717598 32.505875
v  12.691315 8.717598 32.805874
v  12.620712 11.095647 32.506012
# 104 vertices

o UTypeStair001
g UTypeStair001
f 281 279 277 275 273 271 269 267 265 287 285 283 
f 286 288 266 268 270 272 274 276 278 280 282 284 
f 265 267 268 266 
f 267 269 270 268 
f 269 271 272 270 
f 271 273 274 272 
f 273 275 276 274 
f 275 277 278 276 
f 277 279 280 278 
f 279 281 282 280 
f 281 283 284 282 
f 283 285 286 284 
f 285 287 288 286 
f 287 265 266 288 
f 289 303 297 293 
f 294 298 304 290 
f 291 305 301 359 
f 296 300 302 360 
f 289 293 294 290 
f 291 359 360 292 
f 293 297 298 294 
f 295 299 300 296 
f 297 303 304 298 
f 299 301 302 300 
f 301 305 306 302 
f 303 289 290 304 
f 310 314 318 358 
f 307 321 319 355 
f 312 316 320 356 
f 307 355 356 308 
f 309 313 314 310 
f 313 317 318 314 
f 315 319 320 316 
f 317 362 363 318 
f 319 321 322 320 
f 321 307 308 322 
f 339 337 335 333 331 329 327 325 323 345 343 341 
f 344 346 324 326 328 330 332 334 336 338 340 342 
f 323 325 326 324 
f 325 327 328 326 
f 327 329 330 328 
f 329 331 332 330 
f 331 333 334 332 
f 333 335 336 334 
f 335 337 338 336 
f 337 339 340 338 
f 339 341 342 340 
f 341 343 344 342 
f 343 345 346 344 
f 345 323 324 346 
f 351 352 354 353 
f 348 347 349 350 
f 349 347 351 353 
f 348 350 354 352 
f 347 348 352 351 
f 350 349 353 354 
f 355 311 312 356 
f 320 322 308 356 
f 319 315 311 355 
f 357 309 310 358 
f 318 363 361 358 
f 317 313 309 357 
f 359 295 296 360 
f 301 299 295 359 
f 302 306 292 360 
f 291 292 306 305 
f 315 316 312 311 
f 362 317 357 364 
f 364 357 358 361 
f 362 364 368 366 
f 364 361 365 368 
f 363 362 366 367 
f 361 363 367 365 
f 368 365 367 366 
# 74 polygons

#
# object Box011
#

v  14.674537 0.438321 21.470503
v  0.614435 0.438321 21.470505
v  14.674537 0.438321 22.383543
v  0.614435 0.438321 22.383545
v  14.674537 8.298857 21.470503
v  0.614435 8.298857 21.470505
v  14.674537 8.298857 22.383543
v  0.614435 8.298857 22.383545
v  13.773234 0.438321 22.383543
v  13.773234 0.438321 21.470503
v  13.773234 8.298857 21.470503
v  13.773234 8.298857 22.383543
v  13.773189 0.438321 32.698254
v  14.674490 0.438321 32.698254
v  14.674490 8.298857 32.698254
v  13.773189 8.298857 32.698254
# 16 vertices

vt 1.000000 0.000000 0.000000
vt 0.000000 0.000000 0.000000
vt 1.000000 1.000000 0.000000
vt 0.000000 1.000000 0.000000
vt 0.000000 0.000000 0.000000
vt 1.000000 0.000000 0.000000
vt 0.000000 1.000000 0.000000
vt 1.000000 1.000000 0.000000
vt 0.000000 0.000000 0.000000
vt 1.000000 0.000000 0.000000
vt 0.000000 1.000000 0.000000
vt 1.000000 1.000000 0.000000
vt 0.000000 0.000000 0.000000
vt 1.000000 0.000000 0.000000
vt 0.000000 1.000000 0.000000
vt 1.000000 1.000000 0.000000
vt 0.000000 0.000000 0.000000
vt 1.000000 0.000000 0.000000
vt 0.000000 1.000000 0.000000
vt 1.000000 1.000000 0.000000
vt 0.000000 0.000000 0.000000
vt 1.000000 0.000000 0.000000
vt 0.000000 1.000000 0.000000
vt 1.000000 1.000000 0.000000
vt 0.500000 1.000000 0.000000
vt 0.500000 0.000000 0.000000
vt 0.500000 0.000000 0.000000
vt 0.500000 0.000000 0.000000
vt 0.500000 0.000000 0.000000
vt 0.500000 1.000000 0.000000
vt 0.500000 1.000000 0.000000
vt 0.500000 1.000000 0.000000
vt 0.500000 0.000000 0.000000
vt 1.000000 0.000000 0.000000
vt 1.000000 1.000000 0.000000
vt 0.500000 1.000000 0.000000
# 36 texture coords

o Box011
g Box011
f 369/283 371/285 377/307 378/309 
f 373/287 379/311 380/313 375/289 
f 369/291 378/310 379/312 373/293 
f 370/295 372/296 376/298 374/297 
f 372/299 377/308 380/314 376/301 
f 371/303 369/304 373/306 375/305 
f 377/307 372/286 370/284 378/309 
f 379/311 374/288 376/290 380/313 
f 378/310 370/292 374/294 379/312 
f 381/315 382/316 383/317 384/318 
f 377/308 371/300 382/316 381/315 
f 371/300 375/302 383/317 382/316 
f 375/302 380/314 384/318 383/317 
f 380/314 377/308 381/315 384/318 
# 14 polygons

#
# object Box013
#

v  17.862906 0.438321 13.963026
v  0.393924 0.438321 13.963026
v  17.862906 0.438321 13.049985
v  0.393924 0.438321 13.049985
v  17.862906 8.298857 13.963026
v  0.393924 8.298857 13.963026
v  17.862906 8.298857 13.049985
v  0.393924 8.298857 13.049985
v  16.961603 0.438321 13.049985
v  16.961603 0.438321 13.963026
v  16.961603 8.298857 13.963026
v  16.961603 8.298857 13.049985
v  16.961555 0.438321 0.598013
v  17.862858 0.438321 0.598013
v  17.862858 8.298857 0.598013
v  16.961555 8.298857 0.598013
# 16 vertices

vt 1.000000 0.000000 0.000000
vt 0.000000 0.000000 0.000000
vt 1.000000 1.000000 0.000000
vt 0.000000 1.000000 0.000000
vt 0.000000 0.000000 0.000000
vt 1.000000 0.000000 0.000000
vt 0.000000 1.000000 0.000000
vt 1.000000 1.000000 0.000000
vt 0.000000 0.000000 0.000000
vt 1.000000 0.000000 0.000000
vt 0.000000 1.000000 0.000000
vt 1.000000 1.000000 0.000000
vt 0.000000 0.000000 0.000000
vt 1.000000 0.000000 0.000000
vt 0.000000 1.000000 0.000000
vt 1.000000 1.000000 0.000000
vt 0.000000 0.000000 0.000000
vt 1.000000 0.000000 0.000000
vt 0.000000 1.000000 0.000000
vt 1.000000 1.000000 0.000000
vt 0.000000 0.000000 0.000000
vt 1.000000 0.000000 0.000000
vt 0.000000 1.000000 0.000000
vt 1.000000 1.000000 0.000000
vt 0.500000 1.000000 0.000000
vt 0.500000 0.000000 0.000000
vt 0.500000 0.000000 0.000000
vt 0.500000 0.000000 0.000000
vt 0.500000 0.000000 0.000000
vt 0.500000 1.000000 0.000000
vt 0.500000 1.000000 0.000000
vt 0.500000 1.000000 0.000000
vt 0.500000 0.000000 0.000000
vt 1.000000 0.000000 0.000000
vt 1.000000 1.000000 0.000000
vt 0.500000 1.000000 0.000000
# 36 texture coords

o Box013
g Box013
f 394/345 393/343 387/321 385/319 
f 391/325 396/349 395/347 389/323 
f 389/329 395/348 394/346 385/327 
f 390/333 392/334 388/332 386/331 
f 392/337 396/350 393/344 388/335 
f 391/341 389/342 385/340 387/339 
f 394/345 386/320 388/322 393/343 
f 396/349 392/326 390/324 395/347 
f 395/348 390/330 386/328 394/346 
f 400/354 399/353 398/352 397/351 
f 397/351 398/352 387/336 393/344 
f 398/352 399/353 391/338 387/336 
f 399/353 400/354 396/350 391/338 
f 400/354 397/351 393/344 396/350 
# 14 polygons

#
# object Box016
#

v  11.614497 0.551397 10.259147
v  14.289627 0.551397 12.934278
v  11.699500 0.551397 10.174144
v  14.374629 0.551397 12.849276
v  11.614497 7.631960 10.259147
v  14.289627 7.631960 12.934278
v  11.699500 7.631960 10.174144
v  14.374629 7.631960 12.849276
# 8 vertices

vt 1.000000 0.000000 0.000000
vt 0.000000 0.000000 0.000000
vt 1.000000 1.000000 0.000000
vt 0.000000 1.000000 0.000000
vt 0.000000 0.000000 0.000000
vt 1.000000 0.000000 0.000000
vt 0.000000 1.000000 0.000000
vt 1.000000 1.000000 0.000000
vt 0.000000 0.000000 0.000000
vt 1.000000 0.000000 0.000000
vt 0.000000 1.000000 0.000000
vt 1.000000 1.000000 0.000000
vt 0.000000 0.000000 0.000000
vt 1.000000 0.000000 0.000000
vt 0.000000 1.000000 0.000000
vt 1.000000 1.000000 0.000000
vt 0.000000 0.000000 0.000000
vt 1.000000 0.000000 0.000000
vt 0.000000 1.000000 0.000000
vt 1.000000 1.000000 0.000000
vt 0.000000 0.000000 0.000000
vt 1.000000 0.000000 0.000000
vt 0.000000 1.000000 0.000000
vt 1.000000 1.000000 0.000000
# 24 texture coords

o Box016
g Box016
f 401/355 403/357 404/358 402/356 
f 405/359 406/360 408/362 407/361 
f 401/363 402/364 406/366 405/365 
f 402/367 404/368 408/370 406/369 
f 404/371 403/372 407/374 408/373 
f 403/375 401/376 405/378 407/377 
# 6 polygons

#
# object Box017
#

v  7.996741 0.438320 21.880758
v  8.630883 0.438320 21.880758
v  7.996741 0.438320 13.506533
v  8.630883 0.438320 13.506533
v  7.996741 8.370687 21.880758
v  8.630883 8.370687 21.880758
v  7.996741 8.370687 13.506533
v  8.630883 8.370687 13.506533
# 8 vertices

vt 0.000000 0.000000 0.000000
vt 1.000000 0.000000 0.000000
vt 0.000000 1.000000 0.000000
vt 1.000000 1.000000 0.000000
vt 0.000000 0.000000 0.000000
vt 1.000000 0.000000 0.000000
vt 0.000000 1.000000 0.000000
vt 1.000000 1.000000 0.000000
vt 0.000000 0.000000 0.000000
vt 1.000000 0.000000 0.000000
vt 0.000000 1.000000 0.000000
vt 1.000000 1.000000 0.000000
# 12 texture coords

o Box017
g Box017
f 409/388 411/390 412/389 410/387 
f 413/387 414/388 416/390 415/389 
f 409/383 410/384 414/386 413/385 
f 410/379 412/380 416/382 414/381 
f 412/383 411/384 415/386 416/385 
f 411/379 409/380 413/382 415/381 
# 6 polygons

#
# object Box018
#

v  21.072647 0.438320 41.666786
v  22.008270 0.438320 41.666786
v  21.072647 0.438320 32.535774
v  22.008270 0.438320 32.535774
v  21.072647 8.322522 41.666786
v  22.008270 8.322522 41.666786
v  21.072647 8.322522 32.535774
v  22.008270 8.322522 32.535774
# 8 vertices

vt 0.000000 0.000000 0.000000
vt 1.000000 0.000000 0.000000
vt 0.000000 1.000000 0.000000
vt 1.000000 1.000000 0.000000
vt 0.000000 0.000000 0.000000
vt 1.000000 0.000000 0.000000
vt 0.000000 1.000000 0.000000
vt 1.000000 1.000000 0.000000
vt 0.000000 0.000000 0.000000
vt 1.000000 0.000000 0.000000
vt 0.000000 1.000000 0.000000
vt 1.000000 1.000000 0.000000
# 12 texture coords

o Box018
g Box018
f 417/400 419/402 420/401 418/399 
f 421/399 422/400 424/402 423/401 
f 417/395 418/396 422/398 421/397 
f 418/391 420/392 424/394 422/393 
f 420/395 419/396 423/398 424/397 
f 419/391 417/392 421/394 423/393 
# 6 polygons

#
# object Cylinder001
#

v  29.364616 0.792665 12.957449
v  22.986237 0.792665 12.957448
v  23.370899 0.792665 14.408384
v  24.478493 0.792665 15.684316
v  26.175426 0.792665 16.631348
v  28.257023 0.792665 17.135252
v  30.472212 0.792665 17.135252
v  32.553806 0.792665 16.631348
v  34.250740 0.792665 15.684317
v  35.358334 0.792665 14.408385
v  35.742996 0.792665 12.957450
v  35.358334 0.792665 11.506515
v  34.250740 0.792665 10.230583
v  32.553810 0.792665 9.283552
v  30.472214 0.792665 8.779646
v  28.257027 0.792665 8.779646
v  26.175430 0.792665 9.283549
v  24.478497 0.792665 10.230579
v  23.370901 0.792665 11.506510
v  22.986237 0.846612 12.957448
v  23.370899 0.846612 14.408384
v  24.478493 0.846612 15.684316
v  26.175426 0.846612 16.631348
v  28.257023 0.846612 17.135252
v  30.472212 0.846612 17.135252
v  32.553806 0.846612 16.631348
v  34.250740 0.846612 15.684317
v  35.358334 0.846612 14.408385
v  35.742996 0.846612 12.957450
v  35.358334 0.846612 11.506515
v  34.250740 0.846612 10.230583
v  32.553810 0.846612 9.283552
v  30.472214 0.846612 8.779646
v  28.257027 0.846612 8.779646
v  26.175430 0.846612 9.283549
v  24.478497 0.846612 10.230579
v  23.370901 0.846612 11.506510
v  29.364616 0.846612 12.957449
# 38 vertices

vt 0.500000 0.000000 0.000000
vt 0.750000 0.000000 1.000000
vt 0.805556 0.000000 1.000000
vt 0.861111 0.000000 1.000000
vt 0.916667 0.000000 1.000000
vt 0.972222 0.000000 1.000000
vt 0.027778 0.000000 1.000000
vt 0.083333 0.000000 1.000000
vt 0.138889 0.000000 1.000000
vt 0.194444 0.000000 1.000000
vt 0.250000 0.000000 1.000000
vt 0.305556 0.000000 1.000000
vt 0.361111 0.000000 1.000000
vt 0.416667 0.000000 1.000000
vt 0.472222 0.000000 1.000000
vt 0.527778 0.000000 1.000000
vt 0.583333 0.000000 1.000000
vt 0.638889 0.000000 1.000000
vt 0.694444 0.000000 1.000000
vt 0.750000 1.000000 1.000000
vt 0.805556 1.000000 1.000000
vt 0.861111 1.000000 1.000000
vt 0.916667 1.000000 1.000000
vt 0.972222 1.000000 1.000000
vt 0.027778 1.000000 1.000000
vt 0.083333 1.000000 1.000000
vt 0.138889 1.000000 1.000000
vt 0.194444 1.000000 1.000000
vt 0.250000 1.000000 1.000000
vt 0.305556 1.000000 1.000000
vt 0.361111 1.000000 1.000000
vt 0.416667 1.000000 1.000000
vt 0.472222 1.000000 1.000000
vt 0.527778 1.000000 1.000000
vt 0.583333 1.000000 1.000000
vt 0.638889 1.000000 1.000000
vt 0.694444 1.000000 1.000000
vt 0.500000 1.000000 0.000000
vt -0.027778 0.000000 1.000000
vt -0.027778 0.000000 1.000000
vt -0.027778 1.000000 1.000000
vt 0.970821 1.000000 0.879385
# 42 texture coords

o Cylinder001
g Cylinder001
f 425/403 428/406 427/405 426/404 
f 425/403 430/408 429/407 428/406 
f 425/403 432/410 431/409 430/441 
f 425/403 434/412 433/411 432/410 
f 425/403 436/414 435/413 434/412 
f 425/403 438/416 437/415 436/414 
f 425/403 440/418 439/417 438/416 
f 425/403 442/420 441/419 440/418 
f 425/403 426/404 443/421 442/420 
f 426/404 427/405 445/423 444/422 
f 427/405 428/406 446/424 445/423 
f 428/406 429/407 447/425 446/424 
f 429/407 430/408 448/426 447/425 
f 430/442 431/409 449/427 448/443 
f 431/409 432/410 450/428 449/427 
f 432/410 433/411 451/429 450/428 
f 433/411 434/412 452/430 451/429 
f 434/412 435/413 453/431 452/430 
f 435/413 436/414 454/432 453/431 
f 436/414 437/415 455/433 454/432 
f 437/415 438/416 456/434 455/433 
f 438/416 439/417 457/435 456/434 
f 439/417 440/418 458/436 457/435 
f 440/418 441/419 459/437 458/436 
f 441/419 442/420 460/438 459/437 
f 442/420 443/421 461/439 460/438 
f 443/421 426/404 444/422 461/439 
f 462/440 461/439 444/422 445/423 
f 462/440 445/423 446/424 447/425 
f 462/440 447/425 448/426 449/444 
f 462/440 449/427 450/428 451/429 
f 462/440 451/429 452/430 453/431 
f 462/440 453/431 454/432 455/433 
f 462/440 455/433 456/434 457/435 
f 462/440 457/435 458/436 459/437 
f 462/440 459/437 460/438 461/439 
# 36 polygons

#
# object Box019
#

v  34.517300 0.819326 1.543921
v  24.810001 0.819326 1.543920
v  34.517300 0.819326 7.065724
v  24.810001 0.819326 7.065723
v  34.517300 3.996053 1.543921
v  24.810001 3.996053 1.543920
v  34.517300 3.996053 7.065724
v  24.810001 3.996053 7.065723
# 8 vertices

vt 0.000000 0.000000 0.000000
vt 1.000000 0.000000 0.000000
vt 0.000000 1.000000 0.000000
vt 1.000000 1.000000 0.000000
vt 0.000000 0.000000 0.000000
vt 1.000000 0.000000 0.000000
vt 0.000000 1.000000 0.000000
vt 1.000000 1.000000 0.000000
vt 0.000000 0.000000 0.000000
vt 1.000000 0.000000 0.000000
vt 0.000000 1.000000 0.000000
vt 1.000000 1.000000 0.000000
# 12 texture coords

o Box019
g Box019
f 463/454 465/456 466/455 464/453 
f 467/453 468/454 470/456 469/455 
f 463/449 464/450 468/452 467/451 
f 464/445 466/446 470/448 468/447 
f 466/449 465/450 469/452 470/451 
f 465/445 463/446 467/448 469/447 
# 6 polygons

#
# object Box020
#

v  33.779018 0.729677 19.057833
v  25.903202 0.729677 19.057833
v  33.779018 0.729677 22.503092
v  25.903202 0.729677 22.503092
v  33.779018 2.886778 19.057833
v  25.903202 2.886778 19.057833
v  33.779018 2.886778 22.503092
v  25.903202 2.886778 22.503092
v  32.912136 1.383943 19.057833
v  26.770086 1.383943 19.057833
v  26.770086 2.886778 19.057833
v  26.770086 2.886778 21.711706
v  32.912132 2.886778 21.711706
v  32.912136 2.886778 19.057833
v  32.912132 1.383943 21.714893
v  26.770086 1.383943 21.714893
# 16 vertices

vt 1.000000 0.000000 0.000000
vt 0.000000 0.000000 0.000000
vt 1.000000 1.000000 0.000000
vt 0.000000 1.000000 0.000000
vt 0.000000 0.000000 0.000000
vt 1.000000 0.000000 0.000000
vt 0.000000 1.000000 0.000000
vt 1.000000 1.000000 0.000000
vt 0.000000 0.000000 0.000000
vt 1.000000 0.000000 0.000000
vt 0.000000 1.000000 0.000000
vt 1.000000 1.000000 0.000000
vt 0.000000 0.000000 0.000000
vt 1.000000 0.000000 0.000000
vt 0.000000 1.000000 0.000000
vt 1.000000 1.000000 0.000000
vt 0.000000 0.000000 0.000000
vt 1.000000 0.000000 0.000000
vt 0.000000 1.000000 0.000000
vt 1.000000 1.000000 0.000000
vt 0.000000 0.000000 0.000000
vt 1.000000 0.000000 0.000000
vt 0.000000 1.000000 0.000000
vt 1.000000 1.000000 0.000000
vt 0.000000 0.000000 0.000000
vt 1.000000 0.000000 0.000000
vt 1.000000 0.000000 0.000000
vt 1.000000 1.000000 0.000000
vt 1.000000 1.000000 0.000000
vt 0.000000 1.000000 0.000000
vt 0.000000 0.000000 0.000000
vt 0.000000 1.000000 0.000000
vt 1.000000 0.000000 0.000000
vt 0.000000 0.000000 0.000000
# 34 texture coords

o Box020
g Box020
f 471/457 473/459 474/460 472/458 
f 472/469 474/470 478/472 476/471 
f 474/473 473/474 477/476 478/475 
f 473/477 471/478 475/480 477/479 
f 471/465 472/466 480/482 479/481 
f 472/466 476/468 481/484 480/482 
f 476/462 478/464 482/485 481/483 
f 478/464 477/463 483/486 482/485 
f 477/463 475/461 484/487 483/486 
f 475/467 471/465 479/481 484/488 
f 479/481 480/482 486/489 485/490 
f 485/471 486/472 482/468 483/469 
f 486/472 480/466 481/467 482/468 
f 479/465 485/471 483/469 484/470 
# 14 polygons

#
# object Box021
#

v  31.469370 4.349709 4.631160
v  27.766775 4.349709 4.631160
v  31.469370 4.349709 5.947984
v  27.766775 4.349709 5.947984
v  31.469370 6.516326 4.631160
v  27.766775 6.516326 4.631160
v  31.469370 6.516326 5.947984
v  27.766775 6.516326 5.947984
v  31.189028 4.524535 3.859113
v  28.047117 4.524535 3.859113
v  28.047117 6.341500 3.859113
v  31.189028 6.341500 3.859113
v  28.036139 4.517688 5.947984
v  31.200006 4.517688 5.947984
v  31.200006 6.348347 5.947984
v  28.036139 6.348347 5.947984
v  28.083887 4.547465 5.759878
v  31.152258 4.547465 5.759878
v  31.152258 6.318569 5.759878
v  28.083887 6.318569 5.759878
# 20 vertices

vt 1.000000 0.000000 0.000000
vt 0.000000 0.000000 0.000000
vt 1.000000 1.000000 0.000000
vt 0.000000 1.000000 0.000000
vt 0.000000 0.000000 0.000000
vt 1.000000 0.000000 0.000000
vt 0.000000 1.000000 0.000000
vt 1.000000 1.000000 0.000000
vt 0.000000 0.000000 0.000000
vt 1.000000 0.000000 0.000000
vt 0.000000 1.000000 0.000000
vt 1.000000 1.000000 0.000000
vt 0.000000 0.000000 0.000000
vt 1.000000 0.000000 0.000000
vt 0.000000 1.000000 0.000000
vt 1.000000 1.000000 0.000000
vt 0.000000 0.000000 0.000000
vt 1.000000 0.000000 0.000000
vt 0.000000 1.000000 0.000000
vt 1.000000 1.000000 0.000000
vt 0.000000 0.000000 0.000000
vt 1.000000 0.000000 0.000000
vt 0.000000 1.000000 0.000000
vt 1.000000 1.000000 0.000000
vt 0.000000 0.000000 0.000000
vt 1.000000 0.000000 0.000000
vt 1.000000 1.000000 0.000000
vt 0.000000 1.000000 0.000000
vt 0.000000 0.000000 0.000000
vt 1.000000 0.000000 0.000000
vt 1.000000 1.000000 0.000000
vt 0.000000 1.000000 0.000000
vt 0.000000 0.000000 0.000000
vt 1.000000 0.000000 0.000000
vt 1.000000 1.000000 0.000000
vt 0.000000 1.000000 0.000000
# 36 texture coords

o Box021
g Box021
f 487/491 489/493 490/494 488/492 
f 491/495 492/496 494/498 493/497 
f 495/515 496/516 497/517 498/518 
f 488/503 490/504 494/506 492/505 
f 503/523 504/524 505/525 506/526 
f 489/511 487/512 491/514 493/513 
f 487/499 488/500 496/516 495/515 
f 488/500 492/502 497/517 496/516 
f 492/502 491/501 498/518 497/517 
f 491/501 487/499 495/515 498/518 
f 490/507 489/508 500/520 499/519 
f 489/508 493/510 501/521 500/520 
f 493/510 494/509 502/522 501/521 
f 494/509 490/507 499/519 502/522 
f 499/519 500/520 504/524 503/523 
f 500/520 501/521 505/525 504/524 
f 501/521 502/522 506/526 505/525 
f 502/522 499/519 503/523 506/526 
# 18 polygons

#
# object Box022
#

v  37.275467 1.030703 43.146065
v  21.740646 1.030703 43.146061
v  37.275467 1.030703 47.317562
v  21.740646 1.030703 47.317558
v  37.275467 3.936385 43.146065
v  21.740646 3.936385 43.146061
v  37.275467 3.936385 47.317562
v  21.740646 3.936385 47.317558
v  25.987158 1.030703 47.317562
v  25.987158 1.030703 43.146061
v  25.987158 3.936385 43.146061
v  25.987158 3.936385 47.317562
v  25.987160 1.030703 38.705067
v  21.740648 1.030703 38.705067
v  21.740648 3.936385 38.705067
v  25.987160 3.936385 38.705067
# 16 vertices

vt 0.000000 0.000000 0.000000
vt 1.000000 0.000000 0.000000
vt 0.000000 1.000000 0.000000
vt 1.000000 1.000000 0.000000
vt 0.000000 0.000000 0.000000
vt 1.000000 0.000000 0.000000
vt 0.000000 1.000000 0.000000
vt 1.000000 1.000000 0.000000
vt 0.000000 0.000000 0.000000
vt 1.000000 0.000000 0.000000
vt 0.000000 1.000000 0.000000
vt 1.000000 1.000000 0.000000
vt 0.500000 1.000000 0.000000
vt 0.500000 0.000000 0.000000
vt 0.500000 0.000000 0.000000
vt 0.500000 0.000000 0.000000
vt 0.500000 0.000000 0.000000
vt 0.500000 1.000000 0.000000
vt 0.500000 1.000000 0.000000
vt 0.500000 1.000000 0.000000
vt 0.500000 0.000000 0.000000
vt 1.000000 0.000000 0.000000
vt 1.000000 1.000000 0.000000
vt 0.500000 1.000000 0.000000
# 24 texture coords

o Box022
g Box022
f 507/536 509/538 515/539 516/541 
f 511/535 517/543 518/545 513/537 
f 507/531 516/542 517/544 511/533 
f 508/527 510/528 514/530 512/529 
f 510/531 515/540 518/546 514/533 
f 509/527 507/528 511/530 513/529 
f 515/539 510/537 508/535 516/541 
f 517/543 512/536 514/538 518/545 
f 519/547 520/548 521/549 522/550 
f 515/540 509/532 513/534 518/546 
f 516/542 508/532 520/548 519/547 
f 508/532 512/534 521/549 520/548 
f 512/534 517/544 522/550 521/549 
f 517/544 516/542 519/547 522/550 
# 14 polygons

#
# object Box023
#

v  26.036209 0.438320 34.789001
v  22.008318 0.438320 34.788998
v  26.036207 0.438320 38.523853
v  22.008316 0.438320 38.523849
v  26.036209 6.997635 34.789001
v  22.008318 6.997635 34.788998
v  26.036207 6.997635 38.523853
v  22.008316 6.997635 38.523849
# 8 vertices

vt 0.000000 0.000000 0.000000
vt 1.000000 0.000000 0.000000
vt 0.000000 1.000000 0.000000
vt 1.000000 1.000000 0.000000
vt 0.000000 0.000000 0.000000
vt 1.000000 0.000000 0.000000
vt 0.000000 1.000000 0.000000
vt 1.000000 1.000000 0.000000
vt 0.000000 0.000000 0.000000
vt 1.000000 0.000000 0.000000
vt 0.000000 1.000000 0.000000
vt 1.000000 1.000000 0.000000
# 12 texture coords

o Box023
g Box023
f 523/560 525/562 526/561 524/559 
f 527/559 528/560 530/562 529/561 
f 523/555 524/556 528/558 527/557 
f 524/551 526/552 530/554 528/553 
f 526/555 525/556 529/558 530/557 
f 525/551 523/552 527/554 529/553 
# 6 polygons

#
# object Box024
#

v  8.151373 0.551397 14.082768
v  5.476241 0.551397 16.757900
v  8.066370 0.551397 13.997766
v  5.391239 0.551397 16.672897
v  8.151367 7.631960 14.082763
v  5.476235 7.631960 16.757895
v  8.066365 7.631960 13.997761
v  5.391233 7.631960 16.672892
# 8 vertices

vt 1.000000 0.000000 0.000000
vt 0.000000 0.000000 0.000000
vt 1.000000 1.000000 0.000000
vt 0.000000 1.000000 0.000000
vt 0.000000 0.000000 0.000000
vt 1.000000 0.000000 0.000000
vt 0.000000 1.000000 0.000000
vt 1.000000 1.000000 0.000000
vt 0.000000 0.000000 0.000000
vt 1.000000 0.000000 0.000000
vt 0.000000 1.000000 0.000000
vt 1.000000 1.000000 0.000000
vt 0.000000 0.000000 0.000000
vt 1.000000 0.000000 0.000000
vt 0.000000 1.000000 0.000000
vt 1.000000 1.000000 0.000000
vt 0.000000 0.000000 0.000000
vt 1.000000 0.000000 0.000000
vt 0.000000 1.000000 0.000000
vt 1.000000 1.000000 0.000000
vt 0.000000 0.000000 0.000000
vt 1.000000 0.000000 0.000000
vt 0.000000 1.000000 0.000000
vt 1.000000 1.000000 0.000000
# 24 texture coords

o Box024
g Box024
f 532/564 534/566 533/565 531/563 
f 537/569 538/570 536/568 535/567 
f 535/573 536/574 532/572 531/571 
f 536/577 538/578 534/576 532/575 
f 538/581 537/582 533/580 534/579 
f 537/585 535/586 531/584 533/583 
# 6 polygons

#
# object Box025
#

v  1.724226 1.405777 20.954718
v  4.143098 1.405777 20.954718
v  1.724226 1.405777 17.477362
v  4.143098 1.405777 17.477362
v  1.724226 3.502818 20.954718
v  4.143098 3.502818 20.954718
v  1.724226 3.502818 17.477362
v  4.143098 3.502818 17.477362
# 8 vertices

vt 0.000000 0.000000 0.000000
vt 1.000000 0.000000 0.000000
vt 0.000000 1.000000 0.000000
vt 1.000000 1.000000 0.000000
vt 0.000000 0.000000 0.000000
vt 1.000000 0.000000 0.000000
vt 0.000000 1.000000 0.000000
vt 1.000000 1.000000 0.000000
vt 0.000000 0.000000 0.000000
vt 1.000000 0.000000 0.000000
vt 0.000000 1.000000 0.000000
vt 1.000000 1.000000 0.000000
# 12 texture coords

o Box025
g Box025
f 539/596 541/598 542/597 540/595 
f 543/595 544/596 546/598 545/597 
f 539/591 540/592 544/594 543/593 
f 540/587 542/588 546/590 544/589 
f 542/591 541/592 545/594 546/593 
f 541/587 539/588 543/590 545/589 
# 6 polygons

#
# object Box026
#

v  1.641324 2.191444 15.238630
v  4.119433 2.191444 15.238630
v  1.641324 2.191444 13.832861
v  4.119433 2.191444 13.832861
v  1.641324 3.075323 15.238630
v  4.119433 3.075323 15.238630
v  1.641324 3.075323 13.832861
v  4.119433 3.075323 13.832861
# 8 vertices

vt 0.000000 0.000000 0.000000
vt 1.000000 0.000000 0.000000
vt 0.000000 1.000000 0.000000
vt 1.000000 1.000000 0.000000
vt 0.000000 0.000000 0.000000
vt 1.000000 0.000000 0.000000
vt 0.000000 1.000000 0.000000
vt 1.000000 1.000000 0.000000
vt 0.000000 0.000000 0.000000
vt 1.000000 0.000000 0.000000
vt 0.000000 1.000000 0.000000
vt 1.000000 1.000000 0.000000
# 12 texture coords

o Box026
g Box026
f 547/608 549/610 550/609 548/607 
f 551/607 552/608 554/610 553/609 
f 547/603 548/604 552/606 551/605 
f 548/599 550/600 554/602 552/601 
f 550/603 549/604 553/606 554/605 
f 549/599 547/600 551/602 553/601 
# 6 polygons

#
# object Cylinder002
#

v  6.048271 0.438320 19.740179
v  6.846254 0.438320 19.740179
v  6.798130 0.438320 19.467253
v  6.659562 0.438320 19.227245
v  6.447263 0.438320 19.049105
v  6.186840 0.438320 18.954319
v  5.909703 0.438320 18.954319
v  5.649280 0.438320 19.049105
v  5.436981 0.438320 19.227245
v  5.298412 0.438320 19.467253
v  5.250288 0.438320 19.740179
v  5.298412 0.438320 20.013105
v  5.436980 0.438320 20.253113
v  5.649280 0.438320 20.431253
v  5.909702 0.438320 20.526039
v  6.186839 0.438320 20.526039
v  6.447262 0.438320 20.431253
v  6.659561 0.438320 20.253113
v  6.798130 0.438320 20.013105
v  6.846254 2.779418 19.740179
v  6.798130 2.779418 19.467253
v  6.659562 2.779418 19.227245
v  6.447263 2.779418 19.049105
v  6.186840 2.779418 18.954319
v  5.909703 2.779418 18.954319
v  5.649280 2.779418 19.049105
v  5.436981 2.779418 19.227245
v  5.298412 2.779418 19.467253
v  5.250288 2.779418 19.740179
v  5.298412 2.779418 20.013105
v  5.436980 2.779418 20.253113
v  5.649280 2.779418 20.431253
v  5.909702 2.779418 20.526039
v  6.186839 2.779418 20.526039
v  6.447262 2.779418 20.431253
v  6.659561 2.779418 20.253113
v  6.798130 2.779418 20.013105
v  6.048271 2.779418 19.740179
# 38 vertices

vt 0.500000 0.000000 0.000000
vt 0.750000 0.000000 1.000000
vt 0.805556 0.000000 1.000000
vt 0.861111 0.000000 1.000000
vt 0.916667 0.000000 1.000000
vt 0.972222 0.000000 1.000000
vt 0.027778 0.000000 1.000000
vt 0.083333 0.000000 1.000000
vt 0.138889 0.000000 1.000000
vt 0.194444 0.000000 1.000000
vt 0.250000 0.000000 1.000000
vt 0.305556 0.000000 1.000000
vt 0.361111 0.000000 1.000000
vt 0.416667 0.000000 1.000000
vt 0.472222 0.000000 1.000000
vt 0.527778 0.000000 1.000000
vt 0.583333 0.000000 1.000000
vt 0.638889 0.000000 1.000000
vt 0.694444 0.000000 1.000000
vt 0.750000 1.000000 1.000000
vt 0.805556 1.000000 1.000000
vt 0.861111 1.000000 1.000000
vt 0.916667 1.000000 1.000000
vt 0.972222 1.000000 1.000000
vt 0.027778 1.000000 1.000000
vt 0.083333 1.000000 1.000000
vt 0.138889 1.000000 1.000000
vt 0.194444 1.000000 1.000000
vt 0.250000 1.000000 1.000000
vt 0.305556 1.000000 1.000000
vt 0.361111 1.000000 1.000000
vt 0.416667 1.000000 1.000000
vt 0.472222 1.000000 1.000000
vt 0.527778 1.000000 1.000000
vt 0.583333 1.000000 1.000000
vt 0.638889 1.000000 1.000000
vt 0.694444 1.000000 1.000000
vt 0.500000 1.000000 0.000000
vt -0.027778 0.000000 1.000000
vt -0.027778 0.000000 1.000000
vt -0.027778 1.000000 1.000000
vt 0.970821 1.000000 0.879385
# 42 texture coords

o Cylinder002
g Cylinder002
f 555/611 558/614 557/613 556/612 
f 555/611 560/616 559/615 558/614 
f 555/611 562/618 561/617 560/649 
f 555/611 564/620 563/619 562/618 
f 555/611 566/622 565/621 564/620 
f 555/611 568/624 567/623 566/622 
f 555/611 570/626 569/625 568/624 
f 555/611 572/628 571/627 570/626 
f 555/611 556/612 573/629 572/628 
f 556/612 557/613 575/631 574/630 
f 557/613 558/614 576/632 575/631 
f 558/614 559/615 577/633 576/632 
f 559/615 560/616 578/634 577/633 
f 560/650 561/617 579/635 578/651 
f 561/617 562/618 580/636 579/635 
f 562/618 563/619 581/637 580/636 
f 563/619 564/620 582/638 581/637 
f 564/620 565/621 583/639 582/638 
f 565/621 566/622 584/640 583/639 
f 566/622 567/623 585/641 584/640 
f 567/623 568/624 586/642 585/641 
f 568/624 569/625 587/643 586/642 
f 569/625 570/626 588/644 587/643 
f 570/626 571/627 589/645 588/644 
f 571/627 572/628 590/646 589/645 
f 572/628 573/629 591/647 590/646 
f 573/629 556/612 574/630 591/647 
f 592/648 591/647 574/630 575/631 
f 592/648 575/631 576/632 577/633 
f 592/648 577/633 578/634 579/652 
f 592/648 579/635 580/636 581/637 
f 592/648 581/637 582/638 583/639 
f 592/648 583/639 584/640 585/641 
f 592/648 585/641 586/642 587/643 
f 592/648 587/643 588/644 589/645 
f 592/648 589/645 590/646 591/647 
# 36 polygons

#
# object Box027
#

v  21.020432 11.494419 41.265488
v  21.953094 11.494419 41.265488
v  21.020432 11.494419 34.353043
v  21.953094 11.494419 34.353043
v  21.020432 20.193541 41.265488
v  21.953094 20.193541 41.265488
v  21.020432 20.193541 34.353043
v  21.953094 20.193541 34.353043
# 8 vertices

vt 0.000000 0.000000 0.000000
vt 1.000000 0.000000 0.000000
vt 0.000000 1.000000 0.000000
vt 1.000000 1.000000 0.000000
vt 0.000000 0.000000 0.000000
vt 1.000000 0.000000 0.000000
vt 0.000000 1.000000 0.000000
vt 1.000000 1.000000 0.000000
vt 0.000000 0.000000 0.000000
vt 1.000000 0.000000 0.000000
vt 0.000000 1.000000 0.000000
vt 1.000000 1.000000 0.000000
# 12 texture coords

o Box027
g Box027
f 593/662 595/664 596/663 594/661 
f 597/661 598/662 600/664 599/663 
f 593/657 594/658 598/660 597/659 
f 594/653 596/654 600/656 598/655 
f 596/657 595/658 599/660 600/659 
f 595/653 593/654 597/656 599/655 
# 6 polygons

#
# object Box031
#

v  0.457366 11.488789 12.747770
v  14.540524 11.488789 12.747770
v  0.457366 11.488789 11.656290
v  14.540524 11.488789 11.656290
v  0.457366 19.997099 12.747770
v  14.540524 19.997099 12.747770
v  0.457366 19.997099 11.656290
v  14.540524 19.997099 11.656290
# 8 vertices

vt 1.000000 0.000000 0.000000
vt 0.000000 0.000000 0.000000
vt 1.000000 1.000000 0.000000
vt 0.000000 1.000000 0.000000
vt 0.000000 0.000000 0.000000
vt 1.000000 0.000000 0.000000
vt 0.000000 1.000000 0.000000
vt 1.000000 1.000000 0.000000
vt 0.000000 0.000000 0.000000
vt 1.000000 0.000000 0.000000
vt 0.000000 1.000000 0.000000
vt 1.000000 1.000000 0.000000
vt 0.000000 0.000000 0.000000
vt 1.000000 0.000000 0.000000
vt 0.000000 1.000000 0.000000
vt 1.000000 1.000000 0.000000
vt 0.000000 0.000000 0.000000
vt 1.000000 0.000000 0.000000
vt 0.000000 1.000000 0.000000
vt 1.000000 1.000000 0.000000
vt 0.000000 0.000000 0.000000
vt 1.000000 0.000000 0.000000
vt 0.000000 1.000000 0.000000
vt 1.000000 1.000000 0.000000
# 24 texture coords

o Box031
g Box031
f 601/665 603/667 604/668 602/666 
f 605/669 606/670 608/672 607/671 
f 601/673 602/674 606/676 605/675 
f 602/677 604/678 608/680 606/679 
f 604/681 603/682 607/684 608/683 
f 603/685 601/686 605/688 607/687 
# 6 polygons

#
# object Box037
#

v  25.085798 11.494419 35.294350
v  25.085798 11.494419 34.361687
v  21.715548 11.494419 35.294350
v  21.715548 11.494419 34.361687
v  25.085798 20.193541 35.294350
v  25.085798 20.193541 34.361687
v  21.715548 20.193541 35.294350
v  21.715548 20.193541 34.361687
# 8 vertices

vt 0.000000 0.000000 0.000000
vt 1.000000 0.000000 0.000000
vt 0.000000 1.000000 0.000000
vt 1.000000 1.000000 0.000000
vt 0.000000 0.000000 0.000000
vt 1.000000 0.000000 0.000000
vt 0.000000 1.000000 0.000000
vt 1.000000 1.000000 0.000000
vt 0.000000 0.000000 0.000000
vt 1.000000 0.000000 0.000000
vt 0.000000 1.000000 0.000000
vt 1.000000 1.000000 0.000000
# 12 texture coords

o Box037
g Box037
f 609/698 611/700 612/699 610/697 
f 613/697 614/698 616/700 615/699 
f 609/693 610/694 614/696 613/695 
f 610/689 612/690 616/692 614/691 
f 612/693 611/694 615/696 616/695 
f 611/689 609/690 613/692 615/691 
# 6 polygons

#
# object Box004
#

v  38.472366 10.598866 41.377140
v  38.472366 11.119862 41.377140
v  0.713412 10.598866 0.982719
v  38.472366 10.598866 0.982719
v  0.713412 11.119863 0.982719
v  38.472366 11.119863 0.982719
v  0.713412 10.598866 32.539536
v  38.472366 10.598866 32.590759
v  38.472366 11.119863 32.590759
v  0.713412 11.119863 32.539536
v  14.529505 10.598866 41.377140
v  14.529506 11.119862 41.377140
v  14.529506 11.119863 0.982719
v  14.529506 10.598866 0.982719
v  14.529506 10.598866 32.539536
v  14.529506 11.119863 32.539536
v  21.736036 11.119862 41.377140
v  21.736036 10.598866 0.982719
v  21.736038 11.119863 32.565147
v  21.736034 10.598866 41.377140
v  21.736034 11.119863 0.982719
v  21.736034 10.598866 32.565147
v  38.472366 10.598865 47.260818
v  38.472366 11.119862 47.260818
v  21.736036 11.119862 47.260818
v  21.736034 10.598865 47.260818
# 26 vertices

vt 0.000000 0.000000 0.000000
vt 0.000000 1.000000 0.000000
vt 0.000000 0.000000 0.000000
vt 1.000000 0.000000 0.000000
vt 0.000000 1.000000 0.000000
vt 1.000000 1.000000 0.000000
vt 1.000000 0.000000 0.000000
vt 0.000000 1.000000 0.000000
vt 1.000000 1.000000 0.000000
vt 0.000000 0.000000 0.000000
vt 1.000000 0.000000 0.000000
vt 0.000000 1.000000 0.000000
vt 1.000000 1.000000 0.000000
vt 0.000000 0.000000 0.000000
vt 0.000000 1.000000 0.000000
vt 1.000000 1.000000 0.000000
vt 0.000000 1.000000 0.000000
vt 1.000000 1.000000 0.000000
vt 0.000000 0.500000 0.000000
vt 1.000000 0.500000 0.000000
vt 1.000000 0.500000 0.000000
vt 0.000000 0.500000 0.000000
vt 1.000000 0.500000 0.000000
vt 0.000000 0.500000 0.000000
vt 1.000000 0.500000 0.000000
vt 0.000000 0.500000 0.000000
vt 0.500000 0.000000 0.000000
vt 0.500000 0.000000 0.000000
vt 0.500000 1.000000 0.000000
vt 0.500000 0.000000 0.000000
vt 0.500000 1.000000 0.000000
vt 0.500000 1.000000 0.000000
vt 0.500000 0.000000 0.000000
vt 0.500000 1.000000 0.000000
vt 0.500000 0.500000 0.000000
vt 0.500000 0.500000 0.000000
vt 0.250000 1.000000 0.000000
vt 0.250000 0.000000 0.000000
vt 0.750000 0.000000 0.000000
vt 0.750000 1.000000 0.000000
vt 0.250000 0.500000 0.000000
vt 0.250000 0.000000 0.000000
vt 0.750000 0.000000 0.000000
vt 0.750000 1.000000 0.000000
vt 0.250000 1.000000 0.000000
vt 0.750000 0.500000 0.000000
vt 0.000000 0.000000 0.000000
vt 0.000000 1.000000 0.000000
vt 0.250000 1.000000 0.000000
vt 0.250000 0.000000 0.000000
# 50 texture coords

o Box004
g Box004
f 619/703 621/705 629/731 630/733 
f 617/710 624/722 625/723 618/711 
f 618/714 625/724 635/741 633/738 
f 623/719 619/708 630/734 631/735 
f 624/722 620/712 622/713 625/723 
f 625/724 622/715 637/745 635/741 
f 626/726 621/717 619/718 623/720 
f 627/727 636/742 633/737 628/729 
f 629/731 637/744 634/739 630/733 
f 631/735 638/746 636/743 627/728 
f 630/734 634/740 638/746 631/735 
f 629/732 621/716 626/725 632/736 
f 632/716 626/710 623/707 631/715 
f 628/712 632/716 631/715 627/711 
f 635/741 632/736 628/730 633/738 
f 637/745 629/732 632/736 635/741 
f 642/750 639/747 640/748 641/749 
f 637/744 622/706 620/704 634/739 
f 638/746 624/721 617/707 636/743 
f 634/740 620/709 624/721 638/746 
f 617/701 618/702 640/748 639/747 
f 618/702 633/737 641/749 640/748 
f 633/737 636/742 642/750 641/749 
f 636/742 617/701 639/747 642/750 
# 24 polygons

#
# object Box034
#

v  37.943718 16.080013 27.816711
v  37.943718 16.080013 32.501369
v  37.943718 18.298191 27.816711
v  37.943718 18.298191 32.501369
v  38.274792 16.080013 27.816711
v  38.274792 16.080013 32.501369
v  38.274792 18.298191 27.816711
v  38.274792 18.298191 32.501369
# 8 vertices

vt 0.000000 0.000000 0.000000
vt 1.000000 0.000000 0.000000
vt 0.000000 1.000000 0.000000
vt 1.000000 1.000000 0.000000
vt 0.000000 0.000000 0.000000
vt 1.000000 0.000000 0.000000
vt 0.000000 1.000000 0.000000
vt 1.000000 1.000000 0.000000
vt 0.000000 0.000000 0.000000
vt 1.000000 0.000000 0.000000
vt 0.000000 1.000000 0.000000
vt 1.000000 1.000000 0.000000
# 12 texture coords

o Box034
g Box034
f 645/761 643/759 644/760 646/762 
f 648/759 647/760 649/762 650/761 
f 644/756 643/755 647/757 648/758 
f 646/752 644/751 648/753 650/754 
f 645/756 646/755 650/757 649/758 
f 643/752 645/751 649/753 647/754 
# 6 polygons

#
# object Cylinder003
#

v  37.456684 14.320866 26.777319
v  37.429039 14.320866 26.620543
v  37.349442 14.320866 26.482674
v  37.227493 14.320866 26.380344
v  37.077896 14.320866 26.325897
v  36.918701 14.320866 26.325897
v  36.769104 14.320866 26.380344
v  36.647156 14.320866 26.482674
v  36.567558 14.320866 26.620541
v  36.539913 14.320866 26.777319
v  36.567558 14.320866 26.934095
v  36.647156 14.320866 27.071964
v  36.769104 14.320866 27.174294
v  36.918701 14.320866 27.228741
v  37.077896 14.320866 27.228741
v  37.227493 14.320866 27.174294
v  37.349442 14.320866 27.071964
v  37.429039 14.320866 26.934097
v  37.650558 15.670870 26.777319
v  37.611221 15.670870 26.554234
v  37.497959 15.670870 26.358055
v  37.324429 15.670870 26.212446
v  37.111561 15.670870 26.134970
v  36.885036 15.670870 26.134970
v  36.672169 15.670870 26.212446
v  36.498638 15.670870 26.358055
v  36.385376 15.670870 26.554234
v  36.346039 15.670870 26.777319
v  36.385376 15.670870 27.000404
v  36.498638 15.670870 27.196583
v  36.672169 15.670870 27.342192
v  36.885036 15.670870 27.419668
v  37.111561 15.670870 27.419668
v  37.324429 15.670870 27.342192
v  37.497955 15.670870 27.196583
v  37.611221 15.670870 27.000404
v  37.507248 15.670870 26.777319
v  37.476555 15.670870 26.603249
v  37.388176 15.670870 26.450174
v  37.252773 15.670870 26.336557
v  37.086678 15.670870 26.276102
v  36.909920 15.670870 26.276102
v  36.743824 15.670870 26.336557
v  36.608421 15.670870 26.450174
v  36.520042 15.670870 26.603249
v  36.489349 15.670870 26.777319
v  36.520042 15.670870 26.951389
v  36.608421 15.670870 27.104464
v  36.743824 15.670870 27.218081
v  36.909920 15.670870 27.278536
v  37.086678 15.670870 27.278536
v  37.252773 15.670870 27.218081
v  37.388176 15.670870 27.104465
v  37.476555 15.670870 26.951389
v  37.414608 14.818542 26.777319
v  37.389500 14.818542 26.634933
v  37.317211 14.818542 26.509720
v  37.206451 14.818542 26.416784
v  37.070591 14.818542 26.367334
v  36.926006 14.818542 26.367334
v  36.790146 14.818542 26.416784
v  36.679386 14.818542 26.509720
v  36.607098 14.818542 26.634933
v  36.581989 14.818542 26.777319
v  36.607098 14.818542 26.919704
v  36.679386 14.818542 27.044916
v  36.790146 14.818542 27.137854
v  36.926006 14.818542 27.187304
v  37.070591 14.818542 27.187304
v  37.206451 14.818542 27.137854
v  37.317211 14.818542 27.044918
v  37.389500 14.818542 26.919704
# 72 vertices

vt 0.750000 0.000000 1.000000
vt 0.805556 0.000000 1.000000
vt 0.861111 0.000000 1.000000
vt 0.916667 0.000000 1.000000
vt 0.972222 0.000000 1.000000
vt 0.027778 0.000000 1.000000
vt 0.083333 0.000000 1.000000
vt 0.138889 0.000000 1.000000
vt 0.194444 0.000000 1.000000
vt 0.250000 0.000000 1.000000
vt 0.305556 0.000000 1.000000
vt 0.361111 0.000000 1.000000
vt 0.416667 0.000000 1.000000
vt 0.472222 0.000000 1.000000
vt 0.527778 0.000000 1.000000
vt 0.583333 0.000000 1.000000
vt 0.638889 0.000000 1.000000
vt 0.694444 0.000000 1.000000
vt 0.750000 1.000000 1.000000
vt 0.805556 1.000000 1.000000
vt 0.861111 1.000000 1.000000
vt 0.916667 1.000000 1.000000
vt 0.972222 1.000000 1.000000
vt 0.027778 1.000000 1.000000
vt 0.083333 1.000000 1.000000
vt 0.138889 1.000000 1.000000
vt 0.194444 1.000000 1.000000
vt 0.250000 1.000000 1.000000
vt 0.305556 1.000000 1.000000
vt 0.361111 1.000000 1.000000
vt 0.416667 1.000000 1.000000
vt 0.472222 1.000000 1.000000
vt 0.527778 1.000000 1.000000
vt 0.583333 1.000000 1.000000
vt 0.638889 1.000000 1.000000
vt 0.694444 1.000000 1.000000
vt -0.027778 0.000000 1.000000
vt -0.027778 1.000000 1.000000
vt 0.970821 0.000000 0.879385
vt 0.912631 0.000000 0.652703
vt 0.804672 0.000000 0.347296
vt 0.659966 0.000000 -0.000000
vt 0.495965 0.000000 -0.347296
vt 0.332450 0.000000 -0.652703
vt 0.189145 0.000000 -0.879385
vt 0.083333 0.000000 -1.000000
vt 0.027778 0.000000 -1.000000
vt 0.029179 0.000000 -0.879385
vt 0.087368 0.000000 -0.652704
vt 0.195327 0.000000 -0.347297
vt 0.340034 0.000000 -0.000000
vt 0.970821 1.000000 0.879385
vt 0.912631 1.000000 0.652704
vt 0.804673 1.000000 0.347296
vt 0.659966 1.000000 0.000000
vt 0.495965 1.000000 -0.347296
vt 0.332450 1.000000 -0.652704
vt 0.189145 1.000000 -0.879385
vt 0.083333 1.000000 -1.000000
vt 0.027778 1.000000 -1.000000
vt 0.029179 1.000000 -0.879386
vt 0.087368 1.000000 -0.652704
vt 0.195327 1.000000 -0.347297
vt 0.750000 1.000000 1.000000
vt 0.805556 1.000000 1.000000
vt 0.861111 1.000000 1.000000
vt 0.916667 1.000000 1.000000
vt 0.972222 1.000000 1.000000
vt 0.970821 1.000000 0.879385
vt 0.912631 1.000000 0.652704
vt 0.804673 1.000000 0.347296
vt 0.659966 1.000000 0.000000
vt 0.495965 1.000000 -0.347296
vt 0.332450 1.000000 -0.652704
vt 0.189145 1.000000 -0.879385
vt 0.083333 1.000000 -1.000000
vt 0.027778 1.000000 -1.000000
vt 0.029179 1.000000 -0.879386
vt 0.087368 1.000000 -0.652704
vt 0.195327 1.000000 -0.347297
vt 0.694444 1.000000 1.000000
vt 0.750000 1.000000 1.000000
vt 0.805556 1.000000 1.000000
vt 0.861111 1.000000 1.000000
vt 0.916667 1.000000 1.000000
vt 0.972222 1.000000 1.000000
vt 0.970821 1.000000 0.879385
vt 0.912631 1.000000 0.652704
vt 0.804673 1.000000 0.347296
vt 0.659966 1.000000 0.000000
vt 0.495965 1.000000 -0.347296
vt 0.332450 1.000000 -0.652704
vt 0.189145 1.000000 -0.879385
vt 0.083333 1.000000 -1.000000
vt 0.027778 1.000000 -1.000000
vt 0.029179 1.000000 -0.879386
vt 0.087368 1.000000 -0.652704
vt 0.195327 1.000000 -0.347297
vt 0.694444 1.000000 1.000000
# 99 texture coords

o Cylinder003
g Cylinder003
f 668/813 667/812 666/811 665/810 664/809 663/808 662/807 661/806 660/805 659/804 658/803 657/802 656/801 655/767 654/766 653/765 652/764 651/763 
f 651/763 652/764 670/782 669/781 
f 652/764 653/765 671/783 670/782 
f 653/765 654/766 672/784 671/783 
f 654/766 655/767 673/785 672/784 
f 655/799 656/768 674/786 673/800 
f 656/768 657/769 675/787 674/786 
f 657/769 658/770 676/788 675/787 
f 658/770 659/771 677/789 676/788 
f 659/771 660/772 678/790 677/789 
f 660/772 661/773 679/791 678/790 
f 661/773 662/774 680/792 679/791 
f 662/774 663/775 681/793 680/792 
f 663/775 664/776 682/794 681/793 
f 664/776 665/777 683/795 682/794 
f 665/777 666/778 684/796 683/795 
f 666/778 667/779 685/797 684/796 
f 667/779 668/780 686/798 685/797 
f 668/780 651/763 669/781 686/798 
f 722/861 705/844 706/845 707/846 708/847 709/848 710/849 711/850 712/851 713/852 714/853 715/854 716/855 717/856 718/857 719/858 720/859 721/860 
f 669/781 670/782 688/827 687/826 
f 670/782 671/783 689/828 688/827 
f 671/783 672/784 690/829 689/828 
f 672/784 673/785 691/830 690/829 
f 673/785 674/814 692/831 691/830 
f 674/814 675/815 693/832 692/831 
f 675/815 676/816 694/833 693/832 
f 676/816 677/817 695/834 694/833 
f 677/817 678/818 696/835 695/834 
f 678/818 679/819 697/836 696/835 
f 679/819 680/820 698/837 697/836 
f 680/820 681/821 699/838 698/837 
f 681/821 682/822 700/839 699/838 
f 682/822 683/823 701/840 700/839 
f 683/823 684/824 702/841 701/840 
f 684/824 685/825 703/842 702/841 
f 685/825 686/798 704/843 703/842 
f 686/798 669/781 687/826 704/843 
f 687/826 688/827 706/845 705/844 
f 688/827 689/828 707/846 706/845 
f 689/828 690/829 708/847 707/846 
f 690/829 691/830 709/848 708/847 
f 691/830 692/831 710/849 709/848 
f 692/831 693/832 711/850 710/849 
f 693/832 694/833 712/851 711/850 
f 694/833 695/834 713/852 712/851 
f 695/834 696/835 714/853 713/852 
f 696/835 697/836 715/854 714/853 
f 697/836 698/837 716/855 715/854 
f 698/837 699/838 717/856 716/855 
f 699/838 700/839 718/857 717/856 
f 700/839 701/840 719/858 718/857 
f 701/840 702/841 720/859 719/858 
f 702/841 703/842 721/860 720/859 
f 703/842 704/843 722/861 721/860 
f 704/843 687/826 705/844 722/861 
# 56 polygons

#
# object Box033
#

v  35.493374 13.763748 34.754192
v  38.067982 13.763748 34.754192
v  35.493374 13.763748 25.505699
v  38.067982 13.763748 25.505699
v  35.493374 14.337980 34.754192
v  38.067982 14.337980 34.754192
v  35.493374 14.337980 25.505699
v  38.067982 14.337980 25.505699
# 8 vertices

vt 0.000000 0.000000 0.000000
vt 1.000000 0.000000 0.000000
vt 0.000000 1.000000 0.000000
vt 1.000000 1.000000 0.000000
vt 0.000000 0.000000 0.000000
vt 1.000000 0.000000 0.000000
vt 0.000000 1.000000 0.000000
vt 1.000000 1.000000 0.000000
vt 0.000000 0.000000 0.000000
vt 1.000000 0.000000 0.000000
vt 0.000000 1.000000 0.000000
vt 1.000000 1.000000 0.000000
# 12 texture coords

o Box033
g Box033
f 723/871 725/873 726/872 724/870 
f 727/870 728/871 730/873 729/872 
f 723/866 724/867 728/869 727/868 
f 724/862 726/863 730/865 728/864 
f 726/866 725/867 729/869 730/868 
f 725/862 723/863 727/865 729/864 
# 6 polygons

#
# object Box028
#

v  38.159142 11.494419 35.294350
v  38.159142 11.494419 34.361687
v  29.186426 11.494419 35.294350
v  29.186426 11.494419 34.361687
v  38.159142 20.193541 35.294350
v  38.159142 20.193541 34.361687
v  29.186426 20.193541 35.294350
v  29.186426 20.193541 34.361687
# 8 vertices

vt 0.000000 0.000000 0.000000
vt 1.000000 0.000000 0.000000
vt 0.000000 1.000000 0.000000
vt 1.000000 1.000000 0.000000
vt 0.000000 0.000000 0.000000
vt 1.000000 0.000000 0.000000
vt 0.000000 1.000000 0.000000
vt 1.000000 1.000000 0.000000
vt 0.000000 0.000000 0.000000
vt 1.000000 0.000000 0.000000
vt 0.000000 1.000000 0.000000
vt 1.000000 1.000000 0.000000
# 12 texture coords

o Box028
g Box028
f 731/883 733/885 734/884 732/882 
f 735/882 736/883 738/885 737/884 
f 731/878 732/879 736/881 735/880 
f 732/874 734/875 738/877 736/876 
f 734/878 733/879 737/881 738/880 
f 733/874 731/875 735/877 737/876 
# 6 polygons

#
# object Box030
#

v  15.267963 10.553213 41.467911
v  15.267962 10.553213 37.018875
v  14.553685 10.553213 41.467911
v  14.553684 10.553213 37.018875
v  15.267963 16.137581 41.467911
v  15.267962 16.137581 37.018875
v  14.553685 16.137581 41.467911
v  14.553684 16.137581 37.018875
v  14.553685 10.553213 39.243393
v  15.267962 10.553213 39.243393
v  15.267962 16.137581 39.243393
v  14.553685 16.137581 39.243393
v  15.267962 10.553213 37.771992
v  14.553684 16.137581 37.771992
v  14.553684 10.553213 37.771992
v  15.267962 16.137581 37.771992
v  14.553685 10.553213 40.714794
v  15.267963 16.137581 40.714794
v  15.267963 10.553213 40.714794
v  14.553685 16.137581 40.714794
v  15.267962 10.553213 38.490273
v  14.553685 16.137581 38.490273
v  14.553685 10.553213 38.490273
v  15.267962 16.137581 38.490273
v  14.553685 10.553213 39.996513
v  15.267962 16.137581 39.996513
v  15.267962 10.553213 39.996513
v  14.553685 16.137581 39.996513
v  15.267962 15.254892 37.018875
v  15.267963 15.254892 41.467911
v  14.553684 15.254892 37.018875
v  14.553685 15.254892 41.467911
v  15.267962 15.254892 39.243393
v  14.553685 15.254892 39.243393
v  14.553684 15.254892 37.771992
v  15.267962 15.254892 38.490273
v  15.267963 15.254892 40.714794
v  14.553685 15.254892 39.996513
v  14.553685 15.254892 38.490273
v  15.267962 15.254892 37.771992
v  15.267962 15.254892 39.996513
v  14.553685 15.254892 40.714794
# 42 vertices

vt 0.000000 0.000000 0.000000
vt 0.000000 1.000000 0.000000
vt 0.000000 0.000000 0.000000
vt 1.000000 0.000000 0.000000
vt 0.000000 1.000000 0.000000
vt 1.000000 1.000000 0.000000
vt 1.000000 0.000000 0.000000
vt 0.000000 1.000000 0.000000
vt 1.000000 1.000000 0.000000
vt 0.000000 0.000000 0.000000
vt 1.000000 0.000000 0.000000
vt 0.000000 1.000000 0.000000
vt 1.000000 1.000000 0.000000
vt 0.000000 0.000000 0.000000
vt 0.000000 1.000000 0.000000
vt 1.000000 1.000000 0.000000
vt 0.000000 0.000000 0.000000
vt 1.000000 0.000000 0.000000
vt 0.000000 1.000000 0.000000
vt 1.000000 1.000000 0.000000
vt 0.500000 1.000000 0.000000
vt 0.500000 0.000000 0.000000
vt 0.500000 0.000000 0.000000
vt 0.500000 0.000000 0.000000
vt 0.500000 0.000000 0.000000
vt 0.500000 1.000000 0.000000
vt 0.500000 1.000000 0.000000
vt 0.500000 1.000000 0.000000
vt 0.169277 0.000000 0.000000
vt 0.830723 0.000000 0.000000
vt 0.830723 1.000000 0.000000
vt 0.169277 1.000000 0.000000
vt 0.169277 1.000000 0.000000
vt 0.169277 0.000000 0.000000
vt 0.830723 0.000000 0.000000
vt 0.830723 1.000000 0.000000
vt 0.830723 1.000000 0.000000
vt 0.830723 0.000000 0.000000
vt 0.169277 0.000000 0.000000
vt 0.169277 1.000000 0.000000
vt 0.830723 0.000000 0.000000
vt 0.169277 0.000000 0.000000
vt 0.169277 1.000000 0.000000
vt 0.830723 1.000000 0.000000
vt 0.330723 0.000000 0.000000
vt 0.669277 0.000000 0.000000
vt 0.669277 1.000000 0.000000
vt 0.330723 1.000000 0.000000
vt 0.330723 1.000000 0.000000
vt 0.330723 0.000000 0.000000
vt 0.669277 0.000000 0.000000
vt 0.669277 1.000000 0.000000
vt 0.669277 1.000000 0.000000
vt 0.669277 0.000000 0.000000
vt 0.330723 0.000000 0.000000
vt 0.330723 1.000000 0.000000
vt 0.669277 0.000000 0.000000
vt 0.330723 0.000000 0.000000
vt 0.330723 1.000000 0.000000
vt 0.669277 1.000000 0.000000
vt 1.000000 0.500000 0.000000
vt 0.000000 0.500000 0.000000
vt 0.000000 0.500000 0.000000
vt 1.000000 0.500000 0.000000
vt 1.000000 0.500000 0.000000
vt 0.000000 0.500000 0.000000
vt 1.000000 0.500000 0.000000
vt 0.000000 0.500000 0.000000
vt 0.500000 0.500000 0.000000
vt 0.500000 0.500000 0.000000
vt 0.169277 0.500000 0.000000
vt 0.669277 0.500000 0.000000
vt 0.169277 0.500000 0.000000
vt 0.669277 0.500000 0.000000
vt 0.330723 0.500000 0.000000
vt 0.830723 0.500000 0.000000
vt 0.330723 0.500000 0.000000
vt 0.830723 0.500000 0.000000
# 78 texture coords

o Box030
g Box030
f 743/888 756/924 758/928 745/890 
f 740/895 742/896 769/950 767/947 
f 742/899 753/919 773/956 769/951 
f 741/902 739/903 768/949 770/953 
f 747/906 761/934 759/930 748/908 
f 749/910 762/936 760/932 750/912 
f 748/909 759/931 774/957 771/954 
f 761/935 747/907 772/955 777/960 
f 753/918 742/887 740/886 751/914 
f 754/920 744/889 746/891 752/916 
f 751/915 740/892 767/946 778/961 
f 764/940 749/910 750/912 766/944 
f 762/936 754/920 752/916 760/932 
f 755/922 763/938 765/942 757/926 
f 756/924 764/940 766/944 758/928 
f 757/927 765/943 779/962 775/958 
f 763/939 755/923 780/963 776/959 
f 775/958 756/925 743/893 768/948 
f 769/950 746/898 744/897 767/947 
f 773/956 752/917 746/900 769/951 
f 768/949 743/905 745/904 770/953 
f 774/957 762/937 749/911 771/954 
f 776/959 766/945 750/913 772/955 
f 772/955 750/913 760/933 777/960 
f 767/946 744/894 754/921 778/961 
f 771/954 749/911 764/941 779/962 
f 770/952 745/901 758/929 780/963 
f 777/960 760/933 752/917 773/956 
f 778/961 754/921 762/937 774/957 
f 779/962 764/941 756/925 775/958 
f 780/963 758/929 766/945 776/959 
# 31 polygons

#
# object Box029
#

v  0.777044 10.553213 32.411350
v  14.616526 10.553213 32.411350
v  0.777044 10.553213 31.495897
v  14.616526 10.553213 31.495897
v  0.777044 20.150131 32.411350
v  14.616526 20.150131 32.411350
v  0.777044 20.150131 31.495897
v  14.616526 20.150131 31.495897
# 8 vertices

vt 0.000000 0.000000 0.000000
vt 1.000000 0.000000 0.000000
vt 0.000000 1.000000 0.000000
vt 1.000000 1.000000 0.000000
vt 0.000000 0.000000 0.000000
vt 1.000000 0.000000 0.000000
vt 0.000000 1.000000 0.000000
vt 1.000000 1.000000 0.000000
vt 0.000000 0.000000 0.000000
vt 1.000000 0.000000 0.000000
vt 0.000000 1.000000 0.000000
vt 1.000000 1.000000 0.000000
# 12 texture coords

o Box029
g Box029
f 781/973 783/975 784/974 782/972 
f 785/972 786/973 788/975 787/974 
f 781/968 782/969 786/971 785/970 
f 782/964 784/965 788/967 786/966 
f 784/968 783/969 787/971 788/970 
f 783/964 781/965 785/967 787/966 
# 6 polygons

#
# object Box036
#

v  0.551752 10.553213 22.811102
v  9.143187 10.553213 22.811102
v  0.551752 10.553213 21.895651
v  9.143187 10.553213 21.895651
v  0.551752 20.150131 22.811102
v  9.143187 20.150131 22.811102
v  0.551752 20.150131 21.895651
v  9.143187 20.150131 21.895651
# 8 vertices

vt 0.000000 0.000000 0.000000
vt 1.000000 0.000000 0.000000
vt 0.000000 1.000000 0.000000
vt 1.000000 1.000000 0.000000
vt 0.000000 0.000000 0.000000
vt 1.000000 0.000000 0.000000
vt 0.000000 1.000000 0.000000
vt 1.000000 1.000000 0.000000
vt 0.000000 0.000000 0.000000
vt 1.000000 0.000000 0.000000
vt 0.000000 1.000000 0.000000
vt 1.000000 1.000000 0.000000
# 12 texture coords

o Box036
g Box036
f 789/985 791/987 792/986 790/984 
f 793/984 794/985 796/987 795/986 
f 789/980 790/981 794/983 793/982 
f 790/976 792/977 796/979 794/978 
f 792/980 791/981 795/983 796/982 
f 791/976 789/977 793/979 795/978 
# 6 polygons

#
# object Box035
#

v  13.749581 10.553213 12.622068
v  13.749578 10.553213 26.461554
v  14.665034 10.553213 12.622068
v  14.665030 10.553213 26.461554
v  13.749581 20.150131 12.622068
v  13.749578 20.150131 26.461554
v  14.665034 20.150131 12.622068
v  14.665030 20.150131 26.461554
# 8 vertices

vt 0.000000 0.000000 0.000000
vt 1.000000 0.000000 0.000000
vt 0.000000 1.000000 0.000000
vt 1.000000 1.000000 0.000000
vt 0.000000 0.000000 0.000000
vt 1.000000 0.000000 0.000000
vt 0.000000 1.000000 0.000000
vt 1.000000 1.000000 0.000000
vt 0.000000 0.000000 0.000000
vt 1.000000 0.000000 0.000000
vt 0.000000 1.000000 0.000000
vt 1.000000 1.000000 0.000000
# 12 texture coords

o Box035
g Box035
f 797/997 799/999 800/998 798/996 
f 801/996 802/997 804/999 803/998 
f 797/992 798/993 802/995 801/994 
f 798/988 800/989 804/991 802/990 
f 800/992 799/993 803/995 804/994 
f 799/988 797/989 801/991 803/990 
# 6 polygons

#
# object Box038
#

v  23.571259 11.234732 24.641178
v  23.571259 11.234732 12.749649
v  22.452591 11.234732 24.641178
v  22.452591 11.234732 12.749649
v  23.571259 19.903248 24.641178
v  23.571259 19.903248 12.749649
v  22.452591 19.903248 24.641178
v  22.452591 19.903248 12.749649
# 8 vertices

vt 0.000000 0.000000 0.000000
vt 1.000000 0.000000 0.000000
vt 0.000000 1.000000 0.000000
vt 1.000000 1.000000 0.000000
vt 0.000000 0.000000 0.000000
vt 1.000000 0.000000 0.000000
vt 0.000000 1.000000 0.000000
vt 1.000000 1.000000 0.000000
vt 0.000000 0.000000 0.000000
vt 1.000000 0.000000 0.000000
vt 0.000000 1.000000 0.000000
vt 1.000000 1.000000 0.000000
# 12 texture coords

o Box038
g Box038
f 805/1009 807/1011 808/1010 806/1008 
f 809/1008 810/1009 812/1011 811/1010 
f 805/1004 806/1005 810/1007 809/1006 
f 806/1000 808/1001 812/1003 810/1002 
f 808/1004 807/1005 811/1007 812/1006 
f 807/1000 805/1001 809/1003 811/1002 
# 6 polygons

#
# object Box039
#

v  38.159142 11.494419 25.393286
v  38.159142 11.494419 24.460621
v  29.186426 11.494419 25.393288
v  29.186426 11.494419 24.460623
v  38.159142 20.193541 25.393286
v  38.159142 20.193541 24.460621
v  29.186426 20.193541 25.393288
v  29.186426 20.193541 24.460623
# 8 vertices

vt 0.000000 0.000000 0.000000
vt 1.000000 0.000000 0.000000
vt 0.000000 1.000000 0.000000
vt 1.000000 1.000000 0.000000
vt 0.000000 0.000000 0.000000
vt 1.000000 0.000000 0.000000
vt 0.000000 1.000000 0.000000
vt 1.000000 1.000000 0.000000
vt 0.000000 0.000000 0.000000
vt 1.000000 0.000000 0.000000
vt 0.000000 1.000000 0.000000
vt 1.000000 1.000000 0.000000
# 12 texture coords

o Box039
g Box039
f 813/1021 815/1023 816/1022 814/1020 
f 817/1020 818/1021 820/1023 819/1022 
f 813/1016 814/1017 818/1019 817/1018 
f 814/1012 816/1013 820/1015 818/1014 
f 816/1016 815/1017 819/1019 820/1018 
f 815/1012 813/1013 817/1015 819/1014 
# 6 polygons

#
# object Box040
#

v  25.791548 11.494419 25.618872
v  25.791548 11.494419 24.686209
v  22.421297 11.494419 25.618872
v  22.421297 11.494419 24.686209
v  25.791548 20.193541 25.618872
v  25.791548 20.193541 24.686209
v  22.421297 20.193541 25.618872
v  22.421297 20.193541 24.686209
# 8 vertices

vt 0.000000 0.000000 0.000000
vt 1.000000 0.000000 0.000000
vt 0.000000 1.000000 0.000000
vt 1.000000 1.000000 0.000000
vt 0.000000 0.000000 0.000000
vt 1.000000 0.000000 0.000000
vt 0.000000 1.000000 0.000000
vt 1.000000 1.000000 0.000000
vt 0.000000 0.000000 0.000000
vt 1.000000 0.000000 0.000000
vt 0.000000 1.000000 0.000000
vt 1.000000 1.000000 0.000000
# 12 texture coords

o Box040
g Box040
f 821/1033 823/1035 824/1034 822/1032 
f 825/1032 826/1033 828/1035 827/1034 
f 821/1028 822/1029 826/1031 825/1030 
f 822/1024 824/1025 828/1027 826/1026 
f 824/1028 823/1029 827/1031 828/1030 
f 823/1024 821/1025 825/1027 827/1026 
# 6 polygons

#
# object Box041
#

v  22.701738 11.488789 12.747770
v  38.087250 11.488789 12.747770
v  22.701738 11.488789 11.656290
v  38.087250 11.488789 11.656290
v  22.701738 19.997099 12.747770
v  38.087250 19.997099 12.747770
v  22.701738 19.997099 11.656290
v  38.087250 19.997099 11.656290
# 8 vertices

vt 1.000000 0.000000 0.000000
vt 0.000000 0.000000 0.000000
vt 1.000000 1.000000 0.000000
vt 0.000000 1.000000 0.000000
vt 0.000000 0.000000 0.000000
vt 1.000000 0.000000 0.000000
vt 0.000000 1.000000 0.000000
vt 1.000000 1.000000 0.000000
vt 0.000000 0.000000 0.000000
vt 1.000000 0.000000 0.000000
vt 0.000000 1.000000 0.000000
vt 1.000000 1.000000 0.000000
vt 0.000000 0.000000 0.000000
vt 1.000000 0.000000 0.000000
vt 0.000000 1.000000 0.000000
vt 1.000000 1.000000 0.000000
vt 0.000000 0.000000 0.000000
vt 1.000000 0.000000 0.000000
vt 0.000000 1.000000 0.000000
vt 1.000000 1.000000 0.000000
vt 0.000000 0.000000 0.000000
vt 1.000000 0.000000 0.000000
vt 0.000000 1.000000 0.000000
vt 1.000000 1.000000 0.000000
# 24 texture coords

o Box041
g Box041
f 829/1036 831/1038 832/1039 830/1037 
f 833/1040 834/1041 836/1043 835/1042 
f 829/1044 830/1045 834/1047 833/1046 
f 830/1048 832/1049 836/1051 834/1050 
f 832/1052 831/1053 835/1055 836/1054 
f 831/1056 829/1057 833/1059 835/1058 
# 6 polygons

