# 3ds Max Wavefront OBJ Exporter v0.97b - (c)2007 guruware
# File Created: 28.06.2021 14:45:45

mtllib map-obj-p1.mtl

#
# object Plane002
#

v  -0.004223 1.196831 94.013504
v  57.633904 1.196829 94.013489
v  70.273247 1.196829 94.013489
v  127.911377 1.196829 113.947334
v  -0.004223 1.196831 73.091507
v  57.633904 1.196830 73.091507
v  70.273247 1.196830 73.091507
v  127.911377 1.196831 73.091507
v  -0.004219 1.196831 50.644318
v  57.633904 1.196830 50.644318
v  70.273247 1.196830 50.644318
v  127.911369 1.196831 50.644318
v  -0.004219 1.196831 26.003988
v  57.633904 1.196830 26.003988
v  70.273247 1.196830 26.003988
v  127.911369 1.196831 26.003988
v  -0.004219 1.196830 -43.671295
v  57.633904 1.196830 -43.671295
v  70.273247 1.196830 -43.671295
v  127.911362 1.196830 -43.671295
v  -0.004223 0.005810 94.013504
v  57.633904 0.005812 94.013504
v  70.273247 0.005812 94.013504
v  127.911377 0.005810 113.947334
v  -0.004223 0.005810 73.091515
v  127.911377 0.005810 73.091515
v  -0.004219 0.005812 50.644318
v  127.911369 0.005812 50.644318
v  -0.004219 0.005813 26.003988
v  127.911369 0.005813 26.003988
v  -0.004219 0.005811 -43.671295
v  57.633904 0.005811 -43.671295
v  70.273247 0.005811 -43.671295
v  127.911362 0.005811 -43.671295
v  57.633904 0.005619 73.091515
v  70.273247 0.005619 73.091515
v  2.052910 1.196830 73.091507
v  2.052917 1.196829 94.013489
v  2.052910 1.196830 50.644318
v  2.052910 1.196830 26.003988
v  2.052910 1.196830 -43.671295
v  2.052917 0.005810 94.013504
v  2.052921 0.005811 -43.671295
v  125.854233 1.196830 73.091507
v  125.854233 1.196829 113.947327
v  125.854233 1.196830 50.644318
v  125.854233 1.196830 26.003988
v  125.854218 1.196830 -43.671295
v  125.854233 0.005810 113.947334
v  125.854218 0.005811 -43.671295
v  -0.004219 1.196830 -41.094429
v  57.633904 1.196830 -41.094429
v  70.273247 1.196830 -41.094429
v  127.911362 1.196830 -41.094429
v  -0.004219 0.005811 -41.094429
v  127.911362 0.005811 -41.094429
v  2.052910 1.196830 -41.094429
v  125.854218 1.196830 -41.094429
v  -0.004219 1.196828 92.271271
v  57.633904 1.196828 92.271271
v  71.813454 1.196828 92.271271
v  127.911362 1.196828 112.205109
v  -0.004219 0.005812 92.271286
v  127.911362 0.005812 112.205116
v  57.633904 0.005784 92.271286
v  71.813454 0.005784 92.271286
v  2.052917 1.196828 92.271263
v  125.854233 1.196828 112.205093
v  -0.004219 55.133411 73.091507
v  -0.004219 55.133411 92.271271
v  -0.004219 55.133419 94.013489
v  2.052921 55.133419 94.013489
v  57.633904 55.133419 94.013489
v  57.633904 55.133411 92.271271
v  2.052921 55.133411 92.271263
v  2.052910 55.133411 73.091499
v  2.052910 55.133411 50.644314
v  2.052910 55.133415 26.003988
v  2.052910 55.133404 -41.094429
v  57.633904 55.133411 -41.094429
v  70.273247 55.133411 -41.094429
v  125.854218 55.133404 -41.094429
v  125.854233 55.133415 26.003988
v  125.854233 55.133411 50.644314
v  125.854233 55.133411 73.091499
v  125.854233 55.133415 112.205093
v  71.813454 55.133411 92.271271
v  70.273247 55.133419 94.013489
v  125.854233 55.133419 113.947327
v  127.911362 55.133419 113.947327
v  127.911362 55.133415 112.205109
v  127.911369 55.133411 73.091507
v  127.911369 55.133411 50.644314
v  127.911369 55.133415 26.003988
v  127.911362 55.133404 -41.094429
v  127.911362 55.133404 -43.671295
v  125.854218 55.133404 -43.671295
v  70.273247 55.133411 -43.671295
v  57.633904 55.133411 -43.671295
v  2.052910 55.133404 -43.671295
v  -0.004219 55.133404 -43.671295
v  -0.004219 55.133404 -41.094429
v  -0.004219 55.133415 26.003988
v  -0.004219 55.133411 50.644314
v  32.277855 1.196831 73.091507
v  70.302429 1.196829 113.947334
v  32.277855 1.196831 50.644318
v  32.277855 1.196831 26.003988
v  32.277866 1.196830 -43.671295
v  70.302429 0.005810 113.947334
v  32.277866 0.005811 -43.671295
v  32.277863 1.196831 94.013489
v  32.277863 0.005812 94.013504
v  100.082207 1.196831 73.091507
v  100.082207 1.196831 50.644318
v  100.082207 1.196831 26.003988
v  100.082199 1.196830 -43.671295
v  100.082199 0.005811 -43.671295
v  100.082199 1.196830 -41.094429
v  32.277866 1.196830 -41.094429
v  71.842628 1.196828 112.205109
v  32.277863 1.196828 92.271271
v  32.277863 55.133419 94.013489
v  32.277863 55.133415 92.271271
v  32.277866 55.133404 -41.094429
v  100.082199 55.133404 -41.094429
v  71.842628 55.133419 112.205109
v  70.302422 55.133419 113.947327
v  100.082199 55.133404 -43.671295
v  32.277866 55.133404 -43.671295
v  -0.004219 24.066191 73.091507
v  -0.004219 24.066191 92.271271
v  -0.004219 24.066189 94.013504
v  2.052917 24.066191 94.013489
v  57.633904 24.066189 94.013489
v  57.633904 24.066191 92.271271
v  2.052917 24.066191 92.271263
v  2.052910 24.066191 73.091507
v  2.052910 24.066191 50.644314
v  2.052910 24.066191 26.003988
v  2.052910 24.066187 -41.094429
v  57.633904 24.066191 -41.094429
v  70.273247 24.066191 -41.094429
v  125.854218 24.066187 -41.094429
v  125.854233 24.066191 26.003988
v  125.854233 24.066191 50.644314
v  125.854233 24.066191 73.091507
v  125.854233 24.066191 112.205093
v  71.813454 24.066191 92.271271
v  70.273247 24.066189 94.013489
v  125.854233 24.066191 113.947327
v  127.911362 24.066189 113.947334
v  127.911362 24.066191 112.205109
v  127.911369 24.066191 73.091507
v  127.911369 24.066189 50.644314
v  127.911369 24.066191 26.003988
v  127.911362 24.066187 -41.094429
v  127.911362 24.066187 -43.671295
v  125.854218 24.066187 -43.671295
v  70.273247 24.066191 -43.671295
v  57.633904 24.066191 -43.671295
v  2.052910 24.066187 -43.671295
v  -0.004219 24.066187 -43.671295
v  -0.004219 24.066187 -41.094429
v  -0.004219 24.066191 26.003988
v  -0.004219 24.066189 50.644314
v  32.277863 24.066191 94.013489
v  32.277863 24.066191 92.271271
v  32.277866 24.066187 -41.094429
v  100.082199 24.066187 -41.094429
v  71.842628 24.066191 112.205109
v  70.302422 24.066189 113.947334
v  100.082199 24.066187 -43.671295
v  32.277866 24.066187 -43.671295
v  2.052921 0.005811 -41.094429
v  32.277866 0.005811 -41.094429
v  57.633904 0.005806 -41.094429
v  70.273247 0.005806 -41.094429
v  100.082199 0.005811 -41.094429
v  125.854218 0.005811 -41.094429
v  125.854233 0.005814 26.003988
v  100.082207 0.005813 26.003986
v  70.273247 0.005744 26.003988
v  57.633904 0.005744 26.003988
v  32.277855 0.005813 26.003988
v  2.052917 0.005814 26.003988
v  125.854233 0.005811 50.644318
v  100.082207 0.005812 50.644318
v  70.273247 0.005679 50.644329
v  57.633904 0.005679 50.644329
v  32.277855 0.005812 50.644318
v  2.052917 0.005811 50.644318
v  2.052917 0.005811 73.091507
v  32.277855 0.005811 73.091476
v  100.082207 0.005810 73.091484
v  125.854233 0.005811 73.091507
v  2.052917 0.005810 92.271271
v  32.277863 0.005807 92.271271
v  71.842628 0.005810 112.205116
v  125.854233 0.005810 112.205109
v  -0.004219 0.368288 94.013504
v  57.633904 0.368288 94.013489
v  70.273247 0.368288 94.013489
v  127.911362 0.368286 113.947334
v  -0.004219 0.368288 73.091507
v  127.911369 0.368288 73.091507
v  -0.004219 0.368289 50.644318
v  127.911369 0.368289 50.644318
v  -0.004219 0.368289 26.003988
v  127.911369 0.368289 26.003988
v  -0.004219 0.368290 -43.671288
v  57.633904 0.368290 -43.671288
v  70.273247 0.368290 -43.671288
v  127.911362 0.368290 -43.671288
v  57.633904 0.368192 73.091507
v  70.273247 0.368192 73.091507
v  2.052921 0.368288 94.013489
v  2.052921 0.368290 -43.671288
v  125.854233 0.368286 113.947327
v  125.854218 0.368290 -43.671288
v  -0.004219 0.368290 -41.094429
v  127.911362 0.368290 -41.094429
v  -0.004219 0.368288 92.271271
v  127.911362 0.368286 112.205109
v  57.633904 0.368275 92.271271
v  71.813454 0.368275 92.271271
v  32.277863 0.368288 94.013504
v  100.082199 0.368290 -43.671288
v  32.277866 0.368292 -43.671288
v  70.302422 0.368286 113.947334
v  57.633904 1.196830 7.630226
v  70.273247 1.196830 7.630226
v  127.911362 1.196831 7.630226
v  127.911362 0.005812 7.630226
v  2.052917 1.196830 7.630226
v  125.854233 1.196830 7.630226
v  -0.004211 1.196831 7.630226
v  -0.004211 0.005812 7.630226
v  2.052917 55.133411 7.630226
v  125.854233 55.133411 7.630226
v  127.911362 55.133411 7.630226
v  -0.004211 55.133411 7.630226
v  32.277863 1.196831 7.630226
v  100.082199 1.196831 7.630226
v  2.052917 24.066191 7.630226
v  125.854233 24.066191 7.630226
v  127.911362 24.066191 7.630226
v  -0.004211 24.066191 7.630226
v  2.052921 0.005813 7.630226
v  32.277863 0.005812 7.630226
v  57.633904 0.005775 7.630226
v  70.273247 0.005775 7.630226
v  100.082199 0.005812 7.630226
v  125.854233 0.005813 7.630226
v  -0.004211 0.368290 7.630226
v  127.911362 0.368290 7.630226
# 256 vertices

vt 0.000000 0.000000 0.000000
vt 0.250000 0.000000 0.000000
vt 0.750000 0.000000 0.000000
vt 1.000000 0.000000 0.000000
vt 0.000000 0.250000 0.000000
vt 0.250000 0.250000 0.000000
vt 0.750000 0.250000 0.000000
vt 1.000000 0.250000 0.000000
vt 0.000000 0.500000 0.000000
vt 0.250000 0.500000 0.000000
vt 0.750000 0.500000 0.000000
vt 1.000000 0.500000 0.000000
vt 0.000000 0.750000 0.000000
vt 0.250000 0.750000 0.000000
vt 0.750000 0.750000 0.000000
vt 1.000000 0.750000 0.000000
vt 0.000000 1.000000 0.000000
vt 0.250000 1.000000 0.000000
vt 0.750000 1.000000 0.000000
vt 1.000000 1.000000 0.000000
vt 0.000000 0.250000 0.000000
vt 0.000000 0.000000 0.000000
vt 0.250000 0.000000 0.000000
vt 0.750000 0.000000 0.000000
vt 1.000000 0.000000 0.000000
vt 1.000000 0.250000 0.000000
vt 0.000000 0.500000 0.000000
vt 1.000000 0.500000 0.000000
vt 0.000000 0.750000 0.000000
vt 1.000000 0.750000 0.000000
vt 0.000000 1.000000 0.000000
vt 0.250000 1.000000 0.000000
vt 0.750000 1.000000 0.000000
vt 1.000000 1.000000 0.000000
vt 0.250000 0.250000 0.000000
vt 0.750000 0.250000 0.000000
vt 0.012500 0.250000 0.000000
vt 0.012500 0.000000 0.000000
vt 0.012500 0.500000 0.000000
vt 0.012500 0.750000 0.000000
vt 0.012500 1.000000 0.000000
vt 0.012500 0.000000 0.000000
vt 0.012500 1.000000 0.000000
vt 0.987500 0.250000 0.000000
vt 0.987500 0.000000 0.000000
vt 0.987500 0.500000 0.000000
vt 0.987500 0.750000 0.000000
vt 0.987500 1.000000 0.000000
vt 0.987500 0.000000 0.000000
vt 0.987500 1.000000 0.000000
vt 0.000000 0.981250 0.000000
vt 0.250000 0.981250 0.000000
vt 0.750000 0.981250 0.000000
vt 1.000000 0.981250 0.000000
vt 0.000000 0.981250 0.000000
vt 1.000000 0.981250 0.000000
vt 0.012500 0.981250 0.000000
vt 0.987500 0.981250 0.000000
vt 0.000000 0.031250 0.000000
vt 0.250000 0.031250 0.000000
vt 0.750000 0.031250 0.000000
vt 1.000000 0.031250 0.000000
vt 0.000000 0.031250 0.000000
vt 1.000000 0.031250 0.000000
vt 0.031250 0.031250 0.000000
vt 0.312500 0.031250 0.000000
vt 0.012500 0.031250 0.000000
vt 0.987500 0.031250 0.000000
vt 0.000000 0.250000 0.000000
vt 0.000000 0.031250 0.000000
vt 0.000000 0.000000 0.000000
vt 0.012500 0.000000 0.000000
vt 0.250000 0.000000 0.000000
vt 0.250000 0.031250 0.000000
vt 0.012500 0.031250 0.000000
vt 0.012500 0.250000 0.000000
vt 0.012500 0.500000 0.000000
vt 0.012500 0.750000 0.000000
vt 0.012500 0.981250 0.000000
vt 0.250000 0.981250 0.000000
vt 0.750000 0.981250 0.000000
vt 0.987500 0.981250 0.000000
vt 0.987500 0.750000 0.000000
vt 0.987500 0.500000 0.000000
vt 0.987500 0.250000 0.000000
vt 0.987500 0.031250 0.000000
vt 0.750000 0.031250 0.000000
vt 0.750000 0.000000 0.000000
vt 0.987500 0.000000 0.000000
vt 1.000000 0.000000 0.000000
vt 1.000000 0.031250 0.000000
vt 1.000000 0.250000 0.000000
vt 1.000000 0.500000 0.000000
vt 1.000000 0.750000 0.000000
vt 1.000000 0.981250 0.000000
vt 1.000000 1.000000 0.000000
vt 0.987500 1.000000 0.000000
vt 0.750000 1.000000 0.000000
vt 0.250000 1.000000 0.000000
vt 0.012500 1.000000 0.000000
vt 0.000000 1.000000 0.000000
vt 0.000000 0.981250 0.000000
vt 0.000000 0.750000 0.000000
vt 0.000000 0.500000 0.000000
vt 0.131250 0.250000 0.000000
vt 0.868750 0.000000 0.000000
vt 0.131250 0.500000 0.000000
vt 0.131250 0.750000 0.000000
vt 0.131250 1.000000 0.000000
vt 0.868750 0.000000 0.000000
vt 0.131250 1.000000 0.000000
vt 0.131250 0.000000 0.000000
vt 0.131250 0.000000 0.000000
vt 0.868750 0.250000 0.000000
vt 0.868750 0.500000 0.000000
vt 0.868750 0.750000 0.000000
vt 0.868750 1.000000 0.000000
vt 0.868750 1.000000 0.000000
vt 0.868750 0.981250 0.000000
vt 0.131250 0.981250 0.000000
vt 0.868750 0.031250 0.000000
vt 0.131250 0.031250 0.000000
vt 0.131250 0.000000 0.000000
vt 0.131250 0.031250 0.000000
vt 0.131250 0.981250 0.000000
vt 0.868750 0.981250 0.000000
vt 0.868750 0.031250 0.000000
vt 0.868750 0.000000 0.000000
vt 0.868750 1.000000 0.000000
vt 0.131250 1.000000 0.000000
vt 0.000000 0.250000 0.000000
vt 0.000000 0.031250 0.000000
vt 0.000000 0.000000 0.000000
vt 0.012500 0.000000 0.000000
vt 0.250000 0.000000 0.000000
vt 0.250000 0.031250 0.000000
vt 0.012500 0.031250 0.000000
vt 0.012500 0.250000 0.000000
vt 0.012500 0.500000 0.000000
vt 0.012500 0.750000 0.000000
vt 0.012500 0.981250 0.000000
vt 0.250000 0.981250 0.000000
vt 0.750000 0.981250 0.000000
vt 0.987500 0.981250 0.000000
vt 0.987500 0.750000 0.000000
vt 0.987500 0.500000 0.000000
vt 0.987500 0.250000 0.000000
vt 0.987500 0.031250 0.000000
vt 0.750000 0.031250 0.000000
vt 0.750000 0.000000 0.000000
vt 0.987500 0.000000 0.000000
vt 1.000000 0.000000 0.000000
vt 1.000000 0.031250 0.000000
vt 1.000000 0.250000 0.000000
vt 1.000000 0.500000 0.000000
vt 1.000000 0.750000 0.000000
vt 1.000000 0.981250 0.000000
vt 1.000000 1.000000 0.000000
vt 0.987500 1.000000 0.000000
vt 0.750000 1.000000 0.000000
vt 0.250000 1.000000 0.000000
vt 0.012500 1.000000 0.000000
vt 0.000000 1.000000 0.000000
vt 0.000000 0.981250 0.000000
vt 0.000000 0.750000 0.000000
vt 0.000000 0.500000 0.000000
vt 0.131250 0.000000 0.000000
vt 0.131250 0.031250 0.000000
vt 0.131250 0.981250 0.000000
vt 0.868750 0.981250 0.000000
vt 0.868750 0.031250 0.000000
vt 0.868750 0.000000 0.000000
vt 0.868750 1.000000 0.000000
vt 0.131250 1.000000 0.000000
vt 0.012500 0.970833 0.000000
vt 0.131250 0.970833 0.000000
vt 0.250000 0.973767 0.000000
vt 0.750000 0.973767 0.000000
vt 0.868750 0.970833 0.000000
vt 0.987500 0.970833 0.000000
vt 0.987500 0.703358 0.000000
vt 0.868750 0.703358 0.000000
vt 0.750000 0.733195 0.000000
vt 0.250000 0.733195 0.000000
vt 0.131250 0.703358 0.000000
vt 0.012500 0.703358 0.000000
vt 0.987500 0.422231 0.000000
vt 0.868750 0.422231 0.000000
vt 0.750000 0.480345 0.000000
vt 0.250000 0.480345 0.000000
vt 0.131250 0.422231 0.000000
vt 0.012500 0.422231 0.000000
vt 0.012500 0.166126 0.000000
vt 0.131250 0.166126 0.000000
vt 0.868750 0.166126 0.000000
vt 0.987500 0.166126 0.000000
vt 0.012500 0.023862 0.000000
vt 0.131250 0.023862 0.000000
vt 0.868750 0.023862 0.000000
vt 0.987500 0.023862 0.000000
vt 0.000000 0.000000 0.000000
vt 0.250000 0.000000 0.000000
vt 0.125000 0.000000 0.000000
vt 0.750000 0.000000 0.000000
vt 0.500000 0.000000 0.000000
vt 1.000000 0.000000 0.000000
vt 0.000000 0.250000 0.000000
vt 1.000000 0.250000 0.000000
vt 0.000000 0.500000 0.000000
vt 1.000000 0.500000 0.000000
vt 0.000000 0.750000 0.000000
vt 1.000000 0.750000 0.000000
vt 0.000000 1.000000 0.000000
vt 0.250000 1.000000 0.000000
vt 0.750000 1.000000 0.000000
vt 1.000000 1.000000 0.000000
vt 0.250000 0.250000 0.000000
vt 0.750000 0.250000 0.000000
vt 0.012500 0.000000 0.000000
vt 0.012500 1.000000 0.000000
vt 0.987500 0.000000 0.000000
vt 0.987500 1.000000 0.000000
vt 0.000000 0.981250 0.000000
vt 1.000000 0.981250 0.000000
vt 0.000000 0.031250 0.000000
vt 1.000000 0.031250 0.000000
vt 0.140625 0.031250 0.000000
vt 0.531250 0.031250 0.000000
vt 0.131250 0.000000 0.000000
vt 0.868750 1.000000 0.000000
vt 0.131250 1.000000 0.000000
vt 0.868750 0.000000 0.000000
vt 0.250000 0.865625 0.000000
vt 0.750000 0.865625 0.000000
vt 1.000000 0.865625 0.000000
vt 1.000000 0.865625 0.000000
vt 0.012500 0.865625 0.000000
vt 0.987500 0.865625 0.000000
vt 0.000000 0.865625 0.000000
vt 0.000000 0.865625 0.000000
vt 0.012500 0.865625 0.000000
vt 0.987500 0.865625 0.000000
vt 1.000000 0.865625 0.000000
vt 0.000000 0.865625 0.000000
vt 0.131250 0.865625 0.000000
vt 0.868750 0.865625 0.000000
vt 0.012500 0.865625 0.000000
vt 0.987500 0.865625 0.000000
vt 1.000000 0.865625 0.000000
vt 0.000000 0.865625 0.000000
vt 0.012500 0.837096 0.000000
vt 0.131250 0.837096 0.000000
vt 0.250000 0.853481 0.000000
vt 0.750000 0.853481 0.000000
vt 0.868750 0.837096 0.000000
vt 0.987500 0.837096 0.000000
vt 0.000000 0.865625 0.000000
vt 1.000000 0.865625 0.000000
# 258 texture coords

o Plane002
g Plane002
usemtl Material__25
f 69/69 70/70 75/75 76/76 
f 7/7 61/61 121/121 114/114 
f 104/104 69/69 76/76 77/77 
f 10/10 6/6 7/7 11/11 
f 11/11 7/7 114/114 115/115 
f 103/103 104/104 77/77 78/78 
f 14/14 10/10 11/11 15/15 
f 15/15 11/11 115/115 116/116 
f 101/101 102/102 79/79 100/100 
f 99/99 80/80 81/81 98/98 
f 98/98 81/81 126/126 129/129 
f 1/1 59/59 223/225 201/201 
f 2/2 112/112 227/229 202/202 
f 8/8 62/62 224/226 206/208 
f 4/4 45/45 219/221 204/206 
f 5/5 9/9 207/209 205/207 
f 12/12 8/8 206/208 208/210 
f 9/9 13/13 209/211 207/209 
f 16/16 12/12 208/210 210/212 
f 13/13 237/239 255/257 209/211 
f 17/17 41/41 218/220 211/213 
f 18/18 19/19 213/215 212/214 
f 19/19 117/117 228/230 213/215 
f 20/20 54/54 222/224 214/216 
f 7/7 6/6 215/217 216/218 
f 7/7 216/218 226/228 61/61 
f 72/72 123/123 124/124 75/75 
f 37/37 105/105 107/107 39/39 
f 39/39 107/107 108/108 40/40 
f 40/40 108/108 243/245 235/237 
f 38/38 1/1 201/201 217/219 
f 41/41 109/109 229/231 218/220 
f 89/89 90/90 91/91 86/86 
f 85/85 92/92 93/93 84/84 
f 84/84 93/93 94/94 83/83 
f 83/83 94/94 241/243 240/242 
f 45/45 106/106 230/232 219/221 
f 48/48 20/20 214/216 220/222 
f 102/102 242/244 239/241 79/79 
f 52/52 231/233 232/234 53/53 
f 53/53 232/234 244/246 119/119 
f 51/51 17/17 211/213 221/223 
f 54/54 233/235 256/258 222/224 
f 80/80 99/99 130/130 125/125 
f 95/95 96/96 97/97 82/82 
f 70/70 71/71 72/72 75/75 
f 87/87 88/88 128/128 127/127 
f 59/59 5/5 205/207 223/225 
f 62/62 4/4 204/206 224/226 
f 60/60 2/2 202/203 225/227 
f 60/60 6/6 105/105 122/122 
f 91/91 92/92 85/85 86/86 
f 5/5 59/59 132/132 131/131 
f 59/59 1/1 133/133 132/132 
f 1/1 38/38 134/134 133/133 
f 38/38 112/112 167/167 134/134 
f 2/2 60/60 136/136 135/135 
f 60/60 122/122 168/168 136/136 
f 67/67 37/37 138/138 137/137 
f 37/37 39/39 139/139 138/138 
f 39/39 40/40 140/140 139/139 
f 40/40 235/237 245/247 140/140 
f 57/57 120/120 169/169 141/141 
f 52/52 53/53 143/143 142/142 
f 53/53 119/119 170/170 143/143 
f 58/58 236/238 246/248 144/144 
f 47/47 46/46 146/146 145/145 
f 46/46 44/44 147/147 146/146 
f 44/44 68/68 148/148 147/147 
f 68/68 121/121 171/171 148/148 
f 61/61 3/3 150/150 149/149 
f 3/3 106/106 172/172 150/150 
f 45/45 4/4 152/152 151/151 
f 4/4 62/62 153/153 152/152 
f 62/62 8/8 154/154 153/153 
f 8/8 12/12 155/155 154/154 
f 12/12 16/16 156/156 155/155 
f 16/16 233/235 247/249 156/156 
f 54/54 20/20 158/158 157/157 
f 20/20 48/48 159/159 158/158 
f 48/48 117/117 173/173 159/159 
f 19/19 18/18 161/161 160/160 
f 18/18 109/109 174/174 161/161 
f 41/41 17/17 163/163 162/162 
f 17/17 51/51 164/164 163/163 
f 51/51 237/239 248/250 164/164 
f 13/13 9/9 166/166 165/165 
f 9/9 5/5 131/131 166/166 
f 121/121 68/68 44/44 114/114 
f 114/114 44/44 46/46 115/115 
f 115/115 46/46 47/47 116/116 
f 126/126 82/82 97/97 129/129 
f 112/112 38/38 217/219 227/229 
f 117/117 48/48 220/222 228/230 
f 123/123 73/73 74/74 124/124 
f 105/105 6/6 10/10 107/107 
f 107/107 10/10 14/14 108/108 
f 108/108 14/14 231/233 243/245 
f 109/109 18/18 212/214 229/231 
f 106/106 3/3 203/204 230/232 
f 116/116 47/47 236/238 244/246 
f 130/130 100/100 79/79 125/125 
f 128/128 89/89 86/86 127/127 
f 105/105 37/37 67/67 122/122 
f 112/112 2/2 135/135 167/167 
f 122/122 67/67 137/137 168/168 
f 120/120 52/52 142/142 169/169 
f 119/119 58/58 144/144 170/170 
f 121/121 61/61 149/149 171/171 
f 106/106 45/45 151/151 172/172 
f 117/117 19/19 160/160 173/173 
f 109/109 41/41 162/162 174/174 
f 132/132 70/70 69/69 131/131 
f 133/133 71/71 70/70 132/132 
f 134/134 72/72 71/71 133/133 
f 167/167 123/123 72/72 134/134 
f 168/168 124/124 74/74 136/136 
f 138/138 76/76 75/75 137/137 
f 139/139 77/77 76/76 138/138 
f 140/140 78/78 77/77 139/139 
f 141/141 79/79 239/241 245/247 
f 169/169 125/125 79/79 141/141 
f 143/143 81/81 80/80 142/142 
f 170/170 126/126 81/81 143/143 
f 145/145 83/83 240/242 246/248 
f 146/146 84/84 83/83 145/145 
f 147/147 85/85 84/84 146/146 
f 148/148 86/86 85/85 147/147 
f 171/171 127/127 86/86 148/148 
f 172/172 128/128 88/88 150/150 
f 152/152 90/90 89/89 151/151 
f 153/153 91/91 90/90 152/152 
f 154/154 92/92 91/91 153/153 
f 155/155 93/93 92/92 154/154 
f 156/156 94/94 93/93 155/155 
f 157/157 95/95 241/243 247/249 
f 158/158 96/96 95/95 157/157 
f 159/159 97/97 96/96 158/158 
f 173/173 129/129 97/97 159/159 
f 161/161 99/99 98/98 160/160 
f 174/174 130/130 99/99 161/161 
f 163/163 101/101 100/100 162/162 
f 164/164 102/102 101/101 163/163 
f 165/165 103/103 242/244 248/250 
f 166/166 104/104 103/103 165/165 
f 131/131 69/69 104/104 166/166 
f 135/135 73/73 123/123 167/167 
f 137/137 75/75 124/124 168/168 
f 142/142 80/80 125/125 169/169 
f 144/144 82/82 126/126 170/170 
f 149/149 87/87 127/127 171/171 
f 151/151 89/89 128/128 172/172 
f 160/160 98/98 129/129 173/173 
f 162/162 100/100 130/130 174/174 
f 74/74 73/73 88/88 87/87 
f 73/73 135/135 150/150 88/88 
f 135/135 136/136 149/149 150/150 
f 136/136 74/74 87/87 149/149 
f 29/29 238/240 249/251 186/186 
f 177/177 251/253 250/252 176/176 
f 180/180 254/256 253/255 179/179 
f 178/178 252/254 251/253 177/177 
f 179/179 253/255 252/254 178/178 
f 56/56 234/236 254/256 180/180 
f 176/176 250/252 249/251 175/175 
f 55/55 31/31 43/43 175/175 
f 175/175 43/43 111/111 176/176 
f 176/176 111/111 32/32 177/177 
f 177/177 32/32 33/33 178/178 
f 178/178 33/33 118/118 179/179 
f 179/179 118/118 50/50 180/180 
f 180/180 50/50 34/34 56/56 
f 30/30 28/28 187/187 181/181 
f 181/181 187/187 188/188 182/182 
f 182/182 188/188 189/189 183/183 
f 183/183 189/189 190/190 184/184 
f 184/184 190/190 191/191 185/185 
f 185/185 191/191 192/192 186/186 
f 186/186 192/192 27/27 29/29 
f 64/64 24/25 49/49 200/200 
f 200/200 49/49 110/110 199/199 
f 199/199 110/110 23/24 66/66 
f 189/189 36/36 35/35 190/190 
f 65/65 22/22 113/113 198/198 
f 198/198 113/113 42/42 197/197 
f 197/197 42/42 21/22 63/63 
f 25/21 27/27 192/192 193/193 
f 193/193 192/192 191/191 194/194 
f 194/194 191/191 190/190 35/35 
f 36/36 189/189 188/188 195/195 
f 195/195 188/188 187/187 196/196 
f 196/196 187/187 28/28 26/26 
f 63/63 25/21 193/193 197/197 
f 197/197 193/193 194/194 198/198 
f 198/198 194/194 35/35 65/65 
f 66/66 36/36 195/195 199/199 
f 199/199 195/195 196/196 200/200 
f 200/200 196/196 26/26 64/64 
f 223/225 63/63 21/22 201/201 
f 227/229 113/113 22/23 202/202 
f 224/226 64/64 26/26 206/208 
f 219/221 49/49 24/25 204/206 
f 207/209 27/27 25/21 205/207 
f 206/208 26/26 28/28 208/210 
f 209/211 29/29 27/27 207/209 
f 208/210 28/28 30/30 210/212 
f 221/223 55/55 238/240 255/257 
f 218/220 43/43 31/31 211/213 
f 213/215 33/33 32/32 212/214 
f 228/230 118/118 33/33 213/215 
f 222/224 56/56 34/34 214/216 
f 215/217 35/35 36/36 216/218 
f 215/217 6/6 60/60 225/227 
f 201/201 21/22 42/42 217/219 
f 229/231 111/111 43/43 218/220 
f 230/232 110/110 49/49 219/221 
f 214/216 34/34 50/50 220/222 
f 211/213 31/31 55/55 221/223 
f 210/212 30/30 234/236 256/258 
f 205/207 25/21 63/63 223/225 
f 204/206 24/25 64/64 224/226 
f 203/205 3/3 61/61 226/228 
f 217/219 42/42 113/113 227/229 
f 220/222 50/50 118/118 228/230 
f 212/214 32/32 111/111 229/231 
f 203/204 23/24 110/110 230/232 
f 35/35 215/217 216/218 36/36 
f 215/217 225/227 226/228 216/218 
f 225/227 202/203 203/205 226/228 
f 202/202 22/23 23/24 203/204 
f 22/22 65/65 66/66 23/24 
f 65/65 35/35 36/36 66/66 
f 237/239 51/51 221/223 255/257 
f 243/245 120/120 57/57 235/237 
f 241/243 95/95 82/82 240/242 
f 242/244 103/103 78/78 239/241 
f 231/233 14/14 15/15 232/234 
f 232/234 15/15 116/116 244/246 
f 233/235 16/16 210/212 256/258 
f 235/237 57/57 141/141 245/247 
f 236/238 47/47 145/145 246/248 
f 233/235 54/54 157/157 247/249 
f 237/239 13/13 165/165 248/250 
f 231/233 52/52 120/120 243/245 
f 236/238 58/58 119/119 244/246 
f 239/241 78/78 140/140 245/247 
f 240/242 82/82 144/144 246/248 
f 241/243 94/94 156/156 247/249 
f 242/244 102/102 164/164 248/250 
f 238/240 55/55 175/175 249/251 
f 251/253 184/184 185/185 250/252 
f 254/256 181/181 182/182 253/255 
f 252/254 183/183 184/184 251/253 
f 253/255 182/182 183/183 252/254 
f 234/236 30/30 181/181 254/256 
f 250/252 185/185 186/186 249/251 
f 238/240 29/29 209/211 255/257 
f 234/236 56/56 222/224 256/258 
# 258 polygons

#
# object Box003
#

v  57.640877 0.376922 93.814743
v  70.251564 0.376922 93.814743
v  57.640877 0.376923 93.414032
v  70.251564 0.376923 93.414032
v  57.640877 23.978798 93.814743
v  70.251564 23.978798 93.814743
v  57.640877 23.978798 93.414032
v  70.251564 23.978798 93.414032
# 8 vertices

vt 1.000000 0.000000 0.000000
vt 0.000000 0.000000 0.000000
vt 1.000000 1.000000 0.000000
vt 0.000000 1.000000 0.000000
vt 0.000000 0.000000 0.000000
vt 1.000000 0.000000 0.000000
vt 0.000000 1.000000 0.000000
vt 1.000000 1.000000 0.000000
vt 0.000000 0.000000 0.000000
vt 1.000000 0.000000 0.000000
vt 0.000000 1.000000 0.000000
vt 1.000000 1.000000 0.000000
vt 0.000000 0.000000 0.000000
vt 1.000000 0.000000 0.000000
vt 0.000000 1.000000 0.000000
vt 1.000000 1.000000 0.000000
vt 0.000000 0.000000 0.000000
vt 1.000000 0.000000 0.000000
vt 0.000000 1.000000 0.000000
vt 1.000000 1.000000 0.000000
vt 0.000000 0.000000 0.000000
vt 1.000000 0.000000 0.000000
vt 0.000000 1.000000 0.000000
vt 1.000000 1.000000 0.000000
# 24 texture coords

o Box003
g Box003
usemtl wire_166229229
f 257/259 259/261 260/262 258/260 
f 261/263 262/264 264/266 263/265 
f 257/267 258/268 262/270 261/269 
f 258/271 260/272 264/274 262/273 
f 260/275 259/276 263/278 264/277 
f 259/279 257/280 261/282 263/281 
# 6 polygons

#
# object UTypeStair001
#

v  47.292469 27.013908 63.148346
v  47.313705 27.013908 78.232292
v  40.643768 27.013908 63.161285
v  40.665001 27.013908 78.245224
v  40.643776 24.658421 63.161285
v  40.665005 24.658421 78.245224
v  33.995071 24.658421 63.174221
v  34.016304 24.658421 78.258163
v  33.995071 22.302929 63.174225
v  34.016304 22.302929 78.258163
v  27.346371 22.302929 63.187157
v  27.367599 22.302929 78.271103
v  27.346371 19.947439 63.187157
v  27.367599 19.947439 78.271103
v  20.697662 19.947439 63.200092
v  20.718895 19.947439 78.284042
v  20.697662 17.591948 63.200092
v  20.718895 17.591948 78.284042
v  14.048969 17.591948 63.213028
v  14.070190 17.591948 78.296974
v  14.048969 1.103516 63.213028
v  14.070190 1.103516 78.296974
v  47.292469 1.103516 63.148346
v  47.313705 1.103516 78.232292
v  14.095909 16.236458 93.559410
v  14.094410 16.236458 92.559418
v  14.073177 16.236458 79.316109
v  14.071682 16.236458 78.316109
v  47.339420 4.459006 93.494736
v  47.337925 4.459006 92.494736
v  47.316696 4.459006 79.251427
v  47.315201 4.459006 78.251434
v  47.339420 1.103516 93.494736
v  47.337925 1.103516 92.494736
v  47.316696 1.103516 79.251427
v  47.315201 1.103516 78.251434
v  39.852196 1.103516 79.265953
v  39.850700 1.103516 78.265953
v  14.095909 1.107789 93.559410
v  14.094410 1.107789 92.559418
v  14.073177 10.236458 79.316109
v  14.071682 10.236458 78.316109
v  47.313705 30.369400 77.251427
v  47.315197 30.369400 78.251427
v  14.047466 18.591948 63.153374
v  14.048962 18.591948 64.153374
v  14.070187 18.591948 77.316109
v  14.071682 18.591948 78.316109
v  14.047466 15.236458 63.153374
v  14.048962 15.236458 64.153374
v  14.070187 15.236458 77.316109
v  14.071682 15.236458 78.316109
v  21.511967 15.236458 63.138855
v  21.513462 15.236458 64.138855
v  21.534691 15.236458 77.301590
v  21.536186 15.236458 78.301582
v  47.313705 24.369400 77.251427
v  47.315197 24.369400 78.251427
v  14.094421 12.880967 92.594841
v  14.073177 12.880967 79.316109
v  20.743122 12.880967 92.581902
v  20.721882 12.880967 79.303169
v  20.743122 10.525477 92.581902
v  20.721878 10.525477 79.303169
v  27.391823 10.525477 92.568970
v  27.370583 10.525477 79.290237
v  27.391825 8.169987 92.568970
v  27.370584 8.169987 79.290237
v  34.040527 8.169987 92.556030
v  34.019287 8.169987 79.277298
v  34.040527 5.814497 92.556030
v  34.019287 5.814497 79.277298
v  40.689224 5.814497 92.543098
v  40.667992 5.814497 79.264366
v  40.689224 3.459006 92.543098
v  40.667992 3.459006 79.264366
v  47.337925 3.459006 92.530159
v  47.316696 3.459006 79.251427
v  47.337929 1.103516 92.530159
v  47.316696 1.103516 79.251427
v  14.094421 1.103516 92.594841
v  14.073177 1.103516 79.316109
v  14.094410 1.103516 93.517807
v  14.048965 1.103516 63.234283
v  1.644413 1.103516 93.542023
v  1.598965 1.103516 63.258507
v  14.094410 15.236458 93.517807
v  14.048965 15.236458 63.234283
v  1.644413 15.236458 93.542023
v  1.598965 15.236458 63.258507
v  20.885109 21.006325 77.302849
v  20.886604 21.006325 78.302849
v  20.862389 21.006325 63.140118
v  20.863884 21.006325 64.140114
v  40.501774 6.873384 79.264687
v  40.500278 6.873384 78.264687
v  37.778183 26.998693 64.107208
v  38.010536 21.081541 63.106750
v  38.012028 21.081541 64.106750
v  37.776688 26.998693 63.107208
v  40.903244 26.998693 64.107208
v  41.135597 21.081541 63.106758
v  41.137093 21.081541 64.106750
v  40.901749 26.998693 63.107208
# 104 vertices

o UTypeStair001
g UTypeStair001
usemtl Material__25
f 281 279 277 275 273 271 269 267 265 287 285 283 
f 286 288 266 268 270 272 274 276 278 280 282 284 
f 265 267 268 266 
f 267 269 270 268 
f 269 271 272 270 
f 271 273 274 272 
f 273 275 276 274 
f 275 277 278 276 
f 277 279 280 278 
f 279 281 282 280 
f 281 283 284 282 
f 283 285 286 284 
f 285 287 288 286 
f 287 265 266 288 
f 289 303 297 293 
f 294 298 304 290 
f 291 305 301 359 
f 296 300 302 360 
f 289 293 294 290 
f 291 359 360 292 
f 293 297 298 294 
f 295 299 300 296 
f 297 303 304 298 
f 299 301 302 300 
f 301 305 306 302 
f 303 289 290 304 
f 310 314 318 358 
f 307 321 319 355 
f 312 316 320 356 
f 307 355 356 308 
f 309 313 314 310 
f 313 317 318 314 
f 315 319 320 316 
f 317 362 363 318 
f 319 321 322 320 
f 321 307 308 322 
f 339 337 335 333 331 329 327 325 323 345 343 341 
f 344 346 324 326 328 330 332 334 336 338 340 342 
f 323 325 326 324 
f 325 327 328 326 
f 327 329 330 328 
f 329 331 332 330 
f 331 333 334 332 
f 333 335 336 334 
f 335 337 338 336 
f 337 339 340 338 
f 339 341 342 340 
f 341 343 344 342 
f 343 345 346 344 
f 345 323 324 346 
f 351 352 354 353 
f 348 347 349 350 
f 349 347 351 353 
f 348 350 354 352 
f 347 348 352 351 
f 350 349 353 354 
f 355 311 312 356 
f 320 322 308 356 
f 319 315 311 355 
f 357 309 310 358 
f 318 363 361 358 
f 317 313 309 357 
f 359 295 296 360 
f 301 299 295 359 
f 302 306 292 360 
f 291 292 306 305 
f 315 316 312 311 
f 362 317 357 364 
f 364 357 358 361 
f 362 364 368 366 
f 364 361 365 368 
f 363 362 366 367 
f 361 363 367 365 
f 368 365 367 366 
# 74 polygons

#
# object Box004
#

v  127.073929 25.277412 92.677628
v  127.073929 27.014069 92.677628
v  1.210732 25.277414 -41.970436
v  127.073929 25.277414 -41.970436
v  1.210732 27.014071 -41.970436
v  127.073929 27.014071 -41.970436
v  1.210732 25.277414 63.218945
v  127.073929 25.277414 63.389687
v  127.073929 27.014071 63.389687
v  1.210732 27.014071 63.218945
v  48.487129 25.277412 92.677628
v  48.487133 27.014069 92.677628
v  48.487133 27.014071 -41.970436
v  48.487133 25.277414 -41.970436
v  48.487133 25.277414 63.218945
v  48.487133 27.014071 63.218945
v  71.286156 27.014069 92.677628
v  71.286156 25.277414 -41.970436
v  71.286163 27.014071 63.304314
v  71.286148 25.277412 92.677628
v  71.286148 27.014071 -41.970436
v  71.286148 25.277414 63.304314
v  127.073929 25.277409 112.289886
v  127.073929 27.014065 112.289886
v  71.286156 27.014065 112.289886
v  71.286148 25.277409 112.289886
# 26 vertices

vt 0.000000 0.000000 0.000000
vt 0.000000 1.000000 0.000000
vt 0.000000 0.000000 0.000000
vt 1.000000 0.000000 0.000000
vt 0.000000 1.000000 0.000000
vt 1.000000 1.000000 0.000000
vt 1.000000 0.000000 0.000000
vt 0.000000 1.000000 0.000000
vt 1.000000 1.000000 0.000000
vt 0.000000 0.000000 0.000000
vt 1.000000 0.000000 0.000000
vt 0.000000 1.000000 0.000000
vt 1.000000 1.000000 0.000000
vt 0.000000 0.000000 0.000000
vt 0.000000 1.000000 0.000000
vt 1.000000 1.000000 0.000000
vt 0.000000 1.000000 0.000000
vt 1.000000 1.000000 0.000000
vt 0.000000 0.500000 0.000000
vt 1.000000 0.500000 0.000000
vt 1.000000 0.500000 0.000000
vt 0.000000 0.500000 0.000000
vt 1.000000 0.500000 0.000000
vt 0.000000 0.500000 0.000000
vt 1.000000 0.500000 0.000000
vt 0.000000 0.500000 0.000000
vt 0.500000 0.000000 0.000000
vt 0.500000 0.000000 0.000000
vt 0.500000 1.000000 0.000000
vt 0.500000 0.000000 0.000000
vt 0.500000 1.000000 0.000000
vt 0.500000 1.000000 0.000000
vt 0.500000 0.000000 0.000000
vt 0.500000 1.000000 0.000000
vt 0.500000 0.500000 0.000000
vt 0.500000 0.500000 0.000000
vt 0.250000 1.000000 0.000000
vt 0.250000 0.000000 0.000000
vt 0.750000 0.000000 0.000000
vt 0.750000 1.000000 0.000000
vt 0.250000 0.500000 0.000000
vt 0.250000 0.000000 0.000000
vt 0.750000 0.000000 0.000000
vt 0.750000 1.000000 0.000000
vt 0.250000 1.000000 0.000000
vt 0.750000 0.500000 0.000000
vt 0.000000 0.000000 0.000000
vt 0.000000 1.000000 0.000000
vt 0.250000 1.000000 0.000000
vt 0.250000 0.000000 0.000000
# 50 texture coords

o Box004
g Box004
usemtl Material__25
f 371/285 373/287 381/313 382/315 
f 369/292 376/304 377/305 370/293 
f 370/296 377/306 387/323 385/320 
f 375/301 371/290 382/316 383/317 
f 376/304 372/294 374/295 377/305 
f 377/306 374/297 389/327 387/323 
f 378/308 373/299 371/300 375/302 
f 379/309 388/324 385/319 380/311 
f 381/313 389/326 386/321 382/315 
f 383/317 390/328 388/325 379/310 
f 382/316 386/322 390/328 383/317 
f 381/314 373/298 378/307 384/318 
f 384/298 378/292 375/289 383/297 
f 380/294 384/298 383/297 379/293 
f 387/323 384/318 380/312 385/320 
f 389/327 381/314 384/318 387/323 
f 394/332 391/329 392/330 393/331 
f 389/326 374/288 372/286 386/321 
f 390/328 376/303 369/289 388/325 
f 386/322 372/291 376/303 390/328 
f 369/283 370/284 392/330 391/329 
f 370/284 385/319 393/331 392/330 
f 385/319 388/324 394/332 393/331 
f 388/324 369/283 391/329 394/332 
# 24 polygons

#
# object Box011
#

v  47.747841 0.000000 26.322153
v  0.880833 0.000000 26.322157
v  47.747841 0.000000 29.365622
v  0.880833 0.000000 29.365627
v  47.747841 26.201788 26.322153
v  0.880831 26.201788 26.322157
v  47.747841 26.201788 29.365622
v  0.880831 26.201788 29.365627
v  44.743500 0.000000 29.365622
v  44.743500 0.000000 26.322153
v  44.743500 26.201788 26.322153
v  44.743500 26.201788 29.365622
v  44.743351 0.000000 63.747993
v  47.747688 0.000000 63.747993
v  47.747688 26.201788 63.747993
v  44.743351 26.201788 63.747993
# 16 vertices

vt 1.000000 0.000000 0.000000
vt 0.000000 0.000000 0.000000
vt 1.000000 1.000000 0.000000
vt 0.000000 1.000000 0.000000
vt 0.000000 0.000000 0.000000
vt 1.000000 0.000000 0.000000
vt 0.000000 1.000000 0.000000
vt 1.000000 1.000000 0.000000
vt 0.000000 0.000000 0.000000
vt 1.000000 0.000000 0.000000
vt 0.000000 1.000000 0.000000
vt 1.000000 1.000000 0.000000
vt 0.000000 0.000000 0.000000
vt 1.000000 0.000000 0.000000
vt 0.000000 1.000000 0.000000
vt 1.000000 1.000000 0.000000
vt 0.000000 0.000000 0.000000
vt 1.000000 0.000000 0.000000
vt 0.000000 1.000000 0.000000
vt 1.000000 1.000000 0.000000
vt 0.000000 0.000000 0.000000
vt 1.000000 0.000000 0.000000
vt 0.000000 1.000000 0.000000
vt 1.000000 1.000000 0.000000
vt 0.500000 1.000000 0.000000
vt 0.500000 0.000000 0.000000
vt 0.500000 0.000000 0.000000
vt 0.500000 0.000000 0.000000
vt 0.500000 0.000000 0.000000
vt 0.500000 1.000000 0.000000
vt 0.500000 1.000000 0.000000
vt 0.500000 1.000000 0.000000
vt 0.500000 0.000000 0.000000
vt 1.000000 0.000000 0.000000
vt 1.000000 1.000000 0.000000
vt 0.500000 1.000000 0.000000
# 36 texture coords

o Box011
g Box011
usemtl wire_148177027
f 395/333 397/335 403/357 404/359 
f 399/337 405/361 406/363 401/339 
f 395/341 404/360 405/362 399/343 
f 396/345 398/346 402/348 400/347 
f 398/349 403/358 406/364 402/351 
f 397/353 395/354 399/356 401/355 
f 403/357 398/336 396/334 404/359 
f 405/361 400/338 402/340 406/363 
f 404/360 396/342 400/344 405/362 
f 407/365 408/366 409/367 410/368 
f 403/358 397/350 408/366 407/365 
f 397/350 401/352 409/367 408/366 
f 401/352 406/364 410/368 409/367 
f 406/364 403/358 407/365 410/368 
# 14 polygons

#
# object Box013
#

v  58.375725 0.000000 1.297233
v  0.145783 0.000000 1.297233
v  58.375725 0.000000 -1.746236
v  0.145783 0.000000 -1.746236
v  58.375725 26.201788 1.297233
v  0.145783 26.201788 1.297233
v  58.375725 26.201788 -1.746236
v  0.145783 26.201788 -1.746236
v  55.371384 0.000000 -1.746236
v  55.371384 0.000000 1.297233
v  55.371384 26.201788 1.297233
v  55.371384 26.201788 -1.746236
v  55.371227 0.000000 -43.252815
v  58.375568 0.000000 -43.252815
v  58.375568 26.201788 -43.252815
v  55.371227 26.201788 -43.252815
# 16 vertices

vt 1.000000 0.000000 0.000000
vt 0.000000 0.000000 0.000000
vt 1.000000 1.000000 0.000000
vt 0.000000 1.000000 0.000000
vt 0.000000 0.000000 0.000000
vt 1.000000 0.000000 0.000000
vt 0.000000 1.000000 0.000000
vt 1.000000 1.000000 0.000000
vt 0.000000 0.000000 0.000000
vt 1.000000 0.000000 0.000000
vt 0.000000 1.000000 0.000000
vt 1.000000 1.000000 0.000000
vt 0.000000 0.000000 0.000000
vt 1.000000 0.000000 0.000000
vt 0.000000 1.000000 0.000000
vt 1.000000 1.000000 0.000000
vt 0.000000 0.000000 0.000000
vt 1.000000 0.000000 0.000000
vt 0.000000 1.000000 0.000000
vt 1.000000 1.000000 0.000000
vt 0.000000 0.000000 0.000000
vt 1.000000 0.000000 0.000000
vt 0.000000 1.000000 0.000000
vt 1.000000 1.000000 0.000000
vt 0.500000 1.000000 0.000000
vt 0.500000 0.000000 0.000000
vt 0.500000 0.000000 0.000000
vt 0.500000 0.000000 0.000000
vt 0.500000 0.000000 0.000000
vt 0.500000 1.000000 0.000000
vt 0.500000 1.000000 0.000000
vt 0.500000 1.000000 0.000000
vt 0.500000 0.000000 0.000000
vt 1.000000 0.000000 0.000000
vt 1.000000 1.000000 0.000000
vt 0.500000 1.000000 0.000000
# 36 texture coords

o Box013
g Box013
usemtl wire_148177027
f 420/395 419/393 413/371 411/369 
f 417/375 422/399 421/397 415/373 
f 415/379 421/398 420/396 411/377 
f 416/383 418/384 414/382 412/381 
f 418/387 422/400 419/394 414/385 
f 417/391 415/392 411/390 413/389 
f 420/395 412/370 414/372 419/393 
f 422/399 418/376 416/374 421/397 
f 421/398 416/380 412/378 420/396 
f 426/404 425/403 424/402 423/401 
f 423/401 424/402 413/386 419/394 
f 424/402 425/403 417/388 413/386 
f 425/403 426/404 422/400 417/388 
f 426/404 423/401 419/394 422/400 
# 14 polygons

#
# object Box016
#

v  37.547676 0.376922 -11.049024
v  46.464783 0.376922 -2.131920
v  37.831017 0.376923 -11.332365
v  46.748123 0.376923 -2.415261
v  37.547676 23.978798 -11.049024
v  46.464783 23.978798 -2.131920
v  37.831017 23.978798 -11.332365
v  46.748123 23.978798 -2.415261
# 8 vertices

vt 1.000000 0.000000 0.000000
vt 0.000000 0.000000 0.000000
vt 1.000000 1.000000 0.000000
vt 0.000000 1.000000 0.000000
vt 0.000000 0.000000 0.000000
vt 1.000000 0.000000 0.000000
vt 0.000000 1.000000 0.000000
vt 1.000000 1.000000 0.000000
vt 0.000000 0.000000 0.000000
vt 1.000000 0.000000 0.000000
vt 0.000000 1.000000 0.000000
vt 1.000000 1.000000 0.000000
vt 0.000000 0.000000 0.000000
vt 1.000000 0.000000 0.000000
vt 0.000000 1.000000 0.000000
vt 1.000000 1.000000 0.000000
vt 0.000000 0.000000 0.000000
vt 1.000000 0.000000 0.000000
vt 0.000000 1.000000 0.000000
vt 1.000000 1.000000 0.000000
vt 0.000000 0.000000 0.000000
vt 1.000000 0.000000 0.000000
vt 0.000000 1.000000 0.000000
vt 1.000000 1.000000 0.000000
# 24 texture coords

o Box016
g Box016
usemtl wire_166229229
f 427/405 429/407 430/408 428/406 
f 431/409 432/410 434/412 433/411 
f 427/413 428/414 432/416 431/415 
f 428/417 430/418 434/420 432/419 
f 430/421 429/422 433/424 434/423 
f 429/425 427/426 431/428 433/427 
# 6 polygons

#
# object Box017
#

v  21.761654 0.000000 27.689680
v  23.875458 0.000000 27.689680
v  21.761654 0.000000 -0.224405
v  23.875458 0.000000 -0.224405
v  21.761654 26.441227 27.689680
v  23.875458 26.441227 27.689680
v  21.761654 26.441227 -0.224405
v  23.875458 26.441227 -0.224405
# 8 vertices

vt 0.000000 0.000000 0.000000
vt 1.000000 0.000000 0.000000
vt 0.000000 1.000000 0.000000
vt 1.000000 1.000000 0.000000
vt 0.000000 0.000000 0.000000
vt 1.000000 0.000000 0.000000
vt 0.000000 1.000000 0.000000
vt 1.000000 1.000000 0.000000
vt 0.000000 0.000000 0.000000
vt 1.000000 0.000000 0.000000
vt 0.000000 1.000000 0.000000
vt 1.000000 1.000000 0.000000
# 12 texture coords

o Box017
g Box017
usemtl wire_153228184
f 435/438 437/440 438/439 436/437 
f 439/437 440/438 442/440 441/439 
f 435/433 436/434 440/436 439/435 
f 436/429 438/430 442/432 440/431 
f 438/433 437/434 441/436 442/435 
f 437/429 435/430 439/432 441/431 
# 6 polygons

#
# object Box018
#

v  69.074860 0.000000 93.643112
v  72.193604 0.000000 93.643112
v  69.074860 0.000000 63.206390
v  72.193604 0.000000 63.206390
v  69.074860 26.280674 93.643112
v  72.193604 26.280674 93.643112
v  69.074860 26.280674 63.206390
v  72.193604 26.280674 63.206390
# 8 vertices

vt 0.000000 0.000000 0.000000
vt 1.000000 0.000000 0.000000
vt 0.000000 1.000000 0.000000
vt 1.000000 1.000000 0.000000
vt 0.000000 0.000000 0.000000
vt 1.000000 0.000000 0.000000
vt 0.000000 1.000000 0.000000
vt 1.000000 1.000000 0.000000
vt 0.000000 0.000000 0.000000
vt 1.000000 0.000000 0.000000
vt 0.000000 1.000000 0.000000
vt 1.000000 1.000000 0.000000
# 12 texture coords

o Box018
g Box018
usemtl wire_176026026
f 443/450 445/452 446/451 444/449 
f 447/449 448/450 450/452 449/451 
f 443/445 444/446 448/448 447/447 
f 444/441 446/442 450/444 448/443 
f 446/445 445/446 449/448 450/447 
f 445/441 443/442 447/444 449/443 
# 6 polygons

