# 3ds Max Wavefront OBJ Exporter v0.97b - (c)2007 guruware
# File Created: 21.07.2021 15:15:01

#
# object Group22992
#

v  37.429722 5.238628 36.371582
v  37.290653 5.218702 36.278950
v  37.286091 5.212142 36.299400
v  37.285000 5.206015 36.323402
v  37.285107 5.200647 36.349564
v  37.285519 5.196465 36.376617
v  37.286674 5.193986 36.403500
v  37.289944 5.193779 36.429165
v  37.297043 5.196322 36.452106
v  37.309231 5.201910 36.470440
v  37.326756 5.210390 36.483059
v  37.349430 5.220735 36.490021
v  37.377663 5.230908 36.492207
v  37.411835 5.238742 36.490780
v  37.450527 5.243185 36.486664
v  37.490116 5.244871 36.480282
v  37.526505 5.245467 36.471474
v  37.556999 5.246448 36.459499
v  37.580589 5.248220 36.443485
v  37.597542 5.250665 36.423229
v  37.607536 5.252805 36.399014
v  37.612286 5.254316 36.372429
v  37.614189 5.256154 36.345032
v  37.612419 5.258480 36.317959
v  37.605122 5.261465 36.292450
v  37.585949 5.263042 36.271103
v  37.549622 5.260783 36.256790
v  37.500568 5.255226 36.248577
v  37.447418 5.248373 36.244663
v  37.397392 5.241904 36.244011
v  37.355057 5.236300 36.246429
v  37.322929 5.231024 36.252533
v  37.301918 5.225174 36.263195
v  37.223381 5.191165 36.223843
v  37.216431 5.181080 36.256275
v  37.214306 5.171423 36.293694
v  37.214520 5.162505 36.333782
v  37.215668 5.155303 36.374973
v  37.217812 5.151096 36.416172
v  37.222626 5.150894 36.456448
v  37.233093 5.155218 36.492630
v  37.251923 5.164225 36.520580
v  37.279491 5.177676 36.538624
v  37.314453 5.194167 36.547691
v  37.356808 5.210668 36.549816
v  37.407852 5.223548 36.546921
v  37.466106 5.230875 36.540550
v  37.526352 5.233501 36.531364
v  37.582001 5.233914 36.518677
v  37.627724 5.233673 36.500568
v  37.661396 5.232382 36.475647
v  37.684620 5.230688 36.444687
v  37.699024 5.229074 36.408825
v  37.706776 5.228151 36.369667
v  37.709934 5.229228 36.328865
v  37.708473 5.233104 36.287968
v  37.700127 5.240157 36.248837
v  37.676662 5.248412 36.214752
v  37.625378 5.251527 36.190475
v  37.547413 5.245607 36.176994
v  37.460880 5.234754 36.171268
v  37.381432 5.224548 36.170284
v  37.315815 5.216749 36.173470
v  37.267429 5.209956 36.182339
v  37.238274 5.201279 36.198765
v  37.146694 5.143406 36.159637
v  37.135220 5.132907 36.205116
v  37.133858 5.120944 36.257931
v  37.136032 5.107922 36.313049
v  37.139778 5.096661 36.368664
v  37.143932 5.090559 36.424488
v  37.149506 5.091337 36.480545
v  37.161484 5.098672 36.530643
v  37.186573 5.112132 36.567650
v  37.226807 5.131403 36.590195
v  37.277626 5.154679 36.600719
v  37.336266 5.177737 36.602528
v  37.405010 5.195696 36.598267
v  37.483231 5.206014 36.589764
v  37.564480 5.209552 36.578045
v  37.638931 5.208608 36.561108
v  37.696522 5.204160 36.535927
v  37.738407 5.198493 36.502934
v  37.767548 5.192885 36.462791
v  37.785603 5.187968 36.416721
v  37.794991 5.184820 36.366413
v  37.797832 5.184841 36.313778
v  37.794788 5.188840 36.260765
v  37.784618 5.197706 36.209118
v  37.759109 5.210371 36.161751
v  37.700352 5.220696 36.123722
v  37.597099 5.218672 36.100277
v  37.473011 5.202817 36.090229
v  37.362305 5.186368 36.087818
v  37.276096 5.173435 36.091267
v  37.212399 5.163285 36.102760
v  37.171677 5.153328 36.125126
v  37.075718 5.086658 36.099243
v  37.049992 5.074270 36.151928
v  37.042023 5.058581 36.215778
v  37.045143 5.041486 36.285748
v  37.054527 5.025730 36.356873
v  37.062515 5.018687 36.427773
v  37.066326 5.022281 36.499329
v  37.074512 5.033648 36.562603
v  37.101894 5.051758 36.607983
v  37.157440 5.076874 36.634319
v  37.230618 5.106792 36.645866
v  37.310814 5.135681 36.647663
v  37.400154 5.157253 36.642483
v  37.499451 5.169770 36.632061
v  37.601643 5.173659 36.617695
v  37.691105 5.169341 36.595402
v  37.757496 5.160744 36.564129
v  37.806747 5.151948 36.525097
v  37.841312 5.143696 36.477768
v  37.862404 5.136727 36.423450
v  37.873238 5.132668 36.363995
v  37.874310 5.131732 36.301311
v  37.868176 5.134967 36.238174
v  37.854641 5.144020 36.176514
v  37.824986 5.158304 36.119534
v  37.759838 5.172829 36.071594
v  37.641609 5.175975 36.037666
v  37.486305 5.155256 36.021950
v  37.349514 5.133359 36.018562
v  37.249840 5.117826 36.023487
v  37.176029 5.106430 36.036755
v  37.118572 5.096696 36.061226
v  37.052998 5.031410 36.056721
v  37.007431 5.018264 36.110378
v  36.979179 5.000072 36.179226
v  36.969952 4.979460 36.257164
v  36.978809 4.960042 36.340618
v  36.988956 4.952962 36.427315
v  36.989395 4.959290 36.513184
v  36.991314 4.972647 36.586136
v  37.014076 4.992485 36.637623
v  37.077312 5.020081 36.668262
v  37.174320 5.053706 36.681511
v  37.280754 5.085906 36.683216
v  37.393764 5.108871 36.677452
v  37.514935 5.122443 36.664989
v  37.636097 5.124250 36.646290
v  37.734932 5.116573 36.619320
v  37.810123 5.106685 36.585857
v  37.865772 5.096557 36.543507
v  37.904617 5.087069 36.491253
v  37.927387 5.078950 36.430378
v  37.937557 5.073772 36.363163
v  37.934883 5.071133 36.292152
v  37.925400 5.073341 36.221176
v  37.909882 5.082216 36.151783
v  37.876442 5.096362 36.088795
v  37.804058 5.111958 36.037872
v  37.677010 5.118207 36.002064
v  37.506321 5.097743 35.984211
v  37.354382 5.075980 35.979656
v  37.245228 5.061984 35.984348
v  37.164322 5.051479 35.996391
v  37.102779 5.042141 36.019634
v  37.041359 4.983144 36.031990
v  36.990467 4.970341 36.086079
v  36.945198 4.952636 36.158497
v  36.917995 4.931796 36.240685
v  36.916698 4.911192 36.329361
v  36.925606 4.903238 36.426449
v  36.928818 4.909446 36.525291
v  36.932816 4.920675 36.604542
v  36.956848 4.937885 36.658100
v  37.021553 4.963706 36.689716
v  37.125683 4.996426 36.705673
v  37.252972 5.027935 36.709660
v  37.389729 5.049740 36.703033
v  37.532070 5.060544 36.686703
v  37.665890 5.058679 36.663757
v  37.774929 5.052140 36.638168
v  37.857460 5.043291 36.605591
v  37.916859 5.033539 36.561600
v  37.956642 5.023750 36.505070
v  37.978062 5.014658 36.438004
v  37.984398 5.007762 36.363865
v  37.980820 5.004911 36.286312
v  37.972237 5.007326 36.208057
v  37.957470 5.015397 36.131878
v  37.921398 5.027772 36.064831
v  37.841019 5.041283 36.015675
v  37.708317 5.048287 35.985317
v  37.534462 5.032659 35.970459
v  37.374512 5.014999 35.965714
v  37.253010 5.004401 35.967632
v  37.162289 4.997506 35.976563
v  37.094482 4.991907 35.996857
v  37.026096 4.934514 36.021530
v  36.970219 4.924082 36.077431
v  36.914013 4.908665 36.154232
v  36.872936 4.889692 36.239635
v  36.857891 4.869506 36.330006
v  36.861065 4.858123 36.430149
v  36.872093 4.861447 36.537056
v  36.889652 4.870750 36.619965
v  36.926285 4.884167 36.673038
v  36.996620 4.904749 36.704670
v  37.102112 4.932473 36.721901
v  37.237328 4.959199 36.728302
v  37.393101 4.977350 36.720882
v  37.550968 4.982091 36.701385
v  37.694324 4.980209 36.680252
v  37.814137 4.976559 36.659424
v  37.902786 4.970426 36.629414
v  37.962128 4.962436 36.583275
v  37.998627 4.953410 36.521240
v  38.016556 4.944628 36.447491
v  38.020676 4.938095 36.366726
v  38.017288 4.935474 36.282642
v  38.011570 4.937755 36.197643
v  38.001526 4.944760 36.114250
v  37.965824 4.953759 36.041878
v  37.878517 4.961554 35.992973
v  37.741962 4.965436 35.967850
v  37.570431 4.958127 35.960873
v  37.400242 4.947101 35.961658
v  37.263096 4.940352 35.964596
v  37.160675 4.938652 35.971161
v  37.084747 4.938701 35.988117
v  36.999111 4.875247 36.022797
v  36.937584 4.869536 36.083576
v  36.874432 4.858109 36.164303
v  36.824780 4.841780 36.251957
v  36.799938 4.822362 36.342236
v  36.798714 4.805383 36.440956
v  36.815025 4.801704 36.548386
v  36.847305 4.812107 36.632156
v  36.900738 4.825494 36.684536
v  36.984997 4.840945 36.716034
v  37.096275 4.860347 36.734966
v  37.235332 4.879768 36.742905
v  37.401329 4.891509 36.736656
v  37.564137 4.891213 36.719727
v  37.718037 4.890815 36.705032
v  37.853157 4.890039 36.690693
v  37.950954 4.887212 36.662682
v  38.007477 4.882361 36.611404
v  38.035431 4.875911 36.540615
v  38.047070 4.869150 36.458675
v  38.047920 4.864016 36.370766
v  38.045731 4.862193 36.280685
v  38.044388 4.864316 36.189682
v  38.040272 4.869241 36.098843
v  38.007828 4.871796 36.017590
v  37.915222 4.866705 35.959511
v  37.777050 4.858704 35.926186
v  37.607018 4.860694 35.930069
v  37.420219 4.863355 35.951347
v  37.263805 4.862935 35.963802
v  37.149597 4.866866 35.972584
v  37.064850 4.873059 35.988510
v  36.956070 4.795284 36.035255
v  36.890785 4.798472 36.101929
v  36.828957 4.793140 36.185940
v  36.781567 4.779781 36.273659
v  36.756779 4.762507 36.361629
v  36.756222 4.743828 36.456940
v  36.772495 4.736538 36.557426
v  36.807453 4.745605 36.637688
v  36.870369 4.759315 36.691128
v  36.968651 4.771159 36.724476
v  37.092281 4.781933 36.744843
v  37.236496 4.793228 36.753998
v  37.403500 4.795919 36.751984
v  37.569641 4.795784 36.742290
v  37.731514 4.795595 36.734264
v  37.879982 4.795058 36.724789
v  37.990265 4.793678 36.698112
v  38.043995 4.792189 36.639347
v  38.061844 4.789986 36.557941
v  38.066628 4.787000 36.467838
v  38.066200 4.784565 36.374500
v  38.066097 4.783886 36.280186
v  38.066624 4.785023 36.185097
v  38.064495 4.785600 36.088375
v  38.036644 4.778706 35.995079
v  37.936939 4.756003 35.920113
v  37.789883 4.730164 35.869209
v  37.611858 4.728414 35.876213
v  37.421047 4.746548 35.922203
v  37.252686 4.761216 35.954273
v  37.125206 4.774242 35.973576
v  37.030212 4.786314 35.994869
v  36.915894 4.695213 36.051044
v  36.849304 4.707037 36.124687
v  36.796543 4.709940 36.211655
v  36.763176 4.703033 36.297775
v  36.747097 4.690319 36.382320
v  36.746441 4.675822 36.473320
v  36.758286 4.670476 36.563499
v  36.784664 4.677936 36.637611
v  36.842918 4.689443 36.691486
v  36.946697 4.697217 36.727814
v  37.084858 4.699603 36.749233
v  37.237976 4.700829 36.758488
v  37.404034 4.699912 36.758987
v  37.570934 4.700068 36.755039
v  37.734959 4.699596 36.750519
v  37.886307 4.698112 36.741444
v  37.998840 4.697465 36.712296
v  38.053974 4.697505 36.650753
v  38.069920 4.697819 36.565578
v  38.073357 4.698032 36.472042
v  38.073406 4.698144 36.376396
v  38.073666 4.698176 36.280487
v  38.074165 4.698156 36.183884
v  38.071365 4.695421 36.084549
v  38.035042 4.682446 35.988651
v  37.921268 4.649037 35.906567
v  37.755669 4.612640 35.856228
v  37.578400 4.603184 35.860893
v  37.402557 4.617943 35.897442
v  37.238785 4.642658 35.937859
v  37.102051 4.663867 35.969589
v  36.996147 4.680905 36.001743
v  36.913601 4.594319 36.067993
v  36.852867 4.608840 36.143860
v  36.808578 4.620070 36.231190
v  36.779686 4.624042 36.316341
v  36.763294 4.619715 36.398800
v  36.758026 4.612357 36.483650
v  36.765976 4.609781 36.564705
v  36.786594 4.614238 36.633522
v  36.836365 4.621021 36.686436
v  36.939026 4.621998 36.723114
v  37.086166 4.615567 36.744061
v  37.243912 4.610961 36.751865
v  37.405972 4.609383 36.754280
v  37.569019 4.611130 36.752029
v  37.729877 4.611528 36.749142
v  37.878902 4.611338 36.740932
v  37.989803 4.612191 36.711594
v  38.043911 4.612916 36.649559
v  38.061165 4.612737 36.564941
v  38.064861 4.612625 36.471287
v  38.065903 4.612488 36.376080
v  38.066334 4.612358 36.281094
v  38.066265 4.612000 36.186169
v  38.061337 4.608523 36.090199
v  38.014969 4.593734 35.999924
v  37.885540 4.557696 35.923882
v  37.716450 4.521658 35.880852
v  37.548656 4.507635 35.879139
v  37.388336 4.519119 35.905571
v  37.239433 4.541839 35.938824
v  37.106541 4.563512 35.972874
v  36.994812 4.579950 36.012466
v  36.972404 4.523802 36.097248
v  36.919178 4.534237 36.166668
v  36.878727 4.544476 36.245235
v  36.842567 4.553263 36.325211
v  36.816422 4.557102 36.403206
v  36.801529 4.558270 36.480919
v  36.802952 4.558577 36.555115
v  36.821678 4.559662 36.619381
v  36.871956 4.558636 36.669743
v  36.977119 4.552024 36.701508
v  37.117596 4.544647 36.715836
v  37.263336 4.540171 36.722160
v  37.411209 4.541301 36.723152
v  37.558426 4.545101 36.721256
v  37.704174 4.547341 36.719425
v  37.839947 4.548746 36.712761
v  37.941624 4.549864 36.685963
v  37.992039 4.549970 36.628216
v  38.008438 4.548573 36.548679
v  38.013939 4.546280 36.461113
v  38.017185 4.544271 36.372017
v  38.018105 4.543480 36.283562
v  38.017555 4.542841 36.196499
v  38.009235 4.539279 36.110355
v  37.954327 4.526044 36.032784
v  37.827000 4.498365 35.974663
v  37.676144 4.468828 35.941223
v  37.528008 4.454884 35.936970
v  37.387028 4.460289 35.951881
v  37.256756 4.477566 35.974857
v  37.142548 4.497253 36.004261
v  37.047062 4.512736 36.043476
v  37.061790 4.487021 36.143822
v  37.019333 4.494544 36.200829
v  36.989880 4.499398 36.263657
v  36.964268 4.503228 36.327511
v  36.939518 4.507255 36.391975
v  36.920010 4.513084 36.458164
v  36.914436 4.515825 36.523346
v  36.929829 4.515146 36.580803
v  36.980515 4.511449 36.622406
v  37.072979 4.505948 36.644939
v  37.186344 4.502169 36.653324
v  37.304977 4.501871 36.655632
v  37.421955 4.505411 36.655945
v  37.537819 4.510135 36.655293
v  37.653378 4.513458 36.654343
v  37.761292 4.515513 36.648727
v  37.842052 4.516222 36.625916
v  37.883324 4.515177 36.577526
v  37.897736 4.512817 36.510956
v  37.904221 4.509682 36.438084
v  37.909340 4.506441 36.363583
v  37.912586 4.504260 36.289940
v  37.912304 4.503201 36.218632
v  37.898895 4.500982 36.151192
v  37.848160 4.491483 36.094044
v  37.751640 4.472340 36.053535
v  37.635437 4.451042 36.030956
v  37.517082 4.437609 36.025188
v  37.402172 4.437564 36.031784
v  37.295002 4.448679 36.045971
v  37.200432 4.463901 36.067352
v  37.122269 4.477286 36.099098
v  37.169979 4.472550 36.204216
v  37.140076 4.478301 36.244427
v  37.124786 4.480710 36.289864
v  37.116955 4.481638 36.336319
v  37.110626 4.483141 36.382236
v  37.104805 4.485441 36.428314
v  37.104031 4.486068 36.474255
v  37.110508 4.485740 36.517467
v  37.139744 4.484497 36.549206
v  37.202724 4.482485 36.563374
v  37.282295 4.481843 36.566856
v  37.362701 4.483669 36.567638
v  37.440033 4.487844 36.568211
v  37.517006 4.492706 36.568672
v  37.594700 4.496531 36.568230
v  37.667763 4.498978 36.563530
v  37.723038 4.499685 36.546314
v  37.752514 4.498360 36.511036
v  37.764713 4.495441 36.463043
v  37.771740 4.491607 36.410030
v  37.778324 4.487416 36.355587
v  37.783802 4.484106 36.301884
v  37.785240 4.482688 36.251209
v  37.774849 4.480944 36.205147
v  37.740177 4.475334 36.168327
v  37.677612 4.464139 36.143833
v  37.598682 4.450375 36.130962
v  37.514996 4.440051 36.127922
v  37.431740 4.437459 36.131695
v  37.351826 4.442947 36.139885
v  37.278736 4.453208 36.152897
v  37.216770 4.463913 36.173462
v  37.291096 4.465390 36.268887
v  37.273720 4.468892 36.292206
v  37.269520 4.469699 36.320042
v  37.271973 4.469125 36.349007
v  37.275768 4.468605 36.377350
v  37.279537 4.468428 36.404671
v  37.283958 4.468044 36.430592
v  37.288132 4.468050 36.454708
v  37.299934 4.468459 36.473305
v  37.334015 4.468005 36.480892
v  37.378315 4.468348 36.482235
v  37.422028 4.470474 36.482262
v  37.463581 4.474021 36.482002
v  37.504818 4.478150 36.482838
v  37.547535 4.481731 36.483036
v  37.588409 4.484324 36.480324
v  37.620232 4.485134 36.469784
v  37.638351 4.483749 36.448223
v  37.647305 4.480776 36.419083
v  37.653767 4.477083 36.387196
v  37.661011 4.473405 36.354443
v  37.667595 4.470675 36.321480
v  37.670303 4.469250 36.289898
v  37.665031 4.468368 36.262165
v  37.645782 4.466214 36.241703
v  37.610668 4.461621 36.230244
v  37.564915 4.455337 36.226261
v  37.515297 4.449650 36.227371
v  37.465244 4.446801 36.231289
v  37.415440 4.447941 36.236313
v  37.366875 4.452812 36.242626
v  37.323387 4.459482 36.252522
v  37.477180 4.464363 36.363602
# 482 vertices

vt 0.000000 0.000000 0.000000
vt 0.000000 0.062500 0.000000
vt 0.031250 0.062500 0.000000
vt 0.031250 0.000000 0.000000
vt 0.062500 0.062500 0.000000
vt 0.062500 0.000000 0.000000
vt 0.093750 0.062500 0.000000
vt 0.093750 0.000000 0.000000
vt 0.125000 0.062500 0.000000
vt 0.125000 0.000000 0.000000
vt 0.156250 0.062500 0.000000
vt 0.156250 0.000000 0.000000
vt 0.187500 0.062500 0.000000
vt 0.187500 0.000000 0.000000
vt 0.218750 0.062500 0.000000
vt 0.218750 0.000000 0.000000
vt 0.250000 0.062500 0.000000
vt 0.250000 0.000000 0.000000
vt 0.281250 0.062500 0.000000
vt 0.281250 0.000000 0.000000
vt 0.312500 0.062500 0.000000
vt 0.312500 0.000000 0.000000
vt 0.343750 0.062500 0.000000
vt 0.343750 0.000000 0.000000
vt 0.375000 0.062500 0.000000
vt 0.375000 0.000000 0.000000
vt 0.406250 0.062500 0.000000
vt 0.406250 0.000000 0.000000
vt 0.437500 0.062500 0.000000
vt 0.437500 0.000000 0.000000
vt 0.468750 0.062500 0.000000
vt 0.468750 0.000000 0.000000
vt 0.500000 0.062500 0.000000
vt 0.500000 0.000000 0.000000
vt 0.531250 0.062500 0.000000
vt 0.531250 0.000000 0.000000
vt 0.562500 0.062500 0.000000
vt 0.562500 0.000000 0.000000
vt 0.593750 0.062500 0.000000
vt 0.593750 0.000000 0.000000
vt 0.625000 0.062500 0.000000
vt 0.625000 0.000000 0.000000
vt 0.656250 0.062500 0.000000
vt 0.656250 0.000000 0.000000
vt 0.687500 0.062500 0.000000
vt 0.687500 0.000000 0.000000
vt 0.718750 0.062500 0.000000
vt 0.718750 0.000000 0.000000
vt 0.750000 0.062500 0.000000
vt 0.750000 0.000000 0.000000
vt 0.781250 0.062500 0.000000
vt 0.781250 0.000000 0.000000
vt 0.812500 0.062500 0.000000
vt 0.812500 0.000000 0.000000
vt 0.843750 0.062500 0.000000
vt 0.843750 0.000000 0.000000
vt 0.875000 0.062500 0.000000
vt 0.875000 0.000000 0.000000
vt 0.906250 0.062500 0.000000
vt 0.906250 0.000000 0.000000
vt 0.937500 0.062500 0.000000
vt 0.937500 0.000000 0.000000
vt 0.968750 0.062500 0.000000
vt 0.968750 0.000000 0.000000
vt 1.000000 0.062500 0.000000
vt 0.000000 0.125000 0.000000
vt 0.031250 0.125000 0.000000
vt 0.062500 0.125000 0.000000
vt 0.093750 0.125000 0.000000
vt 0.125000 0.125000 0.000000
vt 0.156250 0.125000 0.000000
vt 0.187500 0.125000 0.000000
vt 0.218750 0.125000 0.000000
vt 0.250000 0.125000 0.000000
vt 0.281250 0.125000 0.000000
vt 0.312500 0.125000 0.000000
vt 0.343750 0.125000 0.000000
vt 0.375000 0.125000 0.000000
vt 0.406250 0.125000 0.000000
vt 0.437500 0.125000 0.000000
vt 0.468750 0.125000 0.000000
vt 0.500000 0.125000 0.000000
vt 0.531250 0.125000 0.000000
vt 0.562500 0.125000 0.000000
vt 0.593750 0.125000 0.000000
vt 0.625000 0.125000 0.000000
vt 0.656250 0.125000 0.000000
vt 0.687500 0.125000 0.000000
vt 0.718750 0.125000 0.000000
vt 0.750000 0.125000 0.000000
vt 0.781250 0.125000 0.000000
vt 0.812500 0.125000 0.000000
vt 0.843750 0.125000 0.000000
vt 0.875000 0.125000 0.000000
vt 0.906250 0.125000 0.000000
vt 0.937500 0.125000 0.000000
vt 0.968750 0.125000 0.000000
vt 1.000000 0.125000 0.000000
vt 0.000000 0.187500 0.000000
vt 0.031250 0.187500 0.000000
vt 0.062500 0.187500 0.000000
vt 0.093750 0.187500 0.000000
vt 0.125000 0.187500 0.000000
vt 0.156250 0.187500 0.000000
vt 0.187500 0.187500 0.000000
vt 0.218750 0.187500 0.000000
vt 0.250000 0.187500 0.000000
vt 0.281250 0.187500 0.000000
vt 0.312500 0.187500 0.000000
vt 0.343750 0.187500 0.000000
vt 0.375000 0.187500 0.000000
vt 0.406250 0.187500 0.000000
vt 0.437500 0.187500 0.000000
vt 0.468750 0.187500 0.000000
vt 0.500000 0.187500 0.000000
vt 0.531250 0.187500 0.000000
vt 0.562500 0.187500 0.000000
vt 0.593750 0.187500 0.000000
vt 0.625000 0.187500 0.000000
vt 0.656250 0.187500 0.000000
vt 0.687500 0.187500 0.000000
vt 0.718750 0.187500 0.000000
vt 0.750000 0.187500 0.000000
vt 0.781250 0.187500 0.000000
vt 0.812500 0.187500 0.000000
vt 0.843750 0.187500 0.000000
vt 0.875000 0.187500 0.000000
vt 0.906250 0.187500 0.000000
vt 0.937500 0.187500 0.000000
vt 0.968750 0.187500 0.000000
vt 1.000000 0.187500 0.000000
vt 0.000000 0.250000 0.000000
vt 0.031250 0.250000 0.000000
vt 0.062500 0.250000 0.000000
vt 0.093750 0.250000 0.000000
vt 0.125000 0.250000 0.000000
vt 0.156250 0.250000 0.000000
vt 0.187500 0.250000 0.000000
vt 0.218750 0.250000 0.000000
vt 0.250000 0.250000 0.000000
vt 0.281250 0.250000 0.000000
vt 0.312500 0.250000 0.000000
vt 0.343750 0.250000 0.000000
vt 0.375000 0.250000 0.000000
vt 0.406250 0.250000 0.000000
vt 0.437500 0.250000 0.000000
vt 0.468750 0.250000 0.000000
vt 0.500000 0.250000 0.000000
vt 0.531250 0.250000 0.000000
vt 0.562500 0.250000 0.000000
vt 0.593750 0.250000 0.000000
vt 0.625000 0.250000 0.000000
vt 0.656250 0.250000 0.000000
vt 0.687500 0.250000 0.000000
vt 0.718750 0.250000 0.000000
vt 0.750000 0.250000 0.000000
vt 0.781250 0.250000 0.000000
vt 0.812500 0.250000 0.000000
vt 0.843750 0.250000 0.000000
vt 0.875000 0.250000 0.000000
vt 0.906250 0.250000 0.000000
vt 0.937500 0.250000 0.000000
vt 0.968750 0.250000 0.000000
vt 1.000000 0.250000 0.000000
vt 0.000000 0.312500 0.000000
vt 0.031250 0.312500 0.000000
vt 0.062500 0.312500 0.000000
vt 0.093750 0.312500 0.000000
vt 0.125000 0.312500 0.000000
vt 0.156250 0.312500 0.000000
vt 0.187500 0.312500 0.000000
vt 0.218750 0.312500 0.000000
vt 0.250000 0.312500 0.000000
vt 0.281250 0.312500 0.000000
vt 0.312500 0.312500 0.000000
vt 0.343750 0.312500 0.000000
vt 0.375000 0.312500 0.000000
vt 0.406250 0.312500 0.000000
vt 0.437500 0.312500 0.000000
vt 0.468750 0.312500 0.000000
vt 0.500000 0.312500 0.000000
vt 0.531250 0.312500 0.000000
vt 0.562500 0.312500 0.000000
vt 0.593750 0.312500 0.000000
vt 0.625000 0.312500 0.000000
vt 0.656250 0.312500 0.000000
vt 0.687500 0.312500 0.000000
vt 0.718750 0.312500 0.000000
vt 0.750000 0.312500 0.000000
vt 0.781250 0.312500 0.000000
vt 0.812500 0.312500 0.000000
vt 0.843750 0.312500 0.000000
vt 0.875000 0.312500 0.000000
vt 0.906250 0.312500 0.000000
vt 0.937500 0.312500 0.000000
vt 0.968750 0.312500 0.000000
vt 1.000000 0.312500 0.000000
vt 0.000000 0.375000 0.000000
vt 0.031250 0.375000 0.000000
vt 0.062500 0.375000 0.000000
vt 0.093750 0.375000 0.000000
vt 0.125000 0.375000 0.000000
vt 0.156250 0.375000 0.000000
vt 0.187500 0.375000 0.000000
vt 0.218750 0.375000 0.000000
vt 0.250000 0.375000 0.000000
vt 0.281250 0.375000 0.000000
vt 0.312500 0.375000 0.000000
vt 0.343750 0.375000 0.000000
vt 0.375000 0.375000 0.000000
vt 0.406250 0.375000 0.000000
vt 0.437500 0.375000 0.000000
vt 0.468750 0.375000 0.000000
vt 0.500000 0.375000 0.000000
vt 0.531250 0.375000 0.000000
vt 0.562500 0.375000 0.000000
vt 0.593750 0.375000 0.000000
vt 0.625000 0.375000 0.000000
vt 0.656250 0.375000 0.000000
vt 0.687500 0.375000 0.000000
vt 0.718750 0.375000 0.000000
vt 0.750000 0.375000 0.000000
vt 0.781250 0.375000 0.000000
vt 0.812500 0.375000 0.000000
vt 0.843750 0.375000 0.000000
vt 0.875000 0.375000 0.000000
vt 0.906250 0.375000 0.000000
vt 0.937500 0.375000 0.000000
vt 0.968750 0.375000 0.000000
vt 1.000000 0.375000 0.000000
vt 0.000000 0.437500 0.000000
vt 0.031250 0.437500 0.000000
vt 0.062500 0.437500 0.000000
vt 0.093750 0.437500 0.000000
vt 0.125000 0.437500 0.000000
vt 0.156250 0.437500 0.000000
vt 0.187500 0.437500 0.000000
vt 0.218750 0.437500 0.000000
vt 0.250000 0.437500 0.000000
vt 0.281250 0.437500 0.000000
vt 0.312500 0.437500 0.000000
vt 0.343750 0.437500 0.000000
vt 0.375000 0.437500 0.000000
vt 0.406250 0.437500 0.000000
vt 0.437500 0.437500 0.000000
vt 0.468750 0.437500 0.000000
vt 0.500000 0.437500 0.000000
vt 0.531250 0.437500 0.000000
vt 0.562500 0.437500 0.000000
vt 0.593750 0.437500 0.000000
vt 0.625000 0.437500 0.000000
vt 0.656250 0.437500 0.000000
vt 0.687500 0.437500 0.000000
vt 0.718750 0.437500 0.000000
vt 0.750000 0.437500 0.000000
vt 0.781250 0.437500 0.000000
vt 0.812500 0.437500 0.000000
vt 0.843750 0.437500 0.000000
vt 0.875000 0.437500 0.000000
vt 0.906250 0.437500 0.000000
vt 0.937500 0.437500 0.000000
vt 0.968750 0.437500 0.000000
vt 1.000000 0.437500 0.000000
vt 0.000000 0.500000 0.000000
vt 0.031250 0.500000 0.000000
vt 0.062500 0.500000 0.000000
vt 0.093750 0.500000 0.000000
vt 0.125000 0.500000 0.000000
vt 0.156250 0.500000 0.000000
vt 0.187500 0.500000 0.000000
vt 0.218750 0.500000 0.000000
vt 0.250000 0.500000 0.000000
vt 0.281250 0.500000 0.000000
vt 0.312500 0.500000 0.000000
vt 0.343750 0.500000 0.000000
vt 0.375000 0.500000 0.000000
vt 0.406250 0.500000 0.000000
vt 0.437500 0.500000 0.000000
vt 0.468750 0.500000 0.000000
vt 0.500000 0.500000 0.000000
vt 0.531250 0.500000 0.000000
vt 0.562500 0.500000 0.000000
vt 0.593750 0.500000 0.000000
vt 0.625000 0.500000 0.000000
vt 0.656250 0.500000 0.000000
vt 0.687500 0.500000 0.000000
vt 0.718750 0.500000 0.000000
vt 0.750000 0.500000 0.000000
vt 0.781250 0.500000 0.000000
vt 0.812500 0.500000 0.000000
vt 0.843750 0.500000 0.000000
vt 0.875000 0.500000 0.000000
vt 0.906250 0.500000 0.000000
vt 0.937500 0.500000 0.000000
vt 0.968750 0.500000 0.000000
vt 1.000000 0.500000 0.000000
vt 0.000000 0.562500 0.000000
vt 0.031250 0.562500 0.000000
vt 0.062500 0.562500 0.000000
vt 0.093750 0.562500 0.000000
vt 0.125000 0.562500 0.000000
vt 0.156250 0.562500 0.000000
vt 0.187500 0.562500 0.000000
vt 0.218750 0.562500 0.000000
vt 0.250000 0.562500 0.000000
vt 0.281250 0.562500 0.000000
vt 0.312500 0.562500 0.000000
vt 0.343750 0.562500 0.000000
vt 0.375000 0.562500 0.000000
vt 0.406250 0.562500 0.000000
vt 0.437500 0.562500 0.000000
vt 0.468750 0.562500 0.000000
vt 0.500000 0.562500 0.000000
vt 0.531250 0.562500 0.000000
vt 0.562500 0.562500 0.000000
vt 0.593750 0.562500 0.000000
vt 0.625000 0.562500 0.000000
vt 0.656250 0.562500 0.000000
vt 0.687500 0.562500 0.000000
vt 0.718750 0.562500 0.000000
vt 0.750000 0.562500 0.000000
vt 0.781250 0.562500 0.000000
vt 0.812500 0.562500 0.000000
vt 0.843750 0.562500 0.000000
vt 0.875000 0.562500 0.000000
vt 0.906250 0.562500 0.000000
vt 0.937500 0.562500 0.000000
vt 0.968750 0.562500 0.000000
vt 1.000000 0.562500 0.000000
vt 0.000000 0.625000 0.000000
vt 0.031250 0.625000 0.000000
vt 0.062500 0.625000 0.000000
vt 0.093750 0.625000 0.000000
vt 0.125000 0.625000 0.000000
vt 0.156250 0.625000 0.000000
vt 0.187500 0.625000 0.000000
vt 0.218750 0.625000 0.000000
vt 0.250000 0.625000 0.000000
vt 0.281250 0.625000 0.000000
vt 0.312500 0.625000 0.000000
vt 0.343750 0.625000 0.000000
vt 0.375000 0.625000 0.000000
vt 0.406250 0.625000 0.000000
vt 0.437500 0.625000 0.000000
vt 0.468750 0.625000 0.000000
vt 0.500000 0.625000 0.000000
vt 0.531250 0.625000 0.000000
vt 0.562500 0.625000 0.000000
vt 0.593750 0.625000 0.000000
vt 0.625000 0.625000 0.000000
vt 0.656250 0.625000 0.000000
vt 0.687500 0.625000 0.000000
vt 0.718750 0.625000 0.000000
vt 0.750000 0.625000 0.000000
vt 0.781250 0.625000 0.000000
vt 0.812500 0.625000 0.000000
vt 0.843750 0.625000 0.000000
vt 0.875000 0.625000 0.000000
vt 0.906250 0.625000 0.000000
vt 0.937500 0.625000 0.000000
vt 0.968750 0.625000 0.000000
vt 1.000000 0.625000 0.000000
vt 0.000000 0.687500 0.000000
vt 0.031250 0.687500 0.000000
vt 0.062500 0.687500 0.000000
vt 0.093750 0.687500 0.000000
vt 0.125000 0.687500 0.000000
vt 0.156250 0.687500 0.000000
vt 0.187500 0.687500 0.000000
vt 0.218750 0.687500 0.000000
vt 0.250000 0.687500 0.000000
vt 0.281250 0.687500 0.000000
vt 0.312500 0.687500 0.000000
vt 0.343750 0.687500 0.000000
vt 0.375000 0.687500 0.000000
vt 0.406250 0.687500 0.000000
vt 0.437500 0.687500 0.000000
vt 0.468750 0.687500 0.000000
vt 0.500000 0.687500 0.000000
vt 0.531250 0.687500 0.000000
vt 0.562500 0.687500 0.000000
vt 0.593750 0.687500 0.000000
vt 0.625000 0.687500 0.000000
vt 0.656250 0.687500 0.000000
vt 0.687500 0.687500 0.000000
vt 0.718750 0.687500 0.000000
vt 0.750000 0.687500 0.000000
vt 0.781250 0.687500 0.000000
vt 0.812500 0.687500 0.000000
vt 0.843750 0.687500 0.000000
vt 0.875000 0.687500 0.000000
vt 0.906250 0.687500 0.000000
vt 0.937500 0.687500 0.000000
vt 0.968750 0.687500 0.000000
vt 1.000000 0.687500 0.000000
vt 0.000000 0.750000 0.000000
vt 0.031250 0.750000 0.000000
vt 0.062500 0.750000 0.000000
vt 0.093750 0.750000 0.000000
vt 0.125000 0.750000 0.000000
vt 0.156250 0.750000 0.000000
vt 0.187500 0.750000 0.000000
vt 0.218750 0.750000 0.000000
vt 0.250000 0.750000 0.000000
vt 0.281250 0.750000 0.000000
vt 0.312500 0.750000 0.000000
vt 0.343750 0.750000 0.000000
vt 0.375000 0.750000 0.000000
vt 0.406250 0.750000 0.000000
vt 0.437500 0.750000 0.000000
vt 0.468750 0.750000 0.000000
vt 0.500000 0.750000 0.000000
vt 0.531250 0.750000 0.000000
vt 0.562500 0.750000 0.000000
vt 0.593750 0.750000 0.000000
vt 0.625000 0.750000 0.000000
vt 0.656250 0.750000 0.000000
vt 0.687500 0.750000 0.000000
vt 0.718750 0.750000 0.000000
vt 0.750000 0.750000 0.000000
vt 0.781250 0.750000 0.000000
vt 0.812500 0.750000 0.000000
vt 0.843750 0.750000 0.000000
vt 0.875000 0.750000 0.000000
vt 0.906250 0.750000 0.000000
vt 0.937500 0.750000 0.000000
vt 0.968750 0.750000 0.000000
vt 1.000000 0.750000 0.000000
vt 0.000000 0.812500 0.000000
vt 0.031250 0.812500 0.000000
vt 0.062500 0.812500 0.000000
vt 0.093750 0.812500 0.000000
vt 0.125000 0.812500 0.000000
vt 0.156250 0.812500 0.000000
vt 0.187500 0.812500 0.000000
vt 0.218750 0.812500 0.000000
vt 0.250000 0.812500 0.000000
vt 0.281250 0.812500 0.000000
vt 0.312500 0.812500 0.000000
vt 0.343750 0.812500 0.000000
vt 0.375000 0.812500 0.000000
vt 0.406250 0.812500 0.000000
vt 0.437500 0.812500 0.000000
vt 0.468750 0.812500 0.000000
vt 0.500000 0.812500 0.000000
vt 0.531250 0.812500 0.000000
vt 0.562500 0.812500 0.000000
vt 0.593750 0.812500 0.000000
vt 0.625000 0.812500 0.000000
vt 0.656250 0.812500 0.000000
vt 0.687500 0.812500 0.000000
vt 0.718750 0.812500 0.000000
vt 0.750000 0.812500 0.000000
vt 0.781250 0.812500 0.000000
vt 0.812500 0.812500 0.000000
vt 0.843750 0.812500 0.000000
vt 0.875000 0.812500 0.000000
vt 0.906250 0.812500 0.000000
vt 0.937500 0.812500 0.000000
vt 0.968750 0.812500 0.000000
vt 1.000000 0.812500 0.000000
vt 0.000000 0.875000 0.000000
vt 0.031250 0.875000 0.000000
vt 0.062500 0.875000 0.000000
vt 0.093750 0.875000 0.000000
vt 0.125000 0.875000 0.000000
vt 0.156250 0.875000 0.000000
vt 0.187500 0.875000 0.000000
vt 0.218750 0.875000 0.000000
vt 0.250000 0.875000 0.000000
vt 0.281250 0.875000 0.000000
vt 0.312500 0.875000 0.000000
vt 0.343750 0.875000 0.000000
vt 0.375000 0.875000 0.000000
vt 0.406250 0.875000 0.000000
vt 0.437500 0.875000 0.000000
vt 0.468750 0.875000 0.000000
vt 0.500000 0.875000 0.000000
vt 0.531250 0.875000 0.000000
vt 0.562500 0.875000 0.000000
vt 0.593750 0.875000 0.000000
vt 0.625000 0.875000 0.000000
vt 0.656250 0.875000 0.000000
vt 0.687500 0.875000 0.000000
vt 0.718750 0.875000 0.000000
vt 0.750000 0.875000 0.000000
vt 0.781250 0.875000 0.000000
vt 0.812500 0.875000 0.000000
vt 0.843750 0.875000 0.000000
vt 0.875000 0.875000 0.000000
vt 0.906250 0.875000 0.000000
vt 0.937500 0.875000 0.000000
vt 0.968750 0.875000 0.000000
vt 1.000000 0.875000 0.000000
vt 0.000000 0.937500 0.000000
vt 0.031250 0.937500 0.000000
vt 0.062500 0.937500 0.000000
vt 0.093750 0.937500 0.000000
vt 0.125000 0.937500 0.000000
vt 0.156250 0.937500 0.000000
vt 0.187500 0.937500 0.000000
vt 0.218750 0.937500 0.000000
vt 0.250000 0.937500 0.000000
vt 0.281250 0.937500 0.000000
vt 0.312500 0.937500 0.000000
vt 0.343750 0.937500 0.000000
vt 0.375000 0.937500 0.000000
vt 0.406250 0.937500 0.000000
vt 0.437500 0.937500 0.000000
vt 0.468750 0.937500 0.000000
vt 0.500000 0.937500 0.000000
vt 0.531250 0.937500 0.000000
vt 0.562500 0.937500 0.000000
vt 0.593750 0.937500 0.000000
vt 0.625000 0.937500 0.000000
vt 0.656250 0.937500 0.000000
vt 0.687500 0.937500 0.000000
vt 0.718750 0.937500 0.000000
vt 0.750000 0.937500 0.000000
vt 0.781250 0.937500 0.000000
vt 0.812500 0.937500 0.000000
vt 0.843750 0.937500 0.000000
vt 0.875000 0.937500 0.000000
vt 0.906250 0.937500 0.000000
vt 0.937500 0.937500 0.000000
vt 0.968750 0.937500 0.000000
vt 1.000000 0.937500 0.000000
vt 0.000000 1.000000 0.000000
vt 0.031250 1.000000 0.000000
vt 0.062500 1.000000 0.000000
vt 0.093750 1.000000 0.000000
vt 0.125000 1.000000 0.000000
vt 0.156250 1.000000 0.000000
vt 0.187500 1.000000 0.000000
vt 0.218750 1.000000 0.000000
vt 0.250000 1.000000 0.000000
vt 0.281250 1.000000 0.000000
vt 0.312500 1.000000 0.000000
vt 0.343750 1.000000 0.000000
vt 0.375000 1.000000 0.000000
vt 0.406250 1.000000 0.000000
vt 0.437500 1.000000 0.000000
vt 0.468750 1.000000 0.000000
vt 0.500000 1.000000 0.000000
vt 0.531250 1.000000 0.000000
vt 0.562500 1.000000 0.000000
vt 0.593750 1.000000 0.000000
vt 0.625000 1.000000 0.000000
vt 0.656250 1.000000 0.000000
vt 0.687500 1.000000 0.000000
vt 0.718750 1.000000 0.000000
vt 0.750000 1.000000 0.000000
vt 0.781250 1.000000 0.000000
vt 0.812500 1.000000 0.000000
vt 0.843750 1.000000 0.000000
vt 0.875000 1.000000 0.000000
vt 0.906250 1.000000 0.000000
vt 0.937500 1.000000 0.000000
vt 0.968750 1.000000 0.000000
vt 1.000000 1.000000 0.000000
# 560 texture coords

o Group22992
g Group22992
f 1/1 2/2 3/3 
f 1/4 3/3 4/5 
f 1/6 4/5 5/7 
f 1/8 5/7 6/9 
f 1/10 6/9 7/11 
f 1/12 7/11 8/13 
f 1/14 8/13 9/15 
f 1/16 9/15 10/17 
f 1/18 10/17 11/19 
f 1/20 11/19 12/21 
f 1/22 12/21 13/23 
f 1/24 13/23 14/25 
f 1/26 14/25 15/27 
f 1/28 15/27 16/29 
f 1/30 16/29 17/31 
f 1/32 17/31 18/33 
f 1/34 18/33 19/35 
f 1/36 19/35 20/37 
f 1/38 20/37 21/39 
f 1/40 21/39 22/41 
f 1/42 22/41 23/43 
f 1/44 23/43 24/45 
f 1/46 24/45 25/47 
f 1/48 25/47 26/49 
f 1/50 26/49 27/51 
f 1/52 27/51 28/53 
f 1/54 28/53 29/55 
f 1/56 29/55 30/57 
f 1/58 30/57 31/59 
f 1/60 31/59 32/61 
f 1/62 32/61 33/63 
f 1/64 33/63 2/65 
f 2/2 34/66 35/67 3/3 
f 3/3 35/67 36/68 4/5 
f 4/5 36/68 37/69 5/7 
f 5/7 37/69 38/70 6/9 
f 38/70 39/71 7/11 6/9 
f 39/71 40/72 8/13 7/11 
f 40/72 41/73 9/15 8/13 
f 9/15 41/73 42/74 10/17 
f 10/17 42/74 43/75 11/19 
f 11/19 43/75 44/76 12/21 
f 12/21 44/76 45/77 13/23 
f 13/23 45/77 46/78 14/25 
f 14/25 46/78 47/79 15/27 
f 47/79 48/80 16/29 15/27 
f 48/80 49/81 17/31 16/29 
f 49/81 50/82 18/33 17/31 
f 50/82 51/83 19/35 18/33 
f 51/83 52/84 20/37 19/35 
f 52/84 53/85 21/39 20/37 
f 53/85 54/86 22/41 21/39 
f 54/86 55/87 23/43 22/41 
f 55/87 56/88 24/45 23/43 
f 56/88 57/89 25/47 24/45 
f 25/47 57/89 58/90 26/49 
f 26/49 58/90 59/91 27/51 
f 27/51 59/91 60/92 28/53 
f 28/53 60/92 61/93 29/55 
f 61/93 62/94 30/57 29/55 
f 62/94 63/95 31/59 30/57 
f 63/95 64/96 32/61 31/59 
f 64/96 65/97 33/63 32/61 
f 33/63 65/97 34/98 2/65 
f 34/66 66/99 67/100 35/67 
f 35/67 67/100 68/101 36/68 
f 36/68 68/101 69/102 37/69 
f 37/69 69/102 70/103 38/70 
f 70/103 71/104 39/71 38/70 
f 71/104 72/105 40/72 39/71 
f 72/105 73/106 41/73 40/72 
f 41/73 73/106 74/107 42/74 
f 42/74 74/107 75/108 43/75 
f 43/75 75/108 76/109 44/76 
f 44/76 76/109 77/110 45/77 
f 45/77 77/110 78/111 46/78 
f 46/78 78/111 79/112 47/79 
f 79/112 80/113 48/80 47/79 
f 80/113 81/114 49/81 48/80 
f 81/114 82/115 50/82 49/81 
f 82/115 83/116 51/83 50/82 
f 83/116 84/117 52/84 51/83 
f 84/117 85/118 53/85 52/84 
f 85/118 86/119 54/86 53/85 
f 86/119 87/120 55/87 54/86 
f 87/120 88/121 56/88 55/87 
f 88/121 89/122 57/89 56/88 
f 57/89 89/122 90/123 58/90 
f 58/90 90/123 91/124 59/91 
f 59/91 91/124 92/125 60/92 
f 60/92 92/125 93/126 61/93 
f 93/126 94/127 62/94 61/93 
f 94/127 95/128 63/95 62/94 
f 95/128 96/129 64/96 63/95 
f 96/129 97/130 65/97 64/96 
f 65/97 97/130 66/131 34/98 
f 66/99 98/132 99/133 67/100 
f 67/100 99/133 100/134 68/101 
f 68/101 100/134 101/135 69/102 
f 69/102 101/135 102/136 70/103 
f 70/103 102/136 103/137 71/104 
f 103/137 104/138 72/105 71/104 
f 72/105 104/138 105/139 73/106 
f 73/106 105/139 106/140 74/107 
f 74/107 106/140 107/141 75/108 
f 75/108 107/141 108/142 76/109 
f 76/109 108/142 109/143 77/110 
f 77/110 109/143 110/144 78/111 
f 78/111 110/144 111/145 79/112 
f 111/145 112/146 80/113 79/112 
f 112/146 113/147 81/114 80/113 
f 113/147 114/148 82/115 81/114 
f 114/148 115/149 83/116 82/115 
f 115/149 116/150 84/117 83/116 
f 116/150 117/151 85/118 84/117 
f 117/151 118/152 86/119 85/118 
f 118/152 119/153 87/120 86/119 
f 119/153 120/154 88/121 87/120 
f 120/154 121/155 89/122 88/121 
f 89/122 121/155 122/156 90/123 
f 90/123 122/156 123/157 91/124 
f 91/124 123/157 124/158 92/125 
f 92/125 124/158 125/159 93/126 
f 125/159 126/160 94/127 93/126 
f 126/160 127/161 95/128 94/127 
f 127/161 128/162 96/129 95/128 
f 128/162 129/163 97/130 96/129 
f 129/163 98/164 66/131 97/130 
f 98/132 130/165 131/166 99/133 
f 99/133 131/166 132/167 100/134 
f 100/134 132/167 133/168 101/135 
f 101/135 133/168 134/169 102/136 
f 102/136 134/169 135/170 103/137 
f 135/170 136/171 104/138 103/137 
f 136/171 137/172 105/139 104/138 
f 105/139 137/172 138/173 106/140 
f 106/140 138/173 139/174 107/141 
f 107/141 139/174 140/175 108/142 
f 108/142 140/175 141/176 109/143 
f 109/143 141/176 142/177 110/144 
f 110/144 142/177 143/178 111/145 
f 143/178 144/179 112/146 111/145 
f 144/179 145/180 113/147 112/146 
f 145/180 146/181 114/148 113/147 
f 146/181 147/182 115/149 114/148 
f 147/182 148/183 116/150 115/149 
f 148/183 149/184 117/151 116/150 
f 149/184 150/185 118/152 117/151 
f 150/185 151/186 119/153 118/152 
f 151/186 152/187 120/154 119/153 
f 152/187 153/188 121/155 120/154 
f 121/155 153/188 154/189 122/156 
f 122/156 154/189 155/190 123/157 
f 123/157 155/190 156/191 124/158 
f 124/158 156/191 157/192 125/159 
f 125/159 157/192 158/193 126/160 
f 158/193 159/194 127/161 126/160 
f 159/194 160/195 128/162 127/161 
f 160/195 161/196 129/163 128/162 
f 129/163 161/196 130/197 98/164 
f 162/198 163/199 131/166 130/165 
f 163/199 164/200 132/167 131/166 
f 164/200 165/201 133/168 132/167 
f 133/168 165/201 166/202 134/169 
f 134/169 166/202 167/203 135/170 
f 167/203 168/204 136/171 135/170 
f 168/204 169/205 137/172 136/171 
f 137/172 169/205 170/206 138/173 
f 138/173 170/206 171/207 139/174 
f 139/174 171/207 172/208 140/175 
f 140/175 172/208 173/209 141/176 
f 141/176 173/209 174/210 142/177 
f 142/177 174/210 175/211 143/178 
f 175/211 176/212 144/179 143/178 
f 176/212 177/213 145/180 144/179 
f 177/213 178/214 146/181 145/180 
f 178/214 179/215 147/182 146/181 
f 179/215 180/216 148/183 147/182 
f 180/216 181/217 149/184 148/183 
f 181/217 182/218 150/185 149/184 
f 182/218 183/219 151/186 150/185 
f 183/219 184/220 152/187 151/186 
f 152/187 184/220 185/221 153/188 
f 153/188 185/221 186/222 154/189 
f 154/189 186/222 187/223 155/190 
f 155/190 187/223 188/224 156/191 
f 156/191 188/224 189/225 157/192 
f 157/192 189/225 190/226 158/193 
f 158/193 190/226 191/227 159/194 
f 191/227 192/228 160/195 159/194 
f 192/228 193/229 161/196 160/195 
f 193/229 162/230 130/197 161/196 
f 194/231 195/232 163/199 162/198 
f 195/232 196/233 164/200 163/199 
f 196/233 197/234 165/201 164/200 
f 197/234 198/235 166/202 165/201 
f 198/235 199/236 167/203 166/202 
f 199/236 200/237 168/204 167/203 
f 200/237 201/238 169/205 168/204 
f 169/205 201/238 202/239 170/206 
f 170/206 202/239 203/240 171/207 
f 171/207 203/240 204/241 172/208 
f 172/208 204/241 205/242 173/209 
f 173/209 205/242 206/243 174/210 
f 206/243 207/244 175/211 174/210 
f 207/244 208/245 176/212 175/211 
f 208/245 209/246 177/213 176/212 
f 209/246 210/247 178/214 177/213 
f 210/247 211/248 179/215 178/214 
f 211/248 212/249 180/216 179/215 
f 212/249 213/250 181/217 180/216 
f 213/250 214/251 182/218 181/217 
f 214/251 215/252 183/219 182/218 
f 215/252 216/253 184/220 183/219 
f 216/253 217/254 185/221 184/220 
f 185/221 217/254 218/255 186/222 
f 186/222 218/255 219/256 187/223 
f 187/223 219/256 220/257 188/224 
f 188/224 220/257 221/258 189/225 
f 189/225 221/258 222/259 190/226 
f 190/226 222/259 223/260 191/227 
f 191/227 223/260 224/261 192/228 
f 224/261 225/262 193/229 192/228 
f 225/262 194/263 162/230 193/229 
f 226/264 227/265 195/232 194/231 
f 227/265 228/266 196/233 195/232 
f 228/266 229/267 197/234 196/233 
f 229/267 230/268 198/235 197/234 
f 230/268 231/269 199/236 198/235 
f 231/269 232/270 200/237 199/236 
f 200/237 232/270 233/271 201/238 
f 201/238 233/271 234/272 202/239 
f 202/239 234/272 235/273 203/240 
f 203/240 235/273 236/274 204/241 
f 204/241 236/274 237/275 205/242 
f 205/242 237/275 238/276 206/243 
f 238/276 239/277 207/244 206/243 
f 239/277 240/278 208/245 207/244 
f 240/278 241/279 209/246 208/245 
f 241/279 242/280 210/247 209/246 
f 242/280 243/281 211/248 210/247 
f 243/281 244/282 212/249 211/248 
f 212/249 244/282 245/283 213/250 
f 213/250 245/283 246/284 214/251 
f 246/284 247/285 215/252 214/251 
f 247/285 248/286 216/253 215/252 
f 248/286 249/287 217/254 216/253 
f 217/254 249/287 250/288 218/255 
f 218/255 250/288 251/289 219/256 
f 219/256 251/289 252/290 220/257 
f 220/257 252/290 253/291 221/258 
f 221/258 253/291 254/292 222/259 
f 222/259 254/292 255/293 223/260 
f 255/293 256/294 224/261 223/260 
f 256/294 257/295 225/262 224/261 
f 257/295 226/296 194/263 225/262 
f 258/297 259/298 227/265 226/264 
f 259/298 260/299 228/266 227/265 
f 260/299 261/300 229/267 228/266 
f 261/300 262/301 230/268 229/267 
f 262/301 263/302 231/269 230/268 
f 263/302 264/303 232/270 231/269 
f 232/270 264/303 265/304 233/271 
f 233/271 265/304 266/305 234/272 
f 234/272 266/305 267/306 235/273 
f 235/273 267/306 268/307 236/274 
f 236/274 268/307 269/308 237/275 
f 237/275 269/308 270/309 238/276 
f 270/309 271/310 239/277 238/276 
f 271/310 272/311 240/278 239/277 
f 272/311 273/312 241/279 240/278 
f 273/312 274/313 242/280 241/279 
f 274/313 275/314 243/281 242/280 
f 243/281 275/314 276/315 244/282 
f 244/282 276/315 277/316 245/283 
f 245/283 277/316 278/317 246/284 
f 246/284 278/317 279/318 247/285 
f 279/318 280/319 248/286 247/285 
f 280/319 281/320 249/287 248/286 
f 281/320 282/321 250/288 249/287 
f 282/321 283/322 251/289 250/288 
f 283/322 284/323 252/290 251/289 
f 252/290 284/323 285/324 253/291 
f 253/291 285/324 286/325 254/292 
f 254/292 286/325 287/326 255/293 
f 287/326 288/327 256/294 255/293 
f 288/327 289/328 257/295 256/294 
f 289/328 258/329 226/296 257/295 
f 290/330 291/331 259/298 258/297 
f 291/331 292/332 260/299 259/298 
f 292/332 293/333 261/300 260/299 
f 293/333 294/334 262/301 261/300 
f 294/334 295/335 263/302 262/301 
f 295/335 296/336 264/303 263/302 
f 264/303 296/336 297/337 265/304 
f 265/304 297/337 298/338 266/305 
f 266/305 298/338 299/339 267/306 
f 267/306 299/339 300/340 268/307 
f 268/307 300/340 301/341 269/308 
f 301/341 302/342 270/309 269/308 
f 302/342 303/343 271/310 270/309 
f 303/343 304/344 272/311 271/310 
f 304/344 305/345 273/312 272/311 
f 305/345 306/346 274/313 273/312 
f 274/313 306/346 307/347 275/314 
f 275/314 307/347 308/348 276/315 
f 276/315 308/348 309/349 277/316 
f 277/316 309/349 310/350 278/317 
f 278/317 310/350 311/351 279/318 
f 311/351 312/352 280/319 279/318 
f 312/352 313/353 281/320 280/319 
f 313/353 314/354 282/321 281/320 
f 314/354 315/355 283/322 282/321 
f 315/355 316/356 284/323 283/322 
f 316/356 317/357 285/324 284/323 
f 317/357 318/358 286/325 285/324 
f 286/325 318/358 319/359 287/326 
f 319/359 320/360 288/327 287/326 
f 320/360 321/361 289/328 288/327 
f 321/361 290/362 258/329 289/328 
f 322/363 323/364 291/331 290/330 
f 323/364 324/365 292/332 291/331 
f 324/365 325/366 293/333 292/332 
f 325/366 326/367 294/334 293/333 
f 326/367 327/368 295/335 294/334 
f 327/368 328/369 296/336 295/335 
f 296/336 328/369 329/370 297/337 
f 297/337 329/370 330/371 298/338 
f 298/338 330/371 331/372 299/339 
f 299/339 331/372 332/373 300/340 
f 332/373 333/374 301/341 300/340 
f 333/374 334/375 302/342 301/341 
f 334/375 335/376 303/343 302/342 
f 303/343 335/376 336/377 304/344 
f 304/344 336/377 337/378 305/345 
f 305/345 337/378 338/379 306/346 
f 306/346 338/379 339/380 307/347 
f 307/347 339/380 340/381 308/348 
f 340/381 341/382 309/349 308/348 
f 341/382 342/383 310/350 309/349 
f 342/383 343/384 311/351 310/350 
f 311/351 343/384 344/385 312/352 
f 312/352 344/385 345/386 313/353 
f 345/386 346/387 314/354 313/353 
f 346/387 347/388 315/355 314/354 
f 347/388 348/389 316/356 315/355 
f 348/389 349/390 317/357 316/356 
f 349/390 350/391 318/358 317/357 
f 318/358 350/391 351/392 319/359 
f 319/359 351/392 352/393 320/360 
f 320/360 352/393 353/394 321/361 
f 321/361 353/394 322/395 290/362 
f 322/363 354/396 355/397 323/364 
f 323/364 355/397 356/398 324/365 
f 324/365 356/398 357/399 325/366 
f 325/366 357/399 358/400 326/367 
f 326/367 358/400 359/401 327/368 
f 327/368 359/401 360/402 328/369 
f 328/369 360/402 361/403 329/370 
f 361/403 362/404 330/371 329/370 
f 362/404 363/405 331/372 330/371 
f 363/405 364/406 332/373 331/372 
f 364/406 365/407 333/374 332/373 
f 365/407 366/408 334/375 333/374 
f 334/375 366/408 367/409 335/376 
f 335/376 367/409 368/410 336/377 
f 336/377 368/410 369/411 337/378 
f 337/378 369/411 370/412 338/379 
f 338/379 370/412 371/413 339/380 
f 371/413 372/414 340/381 339/380 
f 372/414 373/415 341/382 340/381 
f 373/415 374/416 342/383 341/382 
f 374/416 375/417 343/384 342/383 
f 343/384 375/417 376/418 344/385 
f 344/385 376/418 377/419 345/386 
f 377/419 378/420 346/387 345/386 
f 378/420 379/421 347/388 346/387 
f 379/421 380/422 348/389 347/388 
f 380/422 381/423 349/390 348/389 
f 381/423 382/424 350/391 349/390 
f 350/391 382/424 383/425 351/392 
f 351/392 383/425 384/426 352/393 
f 352/393 384/426 385/427 353/394 
f 353/394 385/427 354/428 322/395 
f 354/396 386/429 387/430 355/397 
f 355/397 387/430 388/431 356/398 
f 356/398 388/431 389/432 357/399 
f 357/399 389/432 390/433 358/400 
f 358/400 390/433 391/434 359/401 
f 359/401 391/434 392/435 360/402 
f 360/402 392/435 393/436 361/403 
f 393/436 394/437 362/404 361/403 
f 394/437 395/438 363/405 362/404 
f 395/438 396/439 364/406 363/405 
f 396/439 397/440 365/407 364/406 
f 397/440 398/441 366/408 365/407 
f 366/408 398/441 399/442 367/409 
f 367/409 399/442 400/443 368/410 
f 368/410 400/443 401/444 369/411 
f 369/411 401/444 402/445 370/412 
f 370/412 402/445 403/446 371/413 
f 403/446 404/447 372/414 371/413 
f 404/447 405/448 373/415 372/414 
f 405/448 406/449 374/416 373/415 
f 374/416 406/449 407/450 375/417 
f 375/417 407/450 408/451 376/418 
f 376/418 408/451 409/452 377/419 
f 409/452 410/453 378/420 377/419 
f 410/453 411/454 379/421 378/420 
f 411/454 412/455 380/422 379/421 
f 412/455 413/456 381/423 380/422 
f 413/456 414/457 382/424 381/423 
f 382/424 414/457 415/458 383/425 
f 383/425 415/458 416/459 384/426 
f 384/426 416/459 417/460 385/427 
f 385/427 417/460 386/461 354/428 
f 386/429 418/462 419/463 387/430 
f 387/430 419/463 420/464 388/431 
f 388/431 420/464 421/465 389/432 
f 389/432 421/465 422/466 390/433 
f 390/433 422/466 423/467 391/434 
f 391/434 423/467 424/468 392/435 
f 392/435 424/468 425/469 393/436 
f 425/469 426/470 394/437 393/436 
f 426/470 427/471 395/438 394/437 
f 427/471 428/472 396/439 395/438 
f 428/472 429/473 397/440 396/439 
f 429/473 430/474 398/441 397/440 
f 398/441 430/474 431/475 399/442 
f 399/442 431/475 432/476 400/443 
f 400/443 432/476 433/477 401/444 
f 401/444 433/477 434/478 402/445 
f 402/445 434/478 435/479 403/446 
f 435/479 436/480 404/447 403/446 
f 436/480 437/481 405/448 404/447 
f 437/481 438/482 406/449 405/448 
f 406/449 438/482 439/483 407/450 
f 407/450 439/483 440/484 408/451 
f 408/451 440/484 441/485 409/452 
f 441/485 442/486 410/453 409/452 
f 442/486 443/487 411/454 410/453 
f 443/487 444/488 412/455 411/454 
f 444/488 445/489 413/456 412/455 
f 413/456 445/489 446/490 414/457 
f 414/457 446/490 447/491 415/458 
f 415/458 447/491 448/492 416/459 
f 416/459 448/492 449/493 417/460 
f 417/460 449/493 418/494 386/461 
f 418/462 450/495 451/496 419/463 
f 451/496 452/497 420/464 419/463 
f 452/497 453/498 421/465 420/464 
f 453/498 454/499 422/466 421/465 
f 422/466 454/499 455/500 423/467 
f 423/467 455/500 456/501 424/468 
f 424/468 456/501 457/502 425/469 
f 457/502 458/503 426/470 425/469 
f 458/503 459/504 427/471 426/470 
f 459/504 460/505 428/472 427/471 
f 460/505 461/506 429/473 428/472 
f 461/506 462/507 430/474 429/473 
f 462/507 463/508 431/475 430/474 
f 431/475 463/508 464/509 432/476 
f 432/476 464/509 465/510 433/477 
f 433/477 465/510 466/511 434/478 
f 434/478 466/511 467/512 435/479 
f 467/512 468/513 436/480 435/479 
f 468/513 469/514 437/481 436/480 
f 437/481 469/514 470/515 438/482 
f 438/482 470/515 471/516 439/483 
f 439/483 471/516 472/517 440/484 
f 440/484 472/517 473/518 441/485 
f 473/518 474/519 442/486 441/485 
f 474/519 475/520 443/487 442/486 
f 475/520 476/521 444/488 443/487 
f 476/521 477/522 445/489 444/488 
f 445/489 477/522 478/523 446/490 
f 446/490 478/523 479/524 447/491 
f 447/491 479/524 480/525 448/492 
f 448/492 480/525 481/526 449/493 
f 449/493 481/526 450/527 418/494 
f 450/495 482/528 451/529 
f 451/496 482/529 452/530 
f 452/497 482/530 453/531 
f 453/498 482/531 454/532 
f 454/499 482/532 455/533 
f 455/500 482/533 456/534 
f 456/501 482/534 457/535 
f 457/502 482/535 458/536 
f 458/503 482/536 459/537 
f 459/504 482/537 460/538 
f 460/505 482/538 461/539 
f 461/506 482/539 462/540 
f 462/507 482/540 463/541 
f 463/508 482/541 464/542 
f 464/509 482/542 465/543 
f 465/510 482/543 466/544 
f 466/511 482/544 467/545 
f 467/512 482/545 468/546 
f 468/513 482/546 469/547 
f 469/514 482/547 470/548 
f 470/515 482/548 471/549 
f 471/516 482/549 472/550 
f 472/517 482/550 473/551 
f 473/518 482/551 474/552 
f 474/519 482/552 475/553 
f 475/520 482/553 476/554 
f 476/521 482/554 477/555 
f 477/522 482/555 478/556 
f 478/523 482/556 479/557 
f 479/524 482/557 480/558 
f 480/525 482/558 481/559 
f 481/526 482/559 450/560 
# 448 polygons - 64 triangles

