# 3ds Max Wavefront OBJ Exporter v0.97b - (c)2007 guruware
# File Created: 05.08.2021 10:24:00

#
# object 2?_????___??_?
#

v  36.317345 14.217462 9.436568
v  36.317345 14.217462 11.297759
v  36.317345 16.078651 11.297759
v  36.317345 16.078651 9.436568
v  36.424118 14.217462 9.436568
v  36.424118 14.217462 11.297759
v  36.424118 16.078651 11.297759
v  36.424118 16.078651 9.436568
v  36.199997 14.869549 10.136215
v  36.199997 14.869549 10.882659
v  36.276901 15.426565 10.882659
v  36.276901 15.426565 10.136215
v  36.330040 14.869549 10.136215
v  36.330040 14.869549 10.882659
v  36.330040 15.426565 10.882659
v  36.330040 15.426565 10.136215
v  36.203724 14.896548 10.172520
v  36.203724 14.896548 10.846354
v  36.273170 15.399566 10.846354
v  36.273170 15.399566 10.172520
v  36.234276 14.895045 10.172520
v  36.234276 14.895045 10.846354
v  36.303722 15.398063 10.846354
v  36.303722 15.398063 10.172520
v  36.281433 15.236609 10.201208
v  36.281433 15.236609 10.456338
v  36.295933 15.341636 10.456338
v  36.295933 15.341636 10.201208
v  36.282551 15.244714 10.212106
v  36.282551 15.244714 10.445440
v  36.294815 15.333531 10.445440
v  36.294815 15.333531 10.212106
v  36.265564 15.237390 10.201208
v  36.265564 15.237390 10.456338
v  36.280067 15.342416 10.456338
v  36.280067 15.342416 10.201208
v  36.266685 15.245494 10.445440
v  36.266685 15.245494 10.212106
v  36.278946 15.334311 10.212106
v  36.278946 15.334311 10.445440
v  36.318039 15.517893 11.303376
v  36.325436 15.517893 11.303376
v  36.321735 15.517893 11.296969
v  36.314339 15.517893 11.296969
v  36.310642 15.517893 11.303376
v  36.314339 15.517893 11.309782
v  36.321735 15.517893 11.309782
v  36.332832 15.517893 11.303376
v  36.325436 15.517893 11.290564
v  36.310642 15.517893 11.290564
v  36.303246 15.517893 11.303376
v  36.310642 15.517893 11.316188
v  36.325436 15.517893 11.316188
v  36.332832 15.756137 11.303376
v  36.325436 15.756137 11.290564
v  36.310642 15.756137 11.290564
v  36.303246 15.756137 11.303376
v  36.310642 15.756137 11.316188
v  36.325436 15.756137 11.316188
v  36.325436 15.756137 11.303376
v  36.321735 15.756137 11.296969
v  36.314339 15.756137 11.296969
v  36.310642 15.756137 11.303376
v  36.314339 15.756137 11.309782
v  36.321735 15.756137 11.309782
v  36.318039 15.756137 11.303376
v  36.318039 14.601818 11.303376
v  36.325436 14.601818 11.303376
v  36.321735 14.601818 11.296969
v  36.314339 14.601818 11.296969
v  36.310642 14.601818 11.303376
v  36.314339 14.601818 11.309782
v  36.321735 14.601818 11.309782
v  36.332832 14.601818 11.303376
v  36.325436 14.601818 11.290564
v  36.310642 14.601818 11.290564
v  36.303246 14.601818 11.303376
v  36.310642 14.601818 11.316188
v  36.325436 14.601818 11.316188
v  36.332832 14.840062 11.303376
v  36.325436 14.840062 11.290564
v  36.310642 14.840062 11.290564
v  36.303246 14.840062 11.303376
v  36.310642 14.840062 11.316188
v  36.325436 14.840062 11.316188
v  36.325436 14.840062 11.303376
v  36.321735 14.840062 11.296969
v  36.314339 14.840062 11.296969
v  36.310642 14.840062 11.303376
v  36.314339 14.840062 11.309782
v  36.321735 14.840062 11.309782
v  36.318039 14.840062 11.303376
v  36.253204 15.284559 10.495724
v  36.253204 15.284559 10.565610
v  36.262745 15.353792 10.565610
v  36.262745 15.353792 10.495724
v  36.285721 15.268135 10.483891
v  36.285721 15.268135 10.577442
v  36.298489 15.360811 10.577442
v  36.298489 15.360811 10.483891
v  36.253204 15.284559 10.600827
v  36.253204 15.284559 10.670713
v  36.262745 15.353792 10.670713
v  36.262745 15.353792 10.600827
v  36.285721 15.268135 10.588995
v  36.285721 15.268135 10.682546
v  36.298489 15.360811 10.682546
v  36.298489 15.360811 10.588995
v  36.253204 15.284559 10.705930
v  36.253204 15.284559 10.775815
v  36.262745 15.353792 10.775815
v  36.262745 15.353792 10.705930
v  36.285721 15.268135 10.694097
v  36.285721 15.268135 10.787648
v  36.298489 15.360811 10.787648
v  36.298489 15.360811 10.694097
v  36.238483 15.177719 10.705930
v  36.238483 15.177719 10.775815
v  36.248024 15.246951 10.775815
v  36.248024 15.246951 10.705930
v  36.271000 15.161295 10.694097
v  36.271000 15.161295 10.787648
v  36.283768 15.253970 10.787648
v  36.283768 15.253970 10.694097
v  36.238483 15.177719 10.600827
v  36.238483 15.177719 10.670713
v  36.248024 15.246951 10.670713
v  36.248024 15.246951 10.600827
v  36.271000 15.161295 10.588995
v  36.271000 15.161295 10.682546
v  36.283768 15.253970 10.682546
v  36.283768 15.253970 10.588995
v  36.238483 15.177719 10.495724
v  36.238483 15.177719 10.565610
v  36.248024 15.246951 10.565610
v  36.248024 15.246951 10.495724
v  36.271000 15.161295 10.483891
v  36.271000 15.161295 10.577442
v  36.283768 15.253970 10.577442
v  36.283768 15.253970 10.483891
v  36.223766 15.070879 10.495724
v  36.223766 15.070879 10.565610
v  36.233303 15.140111 10.565610
v  36.233303 15.140111 10.495724
v  36.256279 15.054455 10.483891
v  36.256279 15.054455 10.577442
v  36.269051 15.147131 10.577442
v  36.269051 15.147131 10.483891
v  36.223766 15.070879 10.600827
v  36.223766 15.070879 10.670713
v  36.233303 15.140111 10.670713
v  36.233303 15.140111 10.600827
v  36.256279 15.054455 10.588995
v  36.256279 15.054455 10.682546
v  36.269051 15.147131 10.682546
v  36.269051 15.147131 10.588995
v  36.223766 15.070879 10.705930
v  36.223766 15.070879 10.775815
v  36.233303 15.140111 10.775815
v  36.233303 15.140111 10.705930
v  36.256279 15.054455 10.694097
v  36.256279 15.054455 10.787648
v  36.269051 15.147131 10.787648
v  36.269051 15.147131 10.694097
v  36.209042 14.964039 10.705930
v  36.209042 14.964039 10.775815
v  36.218578 15.033272 10.775815
v  36.218578 15.033272 10.705930
v  36.241554 14.947615 10.694097
v  36.241554 14.947615 10.787648
v  36.254326 15.040291 10.787648
v  36.254326 15.040291 10.694097
v  36.209042 14.964039 10.600827
v  36.209042 14.964039 10.670713
v  36.218578 15.033272 10.670713
v  36.218578 15.033272 10.600827
v  36.241554 14.947615 10.588995
v  36.241554 14.947615 10.682546
v  36.254326 15.040291 10.682546
v  36.254326 15.040291 10.588995
v  36.209042 14.964039 10.495724
v  36.209042 14.964039 10.565610
v  36.218578 15.033272 10.565610
v  36.218578 15.033272 10.495724
v  36.241554 14.947615 10.483891
v  36.241554 14.947615 10.577442
v  36.254326 15.040291 10.577442
v  36.254326 15.040291 10.483891
# 188 vertices

vt 0.711707 0.462515 0.000000
vt 0.711326 0.599142 0.000000
vt 0.574699 0.598762 0.000000
vt 0.575080 0.462135 0.000000
vt 0.608673 0.406562 0.000000
vt 0.624437 0.407252 0.000000
vt 0.624282 0.413409 0.000000
vt 0.608912 0.412741 0.000000
vt 0.671744 0.369260 0.000000
vt 0.595644 0.365933 0.000000
vt 0.573175 0.348807 0.000000
vt 0.697801 0.346380 0.000000
vt 0.672661 0.431952 0.000000
vt 0.678898 0.438640 0.000000
vt 0.592330 0.427848 0.000000
vt 0.585714 0.435426 0.000000
vt 0.667510 0.371940 0.000000
vt 0.599228 0.369536 0.000000
vt 0.668752 0.428297 0.000000
vt 0.597172 0.425107 0.000000
vt 0.664798 0.375467 0.000000
vt 0.601506 0.372052 0.000000
vt 0.664793 0.425421 0.000000
vt 0.601475 0.421274 0.000000
vt 0.628849 0.403452 0.000000
vt 0.605028 0.403558 0.000000
vt 0.627962 0.416405 0.000000
vt 0.604337 0.416645 0.000000
vt 0.606902 0.404812 0.000000
vt 0.626575 0.405266 0.000000
vt 0.625526 0.405908 0.000000
vt 0.607767 0.405625 0.000000
vt 0.626796 0.415252 0.000000
vt 0.625830 0.414433 0.000000
vt 0.605896 0.414898 0.000000
vt 0.607129 0.414230 0.000000
vt 0.574678 0.606543 0.000000
vt 0.719107 0.599164 0.000000
vt 0.719487 0.462537 0.000000
vt 0.567299 0.462113 0.000000
vt 0.566919 0.598740 0.000000
vt 0.855734 0.599545 0.000000
vt 0.711304 0.606923 0.000000
vt 0.711728 0.454735 0.000000
vt 0.575101 0.454354 0.000000
vt 0.856114 0.462918 0.000000
vt 0.964596 0.476529 0.000000
vt 0.974508 0.471654 0.000000
vt 0.972973 0.480070 0.000000
vt 0.956508 0.479872 0.000000
vt 0.960284 0.483713 0.000000
vt 0.964620 0.484462 0.000000
vt 0.968827 0.483250 0.000000
vt 0.984509 0.471470 0.000000
vt 0.976888 0.483083 0.000000
vt 0.952433 0.483222 0.000000
vt 0.958774 0.486946 0.000000
vt 0.964456 0.488047 0.000000
vt 0.970391 0.487167 0.000000
vt 0.985382 0.585168 0.000000
vt 0.978602 0.574157 0.000000
vt 0.954135 0.573893 0.000000
vt 0.960493 0.570220 0.000000
vt 0.966188 0.569126 0.000000
vt 0.972123 0.570011 0.000000
vt 0.976117 0.585103 0.000000
vt 0.974682 0.577096 0.000000
vt 0.958207 0.577344 0.000000
vt 0.962010 0.573469 0.000000
vt 0.966356 0.572712 0.000000
vt 0.970563 0.573917 0.000000
vt 0.966391 0.580650 0.000000
vt 0.954913 0.471969 0.000000
vt 0.945574 0.472148 0.000000
vt 0.946448 0.585576 0.000000
vt 0.956500 0.585649 0.000000
vt 0.964596 0.476530 0.000000
vt 0.974508 0.471654 0.000000
vt 0.972972 0.480070 0.000000
vt 0.956508 0.479872 0.000000
vt 0.960284 0.483713 0.000000
vt 0.964620 0.484463 0.000000
vt 0.968827 0.483250 0.000000
vt 0.984509 0.471470 0.000000
vt 0.976888 0.483083 0.000000
vt 0.952433 0.483222 0.000000
vt 0.958774 0.486946 0.000000
vt 0.964455 0.488047 0.000000
vt 0.970390 0.487167 0.000000
vt 0.985382 0.585168 0.000000
vt 0.978601 0.574157 0.000000
vt 0.954135 0.573893 0.000000
vt 0.960492 0.570220 0.000000
vt 0.966187 0.569126 0.000000
vt 0.972123 0.570011 0.000000
vt 0.976117 0.585103 0.000000
vt 0.974682 0.577096 0.000000
vt 0.958207 0.577344 0.000000
vt 0.962009 0.573469 0.000000
vt 0.966356 0.572712 0.000000
vt 0.970563 0.573917 0.000000
vt 0.966391 0.580650 0.000000
vt 0.954913 0.471969 0.000000
vt 0.945574 0.472148 0.000000
vt 0.946448 0.585576 0.000000
vt 0.956499 0.585649 0.000000
vt 0.733408 0.388666 0.000000
vt 0.777059 0.388666 0.000000
vt 0.777062 0.432320 0.000000
vt 0.733405 0.432320 0.000000
vt 0.725026 0.380262 0.000000
vt 0.785441 0.380262 0.000000
vt 0.785438 0.440675 0.000000
vt 0.725029 0.440675 0.000000
vt 0.804274 0.388666 0.000000
vt 0.847925 0.388666 0.000000
vt 0.847928 0.432320 0.000000
vt 0.804271 0.432320 0.000000
vt 0.795892 0.380262 0.000000
vt 0.856307 0.380262 0.000000
vt 0.856304 0.440675 0.000000
vt 0.795895 0.440675 0.000000
vt 0.874473 0.387329 0.000000
vt 0.918123 0.387329 0.000000
vt 0.918126 0.430983 0.000000
vt 0.874470 0.430983 0.000000
vt 0.866091 0.378925 0.000000
vt 0.926505 0.378925 0.000000
vt 0.926502 0.439338 0.000000
vt 0.866093 0.439338 0.000000
vt 0.874473 0.314458 0.000000
vt 0.918123 0.314458 0.000000
vt 0.918126 0.358112 0.000000
vt 0.874470 0.358112 0.000000
vt 0.866091 0.306053 0.000000
vt 0.926506 0.306053 0.000000
vt 0.926503 0.366466 0.000000
vt 0.866094 0.366466 0.000000
vt 0.804943 0.315795 0.000000
vt 0.848593 0.315795 0.000000
vt 0.848596 0.359449 0.000000
vt 0.804940 0.359449 0.000000
vt 0.796560 0.307390 0.000000
vt 0.856976 0.307390 0.000000
vt 0.856973 0.367803 0.000000
vt 0.796563 0.367803 0.000000
vt 0.734076 0.317800 0.000000
vt 0.777727 0.317800 0.000000
vt 0.777730 0.361454 0.000000
vt 0.734073 0.361454 0.000000
vt 0.725694 0.309396 0.000000
vt 0.786109 0.309396 0.000000
vt 0.786107 0.369809 0.000000
vt 0.725697 0.369809 0.000000
vt 0.733408 0.244258 0.000000
vt 0.777059 0.244258 0.000000
vt 0.777062 0.287912 0.000000
vt 0.733405 0.287912 0.000000
vt 0.725026 0.235854 0.000000
vt 0.785441 0.235854 0.000000
vt 0.785438 0.296266 0.000000
vt 0.725029 0.296266 0.000000
vt 0.803605 0.243590 0.000000
vt 0.847256 0.243590 0.000000
vt 0.847259 0.287243 0.000000
vt 0.803602 0.287243 0.000000
vt 0.795223 0.235186 0.000000
vt 0.855639 0.235186 0.000000
vt 0.855636 0.295597 0.000000
vt 0.795226 0.295597 0.000000
vt 0.872869 0.243390 0.000000
vt 0.916519 0.243390 0.000000
vt 0.916522 0.287043 0.000000
vt 0.872866 0.287043 0.000000
vt 0.864486 0.234986 0.000000
vt 0.924901 0.234986 0.000000
vt 0.924898 0.295398 0.000000
vt 0.864489 0.295398 0.000000
vt 0.873249 0.169053 0.000000
vt 0.916899 0.169053 0.000000
vt 0.916902 0.212706 0.000000
vt 0.873246 0.212706 0.000000
vt 0.864866 0.160648 0.000000
vt 0.925281 0.160648 0.000000
vt 0.925278 0.221060 0.000000
vt 0.864869 0.221060 0.000000
vt 0.804015 0.169611 0.000000
vt 0.847665 0.169611 0.000000
vt 0.847668 0.213264 0.000000
vt 0.804012 0.213264 0.000000
vt 0.795632 0.161206 0.000000
vt 0.856047 0.161206 0.000000
vt 0.856045 0.221618 0.000000
vt 0.795635 0.221618 0.000000
vt 0.733418 0.170479 0.000000
vt 0.777068 0.170479 0.000000
vt 0.777071 0.214132 0.000000
vt 0.733414 0.214132 0.000000
vt 0.725035 0.162075 0.000000
vt 0.785450 0.162075 0.000000
vt 0.785448 0.222487 0.000000
vt 0.725038 0.222487 0.000000
# 202 texture coords

o 2?_????___??_?
g 2?_????___??_?
f 1/1 2/2 3/3 4/4 
f 7/42 6/38 5/39 8/46 
f 2/2 1/1 5/39 6/38 
f 3/3 2/2 6/43 7/37 
f 4/4 3/3 7/41 8/40 
f 1/1 4/4 8/45 5/44 
f 29/5 30/6 31/7 32/8 
f 10/9 9/10 13/11 14/12 
f 11/13 10/9 14/12 15/14 
f 12/15 11/13 15/14 16/16 
f 9/10 12/15 16/16 13/11 
f 9/10 10/9 18/17 17/18 
f 10/9 11/13 19/19 18/17 
f 11/13 12/15 20/20 19/19 
f 12/15 9/10 17/18 20/20 
f 17/18 18/17 22/21 21/22 
f 18/17 19/19 23/23 22/21 
f 19/19 20/20 24/24 23/23 
f 20/20 17/18 21/22 24/24 
f 21/22 22/21 26/25 25/26 
f 22/21 23/23 27/27 26/25 
f 23/23 24/24 28/28 27/27 
f 24/24 21/22 25/26 28/28 
f 33/29 34/30 37/31 38/32 
f 34/30 35/33 40/34 37/31 
f 35/33 36/35 39/36 40/34 
f 36/35 33/29 38/32 39/36 
f 25/26 26/25 34/30 33/29 
f 26/25 27/27 35/33 34/30 
f 27/27 28/28 36/35 35/33 
f 28/28 25/26 33/29 36/35 
f 30/6 29/5 38/32 37/31 
f 29/5 32/8 39/36 38/32 
f 32/8 31/7 40/34 39/36 
f 31/7 30/6 37/31 40/34 
f 41/47 43/48 42/49 
f 41/47 44/50 43/73 
f 41/47 45/51 44/50 
f 41/47 46/52 45/51 
f 41/47 47/53 46/52 
f 41/47 42/49 47/53 
f 42/49 43/48 49/54 48/55 
f 43/73 44/50 50/56 49/74 
f 44/50 45/51 51/57 50/56 
f 45/51 46/52 52/58 51/57 
f 46/52 47/53 53/59 52/58 
f 47/53 42/49 48/55 53/59 
f 48/55 49/54 55/60 54/61 
f 49/74 50/56 56/62 55/75 
f 50/56 51/57 57/63 56/62 
f 51/57 52/58 58/64 57/63 
f 52/58 53/59 59/65 58/64 
f 53/59 48/55 54/61 59/65 
f 54/61 55/60 61/66 60/67 
f 55/75 56/62 62/68 61/76 
f 56/62 57/63 63/69 62/68 
f 57/63 58/64 64/70 63/69 
f 58/64 59/65 65/71 64/70 
f 59/65 54/61 60/67 65/71 
f 66/72 60/67 61/66 
f 66/72 61/76 62/68 
f 66/72 62/68 63/69 
f 66/72 63/69 64/70 
f 66/72 64/70 65/71 
f 66/72 65/71 60/67 
f 67/77 69/78 68/79 
f 67/77 70/80 69/103 
f 67/77 71/81 70/80 
f 67/77 72/82 71/81 
f 67/77 73/83 72/82 
f 67/77 68/79 73/83 
f 68/79 69/78 75/84 74/85 
f 69/103 70/80 76/86 75/104 
f 70/80 71/81 77/87 76/86 
f 71/81 72/82 78/88 77/87 
f 72/82 73/83 79/89 78/88 
f 73/83 68/79 74/85 79/89 
f 74/85 75/84 81/90 80/91 
f 75/104 76/86 82/92 81/105 
f 76/86 77/87 83/93 82/92 
f 77/87 78/88 84/94 83/93 
f 78/88 79/89 85/95 84/94 
f 79/89 74/85 80/91 85/95 
f 80/91 81/90 87/96 86/97 
f 81/105 82/92 88/98 87/106 
f 82/92 83/93 89/99 88/98 
f 83/93 84/94 90/100 89/99 
f 84/94 85/95 91/101 90/100 
f 85/95 80/91 86/97 91/101 
f 92/102 86/97 87/96 
f 92/102 87/106 88/98 
f 92/102 88/98 89/99 
f 92/102 89/99 90/100 
f 92/102 90/100 91/101 
f 92/102 91/101 86/97 
f 93/107 94/108 95/109 96/110 
f 94/108 93/107 97/111 98/112 
f 95/109 94/108 98/112 99/113 
f 96/110 95/109 99/113 100/114 
f 93/107 96/110 100/114 97/111 
f 101/115 102/116 103/117 104/118 
f 102/116 101/115 105/119 106/120 
f 103/117 102/116 106/120 107/121 
f 104/118 103/117 107/121 108/122 
f 101/115 104/118 108/122 105/119 
f 109/123 110/124 111/125 112/126 
f 110/124 109/123 113/127 114/128 
f 111/125 110/124 114/128 115/129 
f 112/126 111/125 115/129 116/130 
f 109/123 112/126 116/130 113/127 
f 117/131 118/132 119/133 120/134 
f 118/132 117/131 121/135 122/136 
f 119/133 118/132 122/136 123/137 
f 120/134 119/133 123/137 124/138 
f 117/131 120/134 124/138 121/135 
f 125/139 126/140 127/141 128/142 
f 126/140 125/139 129/143 130/144 
f 127/141 126/140 130/144 131/145 
f 128/142 127/141 131/145 132/146 
f 125/139 128/142 132/146 129/143 
f 133/147 134/148 135/149 136/150 
f 134/148 133/147 137/151 138/152 
f 135/149 134/148 138/152 139/153 
f 136/150 135/149 139/153 140/154 
f 133/147 136/150 140/154 137/151 
f 141/155 142/156 143/157 144/158 
f 142/156 141/155 145/159 146/160 
f 143/157 142/156 146/160 147/161 
f 144/158 143/157 147/161 148/162 
f 141/155 144/158 148/162 145/159 
f 149/163 150/164 151/165 152/166 
f 150/164 149/163 153/167 154/168 
f 151/165 150/164 154/168 155/169 
f 152/166 151/165 155/169 156/170 
f 149/163 152/166 156/170 153/167 
f 157/171 158/172 159/173 160/174 
f 158/172 157/171 161/175 162/176 
f 159/173 158/172 162/176 163/177 
f 160/174 159/173 163/177 164/178 
f 157/171 160/174 164/178 161/175 
f 165/179 166/180 167/181 168/182 
f 166/180 165/179 169/183 170/184 
f 167/181 166/180 170/184 171/185 
f 168/182 167/181 171/185 172/186 
f 165/179 168/182 172/186 169/183 
f 173/187 174/188 175/189 176/190 
f 174/188 173/187 177/191 178/192 
f 175/189 174/188 178/192 179/193 
f 176/190 175/189 179/193 180/194 
f 173/187 176/190 180/194 177/191 
f 181/195 182/196 183/197 184/198 
f 182/196 181/195 185/199 186/200 
f 183/197 182/196 186/200 187/201 
f 184/198 183/197 187/201 188/202 
f 181/195 184/198 188/202 185/199 
# 131 polygons - 24 triangles

