# 3ds Max Wavefront OBJ Exporter v0.97b - (c)2007 guruware
# File Created: 22.07.2021 22:09:26

#
# object Line001
#

v  36.043404 14.147931 46.318089
v  36.002342 14.240511 46.283867
v  35.919865 14.240511 46.215855
v  35.878452 14.147931 46.182064
v  35.919514 14.055351 46.216282
v  36.001991 14.055351 46.284294
v  36.363411 14.146428 45.930027
v  36.322922 14.239005 45.895107
v  36.241589 14.239000 45.825706
v  36.200745 14.146417 45.791225
v  36.241234 14.053840 45.826141
v  36.322567 14.053844 45.895542
v  36.672443 14.145000 45.579964
v  36.634018 14.237568 45.542709
v  36.556797 14.237543 45.468651
v  36.518002 14.144951 45.431847
v  36.556427 14.052383 45.469101
v  36.633648 14.052407 45.543159
v  36.959446 14.143723 45.304424
v  36.926102 14.236267 45.262291
v  36.859009 14.236198 45.178513
v  36.825260 14.143583 45.136864
v  36.858601 14.051038 45.178993
v  36.925694 14.051107 45.262775
v  37.205902 14.142696 45.141026
v  37.185936 14.235186 45.090027
v  37.145496 14.235005 44.988571
v  37.125027 14.142336 44.938118
v  37.144993 14.049846 44.989120
v  37.185432 14.050026 45.090572
v  37.383373 14.142042 45.109997
v  37.395329 14.234414 45.053413
v  37.418507 14.233999 44.940838
v  37.429726 14.141212 44.884846
v  37.417770 14.048841 44.941425
v  37.394596 14.049255 45.054005
v  37.522949 14.141641 45.201286
v  37.565758 14.233924 45.164883
v  37.650410 14.233332 45.092514
v  37.692257 14.140456 45.056549
v  37.649452 14.048173 45.092957
v  37.564796 14.048765 45.165325
v  37.657017 14.141352 45.499073
v  37.708973 14.233677 45.483223
v  37.812576 14.233167 45.452946
v  37.864223 14.140332 45.438519
v  37.812267 14.048007 45.454369
v  37.708660 14.048516 45.484646
v  37.717888 14.147266 45.913918
v  37.771591 14.239794 45.910294
v  37.879330 14.239742 45.908188
v  37.933361 14.147164 45.909702
v  37.879658 14.054636 45.913326
v  37.771919 14.054688 45.915436
v  37.678104 14.162572 46.285442
v  37.730598 14.255565 46.293213
v  37.835377 14.256644 46.318764
v  37.887661 14.164731 46.336548
v  37.835167 14.071738 46.328781
v  37.730389 14.070659 46.303226
v  37.561501 14.183035 46.583458
v  37.609150 14.276873 46.603638
v  37.702393 14.279963 46.658672
v  37.747986 14.189217 46.693527
v  37.700336 14.095378 46.673351
v  37.607094 14.092287 46.618317
v  37.397541 14.204055 46.778950
v  37.433491 14.299383 46.813103
v  37.499504 14.305942 46.900600
v  37.529568 14.217170 46.953945
v  37.493618 14.121841 46.919792
v  37.427605 14.115284 46.832294
v  37.219944 14.221296 46.855953
v  37.232147 14.318915 46.900433
v  37.243866 14.330706 47.011478
v  37.243382 14.244877 47.078041
v  37.231182 14.147258 47.033562
v  37.219463 14.135468 46.922516
v  37.032764 14.233617 46.815025
v  37.017036 14.333059 46.853428
v  36.965698 14.348966 46.950687
v  36.930084 14.265429 47.009548
v  36.945808 14.165987 46.971149
v  36.997147 14.150080 46.873886
v  36.815044 14.239074 46.604786
v  36.787533 14.338889 46.631569
v  36.707668 14.355712 46.701244
v  36.655315 14.272719 46.744133
v  36.682827 14.172903 46.717350
v  36.762691 14.156080 46.647675
v  36.608475 14.248083 46.318394
v  36.581192 14.347947 46.345253
v  36.496307 14.365142 46.407925
v  36.438705 14.282474 46.443741
v  36.465988 14.182610 46.416878
v  36.550873 14.165414 46.354206
v  36.451176 14.272106 46.101910
v  36.427151 14.371442 46.133366
v  36.340679 14.388808 46.193871
v  36.278233 14.306840 46.222923
v  36.302258 14.207505 46.191471
v  36.388729 14.190138 46.130962
v  36.356529 14.302756 45.947449
v  36.333340 14.401720 45.980568
v  36.238770 14.421520 46.027912
v  36.167385 14.342356 46.042133
v  36.190571 14.243392 46.009014
v  36.285145 14.223593 45.961670
v  36.323387 14.330824 45.839466
v  36.297981 14.431280 45.866467
v  36.193382 14.459059 45.881462
v  36.114185 14.386381 45.869461
v  36.139591 14.285924 45.842461
v  36.244190 14.258145 45.827461
v  36.337421 14.354398 45.743546
v  36.313709 14.458200 45.756344
v  36.214912 14.495488 45.730507
v  36.139832 14.428973 45.691872
v  36.163548 14.325171 45.679073
v  36.262341 14.287883 45.704910
v  36.409657 14.374832 45.612373
v  36.392834 14.480590 45.612194
v  36.308098 14.521639 45.560631
v  36.240181 14.456929 45.509243
v  36.257000 14.351171 45.509418
v  36.341740 14.310122 45.560986
v  36.556046 14.383607 45.424164
v  36.545269 14.489730 45.416252
v  36.470318 14.531384 45.352119
v  36.406143 14.466918 45.295898
v  36.416924 14.360795 45.303810
v  36.491875 14.319139 45.367943
v  36.746391 14.378839 45.224972
v  36.739941 14.484864 45.212631
v  36.674858 14.526339 45.138210
v  36.616226 14.461787 45.076134
v  36.622677 14.355762 45.088474
v  36.687759 14.314288 45.162895
v  36.943279 14.366910 45.073299
v  36.941036 14.472685 45.057743
v  36.890106 14.513325 44.972435
v  36.841419 14.448190 44.902679
v  36.843662 14.342416 44.918232
v  36.894592 14.301775 45.003544
v  37.137711 14.351042 44.974648
v  37.140301 14.456429 44.956676
v  37.109192 14.495484 44.861324
v  37.075493 14.429153 44.783943
v  37.072903 14.323768 44.801914
v  37.104012 14.284712 44.897266
v  37.319500 14.334529 44.933170
v  37.327686 14.439416 44.913967
v  37.324642 14.475970 44.812229
v  37.313416 14.407637 44.729694
v  37.305229 14.302750 44.748898
v  37.308273 14.266196 44.850636
v  37.481846 14.320159 44.949497
v  37.495869 14.424541 44.930935
v  37.528324 14.458013 44.832787
v  37.546757 14.387104 44.753204
v  37.532738 14.282722 44.771767
v  37.500282 14.249249 44.869915
v  37.626469 14.309754 45.026291
v  37.645084 14.413816 45.010223
v  37.711143 14.444930 44.929939
v  37.758587 14.371981 44.865726
v  37.739971 14.267919 44.881794
v  37.673912 14.236806 44.962078
v  37.758102 14.305391 45.180012
v  37.778740 14.409397 45.166386
v  37.864159 14.439925 45.108734
v  37.928936 14.366446 45.064713
v  37.908298 14.262441 45.078339
v  37.822880 14.231913 45.135990
v  37.871311 14.309344 45.396999
v  37.892559 14.413372 45.384548
v  37.986351 14.444197 45.342953
v  38.058895 14.370993 45.313808
v  38.037647 14.266964 45.326260
v  37.943855 14.236139 45.367855
v  37.954746 14.319704 45.635361
v  37.976551 14.423794 45.624432
v  38.075359 14.455217 45.597145
v  38.152363 14.382551 45.580791
v  38.130558 14.278461 45.591721
v  38.031750 14.247038 45.619007
v  37.997002 14.333675 45.878510
v  38.019360 14.437935 45.870625
v  38.121307 14.470371 45.861374
v  38.200901 14.398548 45.860008
v  38.178547 14.294289 45.867893
v  38.076595 14.261852 45.877144
v  37.990086 14.348577 46.114128
v  38.012321 14.453137 46.111095
v  38.113609 14.487000 46.124798
v  38.192654 14.416302 46.141533
v  38.170418 14.311740 46.144566
v  38.069134 14.277878 46.130863
v  37.927383 14.361928 46.331898
v  37.947777 14.466881 46.335358
v  38.041275 14.502377 46.376133
v  38.114384 14.432920 46.413448
v  38.093987 14.327967 46.409988
v  38.000488 14.292471 46.369213
v  37.801281 14.371591 46.525448
v  37.817234 14.476881 46.535767
v  37.893520 14.513673 46.602978
v  37.953850 14.445174 46.659874
v  37.937897 14.339884 46.649559
v  37.861610 14.303093 46.582344
v  37.601269 14.375153 46.688351
v  37.612061 14.480573 46.702595
v  37.662289 14.518052 46.790924
v  37.701721 14.450111 46.865005
v  37.690929 14.344691 46.850758
v  37.640701 14.307212 46.762432
v  37.345722 14.383656 46.776901
v  37.354191 14.489181 46.791771
v  37.371635 14.527935 46.891384
v  37.380608 14.461164 46.976131
v  37.372135 14.355639 46.961262
v  37.354694 14.316885 46.861649
v  37.070381 14.406372 46.768150
v  37.078232 14.511946 46.783016
v  37.065147 14.553201 46.881664
v  37.044212 14.488881 46.965450
v  37.036366 14.383307 46.950584
v  37.049450 14.342053 46.851936
v  36.796478 14.438190 46.679462
v  36.803425 14.543865 46.694054
v  36.767262 14.587783 46.785240
v  36.724152 14.526024 46.861835
v  36.717205 14.420348 46.847244
v  36.753368 14.376431 46.756058
v  36.553856 14.473039 46.531605
v  36.559555 14.578891 46.545456
v  36.504330 14.625526 46.625038
v  36.443413 14.566311 46.690769
v  36.437714 14.460459 46.676914
v  36.492935 14.413822 46.597336
v  36.372520 14.504331 46.350529
v  36.376450 14.610483 46.362652
v  36.302605 14.660307 46.423653
v  36.224831 14.603979 46.472534
v  36.220898 14.497827 46.460407
v  36.294743 14.448002 46.399406
v  36.278824 14.525496 46.168888
v  36.280602 14.632126 46.176918
v  36.188633 14.686001 46.202831
v  36.094887 14.633246 46.220715
v  36.093109 14.526617 46.212681
v  36.185078 14.472742 46.186771
v  36.280941 14.533262 45.997513
v  36.282982 14.640036 46.002361
v  36.191635 14.695923 45.988968
v  36.098251 14.645037 45.970726
v  36.096210 14.538263 45.965878
v  36.187557 14.482376 45.979271
v  36.347015 14.540391 45.803226
v  36.348476 14.647073 45.810394
v  36.261974 14.703653 45.783108
v  36.174015 14.653551 45.748650
v  36.172554 14.546869 45.741482
v  36.259056 14.490289 45.768768
v  36.425129 14.558771 45.593304
v  36.425282 14.665156 45.603870
v  36.339844 14.721954 45.573658
v  36.254253 14.672366 45.532883
v  36.254105 14.565981 45.522320
v  36.339542 14.509183 45.552528
v  36.514297 14.579844 45.402916
v  36.513985 14.686133 45.414352
v  36.432930 14.743930 45.374725
v  36.352184 14.695438 45.323658
v  36.352493 14.589149 45.312222
v  36.433552 14.531352 45.351849
v  36.616791 14.596291 45.250999
v  36.617496 14.702753 45.260826
v  36.547974 14.762351 45.204037
v  36.477745 14.715487 45.137424
v  36.477039 14.609024 45.127598
v  36.546562 14.549426 45.184387
v  36.731136 14.602140 45.152950
v  36.736027 14.708822 45.159088
v  36.692772 14.769691 45.079708
v  36.644634 14.723879 44.994186
v  36.639748 14.617196 44.988045
v  36.682999 14.556327 45.067429
v  36.862122 14.593656 45.111790
v  36.875221 14.699805 45.115273
v  36.874302 14.757854 45.022533
v  36.860287 14.709751 44.926311
v  36.847191 14.603601 44.922829
v  36.848106 14.545553 45.015568
v  37.043415 14.561829 45.136730
v  37.061260 14.667142 45.141079
v  37.091183 14.719982 45.052708
v  37.103256 14.667509 44.959988
v  37.085415 14.562196 44.955643
v  37.055492 14.509356 45.044014
v  37.269550 14.520175 45.211044
v  37.284184 14.626071 45.214493
v  37.321522 14.677681 45.128643
v  37.344231 14.623394 45.039337
v  37.329597 14.517497 45.035889
v  37.292259 14.465888 45.121738
v  37.492325 14.494554 45.291550
v  37.501080 14.601129 45.292820
v  37.540390 14.652467 45.207653
v  37.570950 14.597231 45.121216
v  37.562199 14.490656 45.119942
v  37.522884 14.439317 45.205109
v  37.687210 14.483314 45.380928
v  37.691147 14.590168 45.379921
v  37.738358 14.640993 45.298344
v  37.781635 14.584965 45.217773
v  37.777699 14.478110 45.218777
v  37.730484 14.427285 45.300354
v  37.840015 14.482963 45.483192
v  37.840233 14.589825 45.479595
v  37.902313 14.640534 45.407917
v  37.964172 14.584381 45.339828
v  37.963955 14.477519 45.343422
v  37.901878 14.426809 45.415104
v  37.940445 14.489758 45.599983
v  37.938507 14.596468 45.593719
v  38.019562 14.648348 45.544014
v  38.102554 14.593516 45.500572
v  38.104496 14.486807 45.506836
v  38.023441 14.434927 45.556541
v  37.986958 14.500722 45.738735
v  37.984566 14.607304 45.730808
v  38.077099 14.661765 45.715141
v  38.172020 14.609643 45.707397
v  38.174412 14.503060 45.715324
v  38.081879 14.448600 45.730991
v  37.972652 14.514794 45.922829
v  37.970329 14.621417 45.915401
v  38.060585 14.678076 45.929871
v  38.153164 14.628113 45.951763
v  38.155487 14.521490 45.959190
v  38.065231 14.464831 45.944725
v  37.902611 14.526257 46.134258
v  37.899696 14.632983 46.128735
v  37.983715 14.690634 46.162086
v  38.070652 14.641559 46.200966
v  38.073570 14.534832 46.206490
v  37.989548 14.477181 46.173138
v  37.801056 14.531129 46.327911
v  37.797256 14.637896 46.324017
v  37.873333 14.695949 46.372490
v  37.953209 14.647235 46.424858
v  37.957008 14.540468 46.428749
v  37.880932 14.482415 46.380276
v  37.674549 14.531117 46.488922
v  37.670135 14.637883 46.485767
v  37.734230 14.695960 46.549461
v  37.802742 14.647272 46.616306
v  37.807156 14.540506 46.619461
v  37.743061 14.482430 46.555767
v  37.529491 14.528131 46.606861
v  37.525070 14.634895 46.603668
v  37.570995 14.692630 46.682110
v  37.621338 14.643600 46.763744
v  37.625759 14.536836 46.766937
v  37.579834 14.479101 46.688496
v  37.371819 14.524020 46.673943
v  37.368439 14.630811 46.670269
v  37.388298 14.687902 46.759777
v  37.411533 14.638204 46.852959
v  37.414913 14.531414 46.856636
v  37.395054 14.474322 46.767128
v  37.203087 14.520397 46.684597
v  37.201912 14.627233 46.680748
v  37.190498 14.683689 46.772205
v  37.180252 14.633309 46.867516
v  37.181427 14.526474 46.871368
v  37.192841 14.470017 46.779907
v  37.010654 14.518401 46.626785
v  37.015511 14.625276 46.624355
v  36.984489 14.681882 46.709698
v  36.948612 14.631613 46.797462
v  36.943756 14.524738 46.799889
v  36.974777 14.468133 46.714550
v  36.791988 14.536817 46.522007
v  36.805672 14.642941 46.523605
v  36.772762 14.699866 46.607933
v  36.726177 14.650668 46.690655
v  36.712494 14.544543 46.689056
v  36.745403 14.487617 46.604729
v  36.571316 14.578362 46.415024
v  36.589821 14.683577 46.419006
v  36.557972 14.740268 46.503868
v  36.507614 14.691745 46.584743
v  36.489105 14.586530 46.580761
v  36.520954 14.529839 46.495899
v  36.371838 14.618725 46.309879
v  36.387062 14.724601 46.312183
v  36.349133 14.782479 46.393871
v  36.295982 14.734480 46.473251
v  36.280758 14.628604 46.470943
v  36.318687 14.570725 46.389259
v  36.209366 14.636497 46.208347
v  36.210835 14.743873 46.202137
v  36.157028 14.803427 46.273945
v  36.101753 14.755604 46.351963
v  36.100281 14.648228 46.358173
v  36.154087 14.588674 46.286366
v  36.098892 14.616563 46.115658
v  36.074139 14.719206 46.087578
v  35.992790 14.773701 46.136360
v  35.936195 14.725552 46.213223
v  35.960949 14.622909 46.241299
v  36.042297 14.568414 46.192516
v  36.037506 14.549983 46.027550
v  35.989826 14.627815 45.966751
v  35.885323 14.657116 45.982399
v  35.828499 14.608586 46.058846
v  35.876179 14.530755 46.119644
v  35.980682 14.501453 46.103996
v  36.021542 14.388963 45.913624
v  35.971886 14.446874 45.838730
v  35.865414 14.456306 45.840321
v  35.808594 14.407825 45.916805
v  35.858250 14.349915 45.991695
v  35.964722 14.340483 45.990105
# 426 vertices

o Line001
g Line001
f 8 2 1 7 
f 9 3 2 8 
f 10 4 3 9 
f 11 5 4 10 
f 12 6 5 11 
f 7 1 6 12 
f 14 8 7 13 
f 15 9 8 14 
f 16 10 9 15 
f 17 11 10 16 
f 18 12 11 17 
f 13 7 12 18 
f 20 14 13 19 
f 21 15 14 20 
f 22 16 15 21 
f 23 17 16 22 
f 24 18 17 23 
f 19 13 18 24 
f 26 20 19 25 
f 27 21 20 26 
f 28 22 21 27 
f 29 23 22 28 
f 30 24 23 29 
f 25 19 24 30 
f 32 26 25 31 
f 33 27 26 32 
f 34 28 27 33 
f 35 29 28 34 
f 36 30 29 35 
f 31 25 30 36 
f 38 32 31 37 
f 39 33 32 38 
f 40 34 33 39 
f 41 35 34 40 
f 42 36 35 41 
f 37 31 36 42 
f 44 38 37 43 
f 45 39 38 44 
f 46 40 39 45 
f 47 41 40 46 
f 48 42 41 47 
f 43 37 42 48 
f 50 44 43 49 
f 51 45 44 50 
f 52 46 45 51 
f 53 47 46 52 
f 54 48 47 53 
f 49 43 48 54 
f 56 50 49 55 
f 57 51 50 56 
f 58 52 51 57 
f 59 53 52 58 
f 60 54 53 59 
f 55 49 54 60 
f 62 56 55 61 
f 63 57 56 62 
f 64 58 57 63 
f 65 59 58 64 
f 66 60 59 65 
f 61 55 60 66 
f 68 62 61 67 
f 69 63 62 68 
f 70 64 63 69 
f 71 65 64 70 
f 72 66 65 71 
f 67 61 66 72 
f 74 68 67 73 
f 75 69 68 74 
f 76 70 69 75 
f 77 71 70 76 
f 78 72 71 77 
f 73 67 72 78 
f 80 74 73 79 
f 81 75 74 80 
f 82 76 75 81 
f 83 77 76 82 
f 84 78 77 83 
f 79 73 78 84 
f 86 80 79 85 
f 87 81 80 86 
f 88 82 81 87 
f 89 83 82 88 
f 90 84 83 89 
f 85 79 84 90 
f 92 86 85 91 
f 93 87 86 92 
f 94 88 87 93 
f 95 89 88 94 
f 96 90 89 95 
f 91 85 90 96 
f 98 92 91 97 
f 99 93 92 98 
f 100 94 93 99 
f 101 95 94 100 
f 102 96 95 101 
f 97 91 96 102 
f 104 98 97 103 
f 105 99 98 104 
f 106 100 99 105 
f 107 101 100 106 
f 108 102 101 107 
f 103 97 102 108 
f 110 104 103 109 
f 111 105 104 110 
f 112 106 105 111 
f 113 107 106 112 
f 114 108 107 113 
f 109 103 108 114 
f 116 110 109 115 
f 117 111 110 116 
f 118 112 111 117 
f 119 113 112 118 
f 120 114 113 119 
f 115 109 114 120 
f 122 116 115 121 
f 123 117 116 122 
f 124 118 117 123 
f 125 119 118 124 
f 126 120 119 125 
f 121 115 120 126 
f 128 122 121 127 
f 129 123 122 128 
f 130 124 123 129 
f 131 125 124 130 
f 132 126 125 131 
f 127 121 126 132 
f 134 128 127 133 
f 135 129 128 134 
f 136 130 129 135 
f 137 131 130 136 
f 138 132 131 137 
f 133 127 132 138 
f 140 134 133 139 
f 141 135 134 140 
f 142 136 135 141 
f 143 137 136 142 
f 144 138 137 143 
f 139 133 138 144 
f 146 140 139 145 
f 147 141 140 146 
f 148 142 141 147 
f 149 143 142 148 
f 150 144 143 149 
f 145 139 144 150 
f 152 146 145 151 
f 153 147 146 152 
f 154 148 147 153 
f 155 149 148 154 
f 156 150 149 155 
f 151 145 150 156 
f 158 152 151 157 
f 159 153 152 158 
f 160 154 153 159 
f 161 155 154 160 
f 162 156 155 161 
f 157 151 156 162 
f 164 158 157 163 
f 165 159 158 164 
f 166 160 159 165 
f 167 161 160 166 
f 168 162 161 167 
f 163 157 162 168 
f 170 164 163 169 
f 171 165 164 170 
f 172 166 165 171 
f 173 167 166 172 
f 174 168 167 173 
f 169 163 168 174 
f 176 170 169 175 
f 177 171 170 176 
f 178 172 171 177 
f 179 173 172 178 
f 180 174 173 179 
f 175 169 174 180 
f 182 176 175 181 
f 183 177 176 182 
f 184 178 177 183 
f 185 179 178 184 
f 186 180 179 185 
f 181 175 180 186 
f 188 182 181 187 
f 189 183 182 188 
f 190 184 183 189 
f 191 185 184 190 
f 192 186 185 191 
f 187 181 186 192 
f 194 188 187 193 
f 195 189 188 194 
f 196 190 189 195 
f 197 191 190 196 
f 198 192 191 197 
f 193 187 192 198 
f 200 194 193 199 
f 201 195 194 200 
f 202 196 195 201 
f 203 197 196 202 
f 204 198 197 203 
f 199 193 198 204 
f 206 200 199 205 
f 207 201 200 206 
f 208 202 201 207 
f 209 203 202 208 
f 210 204 203 209 
f 205 199 204 210 
f 212 206 205 211 
f 213 207 206 212 
f 214 208 207 213 
f 215 209 208 214 
f 216 210 209 215 
f 211 205 210 216 
f 218 212 211 217 
f 219 213 212 218 
f 220 214 213 219 
f 221 215 214 220 
f 222 216 215 221 
f 217 211 216 222 
f 224 218 217 223 
f 225 219 218 224 
f 226 220 219 225 
f 227 221 220 226 
f 228 222 221 227 
f 223 217 222 228 
f 230 224 223 229 
f 231 225 224 230 
f 232 226 225 231 
f 233 227 226 232 
f 234 228 227 233 
f 229 223 228 234 
f 236 230 229 235 
f 237 231 230 236 
f 238 232 231 237 
f 239 233 232 238 
f 240 234 233 239 
f 235 229 234 240 
f 242 236 235 241 
f 243 237 236 242 
f 244 238 237 243 
f 245 239 238 244 
f 246 240 239 245 
f 241 235 240 246 
f 248 242 241 247 
f 249 243 242 248 
f 250 244 243 249 
f 251 245 244 250 
f 252 246 245 251 
f 247 241 246 252 
f 254 248 247 253 
f 255 249 248 254 
f 256 250 249 255 
f 257 251 250 256 
f 258 252 251 257 
f 253 247 252 258 
f 260 254 253 259 
f 261 255 254 260 
f 262 256 255 261 
f 263 257 256 262 
f 264 258 257 263 
f 259 253 258 264 
f 266 260 259 265 
f 267 261 260 266 
f 268 262 261 267 
f 269 263 262 268 
f 270 264 263 269 
f 265 259 264 270 
f 272 266 265 271 
f 273 267 266 272 
f 274 268 267 273 
f 275 269 268 274 
f 276 270 269 275 
f 271 265 270 276 
f 278 272 271 277 
f 279 273 272 278 
f 280 274 273 279 
f 281 275 274 280 
f 282 276 275 281 
f 277 271 276 282 
f 284 278 277 283 
f 285 279 278 284 
f 286 280 279 285 
f 287 281 280 286 
f 288 282 281 287 
f 283 277 282 288 
f 290 284 283 289 
f 291 285 284 290 
f 292 286 285 291 
f 293 287 286 292 
f 294 288 287 293 
f 289 283 288 294 
f 296 290 289 295 
f 297 291 290 296 
f 298 292 291 297 
f 299 293 292 298 
f 300 294 293 299 
f 295 289 294 300 
f 302 296 295 301 
f 303 297 296 302 
f 304 298 297 303 
f 305 299 298 304 
f 306 300 299 305 
f 301 295 300 306 
f 308 302 301 307 
f 309 303 302 308 
f 310 304 303 309 
f 311 305 304 310 
f 312 306 305 311 
f 307 301 306 312 
f 314 308 307 313 
f 315 309 308 314 
f 316 310 309 315 
f 317 311 310 316 
f 318 312 311 317 
f 313 307 312 318 
f 320 314 313 319 
f 321 315 314 320 
f 322 316 315 321 
f 323 317 316 322 
f 324 318 317 323 
f 319 313 318 324 
f 326 320 319 325 
f 327 321 320 326 
f 328 322 321 327 
f 329 323 322 328 
f 330 324 323 329 
f 325 319 324 330 
f 332 326 325 331 
f 333 327 326 332 
f 334 328 327 333 
f 335 329 328 334 
f 336 330 329 335 
f 331 325 330 336 
f 338 332 331 337 
f 339 333 332 338 
f 340 334 333 339 
f 341 335 334 340 
f 342 336 335 341 
f 337 331 336 342 
f 344 338 337 343 
f 345 339 338 344 
f 346 340 339 345 
f 347 341 340 346 
f 348 342 341 347 
f 343 337 342 348 
f 350 344 343 349 
f 351 345 344 350 
f 352 346 345 351 
f 353 347 346 352 
f 354 348 347 353 
f 349 343 348 354 
f 356 350 349 355 
f 357 351 350 356 
f 358 352 351 357 
f 359 353 352 358 
f 360 354 353 359 
f 355 349 354 360 
f 362 356 355 361 
f 363 357 356 362 
f 364 358 357 363 
f 365 359 358 364 
f 366 360 359 365 
f 361 355 360 366 
f 368 362 361 367 
f 369 363 362 368 
f 370 364 363 369 
f 371 365 364 370 
f 372 366 365 371 
f 367 361 366 372 
f 374 368 367 373 
f 375 369 368 374 
f 376 370 369 375 
f 377 371 370 376 
f 378 372 371 377 
f 373 367 372 378 
f 380 374 373 379 
f 381 375 374 380 
f 382 376 375 381 
f 383 377 376 382 
f 384 378 377 383 
f 379 373 378 384 
f 386 380 379 385 
f 387 381 380 386 
f 388 382 381 387 
f 389 383 382 388 
f 390 384 383 389 
f 385 379 384 390 
f 392 386 385 391 
f 393 387 386 392 
f 394 388 387 393 
f 395 389 388 394 
f 396 390 389 395 
f 391 385 390 396 
f 398 392 391 397 
f 399 393 392 398 
f 400 394 393 399 
f 401 395 394 400 
f 402 396 395 401 
f 397 391 396 402 
f 404 398 397 403 
f 405 399 398 404 
f 406 400 399 405 
f 407 401 400 406 
f 408 402 401 407 
f 403 397 402 408 
f 410 404 403 409 
f 411 405 404 410 
f 412 406 405 411 
f 413 407 406 412 
f 414 408 407 413 
f 409 403 408 414 
f 416 410 409 415 
f 417 411 410 416 
f 418 412 411 417 
f 419 413 412 418 
f 420 414 413 419 
f 415 409 414 420 
f 422 416 415 421 
f 423 417 416 422 
f 424 418 417 423 
f 425 419 418 424 
f 426 420 419 425 
f 421 415 420 426 
f 5 6 1 2 3 4 
f 421 426 425 424 423 422 
# 422 polygons

