# 3ds Max Wavefront OBJ Exporter v0.97b - (c)2007 guruware
# File Created: 05.08.2021 10:24:58

#
# object 2?_????___??
#

v  31.278757 14.136641 5.769657
v  31.223747 14.954170 5.769657
v  31.278757 14.136641 7.424587
v  31.223747 14.954170 7.424587
v  31.249165 14.134651 5.769657
v  31.194159 14.952181 5.769657
v  31.249165 14.134651 7.424587
v  31.194159 14.952181 7.424587
v  31.181768 14.991549 6.041985
v  31.147459 15.014059 6.460958
v  31.147459 15.014059 6.733286
v  31.181768 14.991549 7.152259
v  31.236778 14.136641 7.152259
v  31.202469 14.136641 6.733286
v  31.202469 14.136641 6.460958
v  31.236778 14.136641 6.041985
v  31.152180 14.989559 7.152259
v  31.117872 15.012069 6.733286
v  31.117872 15.012069 6.460958
v  31.152182 14.989559 6.041985
v  31.207186 14.134651 6.041985
v  31.172882 14.134651 6.460958
v  31.172882 14.134651 6.733286
v  31.207186 14.134651 7.152259
v  33.188442 12.659908 5.578515
v  33.272305 12.659908 5.655981
v  33.272305 12.830124 5.655981
v  33.188442 12.830124 5.578515
v  33.272305 12.659908 7.537931
v  33.188442 12.659908 7.615392
v  33.188442 12.830124 7.615392
v  33.272305 12.830124 7.537931
v  31.384710 12.659908 5.713220
v  31.468575 12.659908 5.641336
v  31.468575 12.830125 5.641336
v  31.384710 12.830125 5.713220
v  31.468573 12.659908 7.552571
v  31.384708 12.659908 7.480687
v  31.384708 12.830125 7.480687
v  31.468573 12.830125 7.552571
v  31.392265 10.689572 7.372060
v  31.404148 10.689572 7.383928
v  31.265823 15.033850 7.383928
v  31.253941 15.033850 7.372060
v  31.404148 10.689572 7.491250
v  31.392265 10.689572 7.503119
v  31.253941 15.033850 7.503119
v  31.265823 15.033850 7.491250
v  31.273090 10.689572 7.383928
v  31.284969 10.689572 7.372060
v  31.146643 15.033850 7.372060
v  31.134760 15.033850 7.383928
v  31.284969 10.689572 7.503119
v  31.273090 10.689572 7.491250
v  31.134760 15.033850 7.491250
v  31.146643 15.033850 7.503119
v  31.404148 12.830125 7.383928
v  31.392265 12.830125 7.372060
v  31.404148 12.830125 7.491250
v  31.392265 12.830125 7.503119
v  31.284969 12.830125 7.503119
v  31.273087 12.830125 7.491250
v  31.273087 12.830125 7.383928
v  31.284969 12.830125 7.372060
v  31.392265 10.689572 5.684556
v  31.404148 10.689572 5.696424
v  31.265823 15.033850 5.696424
v  31.253941 15.033850 5.684556
v  31.404148 10.689572 5.803746
v  31.392265 10.689572 5.815614
v  31.253941 15.033850 5.815614
v  31.265823 15.033850 5.803746
v  31.273087 10.689572 5.696424
v  31.284969 10.689572 5.684556
v  31.146643 15.033850 5.684556
v  31.134760 15.033850 5.696424
v  31.284969 10.689572 5.815614
v  31.273087 10.689572 5.803746
v  31.134760 15.033850 5.803746
v  31.146643 15.033850 5.815614
v  31.404150 12.830125 5.696424
v  31.392267 12.830125 5.684556
v  31.404150 12.830125 5.803746
v  31.392267 12.830125 5.815614
v  31.284969 12.830125 5.815614
v  31.273087 12.830125 5.803746
v  31.273087 12.830125 5.696424
v  31.284969 12.830125 5.684556
v  33.158161 10.689572 7.372061
v  33.170029 10.689572 7.383929
v  33.170029 10.689572 7.491251
v  33.158161 10.689572 7.503119
v  33.038971 10.689572 7.383929
v  33.050838 10.689572 7.372060
v  33.050838 10.689572 7.503119
v  33.038971 10.689572 7.491251
v  33.170029 12.790092 7.383929
v  33.158161 12.790092 7.372061
v  33.158161 12.790092 7.503119
v  33.170029 12.790092 7.491251
v  33.038971 12.790092 7.491251
v  33.050838 12.790092 7.503119
v  33.050838 12.790092 7.372060
v  33.038971 12.790092 7.383929
v  33.158161 10.689572 5.677136
v  33.170029 10.689572 5.689010
v  33.170029 10.689572 5.796327
v  33.158161 10.689572 5.808199
v  33.038971 10.689572 5.689009
v  33.050838 10.689572 5.677136
v  33.050838 10.689572 5.808199
v  33.038971 10.689572 5.796326
v  33.170029 12.790092 5.689010
v  33.158161 12.790092 5.677136
v  33.158161 12.790092 5.808199
v  33.170029 12.790092 5.796327
v  33.038971 12.790092 5.796326
v  33.050838 12.790092 5.808199
v  33.050838 12.790092 5.677136
v  33.038971 12.790092 5.689009
v  33.224384 12.659908 5.703757
v  33.144783 12.659908 5.630226
v  33.144783 12.659908 7.563686
v  33.224384 12.659908 7.490156
v  31.432627 12.659908 7.435820
v  31.512234 12.659908 7.504052
v  31.512234 12.659908 5.689855
v  31.432627 12.659908 5.758087
v  33.224384 12.769396 5.703757
v  33.144783 12.769396 5.630226
v  33.144783 12.769396 7.563686
v  33.224384 12.769396 7.490156
v  31.432627 12.769396 7.435820
v  31.512234 12.769396 7.504052
v  31.512234 12.769396 5.689855
v  31.432627 12.769396 5.758087
# 136 vertices

vt 0.897534 0.991004 0.000000
vt 0.000304 0.387536 0.000000
vt 0.000306 0.950264 0.000000
vt 0.000304 0.929337 0.000000
vt 0.000304 0.449097 0.000000
vt 0.000304 0.978358 0.000000
vt 0.417855 0.974391 0.000000
vt 0.729497 0.999696 0.000000
vt 0.647205 0.138362 0.000000
vt 0.339108 0.999696 0.000000
vt 0.644892 0.114525 0.000000
vt 0.875587 0.373603 0.000000
vt 0.828460 0.766418 0.000000
vt 0.840565 0.749957 0.000000
vt 0.848408 0.880974 0.000000
vt 0.513921 0.434515 0.000000
vt 0.567199 0.440303 0.000000
vt 0.432801 0.380262 0.000000
vt 0.446598 0.040312 0.000000
vt 0.670434 0.135441 0.000000
vt 0.875587 0.376875 0.000000
vt 0.875587 0.352688 0.000000
vt 0.668120 0.111604 0.000000
vt 0.866200 0.422586 0.000000
vt 0.875587 0.431849 0.000000
vt 0.362778 0.433583 0.000000
vt 0.644892 0.088378 0.000000
vt 0.848562 0.876938 0.000000
vt 0.848415 0.852732 0.000000
vt 0.417784 0.852686 0.000000
vt 0.417129 0.831812 0.000000
vt 0.647205 0.085454 0.000000
vt 0.644892 0.056991 0.000000
vt 0.417857 0.855961 0.000000
vt 0.644892 0.062228 0.000000
vt 0.647205 0.059912 0.000000
vt 0.417858 0.876896 0.000000
vt 0.647207 0.059304 0.000000
vt 0.377717 0.725266 0.000000
vt 0.412793 0.042194 0.000000
vt 0.466749 0.270923 0.000000
vt 0.647207 0.033762 0.000000
vt 0.647205 0.112212 0.000000
vt 0.670433 0.161589 0.000000
vt 0.644892 0.161589 0.000000
vt 0.466230 0.397790 0.000000
vt 0.670434 0.088378 0.000000
vt 0.850628 0.757738 0.000000
vt 0.647205 0.086062 0.000000
vt 0.670434 0.056991 0.000000
vt 0.897534 0.325229 0.000000
vt 0.467170 0.188999 0.000000
vt 0.377717 0.433583 0.000000
vt 0.423379 0.399129 0.000000
vt 0.417058 0.905207 0.000000
vt 0.848550 0.974476 0.000000
vt 0.668120 0.138362 0.000000
vt 0.787074 0.681514 0.000000
vt 0.787074 0.684787 0.000000
vt 0.787074 0.705702 0.000000
vt 0.787074 0.636412 0.000000
vt 0.417785 0.880176 0.000000
vt 0.514141 0.440303 0.000000
vt 0.851236 0.439053 0.000000
vt 0.727390 0.734806 0.000000
vt 0.787074 0.612225 0.000000
vt 0.392456 0.759425 0.000000
vt 0.014679 0.025208 0.000000
vt 0.677742 0.015093 0.000000
vt 0.644892 0.015093 0.000000
vt 0.846954 0.807621 0.000000
vt 0.417782 0.977671 0.000000
vt 0.052751 0.398854 0.000000
vt 0.670433 0.140678 0.000000
vt 0.759934 0.725265 0.000000
vt 0.377109 0.449097 0.000000
vt 0.466230 0.401062 0.000000
vt 0.876196 0.325229 0.000000
vt 0.875587 0.328501 0.000000
vt 0.736551 0.743737 0.000000
vt 0.360228 0.978358 0.000000
vt 0.431602 0.434125 0.000000
vt 0.417056 0.926069 0.000000
vt 0.417783 0.950181 0.000000
vt 0.417787 0.881096 0.000000
vt 0.377717 0.684787 0.000000
vt 0.677742 0.018365 0.000000
vt 0.466230 0.376875 0.000000
vt 0.875587 0.401063 0.000000
vt 0.875587 0.421978 0.000000
vt 0.466230 0.421977 0.000000
vt 0.848419 0.880212 0.000000
vt 0.377717 0.708974 0.000000
vt 0.377717 0.743736 0.000000
vt 0.848405 0.977749 0.000000
vt 0.875587 0.325229 0.000000
vt 0.020737 0.978358 0.000000
vt 0.020737 0.999696 0.000000
vt 0.050437 0.000304 0.000000
vt 0.000323 0.880869 0.000000
vt 0.417785 0.783601 0.000000
vt 0.352190 0.782772 0.000000
vt 0.466230 0.325229 0.000000
vt 0.395695 0.031966 0.000000
vt 0.647205 0.163904 0.000000
vt 0.400766 0.749698 0.000000
vt 0.847103 0.929385 0.000000
vt 0.644892 0.018365 0.000000
vt 0.875587 0.765522 0.000000
vt 0.633699 0.054023 0.000000
vt 0.638505 0.135924 0.000000
vt 0.644284 0.188946 0.000000
vt 0.638506 0.189001 0.000000
vt 0.644284 0.135979 0.000000
vt 0.848400 0.783437 0.000000
vt 0.000308 0.876985 0.000000
vt 0.041155 0.052262 0.000000
vt 0.417129 0.804475 0.000000
vt 0.670434 0.083139 0.000000
vt 0.866201 0.774107 0.000000
vt 0.708377 0.978357 0.000000
vt 0.876196 0.664036 0.000000
vt 0.876195 0.991004 0.000000
vt 0.000307 0.974474 0.000000
vt 0.847104 0.831847 0.000000
vt 0.417056 0.828574 0.000000
vt 0.744152 0.709582 0.000000
vt 0.735249 0.719311 0.000000
vt 0.702799 0.439323 0.000000
vt 0.465622 0.382099 0.000000
vt 0.423183 0.432975 0.000000
vt 0.847103 0.901858 0.000000
vt 0.787074 0.660599 0.000000
vt 0.377717 0.681515 0.000000
vt 0.750230 0.734198 0.000000
vt 0.897534 0.664036 0.000000
vt 0.009045 0.048411 0.000000
vt 0.466230 0.000304 0.000000
vt 0.659681 0.000304 0.000000
vt 0.662952 0.000304 0.000000
vt 0.000305 0.926034 0.000000
vt 0.000311 0.901795 0.000000
vt 0.846960 0.926085 0.000000
vt 0.837875 0.775079 0.000000
vt 0.000305 0.828546 0.000000
vt 0.000322 0.783380 0.000000
vt 0.847097 0.804321 0.000000
vt 0.670434 0.062228 0.000000
vt 0.000305 0.856050 0.000000
vt 0.649106 0.439873 0.000000
vt 0.639476 0.270851 0.000000
vt 0.631704 0.324542 0.000000
vt 0.631704 0.000383 0.000000
vt 0.639476 0.054074 0.000000
vt 0.625918 0.000394 0.000000
vt 0.377717 0.705702 0.000000
vt 0.828460 0.431822 0.000000
vt 0.417129 0.929307 0.000000
vt 0.668120 0.112212 0.000000
vt 0.377717 0.612225 0.000000
vt 0.466230 0.352688 0.000000
vt 0.466230 0.349416 0.000000
vt 0.466230 0.328500 0.000000
vt 0.837876 0.422586 0.000000
vt 0.360228 0.999696 0.000000
vt 0.875587 0.397790 0.000000
vt 0.670434 0.114525 0.000000
vt 0.466749 0.054002 0.000000
vt 0.034690 0.388307 0.000000
vt 0.662952 0.033154 0.000000
vt 0.000307 0.852775 0.000000
vt 0.000305 0.953539 0.000000
vt 0.659681 0.033154 0.000000
vt 0.000309 0.880260 0.000000
vt 0.000308 0.977749 0.000000
vt 0.339108 0.978358 0.000000
vt 0.000304 0.999696 0.000000
vt 0.467170 0.135926 0.000000
vt 0.668118 0.033762 0.000000
vt 0.647205 0.137754 0.000000
vt 0.644892 0.135441 0.000000
vt 0.644892 0.140678 0.000000
vt 0.377717 0.660600 0.000000
vt 0.668120 0.086062 0.000000
vt 0.670434 0.109289 0.000000
vt 0.647205 0.111604 0.000000
vt 0.048985 0.430805 0.000000
vt 0.787074 0.633140 0.000000
vt 0.875587 0.349416 0.000000
vt 0.876196 0.643603 0.000000
vt 0.567208 0.611617 0.000000
vt 0.846958 0.828548 0.000000
vt 0.417057 0.807711 0.000000
vt 0.702740 0.599016 0.000000
vt 0.649109 0.606813 0.000000
vt 0.848562 0.856005 0.000000
vt 0.460394 0.406925 0.000000
vt 0.846960 0.905158 0.000000
vt 0.848410 0.950270 0.000000
vt 0.848555 0.953543 0.000000
vt 0.377717 0.657328 0.000000
vt 0.365487 0.767258 0.000000
vt 0.014635 0.433583 0.000000
vt 0.011925 0.767258 0.000000
vt 0.787074 0.657327 0.000000
vt 0.644892 0.109289 0.000000
vt 0.897534 0.643603 0.000000
vt 0.861383 0.447480 0.000000
vt 0.466230 0.373604 0.000000
vt 0.708377 0.999696 0.000000
vt 0.567419 0.434515 0.000000
vt 0.417855 0.953457 0.000000
vt 0.417130 0.901970 0.000000
vt 0.377717 0.636413 0.000000
vt 0.377717 0.633141 0.000000
vt 0.000309 0.807618 0.000000
vt 0.000311 0.804307 0.000000
vt 0.668118 0.059304 0.000000
vt 0.387418 0.734198 0.000000
vt 0.668120 0.085454 0.000000
vt 0.670434 0.036076 0.000000
vt 0.644892 0.036076 0.000000
vt 0.000304 0.831849 0.000000
vt 0.399181 0.000304 0.000000
vt 0.668120 0.059912 0.000000
vt 0.787074 0.708974 0.000000
vt 0.422342 0.006500 0.000000
vt 0.025223 0.782772 0.000000
vt 0.466230 0.324621 0.000000
vt 0.633699 0.270902 0.000000
vt 0.378599 0.599016 0.000000
vt 0.625918 0.324531 0.000000
vt 0.432230 0.606813 0.000000
vt 0.378541 0.439323 0.000000
vt 0.432234 0.439873 0.000000
vt 0.649738 0.434125 0.000000
vt 0.703623 0.433583 0.000000
vt 0.050437 0.033890 0.000000
vt 0.668120 0.137754 0.000000
vt 0.668120 0.163904 0.000000
vt 0.386775 0.734806 0.000000
vt 0.729497 0.978357 0.000000
vt 0.644892 0.083139 0.000000
vt 0.000309 0.905106 0.000000
vt 0.024890 0.424233 0.000000
vt 0.514132 0.611617 0.000000
# 246 texture coords

o 2?_????___??
g 2?_????___??
f 12/230 4/232 3/229 13/41 
f 20/233 6/231 5/234 21/235 
f 13/236 3/237 7/129 24/150 
f 17/151 8/152 4/232 12/230 
f 6/153 20/154 9/110 2/155 
f 20/154 19/114 10/111 9/110 
f 19/114 18/112 11/113 10/111 
f 18/112 17/151 12/230 11/113 
f 1/53 16/82 21/235 5/234 
f 16/82 15/16 22/63 21/235 
f 15/16 14/211 23/17 22/63 
f 14/211 13/236 24/150 23/17 
f 8/194 17/195 24/150 7/129 
f 17/195 18/191 23/17 24/150 
f 18/191 19/246 22/63 23/17 
f 19/246 20/233 21/235 22/63 
f 2/155 9/110 16/168 1/138 
f 9/110 10/111 15/178 16/168 
f 10/111 11/113 14/52 15/178 
f 11/113 12/230 13/41 14/52 
f 43/71 48/192 59/126 57/193 
f 47/125 56/29 61/30 60/31 
f 55/196 52/28 63/37 62/34 
f 57/193 59/126 45/145 42/216 
f 64/101 58/118 41/217 50/146 
f 51/115 44/147 58/118 64/101 
f 60/31 61/30 53/171 46/223 
f 65/35 70/148 77/119 74/243 
f 62/34 63/37 49/116 54/149 
f 51/179 56/218 47/38 44/42 
f 26/39 29/127 124/128 121/219 
f 39/104 36/238 33/99 38/224 
f 35/117 40/40 31/18 28/169 
f 35/117 28/169 25/2 34/137 
f 31/18 40/40 37/19 30/130 
f 25/245 28/169 27/73 26/187 
f 31/18 30/130 29/197 32/54 
f 39/104 38/224 37/227 40/40 
f 35/117 34/137 33/68 36/238 
f 27/73 32/54 29/131 26/187 
f 67/198 72/143 83/83 81/55 
f 71/107 80/199 85/84 84/158 
f 79/200 76/56 87/7 86/212 
f 81/55 83/83 69/141 66/244 
f 88/85 82/213 65/142 74/100 
f 75/15 68/132 82/213 88/85 
f 84/158 85/84 77/3 70/4 
f 89/11 92/167 95/20 94/181 
f 86/212 87/7 73/124 78/172 
f 75/44 80/45 71/182 68/74 
f 99/133 102/58 95/134 92/183 
f 101/59 104/60 93/156 96/86 
f 105/139 108/87 111/170 110/70 
f 97/61 100/205 91/201 90/214 
f 103/66 98/188 89/215 94/160 
f 115/21 118/166 111/46 108/88 
f 117/89 120/90 109/91 112/77 
f 113/22 116/12 107/209 106/161 
f 119/79 114/189 105/162 110/163 
f 58/118 44/147 43/71 57/193 
f 60/31 46/223 45/145 59/126 
f 62/34 54/149 53/171 61/30 
f 64/62 50/174 49/116 63/37 
f 41/217 58/118 57/193 42/216 
f 47/125 60/31 59/126 48/192 
f 55/196 62/34 61/30 56/29 
f 51/92 64/62 63/37 52/28 
f 82/213 68/132 67/198 81/55 
f 84/158 70/4 69/141 83/83 
f 86/212 78/172 77/3 85/84 
f 88/72 74/175 73/124 87/7 
f 65/142 82/213 81/55 66/244 
f 71/107 84/158 83/83 72/143 
f 79/200 86/212 85/84 80/199 
f 75/95 88/72 87/7 76/56 
f 99/133 92/183 91/201 100/205 
f 101/59 96/86 95/134 102/58 
f 103/226 94/93 93/156 104/60 
f 89/215 98/188 97/61 90/214 
f 115/21 108/88 107/209 116/12 
f 117/89 112/77 111/46 118/166 
f 119/79 110/163 109/103 120/96 
f 105/162 114/189 113/22 106/161 
f 41/27 46/47 53/185 50/206 
f 123/51 126/207 134/190 131/78 
f 29/127 30/75 123/135 124/128 
f 25/64 26/24 121/25 122/208 
f 38/80 33/67 128/106 125/65 
f 34/120 25/64 122/208 127/109 
f 33/67 34/94 127/241 128/106 
f 37/48 38/144 125/13 126/14 
f 30/164 37/48 126/14 123/157 
f 130/5 131/76 134/202 135/204 
f 121/81 124/121 132/210 129/165 
f 126/207 125/136 133/122 134/190 
f 122/176 121/81 129/165 130/10 
f 125/136 128/1 136/123 133/122 
f 127/97 122/176 130/10 135/98 
f 128/6 127/97 135/98 136/177 
f 124/121 123/242 131/8 132/210 
f 32/54 27/73 28/169 31/18 
f 35/117 36/238 39/104 40/40 
f 130/5 129/203 132/26 131/76 
f 134/202 133/102 136/228 135/204 
f 47/38 48/33 43/222 44/42 
f 51/179 52/221 55/50 56/218 
f 71/182 72/9 67/57 68/74 
f 75/44 76/240 79/105 80/45 
f 53/185 54/23 49/186 50/206 
f 41/27 42/49 45/184 46/47 
f 77/119 78/220 73/32 74/243 
f 65/35 66/36 69/225 70/148 
f 111/170 112/173 109/108 110/70 
f 105/139 106/140 107/69 108/87 
f 95/20 96/239 93/180 94/181 
f 89/11 90/43 91/159 92/167 
# 116 polygons

