# 3ds Max Wavefront OBJ Exporter v0.97b - (c)2007 guruware
# File Created: 03.08.2021 16:03:03

#
# object Group54698
#

v  31.331402 11.098536 35.557011
v  32.578426 11.259934 35.721916
v  31.462315 12.323404 36.942032
v  31.879326 13.194090 36.383255
v  31.704205 13.210764 36.017998
v  32.308914 13.293983 36.293179
v  32.116306 13.197676 36.099262
v  32.323112 12.944178 35.853672
v  32.475769 12.528843 35.441383
v  32.406616 12.908622 36.704269
v  32.064915 12.300394 37.078140
v  31.827501 11.407720 36.991013
v  31.689697 10.921699 36.815506
v  31.268074 11.046645 35.678268
v  31.201773 11.223516 35.641224
v  31.319660 11.216526 35.518009
v  31.470339 11.190317 35.448090
v  31.453079 11.026970 35.538330
v  31.403662 10.931609 35.662819
v  32.492676 11.183190 35.655262
v  32.462311 11.362344 35.609814
v  32.600746 11.402040 35.744793
v  32.704826 11.397584 35.862003
v  32.665024 11.182059 35.823730
v  32.509426 11.029472 35.720211
v  31.565529 12.341547 37.019150
v  31.591759 12.486787 37.082375
v  31.347363 12.477223 36.890766
v  31.852579 13.216483 36.413174
v  31.942125 13.242436 36.451481
v  31.969566 13.200126 36.398666
v  31.850893 13.160746 36.325138
v  31.763388 13.201466 36.354076
v  31.962938 13.143559 36.316662
v  31.772623 13.230965 35.982529
v  31.758093 13.256804 35.942883
v  31.656467 13.228356 35.984726
v  31.608994 13.196909 36.094978
v  31.676983 13.193910 36.075214
v  31.777763 13.199703 36.036999
v  32.265442 13.281122 36.356243
v  32.270107 13.323903 36.396690
v  32.322933 13.333405 36.320408
v  32.341671 13.309570 36.203785
v  32.314922 13.277623 36.222919
v  32.271923 13.247108 36.252361
v  32.166325 13.200692 36.180229
v  32.245754 13.247753 36.128170
v  32.163155 13.248452 36.042191
v  32.036816 13.170427 36.088318
v  32.051880 13.146821 36.206734
v  32.036362 13.225259 35.998714
v  32.111107 12.916418 35.743809
v  32.125572 12.979959 35.835468
v  32.280037 13.010239 35.930584
v  32.253593 12.792267 35.649975
v  32.090973 12.835543 35.641624
v  32.446518 12.837661 35.812286
v  32.411766 12.745874 35.665760
v  32.533123 12.596258 35.541393
v  32.625286 12.451330 35.536045
v  32.502445 12.406960 35.423382
v  32.374722 12.572973 35.398190
v  32.392899 12.676050 35.526390
v  32.371887 12.405052 35.320354
v  32.055161 12.960124 36.776611
v  31.985645 12.857741 36.903313
v  32.294140 12.838740 36.863693
v  32.334976 13.022409 36.620281
v  32.075546 13.021759 36.677197
v  32.523338 12.693490 36.813412
v  32.631187 12.718976 36.645397
v  32.610577 12.888672 36.458046
v  32.492592 13.005654 36.465065
v  32.747952 12.723292 36.441753
v  32.148998 12.394680 37.104191
v  31.976320 12.453550 37.110638
v  31.910833 12.317450 37.075516
v  32.086750 12.208383 37.044819
v  32.254059 12.277509 37.065002
v  31.919998 12.181915 37.013008
v  31.696861 11.397321 36.971180
v  31.781445 11.249244 37.001736
v  31.906397 11.339655 37.007385
v  32.009430 11.443274 36.990143
v  31.833014 11.529432 36.961739
v  31.673958 11.528624 36.934719
v  31.585655 10.992939 36.854290
v  31.515087 10.911603 36.730721
v  31.676054 10.853382 36.709675
v  31.853704 10.842099 36.734982
v  31.798483 10.931963 36.861397
v  31.720188 11.050101 36.935516
v  31.877911 11.109838 36.989456
v  31.635954 11.182534 36.963047
v  31.498629 11.112494 36.890678
v  31.967337 10.978988 36.910473
v  32.133038 11.074194 36.925106
v  32.029682 11.206038 37.003719
v  32.035168 10.877344 36.769119
v  32.209362 10.970119 36.780060
v  32.370766 11.095332 36.785557
v  32.274963 11.201072 36.915894
v  32.083046 10.809524 36.592541
v  32.267700 10.891805 36.613758
v  32.444313 11.010707 36.636250
v  32.578716 11.195494 36.659832
v  32.501198 11.256809 36.800495
v  32.332027 10.836638 36.440197
v  32.506477 10.968622 36.463825
v  32.636486 11.187475 36.526783
v  32.720924 11.458983 36.592972
v  32.667114 11.467471 36.718479
v  32.571480 10.995152 36.302322
v  32.686268 11.216763 36.382114
v  32.759617 11.472390 36.455647
v  32.817085 11.751048 36.479298
v  32.777775 11.757115 36.614204
v  32.734562 11.259117 36.237133
v  32.788799 11.503399 36.313023
v  32.834602 11.759448 36.329716
v  32.870239 12.011414 36.308773
v  32.856186 12.025082 36.465458
v  32.801132 11.551414 36.162746
v  32.828106 11.777244 36.169441
v  32.853168 12.006012 36.141552
v  32.866798 12.230592 36.103073
v  32.887020 12.260213 36.277126
v  32.791512 11.785277 36.003292
v  32.809452 11.990088 35.968300
v  32.819908 12.191873 35.922939
v  32.806725 12.391423 35.887283
v  32.850449 12.450476 36.069016
v  32.739681 11.951373 35.796532
v  32.751583 12.137626 35.742493
v  32.744858 12.328753 35.706047
v  32.696125 12.515346 35.692123
v  32.743668 12.583750 35.864681
v  32.640137 12.080436 35.585114
v  32.649117 12.267773 35.545059
v  32.491829 12.041138 35.454521
v  32.508236 12.227504 35.421711
v  32.345932 12.010252 35.332668
v  32.369785 12.208838 35.301979
v  32.177391 12.004107 35.282406
v  32.210320 12.211526 35.240448
v  32.224522 12.422745 35.262493
v  32.039116 12.232430 35.248196
v  32.059052 12.437567 35.263737
v  32.073254 12.617931 35.355724
v  32.233608 12.604214 35.358944
v  32.082340 12.740127 35.502186
v  32.242867 12.713872 35.510387
v  31.898174 12.625458 35.379517
v  31.913845 12.759780 35.505352
v  31.924719 12.872470 35.633511
v  31.743450 12.741764 35.558899
v  31.767864 12.853297 35.673981
v  31.799555 12.963650 35.762749
v  31.944178 12.952651 35.743149
v  31.852673 13.011842 35.856026
v  31.976942 12.992599 35.830135
v  31.880533 13.016737 35.920673
v  31.997469 13.002793 35.894989
v  32.127235 13.013388 35.907051
v  32.252872 13.032332 36.007973
v  32.012001 13.004638 35.945942
v  32.121128 13.027658 35.970638
v  32.225739 13.031580 36.049107
v  32.203869 13.049640 36.086098
v  32.282021 13.069356 36.195999
v  32.293533 13.032834 36.185131
v  32.330757 13.025170 36.155491
v  32.118771 13.035989 36.005257
v  32.021286 13.015542 35.992458
v  32.023998 13.056901 36.003296
v  32.123928 13.074736 36.015038
v  32.223312 13.089050 36.084190
v  32.255688 13.120118 36.066479
v  32.342239 13.142463 36.180271
v  32.309486 13.106662 36.186790
v  32.145668 13.103439 35.989262
v  32.025814 13.090987 35.974010
v  32.028419 13.116676 35.940514
v  32.167976 13.130970 35.960918
v  32.284885 13.151837 36.046970
v  32.307938 13.188539 36.029739
v  32.385887 13.218714 36.170937
v  32.368202 13.181107 36.175114
v  32.186592 13.164750 35.934937
v  32.035732 13.143690 35.907982
v  32.044655 13.176148 35.880302
v  32.198689 13.205034 35.914242
v  32.322792 13.228080 36.018486
v  32.333641 13.268072 36.014912
v  32.407566 13.291993 36.163170
v  32.400143 13.254355 36.166382
v  32.204353 13.249551 35.902996
v  32.048855 13.214900 35.865501
v  32.045780 13.254783 35.863125
v  32.204380 13.295607 35.901951
v  32.336952 13.308535 36.017971
v  32.333019 13.348211 36.028275
v  32.387363 13.354605 36.171150
v  32.405979 13.329522 36.163643
v  32.196438 13.339231 35.915314
v  32.039219 13.292388 35.872528
v  32.034721 13.303403 35.906082
v  32.185909 13.348141 35.945919
v  32.307438 13.334383 36.056595
v  32.289719 13.305243 36.079643
v  32.361851 13.337646 36.187229
v  32.179848 13.318291 35.979263
v  32.037689 13.282859 35.939091
v  32.038914 13.255600 35.967247
v  32.173122 13.285100 36.006844
v  32.272678 13.275723 36.102249
v  31.893219 13.261190 35.932682
v  31.895008 13.235957 35.964455
v  31.899656 13.208033 36.001278
v  31.778690 13.162668 36.132290
v  31.906441 13.150335 36.100758
v  31.800264 13.154640 36.241219
v  31.926716 13.123458 36.218983
v  32.071384 13.174035 36.323166
v  32.064499 13.231533 36.426517
v  32.181190 13.255299 36.409176
v  32.182137 13.208563 36.306183
v  32.054592 13.267091 36.474873
v  32.182095 13.291847 36.451305
v  32.051010 13.294342 36.508385
v  32.185635 13.321530 36.481873
v  32.280384 13.356278 36.413860
v  32.190933 13.349384 36.510876
v  32.297451 13.381307 36.437412
v  32.375763 13.394390 36.322342
v  32.346676 13.368784 36.320087
v  32.323776 13.373101 36.459255
v  32.408096 13.374228 36.328640
v  32.343197 13.340365 36.471897
v  32.427387 13.339597 36.331429
v  32.355076 13.301418 36.476299
v  32.430740 13.298669 36.330818
v  32.357052 13.260555 36.470440
v  32.413948 13.260113 36.328636
v  32.348919 13.221712 36.455090
v  32.387268 13.223550 36.323101
v  32.328053 13.188842 36.435303
v  32.355820 13.187965 36.312447
v  32.305508 13.158810 36.416935
v  32.329269 13.147927 36.303661
v  32.285412 13.129061 36.403698
v  32.308018 13.108158 36.304382
v  32.283867 13.092338 36.405270
v  32.309319 13.065740 36.309170
v  32.309711 13.070765 36.420017
v  32.344120 13.044785 36.308670
v  32.347858 13.064459 36.436295
v  32.387566 13.038952 36.300865
v  32.375069 13.025301 36.123116
v  32.442722 13.029126 36.286068
v  32.430088 13.003866 36.065887
v  32.538502 12.986912 36.260117
v  32.517212 12.933734 36.028164
v  32.655106 12.872723 36.232220
v  32.627308 12.815665 36.021046
v  32.593784 12.729529 35.846504
v  32.773922 12.657075 36.040478
v  32.571941 12.654498 35.687584
v  32.783848 12.709788 36.231773
v  32.868530 12.497329 36.252163
v  32.834850 12.521462 36.442513
v  32.865433 12.286359 36.447357
v  32.737457 12.521238 36.626026
v  32.793385 12.301198 36.610401
v  32.804771 12.047562 36.608528
v  32.701012 12.289445 36.760765
v  32.731152 12.049335 36.739819
v  32.720356 11.766419 36.735214
v  32.636963 12.023628 36.852055
v  32.634979 11.771885 36.837215
v  32.589024 11.499253 36.826073
v  32.508171 11.777492 36.904819
v  32.473476 11.553209 36.903542
v  32.394112 11.354620 36.906792
v  32.319103 11.617788 36.945782
v  32.254173 11.463106 36.963821
v  32.154778 11.328342 36.986664
v  32.082668 11.557167 36.965153
v  32.130013 11.681110 36.944004
v  31.917114 11.725345 36.918076
v  31.881468 11.623672 36.939751
v  31.687103 11.633581 36.909981
v  31.707706 11.739290 36.889935
v  31.527733 11.728350 36.844662
v  31.524706 11.606146 36.874363
v  31.939823 11.836641 36.909176
v  31.725922 11.848383 36.880539
v  31.536787 11.847837 36.826645
v  31.368536 11.838958 36.757282
v  31.367752 11.703479 36.780697
v  31.738455 11.960101 36.889523
v  31.545246 11.967431 36.830078
v  31.373030 11.972689 36.753532
v  31.240376 11.969007 36.644505
v  31.238712 11.816364 36.648266
v  31.550928 12.084669 36.863667
v  31.377150 12.103733 36.777489
v  31.246092 12.120352 36.668850
v  31.147688 12.121414 36.526775
v  31.149200 11.950793 36.501381
v  31.383766 12.237524 36.835140
v  31.268766 12.270922 36.737617
v  31.160799 12.291124 36.587170
v  31.088305 11.928879 36.336803
v  31.103106 11.750718 36.338112
v  31.155670 11.780921 36.502300
v  31.074568 12.104628 36.357010
v  31.046129 12.104164 36.164757
v  31.059422 11.926663 36.152496
v  31.064825 12.279901 36.400173
v  31.031326 12.277977 36.199883
v  31.051580 12.294035 35.979836
v  31.061241 12.124407 35.957813
v  31.074074 12.446804 36.450878
v  31.027000 12.448844 36.243202
v  31.052155 12.453381 36.014515
v  31.136057 12.485480 35.773720
v  31.122469 12.324639 35.749092
v  31.054281 12.602977 36.274170
v  31.077742 12.598222 36.045681
v  31.175253 12.631594 35.816265
v  31.342024 12.647168 35.652332
v  31.284279 12.508974 35.583511
v  31.137249 12.724225 36.078278
v  31.247980 12.754288 35.885387
v  31.416140 12.756042 35.755074
v  31.580427 12.734444 35.657749
v  31.526577 12.620636 35.541100
v  31.327000 12.864256 35.955776
v  31.488108 12.871429 35.843884
v  31.634859 12.860481 35.760284
v  31.545523 12.969704 35.911674
v  31.681532 12.971272 35.832180
v  31.616352 13.018712 35.976292
v  31.736645 13.024925 35.908138
v  31.665802 13.032409 36.025406
v  31.771406 13.032704 35.965591
v  31.693192 13.034580 36.057648
v  31.790358 13.031213 36.006668
v  31.899006 13.013493 35.970406
v  31.805710 13.035400 36.046959
v  31.914265 13.015289 36.017509
v  31.813530 13.067217 36.054855
v  31.921665 13.052631 36.027153
v  31.803497 13.093951 36.021870
v  31.914913 13.085176 35.993496
v  31.787287 13.115239 35.983219
v  31.905169 13.111629 35.957184
v  31.769957 13.138724 35.940212
v  31.897640 13.140143 35.919132
v  31.757710 13.168504 35.901020
v  31.895229 13.170620 35.885094
v  31.748821 13.202767 35.873356
v  31.898033 13.204113 35.862656
v  31.741831 13.241430 35.860287
v  31.899158 13.242221 35.854515
v  31.739988 13.280089 35.871422
v  31.896761 13.278313 35.865959
v  31.747478 13.280674 35.908329
v  31.893925 13.282461 35.900169
v  31.597843 13.262238 35.939648
v  31.626698 13.250519 35.968521
v  31.593302 13.219745 35.931400
v  31.602951 13.179296 35.938103
v  31.525944 13.173093 36.063271
v  31.518129 13.208834 36.070427
v  31.521780 13.243206 36.080170
v  31.505619 13.169601 36.154778
v  31.501196 13.199279 36.148750
v  31.509373 13.226868 36.139751
v  31.481323 13.204855 36.261574
v  31.494350 13.239695 36.256889
v  31.526936 13.226266 36.236851
v  31.539646 13.228694 36.390202
v  31.566929 13.218583 36.363712
v  31.598356 13.209402 36.337440
v  31.564106 13.204591 36.212063
v  31.562601 13.213753 36.101837
v  31.532484 13.234150 36.133102
v  31.641375 13.203245 36.308033
v  31.606800 13.195430 36.194954
v  31.699114 13.190489 36.274929
v  31.671997 13.183475 36.172707
v  31.717573 13.212667 36.389271
v  31.688854 13.219302 36.420380
v  31.798058 13.245445 36.472832
v  31.818874 13.234537 36.445290
v  31.911427 13.283013 36.513733
v  31.925835 13.264353 36.483166
v  32.047749 13.319671 36.540886
v  31.897287 13.294270 36.545788
v  32.044426 13.336217 36.576859
v  32.206139 13.357763 36.544876
v  32.048149 13.322105 36.613190
v  32.223095 13.333663 36.569511
v  32.055038 13.288609 36.631603
v  32.232338 13.295650 36.577858
v  32.061687 13.250492 36.633495
v  32.234509 13.256371 36.577267
v  32.066982 13.213436 36.618919
v  32.230583 13.219638 36.564137
v  32.073544 13.178224 36.595173
v  32.225899 13.185229 36.542591
v  32.080784 13.145386 36.561485
v  32.218163 13.156596 36.514671
v  32.079865 13.115355 36.528088
v  32.211697 13.130629 36.489017
v  32.077896 13.082814 36.503345
v  32.210361 13.100595 36.475250
v  32.082924 13.057277 36.528187
v  32.226223 13.078861 36.493793
v  32.084435 13.049132 36.565739
v  32.247902 13.073689 36.521362
v  32.082844 13.044123 36.608562
v  32.283009 13.064563 36.562950
v  32.399670 13.054013 36.450798
v  31.890333 13.016180 36.611515
v  31.868017 13.004154 36.668659
v  31.903177 13.020644 36.574032
v  31.758472 13.019482 36.530956
v  31.739864 13.011751 36.563370
v  31.913937 13.030354 36.538830
v  31.773340 13.030904 36.502567
v  31.671368 13.036373 36.442261
v  31.653316 13.022673 36.461945
v  31.922668 13.055280 36.513920
v  31.785116 13.053979 36.486217
v  31.681183 13.061219 36.433552
v  31.619967 13.066448 36.363312
v  31.611412 13.040241 36.366943
v  31.788391 13.084163 36.494083
v  31.676743 13.088006 36.441296
v  31.606907 13.091968 36.367802
v  31.585133 13.096304 36.282162
v  31.601414 13.070563 36.284866
v  31.663103 13.108552 36.458817
v  31.584412 13.110589 36.377495
v  31.560244 13.114865 36.278595
v  31.575521 13.114972 36.185108
v  31.598949 13.098918 36.201927
v  31.558413 13.127528 36.389484
v  31.532139 13.131017 36.274632
v  31.550493 13.128658 36.173161
v  31.582005 13.126136 36.080334
v  31.613482 13.113369 36.101105
v  31.503420 13.148526 36.272163
v  31.524988 13.145226 36.163342
v  31.549589 13.144197 36.067989
v  31.624842 13.149170 35.959957
v  31.653496 13.126748 35.989326
v  31.682953 13.113239 36.026333
v  31.706709 13.100154 36.064747
v  31.639210 13.100588 36.128109
v  31.722635 13.076428 36.095230
v  31.654940 13.075283 36.148087
v  31.613298 13.072724 36.211716
v  31.645248 13.044644 36.143585
v  31.604176 13.043927 36.210430
v  31.592556 13.042776 36.286777
v  31.576736 13.027991 36.200871
v  31.566395 13.027015 36.287086
v  31.589479 13.025205 36.376995
v  31.533842 13.017671 36.286537
v  31.563128 13.015637 36.387554
v  31.632898 13.013255 36.483219
v  31.511200 12.995051 36.408775
v  31.586206 12.989142 36.524319
v  31.706692 12.993938 36.617107
v  31.510473 12.916712 36.580681
v  31.644979 12.932991 36.704021
v  31.818960 12.949121 36.770481
v  31.557535 12.830185 36.789165
v  31.743736 12.851228 36.892849
v  31.462025 12.728726 36.861050
v  31.670868 12.747274 36.998867
v  31.910398 12.738933 37.021191
v  31.623533 12.628735 37.069675
v  31.849796 12.611359 37.097801
v  32.075264 12.591547 37.096794
v  32.182339 12.732204 37.010582
v  32.298622 12.523911 37.069458
v  32.418114 12.634689 36.963791
v  32.401085 12.361200 37.029995
v  32.526573 12.442556 36.938072
v  32.631355 12.498189 36.794769
v  32.598339 12.242397 36.887539
v  32.468578 12.180224 36.972374
v  32.504799 11.988728 36.928295
v  32.313370 12.123123 37.010483
v  32.342934 11.962196 36.962608
v  32.346783 11.790814 36.939217
v  32.157406 11.950633 36.957817
v  32.154961 11.813725 36.939011
v  31.949095 11.952688 36.923092
v  31.941807 12.066856 36.961178
v  31.741776 12.070951 36.929581
v  32.137402 12.083514 36.999912
v  31.741783 12.185512 36.993389
v  31.555578 12.200726 36.929607
v  31.754650 12.319811 37.071396
v  31.796774 12.470178 37.118031
v  31.394276 12.623086 36.902420
v  31.217094 12.592125 36.670788
v  31.185091 12.443064 36.650169
v  31.303572 12.717063 36.665802
v  31.186245 12.725662 36.482513
v  31.104950 12.598779 36.481472
v  31.411322 12.813417 36.630386
v  31.305017 12.822251 36.462048
v  31.245483 12.839600 36.292568
v  31.129519 12.730634 36.289417
v  31.418306 12.921518 36.437565
v  31.372362 12.937072 36.290806
v  31.367952 12.946704 36.146900
v  31.240162 12.840874 36.118023
v  31.476685 12.998561 36.288181
v  31.480852 13.003843 36.169773
v  31.523680 13.010643 36.065697
v  31.418686 12.957390 36.018459
v  31.543253 13.020072 36.187904
v  31.587334 13.025088 36.098892
v  31.619678 13.030764 36.123020
v  31.714735 13.044137 36.088741
v  31.484478 13.171854 36.266087
v  31.531290 13.146237 36.403675
v  31.510813 13.174371 36.413330
v  31.514559 13.209825 36.408939
v  31.627853 13.179216 36.516541
v  31.630966 13.212414 36.509720
v  31.646297 13.229767 36.482143
v  31.756187 13.228199 36.559811
v  31.764463 13.249831 36.533363
v  31.779280 13.253248 36.501457
v  31.666311 13.227111 36.450626
v  31.888624 13.285372 36.579323
v  31.887932 13.257625 36.600731
v  31.756758 13.192242 36.562859
v  31.893244 13.222765 36.605003
v  31.762581 13.160450 36.548649
v  31.902775 13.186268 36.598679
v  31.775028 13.133197 36.532127
v  31.913885 13.150466 36.579552
v  31.785955 13.109529 36.512516
v  31.928488 13.116875 36.552780
v  31.928087 13.088531 36.527958
v  31.647045 13.127149 36.479324
v  31.634380 13.148615 36.502731
v  31.712095 12.620489 35.436802
v  31.677832 12.477073 35.337761
v  31.479271 12.488478 35.453461
v  31.642660 12.310857 35.293201
v  31.444082 12.333871 35.414059
v  31.255344 12.345706 35.557972
v  31.418825 12.165029 35.412830
v  31.240534 12.169980 35.553284
v  31.117867 12.152631 35.739208
v  31.225267 11.988233 35.559128
v  31.113138 11.971334 35.744133
v  31.067032 11.945114 35.952564
v  31.106667 11.783852 35.755699
v  31.069427 11.758621 35.960445
v  31.071838 11.743600 36.157883
v  31.075106 11.570645 35.975758
v  31.088978 11.559379 36.177410
v  31.123310 11.571359 36.360233
v  31.115826 11.382358 36.202530
v  31.151838 11.394779 36.397175
v  31.193813 11.444159 36.566811
v  31.168297 11.612977 36.524963
v  31.261532 11.507414 36.710941
v  31.245731 11.663160 36.673195
v  31.375965 11.562099 36.817219
v  31.288637 11.341434 36.754623
v  31.396925 11.413573 36.860432
v  31.536913 11.477365 36.911579
v  31.435699 11.257838 36.891579
v  31.570934 11.332063 36.949268
v  31.330572 11.172571 36.776390
v  31.401638 11.024096 36.763924
v  31.366541 10.944455 36.592915
v  31.506399 10.832112 36.573280
v  31.276367 11.096412 36.609737
v  31.253122 11.055110 36.414700
v  31.361414 10.905248 36.400803
v  31.223454 11.270131 36.604614
v  31.190811 11.224577 36.419853
v  31.157663 11.213099 36.217518
v  31.228796 11.042219 36.217636
v  31.209080 11.034601 36.022278
v  31.338966 10.885487 36.012768
v  31.354427 10.892181 36.207561
v  31.132082 11.209949 36.013802
v  31.143826 11.217386 35.816910
v  31.217003 11.037479 35.835140
v  31.092243 11.388340 35.995323
v  31.113293 11.402957 35.790848
v  31.185843 11.412911 35.606785
v  31.104034 11.593334 35.770977
v  31.189976 11.606785 35.587429
v  31.341879 11.600998 35.457710
v  31.323406 11.409407 35.478870
v  31.204336 11.799518 35.570568
v  31.366356 11.791796 35.442493
v  31.527287 11.758512 35.339264
v  31.504923 11.564819 35.361195
v  31.393721 11.982605 35.428223
v  31.559713 11.951063 35.319569
v  31.748520 11.912308 35.298046
v  31.709034 11.726559 35.319439
v  31.599504 12.136432 35.295574
v  31.807251 12.088752 35.275921
v  31.999094 12.037995 35.285927
v  31.943808 11.858417 35.333755
v  31.852558 12.269032 35.265202
v  31.878853 12.454846 35.295147
v  32.131462 11.818420 35.345829
v  32.090080 11.642595 35.406132
v  31.898066 11.677262 35.369064
v  32.068619 11.464435 35.455978
v  31.869955 11.490706 35.398190
v  31.682989 11.530292 35.344715
v  31.859791 11.308330 35.437698
v  31.666489 11.335127 35.380741
v  31.483379 11.374595 35.395096
v  31.652048 11.158309 35.444038
v  31.851770 11.140872 35.499485
v  31.832367 10.989946 35.588768
v  31.628532 11.001441 35.532059
v  31.796064 10.867554 35.704689
v  31.584131 10.880667 35.648861
v  31.747831 10.784426 35.837822
v  31.530628 10.824367 35.800381
v  31.351593 10.894926 35.822155
v  31.513845 10.797714 35.989338
v  31.708662 10.758993 35.996044
v  31.704012 10.740771 36.188454
v  31.523096 10.792534 36.191555
v  31.699379 10.739653 36.384251
v  31.514364 10.793961 36.388592
v  31.689896 10.786076 36.560863
v  31.886753 10.775025 36.574112
v  31.906710 10.732224 36.394768
v  32.126125 10.767969 36.408504
v  31.919294 10.727112 36.216747
v  32.171021 10.749834 36.235825
v  32.393444 10.835676 36.260357
v  31.940836 10.749063 36.057728
v  32.204857 10.769282 36.072701
v  32.450008 10.850397 36.089725
v  32.634907 11.022666 36.148968
v  32.231323 10.796385 35.916821
v  32.491745 10.873159 35.939377
v  32.680286 11.063054 36.016739
v  32.764538 11.318651 36.103436
v  32.510441 10.927539 35.814243
v  32.689766 11.118116 35.910492
v  32.753330 11.367409 35.981022
v  32.773830 11.581177 36.009392
v  32.708832 11.588221 35.862038
v  32.723324 11.769047 35.838493
v  32.590969 11.575158 35.722641
v  32.595978 11.740947 35.690395
v  32.618073 11.905956 35.640892
v  32.446926 11.528985 35.578743
v  32.449631 11.693782 35.543755
v  32.466438 11.863225 35.500980
v  32.281609 11.643394 35.437717
v  32.311115 11.822455 35.385208
v  32.266422 11.472962 35.489460
v  32.278095 11.297297 35.546776
v  32.071083 11.288041 35.505436
v  32.296329 11.119765 35.610569
v  32.065742 11.130793 35.561871
v  32.268429 10.976665 35.684036
v  32.037613 10.985840 35.646339
v  32.246090 10.868223 35.785656
v  32.007580 10.870056 35.771572
v  31.973461 10.796458 35.913246
# 689 vertices

vt 0.845287 0.631203 0.000000
vt 0.933782 0.830512 0.000000
vt 0.934957 0.834335 0.000000
vt 0.931783 0.837310 0.000000
vt 0.927929 0.830367 0.000000
vt 0.911323 0.846253 0.000000
vt 0.911568 0.846083 0.000000
vt 0.911805 0.846695 0.000000
vt 0.911374 0.846801 0.000000
vt 0.910915 0.846085 0.000000
vt 0.911142 0.845497 0.000000
vt 0.910831 0.846714 0.000000
vt 0.909059 0.845405 0.000000
vt 0.908864 0.845786 0.000000
vt 0.908609 0.845719 0.000000
vt 0.908842 0.845182 0.000000
vt 0.909395 0.844813 0.000000
vt 0.909363 0.845215 0.000000
vt 0.909210 0.845792 0.000000
vt 0.911039 0.848417 0.000000
vt 0.911293 0.848569 0.000000
vt 0.910900 0.848804 0.000000
vt 0.910733 0.848633 0.000000
vt 0.910297 0.848858 0.000000
vt 0.910380 0.848630 0.000000
vt 0.910513 0.848364 0.000000
vt 0.909724 0.847574 0.000000
vt 0.910149 0.847803 0.000000
vt 0.909895 0.848270 0.000000
vt 0.909412 0.847907 0.000000
vt 0.909656 0.847145 0.000000
vt 0.910273 0.847169 0.000000
vt 0.909104 0.847253 0.000000
vt 0.902234 0.854386 0.000000
vt 0.899340 0.850451 0.000000
vt 0.901634 0.850395 0.000000
vt 0.903992 0.853110 0.000000
vt 0.896686 0.854100 0.000000
vt 0.896541 0.850420 0.000000
vt 0.900991 0.857631 0.000000
vt 0.897134 0.857746 0.000000
vt 0.890387 0.861059 0.000000
vt 0.893568 0.861647 0.000000
vt 0.892077 0.865602 0.000000
vt 0.888118 0.863373 0.000000
vt 0.889727 0.858258 0.000000
vt 0.893560 0.857885 0.000000
vt 0.885356 0.859890 0.000000
vt 0.920641 0.848467 0.000000
vt 0.923774 0.847158 0.000000
vt 0.923055 0.853291 0.000000
vt 0.919437 0.855195 0.000000
vt 0.917132 0.853190 0.000000
vt 0.918492 0.848721 0.000000
vt 0.923428 0.859166 0.000000
vt 0.919581 0.861483 0.000000
vt 0.914688 0.859346 0.000000
vt 0.914337 0.856137 0.000000
vt 0.914977 0.863850 0.000000
vt 0.939150 0.849767 0.000000
vt 0.935738 0.851837 0.000000
vt 0.934545 0.846857 0.000000
vt 0.938632 0.844735 0.000000
vt 0.942482 0.850968 0.000000
vt 0.938567 0.856076 0.000000
vt 0.944123 0.844483 0.000000
vt 0.940917 0.911510 0.000000
vt 0.949492 0.906549 0.000000
vt 0.959795 0.928575 0.000000
vt 0.947845 0.934690 0.000000
vt 0.933828 0.937065 0.000000
vt 0.931005 0.914627 0.000000
vt 0.925825 0.896944 0.000000
vt 0.932965 0.894042 0.000000
vt 0.919060 0.937173 0.000000
vt 0.920131 0.915208 0.000000
vt 0.917671 0.898542 0.000000
vt 0.914648 0.886360 0.000000
vt 0.920933 0.884603 0.000000
vt 0.908709 0.913219 0.000000
vt 0.908698 0.898505 0.000000
vt 0.907570 0.886993 0.000000
vt 0.906699 0.878268 0.000000
vt 0.912435 0.877355 0.000000
vt 0.899104 0.897468 0.000000
vt 0.899795 0.886710 0.000000
vt 0.900242 0.878373 0.000000
vt 0.900868 0.871986 0.000000
vt 0.906294 0.871501 0.000000
vt 0.891304 0.885635 0.000000
vt 0.893121 0.877726 0.000000
vt 0.895017 0.871569 0.000000
vt 0.896669 0.866507 0.000000
vt 0.901465 0.866602 0.000000
vt 0.885870 0.875716 0.000000
vt 0.889284 0.870024 0.000000
vt 0.879153 0.871605 0.000000
vt 0.884168 0.866914 0.000000
vt 0.873891 0.865958 0.000000
vt 0.880315 0.862536 0.000000
vt 0.870476 0.859696 0.000000
vt 0.878005 0.857697 0.000000
vt 0.883814 0.855952 0.000000
vt 0.876909 0.852185 0.000000
vt 0.883144 0.851554 0.000000
vt 0.888322 0.851030 0.000000
vt 0.888796 0.854834 0.000000
vt 0.892779 0.850650 0.000000
vt 0.893120 0.854362 0.000000
vt 0.888371 0.846700 0.000000
vt 0.892769 0.846765 0.000000
vt 0.896540 0.846749 0.000000
vt 0.893294 0.842639 0.000000
vt 0.896867 0.843275 0.000000
vt 0.899683 0.844122 0.000000
vt 0.899348 0.846991 0.000000
vt 0.901677 0.845111 0.000000
vt 0.901265 0.847496 0.000000
vt 0.902854 0.845589 0.000000
vt 0.902550 0.847774 0.000000
vt 0.903195 0.850209 0.000000
vt 0.905447 0.852417 0.000000
vt 0.903532 0.847915 0.000000
vt 0.904469 0.849917 0.000000
vt 0.906180 0.851848 0.000000
vt 0.906858 0.851366 0.000000
vt 0.909064 0.852257 0.000000
vt 0.908747 0.852863 0.000000
vt 0.908282 0.853603 0.000000
vt 0.905173 0.849776 0.000000
vt 0.904424 0.847931 0.000000
vt 0.905155 0.847895 0.000000
vt 0.905936 0.849576 0.000000
vt 0.907446 0.850965 0.000000
vt 0.907949 0.850525 0.000000
vt 0.909561 0.850992 0.000000
vt 0.909321 0.851562 0.000000
vt 0.906624 0.849363 0.000000
vt 0.905845 0.847815 0.000000
vt 0.906394 0.847731 0.000000
vt 0.907153 0.849160 0.000000
vt 0.908311 0.850135 0.000000
vt 0.908586 0.849802 0.000000
vt 0.909848 0.850193 0.000000
vt 0.909732 0.850541 0.000000
vt 0.907571 0.848962 0.000000
vt 0.906868 0.847695 0.000000
vt 0.907278 0.847671 0.000000
vt 0.907906 0.848773 0.000000
vt 0.908800 0.849535 0.000000
vt 0.908993 0.849323 0.000000
vt 0.910001 0.849652 0.000000
vt 0.909930 0.849909 0.000000
vt 0.908183 0.848612 0.000000
vt 0.907618 0.847628 0.000000
vt 0.907907 0.847558 0.000000
vt 0.908425 0.848473 0.000000
vt 0.909162 0.849135 0.000000
vt 0.909324 0.848957 0.000000
vt 0.910144 0.849245 0.000000
vt 0.910072 0.849425 0.000000
vt 0.908642 0.848347 0.000000
vt 0.908168 0.847486 0.000000
vt 0.908398 0.847435 0.000000
vt 0.908797 0.848268 0.000000
vt 0.909469 0.848795 0.000000
vt 0.909615 0.848629 0.000000
vt 0.910220 0.849056 0.000000
vt 0.908994 0.848164 0.000000
vt 0.908638 0.847390 0.000000
vt 0.908866 0.847331 0.000000
vt 0.909184 0.848046 0.000000
vt 0.909756 0.848465 0.000000
vt 0.908533 0.846494 0.000000
vt 0.908780 0.846484 0.000000
vt 0.909050 0.846485 0.000000
vt 0.909778 0.845748 0.000000
vt 0.909681 0.846461 0.000000
vt 0.910411 0.845813 0.000000
vt 0.910315 0.846524 0.000000
vt 0.910874 0.847300 0.000000
vt 0.911505 0.847373 0.000000
vt 0.911334 0.847994 0.000000
vt 0.910774 0.847888 0.000000
vt 0.911848 0.847401 0.000000
vt 0.911611 0.848100 0.000000
vt 0.912096 0.847450 0.000000
vt 0.911824 0.848209 0.000000
vt 0.911416 0.848721 0.000000
vt 0.912024 0.848326 0.000000
vt 0.911539 0.848872 0.000000
vt 0.910948 0.849173 0.000000
vt 0.910927 0.849001 0.000000
vt 0.911640 0.849029 0.000000
vt 0.910967 0.849348 0.000000
vt 0.911754 0.849220 0.000000
vt 0.910982 0.849543 0.000000
vt 0.911866 0.849435 0.000000
vt 0.910998 0.849762 0.000000
vt 0.911976 0.849685 0.000000
vt 0.911028 0.850016 0.000000
vt 0.912083 0.849986 0.000000
vt 0.911051 0.850346 0.000000
vt 0.912228 0.850358 0.000000
vt 0.911031 0.850784 0.000000
vt 0.912403 0.850805 0.000000
vt 0.910990 0.851343 0.000000
vt 0.912633 0.851316 0.000000
vt 0.911039 0.851994 0.000000
vt 0.912944 0.851883 0.000000
vt 0.911119 0.852712 0.000000
vt 0.913277 0.852508 0.000000
vt 0.911151 0.853467 0.000000
vt 0.913613 0.853241 0.000000
vt 0.911096 0.854305 0.000000
vt 0.907773 0.854486 0.000000
vt 0.910931 0.855383 0.000000
vt 0.906789 0.855682 0.000000
vt 0.910609 0.857403 0.000000
vt 0.906040 0.857842 0.000000
vt 0.910237 0.860624 0.000000
vt 0.905707 0.861128 0.000000
vt 0.901432 0.861650 0.000000
vt 0.906017 0.865925 0.000000
vt 0.897358 0.862006 0.000000
vt 0.910421 0.865011 0.000000
vt 0.911187 0.870454 0.000000
vt 0.915935 0.868965 0.000000
vt 0.917679 0.875537 0.000000
vt 0.920803 0.866790 0.000000
vt 0.922778 0.873079 0.000000
vt 0.926498 0.881596 0.000000
vt 0.927792 0.870447 0.000000
vt 0.931906 0.878570 0.000000
vt 0.939242 0.890199 0.000000
vt 0.937471 0.875614 0.000000
vt 0.945127 0.885697 0.000000
vt 0.956688 0.899592 0.000000
vt 0.951165 0.879975 0.000000
vt 0.962972 0.890270 0.000000
vt 0.978454 0.900739 0.000000
vt 0.970678 0.916427 0.000000
vt 0.968617 0.877858 0.000000
vt 0.983275 0.882637 0.000000
vt 0.985237 0.862455 0.000000
vt 0.972390 0.861839 0.000000
vt 0.972581 0.843700 0.000000
vt 0.982391 0.840981 0.000000
vt 0.969139 0.826312 0.000000
vt 0.978266 0.821802 0.000000
vt 0.963067 0.811810 0.000000
vt 0.972994 0.805606 0.000000
vt 0.963860 0.844916 0.000000
vt 0.961231 0.829969 0.000000
vt 0.955317 0.817258 0.000000
vt 0.947324 0.807139 0.000000
vt 0.954886 0.799685 0.000000
vt 0.954362 0.832890 0.000000
vt 0.949013 0.822026 0.000000
vt 0.941593 0.813662 0.000000
vt 0.933668 0.807577 0.000000
vt 0.938412 0.799189 0.000000
vt 0.943826 0.826318 0.000000
vt 0.937260 0.819404 0.000000
vt 0.930487 0.814896 0.000000
vt 0.923377 0.811298 0.000000
vt 0.925268 0.802724 0.000000
vt 0.933879 0.824824 0.000000
vt 0.928928 0.821749 0.000000
vt 0.922738 0.818689 0.000000
vt 0.915895 0.799393 0.000000
vt 0.917325 0.788497 0.000000
vt 0.928553 0.792691 0.000000
vt 0.915462 0.808403 0.000000
vt 0.906730 0.807905 0.000000
vt 0.905536 0.799266 0.000000
vt 0.915647 0.815792 0.000000
vt 0.908352 0.814936 0.000000
vt 0.900602 0.816509 0.000000
vt 0.897958 0.810456 0.000000
vt 0.915894 0.821568 0.000000
vt 0.909678 0.820587 0.000000
vt 0.902929 0.821347 0.000000
vt 0.896313 0.824839 0.000000
vt 0.893341 0.820729 0.000000
vt 0.910352 0.824921 0.000000
vt 0.904525 0.825255 0.000000
vt 0.898846 0.828242 0.000000
vt 0.894727 0.832484 0.000000
vt 0.891420 0.829610 0.000000
vt 0.905687 0.828585 0.000000
vt 0.901223 0.831342 0.000000
vt 0.897872 0.835008 0.000000
vt 0.895180 0.838599 0.000000
vt 0.891327 0.836849 0.000000
vt 0.903286 0.834095 0.000000
vt 0.900634 0.837377 0.000000
vt 0.898566 0.840341 0.000000
vt 0.902660 0.839191 0.000000
vt 0.901019 0.841818 0.000000
vt 0.904017 0.840781 0.000000
vt 0.902668 0.842994 0.000000
vt 0.904906 0.841792 0.000000
vt 0.903689 0.843658 0.000000
vt 0.905464 0.842355 0.000000
vt 0.904392 0.844031 0.000000
vt 0.903720 0.845886 0.000000
vt 0.905060 0.844335 0.000000
vt 0.904493 0.846093 0.000000
vt 0.905551 0.844583 0.000000
vt 0.905072 0.846215 0.000000
vt 0.906115 0.844835 0.000000
vt 0.905711 0.846281 0.000000
vt 0.906639 0.845027 0.000000
vt 0.906272 0.846300 0.000000
vt 0.907109 0.845208 0.000000
vt 0.906777 0.846341 0.000000
vt 0.907471 0.845372 0.000000
vt 0.907188 0.846408 0.000000
vt 0.907759 0.845486 0.000000
vt 0.907506 0.846483 0.000000
vt 0.907996 0.845561 0.000000
vt 0.907791 0.846524 0.000000
vt 0.908209 0.845617 0.000000
vt 0.908057 0.846529 0.000000
vt 0.908391 0.845665 0.000000
vt 0.908285 0.846514 0.000000
vt 0.908517 0.844917 0.000000
vt 0.908696 0.845037 0.000000
vt 0.908344 0.844787 0.000000
vt 0.908164 0.844654 0.000000
vt 0.908779 0.843998 0.000000
vt 0.908964 0.844159 0.000000
vt 0.909117 0.844315 0.000000
vt 0.909355 0.843588 0.000000
vt 0.909423 0.843827 0.000000
vt 0.909443 0.844058 0.000000
vt 0.910220 0.843608 0.000000
vt 0.910216 0.843853 0.000000
vt 0.911116 0.843950 0.000000
vt 0.910983 0.844184 0.000000
vt 0.910128 0.844085 0.000000
vt 0.910857 0.844427 0.000000
vt 0.910024 0.844382 0.000000
vt 0.909349 0.844524 0.000000
vt 0.909447 0.844238 0.000000
vt 0.910723 0.844744 0.000000
vt 0.909975 0.844671 0.000000
vt 0.910569 0.845152 0.000000
vt 0.909918 0.845092 0.000000
vt 0.911363 0.845157 0.000000
vt 0.911564 0.844921 0.000000
vt 0.912061 0.845707 0.000000
vt 0.911835 0.845856 0.000000
vt 0.912327 0.846585 0.000000
vt 0.912069 0.846633 0.000000
vt 0.912335 0.847504 0.000000
vt 0.912581 0.846535 0.000000
vt 0.912565 0.847550 0.000000
vt 0.912205 0.848455 0.000000
vt 0.912795 0.847605 0.000000
vt 0.912387 0.848599 0.000000
vt 0.913033 0.847673 0.000000
vt 0.912587 0.848758 0.000000
vt 0.913285 0.847750 0.000000
vt 0.912808 0.848923 0.000000
vt 0.913582 0.847843 0.000000
vt 0.913050 0.849115 0.000000
vt 0.913921 0.847985 0.000000
vt 0.913320 0.849377 0.000000
vt 0.914347 0.848200 0.000000
vt 0.913630 0.849705 0.000000
vt 0.914875 0.848371 0.000000
vt 0.913969 0.850090 0.000000
vt 0.915407 0.848490 0.000000
vt 0.914370 0.850509 0.000000
vt 0.915922 0.848610 0.000000
vt 0.914804 0.850922 0.000000
vt 0.916528 0.848700 0.000000
vt 0.915270 0.851376 0.000000
vt 0.917244 0.848753 0.000000
vt 0.915978 0.852077 0.000000
vt 0.913924 0.854220 0.000000
vt 0.917475 0.845514 0.000000
vt 0.918488 0.845094 0.000000
vt 0.916839 0.845748 0.000000
vt 0.915877 0.843337 0.000000
vt 0.916434 0.842930 0.000000
vt 0.916249 0.845952 0.000000
vt 0.915384 0.843679 0.000000
vt 0.913924 0.842046 0.000000
vt 0.914295 0.841596 0.000000
vt 0.915715 0.846149 0.000000
vt 0.914979 0.844007 0.000000
vt 0.913605 0.842473 0.000000
vt 0.912020 0.841604 0.000000
vt 0.912206 0.841071 0.000000
vt 0.914590 0.844323 0.000000
vt 0.913311 0.842847 0.000000
vt 0.911813 0.842086 0.000000
vt 0.910348 0.841902 0.000000
vt 0.910409 0.841354 0.000000
vt 0.913018 0.843203 0.000000
vt 0.911647 0.842514 0.000000
vt 0.910296 0.842363 0.000000
vt 0.909059 0.842631 0.000000
vt 0.909016 0.842142 0.000000
vt 0.911514 0.842889 0.000000
vt 0.910261 0.842756 0.000000
vt 0.909157 0.842995 0.000000
vt 0.908336 0.843558 0.000000
vt 0.908076 0.843230 0.000000
vt 0.910257 0.843094 0.000000
vt 0.909264 0.843310 0.000000
vt 0.908577 0.843802 0.000000
vt 0.907956 0.844507 0.000000
vt 0.907673 0.844319 0.000000
vt 0.907298 0.844042 0.000000
vt 0.906876 0.843663 0.000000
vt 0.907834 0.842759 0.000000
vt 0.906413 0.843220 0.000000
vt 0.907569 0.842216 0.000000
vt 0.908921 0.841580 0.000000
vt 0.907279 0.841667 0.000000
vt 0.908788 0.840977 0.000000
vt 0.910455 0.840760 0.000000
vt 0.908597 0.840294 0.000000
vt 0.910466 0.840109 0.000000
vt 0.912413 0.840515 0.000000
vt 0.910448 0.839388 0.000000
vt 0.912603 0.839920 0.000000
vt 0.914678 0.841124 0.000000
vt 0.913006 0.838747 0.000000
vt 0.915457 0.840051 0.000000
vt 0.917409 0.842207 0.000000
vt 0.916807 0.838036 0.000000
vt 0.919256 0.840749 0.000000
vt 0.920546 0.844075 0.000000
vt 0.921537 0.838479 0.000000
vt 0.923437 0.842381 0.000000
vt 0.923748 0.835955 0.000000
vt 0.926256 0.840619 0.000000
vt 0.927174 0.845528 0.000000
vt 0.928931 0.839111 0.000000
vt 0.930371 0.843956 0.000000
vt 0.930898 0.849215 0.000000
vt 0.926992 0.851288 0.000000
vt 0.931373 0.854888 0.000000
vt 0.927197 0.856960 0.000000
vt 0.934170 0.859407 0.000000
vt 0.929849 0.861933 0.000000
vt 0.925436 0.864297 0.000000
vt 0.932960 0.868066 0.000000
vt 0.938072 0.865031 0.000000
vt 0.943387 0.871713 0.000000
vt 0.943081 0.860654 0.000000
vt 0.949060 0.865789 0.000000
vt 0.957380 0.871700 0.000000
vt 0.953926 0.857051 0.000000
vt 0.962206 0.859788 0.000000
vt 0.956339 0.845298 0.000000
vt 0.949727 0.845076 0.000000
vt 0.948300 0.835283 0.000000
vt 0.947482 0.854135 0.000000
vt 0.942656 0.837476 0.000000
vt 0.939361 0.830407 0.000000
vt 0.937659 0.839839 0.000000
vt 0.933621 0.842160 0.000000
vt 0.925719 0.833655 0.000000
vt 0.920751 0.828405 0.000000
vt 0.922224 0.824242 0.000000
vt 0.919607 0.832041 0.000000
vt 0.915138 0.829612 0.000000
vt 0.915641 0.825955 0.000000
vt 0.918325 0.835181 0.000000
vt 0.914491 0.833069 0.000000
vt 0.910623 0.832124 0.000000
vt 0.910604 0.828532 0.000000
vt 0.913723 0.836294 0.000000
vt 0.910542 0.835569 0.000000
vt 0.907504 0.835583 0.000000
vt 0.906778 0.832064 0.000000
vt 0.910477 0.838115 0.000000
vt 0.908000 0.838204 0.000000
vt 0.905850 0.839036 0.000000
vt 0.904865 0.836685 0.000000
vt 0.908354 0.839558 0.000000
vt 0.906459 0.840368 0.000000
vt 0.906897 0.841064 0.000000
vt 0.905997 0.842824 0.000000
vt 0.910227 0.843355 0.000000
vt 0.911410 0.843220 0.000000
vt 0.911311 0.843490 0.000000
vt 0.911216 0.843727 0.000000
vt 0.912372 0.844084 0.000000
vt 0.912182 0.844311 0.000000
vt 0.911979 0.844515 0.000000
vt 0.912838 0.845278 0.000000
vt 0.912561 0.845425 0.000000
vt 0.912299 0.845564 0.000000
vt 0.911770 0.844716 0.000000
vt 0.912841 0.846490 0.000000
vt 0.913115 0.846451 0.000000
vt 0.913138 0.845099 0.000000
vt 0.913416 0.846420 0.000000
vt 0.913461 0.844903 0.000000
vt 0.913764 0.846412 0.000000
vt 0.913836 0.844758 0.000000
vt 0.914193 0.846409 0.000000
vt 0.914230 0.844588 0.000000
vt 0.914719 0.846452 0.000000
vt 0.915209 0.846337 0.000000
vt 0.912753 0.843520 0.000000
vt 0.912550 0.843826 0.000000
vt 0.889110 0.841843 0.000000
vt 0.884484 0.840756 0.000000
vt 0.887265 0.834824 0.000000
vt 0.879440 0.839076 0.000000
vt 0.882897 0.832238 0.000000
vt 0.887661 0.826035 0.000000
vt 0.877795 0.828680 0.000000
vt 0.883175 0.821458 0.000000
vt 0.889764 0.815275 0.000000
vt 0.877705 0.815394 0.000000
vt 0.885639 0.807957 0.000000
vt 0.895178 0.802222 0.000000
vt 0.880700 0.798339 0.000000
vt 0.892330 0.791442 0.000000
vt 0.904993 0.787979 0.000000
vt 0.889421 0.777840 0.000000
vt 0.905469 0.774099 0.000000
vt 0.920597 0.775292 0.000000
vt 0.907119 0.757985 0.000000
vt 0.926019 0.760163 0.000000
vt 0.941629 0.767545 0.000000
vt 0.933730 0.781079 0.000000
vt 0.954507 0.778313 0.000000
vt 0.945252 0.789619 0.000000
vt 0.965133 0.790924 0.000000
vt 0.867686 0.769772 0.000000
vt 0.886786 0.761305 0.000000
vt 0.874710 0.785901 0.000000
vt 0.862353 0.796371 0.000000
vt 0.851170 0.782049 0.000000
vt 0.852139 0.808498 0.000000
vt 0.837596 0.796888 0.000000
vt 0.870965 0.807191 0.000000
vt 0.862992 0.817121 0.000000
vt 0.856375 0.827107 0.000000
vt 0.843642 0.821223 0.000000
vt 0.871317 0.823702 0.000000
vt 0.866205 0.832123 0.000000
vt 0.862719 0.841155 0.000000
vt 0.852078 0.837961 0.000000
vt 0.873667 0.836153 0.000000
vt 0.870676 0.844196 0.000000
vt 0.869418 0.852299 0.000000
vt 0.860121 0.851446 0.000000
vt 0.877516 0.845856 0.000000
vt 0.883302 0.846456 0.000000
vt 0.861041 0.861622 0.000000
vt 0.849531 0.863853 0.000000
vt 0.848945 0.850569 0.000000
vt 0.836104 0.867710 0.000000
vt 0.834656 0.850493 0.000000
vt 0.838135 0.834702 0.000000
vt 0.817431 0.852335 0.000000
vt 0.820062 0.831639 0.000000
vt 0.827277 0.813498 0.000000
vt 0.892623 0.929475 0.000000
vt 0.897224 0.910863 0.000000
vt 0.905013 0.933767 0.000000
vt 0.879994 0.924494 0.000000
vt 0.885325 0.907829 0.000000
vt 0.888924 0.895373 0.000000
vt 0.864749 0.917537 0.000000
vt 0.872065 0.902228 0.000000
vt 0.877536 0.891433 0.000000
vt 0.882052 0.882844 0.000000
vt 0.857282 0.893915 0.000000
vt 0.865765 0.884728 0.000000
vt 0.873005 0.877464 0.000000
vt 0.855610 0.875626 0.000000
vt 0.865699 0.870244 0.000000
vt 0.843917 0.882662 0.000000
vt 0.847201 0.906275 0.000000
vt 0.830716 0.893261 0.000000
vt 0.820533 0.874689 0.000000
vt 0.849460 0.640870 0.000000
vt 0.834951 0.642541 0.000000
vt 0.835988 0.628607 0.000000
vt 0.841989 0.616218 0.000000
vt 0.853283 0.624809 0.000000
vt 0.859546 0.634090 0.000000
vt 0.929486 0.568848 0.000000
vt 0.919720 0.573737 0.000000
vt 0.916550 0.557299 0.000000
vt 0.935683 0.557360 0.000000
vt 0.949705 0.562618 0.000000
vt 0.938119 0.577991 0.000000
vt 0.922495 0.585784 0.000000
vt 0.947348 0.709636 0.000000
vt 0.936994 0.713173 0.000000
vt 0.938937 0.699942 0.000000
vt 0.950480 0.701648 0.000000
vt 0.962500 0.704906 0.000000
vt 0.952135 0.719527 0.000000
vt 0.938379 0.724941 0.000000
vt 0.921742 0.680571 0.000000
vt 0.918480 0.687982 0.000000
vt 0.910160 0.682496 0.000000
vt 0.916862 0.674622 0.000000
vt 0.926370 0.669347 0.000000
vt 0.928825 0.679086 0.000000
vt 0.928917 0.689055 0.000000
vt 0.940372 0.688273 0.000000
vt 0.927409 0.699495 0.000000
vt 0.916256 0.697309 0.000000
vt 0.939881 0.676808 0.000000
vt 0.952488 0.674669 0.000000
vt 0.953054 0.688027 0.000000
vt 0.937296 0.665259 0.000000
vt 0.949947 0.661244 0.000000
vt 0.965015 0.657628 0.000000
vt 0.967289 0.673381 0.000000
vt 0.932937 0.653637 0.000000
vt 0.945405 0.648496 0.000000
vt 0.960589 0.643345 0.000000
vt 0.981001 0.639440 0.000000
vt 0.984073 0.656491 0.000000
vt 0.940976 0.635984 0.000000
vt 0.955514 0.629577 0.000000
vt 0.978847 0.624963 0.000000
vt 0.953118 0.616122 0.000000
vt 0.975568 0.609784 0.000000
vt 0.984965 0.674408 0.000000
vt 0.982001 0.692428 0.000000
vt 0.966922 0.689260 0.000000
vt 0.974361 0.710226 0.000000
vt 0.960206 0.726131 0.000000
vt 0.942501 0.734526 0.000000
vt 0.893129 0.730160 0.000000
vt 0.898712 0.714904 0.000000
vt 0.911632 0.720539 0.000000
vt 0.909299 0.734869 0.000000
vt 0.925178 0.723834 0.000000
vt 0.925788 0.736486 0.000000
vt 0.914092 0.707939 0.000000
vt 0.925835 0.711181 0.000000
vt 0.902932 0.702103 0.000000
vt 0.906193 0.691652 0.000000
vt 0.897605 0.683232 0.000000
vt 0.903822 0.674079 0.000000
vt 0.892333 0.693888 0.000000
vt 0.881341 0.684398 0.000000
vt 0.888997 0.673946 0.000000
vt 0.886286 0.706605 0.000000
vt 0.873312 0.696425 0.000000
vt 0.859414 0.685184 0.000000
vt 0.870321 0.674397 0.000000
vt 0.877650 0.721394 0.000000
vt 0.862359 0.709864 0.000000
vt 0.846537 0.696142 0.000000
vt 0.860644 0.663460 0.000000
vt 0.871358 0.654606 0.000000
vt 0.880108 0.664438 0.000000
vt 0.847681 0.671750 0.000000
vt 0.839175 0.657287 0.000000
vt 0.853386 0.651986 0.000000
vt 0.832205 0.679839 0.000000
vt 0.821941 0.661319 0.000000
vt 0.817431 0.641803 0.000000
vt 0.839761 0.593378 0.000000
vt 0.852513 0.605223 0.000000
vt 0.827128 0.607263 0.000000
vt 0.819342 0.623435 0.000000
vt 0.867165 0.595293 0.000000
vt 0.875273 0.607319 0.000000
vt 0.862072 0.615646 0.000000
vt 0.856868 0.581920 0.000000
vt 0.881287 0.618255 0.000000
vt 0.868528 0.625734 0.000000
vt 0.885777 0.628317 0.000000
vt 0.873345 0.635631 0.000000
vt 0.864319 0.644183 0.000000
vt 0.880504 0.645547 0.000000
vt 0.890640 0.637820 0.000000
vt 0.898319 0.647435 0.000000
vt 0.889226 0.655196 0.000000
vt 0.905735 0.656935 0.000000
vt 0.897021 0.664881 0.000000
vt 0.911888 0.666106 0.000000
vt 0.921878 0.659495 0.000000
vt 0.916142 0.649700 0.000000
vt 0.927982 0.642266 0.000000
vt 0.910036 0.640415 0.000000
vt 0.923501 0.631664 0.000000
vt 0.937090 0.623648 0.000000
vt 0.904798 0.631452 0.000000
vt 0.919037 0.621807 0.000000
vt 0.933030 0.612233 0.000000
vt 0.949432 0.603757 0.000000
vt 0.914457 0.612452 0.000000
vt 0.928982 0.602732 0.000000
vt 0.945740 0.593526 0.000000
vt 0.966262 0.581320 0.000000
vt 0.971146 0.594920 0.000000
vt 0.925481 0.594553 0.000000
vt 0.942187 0.585316 0.000000
vt 0.959336 0.570746 0.000000
vt 0.897296 0.564367 0.000000
vt 0.903961 0.580814 0.000000
vt 0.884665 0.586757 0.000000
vt 0.877491 0.572640 0.000000
vt 0.906570 0.593314 0.000000
vt 0.890076 0.599951 0.000000
vt 0.910042 0.603447 0.000000
vt 0.895559 0.611769 0.000000
vt 0.900352 0.622156 0.000000
# 719 texture coords

o Group54698
g Group54698
f 1/1 14/589 15/590 16/591 
f 1/1 16/591 17/592 18/593 
f 1/1 18/593 19/594 14/589 
f 2/595 20/596 21/597 22/598 
f 2/595 22/598 23/599 24/600 
f 24/600 25/601 20/596 2/595 
f 3/2 26/3 27/4 28/5 
f 4/6 29/7 30/8 31/9 
f 32/10 33/11 29/7 4/6 
f 4/6 31/9 34/12 32/10 
f 5/13 35/14 36/15 37/16 
f 37/16 38/17 39/18 5/13 
f 5/13 39/18 40/19 35/14 
f 41/20 42/21 43/22 6/23 
f 6/23 43/22 44/24 45/25 
f 6/23 45/25 46/26 41/20 
f 7/27 47/28 48/29 49/30 
f 7/27 50/31 51/32 47/28 
f 7/27 49/30 52/33 50/31 
f 8/34 53/35 54/36 55/37 
f 56/38 57/39 53/35 8/34 
f 58/40 59/41 56/38 8/34 
f 9/42 60/43 61/44 62/45 
f 9/42 63/46 64/47 60/43 
f 9/42 62/45 65/48 63/46 
f 66/49 67/50 68/51 10/52 
f 69/53 70/54 66/49 10/52 
f 10/52 68/51 71/55 72/56 
f 10/52 73/57 74/58 69/53 
f 72/56 75/59 73/57 10/52 
f 11/60 76/61 77/62 78/63 
f 11/60 79/64 80/65 76/61 
f 11/60 78/63 81/66 79/64 
f 12/602 82/603 83/604 84/605 
f 12/602 84/605 85/606 86/607 
f 86/607 87/608 82/603 12/602 
f 13/609 88/610 89/611 90/612 
f 13/609 90/612 91/613 92/614 
f 13/609 92/614 93/615 88/610 
f 93/615 94/616 83/604 95/617 
f 95/617 96/618 88/610 93/615 
f 92/614 97/619 94/616 93/615 
f 97/619 98/620 99/621 94/616 
f 97/619 92/614 91/613 100/622 
f 100/622 101/623 98/620 97/619 
f 102/624 103/625 98/620 101/623 
f 101/623 100/622 104/626 105/627 
f 101/623 105/627 106/628 102/624 
f 107/629 108/630 102/624 106/628 
f 106/628 105/627 109/631 110/632 
f 106/628 110/632 111/633 107/629 
f 112/67 113/68 107/69 111/70 
f 111/633 110/632 114/634 115/635 
f 111/70 115/71 116/72 112/67 
f 117/73 118/74 112/67 116/72 
f 116/72 115/71 119/75 120/76 
f 120/76 121/77 117/73 116/72 
f 121/77 122/78 123/79 117/73 
f 121/77 120/76 124/80 125/81 
f 125/81 126/82 122/78 121/77 
f 126/82 127/83 128/84 122/78 
f 126/82 125/81 129/85 130/86 
f 130/86 131/87 127/83 126/82 
f 132/88 133/89 127/83 131/87 
f 130/86 134/90 135/91 131/87 
f 131/87 135/91 136/92 132/88 
f 137/93 138/94 132/88 136/92 
f 135/91 139/95 140/96 136/92 
f 136/92 140/96 61/44 137/93 
f 139/95 141/97 142/98 140/96 
f 140/96 142/98 62/45 61/44 
f 141/97 143/99 144/100 142/98 
f 142/98 144/100 65/48 62/45 
f 143/99 145/101 146/102 144/100 
f 144/100 146/102 147/103 65/48 
f 147/103 146/102 148/104 149/105 
f 149/105 150/106 151/107 147/103 
f 151/107 63/46 65/48 147/103 
f 150/106 152/108 153/109 151/107 
f 153/109 64/47 63/46 151/107 
f 152/108 57/39 56/38 153/109 
f 56/38 59/41 64/47 153/109 
f 152/108 150/106 154/110 155/111 
f 155/111 156/112 57/39 152/108 
f 156/112 155/111 157/113 158/114 
f 156/112 158/114 159/115 160/116 
f 160/116 53/35 57/39 156/112 
f 160/116 159/115 161/117 162/118 
f 162/118 54/36 53/35 160/116 
f 162/118 161/117 163/119 164/120 
f 164/120 165/121 54/36 162/118 
f 165/121 166/122 55/37 54/36 
f 165/121 164/120 167/123 168/124 
f 168/124 169/125 166/122 165/121 
f 170/126 171/127 172/128 169/125 
f 169/125 172/128 173/129 166/122 
f 169/125 168/124 174/130 170/126 
f 168/124 167/123 175/131 174/130 
f 174/130 175/131 176/132 177/133 
f 177/133 178/134 170/126 174/130 
f 179/135 180/136 181/137 178/134 
f 178/134 181/137 171/127 170/126 
f 178/134 177/133 182/138 179/135 
f 177/133 176/132 183/139 182/138 
f 182/138 183/139 184/140 185/141 
f 185/141 186/142 179/135 182/138 
f 187/143 188/144 189/145 186/142 
f 186/142 189/145 180/136 179/135 
f 186/142 185/141 190/146 187/143 
f 185/141 184/140 191/147 190/146 
f 190/146 191/147 192/148 193/149 
f 193/149 194/150 187/143 190/146 
f 195/151 196/152 197/153 194/150 
f 194/150 197/153 188/144 187/143 
f 194/150 193/149 198/154 195/151 
f 193/149 192/148 199/155 198/154 
f 198/154 199/155 200/156 201/157 
f 201/157 202/158 195/151 198/154 
f 203/159 204/160 205/161 202/158 
f 202/158 205/161 196/152 195/151 
f 202/158 201/157 206/162 203/159 
f 201/157 200/156 207/163 206/162 
f 206/162 207/163 208/164 209/165 
f 209/165 210/166 203/159 206/162 
f 211/167 44/24 212/168 210/166 
f 210/166 212/168 204/160 203/159 
f 210/166 209/165 213/169 211/167 
f 209/165 208/164 214/170 213/169 
f 214/170 215/171 216/172 213/169 
f 216/172 217/173 211/167 213/169 
f 48/29 46/26 45/25 217/173 
f 217/173 45/25 44/24 211/167 
f 217/173 216/172 49/30 48/29 
f 215/171 52/33 49/30 216/172 
f 215/171 214/170 218/174 219/175 
f 219/175 220/176 52/33 215/171 
f 220/176 219/175 35/14 40/19 
f 40/19 221/177 222/178 220/176 
f 220/176 222/178 50/31 52/33 
f 221/177 223/179 224/180 222/178 
f 224/180 51/32 50/31 222/178 
f 224/180 223/179 32/10 34/12 
f 34/12 225/181 51/32 224/180 
f 225/181 34/12 31/9 226/182 
f 225/181 226/182 227/183 228/184 
f 225/181 228/184 47/28 51/32 
f 228/184 227/183 41/20 46/26 
f 46/26 48/29 47/28 228/184 
f 226/182 229/185 230/186 227/183 
f 227/183 230/186 42/21 41/20 
f 229/185 231/187 232/188 230/186 
f 232/188 233/189 42/21 230/186 
f 233/189 232/188 234/190 235/191 
f 235/191 236/192 237/193 233/189 
f 233/189 237/193 43/22 42/21 
f 236/192 204/160 212/168 237/193 
f 237/193 212/168 44/24 43/22 
f 236/192 235/191 238/194 239/195 
f 239/195 205/161 204/160 236/192 
f 239/195 238/194 240/196 241/197 
f 241/197 196/152 205/161 239/195 
f 241/197 240/196 242/198 243/199 
f 243/199 197/153 196/152 241/197 
f 243/199 242/198 244/200 245/201 
f 245/201 188/144 197/153 243/199 
f 245/201 244/200 246/202 247/203 
f 247/203 189/145 188/144 245/201 
f 247/203 246/202 248/204 249/205 
f 249/205 180/136 189/145 247/203 
f 249/205 248/204 250/206 251/207 
f 251/207 181/137 180/136 249/205 
f 251/207 250/206 252/208 253/209 
f 253/209 171/127 181/137 251/207 
f 253/209 252/208 254/210 255/211 
f 255/211 172/128 171/127 253/209 
f 255/211 254/210 256/212 257/213 
f 257/213 173/129 172/128 255/211 
f 257/213 256/212 258/214 259/215 
f 259/215 260/216 173/129 257/213 
f 260/216 259/215 261/217 262/218 
f 262/218 8/34 55/37 260/216 
f 260/216 55/37 166/122 173/129 
f 262/218 261/217 263/219 264/220 
f 264/220 58/40 8/34 262/218 
f 264/220 263/219 265/221 266/222 
f 266/222 267/223 58/40 264/220 
f 267/223 266/222 268/224 138/94 
f 138/94 137/93 269/225 267/223 
f 269/225 59/41 58/40 267/223 
f 137/93 61/44 60/43 269/225 
f 60/43 64/47 59/41 269/225 
f 266/222 265/221 270/226 268/224 
f 268/224 270/226 271/227 133/89 
f 133/89 132/88 138/94 268/224 
f 270/226 75/59 272/228 271/227 
f 271/227 272/228 273/229 128/84 
f 128/84 127/83 133/89 271/227 
f 272/228 274/230 275/231 273/229 
f 273/229 275/231 276/232 123/79 
f 123/79 122/78 128/84 273/229 
f 275/231 277/233 278/234 276/232 
f 276/232 278/234 279/235 118/74 
f 118/74 117/73 123/79 276/232 
f 279/235 278/234 280/236 281/237 
f 279/235 281/237 282/238 113/68 
f 113/68 112/67 118/74 279/235 
f 281/237 283/239 284/240 282/238 
f 282/238 284/240 285/241 108/242 
f 108/242 107/69 113/68 282/238 
f 284/240 286/243 287/244 285/241 
f 285/636 287/637 288/638 103/625 
f 103/625 102/624 108/630 285/636 
f 288/638 287/637 289/639 85/606 
f 85/606 84/605 99/621 288/638 
f 99/621 98/620 103/625 288/638 
f 289/245 290/246 291/247 292/248 
f 292/640 86/607 85/606 289/639 
f 289/245 287/244 286/243 290/246 
f 293/641 87/608 86/607 292/640 
f 292/248 291/247 294/249 293/250 
f 295/251 296/252 293/250 294/249 
f 291/247 297/253 298/254 294/249 
f 294/249 298/254 299/255 295/251 
f 300/256 301/257 295/251 299/255 
f 298/254 302/258 303/259 299/255 
f 299/255 303/259 304/260 300/256 
f 305/261 306/262 300/256 304/260 
f 303/259 307/263 308/264 304/260 
f 304/260 308/264 309/265 305/261 
f 310/266 311/267 305/261 309/265 
f 308/264 312/268 313/269 309/265 
f 309/265 313/269 314/270 310/266 
f 315/271 316/272 317/273 311/267 
f 311/267 317/273 306/262 305/261 
f 311/267 310/266 318/274 315/271 
f 319/275 320/276 315/271 318/274 
f 310/266 314/270 321/277 318/274 
f 318/274 321/277 322/278 319/275 
f 323/279 324/280 319/275 322/278 
f 321/277 325/281 326/282 322/278 
f 322/278 326/282 327/283 323/279 
f 328/284 329/285 323/279 327/283 
f 326/282 330/286 331/287 327/283 
f 327/283 331/287 332/288 328/284 
f 332/288 333/289 334/290 328/284 
f 331/287 335/291 336/292 332/288 
f 336/292 337/293 333/289 332/288 
f 338/294 339/295 333/289 337/293 
f 337/293 336/292 340/296 341/297 
f 337/293 341/297 342/298 338/294 
f 158/114 157/113 338/294 342/298 
f 342/298 341/297 343/299 344/300 
f 342/298 344/300 159/115 158/114 
f 344/300 343/299 345/301 346/302 
f 346/302 161/117 159/115 344/300 
f 346/302 345/301 347/303 348/304 
f 348/304 163/119 161/117 346/302 
f 348/304 347/303 349/305 350/306 
f 350/306 351/307 163/119 348/304 
f 351/307 167/123 164/120 163/119 
f 351/307 350/306 352/308 353/309 
f 353/309 175/131 167/123 351/307 
f 352/308 354/310 355/311 353/309 
f 355/311 176/132 175/131 353/309 
f 354/310 356/312 357/313 355/311 
f 357/313 183/139 176/132 355/311 
f 356/312 358/314 359/315 357/313 
f 359/315 184/140 183/139 357/313 
f 358/314 360/316 361/317 359/315 
f 361/317 191/147 184/140 359/315 
f 360/316 362/318 363/319 361/317 
f 363/319 192/148 191/147 361/317 
f 362/318 364/320 365/321 363/319 
f 365/321 199/155 192/148 363/319 
f 364/320 366/322 367/323 365/321 
f 367/323 200/156 199/155 365/321 
f 366/322 368/324 369/325 367/323 
f 367/323 369/325 207/163 200/156 
f 369/325 368/324 370/326 371/327 
f 369/325 371/327 208/164 207/163 
f 371/327 370/326 36/15 218/174 
f 371/327 218/174 214/170 208/164 
f 368/324 372/328 373/329 370/326 
f 370/326 373/329 37/16 36/15 
f 366/322 374/330 372/328 368/324 
f 374/330 366/322 364/320 375/331 
f 374/330 375/331 376/332 377/333 
f 377/333 378/334 372/328 374/330 
f 376/332 379/335 380/336 377/333 
f 377/333 380/336 381/337 378/334 
f 380/336 382/338 383/339 381/337 
f 383/339 385/340 386/341 384/342 
f 384/342 386/341 387/343 388/344 
f 388/344 389/345 390/346 384/342 
f 388/344 387/343 391/347 392/348 
f 392/348 38/17 389/345 388/344 
f 392/348 391/347 393/349 394/350 
f 394/350 39/18 38/17 392/348 
f 394/350 393/349 223/179 221/177 
f 221/177 40/19 39/18 394/350 
f 393/349 391/347 395/351 33/11 
f 33/11 32/10 223/179 393/349 
f 391/347 387/343 396/352 395/351 
f 395/351 396/352 397/353 398/354 
f 398/354 29/7 33/11 395/351 
f 398/354 397/353 399/355 400/356 
f 400/356 30/8 29/7 398/354 
f 399/355 401/357 231/187 400/356 
f 400/356 231/187 229/185 30/8 
f 401/357 399/355 402/358 403/359 
f 403/359 404/360 234/190 401/357 
f 234/190 232/188 231/187 401/357 
f 404/360 403/359 405/361 406/362 
f 406/362 240/196 238/194 404/360 
f 404/360 238/194 235/191 234/190 
f 406/362 405/361 407/363 408/364 
f 408/364 242/198 240/196 406/362 
f 408/364 407/363 409/365 410/366 
f 410/366 244/200 242/198 408/364 
f 410/366 409/365 411/367 412/368 
f 412/368 246/202 244/200 410/366 
f 412/368 411/367 413/369 414/370 
f 414/370 248/204 246/202 412/368 
f 414/370 413/369 415/371 416/372 
f 416/372 250/206 248/204 414/370 
f 416/372 415/371 417/373 418/374 
f 418/374 252/208 250/206 416/372 
f 417/373 419/375 420/376 418/374 
f 420/376 254/210 252/208 418/374 
f 420/376 419/375 421/377 422/378 
f 422/378 256/212 254/210 420/376 
f 422/378 421/377 423/379 424/380 
f 424/380 258/214 256/212 422/378 
f 424/380 423/379 425/381 426/382 
f 426/382 427/383 258/214 424/380 
f 427/383 426/382 69/53 74/58 
f 74/58 263/219 261/217 427/383 
f 427/383 261/217 259/215 258/214 
f 426/382 425/381 70/54 69/53 
f 428/384 429/385 70/54 425/381 
f 425/381 423/379 430/386 428/384 
f 431/387 432/388 428/384 430/386 
f 423/379 421/377 433/389 430/386 
f 430/386 433/389 434/390 431/387 
f 435/391 436/392 431/387 434/390 
f 433/389 437/393 438/394 434/390 
f 434/390 438/394 439/395 435/391 
f 440/396 441/397 435/391 439/395 
f 438/394 442/398 443/399 439/395 
f 443/399 444/400 440/396 439/395 
f 444/400 445/401 446/402 440/396 
f 444/400 443/399 447/403 448/404 
f 448/404 449/405 445/401 444/400 
f 449/405 450/406 451/407 445/401 
f 449/405 448/404 452/408 453/409 
f 453/409 454/410 450/406 449/405 
f 454/410 455/411 456/412 450/406 
f 454/410 453/409 457/413 458/414 
f 458/414 459/415 455/411 454/410 
f 460/416 461/417 455/411 459/415 
f 459/415 458/414 379/335 376/332 
f 376/332 375/331 460/416 459/415 
f 360/316 358/314 462/418 461/417 
f 462/418 456/412 455/411 461/417 
f 461/417 460/416 362/318 360/316 
f 358/314 356/312 463/419 462/418 
f 463/419 464/420 456/412 462/418 
f 464/420 463/419 465/421 466/422 
f 466/422 467/423 451/407 464/420 
f 464/420 451/407 450/406 456/412 
f 467/423 466/422 468/424 469/425 
f 469/425 470/426 446/402 467/423 
f 467/423 446/402 445/401 451/407 
f 469/425 471/427 472/428 470/426 
f 470/426 472/428 473/429 441/397 
f 470/426 441/397 440/396 446/402 
f 472/428 474/430 475/431 473/429 
f 473/429 475/431 476/432 436/392 
f 436/392 435/391 441/397 473/429 
f 475/431 477/433 478/434 476/432 
f 476/432 478/434 479/435 432/388 
f 432/388 431/387 436/392 476/432 
f 478/434 480/436 481/437 479/435 
f 479/435 481/437 482/438 429/385 
f 429/385 428/384 432/388 479/435 
f 481/437 483/439 484/440 482/438 
f 482/438 484/440 67/50 66/49 
f 66/49 70/54 429/385 482/438 
f 483/439 485/441 486/442 484/440 
f 484/440 486/442 487/443 67/50 
f 486/442 488/444 489/445 487/443 
f 487/443 489/445 490/446 491/447 
f 491/447 68/51 67/50 487/443 
f 491/447 490/446 492/448 493/449 
f 493/449 71/55 68/51 491/447 
f 492/448 494/450 495/451 493/449 
f 495/451 496/452 71/55 493/449 
f 496/452 495/451 497/453 277/233 
f 277/233 275/231 274/230 496/452 
f 496/452 274/230 72/56 71/55 
f 495/451 494/450 498/454 497/453 
f 498/454 499/455 280/236 497/453 
f 497/453 280/236 278/234 277/233 
f 499/455 498/454 500/456 501/457 
f 501/457 502/458 283/239 499/455 
f 499/455 283/239 281/237 280/236 
f 501/457 503/459 504/460 502/458 
f 502/458 504/460 290/246 286/243 
f 286/243 284/240 283/239 502/458 
f 504/460 503/459 505/461 297/253 
f 297/253 291/247 290/246 504/460 
f 505/461 506/462 507/463 302/258 
f 302/258 298/254 297/253 505/461 
f 505/461 503/459 508/464 506/462 
f 79/64 81/66 506/462 508/464 
f 503/459 501/457 500/456 508/464 
f 508/464 500/456 80/65 79/64 
f 307/263 303/259 302/258 507/463 
f 507/463 506/462 81/66 509/465 
f 507/463 509/465 510/466 307/263 
f 312/268 308/264 307/263 510/466 
f 509/465 511/467 26/3 510/466 
f 510/466 26/3 3/2 312/268 
f 511/467 509/465 81/66 78/63 
f 78/63 77/62 512/468 511/467 
f 511/467 512/468 27/4 26/3 
f 77/62 490/446 489/445 512/468 
f 512/468 489/445 488/444 27/4 
f 498/454 494/450 80/65 500/456 
f 492/448 76/61 80/65 494/450 
f 490/446 77/62 76/61 492/448 
f 513/469 28/5 27/4 488/444 
f 488/444 486/442 485/441 513/469 
f 514/470 515/471 28/5 513/469 
f 513/469 485/441 516/472 514/470 
f 517/473 518/474 514/470 516/472 
f 485/441 483/439 519/475 516/472 
f 516/472 519/475 520/476 517/473 
f 521/477 522/478 517/473 520/476 
f 519/475 480/436 523/479 520/476 
f 520/476 523/479 524/480 521/477 
f 525/481 526/482 521/477 524/480 
f 523/479 477/433 527/483 524/480 
f 524/480 527/483 528/484 525/481 
f 528/484 529/485 530/486 525/481 
f 527/483 474/430 531/487 528/484 
f 531/487 532/488 529/485 528/484 
f 532/488 347/303 345/301 529/485 
f 531/487 471/427 533/489 532/488 
f 533/489 349/305 347/303 532/488 
f 533/489 471/427 469/425 468/424 
f 468/424 534/490 349/305 533/489 
f 534/490 352/308 350/306 349/305 
f 534/490 468/424 466/422 465/421 
f 465/421 354/310 352/308 534/490 
f 474/430 472/428 471/427 531/487 
f 530/486 343/299 341/297 340/296 
f 340/296 526/482 525/481 530/486 
f 529/485 345/301 343/299 530/486 
f 477/433 475/431 474/430 527/483 
f 526/482 340/296 336/292 335/291 
f 526/482 335/291 522/478 521/477 
f 480/436 478/434 477/433 523/479 
f 335/291 331/287 330/286 522/478 
f 522/478 330/286 518/474 517/473 
f 483/439 481/437 480/436 519/475 
f 330/286 326/282 325/281 518/474 
f 518/474 325/281 515/471 514/470 
f 465/421 463/419 356/312 354/310 
f 375/331 364/320 362/318 460/416 
f 458/414 457/413 535/491 379/335 
f 457/413 536/492 537/493 535/491 
f 535/491 537/493 538/494 382/338 
f 382/338 380/336 379/335 535/491 
f 537/493 539/495 540/496 538/494 
f 540/496 541/497 385/340 538/494 
f 385/340 383/339 382/338 538/494 
f 541/497 540/496 542/498 543/499 
f 543/499 544/500 545/501 541/497 
f 545/501 386/341 385/340 541/497 
f 544/500 397/353 396/352 545/501 
f 545/501 396/352 387/343 386/341 
f 544/500 543/499 546/502 402/358 
f 402/358 399/355 397/353 544/500 
f 543/499 542/498 547/503 546/502 
f 547/503 407/363 405/361 546/502 
f 546/502 405/361 403/359 402/358 
f 542/498 548/504 549/505 547/503 
f 549/505 409/365 407/363 547/503 
f 548/504 550/506 551/507 549/505 
f 551/507 411/367 409/365 549/505 
f 551/507 550/506 552/508 553/509 
f 553/509 413/369 411/367 551/507 
f 553/509 552/508 554/510 555/511 
f 555/511 415/371 413/369 553/509 
f 554/510 442/398 556/512 555/511 
f 555/511 556/512 417/373 415/371 
f 442/398 438/394 437/393 556/512 
f 556/512 437/393 419/375 417/373 
f 447/403 443/399 442/398 554/510 
f 552/508 557/513 447/403 554/510 
f 557/513 452/408 448/404 447/403 
f 557/513 552/508 550/506 558/514 
f 558/514 536/492 452/408 557/513 
f 550/506 548/504 539/495 558/514 
f 539/495 537/493 536/492 558/514 
f 548/504 542/498 540/496 539/495 
f 536/492 457/413 453/409 452/408 
f 437/393 433/389 421/377 419/375 
f 559/515 560/516 561/517 339/295 
f 339/295 561/517 334/290 333/289 
f 339/295 338/294 157/113 559/515 
f 560/516 562/518 563/519 561/517 
f 561/517 563/519 564/520 334/290 
f 564/520 563/519 565/521 566/522 
f 566/522 567/523 329/285 564/520 
f 564/520 329/285 328/284 334/290 
f 567/523 566/522 568/524 569/525 
f 569/525 570/526 324/280 567/523 
f 567/523 324/280 323/279 329/285 
f 570/526 569/525 571/527 572/528 
f 572/528 573/529 320/276 570/526 
f 570/526 320/276 319/275 324/280 
f 573/529 572/528 574/530 575/531 
f 575/531 576/532 316/272 573/529 
f 573/529 316/272 315/271 320/276 
f 576/532 575/531 577/533 578/534 
f 578/534 579/535 580/536 576/532 
f 580/536 317/273 316/272 576/532 
f 580/536 579/535 581/537 582/538 
f 582/538 306/262 317/273 580/536 
f 582/538 581/537 583/539 301/257 
f 301/257 300/256 306/262 582/538 
f 581/642 584/643 585/644 583/645 
f 583/645 585/644 586/646 296/647 
f 296/252 295/251 301/257 583/539 
f 585/644 587/648 588/649 586/646 
f 586/646 588/649 82/603 87/608 
f 87/608 293/641 296/647 586/646 
f 587/648 96/618 95/617 588/649 
f 95/617 83/604 82/603 588/649 
f 589/650 590/651 96/618 587/648 
f 587/648 585/644 584/643 589/650 
f 591/652 592/653 89/611 590/651 
f 590/651 89/611 88/610 96/618 
f 590/651 589/650 593/654 591/652 
f 594/655 595/656 591/652 593/654 
f 589/650 584/643 596/657 593/654 
f 593/654 596/657 597/658 594/655 
f 598/659 599/660 594/655 597/658 
f 596/657 579/661 578/662 597/658 
f 578/662 577/663 598/659 597/658 
f 600/664 601/665 602/666 599/660 
f 599/660 602/666 595/656 594/655 
f 598/659 603/667 600/664 599/660 
f 603/667 604/668 605/669 600/664 
f 603/667 598/659 577/663 606/670 
f 606/670 607/671 604/668 603/667 
f 607/671 608/672 15/590 604/668 
f 607/540 606/541 574/530 609/542 
f 609/542 610/543 608/544 607/540 
f 610/543 611/545 612/546 608/544 
f 610/543 609/542 571/527 613/547 
f 613/547 614/548 611/545 610/543 
f 615/549 616/550 611/545 614/548 
f 614/548 613/547 568/524 617/551 
f 617/551 618/552 615/549 614/548 
f 618/552 619/553 620/554 615/549 
f 618/552 617/551 565/521 621/555 
f 621/555 622/556 619/553 618/552 
f 622/556 623/557 624/558 619/553 
f 622/556 621/555 562/518 625/559 
f 625/559 148/104 623/557 622/556 
f 562/518 560/516 626/560 625/559 
f 625/559 626/560 149/105 148/104 
f 560/516 559/515 154/110 626/560 
f 626/560 154/110 150/106 149/105 
f 624/558 627/561 628/562 629/563 
f 624/558 629/563 620/554 619/553 
f 623/557 145/101 627/561 624/558 
f 628/562 630/564 631/565 629/563 
f 629/563 631/565 632/566 620/554 
f 631/565 633/567 634/568 632/566 
f 632/566 634/568 635/569 616/550 
f 616/550 615/549 620/554 632/566 
f 634/673 636/674 17/592 635/675 
f 635/675 17/592 16/591 612/676 
f 612/546 611/545 616/550 635/569 
f 637/677 638/678 639/679 636/674 
f 636/674 639/679 18/593 17/592 
f 636/674 634/673 633/680 637/677 
f 639/679 638/678 640/681 641/682 
f 641/682 19/594 18/593 639/679 
f 641/682 640/681 642/683 643/684 
f 643/684 644/685 19/594 641/682 
f 644/685 643/684 645/686 601/665 
f 601/665 600/664 605/669 644/685 
f 644/685 605/669 14/589 19/594 
f 646/687 647/688 648/689 645/686 
f 648/689 602/666 601/665 645/686 
f 643/684 642/683 646/687 645/686 
f 648/689 647/688 649/690 650/691 
f 650/691 595/656 602/666 648/689 
f 650/691 649/690 651/692 592/653 
f 592/653 591/652 595/656 650/691 
f 651/692 652/693 91/613 90/612 
f 90/612 89/611 592/653 651/692 
f 649/690 653/694 652/693 651/692 
f 653/694 654/695 104/626 652/693 
f 649/690 647/688 655/696 653/694 
f 655/696 656/697 654/695 653/694 
f 656/697 657/698 109/631 654/695 
f 656/697 655/696 658/699 659/700 
f 659/700 660/701 657/698 656/697 
f 660/701 661/702 114/634 657/698 
f 660/701 659/700 662/703 663/704 
f 663/704 664/705 661/702 660/701 
f 664/705 665/706 119/707 661/702 
f 664/705 663/704 666/708 667/709 
f 667/709 668/710 665/706 664/705 
f 668/570 669/571 124/80 665/572 
f 668/710 667/709 24/600 23/599 
f 23/573 670/574 669/571 668/570 
f 670/574 671/575 129/85 669/571 
f 670/574 23/573 22/576 672/577 
f 670/574 672/577 673/578 671/575 
f 674/579 134/90 671/575 673/578 
f 672/577 675/580 676/581 673/578 
f 673/578 676/581 677/582 674/579 
f 676/581 678/583 679/584 677/582 
f 677/582 679/584 143/99 141/97 
f 141/97 139/95 674/579 677/582 
f 678/583 628/562 627/561 679/584 
f 679/584 627/561 145/101 143/99 
f 678/583 676/581 675/580 680/585 
f 680/585 630/564 628/562 678/583 
f 680/585 675/580 21/586 681/587 
f 680/585 681/587 682/588 630/564 
f 681/711 683/712 684/713 682/714 
f 682/714 684/713 637/677 633/680 
f 633/567 631/565 630/564 682/588 
f 684/713 683/712 685/715 686/716 
f 684/713 686/716 638/678 637/677 
f 686/716 685/715 687/717 688/718 
f 686/716 688/718 640/681 638/678 
f 688/718 687/717 662/703 689/719 
f 688/718 689/719 642/683 640/681 
f 689/719 662/703 659/700 658/699 
f 689/719 658/699 646/687 642/683 
f 687/717 666/708 663/704 662/703 
f 685/715 25/601 666/708 687/717 
f 683/712 20/596 25/601 685/715 
f 681/711 21/597 20/596 683/712 
f 675/580 672/577 22/576 21/586 
f 139/95 135/91 134/90 674/579 
f 134/90 130/86 129/85 671/575 
f 669/571 129/85 125/81 124/80 
f 667/709 666/708 25/601 24/600 
f 665/572 124/80 120/76 119/75 
f 661/702 119/707 115/635 114/634 
f 658/699 655/696 647/688 646/687 
f 657/698 114/634 110/632 109/631 
f 654/695 109/631 105/627 104/626 
f 652/693 104/626 100/622 91/613 
f 148/104 146/102 145/101 623/557 
f 621/555 565/521 563/519 562/518 
f 617/551 568/524 566/522 565/521 
f 613/547 571/527 569/525 568/524 
f 16/591 15/590 608/672 612/676 
f 609/542 574/530 572/528 571/527 
f 606/541 577/533 575/531 574/530 
f 604/668 15/590 14/589 605/669 
f 584/643 581/642 579/661 596/657 
f 559/515 157/113 155/111 154/110 
f 325/281 321/277 314/270 515/471 
f 274/230 272/228 75/59 72/56 
f 265/221 73/57 75/59 270/226 
f 263/219 74/58 73/57 265/221 
f 226/182 31/9 30/8 229/185 
f 218/174 36/15 35/14 219/175 
f 84/605 83/604 94/616 99/621 
f 38/17 37/16 373/329 389/345 
f 312/268 3/2 28/5 313/269 
f 313/269 28/5 515/471 314/270 
f 381/337 383/339 384/342 390/346 
f 373/329 372/328 378/334 389/345 
f 381/337 390/346 389/345 378/334 
# 687 polygons

