# 3ds Max Wavefront OBJ Exporter v0.97b - (c)2007 guruware
# File Created: 05.08.2021 13:38:45

#
# object ___018
#

v  117.324020 19.141216 24.930746
v  117.613976 19.141216 24.930746
v  117.613976 19.141216 30.157187
v  117.324020 19.141216 30.155962
v  117.324020 10.688002 24.930748
v  117.324020 10.688003 30.155962
v  117.613976 10.687998 24.930748
v  117.613976 10.687999 30.157187
v  117.255753 14.796494 25.607731
v  117.255753 14.696943 25.707281
v  117.255753 14.556158 25.707281
v  117.255753 14.796494 25.466946
v  117.255753 14.696943 25.367395
v  117.255753 14.556158 25.367395
v  117.255753 14.456608 25.466946
v  117.255753 14.456608 25.607731
v  117.254219 14.713667 25.573423
v  117.254219 14.662636 25.624454
v  117.254219 14.590466 25.624454
v  117.254219 14.713667 25.501253
v  117.254219 14.662636 25.450222
v  117.254219 14.590466 25.450222
v  117.254219 14.539435 25.501253
v  117.254219 14.539435 25.573423
v  117.111671 14.639674 25.569021
v  117.111671 14.658234 25.550461
v  117.111671 14.658234 25.524216
v  117.111671 14.639674 25.505657
v  117.111671 14.613428 25.505657
v  117.111671 14.594870 25.524216
v  117.111671 14.594870 25.550461
v  117.111671 14.613428 25.569021
v  117.118797 14.606867 25.584862
v  117.118797 14.646235 25.584862
v  117.118797 14.674074 25.557022
v  117.118797 14.674074 25.517654
v  117.118797 14.646235 25.489815
v  117.118797 14.606867 25.489815
v  117.118797 14.579028 25.517654
v  117.118797 14.579028 25.557022
v  117.236183 14.713667 25.573423
v  117.236183 14.662636 25.624454
v  117.236183 14.590466 25.624454
v  117.236183 14.713667 25.501253
v  117.236183 14.662636 25.450222
v  117.236183 14.590466 25.450222
v  117.236183 14.539435 25.501253
v  117.236183 14.539435 25.573423
v  117.199463 14.662636 26.059689
v  117.219223 14.662636 25.842072
v  117.199463 14.698720 25.827126
v  117.159943 14.698720 25.827126
v  117.159943 14.662636 26.059689
v  117.159943 14.590466 26.059689
v  117.199463 14.590466 26.059689
v  117.219223 14.590466 25.842072
v  117.199463 14.713667 25.573423
v  117.199463 14.713667 25.501253
v  117.159943 14.713667 25.501253
v  117.159943 14.713667 25.573423
v  117.199463 14.662636 25.450222
v  117.159943 14.662636 25.450222
v  117.199463 14.590466 25.450222
v  117.159943 14.590466 25.450222
v  117.199463 14.539435 25.501253
v  117.159943 14.539435 25.501253
v  117.199463 14.539435 25.573423
v  117.159943 14.539435 25.573423
v  117.199463 14.554382 25.827126
v  117.159943 14.554382 25.827126
v  117.140182 14.662636 25.842072
v  117.140182 14.590466 25.842072
v  117.133057 14.674074 25.557022
v  117.133057 14.646235 25.584862
v  117.133057 14.606867 25.584862
v  117.133057 14.674074 25.517654
v  117.133057 14.646235 25.489815
v  117.133057 14.606867 25.489815
v  117.133057 14.579028 25.517654
v  117.133057 14.579028 25.557022
v  117.328270 14.698720 25.711569
v  117.265091 14.698276 25.710497
v  117.328270 14.800782 25.609507
v  117.265091 14.799710 25.609064
v  117.328270 14.800782 25.465170
v  117.265091 14.799710 25.465612
v  117.328270 14.698720 25.363108
v  117.265091 14.698276 25.364180
v  117.328270 14.554382 25.363108
v  117.265091 14.554827 25.364180
v  117.328270 14.452320 25.465170
v  117.265091 14.453392 25.465612
v  117.328270 14.452320 25.609507
v  117.265091 14.453392 25.609064
v  117.328270 14.554382 25.711569
v  117.265091 14.554827 25.710497
v  117.255417 14.691545 25.694248
v  117.255035 14.666702 25.634272
v  117.255417 14.783461 25.602331
v  117.255035 14.723484 25.577490
v  117.255417 14.783461 25.472345
v  117.255035 14.723484 25.497187
v  117.255417 14.691545 25.380428
v  117.255035 14.666702 25.440405
v  117.255417 14.561557 25.380428
v  117.255035 14.586400 25.440405
v  117.255417 14.469642 25.472345
v  117.255035 14.529618 25.497187
v  117.255417 14.469642 25.602331
v  117.255035 14.529618 25.577490
v  117.255417 14.561557 25.694248
v  117.255035 14.586400 25.634272
v  117.111671 14.626551 25.568790
v  117.111671 14.648790 25.559578
v  117.114235 14.643873 25.579159
v  117.111671 14.658003 25.537338
v  117.114235 14.668371 25.554661
v  117.111671 14.648790 25.515099
v  117.114235 14.668371 25.520016
v  117.111671 14.626551 25.505888
v  117.114235 14.643873 25.495518
v  117.111671 14.604312 25.515099
v  117.114235 14.609228 25.495518
v  117.111671 14.595099 25.537338
v  117.114235 14.584731 25.520016
v  117.111671 14.604312 25.559578
v  117.114235 14.584731 25.554661
v  117.114235 14.609228 25.579159
v  117.255753 14.757028 25.667814
v  117.255753 14.626551 25.721861
v  117.255753 14.811072 25.537338
v  117.255753 14.757028 25.406862
v  117.255753 14.626551 25.352816
v  117.255753 14.496075 25.406862
v  117.255753 14.442030 25.537338
v  117.255753 14.496075 25.667814
v  117.254219 14.626551 25.631927
v  117.254219 14.693436 25.604223
v  117.254219 14.721140 25.537338
v  117.254219 14.693436 25.470453
v  117.254219 14.626551 25.442749
v  117.254219 14.559667 25.470453
v  117.254219 14.531962 25.537338
v  117.254219 14.559667 25.604223
v  117.199463 14.689699 25.994074
v  117.214287 14.662636 26.005285
v  117.199463 14.626551 26.067163
v  117.199463 14.721140 25.537338
v  117.218521 14.713667 25.573423
v  117.199463 14.702456 25.654890
v  117.199463 14.693436 25.470453
v  117.218521 14.713667 25.501253
v  117.199463 14.626551 25.442749
v  117.218521 14.662636 25.450222
v  117.199463 14.559667 25.470453
v  117.218521 14.590466 25.450222
v  117.199463 14.531962 25.537338
v  117.218521 14.539435 25.501253
v  117.199463 14.550646 25.654890
v  117.218521 14.539435 25.573423
v  117.214287 14.590466 26.005285
v  117.199463 14.563403 25.994074
v  117.140182 14.660585 25.673908
v  117.145119 14.689699 25.830862
v  117.140182 14.626551 25.849545
v  117.145119 14.662636 26.005285
v  117.140182 14.592517 25.673908
v  117.145119 14.563403 25.830862
v  117.145119 14.590466 26.005285
v  117.159943 14.550646 25.654890
v  117.159943 14.563403 25.994074
v  117.223465 14.590466 25.678858
v  117.214287 14.563403 25.830862
v  117.219223 14.626551 25.849545
v  117.223465 14.662636 25.678858
v  117.214287 14.689699 25.830862
v  117.236183 14.693436 25.604223
v  117.236183 14.626551 25.631927
v  117.236183 14.721140 25.537338
v  117.236183 14.693436 25.470453
v  117.236183 14.626551 25.442749
v  117.236183 14.559667 25.470453
v  117.236183 14.531962 25.537338
v  117.236183 14.559667 25.604223
v  117.159943 14.689699 25.994074
v  117.159943 14.626551 26.067163
v  117.159943 14.721140 25.537338
v  117.145119 14.708717 25.571373
v  117.159943 14.702456 25.654890
v  117.159943 14.693436 25.470453
v  117.145119 14.708717 25.503304
v  117.159943 14.626551 25.442749
v  117.145119 14.660585 25.455172
v  117.159943 14.559667 25.470453
v  117.145119 14.592517 25.455172
v  117.159943 14.531962 25.537338
v  117.145119 14.544384 25.503304
v  117.145119 14.544384 25.571373
v  117.138397 14.648286 25.589811
v  117.138397 14.679023 25.559072
v  117.138397 14.679023 25.515604
v  117.138397 14.648286 25.484865
v  117.138397 14.604816 25.484865
v  117.138397 14.574080 25.515604
v  117.138397 14.574080 25.559072
v  117.138397 14.604816 25.589811
v  117.133057 14.626551 25.588938
v  117.133057 14.663037 25.573824
v  117.133057 14.678151 25.537338
v  117.133057 14.663037 25.500853
v  117.133057 14.626551 25.485739
v  117.133057 14.590065 25.500853
v  117.133057 14.574951 25.537338
v  117.133057 14.590065 25.573824
v  117.118797 14.663037 25.573824
v  117.118797 14.626551 25.588938
v  117.118797 14.678151 25.537338
v  117.118797 14.663037 25.500853
v  117.118797 14.626551 25.485739
v  117.118797 14.590065 25.500853
v  117.118797 14.574951 25.537338
v  117.118797 14.590065 25.573824
v  117.255417 14.626551 25.366968
v  117.265091 14.759497 25.670284
v  117.265091 14.626551 25.725351
v  117.265091 14.814565 25.537338
v  117.265091 14.759497 25.404392
v  117.265091 14.626551 25.349325
v  117.265091 14.493606 25.404392
v  117.265091 14.438538 25.537338
v  117.265091 14.493606 25.670284
v  117.255417 14.626551 25.707708
v  117.255417 14.747021 25.657808
v  117.255035 14.700974 25.611761
v  117.255035 14.626551 25.642588
v  117.255417 14.796921 25.537338
v  117.255035 14.731800 25.537338
v  117.255417 14.747021 25.416868
v  117.255035 14.700974 25.462915
v  117.255035 14.626551 25.432089
v  117.255417 14.506081 25.416868
v  117.255035 14.552130 25.462915
v  117.255417 14.456181 25.537338
v  117.255035 14.521303 25.537338
v  117.255417 14.506081 25.657808
v  117.255035 14.552130 25.611761
v  117.111671 14.626551 25.537338
v  117.113449 14.626551 25.583479
v  117.113449 14.659177 25.569963
v  117.113449 14.672691 25.537338
v  117.113449 14.659177 25.504713
v  117.113449 14.626551 25.491198
v  117.113449 14.593925 25.504713
v  117.113449 14.580411 25.537338
v  117.113449 14.593925 25.569963
v  117.138397 14.666838 25.497053
v  117.210449 14.682682 25.954666
v  117.214287 14.626551 26.012758
v  117.218521 14.721140 25.537338
v  117.218781 14.695338 25.640944
v  117.218521 14.693436 25.470453
v  117.218521 14.626551 25.442749
v  117.218521 14.559667 25.470453
v  117.218521 14.531962 25.537338
v  117.218781 14.557764 25.640944
v  117.210449 14.570419 25.954666
v  117.143341 14.692906 25.638512
v  117.140182 14.626551 25.680958
v  117.145119 14.626551 26.012758
v  117.148964 14.682682 25.954666
v  117.143341 14.560196 25.638512
v  117.148964 14.570419 25.954666
v  117.223465 14.626551 25.686331
v  117.145119 14.715766 25.537338
v  117.145119 14.689636 25.474253
v  117.145119 14.626551 25.448124
v  117.145119 14.563467 25.474253
v  117.145119 14.537336 25.537338
v  117.138397 14.666838 25.577625
v  117.138397 14.626551 25.594311
v  117.138397 14.683524 25.537338
v  117.138397 14.626551 25.480366
v  117.138397 14.586265 25.497053
v  117.138397 14.569578 25.537338
v  117.138397 14.586265 25.577625
v  117.328270 14.760320 25.671106
v  117.328270 14.815729 25.537338
v  117.328270 14.760320 25.403570
v  117.328270 14.626551 25.348162
v  117.328270 14.492783 25.403570
v  117.328270 14.492783 25.671106
v  117.328270 14.437374 25.537338
v  117.328270 14.626551 25.726517
v  117.682251 14.796494 25.607731
v  117.682251 14.696943 25.707281
v  117.682251 14.556158 25.707281
v  117.682251 14.796494 25.466946
v  117.682251 14.696943 25.367395
v  117.682251 14.556158 25.367395
v  117.682251 14.456608 25.466946
v  117.682251 14.456608 25.607731
v  117.683777 14.713667 25.573423
v  117.683777 14.662636 25.624454
v  117.683777 14.590466 25.624454
v  117.683777 14.713667 25.501253
v  117.683777 14.662636 25.450224
v  117.683777 14.590466 25.450224
v  117.683777 14.539435 25.501253
v  117.683777 14.539435 25.573423
v  117.826324 14.639674 25.569021
v  117.826324 14.658234 25.550461
v  117.826324 14.658234 25.524216
v  117.826324 14.639674 25.505657
v  117.826324 14.613428 25.505657
v  117.826324 14.594870 25.524216
v  117.826324 14.594870 25.550461
v  117.826324 14.613428 25.569021
v  117.819199 14.606867 25.584862
v  117.819199 14.646235 25.584862
v  117.819199 14.674074 25.557024
v  117.819199 14.674074 25.517654
v  117.819199 14.646235 25.489817
v  117.819199 14.606867 25.489817
v  117.819199 14.579028 25.517654
v  117.819199 14.579028 25.557024
v  117.701813 14.713667 25.573423
v  117.701813 14.662636 25.624454
v  117.701813 14.590466 25.624454
v  117.701813 14.713667 25.501253
v  117.701813 14.662636 25.450224
v  117.701813 14.590466 25.450224
v  117.701813 14.539435 25.501253
v  117.701813 14.539435 25.573423
v  117.738525 14.662636 26.059690
v  117.718765 14.662636 25.842072
v  117.738525 14.698720 25.827126
v  117.778053 14.698720 25.827126
v  117.778053 14.662636 26.059690
v  117.778053 14.590466 26.059690
v  117.738525 14.590466 26.059690
v  117.718765 14.590466 25.842072
v  117.738525 14.713667 25.573423
v  117.738525 14.713667 25.501253
v  117.778053 14.713667 25.501253
v  117.778053 14.713667 25.573423
v  117.738525 14.662636 25.450224
v  117.778053 14.662636 25.450224
v  117.738525 14.590466 25.450224
v  117.778053 14.590466 25.450224
v  117.738525 14.539435 25.501253
v  117.778053 14.539435 25.501253
v  117.738525 14.539435 25.573423
v  117.778053 14.539435 25.573423
v  117.738525 14.554382 25.827126
v  117.778053 14.554382 25.827126
v  117.797813 14.662636 25.842072
v  117.797813 14.590466 25.842072
v  117.804947 14.674074 25.557024
v  117.804947 14.646235 25.584862
v  117.804947 14.606867 25.584862
v  117.804947 14.674074 25.517654
v  117.804947 14.646235 25.489817
v  117.804947 14.606867 25.489817
v  117.804947 14.579028 25.517654
v  117.804947 14.579028 25.557024
v  117.609726 14.698720 25.711569
v  117.672905 14.698276 25.710497
v  117.609726 14.800782 25.609507
v  117.672905 14.799710 25.609064
v  117.609726 14.800782 25.465170
v  117.672905 14.799710 25.465614
v  117.609726 14.698720 25.363108
v  117.672905 14.698276 25.364180
v  117.609726 14.554382 25.363108
v  117.672905 14.554827 25.364180
v  117.609726 14.452320 25.465170
v  117.672905 14.453392 25.465614
v  117.609726 14.452320 25.609507
v  117.672905 14.453392 25.609064
v  117.609726 14.554382 25.711569
v  117.672905 14.554827 25.710497
v  117.682579 14.691545 25.694248
v  117.682961 14.666702 25.634272
v  117.682579 14.783461 25.602333
v  117.682961 14.723484 25.577490
v  117.682579 14.783461 25.472345
v  117.682961 14.723484 25.497187
v  117.682579 14.691545 25.380430
v  117.682961 14.666702 25.440405
v  117.682579 14.561557 25.380430
v  117.682961 14.586400 25.440405
v  117.682579 14.469642 25.472345
v  117.682961 14.529618 25.497187
v  117.682579 14.469642 25.602333
v  117.682961 14.529618 25.577490
v  117.682579 14.561557 25.694248
v  117.682961 14.586400 25.634272
v  117.826324 14.626551 25.568790
v  117.826324 14.648790 25.559578
v  117.823761 14.643873 25.579159
v  117.826324 14.658003 25.537338
v  117.823761 14.668371 25.554661
v  117.826324 14.648790 25.515099
v  117.823761 14.668371 25.520016
v  117.826324 14.626551 25.505888
v  117.823761 14.643873 25.495518
v  117.826324 14.604312 25.515099
v  117.823761 14.609228 25.495518
v  117.826324 14.595099 25.537338
v  117.823761 14.584731 25.520016
v  117.826324 14.604312 25.559578
v  117.823761 14.584731 25.554661
v  117.823761 14.609228 25.579159
v  117.682251 14.757028 25.667814
v  117.682251 14.626551 25.721861
v  117.682251 14.811072 25.537338
v  117.682251 14.757028 25.406862
v  117.682251 14.626551 25.352818
v  117.682251 14.496075 25.406862
v  117.682251 14.442030 25.537338
v  117.682251 14.496075 25.667814
v  117.683777 14.626551 25.631927
v  117.683777 14.693436 25.604223
v  117.683777 14.721140 25.537338
v  117.683777 14.693436 25.470453
v  117.683777 14.626551 25.442749
v  117.683777 14.559667 25.470453
v  117.683777 14.531962 25.537338
v  117.683777 14.559667 25.604223
v  117.738525 14.689699 25.994076
v  117.723709 14.662636 26.005285
v  117.738525 14.626551 26.067163
v  117.738525 14.721140 25.537338
v  117.719467 14.713667 25.573423
v  117.738525 14.702456 25.654890
v  117.738525 14.693436 25.470453
v  117.719467 14.713667 25.501253
v  117.738525 14.626551 25.442749
v  117.719467 14.662636 25.450224
v  117.738525 14.559667 25.470453
v  117.719467 14.590466 25.450224
v  117.738525 14.531962 25.537338
v  117.719467 14.539435 25.501253
v  117.738525 14.550646 25.654890
v  117.719467 14.539435 25.573423
v  117.723709 14.590466 26.005285
v  117.738525 14.563403 25.994076
v  117.797813 14.660585 25.673910
v  117.792877 14.689699 25.830862
v  117.797813 14.626551 25.849545
v  117.792877 14.662636 26.005285
v  117.797813 14.592517 25.673910
v  117.792877 14.563403 25.830862
v  117.792877 14.590466 26.005285
v  117.778053 14.550646 25.654890
v  117.778053 14.563403 25.994076
v  117.714531 14.590466 25.678858
v  117.723709 14.563403 25.830862
v  117.718765 14.626551 25.849545
v  117.714531 14.662636 25.678858
v  117.723709 14.689699 25.830862
v  117.701813 14.693436 25.604223
v  117.701813 14.626551 25.631927
v  117.701813 14.721140 25.537338
v  117.701813 14.693436 25.470453
v  117.701813 14.626551 25.442749
v  117.701813 14.559667 25.470453
v  117.701813 14.531962 25.537338
v  117.701813 14.559667 25.604223
v  117.778053 14.689699 25.994076
v  117.778053 14.626551 26.067163
v  117.778053 14.721140 25.537338
v  117.792877 14.708717 25.571373
v  117.778053 14.702456 25.654890
v  117.778053 14.693436 25.470453
v  117.792877 14.708717 25.503304
v  117.778053 14.626551 25.442749
v  117.792877 14.660585 25.455172
v  117.778053 14.559667 25.470453
v  117.792877 14.592517 25.455172
v  117.778053 14.531962 25.537338
v  117.792877 14.544384 25.503304
v  117.792877 14.544384 25.571373
v  117.799599 14.648286 25.589811
v  117.799599 14.679023 25.559072
v  117.799599 14.679023 25.515604
v  117.799599 14.648286 25.484867
v  117.799599 14.604816 25.484867
v  117.799599 14.574080 25.515604
v  117.799599 14.574080 25.559072
v  117.799599 14.604816 25.589811
v  117.804947 14.626551 25.588938
v  117.804947 14.663037 25.573826
v  117.804947 14.678151 25.537338
v  117.804947 14.663037 25.500853
v  117.804947 14.626551 25.485739
v  117.804947 14.590065 25.500853
v  117.804947 14.574951 25.537338
v  117.804947 14.590065 25.573826
v  117.819199 14.663037 25.573826
v  117.819199 14.626551 25.588938
v  117.819199 14.678151 25.537338
v  117.819199 14.663037 25.500853
v  117.819199 14.626551 25.485739
v  117.819199 14.590065 25.500853
v  117.819199 14.574951 25.537338
v  117.819199 14.590065 25.573826
v  117.682579 14.626551 25.366968
v  117.672905 14.759497 25.670284
v  117.672905 14.626551 25.725351
v  117.672905 14.814565 25.537338
v  117.672905 14.759497 25.404392
v  117.672905 14.626551 25.349325
v  117.672905 14.493606 25.404392
v  117.672905 14.438538 25.537338
v  117.672905 14.493606 25.670284
v  117.682579 14.626551 25.707708
v  117.682579 14.747021 25.657808
v  117.682961 14.700974 25.611761
v  117.682961 14.626551 25.642588
v  117.682579 14.796921 25.537338
v  117.682961 14.731800 25.537338
v  117.682579 14.747021 25.416868
v  117.682961 14.700974 25.462917
v  117.682961 14.626551 25.432091
v  117.682579 14.506081 25.416868
v  117.682961 14.552130 25.462917
v  117.682579 14.456181 25.537338
v  117.682961 14.521303 25.537338
v  117.682579 14.506081 25.657808
v  117.682961 14.552130 25.611761
v  117.826324 14.626551 25.537338
v  117.824539 14.626551 25.583479
v  117.824539 14.659177 25.569963
v  117.824539 14.672691 25.537338
v  117.824539 14.659177 25.504713
v  117.824539 14.626551 25.491199
v  117.824539 14.593925 25.504713
v  117.824539 14.580411 25.537338
v  117.824539 14.593925 25.569963
v  117.799599 14.666838 25.497053
v  117.727554 14.682682 25.954666
v  117.723709 14.626551 26.012758
v  117.719467 14.721140 25.537338
v  117.719215 14.695338 25.640944
v  117.719467 14.693436 25.470453
v  117.719467 14.626551 25.442749
v  117.719467 14.559667 25.470453
v  117.719467 14.531962 25.537338
v  117.719215 14.557764 25.640944
v  117.727554 14.570419 25.954666
v  117.794655 14.692906 25.638512
v  117.797813 14.626551 25.680958
v  117.792877 14.626551 26.012758
v  117.789032 14.682682 25.954666
v  117.794655 14.560196 25.638512
v  117.789032 14.570419 25.954666
v  117.714531 14.626551 25.686331
v  117.792877 14.715766 25.537338
v  117.792877 14.689636 25.474255
v  117.792877 14.626551 25.448124
v  117.792877 14.563467 25.474255
v  117.792877 14.537336 25.537338
v  117.799599 14.666838 25.577625
v  117.799599 14.626551 25.594313
v  117.799599 14.683524 25.537338
v  117.799599 14.626551 25.480366
v  117.799599 14.586265 25.497053
v  117.799599 14.569578 25.537338
v  117.799599 14.586265 25.577625
v  117.609726 14.760320 25.671106
v  117.609726 14.815729 25.537338
v  117.609726 14.760320 25.403570
v  117.609726 14.626551 25.348162
v  117.609726 14.492783 25.403570
v  117.609726 14.492783 25.671106
v  117.609726 14.437374 25.537338
v  117.609726 14.626551 25.726517
v  117.305077 17.379475 30.203255
v  117.336784 17.379475 30.190125
v  117.349915 17.379475 30.158421
v  117.336784 17.379475 30.126719
v  117.305077 17.379475 30.113586
v  117.273376 17.379475 30.126719
v  117.260246 17.379475 30.158421
v  117.273376 17.379475 30.190125
v  117.305077 17.941265 30.203255
v  117.336784 17.941265 30.190125
v  117.349915 17.941265 30.158421
v  117.336784 17.941265 30.126719
v  117.305077 17.941265 30.113586
v  117.273376 17.941265 30.126719
v  117.260246 17.941265 30.158421
v  117.273376 17.941265 30.190125
v  117.305077 17.379475 30.184246
v  117.323341 17.379475 30.176683
v  117.330910 17.379475 30.158421
v  117.323341 17.379475 30.140160
v  117.305077 17.379475 30.132595
v  117.286819 17.379475 30.140160
v  117.279251 17.379475 30.158421
v  117.286819 17.379475 30.176683
v  117.305077 17.941265 30.184246
v  117.323341 17.941265 30.176683
v  117.330910 17.941265 30.158421
v  117.323341 17.941265 30.140160
v  117.305077 17.941265 30.132595
v  117.286819 17.941265 30.140160
v  117.279251 17.941265 30.158421
v  117.286819 17.941265 30.176683
v  117.305077 17.379475 30.158421
v  117.305077 17.941265 30.158421
v  117.305077 16.296227 30.203255
v  117.336784 16.296227 30.190125
v  117.336784 16.858015 30.190125
v  117.305077 16.858015 30.203255
v  117.349915 16.296227 30.158421
v  117.349915 16.858015 30.158421
v  117.336784 16.296227 30.126719
v  117.336784 16.858015 30.126719
v  117.305077 16.296227 30.113586
v  117.305077 16.858015 30.113586
v  117.273376 16.296227 30.126719
v  117.273376 16.858015 30.126719
v  117.260246 16.296227 30.158421
v  117.260246 16.858015 30.158421
v  117.273376 16.296227 30.190125
v  117.273376 16.858015 30.190125
v  117.305077 16.296227 30.184246
v  117.323341 16.296227 30.176683
v  117.330910 16.296227 30.158421
v  117.323341 16.296227 30.140160
v  117.305077 16.296227 30.132595
v  117.286819 16.296227 30.140160
v  117.279251 16.296227 30.158421
v  117.286819 16.296227 30.176683
v  117.323341 16.858015 30.176683
v  117.305077 16.858015 30.184246
v  117.330910 16.858015 30.158421
v  117.323341 16.858015 30.140160
v  117.305077 16.858015 30.132595
v  117.286819 16.858015 30.140160
v  117.279251 16.858015 30.158421
v  117.286819 16.858015 30.176683
v  117.305077 16.296227 30.158421
v  117.305077 16.858015 30.158421
v  117.305077 11.988830 30.203255
v  117.336784 11.988830 30.190125
v  117.336784 12.550619 30.190125
v  117.305077 12.550619 30.203255
v  117.349915 11.988830 30.158421
v  117.349915 12.550619 30.158421
v  117.336784 11.988830 30.126719
v  117.336784 12.550619 30.126719
v  117.305077 11.988830 30.113586
v  117.305077 12.550619 30.113586
v  117.273376 11.988830 30.126719
v  117.273376 12.550619 30.126719
v  117.260246 11.988830 30.158421
v  117.260246 12.550619 30.158421
v  117.273376 11.988830 30.190125
v  117.273376 12.550619 30.190125
v  117.305077 11.988830 30.184246
v  117.323341 11.988830 30.176683
v  117.330910 11.988830 30.158421
v  117.323341 11.988830 30.140160
v  117.305077 11.988830 30.132595
v  117.286819 11.988830 30.140160
v  117.279251 11.988830 30.158421
v  117.286819 11.988830 30.176683
v  117.323341 12.550619 30.176683
v  117.305077 12.550619 30.184246
v  117.330910 12.550619 30.158421
v  117.323341 12.550619 30.140160
v  117.305077 12.550619 30.132595
v  117.286819 12.550619 30.140160
v  117.279251 12.550619 30.158421
v  117.286819 12.550619 30.176683
v  117.305077 11.988830 30.158421
v  117.305077 12.550619 30.158421
# 680 vertices

vt 0.824352 0.065566 0.000000
vt 0.824352 0.093241 0.000000
vt 0.017602 0.093241 0.000000
vt 0.017602 0.065566 0.000000
vt 0.823550 0.058480 0.000000
vt 0.017089 0.058480 0.000000
vt 0.823289 0.189187 0.000000
vt 0.017579 0.189187 0.000000
vt 0.004467 0.233754 0.000000
vt 0.529785 0.233754 0.000000
vt 0.004467 0.579066 0.000000
vt 0.529785 0.579065 0.000000
vt 0.017089 0.013733 0.000000
vt 0.823550 0.013733 0.000000
vt 0.017579 0.144482 0.000000
vt 0.823289 0.144482 0.000000
vt 0.017602 0.129157 0.000000
vt 0.017602 0.101482 0.000000
vt 0.824352 0.101482 0.000000
vt 0.824352 0.129157 0.000000
vt 0.004467 0.634859 0.000000
vt 0.004467 0.980251 0.000000
vt 0.529784 0.980251 0.000000
vt 0.529784 0.634859 0.000000
vt 0.882515 0.424164 0.000000
vt 0.921083 0.431844 0.000000
vt 0.918332 0.438485 0.000000
vt 0.882515 0.431348 0.000000
vt 0.953786 0.453685 0.000000
vt 0.948706 0.458765 0.000000
vt 0.975627 0.486388 0.000000
vt 0.968986 0.489139 0.000000
vt 0.983308 0.524956 0.000000
vt 0.976123 0.524956 0.000000
vt 0.975627 0.563524 0.000000
vt 0.968986 0.560773 0.000000
vt 0.953786 0.596227 0.000000
vt 0.948706 0.591147 0.000000
vt 0.921083 0.618068 0.000000
vt 0.918332 0.611427 0.000000
vt 0.882515 0.625749 0.000000
vt 0.882515 0.618564 0.000000
vt 0.843946 0.618068 0.000000
vt 0.846697 0.611427 0.000000
vt 0.811243 0.596227 0.000000
vt 0.816324 0.591146 0.000000
vt 0.789403 0.563524 0.000000
vt 0.796043 0.560773 0.000000
vt 0.781722 0.524956 0.000000
vt 0.788907 0.524956 0.000000
vt 0.789403 0.486388 0.000000
vt 0.796043 0.489139 0.000000
vt 0.811243 0.453685 0.000000
vt 0.816324 0.458765 0.000000
vt 0.843947 0.431844 0.000000
vt 0.846697 0.438485 0.000000
vt 0.882515 0.446006 0.000000
vt 0.912719 0.452036 0.000000
vt 0.901652 0.478756 0.000000
vt 0.882515 0.474983 0.000000
vt 0.938341 0.469130 0.000000
vt 0.917851 0.489620 0.000000
vt 0.955434 0.494752 0.000000
vt 0.928714 0.505819 0.000000
vt 0.961465 0.524956 0.000000
vt 0.932488 0.524956 0.000000
vt 0.955434 0.555160 0.000000
vt 0.928714 0.544092 0.000000
vt 0.938341 0.580782 0.000000
vt 0.917851 0.560292 0.000000
vt 0.912719 0.597876 0.000000
vt 0.901652 0.571156 0.000000
vt 0.882515 0.603906 0.000000
vt 0.882515 0.574929 0.000000
vt 0.852310 0.597876 0.000000
vt 0.863378 0.571156 0.000000
vt 0.826688 0.580782 0.000000
vt 0.847178 0.560292 0.000000
vt 0.809595 0.555160 0.000000
vt 0.836315 0.544092 0.000000
vt 0.803564 0.524956 0.000000
vt 0.832542 0.524956 0.000000
vt 0.809595 0.494752 0.000000
vt 0.836315 0.505819 0.000000
vt 0.826688 0.469130 0.000000
vt 0.847178 0.489620 0.000000
vt 0.852310 0.452036 0.000000
vt 0.863378 0.478756 0.000000
vt 0.944540 0.462931 0.000000
vt 0.916075 0.443935 0.000000
vt 0.882515 0.437240 0.000000
vt 0.970231 0.524956 0.000000
vt 0.881209 0.300094 0.000000
vt 0.881209 0.251377 0.000000
vt 0.902259 0.249271 0.000000
vt 0.915655 0.265647 0.000000
vt 0.881209 0.227380 0.000000
vt 0.909118 0.232713 0.000000
vt 0.932625 0.248676 0.000000
vt 0.932032 0.279043 0.000000
vt 0.929923 0.300094 0.000000
vt 0.948589 0.272183 0.000000
vt 0.953924 0.300094 0.000000
vt 0.932032 0.321146 0.000000
vt 0.915655 0.334540 0.000000
vt 0.948589 0.328004 0.000000
vt 0.932625 0.351510 0.000000
vt 0.902259 0.350916 0.000000
vt 0.881209 0.348808 0.000000
vt 0.909118 0.367474 0.000000
vt 0.881209 0.372807 0.000000
vt 0.860156 0.350916 0.000000
vt 0.846762 0.334540 0.000000
vt 0.853299 0.367474 0.000000
vt 0.829792 0.351510 0.000000
vt 0.830387 0.321146 0.000000
vt 0.832494 0.300094 0.000000
vt 0.813828 0.328004 0.000000
vt 0.808495 0.300094 0.000000
vt 0.830387 0.279043 0.000000
vt 0.846762 0.265647 0.000000
vt 0.813828 0.272183 0.000000
vt 0.829792 0.248676 0.000000
vt 0.860156 0.249271 0.000000
vt 0.853299 0.232713 0.000000
vt 0.881209 0.195753 0.000000
vt 0.921190 0.203571 0.000000
vt 0.963536 0.491396 0.000000
vt 0.944540 0.586980 0.000000
vt 0.963536 0.558516 0.000000
vt 0.882515 0.612672 0.000000
vt 0.916075 0.605977 0.000000
vt 0.820490 0.586980 0.000000
vt 0.848955 0.605977 0.000000
vt 0.794798 0.524956 0.000000
vt 0.801494 0.558516 0.000000
vt 0.820490 0.462931 0.000000
vt 0.801494 0.491396 0.000000
vt 0.848955 0.443935 0.000000
vt 0.899644 0.483602 0.000000
vt 0.882515 0.480228 0.000000
vt 0.914142 0.493329 0.000000
vt 0.923868 0.507827 0.000000
vt 0.927242 0.524956 0.000000
vt 0.923868 0.542085 0.000000
vt 0.914142 0.556583 0.000000
vt 0.899644 0.566309 0.000000
vt 0.882515 0.569684 0.000000
vt 0.730812 0.980961 0.000000
vt 0.712431 0.971786 0.000000
vt 0.720506 0.950673 0.000000
vt 0.743039 0.961092 0.000000
vt 0.748180 0.993045 0.000000
vt 0.760482 0.975361 0.000000
vt 0.692702 0.966348 0.000000
vt 0.672133 0.962846 0.000000
vt 0.675144 0.942767 0.000000
vt 0.696992 0.946002 0.000000
vt 0.651420 0.960028 0.000000
vt 0.630998 0.957411 0.000000
vt 0.633548 0.937486 0.000000
vt 0.654033 0.940057 0.000000
vt 0.611081 0.954844 0.000000
vt 0.591496 0.952285 0.000000
vt 0.594128 0.932323 0.000000
vt 0.613670 0.934919 0.000000
vt 0.608439 0.623758 0.000000
vt 0.629580 0.621755 0.000000
vt 0.631605 0.642847 0.000000
vt 0.610515 0.644917 0.000000
vt 0.651136 0.619755 0.000000
vt 0.672903 0.617592 0.000000
vt 0.675287 0.638819 0.000000
vt 0.653194 0.640847 0.000000
vt 0.694549 0.614851 0.000000
vt 0.715734 0.610721 0.000000
vt 0.721873 0.632784 0.000000
vt 0.697897 0.636473 0.000000
vt 0.734575 0.603604 0.000000
vt 0.744351 0.623190 0.000000
vt 0.922229 0.871498 0.000000
vt 0.935911 0.854798 0.000000
vt 0.966018 0.841546 0.000000
vt 0.950979 0.869215 0.000000
vt 0.923512 0.822991 0.000000
vt 0.950805 0.808149 0.000000
vt 0.963859 0.791022 0.000000
vt 0.989298 0.838305 0.000000
vt 0.971172 0.880827 0.000000
vt 0.677584 0.922586 0.000000
vt 0.679237 0.900900 0.000000
vt 0.700881 0.901762 0.000000
vt 0.699841 0.924786 0.000000
vt 0.679911 0.858310 0.000000
vt 0.699596 0.856324 0.000000
vt 0.747986 0.850854 0.000000
vt 0.753240 0.900188 0.000000
vt 0.746956 0.926874 0.000000
vt 0.635969 0.918034 0.000000
vt 0.638435 0.897322 0.000000
vt 0.658439 0.899405 0.000000
vt 0.656373 0.920391 0.000000
vt 0.643307 0.857006 0.000000
vt 0.661226 0.858525 0.000000
vt 0.596763 0.912833 0.000000
vt 0.599745 0.891868 0.000000
vt 0.619006 0.894747 0.000000
vt 0.616215 0.915498 0.000000
vt 0.606945 0.848801 0.000000
vt 0.625548 0.853718 0.000000
vt 0.633588 0.663359 0.000000
vt 0.635741 0.685179 0.000000
vt 0.615202 0.687580 0.000000
vt 0.612655 0.665541 0.000000
vt 0.640287 0.727712 0.000000
vt 0.621799 0.731279 0.000000
vt 0.677106 0.659751 0.000000
vt 0.678324 0.682214 0.000000
vt 0.656700 0.683370 0.000000
vt 0.655025 0.661431 0.000000
vt 0.678390 0.726126 0.000000
vt 0.658957 0.726004 0.000000
vt 0.747409 0.657294 0.000000
vt 0.753140 0.684139 0.000000
vt 0.700579 0.681699 0.000000
vt 0.700018 0.658293 0.000000
vt 0.748325 0.734023 0.000000
vt 0.698864 0.728185 0.000000
vt 0.965523 0.742826 0.000000
vt 0.950276 0.716543 0.000000
vt 0.949042 0.773502 0.000000
vt 0.922523 0.760936 0.000000
vt 0.935484 0.730766 0.000000
vt 0.922257 0.714155 0.000000
vt 0.736498 0.831210 0.000000
vt 0.757522 0.811650 0.000000
vt 0.850653 0.809716 0.000000
vt 0.845841 0.824178 0.000000
vt 0.761461 0.792544 0.000000
vt 0.854046 0.792398 0.000000
vt 0.928145 0.791420 0.000000
vt 0.924691 0.805720 0.000000
vt 0.904364 0.816409 0.000000
vt 0.757499 0.773439 0.000000
vt 0.850534 0.775169 0.000000
vt 0.736509 0.753880 0.000000
vt 0.845626 0.760824 0.000000
vt 0.903888 0.767454 0.000000
vt 0.924135 0.777478 0.000000
vt 0.845883 0.744829 0.000000
vt 0.854422 0.704031 0.000000
vt 0.778387 0.644964 0.000000
vt 0.872574 0.675541 0.000000
vt 0.861038 0.687959 0.000000
vt 0.790991 0.957130 0.000000
vt 0.884516 0.658739 0.000000
vt 0.777835 0.939615 0.000000
vt 0.872075 0.909927 0.000000
vt 0.860657 0.897452 0.000000
vt 0.854161 0.881386 0.000000
vt 0.846197 0.840326 0.000000
vt 0.678555 0.843251 0.000000
vt 0.696598 0.839857 0.000000
vt 0.645833 0.842827 0.000000
vt 0.661962 0.844123 0.000000
vt 0.612695 0.832234 0.000000
vt 0.629853 0.839145 0.000000
vt 0.643034 0.742466 0.000000
vt 0.626401 0.746431 0.000000
vt 0.677092 0.741754 0.000000
vt 0.659834 0.740984 0.000000
vt 0.695793 0.745133 0.000000
vt 0.706748 0.805172 0.000000
vt 0.709341 0.792819 0.000000
vt 0.699388 0.815478 0.000000
vt 0.688383 0.822239 0.000000
vt 0.675844 0.825934 0.000000
vt 0.662886 0.826306 0.000000
vt 0.649955 0.824783 0.000000
vt 0.637567 0.821013 0.000000
vt 0.626082 0.814769 0.000000
vt 0.634590 0.765293 0.000000
vt 0.647493 0.761255 0.000000
vt 0.660979 0.759529 0.000000
vt 0.674493 0.759743 0.000000
vt 0.687536 0.763372 0.000000
vt 0.698936 0.770127 0.000000
vt 0.706556 0.780468 0.000000
vt 0.915514 0.217273 0.000000
vt 0.881209 0.210749 0.000000
vt 0.954989 0.226313 0.000000
vt 0.944384 0.236919 0.000000
vt 0.940817 0.240485 0.000000
vt 0.913710 0.221629 0.000000
vt 0.881209 0.215795 0.000000
vt 0.977732 0.260113 0.000000
vt 0.964029 0.265788 0.000000
vt 0.985549 0.300094 0.000000
vt 0.970553 0.300094 0.000000
vt 0.965506 0.300094 0.000000
vt 0.959674 0.267593 0.000000
vt 0.977732 0.340074 0.000000
vt 0.964029 0.334399 0.000000
vt 0.954989 0.373874 0.000000
vt 0.944384 0.363269 0.000000
vt 0.940815 0.359702 0.000000
vt 0.959674 0.332594 0.000000
vt 0.921190 0.396616 0.000000
vt 0.915514 0.382916 0.000000
vt 0.881209 0.404436 0.000000
vt 0.881209 0.389438 0.000000
vt 0.881209 0.384392 0.000000
vt 0.913710 0.378558 0.000000
vt 0.841227 0.396616 0.000000
vt 0.846903 0.382916 0.000000
vt 0.807428 0.373874 0.000000
vt 0.818033 0.363269 0.000000
vt 0.821602 0.359702 0.000000
vt 0.848707 0.378558 0.000000
vt 0.784686 0.340074 0.000000
vt 0.798390 0.334399 0.000000
vt 0.776868 0.300094 0.000000
vt 0.865386 0.566309 0.000000
vt 0.850887 0.556583 0.000000
vt 0.841161 0.542085 0.000000
vt 0.837787 0.524956 0.000000
vt 0.841161 0.507827 0.000000
vt 0.850887 0.493329 0.000000
vt 0.865386 0.483603 0.000000
vt 0.791865 0.300094 0.000000
vt 0.796911 0.300094 0.000000
vt 0.802744 0.332594 0.000000
vt 0.784686 0.260113 0.000000
vt 0.798390 0.265788 0.000000
vt 0.807428 0.226313 0.000000
vt 0.818033 0.236919 0.000000
vt 0.821602 0.240485 0.000000
vt 0.802745 0.267593 0.000000
vt 0.841227 0.203571 0.000000
vt 0.846905 0.217273 0.000000
vt 0.848707 0.221629 0.000000
vt 0.750677 0.593717 0.000000
vt 0.761389 0.609636 0.000000
vt 0.587574 0.625788 0.000000
vt 0.589658 0.647048 0.000000
vt 0.985524 0.744841 0.000000
vt 0.969496 0.705543 0.000000
vt 0.591854 0.667888 0.000000
vt 0.594581 0.690403 0.000000
vt 0.602481 0.736499 0.000000
vt 0.791576 0.627632 0.000000
vt 0.883875 0.926949 0.000000
vt 0.608561 0.753749 0.000000
vt 0.622649 0.771889 0.000000
vt 0.882515 0.424164 0.000000
vt 0.921083 0.431844 0.000000
vt 0.918332 0.438485 0.000000
vt 0.882515 0.431348 0.000000
vt 0.953786 0.453685 0.000000
vt 0.948706 0.458765 0.000000
vt 0.975627 0.486388 0.000000
vt 0.968986 0.489139 0.000000
vt 0.983308 0.524956 0.000000
vt 0.976123 0.524956 0.000000
vt 0.975627 0.563524 0.000000
vt 0.968986 0.560773 0.000000
vt 0.953786 0.596227 0.000000
vt 0.948706 0.591147 0.000000
vt 0.921083 0.618068 0.000000
vt 0.918332 0.611427 0.000000
vt 0.882515 0.625749 0.000000
vt 0.882515 0.618564 0.000000
vt 0.843946 0.618068 0.000000
vt 0.846697 0.611427 0.000000
vt 0.811243 0.596227 0.000000
vt 0.816324 0.591146 0.000000
vt 0.789403 0.563524 0.000000
vt 0.796043 0.560773 0.000000
vt 0.781722 0.524956 0.000000
vt 0.788907 0.524956 0.000000
vt 0.789403 0.486388 0.000000
vt 0.796043 0.489139 0.000000
vt 0.811243 0.453685 0.000000
vt 0.816324 0.458765 0.000000
vt 0.843947 0.431844 0.000000
vt 0.846697 0.438485 0.000000
vt 0.882515 0.446006 0.000000
vt 0.912719 0.452036 0.000000
vt 0.901652 0.478756 0.000000
vt 0.882515 0.474983 0.000000
vt 0.938341 0.469130 0.000000
vt 0.917851 0.489620 0.000000
vt 0.955434 0.494752 0.000000
vt 0.928714 0.505819 0.000000
vt 0.961465 0.524956 0.000000
vt 0.932488 0.524956 0.000000
vt 0.955434 0.555160 0.000000
vt 0.928714 0.544092 0.000000
vt 0.938341 0.580782 0.000000
vt 0.917851 0.560292 0.000000
vt 0.912719 0.597876 0.000000
vt 0.901652 0.571156 0.000000
vt 0.882515 0.603906 0.000000
vt 0.882515 0.574929 0.000000
vt 0.852310 0.597876 0.000000
vt 0.863378 0.571156 0.000000
vt 0.826688 0.580782 0.000000
vt 0.847178 0.560292 0.000000
vt 0.809595 0.555160 0.000000
vt 0.836315 0.544092 0.000000
vt 0.803564 0.524956 0.000000
vt 0.832542 0.524956 0.000000
vt 0.809595 0.494752 0.000000
vt 0.836315 0.505819 0.000000
vt 0.826688 0.469130 0.000000
vt 0.847178 0.489620 0.000000
vt 0.852310 0.452036 0.000000
vt 0.863378 0.478756 0.000000
vt 0.944540 0.462931 0.000000
vt 0.916075 0.443935 0.000000
vt 0.882515 0.437240 0.000000
vt 0.970231 0.524956 0.000000
vt 0.881209 0.300094 0.000000
vt 0.881209 0.251377 0.000000
vt 0.902259 0.249271 0.000000
vt 0.915655 0.265647 0.000000
vt 0.881209 0.227380 0.000000
vt 0.909118 0.232713 0.000000
vt 0.932625 0.248676 0.000000
vt 0.932032 0.279043 0.000000
vt 0.929923 0.300094 0.000000
vt 0.948589 0.272183 0.000000
vt 0.953924 0.300094 0.000000
vt 0.932032 0.321146 0.000000
vt 0.915655 0.334540 0.000000
vt 0.948589 0.328004 0.000000
vt 0.932625 0.351510 0.000000
vt 0.902259 0.350916 0.000000
vt 0.881209 0.348808 0.000000
vt 0.909118 0.367474 0.000000
vt 0.881209 0.372807 0.000000
vt 0.860156 0.350916 0.000000
vt 0.846762 0.334540 0.000000
vt 0.853299 0.367474 0.000000
vt 0.829792 0.351510 0.000000
vt 0.830387 0.321146 0.000000
vt 0.832494 0.300094 0.000000
vt 0.813828 0.328004 0.000000
vt 0.808495 0.300094 0.000000
vt 0.830387 0.279043 0.000000
vt 0.846762 0.265647 0.000000
vt 0.813828 0.272183 0.000000
vt 0.829792 0.248676 0.000000
vt 0.860156 0.249271 0.000000
vt 0.853299 0.232713 0.000000
vt 0.881209 0.195753 0.000000
vt 0.921190 0.203571 0.000000
vt 0.963536 0.491396 0.000000
vt 0.944540 0.586980 0.000000
vt 0.963536 0.558516 0.000000
vt 0.882515 0.612672 0.000000
vt 0.916075 0.605977 0.000000
vt 0.820490 0.586980 0.000000
vt 0.848955 0.605977 0.000000
vt 0.794798 0.524956 0.000000
vt 0.801494 0.558516 0.000000
vt 0.820490 0.462931 0.000000
vt 0.801494 0.491396 0.000000
vt 0.848955 0.443935 0.000000
vt 0.899644 0.483602 0.000000
vt 0.882515 0.480228 0.000000
vt 0.914142 0.493329 0.000000
vt 0.923868 0.507827 0.000000
vt 0.927242 0.524956 0.000000
vt 0.923868 0.542085 0.000000
vt 0.914142 0.556583 0.000000
vt 0.899644 0.566309 0.000000
vt 0.882515 0.569684 0.000000
vt 0.730812 0.980961 0.000000
vt 0.712431 0.971786 0.000000
vt 0.720506 0.950673 0.000000
vt 0.743039 0.961092 0.000000
vt 0.748180 0.993045 0.000000
vt 0.760482 0.975361 0.000000
vt 0.692702 0.966348 0.000000
vt 0.672133 0.962846 0.000000
vt 0.675144 0.942767 0.000000
vt 0.696992 0.946002 0.000000
vt 0.651420 0.960028 0.000000
vt 0.630998 0.957411 0.000000
vt 0.633548 0.937486 0.000000
vt 0.654033 0.940057 0.000000
vt 0.611081 0.954844 0.000000
vt 0.591496 0.952285 0.000000
vt 0.594128 0.932323 0.000000
vt 0.613670 0.934919 0.000000
vt 0.608439 0.623758 0.000000
vt 0.629580 0.621755 0.000000
vt 0.631605 0.642847 0.000000
vt 0.610515 0.644917 0.000000
vt 0.651136 0.619755 0.000000
vt 0.672903 0.617592 0.000000
vt 0.675287 0.638819 0.000000
vt 0.653194 0.640847 0.000000
vt 0.694549 0.614851 0.000000
vt 0.715734 0.610721 0.000000
vt 0.721873 0.632784 0.000000
vt 0.697897 0.636473 0.000000
vt 0.734575 0.603604 0.000000
vt 0.744351 0.623190 0.000000
vt 0.922229 0.871498 0.000000
vt 0.935911 0.854798 0.000000
vt 0.966018 0.841546 0.000000
vt 0.950979 0.869215 0.000000
vt 0.923512 0.822991 0.000000
vt 0.950805 0.808149 0.000000
vt 0.963859 0.791022 0.000000
vt 0.989298 0.838305 0.000000
vt 0.971172 0.880827 0.000000
vt 0.677584 0.922586 0.000000
vt 0.679237 0.900900 0.000000
vt 0.700881 0.901762 0.000000
vt 0.699841 0.924786 0.000000
vt 0.679911 0.858310 0.000000
vt 0.699596 0.856324 0.000000
vt 0.747986 0.850854 0.000000
vt 0.753240 0.900188 0.000000
vt 0.746956 0.926874 0.000000
vt 0.635969 0.918034 0.000000
vt 0.638435 0.897322 0.000000
vt 0.658439 0.899405 0.000000
vt 0.656373 0.920391 0.000000
vt 0.643307 0.857006 0.000000
vt 0.661226 0.858525 0.000000
vt 0.596763 0.912833 0.000000
vt 0.599745 0.891868 0.000000
vt 0.619006 0.894747 0.000000
vt 0.616215 0.915498 0.000000
vt 0.606945 0.848801 0.000000
vt 0.625548 0.853718 0.000000
vt 0.633588 0.663359 0.000000
vt 0.635741 0.685179 0.000000
vt 0.615202 0.687580 0.000000
vt 0.612655 0.665541 0.000000
vt 0.640287 0.727712 0.000000
vt 0.621799 0.731279 0.000000
vt 0.677106 0.659751 0.000000
vt 0.678324 0.682214 0.000000
vt 0.656700 0.683370 0.000000
vt 0.655025 0.661431 0.000000
vt 0.678390 0.726126 0.000000
vt 0.658957 0.726004 0.000000
vt 0.747409 0.657294 0.000000
vt 0.753140 0.684139 0.000000
vt 0.700579 0.681699 0.000000
vt 0.700018 0.658293 0.000000
vt 0.748325 0.734023 0.000000
vt 0.698864 0.728185 0.000000
vt 0.965523 0.742826 0.000000
vt 0.950276 0.716543 0.000000
vt 0.949042 0.773502 0.000000
vt 0.922523 0.760936 0.000000
vt 0.935484 0.730766 0.000000
vt 0.922257 0.714155 0.000000
vt 0.736498 0.831210 0.000000
vt 0.757522 0.811650 0.000000
vt 0.850653 0.809716 0.000000
vt 0.845841 0.824178 0.000000
vt 0.761461 0.792544 0.000000
vt 0.854046 0.792398 0.000000
vt 0.928145 0.791420 0.000000
vt 0.924691 0.805720 0.000000
vt 0.904364 0.816409 0.000000
vt 0.757499 0.773439 0.000000
vt 0.850534 0.775169 0.000000
vt 0.736509 0.753880 0.000000
vt 0.845626 0.760824 0.000000
vt 0.903888 0.767454 0.000000
vt 0.924135 0.777478 0.000000
vt 0.845883 0.744829 0.000000
vt 0.854422 0.704031 0.000000
vt 0.778387 0.644964 0.000000
vt 0.872574 0.675541 0.000000
vt 0.861038 0.687959 0.000000
vt 0.790991 0.957130 0.000000
vt 0.884516 0.658739 0.000000
vt 0.777835 0.939615 0.000000
vt 0.872075 0.909927 0.000000
vt 0.860657 0.897452 0.000000
vt 0.854161 0.881386 0.000000
vt 0.846197 0.840326 0.000000
vt 0.678555 0.843251 0.000000
vt 0.696598 0.839857 0.000000
vt 0.645833 0.842827 0.000000
vt 0.661962 0.844123 0.000000
vt 0.612695 0.832234 0.000000
vt 0.629853 0.839145 0.000000
vt 0.643034 0.742466 0.000000
vt 0.626401 0.746431 0.000000
vt 0.677092 0.741754 0.000000
vt 0.659834 0.740984 0.000000
vt 0.695793 0.745133 0.000000
vt 0.706748 0.805172 0.000000
vt 0.709341 0.792819 0.000000
vt 0.699388 0.815478 0.000000
vt 0.688383 0.822239 0.000000
vt 0.675844 0.825934 0.000000
vt 0.662886 0.826306 0.000000
vt 0.649955 0.824783 0.000000
vt 0.637567 0.821013 0.000000
vt 0.626082 0.814769 0.000000
vt 0.634590 0.765293 0.000000
vt 0.647493 0.761255 0.000000
vt 0.660979 0.759529 0.000000
vt 0.674493 0.759743 0.000000
vt 0.687536 0.763372 0.000000
vt 0.698936 0.770127 0.000000
vt 0.706556 0.780468 0.000000
vt 0.915514 0.217273 0.000000
vt 0.881209 0.210749 0.000000
vt 0.954989 0.226313 0.000000
vt 0.944384 0.236919 0.000000
vt 0.940817 0.240485 0.000000
vt 0.913710 0.221629 0.000000
vt 0.881209 0.215795 0.000000
vt 0.977732 0.260113 0.000000
vt 0.964029 0.265788 0.000000
vt 0.985549 0.300094 0.000000
vt 0.970553 0.300094 0.000000
vt 0.965506 0.300094 0.000000
vt 0.959674 0.267593 0.000000
vt 0.977732 0.340074 0.000000
vt 0.964029 0.334399 0.000000
vt 0.954989 0.373874 0.000000
vt 0.944384 0.363269 0.000000
vt 0.940815 0.359702 0.000000
vt 0.959674 0.332594 0.000000
vt 0.921190 0.396616 0.000000
vt 0.915514 0.382916 0.000000
vt 0.881209 0.404436 0.000000
vt 0.881209 0.389438 0.000000
vt 0.881209 0.384392 0.000000
vt 0.913710 0.378558 0.000000
vt 0.841227 0.396616 0.000000
vt 0.846903 0.382916 0.000000
vt 0.807428 0.373874 0.000000
vt 0.818033 0.363269 0.000000
vt 0.821602 0.359702 0.000000
vt 0.848707 0.378558 0.000000
vt 0.784686 0.340074 0.000000
vt 0.798390 0.334399 0.000000
vt 0.776868 0.300094 0.000000
vt 0.865386 0.566309 0.000000
vt 0.850887 0.556583 0.000000
vt 0.841161 0.542085 0.000000
vt 0.837787 0.524956 0.000000
vt 0.841161 0.507827 0.000000
vt 0.850887 0.493329 0.000000
vt 0.865386 0.483603 0.000000
vt 0.791865 0.300094 0.000000
vt 0.796911 0.300094 0.000000
vt 0.802744 0.332594 0.000000
vt 0.784686 0.260113 0.000000
vt 0.798390 0.265788 0.000000
vt 0.807428 0.226313 0.000000
vt 0.818033 0.236919 0.000000
vt 0.821602 0.240485 0.000000
vt 0.802745 0.267593 0.000000
vt 0.841227 0.203571 0.000000
vt 0.846905 0.217273 0.000000
vt 0.848707 0.221629 0.000000
vt 0.750677 0.593717 0.000000
vt 0.761389 0.609636 0.000000
vt 0.587574 0.625788 0.000000
vt 0.589658 0.647048 0.000000
vt 0.985524 0.744841 0.000000
vt 0.969496 0.705543 0.000000
vt 0.591854 0.667888 0.000000
vt 0.594581 0.690403 0.000000
vt 0.602481 0.736499 0.000000
vt 0.791576 0.627632 0.000000
vt 0.883875 0.926949 0.000000
vt 0.608561 0.753749 0.000000
vt 0.622649 0.771889 0.000000
vt 0.653305 0.429383 0.000000
vt 0.674402 0.429383 0.000000
vt 0.674402 0.604780 0.000000
vt 0.653305 0.604780 0.000000
vt 0.687962 0.429383 0.000000
vt 0.687962 0.604780 0.000000
vt 0.701522 0.429383 0.000000
vt 0.701522 0.604780 0.000000
vt 0.583992 0.429383 0.000000
vt 0.583992 0.604780 0.000000
vt 0.605088 0.429383 0.000000
vt 0.605088 0.604780 0.000000
vt 0.618649 0.429383 0.000000
vt 0.618648 0.604780 0.000000
vt 0.632208 0.429383 0.000000
vt 0.632208 0.604780 0.000000
vt 0.683715 0.210695 0.000000
vt 0.725744 0.228289 0.000000
vt 0.706918 0.246974 0.000000
vt 0.683615 0.237219 0.000000
vt 0.641552 0.227972 0.000000
vt 0.660238 0.246799 0.000000
vt 0.623958 0.270004 0.000000
vt 0.650484 0.270103 0.000000
vt 0.653393 0.364796 0.000000
vt 0.635955 0.406891 0.000000
vt 0.617200 0.388136 0.000000
vt 0.626868 0.364796 0.000000
vt 0.593859 0.424329 0.000000
vt 0.593859 0.397803 0.000000
vt 0.551762 0.406891 0.000000
vt 0.570519 0.388135 0.000000
vt 0.641236 0.312165 0.000000
vt 0.534325 0.364796 0.000000
vt 0.560851 0.364796 0.000000
vt 0.551762 0.322700 0.000000
vt 0.570519 0.341456 0.000000
vt 0.593859 0.305263 0.000000
vt 0.593860 0.331788 0.000000
vt 0.635956 0.322701 0.000000
vt 0.617200 0.341456 0.000000
vt 0.593859 0.364796 0.000000
vt 0.660062 0.293479 0.000000
vt 0.683267 0.329759 0.000000
vt 0.683366 0.303235 0.000000
vt 0.725428 0.312481 0.000000
vt 0.706743 0.293655 0.000000
vt 0.743023 0.270450 0.000000
vt 0.716498 0.270350 0.000000
vt 0.683490 0.270226 0.000000
vt 0.562895 0.429383 0.000000
vt 0.562895 0.604780 0.000000
vt 0.653305 0.429383 0.000000
vt 0.674402 0.429383 0.000000
vt 0.674402 0.604780 0.000000
vt 0.653305 0.604780 0.000000
vt 0.687962 0.429383 0.000000
vt 0.687962 0.604780 0.000000
vt 0.701522 0.429383 0.000000
vt 0.701522 0.604780 0.000000
vt 0.562895 0.429383 0.000000
vt 0.583992 0.429383 0.000000
vt 0.583992 0.604780 0.000000
vt 0.562895 0.604780 0.000000
vt 0.605088 0.429383 0.000000
vt 0.605088 0.604780 0.000000
vt 0.618649 0.429383 0.000000
vt 0.618648 0.604780 0.000000
vt 0.632208 0.429383 0.000000
vt 0.632208 0.604780 0.000000
vt 0.683715 0.210695 0.000000
vt 0.725744 0.228289 0.000000
vt 0.706918 0.246974 0.000000
vt 0.683615 0.237219 0.000000
vt 0.641552 0.227972 0.000000
vt 0.660238 0.246799 0.000000
vt 0.623958 0.270004 0.000000
vt 0.650484 0.270103 0.000000
vt 0.641236 0.312165 0.000000
vt 0.660062 0.293479 0.000000
vt 0.683267 0.329759 0.000000
vt 0.683366 0.303235 0.000000
vt 0.725428 0.312481 0.000000
vt 0.706743 0.293655 0.000000
vt 0.743023 0.270450 0.000000
vt 0.716498 0.270350 0.000000
vt 0.653393 0.364796 0.000000
vt 0.635955 0.406891 0.000000
vt 0.617200 0.388136 0.000000
vt 0.626868 0.364796 0.000000
vt 0.593859 0.424329 0.000000
vt 0.593859 0.397803 0.000000
vt 0.551762 0.406891 0.000000
vt 0.570519 0.388135 0.000000
vt 0.534325 0.364796 0.000000
vt 0.560851 0.364796 0.000000
vt 0.551762 0.322700 0.000000
vt 0.570519 0.341456 0.000000
vt 0.593859 0.305263 0.000000
vt 0.593860 0.331788 0.000000
vt 0.635956 0.322701 0.000000
vt 0.617200 0.341456 0.000000
vt 0.683490 0.270226 0.000000
vt 0.593859 0.364796 0.000000
vt 0.653305 0.429383 0.000000
vt 0.674402 0.429383 0.000000
vt 0.674402 0.604780 0.000000
vt 0.653305 0.604780 0.000000
vt 0.687962 0.429383 0.000000
vt 0.687962 0.604780 0.000000
vt 0.701522 0.429383 0.000000
vt 0.701522 0.604780 0.000000
vt 0.562895 0.429383 0.000000
vt 0.583992 0.429383 0.000000
vt 0.583992 0.604780 0.000000
vt 0.562895 0.604780 0.000000
vt 0.605088 0.429383 0.000000
vt 0.605088 0.604780 0.000000
vt 0.618649 0.429383 0.000000
vt 0.618648 0.604780 0.000000
vt 0.632208 0.429383 0.000000
vt 0.632208 0.604780 0.000000
vt 0.683715 0.210695 0.000000
vt 0.725744 0.228289 0.000000
vt 0.706918 0.246974 0.000000
vt 0.683615 0.237219 0.000000
vt 0.641552 0.227972 0.000000
vt 0.660238 0.246799 0.000000
vt 0.623958 0.270004 0.000000
vt 0.650484 0.270103 0.000000
vt 0.641236 0.312165 0.000000
vt 0.660062 0.293479 0.000000
vt 0.683267 0.329759 0.000000
vt 0.683366 0.303235 0.000000
vt 0.725428 0.312481 0.000000
vt 0.706743 0.293655 0.000000
vt 0.743023 0.270450 0.000000
vt 0.716498 0.270350 0.000000
vt 0.653393 0.364796 0.000000
vt 0.635955 0.406891 0.000000
vt 0.617200 0.388136 0.000000
vt 0.626868 0.364796 0.000000
vt 0.593859 0.424329 0.000000
vt 0.593859 0.397803 0.000000
vt 0.551762 0.406891 0.000000
vt 0.570519 0.388135 0.000000
vt 0.534325 0.364796 0.000000
vt 0.560851 0.364796 0.000000
vt 0.551762 0.322700 0.000000
vt 0.570519 0.341456 0.000000
vt 0.593859 0.305263 0.000000
vt 0.593860 0.331788 0.000000
vt 0.635956 0.322701 0.000000
vt 0.617200 0.341456 0.000000
vt 0.683490 0.270226 0.000000
vt 0.593859 0.364796 0.000000
# 840 texture coords

o ___018
g ___018
f 2/2 7/3 5/4 1/1 
f 4/6 3/13 2/14 1/5 
f 8/18 3/19 4/20 6/17 
f 8/8 6/15 5/16 7/7 
f 1/9 5/10 6/12 4/11 
f 3/23 8/22 7/21 2/24 
f 81/26 82/27 225/28 293/25 
f 286/29 224/30 82/27 81/26 
f 83/31 84/32 224/30 286/29 
f 287/33 226/34 84/32 83/31 
f 85/35 86/36 226/34 287/33 
f 288/37 227/38 86/36 85/35 
f 87/39 88/40 227/38 288/37 
f 289/41 228/42 88/40 87/39 
f 89/43 90/44 228/42 289/41 
f 290/45 229/46 90/44 89/43 
f 91/47 92/48 229/46 290/45 
f 292/49 230/50 92/48 91/47 
f 93/51 94/52 230/50 292/49 
f 291/53 231/54 94/52 93/51 
f 95/55 96/56 231/54 291/53 
f 293/25 225/28 96/56 95/55 
f 97/58 98/59 235/60 232/57 
f 97/58 233/61 234/62 98/59 
f 99/63 100/64 234/62 233/61 
f 99/63 236/65 237/66 100/64 
f 101/67 102/68 237/66 236/65 
f 101/67 238/69 239/70 102/68 
f 103/71 104/72 239/70 238/69 
f 103/71 223/73 240/74 104/72 
f 105/75 106/76 240/74 223/73 
f 105/75 241/77 242/78 106/76 
f 107/79 108/80 242/78 241/77 
f 107/79 243/81 244/82 108/80 
f 109/83 110/84 244/82 243/81 
f 109/83 245/85 246/86 110/84 
f 111/87 112/88 246/86 245/85 
f 111/87 232/57 235/60 112/88 
f 113/94 25/95 114/96 247/93 
f 248/97 115/98 25/95 113/94 
f 249/99 114/96 25/95 115/98 
f 114/96 26/100 116/101 247/93 
f 249/99 117/102 26/100 114/96 
f 250/103 116/101 26/100 117/102 
f 116/101 27/104 118/105 247/93 
f 250/103 119/106 27/104 116/101 
f 251/107 118/105 27/104 119/106 
f 118/105 28/108 120/109 247/93 
f 251/107 121/110 28/108 118/105 
f 252/111 120/109 28/108 121/110 
f 120/109 29/112 122/113 247/93 
f 252/111 123/114 29/112 120/109 
f 253/115 122/113 29/112 123/114 
f 122/113 30/116 124/117 247/93 
f 253/115 125/118 30/116 122/113 
f 254/119 124/117 30/116 125/118 
f 124/117 31/120 126/121 247/93 
f 254/119 127/122 31/120 124/117 
f 255/123 126/121 31/120 127/122 
f 126/121 32/124 113/94 247/93 
f 255/123 128/125 32/124 126/121 
f 248/97 113/94 32/124 128/125 
f 129/89 10/90 82/27 224/30 
f 233/61 97/58 10/90 129/89 
f 97/58 232/57 130/91 10/90 
f 10/90 130/91 225/28 82/27 
f 131/92 9/128 84/32 226/34 
f 236/65 99/63 9/128 131/92 
f 99/63 233/61 129/89 9/128 
f 9/128 129/89 224/30 84/32 
f 132/129 12/130 86/36 227/38 
f 238/69 101/67 12/130 132/129 
f 101/67 236/65 131/92 12/130 
f 12/130 131/92 226/34 86/36 
f 133/131 13/132 88/40 228/42 
f 223/73 103/71 13/132 133/131 
f 103/71 238/69 132/129 13/132 
f 13/132 132/129 227/38 88/40 
f 134/133 14/134 90/44 229/46 
f 241/77 105/75 14/134 134/133 
f 105/75 223/73 133/131 14/134 
f 14/134 133/131 228/42 90/44 
f 135/135 15/136 92/48 230/50 
f 243/81 107/79 15/136 135/135 
f 107/79 241/77 134/133 15/136 
f 15/136 134/133 229/46 92/48 
f 136/137 16/138 94/52 231/54 
f 245/85 109/83 16/138 136/137 
f 109/83 243/81 135/135 16/138 
f 16/138 135/135 230/50 94/52 
f 130/91 11/139 96/56 225/28 
f 232/57 111/87 11/139 130/91 
f 111/87 245/85 136/137 11/139 
f 11/139 136/137 231/54 96/56 
f 98/59 18/140 137/141 235/60 
f 234/62 138/142 18/140 98/59 
f 138/150 177/151 42/152 18/149 
f 18/149 42/152 178/154 137/153 
f 100/64 17/143 138/142 234/62 
f 237/66 139/144 17/143 100/64 
f 139/156 179/157 41/158 17/155 
f 17/155 41/158 177/151 138/150 
f 102/68 20/145 139/144 237/66 
f 239/70 140/146 20/145 102/68 
f 140/160 180/161 44/162 20/159 
f 20/159 44/162 179/157 139/156 
f 104/72 21/147 140/146 239/70 
f 240/74 141/148 21/147 104/72 
f 141/164 181/165 45/166 21/163 
f 21/163 45/166 180/161 140/160 
f 106/76 22/323 141/148 240/74 
f 242/78 142/324 22/323 106/76 
f 142/168 182/169 46/170 22/167 
f 22/167 46/170 181/345 141/344 
f 108/80 23/325 142/324 242/78 
f 244/82 143/326 23/325 108/80 
f 143/172 183/173 47/174 23/171 
f 23/171 47/174 182/169 142/168 
f 110/84 24/327 143/326 244/82 
f 246/86 144/328 24/327 110/84 
f 144/176 184/177 48/178 24/175 
f 24/175 48/178 183/173 143/172 
f 112/88 19/329 144/328 246/86 
f 235/60 137/141 19/329 112/88 
f 137/342 178/343 43/180 19/179 
f 19/179 43/180 184/177 144/176 
f 145/182 49/183 146/184 257/181 
f 185/185 53/186 49/183 145/182 
f 53/186 186/187 147/188 49/183 
f 49/183 147/188 258/189 146/184 
f 148/191 57/192 149/193 259/190 
f 187/194 60/195 57/192 148/191 
f 60/195 189/196 150/197 57/192 
f 57/192 150/197 260/198 149/193 
f 151/200 58/201 152/202 261/199 
f 190/203 59/204 58/201 151/200 
f 59/204 187/194 148/191 58/201 
f 58/201 148/191 259/190 152/202 
f 153/206 61/207 154/208 262/205 
f 192/209 62/210 61/207 153/206 
f 62/210 190/203 151/200 61/207 
f 61/207 151/200 261/199 154/208 
f 155/212 63/213 156/214 263/211 
f 194/215 64/216 63/213 155/212 
f 64/216 192/350 153/349 63/213 
f 63/213 153/349 262/348 156/214 
f 157/218 65/219 158/220 264/217 
f 196/221 66/222 65/219 157/218 
f 66/222 194/215 155/212 65/219 
f 65/219 155/212 263/211 158/220 
f 265/223 159/224 67/225 160/226 
f 170/227 68/228 67/225 159/224 
f 68/228 196/221 157/218 67/225 
f 67/225 157/218 264/217 160/226 
f 258/347 147/346 55/229 161/230 
f 186/187 54/231 55/229 147/346 
f 54/231 171/232 162/233 55/229 
f 161/230 55/229 162/233 266/234 
f 163/236 71/237 164/238 267/235 
f 268/239 165/240 71/237 163/236 
f 165/240 269/241 166/242 71/237 
f 71/237 166/242 270/243 164/238 
f 268/239 167/244 72/245 165/240 
f 167/244 271/246 168/247 72/245 
f 72/245 168/247 272/248 169/249 
f 165/240 72/245 169/249 269/241 
f 170/227 70/250 168/247 271/246 
f 159/224 69/251 70/250 170/227 
f 69/251 162/233 171/232 70/250 
f 70/250 171/232 272/248 168/247 
f 172/252 56/253 173/254 265/223 
f 273/351 174/256 56/253 172/252 
f 174/256 258/347 161/230 56/253 
f 56/253 161/230 266/234 173/254 
f 273/255 175/257 50/258 174/352 
f 175/257 260/198 176/259 50/258 
f 50/258 176/259 257/181 146/184 
f 174/352 50/258 146/184 258/189 
f 150/197 51/260 176/259 260/198 
f 189/196 52/261 51/260 150/197 
f 52/261 185/185 145/182 51/260 
f 51/260 145/182 257/181 176/259 
f 260/198 175/257 42/152 177/151 
f 175/257 273/255 178/154 42/152 
f 259/190 149/193 41/158 179/157 
f 149/193 260/198 177/151 41/158 
f 261/199 152/202 44/162 180/161 
f 152/202 259/190 179/157 44/162 
f 262/205 154/208 45/166 181/165 
f 154/208 261/199 180/161 45/166 
f 263/211 156/214 46/170 182/169 
f 156/214 262/348 181/345 46/170 
f 264/217 158/220 47/174 183/173 
f 158/220 263/211 182/169 47/174 
f 184/177 265/223 160/226 48/178 
f 160/226 264/217 183/173 48/178 
f 178/343 273/351 172/252 43/180 
f 43/180 172/252 265/223 184/177 
f 185/185 270/243 166/242 53/186 
f 53/186 166/242 269/241 186/187 
f 274/262 188/263 60/195 187/194 
f 60/195 188/263 267/235 189/196 
f 275/264 191/265 59/204 190/203 
f 191/265 274/262 187/194 59/204 
f 276/266 193/267 62/210 192/209 
f 193/267 275/264 190/203 62/210 
f 277/268 195/269 64/216 194/215 
f 195/269 276/353 192/350 64/216 
f 278/270 197/271 66/222 196/221 
f 197/271 277/268 194/215 66/222 
f 271/246 198/272 68/228 170/227 
f 198/272 278/270 196/221 68/228 
f 269/241 169/249 54/231 186/187 
f 169/249 272/248 171/232 54/231 
f 159/224 265/223 173/254 69/251 
f 69/251 173/254 266/234 162/233 
f 189/196 267/235 164/238 52/261 
f 52/261 164/238 270/243 185/185 
f 163/236 199/273 280/274 268/239 
f 267/235 279/275 199/273 163/236 
f 188/263 200/276 279/275 267/235 
f 188/263 274/262 281/277 200/276 
f 191/265 201/278 281/277 274/262 
f 191/265 275/264 256/279 201/278 
f 193/267 202/280 256/279 275/264 
f 193/267 276/266 282/281 202/280 
f 195/269 203/282 282/354 276/353 
f 195/269 277/268 283/283 203/282 
f 197/271 204/284 283/283 277/268 
f 197/271 278/270 284/285 204/284 
f 198/272 205/286 284/285 278/270 
f 198/272 271/246 285/287 205/286 
f 271/246 167/244 206/288 285/287 
f 167/244 268/239 280/274 206/288 
f 199/127 74/289 207/290 280/126 
f 279/291 208/292 74/289 199/127 
f 208/292 215/293 34/294 74/289 
f 74/289 34/294 216/295 207/290 
f 200/296 73/297 208/292 279/291 
f 281/298 209/299 73/297 200/296 
f 209/299 217/300 35/301 73/297 
f 73/297 35/301 215/293 208/292 
f 201/302 76/303 209/299 281/298 
f 256/304 210/305 76/303 201/302 
f 210/305 218/306 36/307 76/303 
f 76/303 36/307 217/300 209/299 
f 202/308 77/309 210/305 256/304 
f 282/310 211/311 77/309 202/308 
f 211/311 219/312 37/313 77/309 
f 77/309 37/313 218/306 210/305 
f 203/314 78/315 211/311 282/310 
f 283/316 212/317 78/315 203/314 
f 212/317 220/318 38/319 78/315 
f 78/315 38/319 219/312 211/311 
f 204/320 79/321 212/317 283/316 
f 284/322 213/330 79/321 204/320 
f 213/330 221/331 39/332 79/321 
f 79/321 39/332 220/318 212/317 
f 205/333 80/334 213/330 284/322 
f 285/335 214/336 80/334 205/333 
f 214/336 222/337 40/338 80/334 
f 80/334 40/338 221/331 213/330 
f 206/339 75/340 214/336 285/335 
f 280/126 207/290 75/340 206/339 
f 207/290 216/295 33/341 75/340 
f 75/340 33/341 222/337 214/336 
f 249/99 115/98 34/294 215/293 
f 115/98 248/97 216/295 34/294 
f 250/103 117/102 35/301 217/300 
f 117/102 249/99 215/293 35/301 
f 251/107 119/106 36/307 218/306 
f 119/106 250/103 217/300 36/307 
f 252/111 121/110 37/313 219/312 
f 121/110 251/107 218/306 37/313 
f 253/115 123/114 38/319 220/318 
f 123/114 252/111 219/312 38/319 
f 254/119 125/118 39/332 221/331 
f 125/118 253/115 220/318 39/332 
f 255/123 127/122 40/338 222/337 
f 127/122 254/119 221/331 40/338 
f 248/97 128/125 33/341 216/295 
f 128/125 255/123 222/337 33/341 
f 510/358 367/357 366/356 578/355 
f 367/357 509/360 571/359 366/356 
f 509/360 369/362 368/361 571/359 
f 369/362 511/364 572/363 368/361 
f 511/364 371/366 370/365 572/363 
f 371/366 512/368 573/367 370/365 
f 512/368 373/370 372/369 573/367 
f 373/370 513/372 574/371 372/369 
f 513/372 375/374 374/373 574/371 
f 375/374 514/376 575/375 374/373 
f 514/376 377/378 376/377 575/375 
f 377/378 515/380 577/379 376/377 
f 515/380 379/382 378/381 577/379 
f 379/382 516/384 576/383 378/381 
f 516/384 381/386 380/385 576/383 
f 381/386 510/358 578/355 380/385 
f 520/390 383/389 382/388 517/387 
f 382/388 383/389 519/392 518/391 
f 519/392 385/394 384/393 518/391 
f 384/393 385/394 522/396 521/395 
f 522/396 387/398 386/397 521/395 
f 386/397 387/398 524/400 523/399 
f 524/400 389/402 388/401 523/399 
f 388/401 389/402 525/404 508/403 
f 525/404 391/406 390/405 508/403 
f 390/405 391/406 527/408 526/407 
f 527/408 393/410 392/409 526/407 
f 392/409 393/410 529/412 528/411 
f 529/412 395/414 394/413 528/411 
f 394/413 395/414 531/416 530/415 
f 531/416 397/418 396/417 530/415 
f 396/417 397/418 520/390 517/387 
f 399/426 310/425 398/424 532/423 
f 533/427 398/424 310/425 400/428 
f 534/429 400/428 310/425 399/426 
f 401/431 311/430 399/426 532/423 
f 534/429 399/426 311/430 402/432 
f 535/433 402/432 311/430 401/431 
f 403/435 312/434 401/431 532/423 
f 535/433 401/431 312/434 404/436 
f 536/437 404/436 312/434 403/435 
f 405/439 313/438 403/435 532/423 
f 536/437 403/435 313/438 406/440 
f 537/441 406/440 313/438 405/439 
f 407/443 314/442 405/439 532/423 
f 537/441 405/439 314/442 408/444 
f 538/445 408/444 314/442 407/443 
f 409/447 315/446 407/443 532/423 
f 538/445 407/443 315/446 410/448 
f 539/449 410/448 315/446 409/447 
f 411/451 316/450 409/447 532/423 
f 539/449 409/447 316/450 412/452 
f 540/453 412/452 316/450 411/451 
f 398/424 317/454 411/451 532/423 
f 540/453 411/451 317/454 413/455 
f 533/427 413/455 317/454 398/424 
f 367/357 295/420 414/419 509/360 
f 295/420 382/388 518/391 414/419 
f 415/421 517/387 382/388 295/420 
f 510/358 415/421 295/420 367/357 
f 369/362 294/458 416/422 511/364 
f 294/458 384/393 521/395 416/422 
f 414/419 518/391 384/393 294/458 
f 509/360 414/419 294/458 369/362 
f 371/366 297/460 417/459 512/368 
f 297/460 386/397 523/399 417/459 
f 416/422 521/395 386/397 297/460 
f 511/364 416/422 297/460 371/366 
f 373/370 298/462 418/461 513/372 
f 298/462 388/401 508/403 418/461 
f 417/459 523/399 388/401 298/462 
f 512/368 417/459 298/462 373/370 
f 375/374 299/464 419/463 514/376 
f 299/464 390/405 526/407 419/463 
f 418/461 508/403 390/405 299/464 
f 513/372 418/461 299/464 375/374 
f 377/378 300/466 420/465 515/380 
f 300/466 392/409 528/411 420/465 
f 419/463 526/407 392/409 300/466 
f 514/376 419/463 300/466 377/378 
f 379/382 301/468 421/467 516/384 
f 301/468 394/413 530/415 421/467 
f 420/465 528/411 394/413 301/468 
f 515/380 420/465 301/468 379/382 
f 381/386 296/469 415/421 510/358 
f 296/469 396/417 517/387 415/421 
f 421/467 530/415 396/417 296/469 
f 516/384 421/467 296/469 381/386 
f 422/471 303/470 383/389 520/390 
f 303/470 423/472 519/392 383/389 
f 327/482 462/481 423/480 303/479 
f 463/484 327/482 303/479 422/483 
f 423/472 302/473 385/394 519/392 
f 302/473 424/474 522/396 385/394 
f 326/488 464/487 424/486 302/485 
f 462/481 326/488 302/485 423/480 
f 424/474 305/475 387/398 522/396 
f 305/475 425/476 524/400 387/398 
f 329/492 465/491 425/490 305/489 
f 464/487 329/492 305/489 424/486 
f 425/476 306/477 389/402 524/400 
f 306/477 426/478 525/404 389/402 
f 330/496 466/495 426/494 306/493 
f 465/491 330/496 306/493 425/490 
f 426/478 307/653 391/406 525/404 
f 307/653 427/654 527/408 391/406 
f 331/500 467/499 427/498 307/497 
f 466/675 331/500 307/497 426/674 
f 427/654 308/655 393/410 527/408 
f 308/655 428/656 529/412 393/410 
f 332/504 468/503 428/502 308/501 
f 467/499 332/504 308/501 427/498 
f 428/656 309/657 395/414 529/412 
f 309/657 429/658 531/416 395/414 
f 333/508 469/507 429/506 309/505 
f 468/503 333/508 309/505 428/502 
f 429/658 304/659 397/418 531/416 
f 304/659 422/471 520/390 397/418 
f 328/510 463/673 422/672 304/509 
f 469/507 328/510 304/509 429/506 
f 431/514 334/513 430/512 542/511 
f 334/513 338/516 470/515 430/512 
f 432/518 471/517 338/516 334/513 
f 543/519 432/518 334/513 431/514 
f 434/523 342/522 433/521 544/520 
f 342/522 345/525 472/524 433/521 
f 435/527 474/526 345/525 342/522 
f 545/528 435/527 342/522 434/523 
f 437/532 343/531 436/530 546/529 
f 343/531 344/534 475/533 436/530 
f 433/521 472/524 344/534 343/531 
f 544/520 433/521 343/531 437/532 
f 439/538 346/537 438/536 547/535 
f 346/537 347/540 477/539 438/536 
f 436/530 475/533 347/540 346/537 
f 546/529 436/530 346/537 439/538 
f 441/544 348/543 440/542 548/541 
f 348/543 349/546 479/545 440/542 
f 438/679 477/680 349/546 348/543 
f 547/678 438/679 348/543 441/544 
f 443/550 350/549 442/548 549/547 
f 350/549 351/552 481/551 442/548 
f 440/542 479/545 351/552 350/549 
f 548/541 440/542 350/549 443/550 
f 550/553 445/556 352/555 444/554 
f 352/555 353/558 455/557 444/554 
f 442/548 481/551 353/558 352/555 
f 549/547 442/548 352/555 445/556 
f 543/677 446/560 340/559 432/676 
f 340/559 339/561 471/517 432/676 
f 447/563 456/562 339/561 340/559 
f 446/560 551/564 447/563 340/559 
f 449/568 356/567 448/566 552/565 
f 356/567 450/570 553/569 448/566 
f 451/572 554/571 450/570 356/567 
f 555/573 451/572 356/567 449/568 
f 553/569 450/570 357/575 452/574 
f 452/574 357/575 453/577 556/576 
f 357/575 454/579 557/578 453/577 
f 450/570 554/571 454/579 357/575 
f 453/577 355/580 455/557 556/576 
f 355/580 354/581 444/554 455/557 
f 456/562 447/563 354/581 355/580 
f 557/578 456/562 355/580 453/577 
f 458/584 341/583 457/582 550/553 
f 341/583 459/586 558/681 457/582 
f 446/560 543/677 459/586 341/583 
f 551/564 446/560 341/583 458/584 
f 558/585 459/682 335/588 460/587 
f 460/587 335/588 461/589 545/528 
f 335/588 431/514 542/511 461/589 
f 459/682 543/519 431/514 335/588 
f 461/589 336/590 435/527 545/528 
f 336/590 337/591 474/526 435/527 
f 430/512 470/515 337/591 336/590 
f 542/511 430/512 336/590 461/589 
f 327/482 460/587 545/528 462/481 
f 463/484 558/585 460/587 327/482 
f 326/488 434/523 544/520 464/487 
f 462/481 545/528 434/523 326/488 
f 329/492 437/532 546/529 465/491 
f 464/487 544/520 437/532 329/492 
f 330/496 439/538 547/535 466/495 
f 465/491 546/529 439/538 330/496 
f 331/500 441/544 548/541 467/499 
f 466/675 547/678 441/544 331/500 
f 332/504 443/550 549/547 468/503 
f 467/499 548/541 443/550 332/504 
f 469/507 333/508 445/556 550/553 
f 468/503 549/547 445/556 333/508 
f 463/673 328/510 457/582 558/681 
f 328/510 469/507 550/553 457/582 
f 470/515 338/516 451/572 555/573 
f 338/516 471/517 554/571 451/572 
f 345/525 473/593 559/592 472/524 
f 345/525 474/526 552/565 473/593 
f 344/534 476/595 560/594 475/533 
f 472/524 559/592 476/595 344/534 
f 347/540 478/597 561/596 477/539 
f 475/533 560/594 478/597 347/540 
f 349/546 480/599 562/598 479/545 
f 477/680 561/683 480/599 349/546 
f 351/552 482/601 563/600 481/551 
f 479/545 562/598 482/601 351/552 
f 353/558 483/602 556/576 455/557 
f 481/551 563/600 483/602 353/558 
f 339/561 454/579 554/571 471/517 
f 456/562 557/578 454/579 339/561 
f 444/554 354/581 458/584 550/553 
f 354/581 447/563 551/564 458/584 
f 474/526 337/591 449/568 552/565 
f 337/591 470/515 555/573 449/568 
f 565/604 484/603 448/566 553/569 
f 484/603 564/605 552/565 448/566 
f 564/605 485/606 473/593 552/565 
f 473/593 485/606 566/607 559/592 
f 566/607 486/608 476/595 559/592 
f 476/595 486/608 541/609 560/594 
f 541/609 487/610 478/597 560/594 
f 478/597 487/610 567/611 561/596 
f 567/684 488/612 480/599 561/683 
f 480/599 488/612 568/613 562/598 
f 568/613 489/614 482/601 562/598 
f 482/601 489/614 569/615 563/600 
f 569/615 490/616 483/602 563/600 
f 483/602 490/616 570/617 556/576 
f 556/576 570/617 491/618 452/574 
f 452/574 491/618 565/604 553/569 
f 492/620 359/619 484/457 565/456 
f 359/619 493/622 564/621 484/457 
f 319/624 500/623 493/622 359/619 
f 501/625 319/624 359/619 492/620 
f 493/622 358/627 485/626 564/621 
f 358/627 494/629 566/628 485/626 
f 320/631 502/630 494/629 358/627 
f 500/623 320/631 358/627 493/622 
f 494/629 361/633 486/632 566/628 
f 361/633 495/635 541/634 486/632 
f 321/637 503/636 495/635 361/633 
f 502/630 321/637 361/633 494/629 
f 495/635 362/639 487/638 541/634 
f 362/639 496/641 567/640 487/638 
f 322/643 504/642 496/641 362/639 
f 503/636 322/643 362/639 495/635 
f 496/641 363/645 488/644 567/640 
f 363/645 497/647 568/646 488/644 
f 323/649 505/648 497/647 363/645 
f 504/642 323/649 363/645 496/641 
f 497/647 364/651 489/650 568/646 
f 364/651 498/660 569/652 489/650 
f 324/662 506/661 498/660 364/651 
f 505/648 324/662 364/651 497/647 
f 498/660 365/664 490/663 569/652 
f 365/664 499/666 570/665 490/663 
f 325/668 507/667 499/666 365/664 
f 506/661 325/668 365/664 498/660 
f 499/666 360/670 491/669 570/665 
f 360/670 492/620 565/456 491/669 
f 318/671 501/625 492/620 360/670 
f 507/667 318/671 360/670 499/666 
f 319/624 400/428 534/429 500/623 
f 501/625 533/427 400/428 319/624 
f 320/631 402/432 535/433 502/630 
f 500/623 534/429 402/432 320/631 
f 321/637 404/436 536/437 503/636 
f 502/630 535/433 404/436 321/637 
f 322/643 406/440 537/441 504/642 
f 503/636 536/437 406/440 322/643 
f 323/649 408/444 538/445 505/648 
f 504/642 537/441 408/444 323/649 
f 324/662 410/448 539/449 506/661 
f 505/648 538/445 410/448 324/662 
f 325/668 412/452 540/453 507/667 
f 506/661 539/449 412/452 325/668 
f 318/671 413/455 533/427 501/625 
f 507/667 540/453 413/455 318/671 
f 580/686 588/687 587/688 579/685 
f 581/689 589/690 588/687 580/686 
f 582/691 590/692 589/690 581/689 
f 583/693 591/694 590/736 582/735 
f 584/695 592/696 591/694 583/693 
f 585/697 593/698 592/696 584/695 
f 586/699 594/700 593/698 585/697 
f 579/685 587/688 594/700 586/699 
f 579/702 595/703 596/704 580/701 
f 580/701 596/704 597/706 581/705 
f 581/705 597/706 598/708 582/707 
f 582/707 598/708 599/727 583/717 
f 583/717 599/727 600/729 584/728 
f 584/728 600/729 601/731 585/730 
f 585/730 601/731 602/733 586/732 
f 586/732 602/733 595/703 579/702 
f 588/710 604/711 603/712 587/709 
f 589/713 605/714 604/711 588/710 
f 590/715 606/716 605/714 589/713 
f 591/718 607/719 606/716 590/715 
f 592/720 608/721 607/719 591/718 
f 593/722 609/723 608/721 592/720 
f 594/724 610/725 609/723 593/722 
f 587/709 603/712 610/725 594/724 
f 596/704 595/703 611/734 
f 597/706 596/704 611/734 
f 598/708 597/706 611/734 
f 599/727 598/708 611/734 
f 600/729 599/727 611/734 
f 601/731 600/729 611/734 
f 602/733 601/731 611/734 
f 595/703 602/733 611/734 
f 603/712 604/711 612/726 
f 604/711 605/714 612/726 
f 605/714 606/716 612/726 
f 606/716 607/719 612/726 
f 607/719 608/721 612/726 
f 608/721 609/723 612/726 
f 609/723 610/725 612/726 
f 610/725 603/712 612/726 
f 614/738 615/739 616/740 613/737 
f 617/741 618/742 615/739 614/738 
f 619/743 620/744 618/742 617/741 
f 621/746 622/747 620/748 619/745 
f 623/749 624/750 622/747 621/746 
f 625/751 626/752 624/750 623/749 
f 627/753 628/754 626/752 625/751 
f 613/737 616/740 628/754 627/753 
f 613/756 629/757 630/758 614/755 
f 614/755 630/758 631/760 617/759 
f 617/759 631/760 632/762 619/761 
f 619/761 632/762 633/764 621/763 
f 621/763 633/764 634/766 623/765 
f 623/765 634/766 635/768 625/767 
f 625/767 635/768 636/770 627/769 
f 627/769 636/770 629/757 613/756 
f 615/772 637/773 638/774 616/771 
f 618/775 639/776 637/773 615/772 
f 620/777 640/778 639/776 618/775 
f 622/779 641/780 640/778 620/777 
f 624/781 642/782 641/780 622/779 
f 626/783 643/784 642/782 624/781 
f 628/785 644/786 643/784 626/783 
f 616/771 638/774 644/786 628/785 
f 630/758 629/757 645/787 
f 631/760 630/758 645/787 
f 632/762 631/760 645/787 
f 633/764 632/762 645/787 
f 634/766 633/764 645/787 
f 635/768 634/766 645/787 
f 636/770 635/768 645/787 
f 629/757 636/770 645/787 
f 638/774 637/773 646/788 
f 637/773 639/776 646/788 
f 639/776 640/778 646/788 
f 640/778 641/780 646/788 
f 641/780 642/782 646/788 
f 642/782 643/784 646/788 
f 643/784 644/786 646/788 
f 644/786 638/774 646/788 
f 648/790 649/791 650/792 647/789 
f 651/793 652/794 649/791 648/790 
f 653/795 654/796 652/794 651/793 
f 655/798 656/799 654/800 653/797 
f 657/801 658/802 656/799 655/798 
f 659/803 660/804 658/802 657/801 
f 661/805 662/806 660/804 659/803 
f 647/789 650/792 662/806 661/805 
f 647/808 663/809 664/810 648/807 
f 648/807 664/810 665/812 651/811 
f 651/811 665/812 666/814 653/813 
f 653/813 666/814 667/816 655/815 
f 655/815 667/816 668/818 657/817 
f 657/817 668/818 669/820 659/819 
f 659/819 669/820 670/822 661/821 
f 661/821 670/822 663/809 647/808 
f 649/824 671/825 672/826 650/823 
f 652/827 673/828 671/825 649/824 
f 654/829 674/830 673/828 652/827 
f 656/831 675/832 674/830 654/829 
f 658/833 676/834 675/832 656/831 
f 660/835 677/836 676/834 658/833 
f 662/837 678/838 677/836 660/835 
f 650/823 672/826 678/838 662/837 
f 664/810 663/809 679/839 
f 665/812 664/810 679/839 
f 666/814 665/812 679/839 
f 667/816 666/814 679/839 
f 668/818 667/816 679/839 
f 669/820 668/818 679/839 
f 670/822 669/820 679/839 
f 663/809 670/822 679/839 
f 672/826 671/825 680/840 
f 671/825 673/828 680/840 
f 673/828 674/830 680/840 
f 674/830 675/832 680/840 
f 675/832 676/834 680/840 
f 676/834 677/836 680/840 
f 677/836 678/838 680/840 
f 678/838 672/826 680/840 
# 630 polygons - 48 triangles

