# 3ds Max Wavefront OBJ Exporter v0.97b - (c)2007 guruware
# File Created: 03.08.2021 15:43:18

#
# object 2?_??___??
#

v  32.228073 12.835757 13.551309
v  32.239166 12.835590 13.826914
v  32.624092 12.835552 14.092370
v  32.259174 12.835360 14.365910
v  32.269489 12.835262 14.644575
v  32.654408 12.835207 14.910015
v  32.289501 12.835030 15.183541
v  32.299820 12.834932 15.462236
v  32.684731 12.834860 15.727661
v  32.319836 12.834698 16.001173
v  32.330158 12.834602 16.279896
v  32.715057 12.834512 16.545307
v  32.350174 12.834366 16.818806
v  32.360500 12.834271 17.097555
v  32.745396 12.834163 17.362951
v  32.380520 12.834033 17.636440
v  32.390850 12.833940 17.915215
v  32.775738 12.833814 18.180597
v  32.410873 12.833700 18.454075
v  32.421204 12.833609 18.732872
v  32.806087 12.833464 18.998243
v  32.441231 12.833368 19.271709
v  32.451561 12.833278 19.550528
v  32.836441 12.833115 19.815887
v  32.471592 12.833036 20.089346
v  32.481930 12.832947 20.368183
v  32.866806 12.832767 20.633533
v  32.501961 12.832705 20.906982
v  32.512299 12.832618 21.185837
v  32.897175 12.832418 21.451178
v  32.532337 12.832376 21.724621
v  32.542675 12.832290 22.003490
v  32.927547 12.832072 22.268824
v  32.562717 12.832047 22.542259
v  32.573059 12.831964 22.821144
v  32.957932 12.831728 23.086468
v  32.593102 12.831720 23.359898
v  32.602375 12.831566 23.635643
v  32.415066 18.965006 13.548107
v  32.415443 18.964327 13.822714
v  32.791061 18.962585 14.093301
v  32.415455 18.964481 14.363878
v  32.415447 18.964548 14.640535
v  32.791023 18.962944 14.911110
v  32.415459 18.964706 15.181677
v  32.415451 18.964773 15.458357
v  32.790997 18.963305 15.728919
v  32.415466 18.964931 15.999476
v  32.415459 18.964996 16.276178
v  32.790974 18.963669 16.546728
v  32.415474 18.965158 16.817276
v  32.415466 18.965221 17.093998
v  32.790955 18.964031 17.364538
v  32.415485 18.965385 17.635077
v  32.415482 18.965448 17.911818
v  32.790947 18.964397 18.182346
v  32.415501 18.965612 18.452875
v  32.415497 18.965675 18.729637
v  32.790947 18.964762 19.000156
v  32.415516 18.965839 19.270678
v  32.415512 18.965900 19.547457
v  32.790951 18.965126 19.817965
v  32.415539 18.966066 20.088478
v  32.415535 18.966127 20.365274
v  32.790966 18.965490 20.635775
v  32.415558 18.966293 20.906281
v  32.415558 18.966354 21.183094
v  32.790985 18.965855 21.453585
v  32.415585 18.966522 21.724083
v  32.415585 18.966579 22.000912
v  32.791012 18.966215 22.271393
v  32.415611 18.966747 22.541885
v  32.415611 18.966805 22.818727
v  32.791046 18.966576 23.089203
v  32.415642 18.966974 23.359688
v  32.415237 18.967192 23.634407
v  32.598412 19.728842 13.548107
v  32.598412 19.728842 13.820711
v  32.598412 19.728842 14.365915
v  32.598412 19.728842 14.638520
v  32.598412 19.728842 15.183725
v  32.598412 19.728842 15.456329
v  32.598412 19.728842 16.001537
v  32.598412 19.728842 16.274139
v  32.598412 19.728842 16.819345
v  32.598412 19.728842 17.091949
v  32.598412 19.728842 17.637156
v  32.598412 19.728842 17.909758
v  32.598412 19.728842 18.454966
v  32.598412 19.728842 18.727568
v  32.598408 19.728842 19.272774
v  32.598408 19.728842 19.545378
v  32.598408 19.728842 20.090584
v  32.598408 19.728842 20.363188
v  32.598408 19.728842 20.908394
v  32.598408 19.728842 21.180998
v  32.598408 19.728842 21.726204
v  32.598408 19.728842 21.998808
v  32.598408 19.728842 22.544014
v  32.598408 19.728842 22.816618
v  32.598408 19.728842 23.361822
v  32.598408 19.728842 23.634426
v  32.674870 19.758873 13.548107
v  32.674870 19.758873 13.820711
v  32.674870 19.758873 14.365915
v  32.674870 19.758873 14.638520
v  32.674870 19.758873 15.183725
v  32.674870 19.758873 15.456329
v  32.674870 19.758873 16.001537
v  32.674870 19.758873 16.274139
v  32.674870 19.758873 16.819345
v  32.674870 19.758873 17.091949
v  32.674870 19.758873 17.637156
v  32.674870 19.758873 17.909760
v  32.674870 19.758873 18.454966
v  32.674870 19.758873 18.727568
v  32.674870 19.758873 19.272774
v  32.674870 19.758873 19.545378
v  32.674866 19.758873 20.090584
v  32.674866 19.758873 20.363188
v  32.674866 19.758873 20.908394
v  32.674866 19.758873 21.180998
v  32.674866 19.758873 21.726204
v  32.674866 19.758873 21.998808
v  32.674866 19.758873 22.544014
v  32.674866 19.758873 22.816618
v  32.674866 19.758873 23.361822
v  32.674866 19.758873 23.634426
v  32.742935 19.729912 13.548107
v  32.742935 19.729912 13.820711
v  32.742935 19.729912 14.365915
v  32.742935 19.729912 14.638520
v  32.742935 19.729912 15.183725
v  32.742935 19.729912 15.456329
v  32.742935 19.729912 16.001537
v  32.742935 19.729912 16.274139
v  32.742935 19.729912 16.819345
v  32.742935 19.729912 17.091949
v  32.742935 19.729912 17.637156
v  32.742935 19.729912 17.909760
v  32.742935 19.729912 18.454966
v  32.742935 19.729912 18.727568
v  32.742935 19.729912 19.272774
v  32.742935 19.729912 19.545378
v  32.742935 19.729912 20.090584
v  32.742935 19.729912 20.363188
v  32.742935 19.729912 20.908394
v  32.742935 19.729912 21.180996
v  32.742935 19.729912 21.726204
v  32.742935 19.729912 21.998808
v  32.742935 19.729912 22.544014
v  32.742935 19.729912 22.816618
v  32.742935 19.729912 23.361822
v  32.742935 19.729912 23.634426
v  32.768707 19.665878 13.548107
v  32.768707 19.665878 13.820711
v  32.768707 19.665878 14.365915
v  32.768707 19.665878 14.638520
v  32.768707 19.665878 15.183725
v  32.768707 19.665878 15.456329
v  32.768707 19.665878 16.001537
v  32.768707 19.665878 16.274139
v  32.768707 19.665878 16.819345
v  32.768707 19.665878 17.091949
v  32.768707 19.665878 17.637156
v  32.768707 19.665878 17.909760
v  32.768707 19.665878 18.454966
v  32.768707 19.665878 18.727568
v  32.768707 19.665878 19.272774
v  32.768707 19.665878 19.545378
v  32.768707 19.665878 20.090584
v  32.768707 19.665878 20.363188
v  32.768707 19.665878 20.908394
v  32.768707 19.665878 21.180996
v  32.768703 19.665878 21.726204
v  32.768703 19.665878 21.998808
v  32.768703 19.665878 22.544014
v  32.768703 19.665878 22.816618
v  32.768703 19.665878 23.361822
v  32.768703 19.665880 23.634426
v  32.745571 19.599144 13.548107
v  32.745571 19.599144 13.820711
v  32.745571 19.599144 14.365915
v  32.745571 19.599144 14.638520
v  32.745571 19.599144 15.183725
v  32.745571 19.599144 15.456329
v  32.745571 19.599144 16.001535
v  32.745571 19.599144 16.274139
v  32.745571 19.599144 16.819345
v  32.745571 19.599144 17.091949
v  32.745571 19.599144 17.637156
v  32.745571 19.599144 17.909760
v  32.745571 19.599144 18.454966
v  32.745571 19.599144 18.727568
v  32.745571 19.599144 19.272774
v  32.745571 19.599144 19.545378
v  32.745571 19.599144 20.090584
v  32.745571 19.599144 20.363188
v  32.745571 19.599144 20.908394
v  32.745571 19.599144 21.180996
v  32.745571 19.599144 21.726204
v  32.745571 19.599144 21.998808
v  32.745571 19.599144 22.544014
v  32.745571 19.599144 22.816618
v  32.745571 19.599144 23.361822
v  32.745571 19.599146 23.634426
v  32.476349 19.344679 13.548107
v  32.476349 19.344679 13.820711
v  32.476349 19.344679 14.365915
v  32.476349 19.344679 14.638519
v  32.476349 19.344679 15.183725
v  32.476349 19.344679 15.456329
v  32.476349 19.344679 16.001537
v  32.476349 19.344679 16.274139
v  32.476349 19.344679 16.819345
v  32.476349 19.344679 17.091949
v  32.476349 19.344679 17.637156
v  32.476349 19.344679 17.909760
v  32.476349 19.344679 18.454966
v  32.476349 19.344679 18.727568
v  32.476349 19.344679 19.272774
v  32.476349 19.344679 19.545378
v  32.476349 19.344679 20.090584
v  32.476345 19.344679 20.363188
v  32.476345 19.344679 20.908394
v  32.476345 19.344679 21.180998
v  32.476345 19.344679 21.726204
v  32.476345 19.344679 21.998808
v  32.476345 19.344679 22.544014
v  32.476345 19.344679 22.816618
v  32.476345 19.344679 23.361822
v  32.476345 19.344679 23.634426
v  32.602249 17.431915 13.546907
v  32.422928 15.900300 13.547997
v  32.407269 14.367603 13.548200
v  32.408649 14.367531 13.823963
v  32.423405 15.900199 13.823704
v  32.593002 17.431927 13.822657
v  32.783993 14.367496 14.093246
v  32.797958 15.900207 14.093386
v  32.957825 17.431940 14.096065
v  32.409470 14.367396 14.362867
v  32.422573 15.900075 14.362720
v  32.572983 17.431932 14.361372
v  32.409904 14.367350 14.641768
v  32.422131 15.900023 14.641519
v  32.562649 17.431934 14.640290
v  32.785252 14.367313 14.911055
v  32.796680 15.900012 14.911195
v  32.927479 17.431948 14.913710
v  32.410725 14.367215 15.180681
v  32.421299 15.899898 15.180523
v  32.542625 17.431940 15.179029
v  32.411163 14.367167 15.459574
v  32.420856 15.899846 15.459334
v  32.532291 17.431942 15.457925
v  32.786514 14.367129 15.728865
v  32.795403 15.899818 15.729004
v  32.897129 17.431955 15.731356
v  32.411987 14.367034 15.998495
v  32.420025 15.899719 15.998327
v  32.512272 17.431948 15.996687
v  32.412426 14.366986 16.277378
v  32.419582 15.899668 16.277149
v  32.501938 17.431948 16.275558
v  32.787777 14.366944 16.546673
v  32.794125 15.899626 16.546814
v  32.866779 17.431963 16.549000
v  32.413250 14.366854 16.816309
v  32.418755 15.899540 16.816132
v  32.481915 17.431953 16.814344
v  32.413689 14.366804 17.095184
v  32.418312 15.899489 17.094965
v  32.471584 17.431955 17.093193
v  32.789043 14.366757 17.364483
v  32.792850 15.899433 17.364622
v  32.836433 17.431971 17.366646
v  32.414513 14.366673 17.634125
v  32.417484 15.899360 17.633936
v  32.451561 17.431961 17.632004
v  32.414951 14.366623 17.912989
v  32.417046 15.899309 17.912781
v  32.441227 17.431963 17.910828
v  32.790310 14.366569 18.182293
v  32.791580 15.899242 18.182432
v  32.806084 17.431980 18.184292
v  32.415775 14.366492 18.451939
v  32.416218 15.899179 18.451740
v  32.421204 17.431969 18.449661
v  32.416218 14.366442 18.730793
v  32.415775 15.899129 18.730595
v  32.410873 17.431969 18.728462
v  32.791580 14.366379 19.000101
v  32.790310 15.899053 19.000242
v  32.775738 17.431988 19.001936
v  32.417046 14.366312 19.269754
v  32.414951 15.898998 19.269545
v  32.390850 17.431974 19.267317
v  32.417484 14.366261 19.548597
v  32.414513 15.898949 19.548409
v  32.380520 17.431976 19.546097
v  32.792850 14.366188 19.817911
v  32.789043 15.898864 19.818050
v  32.745388 17.431997 19.819582
v  32.418312 14.366133 20.087568
v  32.413689 15.898817 20.087349
v  32.360493 17.431982 20.084974
v  32.418755 14.366081 20.366402
v  32.413246 15.898768 20.366224
v  32.350166 17.431984 20.363731
v  32.794125 14.365996 20.635719
v  32.787777 15.898677 20.635860
v  32.715042 17.432005 20.637226
v  32.419582 14.365953 20.905384
v  32.412426 15.898635 20.905155
v  32.330139 17.431988 20.902632
v  32.420025 14.365902 21.184206
v  32.411987 15.898587 21.184038
v  32.319809 17.431990 21.181366
v  32.795403 14.365803 21.453529
v  32.786514 15.898492 21.453669
v  32.684692 17.432014 21.454872
v  32.420856 14.365776 21.723200
v  32.411163 15.898454 21.722960
v  32.299782 17.431995 21.720289
v  32.421299 14.365724 22.002010
v  32.410725 15.898406 22.001852
v  32.289455 17.431997 21.999001
v  32.796677 14.365609 22.271339
v  32.785252 15.898308 22.271479
v  32.654346 17.432022 22.272518
v  32.422131 14.365599 22.541016
v  32.409904 15.898272 22.540766
v  32.269428 17.432001 22.537947
v  32.422573 14.365546 22.819813
v  32.409466 15.898225 22.819666
v  32.259102 17.432003 22.816635
v  32.797958 14.365415 23.089148
v  32.783989 15.898127 23.089287
v  32.623997 17.432030 23.090162
v  32.423405 14.365422 23.358829
v  32.408649 15.898090 23.358570
v  32.239071 17.432007 23.355602
v  32.422928 14.365322 23.634537
v  32.407269 15.898018 23.634335
v  32.227959 17.432007 23.631205
v  32.246384 12.833708 13.551149
v  32.256500 12.833708 13.823698
v  32.642422 12.833708 14.092184
v  32.276733 12.833708 14.368793
v  32.286846 12.833708 14.641343
v  32.672771 12.833708 14.909829
v  32.307079 12.833708 15.186440
v  32.317196 12.833708 15.458989
v  32.703117 12.833708 15.727475
v  32.337429 12.833708 16.004086
v  32.347542 12.833708 16.276634
v  32.733467 12.833708 16.545120
v  32.367775 12.833708 16.821732
v  32.377892 12.833708 17.094280
v  32.763813 12.833708 17.362766
v  32.398125 12.833708 17.639378
v  32.408237 12.833708 17.911926
v  32.794163 12.833708 18.180412
v  32.428471 12.833708 18.457024
v  32.438587 12.833708 18.729572
v  32.824509 12.833708 18.998058
v  32.458817 12.833708 19.274670
v  32.468933 12.833708 19.547218
v  32.854858 12.833708 19.815704
v  32.489166 12.833708 20.092316
v  32.499283 12.833708 20.364864
v  32.885204 12.833708 20.633350
v  32.519512 12.833708 20.909962
v  32.529629 12.833708 21.182510
v  32.915554 12.833708 21.450996
v  32.549862 12.833708 21.727608
v  32.559978 12.833708 22.000156
v  32.945900 12.833708 22.268642
v  32.580208 12.833708 22.545254
v  32.590324 12.833708 22.817801
v  32.976250 12.833708 23.086288
v  32.610558 12.833708 23.362898
v  32.620674 12.833708 23.635447
v  32.433491 18.964649 13.548107
v  32.433491 18.964649 13.820709
v  32.809372 18.964649 14.093313
v  32.433491 18.964649 14.365915
v  32.433491 18.964649 14.638519
v  32.809372 18.964649 14.911122
v  32.433491 18.964649 15.183725
v  32.433491 18.964649 15.456329
v  32.809372 18.964649 15.728932
v  32.433491 18.964649 16.001535
v  32.433491 18.964649 16.274139
v  32.809372 18.964649 16.546741
v  32.433491 18.964649 16.819345
v  32.433491 18.964649 17.091949
v  32.809372 18.964649 17.364552
v  32.433491 18.964649 17.637156
v  32.433491 18.964649 17.909760
v  32.809372 18.964649 18.182362
v  32.433491 18.964649 18.454966
v  32.433491 18.964649 18.727568
v  32.809372 18.964649 19.000172
v  32.433491 18.964649 19.272776
v  32.433491 18.964649 19.545378
v  32.809372 18.964649 19.817982
v  32.433491 18.964649 20.090584
v  32.433491 18.964649 20.363188
v  32.809372 18.964649 20.635792
v  32.433491 18.964649 20.908394
v  32.433491 18.964649 21.180998
v  32.809372 18.964649 21.453602
v  32.433491 18.964649 21.726204
v  32.433491 18.964649 21.998808
v  32.809372 18.964649 22.271412
v  32.433491 18.964649 22.544014
v  32.433491 18.964649 22.816618
v  32.809372 18.964649 23.089220
v  32.433491 18.964649 23.361824
v  32.433491 18.964649 23.634426
v  32.611858 19.716242 13.548107
v  32.611858 19.716244 13.820711
v  32.611858 19.716244 14.365915
v  32.611858 19.716244 14.638520
v  32.611858 19.716244 15.183725
v  32.611858 19.716244 15.456329
v  32.611858 19.716244 16.001537
v  32.611858 19.716244 16.274139
v  32.611858 19.716244 16.819345
v  32.611858 19.716244 17.091949
v  32.611858 19.716244 17.637156
v  32.611858 19.716244 17.909758
v  32.611858 19.716244 18.454966
v  32.611858 19.716244 18.727568
v  32.611858 19.716244 19.272774
v  32.611858 19.716244 19.545378
v  32.611858 19.716244 20.090584
v  32.611858 19.716244 20.363188
v  32.611858 19.716244 20.908394
v  32.611858 19.716244 21.180998
v  32.611858 19.716244 21.726204
v  32.611858 19.716244 21.998808
v  32.611858 19.716244 22.544014
v  32.611858 19.716244 22.816618
v  32.611858 19.716244 23.361822
v  32.611858 19.716244 23.634426
v  32.674564 19.740450 13.548107
v  32.674564 19.740450 13.820711
v  32.674564 19.740450 14.365915
v  32.674564 19.740450 14.638520
v  32.674564 19.740450 15.183725
v  32.674564 19.740450 15.456329
v  32.674564 19.740450 16.001537
v  32.674564 19.740450 16.274139
v  32.674564 19.740450 16.819345
v  32.674564 19.740450 17.091949
v  32.674564 19.740450 17.637156
v  32.674564 19.740450 17.909760
v  32.674564 19.740450 18.454966
v  32.674564 19.740450 18.727568
v  32.674564 19.740450 19.272774
v  32.674564 19.740450 19.545378
v  32.674564 19.740450 20.090584
v  32.674564 19.740450 20.363188
v  32.674564 19.740450 20.908394
v  32.674564 19.740450 21.180998
v  32.674564 19.740450 21.726204
v  32.674564 19.740450 21.998808
v  32.674564 19.740450 22.544014
v  32.674564 19.740450 22.816618
v  32.674564 19.740450 23.361822
v  32.674564 19.740450 23.634426
v  32.729767 19.717022 13.548107
v  32.729767 19.717022 13.820711
v  32.729767 19.717022 14.365915
v  32.729767 19.717022 14.638520
v  32.729767 19.717022 15.183725
v  32.729767 19.717022 15.456329
v  32.729767 19.717022 16.001537
v  32.729767 19.717022 16.274139
v  32.729763 19.717022 16.819345
v  32.729767 19.717022 17.091949
v  32.729763 19.717022 17.637156
v  32.729763 19.717022 17.909760
v  32.729763 19.717022 18.454966
v  32.729763 19.717022 18.727568
v  32.729763 19.717022 19.272774
v  32.729763 19.717022 19.545378
v  32.729763 19.717022 20.090584
v  32.729763 19.717022 20.363188
v  32.729763 19.717022 20.908394
v  32.729763 19.717022 21.180996
v  32.729763 19.717022 21.726204
v  32.729763 19.717022 21.998808
v  32.729763 19.717022 22.544014
v  32.729763 19.717022 22.816618
v  32.729763 19.717022 23.361822
v  32.729763 19.717022 23.634426
v  32.750282 19.665613 13.548107
v  32.750282 19.665613 13.820711
v  32.750282 19.665613 14.365915
v  32.750282 19.665613 14.638520
v  32.750282 19.665613 15.183725
v  32.750282 19.665613 15.456329
v  32.750282 19.665613 16.001537
v  32.750282 19.665613 16.274139
v  32.750282 19.665613 16.819345
v  32.750282 19.665613 17.091949
v  32.750282 19.665613 17.637156
v  32.750282 19.665613 17.909760
v  32.750278 19.665613 18.454966
v  32.750278 19.665613 18.727568
v  32.750278 19.665613 19.272774
v  32.750278 19.665613 19.545378
v  32.750278 19.665613 20.090584
v  32.750278 19.665613 20.363188
v  32.750278 19.665613 20.908394
v  32.750278 19.665613 21.180996
v  32.750278 19.665613 21.726204
v  32.750278 19.665613 21.998808
v  32.750278 19.665613 22.544014
v  32.750278 19.665613 22.816618
v  32.750278 19.665613 23.361822
v  32.750278 19.665615 23.634426
v  32.728268 19.605478 13.548107
v  32.728268 19.605480 13.820711
v  32.728268 19.605480 14.365915
v  32.728268 19.605480 14.638520
v  32.728268 19.605480 15.183725
v  32.728268 19.605480 15.456329
v  32.728268 19.605480 16.001535
v  32.728268 19.605480 16.274139
v  32.728268 19.605480 16.819345
v  32.728268 19.605480 17.091949
v  32.728268 19.605480 17.637156
v  32.728268 19.605480 17.909760
v  32.728268 19.605480 18.454966
v  32.728268 19.605480 18.727568
v  32.728268 19.605480 19.272774
v  32.728268 19.605480 19.545378
v  32.728268 19.605480 20.090584
v  32.728268 19.605480 20.363188
v  32.728268 19.605480 20.908394
v  32.728268 19.605480 21.180996
v  32.728268 19.605480 21.726204
v  32.728268 19.605480 21.998808
v  32.728268 19.605480 22.544014
v  32.728268 19.605480 22.816618
v  32.728268 19.605480 23.361822
v  32.728268 19.605480 23.634426
v  32.494282 19.340446 13.548107
v  32.494282 19.340446 13.820711
v  32.494282 19.340446 14.365915
v  32.494282 19.340446 14.638519
v  32.494282 19.340446 15.183725
v  32.494282 19.340446 15.456329
v  32.494282 19.340446 16.001537
v  32.494282 19.340446 16.274139
v  32.494282 19.340446 16.819345
v  32.494282 19.340446 17.091949
v  32.494282 19.340446 17.637156
v  32.494282 19.340446 17.909760
v  32.494282 19.340446 18.454966
v  32.494282 19.340446 18.727568
v  32.494282 19.340446 19.272774
v  32.494282 19.340446 19.545378
v  32.494282 19.340446 20.090584
v  32.494282 19.340446 20.363188
v  32.494282 19.340446 20.908394
v  32.494282 19.340446 21.180998
v  32.494282 19.340446 21.726204
v  32.494282 19.340446 21.998808
v  32.494282 19.340446 22.544014
v  32.494282 19.340446 22.816618
v  32.494282 19.340446 23.361822
v  32.494282 19.340446 23.634426
v  32.620674 17.431913 13.547087
v  32.441322 15.899179 13.548023
v  32.425659 14.366443 13.548193
v  32.426083 14.366443 13.820797
v  32.440899 15.899179 13.820627
v  32.610558 17.431915 13.819635
v  32.802391 14.366443 14.093229
v  32.816357 15.899179 14.093399
v  32.976250 17.431915 14.096245
v  32.426929 14.366443 14.366002
v  32.440052 15.899179 14.365832
v  32.590328 17.431915 14.364733
v  32.427353 14.366443 14.638605
v  32.439629 15.899179 14.638435
v  32.580212 17.431915 14.637280
v  32.803658 14.366443 14.911039
v  32.815086 15.899179 14.911209
v  32.945900 17.431915 14.913892
v  32.428200 14.366443 15.183811
v  32.438782 15.899179 15.183641
v  32.559978 17.431915 15.182378
v  32.428623 14.366443 15.456415
v  32.438358 15.899179 15.456245
v  32.549862 17.431915 15.454926
v  32.804928 14.366443 15.728848
v  32.813816 15.899179 15.729018
v  32.915554 17.431915 15.731538
v  32.429470 14.366443 16.001621
v  32.437511 15.899179 16.001451
v  32.529629 17.431915 16.000023
v  32.429893 14.366443 16.274225
v  32.437088 15.899179 16.274055
v  32.519516 17.431915 16.272572
v  32.806198 14.366443 16.546658
v  32.812550 15.899179 16.546827
v  32.885204 17.431915 16.549183
v  32.430740 14.366443 16.819431
v  32.436241 15.899179 16.819262
v  32.499283 17.431915 16.817669
v  32.431164 14.366443 17.092033
v  32.435818 15.899179 17.091864
v  32.489166 17.431915 17.090218
v  32.807468 14.366443 17.364468
v  32.811279 15.899179 17.364637
v  32.854858 17.431915 17.366829
v  32.432011 14.366443 17.637241
v  32.434971 15.899179 17.637072
v  32.468933 17.431915 17.635315
v  32.432434 14.366443 17.909843
v  32.434547 15.899179 17.909674
v  32.458820 17.431915 17.907864
v  32.808739 14.366443 18.182278
v  32.810009 15.899179 18.182447
v  32.824509 17.431915 18.184475
v  32.433281 14.366443 18.455050
v  32.433704 15.899179 18.454880
v  32.438587 17.431915 18.452961
v  32.433704 14.366443 18.727654
v  32.433281 15.899179 18.727484
v  32.428471 17.431915 18.725510
v  32.810009 14.366443 19.000086
v  32.808739 15.899179 19.000256
v  32.794163 17.431915 19.002121
v  32.434547 14.366443 19.272860
v  32.432434 15.899179 19.272690
v  32.408237 17.431915 19.270607
v  32.434971 14.366443 19.545464
v  32.432011 15.899179 19.545292
v  32.398121 17.431915 19.543156
v  32.811279 14.366443 19.817896
v  32.807468 15.899179 19.818066
v  32.763813 17.431915 19.819767
v  32.435818 14.366443 20.090670
v  32.431164 15.899179 20.090500
v  32.377892 17.431915 20.088253
v  32.436241 14.366443 20.363272
v  32.430740 15.899179 20.363102
v  32.367775 17.431915 20.360802
v  32.812546 14.366443 20.635706
v  32.806198 15.899179 20.635876
v  32.733463 17.431915 20.637413
v  32.437088 14.366443 20.908478
v  32.429893 15.899179 20.908310
v  32.347542 17.431915 20.905899
v  32.437511 14.366443 21.181082
v  32.429470 15.899179 21.180912
v  32.337425 17.431915 21.178448
v  32.813816 14.366443 21.453516
v  32.804928 15.899179 21.453686
v  32.703117 17.431915 21.455059
v  32.438358 14.366443 21.726288
v  32.428623 15.899179 21.726118
v  32.317196 17.431915 21.723545
v  32.438782 14.366443 21.998892
v  32.428200 15.899179 21.998722
v  32.307079 17.431915 21.996094
v  32.815086 14.366443 22.271324
v  32.803658 15.899179 22.271494
v  32.672768 17.431915 22.272705
v  32.439629 14.366443 22.544098
v  32.427353 15.899179 22.543928
v  32.286846 17.431915 22.541191
v  32.440052 14.366443 22.816700
v  32.426929 15.899179 22.816532
v  32.276730 17.431915 22.813740
v  32.816357 14.366443 23.089134
v  32.802387 15.899179 23.089304
v  32.642422 17.431915 23.090349
v  32.440899 14.366443 23.361906
v  32.426083 15.899179 23.361736
v  32.256496 17.431915 23.358835
v  32.441322 14.366443 23.634510
v  32.425659 15.899179 23.634340
v  32.246384 17.431915 23.631384
# 692 vertices

vt 0.008758 0.269369 0.000000
vt 0.008804 0.179419 0.000000
vt 0.021157 0.179330 0.000000
vt 0.021293 0.269159 0.000000
vt 0.036716 0.180486 0.000000
vt 0.036601 0.268904 0.000000
vt 0.052273 0.179466 0.000000
vt 0.051895 0.268847 0.000000
vt 0.064533 0.179391 0.000000
vt 0.064454 0.268765 0.000000
vt 0.080027 0.180371 0.000000
vt 0.079805 0.268643 0.000000
vt 0.095552 0.179553 0.000000
vt 0.095140 0.268668 0.000000
vt 0.107839 0.179492 0.000000
vt 0.107682 0.268642 0.000000
vt 0.123331 0.180272 0.000000
vt 0.123080 0.268574 0.000000
vt 0.138859 0.179646 0.000000
vt 0.138463 0.268617 0.000000
vt 0.151192 0.179591 0.000000
vt 0.150991 0.268609 0.000000
vt 0.166695 0.180159 0.000000
vt 0.166440 0.268565 0.000000
vt 0.182235 0.179719 0.000000
vt 0.181872 0.268597 0.000000
vt 0.194616 0.179666 0.000000
vt 0.194387 0.268591 0.000000
vt 0.210132 0.180016 0.000000
vt 0.209886 0.268552 0.000000
vt 0.225681 0.179756 0.000000
vt 0.225363 0.268556 0.000000
vt 0.238107 0.179700 0.000000
vt 0.237861 0.268536 0.000000
vt 0.253628 0.179822 0.000000
vt 0.253401 0.268486 0.000000
vt 0.269177 0.179731 0.000000
vt 0.268910 0.268443 0.000000
vt 0.281641 0.179659 0.000000
vt 0.281378 0.268394 0.000000
vt 0.297147 0.179517 0.000000
vt 0.296935 0.268323 0.000000
vt 0.312671 0.179596 0.000000
vt 0.312463 0.268220 0.000000
vt 0.325164 0.179511 0.000000
vt 0.324875 0.268144 0.000000
vt 0.340629 0.179106 0.000000
vt 0.340432 0.268058 0.000000
vt 0.356109 0.179391 0.000000
vt 0.355955 0.267920 0.000000
vt 0.368626 0.179307 0.000000
vt 0.368299 0.267834 0.000000
vt 0.384042 0.178655 0.000000
vt 0.383846 0.267754 0.000000
vt 0.399473 0.179154 0.000000
vt 0.399356 0.267606 0.000000
vt 0.412010 0.179077 0.000000
vt 0.411632 0.267529 0.000000
vt 0.427378 0.178186 0.000000
vt 0.427168 0.267481 0.000000
vt 0.442765 0.178902 0.000000
vt 0.442668 0.267355 0.000000
vt 0.455332 0.178835 0.000000
vt 0.454885 0.267315 0.000000
vt 0.470665 0.177706 0.000000
vt 0.470431 0.267343 0.000000
vt 0.486026 0.178640 0.000000
vt 0.485949 0.267297 0.000000
vt 0.498639 0.178573 0.000000
vt 0.498150 0.267345 0.000000
vt 0.513950 0.177175 0.000000
vt 0.513801 0.267526 0.000000
vt 0.529274 0.178303 0.000000
vt 0.529476 0.267646 0.000000
vt 0.541800 0.178163 0.000000
vt 0.541867 0.267847 0.000000
vt 0.008843 0.358905 0.000000
vt 0.021151 0.358727 0.000000
vt 0.021141 0.380477 0.000000
vt 0.008833 0.380654 0.000000
vt 0.051820 0.358223 0.000000
vt 0.064173 0.358171 0.000000
vt 0.064123 0.380001 0.000000
vt 0.051770 0.380055 0.000000
vt 0.094965 0.357884 0.000000
vt 0.107353 0.357893 0.000000
vt 0.107283 0.379784 0.000000
vt 0.094895 0.379776 0.000000
vt 0.138244 0.357701 0.000000
vt 0.150663 0.357736 0.000000
vt 0.150583 0.379683 0.000000
vt 0.138165 0.379647 0.000000
vt 0.181638 0.357575 0.000000
vt 0.194085 0.357618 0.000000
vt 0.194003 0.379615 0.000000
vt 0.181556 0.379572 0.000000
vt 0.225138 0.357447 0.000000
vt 0.237612 0.357479 0.000000
vt 0.237534 0.379524 0.000000
vt 0.225060 0.379492 0.000000
vt 0.268740 0.357233 0.000000
vt 0.281241 0.357211 0.000000
vt 0.281180 0.379302 0.000000
vt 0.268679 0.379324 0.000000
vt 0.312330 0.356841 0.000000
vt 0.324858 0.356762 0.000000
vt 0.324816 0.378901 0.000000
vt 0.312287 0.378981 0.000000
vt 0.355801 0.356329 0.000000
vt 0.368354 0.356235 0.000000
vt 0.368316 0.378418 0.000000
vt 0.355763 0.378512 0.000000
vt 0.399145 0.355818 0.000000
vt 0.411720 0.355735 0.000000
vt 0.411678 0.377958 0.000000
vt 0.399103 0.378041 0.000000
vt 0.442348 0.355410 0.000000
vt 0.454943 0.355383 0.000000
vt 0.454883 0.377640 0.000000
vt 0.442288 0.377667 0.000000
vt 0.485392 0.355315 0.000000
vt 0.498002 0.355465 0.000000
vt 0.497886 0.377751 0.000000
vt 0.485275 0.377602 0.000000
vt 0.528247 0.356160 0.000000
vt 0.540676 0.356969 0.000000
vt 0.540348 0.378939 0.000000
vt 0.527919 0.378129 0.000000
vt 0.008822 0.403152 0.000000
vt 0.021131 0.402974 0.000000
vt 0.021129 0.406815 0.000000
vt 0.008820 0.406992 0.000000
vt 0.051718 0.402635 0.000000
vt 0.064071 0.402582 0.000000
vt 0.064062 0.406437 0.000000
vt 0.051709 0.406490 0.000000
vt 0.094823 0.402420 0.000000
vt 0.107211 0.402428 0.000000
vt 0.107198 0.406294 0.000000
vt 0.094811 0.406286 0.000000
vt 0.138083 0.402347 0.000000
vt 0.150502 0.402383 0.000000
vt 0.150488 0.406258 0.000000
vt 0.138069 0.406222 0.000000
vt 0.181472 0.402323 0.000000
vt 0.193919 0.402367 0.000000
vt 0.193904 0.406251 0.000000
vt 0.181458 0.406207 0.000000
vt 0.224979 0.402293 0.000000
vt 0.237453 0.402326 0.000000
vt 0.237439 0.406218 0.000000
vt 0.224965 0.406186 0.000000
vt 0.268616 0.402174 0.000000
vt 0.281117 0.402152 0.000000
vt 0.281106 0.406053 0.000000
vt 0.268605 0.406075 0.000000
vt 0.312244 0.401880 0.000000
vt 0.324771 0.401800 0.000000
vt 0.324764 0.405709 0.000000
vt 0.312236 0.405789 0.000000
vt 0.355724 0.401457 0.000000
vt 0.368277 0.401362 0.000000
vt 0.368270 0.405279 0.000000
vt 0.355718 0.405374 0.000000
vt 0.399059 0.401028 0.000000
vt 0.411635 0.400945 0.000000
vt 0.411628 0.404869 0.000000
vt 0.399052 0.404952 0.000000
vt 0.442226 0.400689 0.000000
vt 0.454821 0.400662 0.000000
vt 0.454810 0.404592 0.000000
vt 0.442215 0.404619 0.000000
vt 0.485154 0.400654 0.000000
vt 0.497765 0.400803 0.000000
vt 0.497744 0.404738 0.000000
vt 0.485134 0.404589 0.000000
vt 0.527580 0.400853 0.000000
vt 0.540009 0.401662 0.000000
vt 0.539951 0.405542 0.000000
vt 0.527522 0.404732 0.000000
vt 0.021128 0.410241 0.000000
vt 0.008819 0.410419 0.000000
vt 0.064055 0.409875 0.000000
vt 0.051701 0.409928 0.000000
vt 0.107187 0.409742 0.000000
vt 0.094800 0.409734 0.000000
vt 0.150475 0.409715 0.000000
vt 0.138057 0.409679 0.000000
vt 0.193891 0.409715 0.000000
vt 0.181445 0.409672 0.000000
vt 0.237427 0.409691 0.000000
vt 0.224953 0.409658 0.000000
vt 0.281097 0.409533 0.000000
vt 0.268596 0.409555 0.000000
vt 0.324757 0.409197 0.000000
vt 0.312229 0.409277 0.000000
vt 0.368264 0.408773 0.000000
vt 0.355712 0.408868 0.000000
vt 0.411621 0.408370 0.000000
vt 0.399045 0.408453 0.000000
vt 0.454801 0.408098 0.000000
vt 0.442206 0.408125 0.000000
vt 0.497726 0.408249 0.000000
vt 0.485115 0.408099 0.000000
vt 0.539900 0.409002 0.000000
vt 0.527470 0.408193 0.000000
vt 0.021126 0.413403 0.000000
vt 0.008817 0.413581 0.000000
vt 0.064047 0.413049 0.000000
vt 0.051694 0.413103 0.000000
vt 0.107177 0.412925 0.000000
vt 0.094790 0.412917 0.000000
vt 0.150464 0.412906 0.000000
vt 0.138045 0.412870 0.000000
vt 0.193880 0.412914 0.000000
vt 0.181433 0.412870 0.000000
vt 0.237415 0.412896 0.000000
vt 0.224941 0.412863 0.000000
vt 0.281088 0.412745 0.000000
vt 0.268587 0.412767 0.000000
vt 0.324751 0.412416 0.000000
vt 0.312223 0.412496 0.000000
vt 0.368259 0.411998 0.000000
vt 0.355706 0.412094 0.000000
vt 0.411615 0.411601 0.000000
vt 0.399039 0.411684 0.000000
vt 0.454792 0.411334 0.000000
vt 0.442197 0.411361 0.000000
vt 0.497709 0.411489 0.000000
vt 0.485098 0.411340 0.000000
vt 0.539852 0.412196 0.000000
vt 0.527423 0.411387 0.000000
vt 0.021124 0.417062 0.000000
vt 0.008816 0.417240 0.000000
vt 0.064039 0.416722 0.000000
vt 0.051685 0.416775 0.000000
vt 0.107166 0.416607 0.000000
vt 0.094778 0.416599 0.000000
vt 0.150450 0.416598 0.000000
vt 0.138032 0.416562 0.000000
vt 0.193866 0.416613 0.000000
vt 0.181419 0.416570 0.000000
vt 0.237402 0.416604 0.000000
vt 0.224928 0.416572 0.000000
vt 0.281077 0.416461 0.000000
vt 0.268577 0.416483 0.000000
vt 0.324744 0.416140 0.000000
vt 0.312216 0.416219 0.000000
vt 0.368253 0.415730 0.000000
vt 0.355700 0.415825 0.000000
vt 0.411608 0.415339 0.000000
vt 0.399032 0.415422 0.000000
vt 0.454782 0.415078 0.000000
vt 0.442187 0.415105 0.000000
vt 0.497689 0.415238 0.000000
vt 0.485079 0.415088 0.000000
vt 0.539797 0.415892 0.000000
vt 0.527368 0.415083 0.000000
vt 0.009260 0.091204 0.000000
vt 0.009751 0.002180 0.000000
vt 0.022096 0.002279 0.000000
vt 0.021721 0.091332 0.000000
vt 0.037443 0.004669 0.000000
vt 0.037089 0.092761 0.000000
vt 0.036474 0.356261 0.000000
vt 0.052824 0.002649 0.000000
vt 0.052460 0.091510 0.000000
vt 0.065188 0.002643 0.000000
vt 0.064920 0.091535 0.000000
vt 0.080575 0.004524 0.000000
vt 0.080316 0.092624 0.000000
vt 0.079561 0.356224 0.000000
vt 0.095991 0.002801 0.000000
vt 0.095710 0.091544 0.000000
vt 0.108377 0.002730 0.000000
vt 0.108167 0.091518 0.000000
vt 0.123806 0.004152 0.000000
vt 0.123595 0.092337 0.000000
vt 0.122791 0.356397 0.000000
vt 0.139259 0.002774 0.000000
vt 0.139021 0.091469 0.000000
vt 0.151670 0.002671 0.000000
vt 0.151482 0.091417 0.000000
vt 0.167139 0.003667 0.000000
vt 0.166947 0.091988 0.000000
vt 0.166141 0.356657 0.000000
vt 0.182628 0.002664 0.000000
vt 0.182410 0.091351 0.000000
vt 0.195064 0.002547 0.000000
vt 0.194875 0.091284 0.000000
vt 0.210569 0.003138 0.000000
vt 0.210376 0.091616 0.000000
vt 0.209601 0.356938 0.000000
vt 0.226090 0.002534 0.000000
vt 0.225871 0.091223 0.000000
vt 0.238548 0.002421 0.000000
vt 0.238338 0.091149 0.000000
vt 0.254082 0.002628 0.000000
vt 0.253865 0.091253 0.000000
vt 0.253164 0.357173 0.000000
vt 0.269628 0.002455 0.000000
vt 0.269380 0.091118 0.000000
vt 0.282102 0.002376 0.000000
vt 0.281834 0.091047 0.000000
vt 0.297634 0.002236 0.000000
vt 0.297372 0.090949 0.000000
vt 0.296785 0.357225 0.000000
vt 0.313162 0.002500 0.000000
vt 0.312892 0.091077 0.000000
vt 0.325643 0.002454 0.000000
vt 0.325312 0.091009 0.000000
vt 0.341134 0.001955 0.000000
vt 0.340848 0.090714 0.000000
vt 0.340328 0.357119 0.000000
vt 0.356615 0.002627 0.000000
vt 0.356357 0.091069 0.000000
vt 0.369095 0.002589 0.000000
vt 0.368731 0.090993 0.000000
vt 0.384537 0.001700 0.000000
vt 0.384252 0.090488 0.000000
vt 0.383746 0.356974 0.000000
vt 0.399963 0.002750 0.000000
vt 0.399743 0.091058 0.000000
vt 0.412439 0.002698 0.000000
vt 0.412067 0.090962 0.000000
vt 0.427824 0.001392 0.000000
vt 0.427573 0.090233 0.000000
vt 0.427029 0.356889 0.000000
vt 0.443193 0.002783 0.000000
vt 0.443047 0.090996 0.000000
vt 0.455664 0.002682 0.000000
vt 0.455327 0.090860 0.000000
vt 0.470989 0.000909 0.000000
vt 0.470827 0.089877 0.000000
vt 0.470159 0.357022 0.000000
vt 0.486301 0.002576 0.000000
vt 0.486303 0.090791 0.000000
vt 0.498768 0.002357 0.000000
vt 0.498561 0.090579 0.000000
vt 0.514030 0.000000 0.000000
vt 0.514095 0.089289 0.000000
vt 0.513109 0.357803 0.000000
vt 0.529293 0.001791 0.000000
vt 0.529644 0.090284 0.000000
vt 0.541682 0.001236 0.000000
vt 0.542003 0.089978 0.000000
# 346 texture coords

o 2?_??___??
g 2?_??___??
f 234/2 237/3 238/4 233/1 
f 237/3 240/5 241/6 238/4 
f 240/5 243/7 244/8 241/6 
f 243/7 246/9 247/10 244/8 
f 246/9 249/11 250/12 247/10 
f 249/11 252/13 253/14 250/12 
f 252/13 255/15 256/16 253/14 
f 255/15 258/17 259/18 256/16 
f 258/17 261/19 262/20 259/18 
f 261/19 264/21 265/22 262/20 
f 264/21 267/23 268/24 265/22 
f 267/23 270/25 271/26 268/24 
f 270/25 273/27 274/28 271/26 
f 273/27 276/29 277/30 274/28 
f 276/29 279/31 280/32 277/30 
f 279/31 282/33 283/34 280/32 
f 282/33 285/35 286/36 283/34 
f 285/35 288/37 289/38 286/36 
f 288/37 291/39 292/40 289/38 
f 291/39 294/41 295/42 292/40 
f 294/41 297/43 298/44 295/42 
f 297/43 300/45 301/46 298/44 
f 300/45 303/47 304/48 301/46 
f 303/47 306/49 307/50 304/48 
f 306/49 309/51 310/52 307/50 
f 309/51 312/53 313/54 310/52 
f 312/53 315/55 316/56 313/54 
f 315/55 318/57 319/58 316/56 
f 318/57 321/59 322/60 319/58 
f 321/59 324/61 325/62 322/60 
f 324/61 327/63 328/64 325/62 
f 327/63 330/65 331/66 328/64 
f 330/65 333/67 334/68 331/66 
f 333/67 336/69 337/70 334/68 
f 336/69 339/71 340/72 337/70 
f 339/71 342/73 343/74 340/72 
f 342/73 345/75 346/76 343/74 
f 40/78 208/79 207/80 39/77 
f 43/82 210/83 209/84 42/81 
f 46/86 212/87 211/88 45/85 
f 49/90 214/91 213/92 48/89 
f 52/94 216/95 215/96 51/93 
f 55/98 218/99 217/100 54/97 
f 58/102 220/103 219/104 57/101 
f 61/106 222/107 221/108 60/105 
f 64/110 224/111 223/112 63/109 
f 67/114 226/115 225/116 66/113 
f 70/118 228/119 227/120 69/117 
f 73/122 230/123 229/124 72/121 
f 76/126 232/127 231/128 75/125 
f 77/129 78/130 104/131 103/132 
f 79/133 80/134 106/135 105/136 
f 81/137 82/138 108/139 107/140 
f 83/141 84/142 110/143 109/144 
f 85/145 86/146 112/147 111/148 
f 87/149 88/150 114/151 113/152 
f 89/153 90/154 116/155 115/156 
f 91/157 92/158 118/159 117/160 
f 93/161 94/162 120/163 119/164 
f 95/165 96/166 122/167 121/168 
f 97/169 98/170 124/171 123/172 
f 99/173 100/174 126/175 125/176 
f 101/177 102/178 128/179 127/180 
f 103/132 104/131 130/181 129/182 
f 105/136 106/135 132/183 131/184 
f 107/140 108/139 134/185 133/186 
f 109/144 110/143 136/187 135/188 
f 111/148 112/147 138/189 137/190 
f 113/152 114/151 140/191 139/192 
f 115/156 116/155 142/193 141/194 
f 117/160 118/159 144/195 143/196 
f 119/164 120/163 146/197 145/198 
f 121/168 122/167 148/199 147/200 
f 123/172 124/171 150/201 149/202 
f 125/176 126/175 152/203 151/204 
f 127/180 128/179 154/205 153/206 
f 129/182 130/181 156/207 155/208 
f 131/184 132/183 158/209 157/210 
f 133/186 134/185 160/211 159/212 
f 135/188 136/187 162/213 161/214 
f 137/190 138/189 164/215 163/216 
f 139/192 140/191 166/217 165/218 
f 141/194 142/193 168/219 167/220 
f 143/196 144/195 170/221 169/222 
f 145/198 146/197 172/223 171/224 
f 147/200 148/199 174/225 173/226 
f 149/202 150/201 176/227 175/228 
f 151/204 152/203 178/229 177/230 
f 153/206 154/205 180/231 179/232 
f 155/208 156/207 182/233 181/234 
f 157/210 158/209 184/235 183/236 
f 159/212 160/211 186/237 185/238 
f 161/214 162/213 188/239 187/240 
f 163/216 164/215 190/241 189/242 
f 165/218 166/217 192/243 191/244 
f 167/220 168/219 194/245 193/246 
f 169/222 170/221 196/247 195/248 
f 171/224 172/223 198/249 197/250 
f 173/226 174/225 200/251 199/252 
f 175/228 176/227 202/253 201/254 
f 177/230 178/229 204/255 203/256 
f 179/232 180/231 206/257 205/258 
f 78/130 77/129 207/80 208/79 
f 80/134 79/133 209/84 210/83 
f 82/138 81/137 211/88 212/87 
f 84/142 83/141 213/92 214/91 
f 86/146 85/145 215/96 216/95 
f 88/150 87/149 217/100 218/99 
f 90/154 89/153 219/104 220/103 
f 92/158 91/157 221/108 222/107 
f 94/162 93/161 223/112 224/111 
f 96/166 95/165 225/116 226/115 
f 98/170 97/169 227/120 228/119 
f 100/174 99/173 229/124 230/123 
f 102/178 101/177 231/128 232/127 
f 1/260 2/261 236/262 235/259 
f 235/259 236/262 237/3 234/2 
f 40/78 39/77 233/1 238/4 
f 2/261 3/263 239/264 236/262 
f 236/262 239/264 240/5 237/3 
f 41/265 40/78 238/4 241/6 
f 3/263 4/266 242/267 239/264 
f 239/264 242/267 243/7 240/5 
f 42/81 41/265 241/6 244/8 
f 4/266 5/268 245/269 242/267 
f 242/267 245/269 246/9 243/7 
f 43/82 42/81 244/8 247/10 
f 5/268 6/270 248/271 245/269 
f 245/269 248/271 249/11 246/9 
f 44/272 43/82 247/10 250/12 
f 6/270 7/273 251/274 248/271 
f 248/271 251/274 252/13 249/11 
f 45/85 44/272 250/12 253/14 
f 7/273 8/275 254/276 251/274 
f 251/274 254/276 255/15 252/13 
f 46/86 45/85 253/14 256/16 
f 8/275 9/277 257/278 254/276 
f 254/276 257/278 258/17 255/15 
f 47/279 46/86 256/16 259/18 
f 9/277 10/280 260/281 257/278 
f 257/278 260/281 261/19 258/17 
f 48/89 47/279 259/18 262/20 
f 10/280 11/282 263/283 260/281 
f 260/281 263/283 264/21 261/19 
f 49/90 48/89 262/20 265/22 
f 11/282 12/284 266/285 263/283 
f 263/283 266/285 267/23 264/21 
f 50/286 49/90 265/22 268/24 
f 12/284 13/287 269/288 266/285 
f 266/285 269/288 270/25 267/23 
f 51/93 50/286 268/24 271/26 
f 13/287 14/289 272/290 269/288 
f 269/288 272/290 273/27 270/25 
f 52/94 51/93 271/26 274/28 
f 14/289 15/291 275/292 272/290 
f 272/290 275/292 276/29 273/27 
f 53/293 52/94 274/28 277/30 
f 15/291 16/294 278/295 275/292 
f 275/292 278/295 279/31 276/29 
f 54/97 53/293 277/30 280/32 
f 16/294 17/296 281/297 278/295 
f 278/295 281/297 282/33 279/31 
f 55/98 54/97 280/32 283/34 
f 17/296 18/298 284/299 281/297 
f 281/297 284/299 285/35 282/33 
f 56/300 55/98 283/34 286/36 
f 18/298 19/301 287/302 284/299 
f 284/299 287/302 288/37 285/35 
f 57/101 56/300 286/36 289/38 
f 19/301 20/303 290/304 287/302 
f 287/302 290/304 291/39 288/37 
f 58/102 57/101 289/38 292/40 
f 20/303 21/305 293/306 290/304 
f 290/304 293/306 294/41 291/39 
f 59/307 58/102 292/40 295/42 
f 21/305 22/308 296/309 293/306 
f 293/306 296/309 297/43 294/41 
f 60/105 59/307 295/42 298/44 
f 22/308 23/310 299/311 296/309 
f 296/309 299/311 300/45 297/43 
f 61/106 60/105 298/44 301/46 
f 23/310 24/312 302/313 299/311 
f 299/311 302/313 303/47 300/45 
f 62/314 61/106 301/46 304/48 
f 24/312 25/315 305/316 302/313 
f 302/313 305/316 306/49 303/47 
f 63/109 62/314 304/48 307/50 
f 25/315 26/317 308/318 305/316 
f 305/316 308/318 309/51 306/49 
f 64/110 63/109 307/50 310/52 
f 26/317 27/319 311/320 308/318 
f 308/318 311/320 312/53 309/51 
f 65/321 64/110 310/52 313/54 
f 27/319 28/322 314/323 311/320 
f 311/320 314/323 315/55 312/53 
f 66/113 65/321 313/54 316/56 
f 28/322 29/324 317/325 314/323 
f 314/323 317/325 318/57 315/55 
f 67/114 66/113 316/56 319/58 
f 29/324 30/326 320/327 317/325 
f 317/325 320/327 321/59 318/57 
f 68/328 67/114 319/58 322/60 
f 30/326 31/329 323/330 320/327 
f 320/327 323/330 324/61 321/59 
f 69/117 68/328 322/60 325/62 
f 31/329 32/331 326/332 323/330 
f 323/330 326/332 327/63 324/61 
f 70/118 69/117 325/62 328/64 
f 32/331 33/333 329/334 326/332 
f 326/332 329/334 330/65 327/63 
f 71/335 70/118 328/64 331/66 
f 33/333 34/336 332/337 329/334 
f 329/334 332/337 333/67 330/65 
f 72/121 71/335 331/66 334/68 
f 34/336 35/338 335/339 332/337 
f 332/337 335/339 336/69 333/67 
f 73/122 72/121 334/68 337/70 
f 35/338 36/340 338/341 335/339 
f 335/339 338/341 339/71 336/69 
f 74/342 73/122 337/70 340/72 
f 36/340 37/343 341/344 338/341 
f 338/341 341/344 342/73 339/71 
f 75/125 74/342 340/72 343/74 
f 37/343 38/345 344/346 341/344 
f 341/344 344/346 345/75 342/73 
f 76/126 75/125 343/74 346/76 
f 584/4 583/3 580/2 579/1 
f 587/6 586/5 583/3 584/4 
f 590/8 589/7 586/5 587/6 
f 593/10 592/9 589/7 590/8 
f 596/12 595/11 592/9 593/10 
f 599/14 598/13 595/11 596/12 
f 602/16 601/15 598/13 599/14 
f 605/18 604/17 601/15 602/16 
f 608/20 607/19 604/17 605/18 
f 611/22 610/21 607/19 608/20 
f 614/24 613/23 610/21 611/22 
f 617/26 616/25 613/23 614/24 
f 620/28 619/27 616/25 617/26 
f 623/30 622/29 619/27 620/28 
f 626/32 625/31 622/29 623/30 
f 629/34 628/33 625/31 626/32 
f 632/36 631/35 628/33 629/34 
f 635/38 634/37 631/35 632/36 
f 638/40 637/39 634/37 635/38 
f 641/42 640/41 637/39 638/40 
f 644/44 643/43 640/41 641/42 
f 647/46 646/45 643/43 644/44 
f 650/48 649/47 646/45 647/46 
f 653/50 652/49 649/47 650/48 
f 656/52 655/51 652/49 653/50 
f 659/54 658/53 655/51 656/52 
f 662/56 661/55 658/53 659/54 
f 665/58 664/57 661/55 662/56 
f 668/60 667/59 664/57 665/58 
f 671/62 670/61 667/59 668/60 
f 674/64 673/63 670/61 671/62 
f 677/66 676/65 673/63 674/64 
f 680/68 679/67 676/65 677/66 
f 683/70 682/69 679/67 680/68 
f 686/72 685/71 682/69 683/70 
f 689/74 688/73 685/71 686/72 
f 692/76 691/75 688/73 689/74 
f 553/80 554/79 386/78 385/77 
f 555/84 556/83 389/82 388/81 
f 557/88 558/87 392/86 391/85 
f 559/92 560/91 395/90 394/89 
f 561/96 562/95 398/94 397/93 
f 563/100 564/99 401/98 400/97 
f 565/104 566/103 404/102 403/101 
f 567/108 568/107 407/106 406/105 
f 569/112 570/111 410/110 409/109 
f 571/116 572/115 413/114 412/113 
f 573/120 574/119 416/118 415/117 
f 575/124 576/123 419/122 418/121 
f 577/128 578/127 422/126 421/125 
f 450/131 424/130 423/129 449/132 
f 452/135 426/134 425/133 451/136 
f 454/139 428/138 427/137 453/140 
f 456/143 430/142 429/141 455/144 
f 458/147 432/146 431/145 457/148 
f 460/151 434/150 433/149 459/152 
f 462/155 436/154 435/153 461/156 
f 464/159 438/158 437/157 463/160 
f 466/163 440/162 439/161 465/164 
f 468/167 442/166 441/165 467/168 
f 470/171 444/170 443/169 469/172 
f 472/175 446/174 445/173 471/176 
f 474/179 448/178 447/177 473/180 
f 476/181 450/131 449/132 475/182 
f 478/183 452/135 451/136 477/184 
f 480/185 454/139 453/140 479/186 
f 482/187 456/143 455/144 481/188 
f 484/189 458/147 457/148 483/190 
f 486/191 460/151 459/152 485/192 
f 488/193 462/155 461/156 487/194 
f 490/195 464/159 463/160 489/196 
f 492/197 466/163 465/164 491/198 
f 494/199 468/167 467/168 493/200 
f 496/201 470/171 469/172 495/202 
f 498/203 472/175 471/176 497/204 
f 500/205 474/179 473/180 499/206 
f 502/207 476/181 475/182 501/208 
f 504/209 478/183 477/184 503/210 
f 506/211 480/185 479/186 505/212 
f 508/213 482/187 481/188 507/214 
f 510/215 484/189 483/190 509/216 
f 512/217 486/191 485/192 511/218 
f 514/219 488/193 487/194 513/220 
f 516/221 490/195 489/196 515/222 
f 518/223 492/197 491/198 517/224 
f 520/225 494/199 493/200 519/226 
f 522/227 496/201 495/202 521/228 
f 524/229 498/203 497/204 523/230 
f 526/231 500/205 499/206 525/232 
f 528/233 502/207 501/208 527/234 
f 530/235 504/209 503/210 529/236 
f 532/237 506/211 505/212 531/238 
f 534/239 508/213 507/214 533/240 
f 536/241 510/215 509/216 535/242 
f 538/243 512/217 511/218 537/244 
f 540/245 514/219 513/220 539/246 
f 542/247 516/221 515/222 541/248 
f 544/249 518/223 517/224 543/250 
f 546/251 520/225 519/226 545/252 
f 548/253 522/227 521/228 547/254 
f 550/255 524/229 523/230 549/256 
f 552/257 526/231 525/232 551/258 
f 553/80 423/129 424/130 554/79 
f 555/84 425/133 426/134 556/83 
f 557/88 427/137 428/138 558/87 
f 559/92 429/141 430/142 560/91 
f 561/96 431/145 432/146 562/95 
f 563/100 433/149 434/150 564/99 
f 565/104 435/153 436/154 566/103 
f 567/108 437/157 438/158 568/107 
f 569/112 439/161 440/162 570/111 
f 571/116 441/165 442/166 572/115 
f 573/120 443/169 444/170 574/119 
f 575/124 445/173 446/174 576/123 
f 577/128 447/177 448/178 578/127 
f 582/262 348/261 347/260 581/259 
f 583/3 582/262 581/259 580/2 
f 579/1 385/77 386/78 584/4 
f 585/264 349/263 348/261 582/262 
f 586/5 585/264 582/262 583/3 
f 584/4 386/78 387/265 587/6 
f 588/267 350/266 349/263 585/264 
f 589/7 588/267 585/264 586/5 
f 587/6 387/265 388/81 590/8 
f 591/269 351/268 350/266 588/267 
f 592/9 591/269 588/267 589/7 
f 590/8 388/81 389/82 593/10 
f 594/271 352/270 351/268 591/269 
f 595/11 594/271 591/269 592/9 
f 593/10 389/82 390/272 596/12 
f 597/274 353/273 352/270 594/271 
f 598/13 597/274 594/271 595/11 
f 596/12 390/272 391/85 599/14 
f 600/276 354/275 353/273 597/274 
f 601/15 600/276 597/274 598/13 
f 599/14 391/85 392/86 602/16 
f 603/278 355/277 354/275 600/276 
f 604/17 603/278 600/276 601/15 
f 602/16 392/86 393/279 605/18 
f 606/281 356/280 355/277 603/278 
f 607/19 606/281 603/278 604/17 
f 605/18 393/279 394/89 608/20 
f 609/283 357/282 356/280 606/281 
f 610/21 609/283 606/281 607/19 
f 608/20 394/89 395/90 611/22 
f 612/285 358/284 357/282 609/283 
f 613/23 612/285 609/283 610/21 
f 611/22 395/90 396/286 614/24 
f 615/288 359/287 358/284 612/285 
f 616/25 615/288 612/285 613/23 
f 614/24 396/286 397/93 617/26 
f 618/290 360/289 359/287 615/288 
f 619/27 618/290 615/288 616/25 
f 617/26 397/93 398/94 620/28 
f 621/292 361/291 360/289 618/290 
f 622/29 621/292 618/290 619/27 
f 620/28 398/94 399/293 623/30 
f 624/295 362/294 361/291 621/292 
f 625/31 624/295 621/292 622/29 
f 623/30 399/293 400/97 626/32 
f 627/297 363/296 362/294 624/295 
f 628/33 627/297 624/295 625/31 
f 626/32 400/97 401/98 629/34 
f 630/299 364/298 363/296 627/297 
f 631/35 630/299 627/297 628/33 
f 629/34 401/98 402/300 632/36 
f 633/302 365/301 364/298 630/299 
f 634/37 633/302 630/299 631/35 
f 632/36 402/300 403/101 635/38 
f 636/304 366/303 365/301 633/302 
f 637/39 636/304 633/302 634/37 
f 635/38 403/101 404/102 638/40 
f 639/306 367/305 366/303 636/304 
f 640/41 639/306 636/304 637/39 
f 638/40 404/102 405/307 641/42 
f 642/309 368/308 367/305 639/306 
f 643/43 642/309 639/306 640/41 
f 641/42 405/307 406/105 644/44 
f 645/311 369/310 368/308 642/309 
f 646/45 645/311 642/309 643/43 
f 644/44 406/105 407/106 647/46 
f 648/313 370/312 369/310 645/311 
f 649/47 648/313 645/311 646/45 
f 647/46 407/106 408/314 650/48 
f 651/316 371/315 370/312 648/313 
f 652/49 651/316 648/313 649/47 
f 650/48 408/314 409/109 653/50 
f 654/318 372/317 371/315 651/316 
f 655/51 654/318 651/316 652/49 
f 653/50 409/109 410/110 656/52 
f 657/320 373/319 372/317 654/318 
f 658/53 657/320 654/318 655/51 
f 656/52 410/110 411/321 659/54 
f 660/323 374/322 373/319 657/320 
f 661/55 660/323 657/320 658/53 
f 659/54 411/321 412/113 662/56 
f 663/325 375/324 374/322 660/323 
f 664/57 663/325 660/323 661/55 
f 662/56 412/113 413/114 665/58 
f 666/327 376/326 375/324 663/325 
f 667/59 666/327 663/325 664/57 
f 665/58 413/114 414/328 668/60 
f 669/330 377/329 376/326 666/327 
f 670/61 669/330 666/327 667/59 
f 668/60 414/328 415/117 671/62 
f 672/332 378/331 377/329 669/330 
f 673/63 672/332 669/330 670/61 
f 671/62 415/117 416/118 674/64 
f 675/334 379/333 378/331 672/332 
f 676/65 675/334 672/332 673/63 
f 674/64 416/118 417/335 677/66 
f 678/337 380/336 379/333 675/334 
f 679/67 678/337 675/334 676/65 
f 677/66 417/335 418/121 680/68 
f 681/339 381/338 380/336 678/337 
f 682/69 681/339 678/337 679/67 
f 680/68 418/121 419/122 683/70 
f 684/341 382/340 381/338 681/339 
f 685/71 684/341 681/339 682/69 
f 683/70 419/122 420/342 686/72 
f 687/344 383/343 382/340 684/341 
f 688/73 687/344 684/341 685/71 
f 686/72 420/342 421/125 689/74 
f 690/346 384/345 383/343 687/344 
f 691/75 690/346 687/344 688/73 
f 689/74 421/125 422/126 692/76 
f 234/2 233/1 579/1 580/2 
f 346/76 345/75 691/75 692/76 
f 208/79 40/78 386/78 554/79 
f 39/77 207/80 553/80 385/77 
f 210/83 43/82 389/82 556/83 
f 42/81 209/84 555/84 388/81 
f 212/87 46/86 392/86 558/87 
f 45/85 211/88 557/88 391/85 
f 214/91 49/90 395/90 560/91 
f 48/89 213/92 559/92 394/89 
f 216/95 52/94 398/94 562/95 
f 51/93 215/96 561/96 397/93 
f 218/99 55/98 401/98 564/99 
f 54/97 217/100 563/100 400/97 
f 220/103 58/102 404/102 566/103 
f 57/101 219/104 565/104 403/101 
f 222/107 61/106 407/106 568/107 
f 60/105 221/108 567/108 406/105 
f 224/111 64/110 410/110 570/111 
f 63/109 223/112 569/112 409/109 
f 226/115 67/114 413/114 572/115 
f 66/113 225/116 571/116 412/113 
f 228/119 70/118 416/118 574/119 
f 69/117 227/120 573/120 415/117 
f 230/123 73/122 419/122 576/123 
f 72/121 229/124 575/124 418/121 
f 232/127 76/126 422/126 578/127 
f 75/125 231/128 577/128 421/125 
f 104/131 78/130 424/130 450/131 
f 77/129 103/132 449/132 423/129 
f 106/135 80/134 426/134 452/135 
f 79/133 105/136 451/136 425/133 
f 108/139 82/138 428/138 454/139 
f 81/137 107/140 453/140 427/137 
f 110/143 84/142 430/142 456/143 
f 83/141 109/144 455/144 429/141 
f 112/147 86/146 432/146 458/147 
f 85/145 111/148 457/148 431/145 
f 114/151 88/150 434/150 460/151 
f 87/149 113/152 459/152 433/149 
f 116/155 90/154 436/154 462/155 
f 89/153 115/156 461/156 435/153 
f 118/159 92/158 438/158 464/159 
f 91/157 117/160 463/160 437/157 
f 120/163 94/162 440/162 466/163 
f 93/161 119/164 465/164 439/161 
f 122/167 96/166 442/166 468/167 
f 95/165 121/168 467/168 441/165 
f 124/171 98/170 444/170 470/171 
f 97/169 123/172 469/172 443/169 
f 126/175 100/174 446/174 472/175 
f 99/173 125/176 471/176 445/173 
f 128/179 102/178 448/178 474/179 
f 101/177 127/180 473/180 447/177 
f 130/181 104/131 450/131 476/181 
f 103/132 129/182 475/182 449/132 
f 132/183 106/135 452/135 478/183 
f 105/136 131/184 477/184 451/136 
f 134/185 108/139 454/139 480/185 
f 107/140 133/186 479/186 453/140 
f 136/187 110/143 456/143 482/187 
f 109/144 135/188 481/188 455/144 
f 138/189 112/147 458/147 484/189 
f 111/148 137/190 483/190 457/148 
f 140/191 114/151 460/151 486/191 
f 113/152 139/192 485/192 459/152 
f 142/193 116/155 462/155 488/193 
f 115/156 141/194 487/194 461/156 
f 144/195 118/159 464/159 490/195 
f 117/160 143/196 489/196 463/160 
f 146/197 120/163 466/163 492/197 
f 119/164 145/198 491/198 465/164 
f 148/199 122/167 468/167 494/199 
f 121/168 147/200 493/200 467/168 
f 150/201 124/171 470/171 496/201 
f 123/172 149/202 495/202 469/172 
f 152/203 126/175 472/175 498/203 
f 125/176 151/204 497/204 471/176 
f 154/205 128/179 474/179 500/205 
f 127/180 153/206 499/206 473/180 
f 156/207 130/181 476/181 502/207 
f 129/182 155/208 501/208 475/182 
f 158/209 132/183 478/183 504/209 
f 131/184 157/210 503/210 477/184 
f 160/211 134/185 480/185 506/211 
f 133/186 159/212 505/212 479/186 
f 162/213 136/187 482/187 508/213 
f 135/188 161/214 507/214 481/188 
f 164/215 138/189 484/189 510/215 
f 137/190 163/216 509/216 483/190 
f 166/217 140/191 486/191 512/217 
f 139/192 165/218 511/218 485/192 
f 168/219 142/193 488/193 514/219 
f 141/194 167/220 513/220 487/194 
f 170/221 144/195 490/195 516/221 
f 143/196 169/222 515/222 489/196 
f 172/223 146/197 492/197 518/223 
f 145/198 171/224 517/224 491/198 
f 174/225 148/199 494/199 520/225 
f 147/200 173/226 519/226 493/200 
f 176/227 150/201 496/201 522/227 
f 149/202 175/228 521/228 495/202 
f 178/229 152/203 498/203 524/229 
f 151/204 177/230 523/230 497/204 
f 180/231 154/205 500/205 526/231 
f 153/206 179/232 525/232 499/206 
f 182/233 156/207 502/207 528/233 
f 181/234 182/233 528/233 527/234 
f 155/208 181/234 527/234 501/208 
f 184/235 158/209 504/209 530/235 
f 183/236 184/235 530/235 529/236 
f 157/210 183/236 529/236 503/210 
f 186/237 160/211 506/211 532/237 
f 185/238 186/237 532/237 531/238 
f 159/212 185/238 531/238 505/212 
f 188/239 162/213 508/213 534/239 
f 187/240 188/239 534/239 533/240 
f 161/214 187/240 533/240 507/214 
f 190/241 164/215 510/215 536/241 
f 189/242 190/241 536/241 535/242 
f 163/216 189/242 535/242 509/216 
f 192/243 166/217 512/217 538/243 
f 191/244 192/243 538/243 537/244 
f 165/218 191/244 537/244 511/218 
f 194/245 168/219 514/219 540/245 
f 193/246 194/245 540/245 539/246 
f 167/220 193/246 539/246 513/220 
f 196/247 170/221 516/221 542/247 
f 195/248 196/247 542/247 541/248 
f 169/222 195/248 541/248 515/222 
f 198/249 172/223 518/223 544/249 
f 197/250 198/249 544/249 543/250 
f 171/224 197/250 543/250 517/224 
f 200/251 174/225 520/225 546/251 
f 199/252 200/251 546/251 545/252 
f 173/226 199/252 545/252 519/226 
f 202/253 176/227 522/227 548/253 
f 201/254 202/253 548/253 547/254 
f 175/228 201/254 547/254 521/228 
f 204/255 178/229 524/229 550/255 
f 203/256 204/255 550/255 549/256 
f 177/230 203/256 549/256 523/230 
f 206/257 180/231 526/231 552/257 
f 205/258 206/257 552/257 551/258 
f 179/232 205/258 551/258 525/232 
f 207/80 77/129 423/129 553/80 
f 78/130 208/79 554/79 424/130 
f 209/84 79/133 425/133 555/84 
f 80/134 210/83 556/83 426/134 
f 211/88 81/137 427/137 557/88 
f 82/138 212/87 558/87 428/138 
f 213/92 83/141 429/141 559/92 
f 84/142 214/91 560/91 430/142 
f 215/96 85/145 431/145 561/96 
f 86/146 216/95 562/95 432/146 
f 217/100 87/149 433/149 563/100 
f 88/150 218/99 564/99 434/150 
f 219/104 89/153 435/153 565/104 
f 90/154 220/103 566/103 436/154 
f 221/108 91/157 437/157 567/108 
f 92/158 222/107 568/107 438/158 
f 223/112 93/161 439/161 569/112 
f 94/162 224/111 570/111 440/162 
f 225/116 95/165 441/165 571/116 
f 96/166 226/115 572/115 442/166 
f 227/120 97/169 443/169 573/120 
f 98/170 228/119 574/119 444/170 
f 229/124 99/173 445/173 575/124 
f 100/174 230/123 576/123 446/174 
f 231/128 101/177 447/177 577/128 
f 102/178 232/127 578/127 448/178 
f 2/261 1/260 347/260 348/261 
f 1/260 235/259 581/259 347/260 
f 235/259 234/2 580/2 581/259 
f 233/1 39/77 385/77 579/1 
f 3/263 2/261 348/261 349/263 
f 40/78 41/265 387/265 386/78 
f 4/266 3/263 349/263 350/266 
f 41/265 42/81 388/81 387/265 
f 5/268 4/266 350/266 351/268 
f 6/270 5/268 351/268 352/270 
f 43/82 44/272 390/272 389/82 
f 7/273 6/270 352/270 353/273 
f 44/272 45/85 391/85 390/272 
f 8/275 7/273 353/273 354/275 
f 9/277 8/275 354/275 355/277 
f 46/86 47/279 393/279 392/86 
f 10/280 9/277 355/277 356/280 
f 47/279 48/89 394/89 393/279 
f 11/282 10/280 356/280 357/282 
f 12/284 11/282 357/282 358/284 
f 49/90 50/286 396/286 395/90 
f 13/287 12/284 358/284 359/287 
f 50/286 51/93 397/93 396/286 
f 14/289 13/287 359/287 360/289 
f 15/291 14/289 360/289 361/291 
f 52/94 53/293 399/293 398/94 
f 16/294 15/291 361/291 362/294 
f 53/293 54/97 400/97 399/293 
f 17/296 16/294 362/294 363/296 
f 18/298 17/296 363/296 364/298 
f 55/98 56/300 402/300 401/98 
f 19/301 18/298 364/298 365/301 
f 56/300 57/101 403/101 402/300 
f 20/303 19/301 365/301 366/303 
f 21/305 20/303 366/303 367/305 
f 58/102 59/307 405/307 404/102 
f 22/308 21/305 367/305 368/308 
f 59/307 60/105 406/105 405/307 
f 23/310 22/308 368/308 369/310 
f 24/312 23/310 369/310 370/312 
f 61/106 62/314 408/314 407/106 
f 25/315 24/312 370/312 371/315 
f 62/314 63/109 409/109 408/314 
f 26/317 25/315 371/315 372/317 
f 27/319 26/317 372/317 373/319 
f 64/110 65/321 411/321 410/110 
f 28/322 27/319 373/319 374/322 
f 65/321 66/113 412/113 411/321 
f 29/324 28/322 374/322 375/324 
f 30/326 29/324 375/324 376/326 
f 67/114 68/328 414/328 413/114 
f 31/329 30/326 376/326 377/329 
f 68/328 69/117 415/117 414/328 
f 32/331 31/329 377/329 378/331 
f 33/333 32/331 378/331 379/333 
f 70/118 71/335 417/335 416/118 
f 34/336 33/333 379/333 380/336 
f 71/335 72/121 418/121 417/335 
f 35/338 34/336 380/336 381/338 
f 36/340 35/338 381/338 382/340 
f 73/122 74/342 420/342 419/122 
f 37/343 36/340 382/340 383/343 
f 74/342 75/125 421/125 420/342 
f 38/345 37/343 383/343 384/345 
f 344/346 38/345 384/345 690/346 
f 345/75 344/346 690/346 691/75 
f 76/126 346/76 692/76 422/126 
# 690 polygons

